<svg xmlns="http://www.w3.org/2000/svg" viewBox="0 0 200 200" width="200" height="200">
  <rect width="200" height="200" fill="#faf9f7" rx="8"/>
  <!-- Block scheme: hierarchical blocks -->
  <rect x="70" y="25" width="60" height="30" rx="4" fill="#c98a6a"/>
  <line x1="100" y1="55" x2="100" y2="75" stroke="#c98a6a" stroke-width="1.5"/>
  <line x1="50" y1="75" x2="150" y2="75" stroke="#c98a6a" stroke-width="1.5"/>
  <line x1="50" y1="75" x2="50" y2="85" stroke="#c98a6a" stroke-width="1.5"/>
  <line x1="100" y1="75" x2="100" y2="85" stroke="#c98a6a" stroke-width="1.5"/>
  <line x1="150" y1="75" x2="150" y2="85" stroke="#c98a6a" stroke-width="1.5"/>
  <rect x="25" y="85" width="50" height="28" rx="4" fill="#c98a6a" opacity="0.6"/>
  <rect x="75" y="85" width="50" height="28" rx="4" fill="#c98a6a" opacity="0.6"/>
  <rect x="125" y="85" width="50" height="28" rx="4" fill="#c98a6a" opacity="0.6"/>
  <line x1="50" y1="113" x2="50" y2="130" stroke="#c98a6a" stroke-width="1.5"/>
  <rect x="25" y="130" width="50" height="28" rx="4" fill="#c98a6a" opacity="0.35"/>
  <line x1="100" y1="113" x2="100" y2="130" stroke="#c98a6a" stroke-width="1.5"/>
  <rect x="75" y="130" width="50" height="28" rx="4" fill="#c98a6a" opacity="0.35"/>
  <line x1="150" y1="113" x2="150" y2="130" stroke="#c98a6a" stroke-width="1.5"/>
  <rect x="125" y="130" width="50" height="28" rx="4" fill="#c98a6a" opacity="0.35"/>
</svg>
