<svg xmlns="http://www.w3.org/2000/svg" viewBox="0 0 680 520" width="100%">
<defs>
  <marker id="a1" viewBox="0 0 10 10" refX="8" refY="5" markerWidth="6" markerHeight="6" orient="auto-start-reverse">
    <path d="M2 1L8 5L2 9" fill="none" stroke="#5b7faa" stroke-width="1.5" stroke-linecap="round" stroke-linejoin="round"/>
  </marker>
</defs>

<!-- Background -->
<rect width="680" height="520" fill="#f1f3f5" rx="4"/>

<!-- Title -->
<text x="340" y="42" text-anchor="middle" font-family="'Noto Serif SC',serif" font-size="18" font-weight="700" fill="#0a1f3d">AI 定价模式演变</text>
<text x="340" y="62" text-anchor="middle" font-family="'IBM Plex Mono',monospace" font-size="10" fill="#6b8ab0" letter-spacing="2">PRICING EVOLUTION · 2024-2026</text>

<!-- Timeline axis -->
<line x1="80" y1="280" x2="620" y2="280" stroke="#c8d4e0" stroke-width="1.5"/>

<!-- Phase labels -->
<rect x="80" y="90" width="170" height="28" rx="14" fill="#e4e8ec"/>
<text x="165" y="109" text-anchor="middle" font-family="'IBM Plex Mono',monospace" font-size="9" fill="#4a6a8a" letter-spacing="1">PHASE 01 · 价格战</text>

<rect x="260" y="90" width="180" height="28" rx="14" fill="#d4e0ec"/>
<text x="350" y="109" text-anchor="middle" font-family="'IBM Plex Mono',monospace" font-size="9" fill="#2a4a6a" letter-spacing="1">PHASE 02 · Coding Plan</text>

<rect x="450" y="90" width="170" height="28" rx="14" fill="#0a1f3d"/>
<text x="535" y="109" text-anchor="middle" font-family="'IBM Plex Mono',monospace" font-size="9" fill="#f1f3f5" letter-spacing="1">PHASE 03 · Token Plan</text>

<!-- Year markers -->
<text x="120" y="310" text-anchor="middle" font-family="'IBM Plex Mono',monospace" font-size="11" fill="#8aa0b8">2024 Q4</text>
<text x="260" y="310" text-anchor="middle" font-family="'IBM Plex Mono',monospace" font-size="11" fill="#8aa0b8">2025 Q4</text>
<text x="420" y="310" text-anchor="middle" font-family="'IBM Plex Mono',monospace" font-size="11" fill="#8aa0b8">2026 Q1</text>
<text x="560" y="310" text-anchor="middle" font-family="'IBM Plex Mono',monospace" font-size="11" fill="#8aa0b8">2026 Q4</text>

<!-- Event nodes - Top row -->
<!-- Node 1: DeepSeek 降价 -->
<rect x="70" y="140" width="130" height="70" rx="12" fill="#f5f7fa" stroke="#a0b4c8" stroke-width="1.5"/>
<text x="135" y="168" text-anchor="middle" font-family="'Noto Serif SC',serif" font-size="12" font-weight="600" fill="#0a1f3d">DeepSeek 带头</text>
<text x="135" y="186" text-anchor="middle" font-family="'Noto Sans SC',sans-serif" font-size="10" fill="#4a6a8a">百万 Token 几毛钱</text>
<line x1="135" y1="210" x2="135" y2="280" stroke="#c8d4e0" stroke-width="1"/>
<circle cx="135" cy="280" r="5" fill="#a0b4c8"/>

<!-- Node 2: 智谱 Coding Plan -->
<rect x="220" y="140" width="140" height="70" rx="12" fill="#e8eef5" stroke="#7a98b8" stroke-width="1.5"/>
<text x="290" y="168" text-anchor="middle" font-family="'Noto Serif SC',serif" font-size="12" font-weight="600" fill="#0a1f3d">智谱 Coding Plan</text>
<text x="290" y="186" text-anchor="middle" font-family="'Noto Sans SC',sans-serif" font-size="10" fill="#3a5a7a">固定月费 · ARR 破亿</text>
<line x1="290" y1="210" x2="290" y2="280" stroke="#c8d4e0" stroke-width="1"/>
<circle cx="290" cy="280" r="5" fill="#7a98b8"/>

<!-- Arrow 1 → 2 -->
<path d="M200 175 C210 175,210 175,220 175" fill="none" stroke="#7a98b8" stroke-width="1.5" marker-end="url(#a1)"/>

<!-- Node 3: 全面铺开 -->
<rect x="375" y="140" width="130" height="70" rx="12" fill="#dce6f0" stroke="#5b7faa" stroke-width="1.5"/>
<text x="440" y="168" text-anchor="middle" font-family="'Noto Serif SC',serif" font-size="12" font-weight="600" fill="#0a1f3d">六大平台上线</text>
<text x="440" y="186" text-anchor="middle" font-family="'Noto Sans SC',sans-serif" font-size="10" fill="#2a4a6a">全面铺开</text>
<line x1="440" y1="210" x2="440" y2="280" stroke="#c8d4e0" stroke-width="1"/>
<circle cx="440" cy="280" r="5" fill="#5b7faa"/>

<!-- Arrow 2 → 3 -->
<path d="M360 175 C368 175,368 175,375 175" fill="none" stroke="#5b7faa" stroke-width="1.5" marker-end="url(#a1)"/>

<!-- Node 4: Token Plan -->
<rect x="520" y="140" width="130" height="70" rx="12" fill="#0a1f3d"/>
<text x="585" y="168" text-anchor="middle" font-family="'Noto Serif SC',serif" font-size="12" font-weight="600" fill="#f1f3f5">Token Plan</text>
<text x="585" y="186" text-anchor="middle" font-family="'Noto Sans SC',sans-serif" font-size="10" fill="#a0b8d0">精细计量 · 终态</text>
<line x1="585" y1="210" x2="585" y2="280" stroke="#c8d4e0" stroke-width="1"/>
<circle cx="585" cy="280" r="5" fill="#0a1f3d"/>

<!-- Arrow 3 → 4 -->
<path d="M505 175 C512 175,512 175,520 175" fill="none" stroke="#3a5a7a" stroke-width="1.5" marker-end="url(#a1)"/>

<!-- Bottom row: Token cost trend -->
<text x="340" y="345" text-anchor="middle" font-family="'IBM Plex Mono',monospace" font-size="10" fill="#6b8ab0" letter-spacing="2">TOKEN 价格趋势（每百万，输入）</text>

<!-- Mini chart area -->
<rect x="100" y="360" width="480" height="140" rx="8" fill="#f5f7fa" stroke="#dce6f0" stroke-width="1"/>

<!-- Grid lines -->
<line x1="120" y1="375" x2="560" y2="375" stroke="#e4e8ec" stroke-width="0.5"/>
<line x1="120" y1="405" x2="560" y2="405" stroke="#e4e8ec" stroke-width="0.5"/>
<line x1="120" y1="435" x2="560" y2="435" stroke="#e4e8ec" stroke-width="0.5"/>
<line x1="120" y1="465" x2="560" y2="465" stroke="#e4e8ec" stroke-width="0.5"/>

<!-- Y axis labels -->
<text x="115" y="379" text-anchor="end" font-family="'IBM Plex Mono',monospace" font-size="9" fill="#8aa0b8">¥50</text>
<text x="115" y="409" text-anchor="end" font-family="'IBM Plex Mono',monospace" font-size="9" fill="#8aa0b8">¥30</text>
<text x="115" y="439" text-anchor="end" font-family="'IBM Plex Mono',monospace" font-size="9" fill="#8aa0b8">¥10</text>
<text x="115" y="469" text-anchor="end" font-family="'IBM Plex Mono',monospace" font-size="9" fill="#8aa0b8">¥1</text>

<!-- Data line: price dropping -->
<polyline points="140,378 200,388 280,410 360,430 440,448 520,458" fill="none" stroke="#0a1f3d" stroke-width="2.5" stroke-linecap="round"/>
<polyline points="140,378 200,388 280,410 360,430 440,448 520,458" fill="none" stroke="#3a7ab8" stroke-width="1" stroke-dasharray="3,3" opacity="0.4"/>

<!-- Data points -->
<circle cx="140" cy="378" r="4" fill="#0a1f3d"/>
<circle cx="200" cy="388" r="4" fill="#1a3a5a"/>
<circle cx="280" cy="410" r="4" fill="#2a4a6a"/>
<circle cx="360" cy="430" r="4" fill="#3a5a7a"/>
<circle cx="440" cy="448" r="4" fill="#4a6a8a"/>
<circle cx="520" cy="458" r="4" fill="#0a1f3d"/>

<!-- Data labels -->
<text x="140" y="370" text-anchor="middle" font-family="'IBM Plex Mono',monospace" font-size="9" fill="#4a6a8a">¥45</text>
<text x="280" y="402" text-anchor="middle" font-family="'IBM Plex Mono',monospace" font-size="9" fill="#2a4a6a">¥15</text>
<text x="440" y="440" text-anchor="middle" font-family="'IBM Plex Mono',monospace" font-size="9" fill="#1a3a5a">¥5</text>
<text x="520" y="450" text-anchor="middle" font-family="'IBM Plex Mono',monospace" font-size="9" font-weight="600" fill="#0a1f3d">¥1</text>

<!-- X labels -->
<text x="140" y="490" text-anchor="middle" font-family="'IBM Plex Mono',monospace" font-size="8" fill="#8aa0b8">2024Q4</text>
<text x="200" y="490" text-anchor="middle" font-family="'IBM Plex Mono',monospace" font-size="8" fill="#8aa0b8">2025Q1</text>
<text x="280" y="490" text-anchor="middle" font-family="'IBM Plex Mono',monospace" font-size="8" fill="#8aa0b8">2025Q4</text>
<text x="360" y="490" text-anchor="middle" font-family="'IBM Plex Mono',monospace" font-size="8" fill="#8aa0b8">2026Q1</text>
<text x="440" y="490" text-anchor="middle" font-family="'IBM Plex Mono',monospace" font-size="8" fill="#8aa0b8">2026Q2</text>
<text x="520" y="490" text-anchor="middle" font-family="'IBM Plex Mono',monospace" font-size="8" fill="#8aa0b8">2026Q4</text>

</svg>
