<?xml version="1.0" encoding="UTF-8"?>
<svg xmlns="http://www.w3.org/2000/svg" viewBox="0 0 1280 720">
    <rect width="1280" height="720" fill="#FFFFFF" />
    <rect x="0" y="0" width="1280" height="6" fill="#D97757" />

    <text x="60" y="55" font-family="Arial, sans-serif" font-size="14" font-weight="500" fill="#D97757" letter-spacing="2">METRICS</text>

    <text x="60" y="95" font-family="Microsoft YaHei, Arial, sans-serif" font-size="30" font-weight="bold" fill="#1A1A2E">
        五种计量体系并存 — 最大信息壁垒
    </text>

    <path fill="#EF4444" fill-opacity="0.08" d="M66,115 H1154 A6,6 0 0 1 1160,121 V141 A6,6 0 0 1 1154,147 H66 A6,6 0 0 1 60,141 V121 A6,6 0 0 1 66,115 Z" />
    <text x="610" y="137" text-anchor="middle" font-family="Microsoft YaHei, Arial, sans-serif" font-size="14" fill="#EF4444" font-weight="600">直接比数字毫无意义，90%开发者踩坑</text>

    <g font-family="Microsoft YaHei, Arial, sans-serif">
        <path fill="#F8FAFC" stroke="#E2E8F0" stroke-width="1" d="M70,170 H270 A10,10 0 0 1 280,180 V350 A10,10 0 0 1 270,360 H70 A10,10 0 0 1 60,350 V180 A10,10 0 0 1 70,170 Z" />
        <path fill="#EF4444" d="M62,170 H278 A2,2 0 0 1 280,172 V173 A2,2 0 0 1 278,175 H62 A2,2 0 0 1 60,173 V172 A2,2 0 0 1 62,170 Z" />
        <text x="170" y="205" text-anchor="middle" font-size="14" font-weight="600" fill="#EF4444">API 请求次数</text>
        <text x="80" y="235" font-size="13" fill="#1A1A2E">采用者：阿里/火山/腾讯</text>
        <text x="80" y="260" font-size="13" fill="#64748B">1提问 = 5-30次API</text>
        <text x="80" y="285" font-size="13" fill="#64748B">数字大但消耗不透明</text>
        <path fill="#EF4444" fill-opacity="0.1" d="M92,310 H128 A12,12 0 0 1 140,322 V322 A12,12 0 0 1 128,334 H92 A12,12 0 0 1 80,322 V322 A12,12 0 0 1 92,310 Z" />
        <text x="110" y="327" text-anchor="middle" font-size="12" font-weight="600" fill="#EF4444">透明度:低</text>

        <path fill="#F8FAFC" stroke="#E2E8F0" stroke-width="1" d="M310,170 H510 A10,10 0 0 1 520,180 V350 A10,10 0 0 1 510,360 H310 A10,10 0 0 1 300,350 V180 A10,10 0 0 1 310,170 Z" />
        <path fill="#D97757" d="M302,170 H518 A2,2 0 0 1 520,172 V173 A2,2 0 0 1 518,175 H302 A2,2 0 0 1 300,173 V172 A2,2 0 0 1 302,170 Z" />
        <text x="410" y="205" text-anchor="middle" font-size="14" font-weight="600" fill="#D97757">Prompt 次数</text>
        <text x="320" y="235" font-size="13" fill="#1A1A2E">采用者：智谱/MiniMax早期</text>
        <text x="320" y="260" font-size="13" fill="#64748B">1 Prompt≈1200-1600 API</text>
        <text x="320" y="285" font-size="13" fill="#64748B">比API次数直观</text>
        <path fill="#D97757" fill-opacity="0.1" d="M332,310 H368 A12,12 0 0 1 380,322 V322 A12,12 0 0 1 368,334 H332 A12,12 0 0 1 320,322 V322 A12,12 0 0 1 332,310 Z" />
        <text x="350" y="327" text-anchor="middle" font-size="12" font-weight="600" fill="#D97757">透明度:中</text>

        <path fill="#F8FAFC" stroke="#E2E8F0" stroke-width="1" d="M550,170 H750 A10,10 0 0 1 760,180 V350 A10,10 0 0 1 750,360 H550 A10,10 0 0 1 540,350 V180 A10,10 0 0 1 550,170 Z" />
        <path fill="#10B981" d="M542,170 H758 A2,2 0 0 1 760,172 V173 A2,2 0 0 1 758,175 H542 A2,2 0 0 1 540,173 V172 A2,2 0 0 1 542,170 Z" />
        <text x="650" y="205" text-anchor="middle" font-size="14" font-weight="600" fill="#10B981">Token 计量</text>
        <text x="560" y="235" font-size="13" fill="#1A1A2E">采用者：Kimi/MiniMax新版</text>
        <text x="560" y="260" font-size="13" fill="#64748B">按输入输出Token计费</text>
        <text x="560" y="285" font-size="13" fill="#64748B">最透明，用户难预估</text>
        <path fill="#10B981" fill-opacity="0.1" d="M572,310 H608 A12,12 0 0 1 620,322 V322 A12,12 0 0 1 608,334 H572 A12,12 0 0 1 560,322 V322 A12,12 0 0 1 572,310 Z" />
        <text x="590" y="327" text-anchor="middle" font-size="12" font-weight="600" fill="#10B981">透明度:高</text>

        <path fill="#F8FAFC" stroke="#E2E8F0" stroke-width="1" d="M790,170 H990 A10,10 0 0 1 1000,180 V350 A10,10 0 0 1 990,360 H790 A10,10 0 0 1 780,350 V180 A10,10 0 0 1 790,170 Z" />
        <path fill="#4A90D9" d="M782,170 H998 A2,2 0 0 1 1000,172 V173 A2,2 0 0 1 998,175 H782 A2,2 0 0 1 780,173 V172 A2,2 0 0 1 782,170 Z" />
        <text x="890" y="205" text-anchor="middle" font-size="14" font-weight="600" fill="#4A90D9">Credit 计量</text>
        <text x="800" y="235" font-size="13" fill="#1A1A2E">采用者：Cursor/小米/阿里</text>
        <text x="800" y="260" font-size="13" fill="#64748B">统一Credit池，不同倍率</text>
        <text x="800" y="285" font-size="13" fill="#64748B">抽象但可预测</text>
        <path fill="#4A90D9" fill-opacity="0.1" d="M812,310 H848 A12,12 0 0 1 860,322 V322 A12,12 0 0 1 848,334 H812 A12,12 0 0 1 800,322 V322 A12,12 0 0 1 812,310 Z" />
        <text x="830" y="327" text-anchor="middle" font-size="12" font-weight="600" fill="#4A90D9">透明度:中</text>

        <path fill="#F8FAFC" stroke="#E2E8F0" stroke-width="1" d="M1030,170 H1230 A10,10 0 0 1 1240,180 V350 A10,10 0 0 1 1230,360 H1030 A10,10 0 0 1 1020,350 V180 A10,10 0 0 1 1030,170 Z" />
        <path fill="#64748B" d="M1022,170 H1238 A2,2 0 0 1 1240,172 V173 A2,2 0 0 1 1238,175 H1022 A2,2 0 0 1 1020,173 V172 A2,2 0 0 1 1022,170 Z" />
        <text x="1130" y="205" text-anchor="middle" font-size="14" font-weight="600" fill="#64748B">时间窗口配额</text>
        <text x="1040" y="235" font-size="13" fill="#1A1A2E">采用者：智谱/Claude</text>
        <text x="1040" y="260" font-size="13" fill="#64748B">每5小时限额+周/月上限</text>
        <text x="1040" y="285" font-size="13" fill="#64748B">限制节奏而非总量</text>
        <path fill="#64748B" fill-opacity="0.1" d="M1052,310 H1088 A12,12 0 0 1 1100,322 V322 A12,12 0 0 1 1088,334 H1052 A12,12 0 0 1 1040,322 V322 A12,12 0 0 1 1052,310 Z" />
        <text x="1070" y="327" text-anchor="middle" font-size="12" font-weight="600" fill="#64748B">透明度:中</text>
    </g>

    <text x="60" y="400" font-family="Microsoft YaHei, Arial, sans-serif" font-size="20" font-weight="bold" fill="#1A1A2E">计量单位演变趋势</text>

    <g>
        <path fill="#F8FAFC" stroke="#E2E8F0" stroke-width="1" d="M70,420 H1210 A10,10 0 0 1 1220,430 V470 A10,10 0 0 1 1210,480 H70 A10,10 0 0 1 60,470 V430 A10,10 0 0 1 70,420 Z" />
        <path fill="#4A90D9" fill-opacity="0.1" d="M70,420 H340 A10,10 0 0 1 350,430 V470 A10,10 0 0 1 340,480 H70 A10,10 0 0 1 60,470 V430 A10,10 0 0 1 70,420 Z" />
        <text x="205" y="455" text-anchor="middle" font-family="Microsoft YaHei, Arial, sans-serif" font-size="16" font-weight="600" fill="#4A90D9">API 请求次数</text>
        <polygon points="370,455 358,448 358,462" fill="#64748B" />
        <text x="370" y="450" text-anchor="middle" font-size="10" fill="#64748B" />

        <path fill="#D97757" fill-opacity="0.1" d="M390,420 H660 A10,10 0 0 1 670,430 V470 A10,10 0 0 1 660,480 H390 A10,10 0 0 1 380,470 V430 A10,10 0 0 1 390,420 Z" />
        <text x="525" y="455" text-anchor="middle" font-family="Microsoft YaHei, Arial, sans-serif" font-size="16" font-weight="600" fill="#D97757">Prompt 次数</text>

        <polygon points="690,455 678,448 678,462" fill="#64748B" />

        <path fill="#10B981" fill-opacity="0.1" d="M710,420 H980 A10,10 0 0 1 990,430 V470 A10,10 0 0 1 980,480 H710 A10,10 0 0 1 700,470 V430 A10,10 0 0 1 710,420 Z" />
        <text x="845" y="455" text-anchor="middle" font-family="Microsoft YaHei, Arial, sans-serif" font-size="16" font-weight="600" fill="#10B981">Token / Credit</text>

        <polygon points="1010,455 998,448 998,462" fill="#64748B" />

        <path fill="#10B981" fill-opacity="0.15" stroke="#10B981" stroke-width="2" d="M1030,420 H1210 A10,10 0 0 1 1220,430 V470 A10,10 0 0 1 1210,480 H1030 A10,10 0 0 1 1020,470 V430 A10,10 0 0 1 1030,420 Z" />
        <text x="1120" y="455" text-anchor="middle" font-family="Microsoft YaHei, Arial, sans-serif" font-size="16" font-weight="bold" fill="#10B981">统一 Credits</text>
    </g>

    <text x="640" y="530" text-anchor="middle" font-family="Microsoft YaHei, Arial, sans-serif" font-size="18" font-weight="600" fill="#1A1A2E">方向：越来越透明、越来越可预测</text>

    <path fill="#4A90D9" fill-opacity="0.08" stroke="#4A90D9" stroke-width="1" d="M70,560 H1150 A10,10 0 0 1 1160,570 V630 A10,10 0 0 1 1150,640 H70 A10,10 0 0 1 60,630 V570 A10,10 0 0 1 70,560 Z" />
    <text x="90" y="590" font-family="Microsoft YaHei, Arial, sans-serif" font-size="15" font-weight="600" fill="#4A90D9">Agent 场景消耗</text>
    <text x="90" y="615" font-family="Microsoft YaHei, Arial, sans-serif" font-size="14" fill="#1A1A2E">文件读取 35-45% | 工具输出 15-25% | 上下文重发 15-20% | 推理 10-15% | 代码生成仅 5-15%</text>

    <text x="60" y="670" font-family="Microsoft YaHei, Arial, sans-serif" font-size="12" fill="#64748B">数据来源：DEV Community 研究、OpenRouter 公开数据、Cursor 官方</text>

    <text x="640" y="705" text-anchor="middle" font-family="Arial, sans-serif" font-size="14" fill="#64748B">6 / 15</text>
</svg>