<?xml version="1.0" encoding="UTF-8"?>
<svg xmlns="http://www.w3.org/2000/svg" viewBox="0 0 1280 720">
    <defs>
        <linearGradient id="bgGradient" x1="0%" y1="0%" x2="100%" y2="100%">
            <stop offset="0%" stop-color="#1A1A2E"/>
            <stop offset="50%" stop-color="#16213E"/>
            <stop offset="100%" stop-color="#0F0F1A"/>
        </linearGradient>
        <linearGradient id="accentGradient" x1="0%" y1="0%" x2="100%" y2="0%">
            <stop offset="0%" stop-color="#D97757"/>
            <stop offset="100%" stop-color="#E8956F"/>
        </linearGradient>
        <radialGradient id="glowOrange" cx="50%" cy="50%" r="50%">
            <stop offset="0%" stop-color="#D97757" stop-opacity="0.2"/>
            <stop offset="100%" stop-color="#D97757" stop-opacity="0"/>
        </radialGradient>
        <radialGradient id="glowBlue" cx="50%" cy="50%" r="50%">
            <stop offset="0%" stop-color="#4A90D9" stop-opacity="0.15"/>
            <stop offset="100%" stop-color="#4A90D9" stop-opacity="0"/>
        </radialGradient>
    </defs>

    <rect width="1280" height="720" fill="url(#bgGradient)"/>

    <g stroke="#FFFFFF" stroke-opacity="0.02" stroke-width="1">
        <line x1="0" y1="180" x2="1280" y2="180"/>
        <line x1="0" y1="360" x2="1280" y2="360"/>
        <line x1="0" y1="540" x2="1280" y2="540"/>
        <line x1="320" y1="0" x2="320" y2="720"/>
        <line x1="640" y1="0" x2="640" y2="720"/>
        <line x1="960" y1="0" x2="960" y2="720"/>
    </g>

    <ellipse cx="300" cy="200" rx="250" ry="180" fill="url(#glowBlue)"/>
    <ellipse cx="980" cy="500" rx="280" ry="200" fill="url(#glowOrange)"/>

    <g stroke="#4A90D9" stroke-opacity="0.3" stroke-width="1" fill="none">
        <path d="M150,150 Q250,100 350,180"/>
        <path d="M350,180 Q420,250 380,320"/>
        <path d="M950,400 Q1050,350 1100,420"/>
        <path d="M1100,420 Q1150,500 1080,550"/>
    </g>

    <g fill="#4A90D9" fill-opacity="0.5">
        <circle cx="150" cy="150" r="5"/>
        <circle cx="350" cy="180" r="7"/>
        <circle cx="380" cy="320" r="4"/>
    </g>
    <g fill="#D97757" fill-opacity="0.6">
        <circle cx="950" cy="400" r="6"/>
        <circle cx="1100" cy="420" r="8"/>
        <circle cx="1080" cy="550" r="5"/>
    </g>

    <text x="640" y="240" text-anchor="middle" font-family="Arial, sans-serif" font-size="16" font-weight="500" fill="#D97757" letter-spacing="3">
        THANK YOU
    </text>

    <text x="640" y="310" text-anchor="middle" font-family="Microsoft YaHei, Arial, sans-serif" font-size="52" font-weight="bold" fill="#FFFFFF">
        谢谢
    </text>

    <rect x="540" y="350" width="200" height="3" fill="url(#accentGradient)" rx="1.5"/>

    <text x="640" y="410" text-anchor="middle" font-family="Microsoft YaHei, Arial, sans-serif" font-size="20" fill="#FFFFFF" fill-opacity="0.7">
        计量单位即定价权 — 从 Coding Plan 到 Token Plan
    </text>

    <rect x="440" y="460" width="400" height="120" fill="#FFFFFF" fill-opacity="0.05" stroke="#FFFFFF" stroke-opacity="0.1" stroke-width="1" rx="12"/>

    <text x="640" y="505" text-anchor="middle" font-family="Microsoft YaHei, Arial, sans-serif" font-size="16" font-weight="600" fill="#FFFFFF" fill-opacity="0.85">
        核心三件事
    </text>
    <text x="640" y="532" text-anchor="middle" font-family="Microsoft YaHei, Arial, sans-serif" font-size="14" fill="#FFFFFF" fill-opacity="0.65">
        计量单位即定价权 | 补贴-收紧-分层节奏 | 入口到生态升级
    </text>
    <text x="640" y="558" text-anchor="middle" font-family="Microsoft YaHei, Arial, sans-serif" font-size="13" fill="#FFFFFF" fill-opacity="0.5">
        2026-04-25
    </text>

    <rect x="60" y="640" width="1160" height="1" fill="#FFFFFF" fill-opacity="0.1"/>

    <text x="60" y="680" font-family="Arial, sans-serif" font-size="14" fill="#64748B">基于国内AI大模型厂商定价策略分析</text>
    <text x="1220" y="680" text-anchor="end" font-family="Arial, sans-serif" font-size="14" fill="#64748B">AI Pricing Evolution 2026</text>
</svg>
