<?xml version="1.0" encoding="UTF-8"?>
<svg xmlns="http://www.w3.org/2000/svg" viewBox="0 0 1280 720">
    <rect width="1280" height="720" fill="#F1F5F9" />
    <text x="60" y="50" fill="#E2725B" font-family="Arial, sans-serif" font-size="11" letter-spacing="5" font-weight="bold">BEHAVIOR PATTERNS</text>
    <text x="60" y="90" fill="#0F172A" font-family="Microsoft YaHei, Arial, sans-serif" font-size="36" font-weight="bold">行为模式概览</text>
    <text x="60" y="120" fill="#64748B" font-family="Microsoft YaHei, Arial, sans-serif" font-size="16">18种模式，按风险等级热力分布</text>
    
    
    <path fill="#0F172A" d="M66,150 H1214 A6,6 0 0 1 1220,156 V184 A6,6 0 0 1 1214,190 H66 A6,6 0 0 1 60,184 V156 A6,6 0 0 1 66,150 Z" />
    <text x="100" y="176" fill="#FFFFFF" font-family="Microsoft YaHei, Arial, sans-serif" font-size="14" font-weight="bold">权力来源</text>
    <text x="350" y="176" fill="#FFFFFF" font-family="Microsoft YaHei, Arial, sans-serif" font-size="14" font-weight="bold">行为模式</text>
    <text x="750" y="176" fill="#FFFFFF" font-family="Microsoft YaHei, Arial, sans-serif" font-size="14" font-weight="bold">风险</text>
    <text x="950" y="176" fill="#FFFFFF" font-family="Microsoft YaHei, Arial, sans-serif" font-size="14" font-weight="bold">一句话</text>
    
    <path fill="#FFFFFF" d="M64,195 H1216 A4,4 0 0 1 1220,199 V246 A4,4 0 0 1 1216,250 H64 A4,4 0 0 1 60,246 V199 A4,4 0 0 1 64,195 Z" />
    <circle cx="90" cy="222" r="10" fill="#22C55E" fill-opacity="0.2" /><text x="90" y="227" text-anchor="middle" fill="#22C55E" font-family="Arial, sans-serif" font-size="9" font-weight="bold">学</text>
    <text x="120" y="225" fill="#0F172A" font-family="Microsoft YaHei, Arial, sans-serif" font-size="15" font-weight="bold">规则权</text>
    <text x="350" y="225" fill="#334155" font-family="Microsoft YaHei, Arial, sans-serif" font-size="14">立规矩</text>
    <path fill="#22C55E" fill-opacity="0.1" d="M762,210 H818 A12,12 0 0 1 830,222 V222 A12,12 0 0 1 818,234 H762 A12,12 0 0 1 750,222 V222 A12,12 0 0 1 762,210 Z" /><text x="790" y="227" text-anchor="middle" fill="#22C55E" font-family="Microsoft YaHei, Arial, sans-serif" font-size="12">值得学</text>
    <text x="950" y="225" fill="#64748B" font-family="Microsoft YaHei, Arial, sans-serif" font-size="13">先定规则后办事</text>
    
    <path fill="#FFFFFF" d="M64,255 H1216 A4,4 0 0 1 1220,259 V306 A4,4 0 0 1 1216,310 H64 A4,4 0 0 1 60,306 V259 A4,4 0 0 1 64,255 Z" />
    <circle cx="90" cy="282" r="10" fill="#B91C1C" fill-opacity="0.2" /><text x="90" y="287" text-anchor="middle" fill="#B91C1C" font-family="Arial, sans-serif" font-size="9" font-weight="bold">!</text>
    <text x="120" y="285" fill="#0F172A" font-family="Microsoft YaHei, Arial, sans-serif" font-size="15" font-weight="bold">信息权</text>
    <text x="350" y="285" fill="#334155" font-family="Microsoft YaHei, Arial, sans-serif" font-size="14">两头堵、阻断信息</text>
    <path fill="#B91C1C" fill-opacity="0.1" d="M762,270 H818 A12,12 0 0 1 830,282 V282 A12,12 0 0 1 818,294 H762 A12,12 0 0 1 750,282 V282 A12,12 0 0 1 762,270 Z" /><text x="790" y="287" text-anchor="middle" fill="#B91C1C" font-family="Microsoft YaHei, Arial, sans-serif" font-size="12">高危险</text>
    <text x="950" y="285" fill="#64748B" font-family="Microsoft YaHei, Arial, sans-serif" font-size="13">阻断信息渠道</text>
    
    <path fill="#FFFFFF" d="M64,315 H1216 A4,4 0 0 1 1220,319 V366 A4,4 0 0 1 1216,370 H64 A4,4 0 0 1 60,366 V319 A4,4 0 0 1 64,315 Z" />
    <circle cx="90" cy="342" r="10" fill="#D97706" fill-opacity="0.2" /><text x="90" y="347" text-anchor="middle" fill="#D97706" font-family="Arial, sans-serif" font-size="9" font-weight="bold">▲</text>
    <text x="120" y="345" fill="#0F172A" font-family="Microsoft YaHei, Arial, sans-serif" font-size="15" font-weight="bold">关系权</text>
    <text x="350" y="345" fill="#334155" font-family="Microsoft YaHei, Arial, sans-serif" font-size="14">拉拢圈人、人情债</text>
    <path fill="#D97706" fill-opacity="0.1" d="M762,330 H818 A12,12 0 0 1 830,342 V342 A12,12 0 0 1 818,354 H762 A12,12 0 0 1 750,342 V342 A12,12 0 0 1 762,330 Z" /><text x="790" y="347" text-anchor="middle" fill="#D97706" font-family="Microsoft YaHei, Arial, sans-serif" font-size="12">施压</text>
    <text x="950" y="345" fill="#64748B" font-family="Microsoft YaHei, Arial, sans-serif" font-size="13">让利换配合</text>
    
    <path fill="#FFFFFF" d="M64,375 H1216 A4,4 0 0 1 1220,379 V426 A4,4 0 0 1 1216,430 H64 A4,4 0 0 1 60,426 V379 A4,4 0 0 1 64,375 Z" />
    <circle cx="90" cy="402" r="10" fill="#D97706" fill-opacity="0.2" /><text x="90" y="407" text-anchor="middle" fill="#D97706" font-family="Arial, sans-serif" font-size="9" font-weight="bold">▲</text>
    <text x="120" y="405" fill="#0F172A" font-family="Microsoft YaHei, Arial, sans-serif" font-size="15" font-weight="bold">注意权</text>
    <text x="350" y="405" fill="#334155" font-family="Microsoft YaHei, Arial, sans-serif" font-size="14">群内表演、任务下放+CC</text>
    <path fill="#D97706" fill-opacity="0.1" d="M762,390 H818 A12,12 0 0 1 830,402 V402 A12,12 0 0 1 818,414 H762 A12,12 0 0 1 750,402 V402 A12,12 0 0 1 762,390 Z" /><text x="790" y="407" text-anchor="middle" fill="#D97706" font-family="Microsoft YaHei, Arial, sans-serif" font-size="12">施压</text>
    <text x="950" y="405" fill="#64748B" font-family="Microsoft YaHei, Arial, sans-serif" font-size="13">刷存在感</text>
    
    <path fill="#FFFFFF" d="M64,435 H1216 A4,4 0 0 1 1220,439 V486 A4,4 0 0 1 1216,490 H64 A4,4 0 0 1 60,486 V439 A4,4 0 0 1 64,435 Z" />
    <circle cx="90" cy="462" r="10" fill="#B91C1C" fill-opacity="0.2" /><text x="90" y="467" text-anchor="middle" fill="#B91C1C" font-family="Arial, sans-serif" font-size="9" font-weight="bold">!</text>
    <text x="120" y="465" fill="#0F172A" font-family="Microsoft YaHei, Arial, sans-serif" font-size="15" font-weight="bold">施压权</text>
    <text x="350" y="465" fill="#334155" font-family="Microsoft YaHei, Arial, sans-serif" font-size="14">公开锁定、高压管理、追责转嫁</text>
    <path fill="#B91C1C" fill-opacity="0.1" d="M762,450 H818 A12,12 0 0 1 830,462 V462 A12,12 0 0 1 818,474 H762 A12,12 0 0 1 750,462 V462 A12,12 0 0 1 762,450 Z" /><text x="790" y="467" text-anchor="middle" fill="#B91C1C" font-family="Microsoft YaHei, Arial, sans-serif" font-size="12">高危险</text>
    <text x="950" y="465" fill="#64748B" font-family="Microsoft YaHei, Arial, sans-serif" font-size="13">密集施压区域</text>
    
    <text x="60" y="530" fill="#E2725B" font-family="Microsoft YaHei, Arial, sans-serif" font-size="16" font-weight="bold">组合拳</text>
    <path fill="#FFFFFF" d="M66,545 H424 A6,6 0 0 1 430,551 V594 A6,6 0 0 1 424,600 H66 A6,6 0 0 1 60,594 V551 A6,6 0 0 1 66,545 Z" />
    <text x="80" y="578" fill="#334155" font-family="Microsoft YaHei, Arial, sans-serif" font-size="13">抛问题、正面对冲、借力打力</text>
    <path fill="#6B7280" fill-opacity="0.1" d="M351,560 H389 A11,11 0 0 1 400,571 V571 A11,11 0 0 1 389,582 H351 A11,11 0 0 1 340,571 V571 A11,11 0 0 1 351,560 Z" /><text x="370" y="575" text-anchor="middle" fill="#6B7280" font-family="Microsoft YaHei, Arial, sans-serif" font-size="10">中性</text>
    <path fill="#FFFFFF" d="M456,545 H814 A6,6 0 0 1 820,551 V594 A6,6 0 0 1 814,600 H456 A6,6 0 0 1 450,594 V551 A6,6 0 0 1 456,545 Z" />
    <text x="470" y="578" fill="#334155" font-family="Microsoft YaHei, Arial, sans-serif" font-size="13">群聊闹事、选择性攻击</text>
    <path fill="#B91C1C" fill-opacity="0.1" d="M741,560 H779 A11,11 0 0 1 790,571 V571 A11,11 0 0 1 779,582 H741 A11,11 0 0 1 730,571 V571 A11,11 0 0 1 741,560 Z" /><text x="760" y="575" text-anchor="middle" fill="#B91C1C" font-family="Microsoft YaHei, Arial, sans-serif" font-size="10">高危</text>
    <path fill="#FFFFFF" d="M846,545 H1214 A6,6 0 0 1 1220,551 V594 A6,6 0 0 1 1214,600 H846 A6,6 0 0 1 840,594 V551 A6,6 0 0 1 846,545 Z" />
    <text x="860" y="578" fill="#334155" font-family="Microsoft YaHei, Arial, sans-serif" font-size="13">质疑数据降温、挖人试探、镜像过敏</text>
    <path fill="#6B7280" fill-opacity="0.1" d="M1131,560 H1169 A11,11 0 0 1 1180,571 V571 A11,11 0 0 1 1169,582 H1131 A11,11 0 0 1 1120,571 V571 A11,11 0 0 1 1131,560 Z" /><text x="1150" y="575" text-anchor="middle" fill="#6B7280" font-family="Microsoft YaHei, Arial, sans-serif" font-size="10">中性</text>
    
    <path fill="#FFFFFF" d="M68,630 H302 A8,8 0 0 1 310,638 V672 A8,8 0 0 1 302,680 H68 A8,8 0 0 1 60,672 V638 A8,8 0 0 1 68,630 Z" />
    <text x="80" y="650" fill="#B91C1C" font-family="Microsoft YaHei, Arial, sans-serif" font-size="24" font-weight="bold">6种</text>
    <text x="130" y="650" fill="#64748B" font-family="Microsoft YaHei, Arial, sans-serif" font-size="13">高危险手法</text>
    <text x="80" y="670" fill="#94A3B8" font-family="Microsoft YaHei, Arial, sans-serif" font-size="11">33% 的总模式</text>

    <path fill="#FFFFFF" d="M338,630 H572 A8,8 0 0 1 580,638 V672 A8,8 0 0 1 572,680 H338 A8,8 0 0 1 330,672 V638 A8,8 0 0 1 338,630 Z" />
    <text x="350" y="650" fill="#D97706" font-family="Microsoft YaHei, Arial, sans-serif" font-size="24" font-weight="bold">4种</text>
    <text x="400" y="650" fill="#64748B" font-family="Microsoft YaHei, Arial, sans-serif" font-size="13">施压手法</text>
    <text x="350" y="670" fill="#94A3B8" font-family="Microsoft YaHei, Arial, sans-serif" font-size="11">22% 的总模式</text>

    <path fill="#FFFFFF" d="M608,630 H842 A8,8 0 0 1 850,638 V672 A8,8 0 0 1 842,680 H608 A8,8 0 0 1 600,672 V638 A8,8 0 0 1 608,630 Z" />
    <text x="620" y="650" fill="#22C55E" font-family="Microsoft YaHei, Arial, sans-serif" font-size="24" font-weight="bold">3种</text>
    <text x="670" y="650" fill="#64748B" font-family="Microsoft YaHei, Arial, sans-serif" font-size="13">值得学习</text>
    <text x="620" y="670" fill="#94A3B8" font-family="Microsoft YaHei, Arial, sans-serif" font-size="11">17% 的总模式</text>

    <path fill="#FFFFFF" d="M878,630 H1212 A8,8 0 0 1 1220,638 V672 A8,8 0 0 1 1212,680 H878 A8,8 0 0 1 870,672 V638 A8,8 0 0 1 878,630 Z" />
    <text x="890" y="660" fill="#64748B" font-family="Microsoft YaHei, Arial, sans-serif" font-size="13">施压密集区：注意权 + 施压权</text>

    <text x="1220" y="690" text-anchor="end" fill="#94A3B8" font-family="Arial, sans-serif" font-size="11">05</text>
</svg>