<?xml version="1.0" encoding="UTF-8"?>
<svg xmlns="http://www.w3.org/2000/svg" viewBox="0 0 1280 720">
    <rect width="1280" height="720" fill="#F1F5F9" />
    <text x="60" y="50" fill="#E2725B" font-family="Arial, sans-serif" font-size="11" letter-spacing="5" font-weight="bold">LEARNABLE SKILLS</text>
    <text x="60" y="90" fill="#0F172A" font-family="Microsoft YaHei, Arial, sans-serif" font-size="36" font-weight="bold">可学习内容</text>
    <text x="60" y="120" fill="#64748B" font-family="Microsoft YaHei, Arial, sans-serif" font-size="16">四种核心技巧，从基础到进阶</text>
    
    
    <path fill="#FFFFFF" d="M52,160 H318 A12,12 0 0 1 330,172 V488 A12,12 0 0 1 318,500 H52 A12,12 0 0 1 40,488 V172 A12,12 0 0 1 52,160 Z" />
    <circle cx="185" cy="210" r="30" fill="#B91C1C" fill-opacity="0.08" />
    <text x="185" y="220" text-anchor="middle" fill="#B91C1C" font-family="Arial, sans-serif" font-size="36" font-weight="bold">1</text>
    <text x="185" y="270" text-anchor="middle" fill="#B91C1C" font-family="Microsoft YaHei, Arial, sans-serif" font-size="22" font-weight="bold">立规矩</text>
    <line x1="70" y1="285" x2="300" y2="285" stroke="#F1F5F9" stroke-width="1" />
    <text x="65" y="315" fill="#334155" font-family="Microsoft YaHei, Arial, sans-serif" font-size="14">先定规则后办事</text>
    <text x="65" y="340" fill="#334155" font-family="Microsoft YaHei, Arial, sans-serif" font-size="14">后续是"执行既定规则"</text>
    <text x="65" y="380" fill="#64748B" font-family="Microsoft YaHei, Arial, sans-serif" font-size="13">规则越具体越好</text>
    <text x="65" y="400" fill="#64748B" font-family="Microsoft YaHei, Arial, sans-serif" font-size="13">可考核可追溯</text>
    <path fill="#B91C1C" fill-opacity="0.08" d="M79,430 H151 A14,14 0 0 1 165,444 V444 A14,14 0 0 1 151,458 H79 A14,14 0 0 1 65,444 V444 A14,14 0 0 1 79,430 Z" />
    <text x="115" y="449" text-anchor="middle" fill="#B91C1C" font-family="Microsoft YaHei, Arial, sans-serif" font-size="11">接手新业务</text>
    <path fill="#F1F5F9" d="M76,465 H154 A11,11 0 0 1 165,476 V476 A11,11 0 0 1 154,487 H76 A11,11 0 0 1 65,476 V476 A11,11 0 0 1 76,465 Z" />
    <text x="115" y="480" text-anchor="middle" fill="#64748B" font-family="Microsoft YaHei, Arial, sans-serif" font-size="11">基础</text>
    
    <path fill="#FFFFFF" d="M362,160 H628 A12,12 0 0 1 640,172 V488 A12,12 0 0 1 628,500 H362 A12,12 0 0 1 350,488 V172 A12,12 0 0 1 362,160 Z" />
    <circle cx="495" cy="210" r="30" fill="#F97316" fill-opacity="0.08" />
    <text x="495" y="220" text-anchor="middle" fill="#F97316" font-family="Arial, sans-serif" font-size="36" font-weight="bold">2</text>
    <text x="495" y="270" text-anchor="middle" fill="#F97316" font-family="Microsoft YaHei, Arial, sans-serif" font-size="22" font-weight="bold">三要素法</text>
    <line x1="380" y1="285" x2="610" y2="285" stroke="#F1F5F9" stroke-width="1" />
    <text x="375" y="315" fill="#334155" font-family="Microsoft YaHei, Arial, sans-serif" font-size="14">问题→原因+目标+举措</text>
    <text x="375" y="340" fill="#334155" font-family="Microsoft YaHei, Arial, sans-serif" font-size="14">让别人承诺</text>
    <text x="375" y="380" fill="#64748B" font-family="Microsoft YaHei, Arial, sans-serif" font-size="13">让对方承诺比直接</text>
    <text x="375" y="400" fill="#64748B" font-family="Microsoft YaHei, Arial, sans-serif" font-size="13">给方案更有约束力</text>
    <path fill="#F97316" fill-opacity="0.08" d="M389,430 H461 A14,14 0 0 1 475,444 V444 A14,14 0 0 1 461,458 H389 A14,14 0 0 1 375,444 V444 A14,14 0 0 1 389,430 Z" />
    <text x="425" y="449" text-anchor="middle" fill="#F97316" font-family="Microsoft YaHei, Arial, sans-serif" font-size="11">供应商管理</text>
    <path fill="#F1F5F9" d="M386,465 H464 A11,11 0 0 1 475,476 V476 A11,11 0 0 1 464,487 H386 A11,11 0 0 1 375,476 V476 A11,11 0 0 1 386,465 Z" />
    <text x="425" y="480" text-anchor="middle" fill="#64748B" font-family="Microsoft YaHei, Arial, sans-serif" font-size="11">进阶</text>
    
    <path fill="#FFFFFF" d="M672,160 H938 A12,12 0 0 1 950,172 V488 A12,12 0 0 1 938,500 H672 A12,12 0 0 1 660,488 V172 A12,12 0 0 1 672,160 Z" />
    <circle cx="805" cy="210" r="30" fill="#3B82F6" fill-opacity="0.08" />
    <text x="805" y="220" text-anchor="middle" fill="#3B82F6" font-family="Arial, sans-serif" font-size="36" font-weight="bold">3</text>
    <text x="805" y="270" text-anchor="middle" fill="#3B82F6" font-family="Microsoft YaHei, Arial, sans-serif" font-size="22" font-weight="bold">数据说话</text>
    <line x1="690" y1="285" x2="920" y2="285" stroke="#F1F5F9" stroke-width="1" />
    <text x="685" y="315" fill="#334155" font-family="Microsoft YaHei, Arial, sans-serif" font-size="14">精确数据展示+公开施压</text>
    <text x="685" y="340" fill="#334155" font-family="Microsoft YaHei, Arial, sans-serif" font-size="14">数据是最好的武器</text>
    <text x="685" y="380" fill="#64748B" font-family="Microsoft YaHei, Arial, sans-serif" font-size="13">比任何道理都有力</text>
    <path fill="#3B82F6" fill-opacity="0.08" d="M699,430 H771 A14,14 0 0 1 785,444 V444 A14,14 0 0 1 771,458 H699 A14,14 0 0 1 685,444 V444 A14,14 0 0 1 699,430 Z" />
    <text x="735" y="449" text-anchor="middle" fill="#3B82F6" font-family="Microsoft YaHei, Arial, sans-serif" font-size="11">汇报/驱动</text>
    <path fill="#F1F5F9" d="M696,465 H774 A11,11 0 0 1 785,476 V476 A11,11 0 0 1 774,487 H696 A11,11 0 0 1 685,476 V476 A11,11 0 0 1 696,465 Z" />
    <text x="735" y="480" text-anchor="middle" fill="#64748B" font-family="Microsoft YaHei, Arial, sans-serif" font-size="11">进阶</text>
    
    <path fill="#FFFFFF" stroke="#22C55E" stroke-width="2" d="M982,160 H1228 A12,12 0 0 1 1240,172 V488 A12,12 0 0 1 1228,500 H982 A12,12 0 0 1 970,488 V172 A12,12 0 0 1 982,160 Z" />
    <circle cx="1105" cy="210" r="30" fill="#22C55E" fill-opacity="0.08" />
    <text x="1105" y="220" text-anchor="middle" fill="#22C55E" font-family="Arial, sans-serif" font-size="36" font-weight="bold">4</text>
    <text x="1105" y="270" text-anchor="middle" fill="#22C55E" font-family="Microsoft YaHei, Arial, sans-serif" font-size="22" font-weight="bold">机制先行</text>
    <line x1="995" y1="285" x2="1215" y2="285" stroke="#F0FDF4" stroke-width="1" />
    <text x="995" y="315" fill="#334155" font-family="Microsoft YaHei, Arial, sans-serif" font-size="14">先建机制再谈业务</text>
    <text x="995" y="340" fill="#334155" font-family="Microsoft YaHei, Arial, sans-serif" font-size="14">干不好有把柄</text>
    <text x="995" y="380" fill="#64748B" font-family="Microsoft YaHei, Arial, sans-serif" font-size="13">建立长期管理体系</text>
    <path fill="#22C55E" fill-opacity="0.08" d="M1009,430 H1081 A14,14 0 0 1 1095,444 V444 A14,14 0 0 1 1081,458 H1009 A14,14 0 0 1 995,444 V444 A14,14 0 0 1 1009,430 Z" />
    <text x="1045" y="449" text-anchor="middle" fill="#22C55E" font-family="Microsoft YaHei, Arial, sans-serif" font-size="11">长期管理</text>
    <path fill="#22C55E" fill-opacity="0.08" d="M1006,465 H1084 A11,11 0 0 1 1095,476 V476 A11,11 0 0 1 1084,487 H1006 A11,11 0 0 1 995,476 V476 A11,11 0 0 1 1006,465 Z" />
    <text x="1045" y="480" text-anchor="middle" fill="#22C55E" font-family="Microsoft YaHei, Arial, sans-serif" font-size="11">高阶 ★</text>
    
    <path fill="#FFFFFF" d="M52,540 H598 A12,12 0 0 1 610,552 V628 A12,12 0 0 1 598,640 H52 A12,12 0 0 1 40,628 V552 A12,12 0 0 1 52,540 Z" />
    <text x="70" y="570" fill="#B91C1C" font-family="Microsoft YaHei, Arial, sans-serif" font-size="15" font-weight="bold">刘乾坤</text>
    <text x="70" y="598" fill="#334155" font-family="Microsoft YaHei, Arial, sans-serif" font-size="14">摆问题 → 施压 → 让供应商自己想办法</text>
    <text x="70" y="622" fill="#64748B" font-family="Microsoft YaHei, Arial, sans-serif" font-size="12">施压型管理</text>
    <path fill="#FFFFFF" d="M642,540 H1228 A12,12 0 0 1 1240,552 V628 A12,12 0 0 1 1228,640 H642 A12,12 0 0 1 630,628 V552 A12,12 0 0 1 642,540 Z" />
    <text x="660" y="570" fill="#22C55E" font-family="Microsoft YaHei, Arial, sans-serif" font-size="15" font-weight="bold">年老师</text>
    <text x="660" y="598" fill="#334155" font-family="Microsoft YaHei, Arial, sans-serif" font-size="14">摆问题 → 提要求 → 给支持 → 长期合作</text>
    <text x="660" y="622" fill="#64748B" font-family="Microsoft YaHei, Arial, sans-serif" font-size="12">伙伴型管理</text>
    <text x="1220" y="690" text-anchor="end" fill="#94A3B8" font-family="Arial, sans-serif" font-size="11">10</text>
</svg>