<?xml version="1.0" encoding="UTF-8"?>
<svg xmlns="http://www.w3.org/2000/svg" viewBox="0 0 1280 720">
    <rect width="1280" height="720" fill="#F1F5F9" />
    <text x="60" y="50" fill="#E2725B" font-family="Arial, sans-serif" font-size="11" letter-spacing="5" font-weight="bold">CONTROVERSIAL CASES</text>
    <text x="60" y="90" fill="#0F172A" font-family="Microsoft YaHei, Arial, sans-serif" font-size="36" font-weight="bold">争议事件</text>
    <text x="60" y="120" fill="#64748B" font-family="Microsoft YaHei, Arial, sans-serif" font-size="16">三个事件暴露真实性格</text>
    
    
    <path fill="#FFFFFF" d="M52,155 H408 A12,12 0 0 1 420,167 V523 A12,12 0 0 1 408,535 H52 A12,12 0 0 1 40,523 V167 A12,12 0 0 1 52,155 Z" />
    <circle cx="230" cy="210" r="30" fill="#B91C1C" fill-opacity="0.08" />
    <text x="230" y="220" text-anchor="middle" fill="#B91C1C" font-family="Arial, sans-serif" font-size="28">!</text>
    <path fill="#B91C1C" fill-opacity="0.08" d="M172,260 H288 A12,12 0 0 1 300,272 V272 A12,12 0 0 1 288,284 H172 A12,12 0 0 1 160,272 V272 A12,12 0 0 1 172,260 Z" />
    <text x="230" y="277" text-anchor="middle" fill="#B91C1C" font-family="Arial, sans-serif" font-size="11" font-weight="bold">03-25</text>
    <text x="230" y="310" text-anchor="middle" fill="#B91C1C" font-family="Microsoft YaHei, Arial, sans-serif" font-size="22" font-weight="bold">双重标准</text>
    <line x1="70" y1="325" x2="390" y2="325" stroke="#F1F5F9" stroke-width="1" />
    <text x="65" y="355" fill="#334155" font-family="Microsoft YaHei, Arial, sans-serif" font-size="14">自己违规推动供应商拿钱被内审查过</text>
    <text x="65" y="380" fill="#334155" font-family="Microsoft YaHei, Arial, sans-serif" font-size="14">反过来质疑李吉斌的激励方案</text>
    <path fill="#FEF2F2" d="M71,410 H389 A6,6 0 0 1 395,416 V439 A6,6 0 0 1 389,445 H71 A6,6 0 0 1 65,439 V416 A6,6 0 0 1 71,410 Z" />
    <text x="75" y="433" fill="#B91C1C" font-family="Microsoft YaHei, Arial, sans-serif" font-size="12" font-style="italic">"挺可怕的，真的不可交"</text>
    <path fill="#B91C1C" fill-opacity="0.1" d="M76,465 H129 A11,11 0 0 1 140,476 V476 A11,11 0 0 1 129,487 H76 A11,11 0 0 1 65,476 V476 A11,11 0 0 1 76,465 Z" />
    <text x="102" y="480" text-anchor="middle" fill="#B91C1C" font-family="Microsoft YaHei, Arial, sans-serif" font-size="11">HIGH RISK</text>
    
    <path fill="#FFFFFF" d="M452,155 H808 A12,12 0 0 1 820,167 V523 A12,12 0 0 1 808,535 H452 A12,12 0 0 1 440,523 V167 A12,12 0 0 1 452,155 Z" />
    <circle cx="630" cy="210" r="30" fill="#D97706" fill-opacity="0.08" />
    <text x="630" y="220" text-anchor="middle" fill="#D97706" font-family="Arial, sans-serif" font-size="28">@</text>
    <path fill="#D97706" fill-opacity="0.08" d="M562,260 H698 A12,12 0 0 1 710,272 V272 A12,12 0 0 1 698,284 H562 A12,12 0 0 1 550,272 V272 A12,12 0 0 1 562,260 Z" />
    <text x="630" y="277" text-anchor="middle" fill="#D97706" font-family="Arial, sans-serif" font-size="11" font-weight="bold">03-25 深夜</text>
    <text x="630" y="310" text-anchor="middle" fill="#D97706" font-family="Microsoft YaHei, Arial, sans-serif" font-size="22" font-weight="bold">公开攻击前任</text>
    <line x1="470" y1="325" x2="790" y2="325" stroke="#F1F5F9" stroke-width="1" />
    <text x="465" y="355" fill="#334155" font-family="Microsoft YaHei, Arial, sans-serif" font-size="14">@李吉斌+CC上级，让前任难堪</text>
    <text x="465" y="380" fill="#334155" font-family="Microsoft YaHei, Arial, sans-serif" font-size="14">刚接手就甩锅，反击后软化退让</text>
    <path fill="#FFFBEB" d="M471,410 H789 A6,6 0 0 1 795,416 V439 A6,6 0 0 1 789,445 H471 A6,6 0 0 1 465,439 V416 A6,6 0 0 1 471,410 Z" />
    <text x="475" y="433" fill="#D97706" font-family="Microsoft YaHei, Arial, sans-serif" font-size="12" font-style="italic">教训：面对强硬反击，他会退让</text>
    <path fill="#D97706" fill-opacity="0.1" d="M476,465 H534 A11,11 0 0 1 545,476 V476 A11,11 0 0 1 534,487 H476 A11,11 0 0 1 465,476 V476 A11,11 0 0 1 476,465 Z" />
    <text x="505" y="480" text-anchor="middle" fill="#D97706" font-family="Microsoft YaHei, Arial, sans-serif" font-size="11">MEDIUM</text>
    
    <path fill="#FFFFFF" d="M852,155 H1228 A12,12 0 0 1 1240,167 V523 A12,12 0 0 1 1228,535 H852 A12,12 0 0 1 840,523 V167 A12,12 0 0 1 852,155 Z" />
    <circle cx="1040" cy="210" r="30" fill="#B91C1C" fill-opacity="0.08" />
    <text x="1040" y="220" text-anchor="middle" fill="#B91C1C" font-family="Arial, sans-serif" font-size="28">⚡</text>
    <path fill="#B91C1C" fill-opacity="0.08" d="M982,260 H1098 A12,12 0 0 1 1110,272 V272 A12,12 0 0 1 1098,284 H982 A12,12 0 0 1 970,272 V272 A12,12 0 0 1 982,260 Z" />
    <text x="1040" y="277" text-anchor="middle" fill="#B91C1C" font-family="Arial, sans-serif" font-size="11" font-weight="bold">03-29</text>
    <text x="1040" y="310" text-anchor="middle" fill="#B91C1C" font-family="Microsoft YaHei, Arial, sans-serif" font-size="22" font-weight="bold">开门红带节奏</text>
    <line x1="870" y1="325" x2="1210" y2="325" stroke="#F1F5F9" stroke-width="1" />
    <text x="865" y="355" fill="#334155" font-family="Microsoft YaHei, Arial, sans-serif" font-size="14">群内密集同步激励问题</text>
    <text x="865" y="380" fill="#334155" font-family="Microsoft YaHei, Arial, sans-serif" font-size="14">道德绑架"影响1400个制鞋工人"</text>
    <text x="865" y="405" fill="#334155" font-family="Microsoft YaHei, Arial, sans-serif" font-size="14">选择性攻击+夸大其词</text>
    <path fill="#FEF2F2" d="M871,430 H1209 A6,6 0 0 1 1215,436 V459 A6,6 0 0 1 1209,465 H871 A6,6 0 0 1 865,459 V436 A6,6 0 0 1 871,430 Z" />
    <text x="875" y="453" fill="#B91C1C" font-family="Microsoft YaHei, Arial, sans-serif" font-size="12" font-style="italic">教训：核实数据，不被情绪带节奏</text>
    <path fill="#B91C1C" fill-opacity="0.1" d="M876,475 H929 A11,11 0 0 1 940,486 V486 A11,11 0 0 1 929,497 H876 A11,11 0 0 1 865,486 V486 A11,11 0 0 1 876,475 Z" />
    <text x="902" y="490" text-anchor="middle" fill="#B91C1C" font-family="Microsoft YaHei, Arial, sans-serif" font-size="11">HIGH RISK</text>
    
    <path fill="#FFFFFF" d="M52,570 H1228 A12,12 0 0 1 1240,582 V648 A12,12 0 0 1 1228,660 H52 A12,12 0 0 1 40,648 V582 A12,12 0 0 1 52,570 Z" />
    <text x="70" y="600" fill="#E2725B" font-family="Microsoft YaHei, Arial, sans-serif" font-size="14" font-weight="bold">核心洞察：</text>
    <text x="145" y="600" fill="#334155" font-family="Microsoft YaHei, Arial, sans-serif" font-size="14">他对别人做的事，自己可能也在做 · 双重标准是最大破绽 · 面对事实反击和强硬态度，他会退让</text>
    <text x="145" y="635" fill="#64748B" font-family="Microsoft YaHei, Arial, sans-serif" font-size="13">用事实反击，态度强硬，他就会退</text>
    <text x="1220" y="690" text-anchor="end" fill="#94A3B8" font-family="Arial, sans-serif" font-size="11">11</text>
</svg>