<svg width="1280" height="720" viewBox="0 0 1280 720" xmlns="http://www.w3.org/2000/svg">
<defs><style>
  :root {
    --brand-primary: #1677FF;
    --brand-near-black: #1A1A1A;
    --brand-gray: #888888;
    --brand-light-bg: #F5F5F5;
    --brand-border: #E2E2E2;
  }
</style></defs>

<!-- 顶部品牌蓝线 -->
<rect x="0" y="0" width="1280" height="3" fill="var(--brand-primary)"/>

<!-- 页眉 -->
<text x="40" y="22" font-family="Microsoft YaHei,sans-serif" font-size="11" fill="#888888">呼叫中心现况简介</text>
<text x="1240" y="22" text-anchor="end" font-family="Microsoft YaHei,sans-serif" font-size="11" font-weight="bold" fill="var(--brand-primary)">京东科技</text>
<line x1="40" y1="30" x2="1240" y2="30" stroke="#E2E2E2" stroke-width="0.5"/>

<!-- Action Title -->
<rect x="40" y="36" width="3" height="52" fill="var(--brand-primary)"/>
<text x="52" y="70" font-family="Songti SC,SimSun,serif" font-size="22" font-weight="bold" fill="#1A1A1A">电销渠道占比100%，3000+人团队年GMV超2000亿</text>
<line x1="40" y1="94" x2="1240" y2="94" stroke="#E2E2E2" stroke-width="0.5"/>

<!-- 顶部KPI卡片 - 3个核心指标 -->
<!-- 卡片1 -->
<rect x="40" y="110" width="380" height="160" rx="4" fill="#FFFFFF" stroke="#E2E2E2" stroke-width="0.5"/>
<rect x="40" y="110" width="4" height="160" fill="var(--brand-primary)"/>
<text x="60" y="148" font-family="Microsoft YaHei,sans-serif" font-size="12" fill="#888888">年度GMV（放款额）</text>
<text x="60" y="210" font-family="Songti SC,SimSun,serif" font-size="48" font-weight="bold" fill="var(--brand-primary)">2000亿+</text>
<text x="60" y="246" font-family="Microsoft YaHei,sans-serif" font-size="12" fill="#555555">近一年放款总额</text>

<!-- 卡片2 -->
<rect x="446" y="110" width="370" height="160" rx="4" fill="#FFFFFF" stroke="#E2E2E2" stroke-width="0.5"/>
<rect x="446" y="110" width="4" height="160" fill="#1A7A42"/>
<text x="466" y="148" font-family="Microsoft YaHei,sans-serif" font-size="12" fill="#888888">团队总规模</text>
<text x="466" y="210" font-family="Songti SC,SimSun,serif" font-size="48" font-weight="bold" fill="#1A7A42">3000+人</text>
<text x="466" y="246" font-family="Microsoft YaHei,sans-serif" font-size="12" fill="#555555">前台2900+ 中台100+ 后台50+</text>

<!-- 卡片3 -->
<rect x="842" y="110" width="398" height="160" rx="4" fill="#FFFFFF" stroke="#E2E2E2" stroke-width="0.5"/>
<rect x="842" y="110" width="4" height="160" fill="#1A7A42"/>
<text x="862" y="148" font-family="Microsoft YaHei,sans-serif" font-size="12" fill="#888888">合规率</text>
<text x="862" y="210" font-family="Songti SC,SimSun,serif" font-size="48" font-weight="bold" fill="#1A7A42">100%</text>
<text x="862" y="246" font-family="Microsoft YaHei,sans-serif" font-size="12" fill="#555555">合规红线一票否决</text>

<!-- 中部：渠道与团队 -->
<text x="40" y="310" font-family="Microsoft YaHei,sans-serif" font-size="14" font-weight="bold" fill="var(--brand-primary)">服务渠道与团队结构</text>
<line x1="40" y1="318" x2="400" y2="318" stroke="var(--brand-primary)" stroke-width="1.5"/>

<!-- 渠道信息表 -->
<rect x="40" y="330" width="580" height="180" rx="4" fill="#FFFFFF" stroke="#E2E2E2" stroke-width="0.5"/>
<text x="56" y="360" font-family="Microsoft YaHei,sans-serif" font-size="14" font-weight="bold" fill="var(--brand-primary)">服务渠道</text>
<line x1="56" y1="368" x2="604" y2="368" stroke="#E2E2E2" stroke-width="0.5"/>

<rect x="56" y="378" width="3" height="14" rx="1" fill="var(--brand-primary)"/>
<text x="66" y="388" font-family="Microsoft YaHei,sans-serif" font-size="13" fill="#333333">电销渠道（100%）— 主要负责金融营销电销外呼业务</text>

<rect x="56" y="402" width="3" height="14" rx="1" fill="var(--brand-primary)"/>
<text x="66" y="412" font-family="Microsoft YaHei,sans-serif" font-size="13" fill="#333333">涵盖拉新、复购等全流程服务</text>

<rect x="56" y="426" width="3" height="14" rx="1" fill="var(--brand-primary)"/>
<text x="66" y="436" font-family="Microsoft YaHei,sans-serif" font-size="13" fill="#333333">核心模式：数据驱动的智能电销营销</text>

<rect x="56" y="450" width="3" height="14" rx="1" fill="var(--brand-primary)"/>
<text x="66" y="460" font-family="Microsoft YaHei,sans-serif" font-size="13" fill="#333333">通过AI辅助坐席进行高效沟通和需求挖掘</text>

<rect x="56" y="474" width="3" height="14" rx="1" fill="var(--brand-primary)"/>
<text x="66" y="484" font-family="Microsoft YaHei,sans-serif" font-size="13" fill="#333333">通过合规管控保障长期健康发展</text>

<!-- 右侧人员结构 -->
<rect x="646" y="330" width="594" height="180" rx="4" fill="#FFFFFF" stroke="#E2E2E2" stroke-width="0.5"/>
<text x="662" y="360" font-family="Microsoft YaHei,sans-serif" font-size="14" font-weight="bold" fill="var(--brand-primary)">人员结构</text>
<line x1="662" y1="368" x2="1224" y2="368" stroke="#E2E2E2" stroke-width="0.5"/>

<!-- 人员结构表格 -->
<rect x="662" y="380" width="546" height="36" fill="#F5F5F5"/>
<text x="680" y="402" font-family="Microsoft YaHei,sans-serif" font-size="12" font-weight="bold" fill="#1A1A1A">人员类型</text>
<text x="800" y="402" font-family="Microsoft YaHei,sans-serif" font-size="12" font-weight="bold" fill="#1A1A1A">总人数</text>
<text x="920" y="402" font-family="Microsoft YaHei,sans-serif" font-size="12" font-weight="bold" fill="#1A1A1A">本科及以上</text>
<text x="1060" y="402" font-family="Microsoft YaHei,sans-serif" font-size="12" font-weight="bold" fill="#1A1A1A">大专</text>

<line x1="662" y1="416" x2="1208" y2="416" stroke="#E2E2E2" stroke-width="0.5"/>

<text x="680" y="438" font-family="Microsoft YaHei,sans-serif" font-size="13" fill="#333333">前台人员</text>
<text x="800" y="438" font-family="Microsoft YaHei,sans-serif" font-size="13" fill="#333333">2900+</text>
<text x="920" y="438" font-family="Microsoft YaHei,sans-serif" font-size="13" fill="#333333">60%</text>
<text x="1060" y="438" font-family="Microsoft YaHei,sans-serif" font-size="13" fill="#333333">40%</text>

<text x="680" y="464" font-family="Microsoft YaHei,sans-serif" font-size="13" fill="#333333">中台人员</text>
<text x="800" y="464" font-family="Microsoft YaHei,sans-serif" font-size="13" fill="#333333">100+</text>
<text x="920" y="464" font-family="Microsoft YaHei,sans-serif" font-size="13" fill="#333333">—</text>
<text x="1060" y="464" font-family="Microsoft YaHei,sans-serif" font-size="13" fill="#333333">—</text>

<text x="680" y="490" font-family="Microsoft YaHei,sans-serif" font-size="13" fill="#333333">后台人员</text>
<text x="800" y="490" font-family="Microsoft YaHei,sans-serif" font-size="13" fill="#333333">50+</text>
<text x="920" y="490" font-family="Microsoft YaHei,sans-serif" font-size="13" fill="#333333">—</text>
<text x="1060" y="490" font-family="Microsoft YaHei,sans-serif" font-size="13" fill="#333333">—</text>

<!-- 底部：核心能力 -->
<text x="40" y="550" font-family="Microsoft YaHei,sans-serif" font-size="14" font-weight="bold" fill="var(--brand-primary)">核心业务能力</text>
<line x1="40" y1="558" x2="400" y2="558" stroke="var(--brand-primary)" stroke-width="1.5"/>

<rect x="40" y="570" width="277" height="110" rx="4" fill="#F5F5F5"/>
<rect x="40" y="570" width="4" height="110" fill="var(--brand-primary)"/>
<text x="56" y="600" font-family="Microsoft YaHei,sans-serif" font-size="14" font-weight="bold" fill="#1A1A1A">数据赋能</text>
<text x="56" y="624" font-family="Microsoft YaHei,sans-serif" font-size="12" fill="#555555">AI需求识别模型</text>
<text x="56" y="644" font-family="Microsoft YaHei,sans-serif" font-size="12" fill="#555555">精准分层运营</text>
<text x="56" y="664" font-family="Microsoft YaHei,sans-serif" font-size="12" fill="#555555">差异化触达策略</text>

<rect x="333" y="570" width="277" height="110" rx="4" fill="#F5F5F5"/>
<rect x="333" y="570" width="4" height="110" fill="var(--brand-primary)"/>
<text x="349" y="600" font-family="Microsoft YaHei,sans-serif" font-size="14" font-weight="bold" fill="#1A1A1A">人机协同</text>
<text x="349" y="624" font-family="Microsoft YaHei,sans-serif" font-size="12" fill="#555555">智能客户路由</text>
<text x="349" y="644" font-family="Microsoft YaHei,sans-serif" font-size="12" fill="#555555">实时话术辅助</text>
<text x="349" y="664" font-family="Microsoft YaHei,sans-serif" font-size="12" fill="#555555">情绪与合规监控</text>

<rect x="626" y="570" width="277" height="110" rx="4" fill="#F5F5F5"/>
<rect x="626" y="570" width="4" height="110" fill="var(--brand-primary)"/>
<text x="642" y="600" font-family="Microsoft YaHei,sans-serif" font-size="14" font-weight="bold" fill="#1A1A1A">全生命周期</text>
<text x="642" y="624" font-family="Microsoft YaHei,sans-serif" font-size="12" fill="#555555">新客获取与转化</text>
<text x="642" y="644" font-family="Microsoft YaHei,sans-serif" font-size="12" fill="#555555">复购激活</text>
<text x="642" y="664" font-family="Microsoft YaHei,sans-serif" font-size="12" fill="#555555">流失预警挽回</text>

<rect x="919" y="570" width="321" height="110" rx="4" fill="#F5F5F5"/>
<rect x="919" y="570" width="4" height="110" fill="var(--brand-primary)"/>
<text x="935" y="600" font-family="Microsoft YaHei,sans-serif" font-size="14" font-weight="bold" fill="#1A1A1A">智能质检</text>
<text x="935" y="624" font-family="Microsoft YaHei,sans-serif" font-size="12" fill="#555555">AI实时合规监控</text>
<text x="935" y="644" font-family="Microsoft YaHei,sans-serif" font-size="12" fill="#555555">100%通话覆盖</text>
<text x="935" y="664" font-family="Microsoft YaHei,sans-serif" font-size="12" fill="#555555">质检效率提升300%</text>

<!-- 页脚 -->
<line x1="40" y1="690" x2="1240" y2="690" stroke="#E2E2E2" stroke-width="0.5"/>
<text x="40" y="708" font-family="Microsoft YaHei,sans-serif" font-size="11" fill="#888888">来源：京东科技 · 2026年5月</text>
<text x="1240" y="708" text-anchor="end" font-family="Microsoft YaHei,sans-serif" font-size="11" fill="#888888">4 / 12</text>
</svg>
