<?xml version="1.0" encoding="UTF-8"?>
<svg xmlns="http://www.w3.org/2000/svg" viewBox="0 0 1280 720">
    <defs>
        <linearGradient id="goldGrad" x1="0%" y1="0%" x2="100%" y2="100%">
            <stop offset="0%" stop-color="#D4AF37" />
            <stop offset="100%" stop-color="#F2D06B" />
        </linearGradient>
    </defs>

    <rect width="1280" height="720" fill="#1A1A2E" />

    
    <text x="60" y="50" fill="#D4AF37" font-family="Arial, sans-serif" font-size="11" letter-spacing="4" font-weight="bold">BEHAVIOR PATTERNS</text>
    <line x1="60" y1="65" x2="250" y2="65" stroke="#D4AF37" stroke-width="1" />

    <text x="60" y="105" fill="#FFFFFF" font-family="Microsoft YaHei, Arial, sans-serif" font-size="36" font-weight="bold">行为模式概览</text>
    <text x="60" y="135" fill="#9CA3AF" font-family="Microsoft YaHei, Arial, sans-serif" font-size="16">18种模式，按权力来源 + 风险等级分布</text>

    
    
    <g transform="translate(640, 390)" stroke="#2D2D44" stroke-width="0.5" fill="none">
        
        <polygon points="220,0 110,190.5 -110,190.5 -220,0 -110,-190.5 110,-190.5" />
        
        <polygon points="165,0 82.5,142.9 -82.5,142.9 -165,0 -82.5,-142.9 82.5,-142.9" />
        
        <polygon points="110,0 55,95.3 -55,95.3 -110,0 -55,-95.3 55,-95.3" />
        
        <polygon points="55,0 27.5,47.6 -27.5,47.6 -55,0 -27.5,-47.6 27.5,-47.6" />
    </g>

    
    <g transform="translate(640, 390)" stroke="#3D3D5C" stroke-width="0.5">
        <line x1="0" y1="0" x2="220" y2="0" />
        <line x1="0" y1="0" x2="110" y2="190.5" />
        <line x1="0" y1="0" x2="-110" y2="190.5" />
        <line x1="0" y1="0" x2="-220" y2="0" />
        <line x1="0" y1="0" x2="-110" y2="-190.5" />
        <line x1="0" y1="0" x2="110" y2="-190.5" />
    </g>

    
    <g transform="translate(640, 390)">
        <polygon points="132,0 77,133.4 -66,114.3 -154,0 -44,-76.2 66,-114.3" fill="#D4AF37" fill-opacity="0.2" stroke="#D4AF37" stroke-width="1.5" />
    </g>

    
    <text x="640" y="170" text-anchor="middle" fill="#D4AF37" font-family="Microsoft YaHei, Arial, sans-serif" font-size="13" font-weight="bold">施压权 · 5</text>
    <text x="810" y="600" text-anchor="middle" fill="#F2D06B" font-family="Microsoft YaHei, Arial, sans-serif" font-size="13" font-weight="bold">注意权 · 3</text>
    <text x="470" y="600" text-anchor="middle" fill="#D4AF37" font-family="Microsoft YaHei, Arial, sans-serif" font-size="13" font-weight="bold">关系权 · 2</text>
    <text x="400" y="400" text-anchor="end" fill="#F2D06B" font-family="Microsoft YaHei, Arial, sans-serif" font-size="13" font-weight="bold">信息权 · 2</text>
    <text x="510" y="200" text-anchor="middle" fill="#D4AF37" font-family="Microsoft YaHei, Arial, sans-serif" font-size="13" font-weight="bold">规则权 · 1</text>
    <text x="770" y="200" text-anchor="middle" fill="#6B7280" font-family="Microsoft YaHei, Arial, sans-serif" font-size="13" font-weight="bold">组合拳 · 5</text>

    
    <path fill="#1F2937" stroke="#D4AF37" stroke-width="0.5" d="M1006,220 H1214 A6,6 0 0 1 1220,226 V494 A6,6 0 0 1 1214,500 H1006 A6,6 0 0 1 1000,494 V226 A6,6 0 0 1 1006,220 Z" />
    <text x="1020" y="260" fill="#D4AF37" font-family="Microsoft YaHei, Arial, sans-serif" font-size="15" font-weight="bold">风险等级</text>
    <line x1="1020" y1="275" x2="1200" y2="275" stroke="#2D2D44" stroke-width="0.5" />

    <path fill="#B91C1C" d="M1022,295 H1030 A2,2 0 0 1 1032,297 V305 A2,2 0 0 1 1030,307 H1022 A2,2 0 0 1 1020,305 V297 A2,2 0 0 1 1022,295 Z" />
    <text x="1045" y="306" fill="#E5E7EB" font-family="Microsoft YaHei, Arial, sans-serif" font-size="12">高危险 · 6种</text>
    <text x="1170" y="306" text-anchor="end" fill="#6B7280" font-family="Arial, sans-serif" font-size="11">33%</text>

    <path fill="#D97706" d="M1022,325 H1030 A2,2 0 0 1 1032,327 V335 A2,2 0 0 1 1030,337 H1022 A2,2 0 0 1 1020,335 V327 A2,2 0 0 1 1022,325 Z" />
    <text x="1045" y="336" fill="#E5E7EB" font-family="Microsoft YaHei, Arial, sans-serif" font-size="12">施压手法 · 4种</text>
    <text x="1170" y="336" text-anchor="end" fill="#6B7280" font-family="Arial, sans-serif" font-size="11">22%</text>

    <path fill="#D4AF37" d="M1022,355 H1030 A2,2 0 0 1 1032,357 V365 A2,2 0 0 1 1030,367 H1022 A2,2 0 0 1 1020,365 V357 A2,2 0 0 1 1022,355 Z" />
    <text x="1045" y="366" fill="#E5E7EB" font-family="Microsoft YaHei, Arial, sans-serif" font-size="12">中性手法 · 5种</text>
    <text x="1170" y="366" text-anchor="end" fill="#6B7280" font-family="Arial, sans-serif" font-size="11">28%</text>

    <path fill="#22C55E" d="M1022,385 H1030 A2,2 0 0 1 1032,387 V395 A2,2 0 0 1 1030,397 H1022 A2,2 0 0 1 1020,395 V387 A2,2 0 0 1 1022,385 Z" />
    <text x="1045" y="396" fill="#E5E7EB" font-family="Microsoft YaHei, Arial, sans-serif" font-size="12">值得学习 · 3种</text>
    <text x="1170" y="396" text-anchor="end" fill="#6B7280" font-family="Arial, sans-serif" font-size="11">17%</text>

    <line x1="1020" y1="420" x2="1200" y2="420" stroke="#2D2D44" stroke-width="0.5" />
    <text x="1020" y="445" fill="#9CA3AF" font-family="Microsoft YaHei, Arial, sans-serif" font-size="12">施压密集区：注意权+施压权</text>
    <text x="1020" y="465" fill="#9CA3AF" font-family="Microsoft YaHei, Arial, sans-serif" font-size="12">最值得学：立规矩+三要素法</text>

    
    <line x1="60" y1="650" x2="1220" y2="650" stroke="#2D2D44" stroke-width="0.5" />
    <text x="60" y="690" fill="#4B5563" font-family="Arial, sans-serif" font-size="10">Source: 刘乾坤档案 v10.2 · 行为模式章节</text>
    <text x="640" y="690" text-anchor="middle" fill="#D4AF37" font-family="Arial, sans-serif" font-size="10" letter-spacing="3">CONFIDENTIAL</text>
    <text x="1220" y="690" text-anchor="end" fill="#4B5563" font-family="Arial, sans-serif" font-size="10">05 / 12</text>
</svg>