<?xml version="1.0" encoding="UTF-8"?>
<svg xmlns="http://www.w3.org/2000/svg" viewBox="0 0 1280 720">
    <defs>
        <linearGradient id="goldGrad" x1="0%" y1="0%" x2="100%" y2="100%">
            <stop offset="0%" stop-color="#D4AF37" />
            <stop offset="100%" stop-color="#F2D06B" />
        </linearGradient>
    </defs>

    <rect width="1280" height="720" fill="#1A1A2E" />

    
    <text x="60" y="50" fill="#D4AF37" font-family="Arial, sans-serif" font-size="11" letter-spacing="4" font-weight="bold">CONTROVERSIAL CASES</text>
    <line x1="60" y1="65" x2="255" y2="65" stroke="#D4AF37" stroke-width="1" />

    <text x="60" y="105" fill="#FFFFFF" font-family="Microsoft YaHei, Arial, sans-serif" font-size="36" font-weight="bold">争议事件</text>
    <text x="60" y="135" fill="#9CA3AF" font-family="Microsoft YaHei, Arial, sans-serif" font-size="16">三个事件暴露真实性格</text>

    
    
    <g transform="translate(60, 180)">
        <path fill="#1F2937" d="M6,0 H554 A6,6 0 0 1 560,6 V194 A6,6 0 0 1 554,200 H6 A6,6 0 0 1 0,194 V6 A6,6 0 0 1 6,0 Z" />
        
        <path fill="#B91C1C" d="M2,30 H2 A2,2 0 0 1 4,32 V168 A2,2 0 0 1 2,170 H2 A2,2 0 0 1 0,168 V32 A2,2 0 0 1 2,30 Z" />
        
        <path fill="#B91C1C" fill-opacity="0.2" d="M24,16 H96 A4,4 0 0 1 100,20 V36 A4,4 0 0 1 96,40 H24 A4,4 0 0 1 20,36 V20 A4,4 0 0 1 24,16 Z" />
        <text x="30" y="33" fill="#B91C1C" font-family="Arial, sans-serif" font-size="12" font-weight="bold">03-25</text>
        
        <text x="20" y="70" fill="#B91C1C" font-family="Microsoft YaHei, Arial, sans-serif" font-size="24" font-weight="bold">双重标准</text>
        
        <text x="20" y="105" fill="#E5E7EB" font-family="Microsoft YaHei, Arial, sans-serif" font-size="14">自己违规推动供应商拿钱被内审查过</text>
        <text x="20" y="130" fill="#E5E7EB" font-family="Microsoft YaHei, Arial, sans-serif" font-size="14">反过来质疑李吉斌的激励方案</text>
        
        <text x="20" y="170" fill="#6B7280" font-family="Microsoft YaHei, Arial, sans-serif" font-size="13" font-style="italic">年老师："挺可怕的，真的不可交"</text>
        
        <text x="490" y="33" fill="#B91C1C" font-family="Arial, sans-serif" font-size="11" font-weight="bold">HIGH RISK</text>
    </g>

    
    <g transform="translate(660, 180)">
        <path fill="#1F2937" d="M6,0 H554 A6,6 0 0 1 560,6 V194 A6,6 0 0 1 554,200 H6 A6,6 0 0 1 0,194 V6 A6,6 0 0 1 6,0 Z" />
        <path fill="#D97706" d="M2,30 H2 A2,2 0 0 1 4,32 V168 A2,2 0 0 1 2,170 H2 A2,2 0 0 1 0,168 V32 A2,2 0 0 1 2,30 Z" />
        <path fill="#D97706" fill-opacity="0.2" d="M24,16 H116 A4,4 0 0 1 120,20 V36 A4,4 0 0 1 116,40 H24 A4,4 0 0 1 20,36 V20 A4,4 0 0 1 24,16 Z" />
        <text x="30" y="33" fill="#D97706" font-family="Arial, sans-serif" font-size="12" font-weight="bold">03-25 深夜</text>
        <text x="20" y="70" fill="#D97706" font-family="Microsoft YaHei, Arial, sans-serif" font-size="24" font-weight="bold">公开攻击前任</text>
        <text x="20" y="105" fill="#E5E7EB" font-family="Microsoft YaHei, Arial, sans-serif" font-size="14">@李吉斌+CC上级，让前任难堪</text>
        <text x="20" y="130" fill="#E5E7EB" font-family="Microsoft YaHei, Arial, sans-serif" font-size="14">刚接手就甩锅，李吉斌反击后软化退让</text>
        <text x="20" y="170" fill="#6B7280" font-family="Microsoft YaHei, Arial, sans-serif" font-size="13" font-style="italic">教训：面对强硬反击，他会退让</text>
        <text x="490" y="33" fill="#D97706" font-family="Arial, sans-serif" font-size="11" font-weight="bold">MEDIUM</text>
    </g>

    
    <g transform="translate(60, 420)">
        <path fill="#1F2937" d="M6,0 H554 A6,6 0 0 1 560,6 V214 A6,6 0 0 1 554,220 H6 A6,6 0 0 1 0,214 V6 A6,6 0 0 1 6,0 Z" />
        <path fill="#B91C1C" d="M2,30 H2 A2,2 0 0 1 4,32 V188 A2,2 0 0 1 2,190 H2 A2,2 0 0 1 0,188 V32 A2,2 0 0 1 2,30 Z" />
        <path fill="#B91C1C" fill-opacity="0.2" d="M24,16 H96 A4,4 0 0 1 100,20 V36 A4,4 0 0 1 96,40 H24 A4,4 0 0 1 20,36 V20 A4,4 0 0 1 24,16 Z" />
        <text x="30" y="33" fill="#B91C1C" font-family="Arial, sans-serif" font-size="12" font-weight="bold">03-29</text>
        <text x="20" y="70" fill="#B91C1C" font-family="Microsoft YaHei, Arial, sans-serif" font-size="24" font-weight="bold">开门红带节奏</text>
        <text x="20" y="105" fill="#E5E7EB" font-family="Microsoft YaHei, Arial, sans-serif" font-size="14">群内密集同步激励问题</text>
        <text x="20" y="130" fill="#E5E7EB" font-family="Microsoft YaHei, Arial, sans-serif" font-size="14">道德绑架"影响1400个制鞋工人"</text>
        <text x="20" y="155" fill="#E5E7EB" font-family="Microsoft YaHei, Arial, sans-serif" font-size="14">选择性攻击：只攻击服务组，不攻击策略组</text>
        <text x="20" y="180" fill="#E5E7EB" font-family="Microsoft YaHei, Arial, sans-serif" font-size="14">夸大其词：实际"不会出现批量离职"</text>
        <text x="20" y="215" fill="#6B7280" font-family="Microsoft YaHei, Arial, sans-serif" font-size="13" font-style="italic">教训：核实数据，不被情绪带节奏</text>
        <text x="490" y="33" fill="#B91C1C" font-family="Arial, sans-serif" font-size="11" font-weight="bold">HIGH RISK</text>
    </g>

    
    <g transform="translate(660, 420)">
        <path fill="#1F2937" stroke="#D4AF37" stroke-width="1.5" d="M8,0 H552 A8,8 0 0 1 560,8 V212 A8,8 0 0 1 552,220 H8 A8,8 0 0 1 0,212 V8 A8,8 0 0 1 8,0 Z" />
        <text x="30" y="50" fill="#D4AF37" font-family="Microsoft YaHei, Arial, sans-serif" font-size="20" font-weight="bold">核心洞察</text>
        <line x1="30" y1="65" x2="530" y2="65" stroke="#D4AF37" stroke-width="0.5" stroke-opacity="0.3" />

        <text x="30" y="100" fill="#E5E7EB" font-family="Microsoft YaHei, Arial, sans-serif" font-size="15">他对别人做的事，自己可能也在做</text>
        <text x="30" y="135" fill="#E5E7EB" font-family="Microsoft YaHei, Arial, sans-serif" font-size="15">双重标准是最大破绽</text>
        <text x="30" y="170" fill="#E5E7EB" font-family="Microsoft YaHei, Arial, sans-serif" font-size="15">面对事实反击和强硬态度，他会退让</text>

        <text x="30" y="205" fill="#D4AF37" font-family="Microsoft YaHei, Arial, sans-serif" font-size="13">用事实反击，态度强硬，他就会退</text>
    </g>

    
    <text x="60" y="680" fill="#4B5563" font-family="Arial, sans-serif" font-size="10">Source: 刘乾坤档案 v10.2 · 争议事件章节</text>
    <text x="1220" y="680" text-anchor="end" fill="#4B5563" font-family="Arial, sans-serif" font-size="10">11 / 12</text>
</svg>