<?xml version="1.0" encoding="UTF-8"?>
<svg xmlns="http://www.w3.org/2000/svg" viewBox="0 0 1280 720">
    <defs>
        <linearGradient id="goldGrad" x1="0%" y1="0%" x2="100%" y2="100%">
            <stop offset="0%" stop-color="#D4AF37" />
            <stop offset="100%" stop-color="#F2D06B" />
        </linearGradient>
        <radialGradient id="centerGlow" cx="50%" cy="50%" r="60%">
            <stop offset="0%" stop-color="#D4AF37" stop-opacity="0.08" />
            <stop offset="100%" stop-color="#1A1A2E" stop-opacity="0" />
        </radialGradient>
    </defs>

    
    <rect width="1280" height="720" fill="#1A1A2E" />
    <rect x="0" y="0" width="1280" height="720" fill="url(#centerGlow)" />

    
    <line x1="60" y1="60" x2="1220" y2="60" stroke="#D4AF37" stroke-width="0.5" stroke-opacity="0.2" />

    
    <text x="60" y="50" fill="#D4AF37" font-family="Arial, sans-serif" font-size="11" letter-spacing="4" font-weight="bold">CONCLUSION</text>

    
    <text x="100" y="180" fill="#9CA3AF" font-family="Microsoft YaHei, Arial, sans-serif" font-size="20" font-weight="bold">总结三句话</text>

    
    <path fill="none" stroke="#D4AF37" stroke-width="0.5" stroke-opacity="0.2" d="M104,210 H1176 A4,4 0 0 1 1180,214 V326 A4,4 0 0 1 1176,330 H104 A4,4 0 0 1 100,326 V214 A4,4 0 0 1 104,210 Z" />
    <text x="140" y="260" fill="#D4AF37" font-family="Arial, sans-serif" font-size="48" font-weight="bold" fill-opacity="0.3">01</text>
    <text x="240" y="260" fill="#FFFFFF" font-family="Microsoft YaHei, Arial, sans-serif" font-size="28" font-weight="bold">他不是在管理，是在表演管理</text>
    <text x="240" y="300" fill="#6B7280" font-family="Microsoft YaHei, Arial, sans-serif" font-size="16">最在意的是"老板知不知道我在解决"</text>

    
    <path fill="none" stroke="#F2D06B" stroke-width="0.5" stroke-opacity="0.15" d="M104,350 H1176 A4,4 0 0 1 1180,354 V466 A4,4 0 0 1 1176,470 H104 A4,4 0 0 1 100,466 V354 A4,4 0 0 1 104,350 Z" />
    <text x="140" y="400" fill="#F2D06B" font-family="Arial, sans-serif" font-size="48" font-weight="bold" fill-opacity="0.3">02</text>
    <text x="240" y="400" fill="#FFFFFF" font-family="Microsoft YaHei, Arial, sans-serif" font-size="28" font-weight="bold">边界清晰是最好的防御</text>
    <text x="240" y="440" fill="#6B7280" font-family="Microsoft YaHei, Arial, sans-serif" font-size="16">周末不接@，工作日按流程，信息独立</text>

    
    <path fill="none" stroke="#D4AF37" stroke-width="0.5" stroke-opacity="0.1" d="M104,490 H1176 A4,4 0 0 1 1180,494 V606 A4,4 0 0 1 1176,610 H104 A4,4 0 0 1 100,606 V494 A4,4 0 0 1 104,490 Z" />
    <text x="140" y="540" fill="#D4AF37" font-family="Arial, sans-serif" font-size="48" font-weight="bold" fill-opacity="0.3">03</text>
    <text x="240" y="540" fill="#FFFFFF" font-family="Microsoft YaHei, Arial, sans-serif" font-size="28" font-weight="bold">取其精华，做温和但坚定的管理者</text>
    <text x="240" y="580" fill="#6B7280" font-family="Microsoft YaHei, Arial, sans-serif" font-size="16">学立规矩、三要素法、数据说话；加上给支持、长期合作</text>

    
    <line x1="60" y1="660" x2="1220" y2="660" stroke="#2D2D44" stroke-width="0.5" />
    <text x="60" y="690" fill="#4B5563" font-family="Arial, sans-serif" font-size="10">v10.2 · 年老师建档 · 2026-03-19 · 刘乾坤人物深度分析报告</text>
    <text x="640" y="690" text-anchor="middle" fill="#D4AF37" font-family="Arial, sans-serif" font-size="10" letter-spacing="3">CONFIDENTIAL</text>
    <text x="1220" y="690" text-anchor="end" fill="#4B5563" font-family="Arial, sans-serif" font-size="10">12 / 12</text>
</svg>