<?xml version="1.0" encoding="UTF-8"?>
<svg xmlns="http://www.w3.org/2000/svg" viewBox="0 0 1280 720">
    <rect width="1280" height="720" fill="#FFFFFF"/>
    <rect x="0" y="0" width="1280" height="6" fill="#D97757"/>

    <text x="60" y="55" font-family="Arial, sans-serif" font-size="14" font-weight="500" fill="#D97757" letter-spacing="2">THREE-PHASE</text>

    <text x="60" y="95" font-family="Microsoft YaHei, Arial, sans-serif" font-size="28" font-weight="bold" fill="#1A1A2E">
        补贴 → 收紧 → 分层：互联网定价经典三段式
    </text>

    <rect x="60" y="112" width="1100" height="32" fill="#D97757" fill-opacity="0.08" rx="6"/>
    <text x="610" y="134" text-anchor="middle" font-family="Microsoft YaHei, Arial, sans-serif" font-size="14" fill="#D97757" font-weight="600">所有互联网赛道都走这三步，AI也不例外</text>

    <g font-family="Microsoft YaHei, Arial, sans-serif">
        <!-- Phase 1: Subsidy -->
        <rect x="60" y="170" width="360" height="360" fill="#F8FAFC" stroke="#4A90D9" stroke-width="2" rx="14"/>
        <rect x="60" y="170" width="360" height="8" fill="#4A90D9" rx="4"/>

        <circle cx="240" cy="215" r="30" fill="#4A90D9" fill-opacity="0.15"/>
        <text x="240" y="223" text-anchor="middle" font-size="20" font-weight="bold" fill="#4A90D9">1</text>

        <text x="240" y="275" text-anchor="middle" font-size="24" font-weight="bold" fill="#4A90D9">补贴期</text>
        <text x="240" y="300" text-anchor="middle" font-size="15" fill="#64748B">2024 - 2025</text>

        <rect x="85" y="320" width="310" height="2" fill="#E2E8F0"/>

        <text x="85" y="350" font-size="16" font-weight="600" fill="#1A1A2E">目的：抢用户规模</text>
        <text x="85" y="380" font-size="14" fill="#1A1A2E">百万 Token 几毛钱</text>
        <text x="85" y="405" font-size="14" fill="#1A1A2E">首月 7.9 元入局</text>
        <text x="85" y="430" font-size="14" fill="#1A1A2E">建立使用习惯</text>
        <text x="85" y="455" font-size="14" fill="#1A1A2E">跑量验证需求</text>

        <rect x="85" y="475" width="100" height="28" fill="#4A90D9" fill-opacity="0.1" rx="14"/>
        <text x="135" y="494" text-anchor="middle" font-size="12" font-weight="600" fill="#4A90D9">关键词：获客</text>

        <!-- Arrow 1 -->
        <polygon points="440,350 430,340 430,360" fill="#64748B"/>
        <line x1="430" y1="350" x2="420" y2="350" stroke="#64748B" stroke-width="3"/>

        <!-- Phase 2: Tighten -->
        <rect x="460" y="170" width="360" height="360" fill="#F8FAFC" stroke="#D97757" stroke-width="2" rx="14"/>
        <rect x="460" y="170" width="360" height="8" fill="#D97757" rx="4"/>

        <circle cx="640" cy="215" r="30" fill="#D97757" fill-opacity="0.15"/>
        <text x="640" y="223" text-anchor="middle" font-size="20" font-weight="bold" fill="#D97757">2</text>

        <text x="640" y="275" text-anchor="middle" font-size="24" font-weight="bold" fill="#D97757">收紧期</text>
        <text x="640" y="300" text-anchor="middle" font-size="15" fill="#64748B">2025 H2 - 至今</text>

        <rect x="485" y="320" width="310" height="2" fill="#E2E8F0"/>

        <text x="485" y="350" font-size="16" font-weight="600" fill="#1A1A2E">目的：测试价格弹性</text>
        <text x="485" y="380" font-size="14" fill="#1A1A2E">取消首购优惠</text>
        <text x="485" y="405" font-size="14" fill="#1A1A2E">停售低档套餐</text>
        <text x="485" y="430" font-size="14" fill="#1A1A2E">每天10:30限时抢购</text>
        <text x="485" y="455" font-size="14" fill="#1A1A2E">筛选付费用户</text>

        <rect x="485" y="475" width="100" height="28" fill="#D97757" fill-opacity="0.1" rx="14"/>
        <text x="535" y="494" text-anchor="middle" font-size="12" font-weight="600" fill="#D97757">关键词：测试</text>

        <!-- Arrow 2 -->
        <polygon points="840,350 830,340 830,360" fill="#64748B"/>
        <line x1="830" y1="350" x2="820" y2="350" stroke="#64748B" stroke-width="3"/>

        <!-- Phase 3: Tier -->
        <rect x="860" y="170" width="360" height="360" fill="#F8FAFC" stroke="#10B981" stroke-width="2" rx="14"/>
        <rect x="860" y="170" width="360" height="8" fill="#10B981" rx="4"/>

        <circle cx="1040" cy="215" r="30" fill="#10B981" fill-opacity="0.15"/>
        <text x="1040" y="223" text-anchor="middle" font-size="20" font-weight="bold" fill="#10B981">3</text>

        <text x="1040" y="275" text-anchor="middle" font-size="24" font-weight="bold" fill="#10B981">分层期</text>
        <text x="1040" y="300" text-anchor="middle" font-size="15" fill="#64748B">2026 - 现在</text>

        <rect x="885" y="320" width="310" height="2" fill="#E2E8F0"/>

        <text x="885" y="350" font-size="16" font-weight="600" fill="#1A1A2E">目的：利润最大化</text>
        <text x="885" y="380" font-size="14" fill="#1A1A2E">极速版 ¥98-899</text>
        <text x="885" y="405" font-size="14" fill="#1A1A2E">Kimi Allegro ¥559</text>
        <text x="885" y="430" font-size="14" fill="#1A1A2E">企业版 ¥198-1398</text>
        <text x="885" y="455" font-size="14" fill="#1A1A2E">精细分层收割</text>

        <rect x="885" y="475" width="100" height="28" fill="#10B981" fill-opacity="0.1" rx="14"/>
        <text x="935" y="494" text-anchor="middle" font-size="12" font-weight="600" fill="#10B981">关键词：收割</text>
    </g>

    <rect x="60" y="560" width="1160" height="70" fill="#4A90D9" fill-opacity="0.08" stroke="#4A90D9" stroke-width="1" rx="12"/>
    <text x="90" y="588" font-family="Microsoft YaHei, Arial, sans-serif" font-size="15" font-weight="600" fill="#4A90D9">可复用模式</text>
    <text x="90" y="615" font-family="Microsoft YaHei, Arial, sans-serif" font-size="14" fill="#1A1A2E">进入新市场时，不要一开始就想好定价。先补贴跑量，再收紧测试弹性，最后精细分层。</text>

    <text x="60" y="670" font-family="Microsoft YaHei, Arial, sans-serif" font-size="12" fill="#64748B">数据来源：各厂商官方公告、产品定价页面 2026-04</text>

    <text x="640" y="705" text-anchor="middle" font-family="Arial, sans-serif" font-size="14" fill="#64748B">10 / 15</text>
</svg>
