<?xml version="1.0" encoding="UTF-8"?>
<svg xmlns="http://www.w3.org/2000/svg" viewBox="0 0 1280 720">
    <rect width="1280" height="720" fill="#FFFFFF"/>
    <rect x="0" y="0" width="1280" height="6" fill="#10B981"/>

    <text x="60" y="55" font-family="Arial, sans-serif" font-size="14" font-weight="500" fill="#10B981" letter-spacing="2">INSIGHTS</text>

    <text x="60" y="95" font-family="Microsoft YaHei, Arial, sans-serif" font-size="28" font-weight="bold" fill="#1A1A2E">
        五条可复用的定价模式规律
    </text>

    <g font-family="Microsoft YaHei, Arial, sans-serif">
        <!-- Row 1: 3 cards -->
        <rect x="60" y="125" width="370" height="240" fill="#F8FAFC" stroke="#E2E8F0" stroke-width="1" rx="12"/>
        <rect x="60" y="125" width="370" height="6" fill="#D97757" rx="3"/>
        <text x="90" y="165" font-size="18" font-weight="bold" fill="#D97757">01</text>
        <text x="90" y="195" font-size="18" font-weight="bold" fill="#1A1A2E">计量单位即定价权</text>
        <text x="90" y="225" font-size="14" fill="#64748B">谁定义计量单位，谁就掌握定价权。</text>
        <text x="90" y="248" font-size="14" fill="#64748B">MiniMax从Prompt转Token、Kimi从</text>
        <text x="90" y="268" font-size="14" fill="#64748B">Prompt转Token，都在争夺定义权。</text>
        <rect x="90" y="305" width="120" height="28" fill="#D97757" fill-opacity="0.1" rx="14"/>
        <text x="150" y="324" text-anchor="middle" font-size="12" font-weight="600" fill="#D97757">模糊→透明</text>

        <rect x="450" y="125" width="370" height="240" fill="#F8FAFC" stroke="#E2E8F0" stroke-width="1" rx="12"/>
        <rect x="450" y="125" width="370" height="6" fill="#4A90D9" rx="3"/>
        <text x="480" y="165" font-size="18" font-weight="bold" fill="#4A90D9">02</text>
        <text x="480" y="195" font-size="18" font-weight="bold" fill="#1A1A2E">补贴-收紧-分层</text>
        <text x="480" y="225" font-size="14" fill="#64748B">所有互联网赛道定价都走这三步。</text>
        <text x="480" y="248" font-size="14" fill="#64748B">先补贴跑量，再收紧测试弹性，</text>
        <text x="480" y="268" font-size="14" fill="#64748B">最后精细分层最大化利润。</text>
        <rect x="480" y="305" width="120" height="28" fill="#4A90D9" fill-opacity="0.1" rx="14"/>
        <text x="540" y="324" text-anchor="middle" font-size="12" font-weight="600" fill="#4A90D9">经典三段式</text>

        <rect x="840" y="125" width="380" height="240" fill="#F8FAFC" stroke="#E2E8F0" stroke-width="1" rx="12"/>
        <rect x="840" y="125" width="380" height="6" fill="#10B981" rx="3"/>
        <text x="870" y="165" font-size="18" font-weight="bold" fill="#10B981">03</text>
        <text x="870" y="195" font-size="18" font-weight="bold" fill="#1A1A2E">入口到生态</text>
        <text x="870" y="225" font-size="14" fill="#64748B">Coding是获客入口，Token是生态载体。</text>
        <text x="870" y="248" font-size="14" fill="#64748B">用编程高频刚需获客，用多媒体低频</text>
        <text x="870" y="268" font-size="14" fill="#64748B">高价值场景提高ARPU。</text>
        <rect x="870" y="305" width="120" height="28" fill="#10B981" fill-opacity="0.1" rx="14"/>
        <text x="930" y="324" text-anchor="middle" font-size="12" font-weight="600" fill="#10B981">工具→生态</text>

        <!-- Row 2: 2 cards -->
        <rect x="60" y="385" width="560" height="240" fill="#F8FAFC" stroke="#E2E8F0" stroke-width="1" rx="12"/>
        <rect x="60" y="385" width="560" height="6" fill="#D97757" rx="3"/>
        <text x="90" y="425" font-size="18" font-weight="bold" fill="#D97757">04</text>
        <text x="90" y="455" font-size="18" font-weight="bold" fill="#1A1A2E">国内外定价逻辑根本差异</text>
        <text x="90" y="485" font-size="14" fill="#64748B">国内：7家同池打价格战，比谁更便宜</text>
        <text x="90" y="510" font-size="14" fill="#64748B">海外：面对Claude/GPT三巨头，需要证明"我不差"</text>
        <text x="90" y="535" font-size="14" fill="#64748B">同一产品两套价格体系的合理性来源于竞争环境差异。</text>

        <rect x="640" y="385" width="580" height="240" fill="#F8FAFC" stroke="#E2E8F0" stroke-width="1" rx="12"/>
        <rect x="640" y="385" width="580" height="6" fill="#EF4444" rx="3"/>
        <text x="670" y="425" font-size="18" font-weight="bold" fill="#EF4444">05</text>
        <text x="670" y="455" font-size="18" font-weight="bold" fill="#1A1A2E">Agent 时代成本不可逆增长</text>
        <text x="670" y="485" font-size="14" fill="#64748B">70% coding agent token 是浪费</text>
        <text x="670" y="510" font-size="14" fill="#64748B">一个开发者8个月消耗100亿Token，API价$15,000+</text>
        <text x="670" y="535" font-size="14" fill="#64748B">实际账单是标价的2-5倍，订阅费是地板不是天花板</text>
    </g>

    <text x="640" y="660" text-anchor="middle" font-family="Microsoft YaHei, Arial, sans-serif" font-size="15" font-weight="600" fill="#1A1A2E">这些规律不仅适用于AI定价，也适用于所有"算力即服务"的商业模式</text>

    <text x="640" y="705" text-anchor="middle" font-family="Arial, sans-serif" font-size="14" fill="#64748B">12 / 15</text>
</svg>
