<svg xmlns="http://www.w3.org/2000/svg" width="200" height="200" viewBox="0 0 200 200">
<!-- SVG created with Arrow, by QuiverAI (https://quiver.ai) -->
  <path d="m168.2 48.5c-2.71-8.83-12.4-11.78-17.54-11.78-8.99 0-14.59 5.59-15.92 10.53l-0.88-3.45-1.74-0.43c1.74-5.2 3.46-13.64 1.88-23.96-1.49-9.9-5-16.15-9.74-16.39-8-0.4-19.19 11.94-22.48 17.49-0.19 0.34-0.62 0.48-1.01 0.41-7.77-1.55-15.62-0.94-19.86-0.26-0.41 0.06-0.75-0.1-0.99-0.42-4.65-6.35-14.06-17.28-22.58-17.13-8.97 0.17-11.81 14.41-11 28.18 0.32 5.34 1.03 9.69 1.3 12.02 0.04 0.35-0.03 0.7-0.2 1.02-2.62 5.15-4.61 12.62-4.47 19.28 0.2 8.77 4.3 16.57 9.39 21.8-0.87 1.32-1.13 3.18-0.94 5.57-8.59 2.75-18.23 12.79-19.27 25.14-0.75 9.23 3.99 15.59 6.04 17.8-5.08 3.75-10.89 15.94-6.43 29.03 2.03 5.96 4.98 10.77 6.89 13.11-1.45 3.1-3.03 11.23 3.09 15.42 6.59 4.55 18.04 3.7 25.52 2.38 5.19-0.91 8.07-2.87 9.08-3.87 5.24 5.07 10.69 6.86 16.5 6.59 7.84-0.36 13.94-4.03 17.12-6.76 2.47 2.8 9 4.73 18.78 4.73 9.08 0 16.79-3.37 18.37-9.14 1.15-4.5-0.05-8.31-0.82-9.79 1.69-3.6 6.36-11.73 6.94-21.71 0.57-9.32-5.19-19.95-13.1-23.52-0.43-3.17-0.81-6.33-1.06-7.35 10.87-1.92 18.58-11.14 20.72-21.13 1.73-8.28 0.27-20.01 1.08-27.41 0.52-5.05 2.09-10.61 4.06-13.48 3.39-3.28 4.96-7.05 3.27-12.52z" fill="#000"/>
  <path d="m136.2 48.11c1.82-4.83 6.69-8.87 13.84-9.04 7.82-0.2 13.34 5.76 14.42 9.91 1.01 4.1-0.81 8.03-4.36 9.99 0.91-2.69 1.3-6.02-0.59-7.06-1.27-0.69-1.03 0.79-0.85 2.16 0.19 1.79-1.06 4.75-2.02 5.35l-3.5 0.4c1.79-2.61 1.13-7.54-0.2-9.2-1.04-1.2-1.64 0.46-1.4 2.91 0.16 1.9-0.81 5.23-1.38 5.81-2.29 0.2-4.3-0.63-5.11-1.17 1.6-2.09 2.05-5.44 0.98-7.41-0.63-1.13-1.84-0.52-1.92 1.55-0.14 2.82-0.2 5.13-1.7 5.18-0.85 0.02-2.31-0.56-2.55 0.52-0.58 2.17 2.77 3.81 7.54 4.88 5.44 1.22 9.12 0.24 11.82-0.52-1.8 6.5-2.42 10.58-2.12 20.68 0.38 12.25-0.15 21.67-6.99 29.06-4.41 4.89-8.98 6.36-11.63 7.07-1.4-6.36-3.33-12.83-6.33-15.6-1.27-0.4-1.75 0.79-0.57 3.98 2.95 8.21 3.93 15.6 5.05 24.36 0.29 1.69 2.14 1.36 2.73 0.82 5.29 1.62 9.84 11 9.2 21.84-0.53 8.83-5.34 16.34-5.91 19.74 2.12 2.56 2.26 9.66-4.57 14.22 0.72-2.83 0.54-4.73-0.59-6.53-0.86-1.3-2.17-0.5-1.69 1.9 0.51 2.61-0.59 5.33-1.84 5.91l-4.86 0.58c0.63-2.69 0.63-5.89-0.7-8.01-0.88-1.08-1.85-0.21-1.45 2.05 0.46 2.45-0.75 5.48-1.26 5.75l-5.34-0.37c0.9-2.64 0.59-5.61-0.21-7.08-0.73-1.17-1.62-0.22-1.62 2.1 0 1.93-0.89 4.41-1.32 4.99-3.16-0.2-5.15-1.41-6.7-2.1 2.71-3.26 5.48-8.46 5-12.4-0.34-2.07-1.82-1.8-2.59 1.02-2.72 9.9-10.15 16.22-19.6 16.22-11.17 0-18.06-7.59-24.81-23.94-3.5-8.52-2.34-16.47-1.38-18.48 6.18-0.51 13.14-6.47 13.66-14.37 4.72-0.85 14.19 0.05 21.02 11.31 6.9 11.32 11.68 19.04 12.65 25.74 1.2 0 1.84-5.77-1.45-14.57-3.68-10.18-11.74-25.53-26.29-26.35-3.26-0.17-4.94 0.13-6.74 0.6-1.33-6.3-7.24-9.88-14.17-15.07-3.8-2.91-7.35-5.23-9.95-8.94-1.74-0.52-2.12 0.38-0.95 2.17 3.8 5.34 10.91 9.44 14.69 12.76 4.86 4.3 7.84 7.38 7.16 14.78-0.23 1.53-0.82 2.32-1.65 3.53-1.16-3.33-4-6.08-5.35-6.81-1.14-0.47-1.43 1.1-0.26 2.07 1.82 1.31 4.19 2.72 4.82 5.88-0.61 1.01-2.15 2.86-3.52 3.18-1.55-2.95-3.89-4.95-5.68-5.56-1.26-0.27-1.13 1.42-0.15 2.11 1.99 1.26 3.32 2.31 3.51 4.36-2.02 0.75-6.36 1.24-10.42-1.49-8.54-5.55-17.23-13.53-20.08-21.04-4.06-11.35 4.12-26.75 14.23-30.82 1.35 4.01 6.7 6.73 10.87 8.79 7.04 3.4 15.76 4.61 19.6 4.75-0.73 2.07-0.79 2.87-0.73 4.55 0.28 5.43 4.14 9.22 9.86 9.01 5.24-0.23 9.25-5.34 9.06-8.67-0.14-1.41-0.9-2.03-1.38-2.2 2.18-0.81 9.42-2.42 13.85-4.04 7.44-2.72 15.95-7.68 17.75-12.68 0.97-3.03 0.82-5.29 0-7.08 4.91-5.23 7.71-12.48 7.63-20.82-0.11-8.29-1.71-14.61-2.51-17.12z" fill="#F0EDD2"/>
  <path d="m77.45 23.29c4.07-1 15.07-1.58 21.9 0 2.43 0.58 3.87 0.52 5.56-2.09 4.04-6.1 13.06-15.51 19.93-14.9 5.39 0.53 6.89 13.24 6.25 25.49-0.2 3.89-0.05 6.55 0.38 9.48 0.27 1.64 1.15 0.8 1.15-0.17 0.57-3.78-0.63-30.48-7.58-35.38-6.54-4.65-18.83 9.21-22.65 15.7-0.47 0.86-0.85 1.13-2.75 0.73-5.61-1.38-15.57-1.54-20.23-0.44-4-5.81-13.6-16.13-22.2-16.13-9.17 0-10.2 18.3-8.21 30.64 0.63 3.64 0.92 5.59 0.75 6.76-2.33 7.1-3.33 12.64-3.14 20.7 0.38 11.49 9.24 27.03 33.18 29.33 12.17 1.18 26.13 0.12 35.53-3.66 11.45-4.69 18.56-14.61 18.85-26.13 0.23-7-1.88-14.44-2.1-17.71-0.06-1.47 1.2-2.3 1.8-0.1 1.54 4.83 5.59 20.91 1.71 31.32-2 5.47-5.58 9.55-5.37 10.32 0.8 3.33-1.38 6.71-3.84 8.97-6.07 5.54-16.14 9.07-28.06 10.29-2.58-2.9-4.39-3.67-8.11-3.58-3.19 0.08-4.58 1.07-6.41 2.59-8.55-0.46-19.52-3.56-26.58-9.33-2.8-2.36-4.23-5.48-3.41-9 0.46-1.86 1.54-1.43 2.14-0.8 4.87 4.36 17.16 10.02 32.82 10.3 11.85 0.24 28.34-1.83 36.52-8.48 1.63-1.4 2.66-0.48 2.1 2.69-0.73 3.98-9.97 10.96-27.37 13.64-1.1 0.2-1.63 0.13-2.27-0.63-1.85-1.47-4.12-1.84-6.43-1.8-3.55 0.06-5.83 1.47-7.06 2.82-6.96-0.32-17.9-2.9-25.54-8.14-4.03-2.92-5.38-5.26-5.18-8.58 0.25-2.15 1.81-1.7 2.55-0.84 4.57 5 18.19 9.99 32.74 9.99 15.07 0 28.7-3.22 34.89-7.95 3.79-3.03 4.98-4.15 4.98-5.11-0.33-1.05-3 0.77-4.98 2.49-8.2 7.14-19.59 8.21-33.17 8.21-17.93 0-30.34-5.9-33.33-8.43-8.97-7.4-10.92-15.26-10.39-24.61 0.47-7.98 2.67-14.93 3.53-16.25-1.64-10.5-2.11-21.5 0.28-30.65 1.41-5.7 4.01-8.83 8.31-7.67 6.08 1.69 12.84 9.74 17.93 15.43 0.96 1.09 0.14 1.13 0.58 0.67z" fill="#F2F0E1"/>
  <path d="m53.61 32.05c-1.33-8.04 0.24-16.9 2.71-19.96 0.89-1.18 2.53-0.92 4.1 0 4.8 2.82 8.74 8.62 10.76 12.8 0.58 1.3 0.44 2.52-1.42 3.12-4.71 1.6-9.69 5.21-12.5 7.98-1.58 1.59-3.07 0.17-3.65-3.94z" fill="#000"/>
  <path d="m53.7 28.16c-0.8-5.54 0.77-13.25 2.91-15.58 0.8-0.96 1.55-0.9 3.01 0 3.8 2.33 8.01 7.63 9.47 11.03 0.56 1.28 0.16 1.82-0.73 2.26-5.24 2.45-8.29 4.88-11.15 8.4-1.91 2.35-2.91-1.82-3.51-6.11z" fill="#DC3F26"/>
  <path d="m110.6 24.57c3.7-6.36 8.51-11.56 12.5-12.89 1.68-0.58 2.66-0.17 3.64 1.52 2.33 4.18 2.79 14.45 1.15 22.62-0.46 2.39-1.67 1.6-2.57 0.27-2.47-3.33-8.71-7.6-13.37-8.92-2-0.66-2.1-1.24-1.35-2.6z" fill="#000"/>
  <path d="m112.8 25.26c3.55-6.05 6.61-10.5 10.54-12.83 1.33-0.81 2.54-0.27 3.28 1.93 2.15 5.96 2.37 13.66 1.05 20.38-0.43 2.39-1.05 2.19-2.41 0.4-2.46-3.22-7.94-7.36-11.54-8.83-1.2-0.49-1.57-0.12-0.92-1.05z" fill="#DC3F26"/>
  <path d="m60.36 171.4c-5.34-1.07-11.21-0.37-14.4 2.24-0.85 0.74-0.49 1.44 1.19 0.93 4.04-1.26 9.52-1.99 14.97-0.87 2.85 0.64 3.59-1.24-1.76-2.3z" fill="#000"/>
  <path d="m127 170.2c-4.32 0.31-7.92 1.87-8.42 2.68-0.85 1.41 0.19 1.99 1.59 1.52 6.08-2.06 11.38-2.39 16.88-0.76 1.89 0.64 2.69-0.18 1-1.3-1.94-1.17-6.03-2.38-11.05-2.14z" fill="#000"/>
  <path d="m40.62 137.2c-7.29 9.25-5.61 24.24 1.64 35.21l0.92-0.15c-5.08-10.04-7.93-21.14-1.4-34.12 0.4-0.94-0.15-1.78-1.16-0.94z" fill="#FFFEF9"/>
  <path d="m138.2 136.3c8.34 3.49 10.73 14.78 8.92 23.61l0.39-0.79c1.18-7.65-1.13-20.05-8.15-24.51-2.27-1.4-3.61 0.37-1.16 1.69z" fill="#FFFEF9"/>
  <path d="m150.3 41.11c-4.43-0.47-8.08 1.72-10.11 4.1-0.67 0.88-0.32 0.99 0.57 0.2 3.13-2.4 6.7-3.24 10.41-2.9 5.87 0.57 10.58 3.6 11.72 5.39 0.48 0.67 0.96 0.13 0.1-1.66-1.6-2.61-6.6-4.62-12.69-5.13z" fill="#FFFEF9"/>
  <path d="m157.8 72.09c-0.82 4.19-0.73 11.37-1.14 18.96-0.76 13.61-4.45 19.86-13.19 26.07l-0.58-0.4c8.89-8.45 12.78-14.65 14.14-34.65 0.33-4.96 0.43-7.79 0.77-9.98z" fill="#FFFEF9"/>
  <path d="m66.98 155.9c0-5.85 2.11-5.3 3.08-5.81 5.05-2.06 9.04-7.12 9.85-13.17 5.34-1.9 14.81-0.52 20.81 10.14 6.53 11.86 11.34 21.24 10.75 28.11-0.85 9.45-8.76 17.41-18.21 17.41-10.02 0-15.37-6.43-20.18-17.41-3.45-7.71-6.1-12.6-6.1-19.27z" fill="#DC3F26"/>
  <path d="m82.03 54.41c-1.92-4.33-6.01-6.69-11.09-6.69-4.76 0-7.61 2.22-10.15 4.92-1.04 1.17-0.06 1.82 1.19 0.97 3.03-2.06 5.04-2.8 8.48-2.89 4.57-0.1 6.83 1.86 8.82 4.54 1.45 2.06 3.78 1.86 2.75-0.85z" fill="#000"/>
  <path d="m100.4 54.12c2.55-4.64 6.35-6.76 10.65-6.58 4.98 0.18 7.9 1.73 9.49 3.78 1.14 1.5 0.12 2.17-1.22 1.31-1.99-1.22-5.36-2.07-8.5-2.01-3.8 0.14-5.99 2.21-7.87 4.4-2 2.49-4.16 2.1-2.55-0.9z" fill="#000"/>
  <path d="m86.15 63.71c-0.06-2.07 2.06-2.09 5.04-2.23 2.93-0.12 5.33 0.71 5.48 2.03 0 1.22-3.15 4.28-5.15 4.23-1.92 0.02-5.31-2.11-5.37-4.03z" fill="#DC3F26"/>
  <path d="m91.31 67.61-0.59 0.09-0.2 4.51c-2.76 2.39-7.78 3.42-10.41 0.91-1.05-0.96-1.52 0.21-0.61 1.38 2.71 2.96 8.21 2.96 11.81-0.97 4.32 3.53 10.54 4.08 12.67-0.44 0.73-1.64-0.24-1.47-1.17-0.37-2.42 2.9-7.85 2.01-10.75-1.26l-0.14-3.76-0.61-0.09z" fill="#000"/>
  <path d="m53.61 60.91c-0.28-0.8 0.47-0.92 2.12-0.65 3.39 0.52 8.43 1.79 11.71 3.16 1.14 0.48 0.98 2.27-0.7 2-2.9-0.58-8.49-2.15-11.66-3.13-0.8-0.27-1.47-0.65-1.47-1.38z" fill="#000"/>
  <path d="m52.42 69.61c-0.3-0.69 0.36-0.83 1.65-0.89 3.75-0.18 9.28-0.16 12.59 0 1.48 0.07 1.62 1.69 0 1.64-3.45 0.06-7.95 0-11.58-0.15-1.33-0.05-2.37 0-2.66-0.6z" fill="#000"/>
  <path d="m56.21 77.67c-0.62-0.62 0.36-1.14 1.63-1.76 2.43-1.18 5.93-2.2 9.03-2.56 1.92-0.23 1.92 1.51 0.18 1.95-3.08 0.79-5.78 1.55-8.44 2.51-0.97 0.35-1.8 0.56-2.4-0.14z" fill="#000"/>
  <path d="m128.8 60.91c0.28-0.8-0.47-0.92-2.12-0.65-3.39 0.52-7.69 1.44-10.96 2.81-1.8 0.69-1.74 2.24 0.23 1.97 2.9-0.58 8.49-2.15 11.66-3.13 0.52-0.19 1.05-0.43 1.19-1z" fill="#000"/>
  <path d="m129.4 69.61c0.29-0.69-0.67-0.82-1.96-0.89-3.75-0.18-7.74-0.24-11.05 0-1.8 0.14-2 1.49 0 1.49 3.44 0.06 7.3 0.15 10.91 0 1.05-0.05 1.79 0 2.1-0.6z" fill="#000"/>
  <path d="m125.3 77.67c0.62-0.62-0.36-1.14-1.63-1.76-2.43-1.18-5.28-2.12-8.39-2.65-1.63-0.34-2.01 1.13-0.26 1.6 2.9 0.85 5.65 1.67 8.31 2.64 0.74 0.25 1.47 0.71 1.97 0.17z" fill="#000"/>
  <path d="m91.87 104.7c-4.76 0-6.71 3.39-6.71 6.91 0 3.65 2.75 6.06 5.04 6.59v-4.21c-0.84-0.42-1.24-1.07-1.24-1.98 0-1.42 0.96-2.3 2.42-2.3 1.33 0 2.34 1.04 2.34 2.3 0 0.86-0.43 1.59-1.17 1.98l-0.09 4.21c3.17-0.63 6.01-3.15 6.31-6.89 0.04-3.62-2.6-6.61-6.9-6.61z" fill="#DC3F26"/>
  <path d="m117.7 152.8c2.02-9.35 8.38-16.67 15.88-19.56 1.25-0.67 1.08-1.55-0.67-0.93-7.53 2.34-14.01 11.82-15.5 19.83-0.33 1.79 0 1.74 0.29 0.66z" fill="#000"/>
  <path d="m47.69 182.7c-1.27 2.33-1.27 5.22-0.87 6.71-1.8-0.47-5.37-2.62-5.25-7.64 0-2.8 1.04-5.19 0.96-6.47-0.58-2.61-2.32-1.06-2.32 0.87 0 2.2-2.11 8.8 2.57 12.95 4.37 3.92 11.7 3.85 18.16 3.27 5.17-0.48 10.24-1.31 13-3.52 1.26-0.95 0.99-2-0.58-1.18-2.44 1.22-4.2 1.79-7.25 1.99 0.32-1.93 0-5.54-0.9-6.59-0.79-0.92-1.6-0.22-1.66 2.16-0.13 2.17 0.23 3.62-0.47 5.11-1.93 0.36-4.29 0.22-5.93-0.27 0.34-1.92 0.06-5.12-0.54-6.6-0.76-1.62-1.93-0.67-2.27 1.76-0.29 1.8-0.42 3.32-0.22 4.65-1.67 0.12-3.49-0.49-4.46-1.03 0-2.39-0.15-3.98 0.27-5.57 0.42-1.64-1.22-2.63-2.24-0.6z" fill="#000"/>
</svg>