<svg xmlns="http://www.w3.org/2000/svg" width="250" height="227" viewBox="0 0 250 227">
<!-- SVG created with Arrow, by QuiverAI (https://quiver.ai) -->
  <path d="m249.7 0.36h-248.9v226.3h248.9v-226.3z" fill="#F0EAE1"/>
  <path d="m193.5 17.86c-14.86 8.85-31.72 9.9-51.09 7.06-19.46-2.85-34.25-11.29-57.1-15.79-14.66-3.07-25.89-4.65-42.41-1.88-17.78 3.16-31.24 14.56-32.41 30.07 11.31-13.96 24.73-20.46 46.24-20.73 25.2-0.33 49.05 8.89 70.79 14.47 20.96 5.38 43.61 12.66 68.53 12.82 15.75-0.11 32.92-5.1 43.56-15.79 1.47-1.68 2.28-1.63 2.65-0.48 0.66 2.28-13.92 18.4-46 19.8-25.66 1.1-48.96-4.76-69.67-10.04-23.53-6.65-43.61-15.35-68.73-15.77-23.02-0.41-37.75 9.85-46.16 23.62 3.42 15.56 15.43 28.44 35.59 30.72l5.43 0.25c-1.99-2.28-2.71-3.45-2.55-4.98 0.66-1.95 2.44-2.05 4.73-1.9 2.91 0.26 5.3 0.21 8.21-0.41-4.62-1.69-10.92-4.13-15.01-8.37-1.29-1.48-0.47-2.57 0.84-1.91 2.37 1.49 4.86 1.13 8.66 1.13 16.86 1.03 26.88 0.46 39.37-1.17 11.74-1.53 21.63-2.52 35.1-2.68 14.99-0.21 26.7 2.79 32.95 11.52 1.98 2.62 5.03 8.77 4.98 16.11-0.05 6.89-5.63 17.88-7.09 18.19-1.14 0.4-0.83-1.23-0.46-2.43 4.46-11.25 3.92-17.11-0.15-26.55-4.57-9.12-16.09-12.32-34.12-11.91-17.73 0.47-26.36 2.85-40.71 3.31-8.85 0.57-18.74 0.63-30.96-1.45 5.38 3.64 11.39 5.44 16.16 5.9 1.67 0.16 1.51 2.78 0.05 3.04-6.11 0.99-10.21 1.09-18.01 0.52 4.09 4.87 12.46 9.07 21.69 12.92 5.48 2.28 6.93 3.85 6 4.74-1.68 1.78-8.65-0.67-16.69-4.34-4.61 3.14-14.8 6.24-27.71 5.99-19.24-0.41-33.6-13.67-34.27-28.72-0.28-8.42 3.23-16.5 5.52-20.08-1.64-17.83 10.97-32.41 31.77-37.2 11-2.57 26.34-2.84 40.8-0.05 17.84 3.1 32.08 9.7 49.3 14.2 14.85 3.45 33.66 7.41 52.88 2.14 5.91-1.79 8.12-3.87 9.33-4.39 0.97-0.35 1.48-0.2 1.48 0.36" fill="#DD7156"/>
  <path d="m9.98 51.14c-2.79 7.58-2.79 18.56 4.51 26.55 7.1 7.27 15.83 9.16 28.26 8.8 7.66-0.25 14.4-1.78 18.89-4.01l-3.14-1.84c-5.38 0.31-7.36-0.47-11.37-1.03-16.39-1.7-31.36-12.43-37.15-28.47z" fill="#F0EAE1"/>
  <path d="m90.12 67.13c-4.31 0-5.79 3.35-5.63 5.77 0.21 3.25 2.77 5.24 5.42 5.19 3.25-0.05 4.95-2.84 4.84-5.47-0.15-2.78-1.93-5.44-4.63-5.49z" fill="#DD7156"/>
  <path d="m168.6 67.07c3.88-3.76 10.04-3.78 15.61-2.74 10.67 2.42 16.19 6.06 19.57 12.81 4.19 8.65 0.05 16.64-6.93 23.77-3.34 3.9-2.09 5.91-3.34 11.05-1.79 7.2-6.4 12.39-12.27 14.31 3.16 5.64 7.97 8.47 14.3 7.35 6.66-1.19 8.24-8.56 14.75-11.78 3.64-1.76 8.44-1.42 12.58-4.94 6.47-4.99 6.11-14.66-0.14-22.98-4.62-6.27-9.53-8.21-12.6-9.49-3-1.21-2.34-4.28 2.01-3.58 9 1.47 19.27 11.85 21.2 22 2.79 12.88-5.7 21.37-16.59 23.76-6.66 1.1-6.88 4.55-10.81 8.65-4.96 4.65-9.91 4.61-16.44 3.89-0.5 3.56-0.87 8.46 4.73 11.74 4.88 1.92 8.07 0.34 12.87-1.77 7.73-3.44 11.13-0.29 19.43 1.6 7.7 1.53 12.85-4.41 13.39-10.96 0.61-8.65-2.68-17.07-4.54-21.95-1.32-3.1 1.48-5.2 3.96-1.62 6.66 8.7 9.4 22.45 4.05 31.26-4.36 7.17-10.25 9.74-18.66 7.96-5.9-1.63-8.48-4.73-14.99-0.88-6.66 3.3-15.9 3.71-21.24-1.17-2.29 2.74-4.18 8.55-1.49 11.84 3.33 3.69 7.8 2.21 13.95 3.2 7.72 1.39 8.12 7.56 17.16 8.39 9.48-0.52 14.69-9.52 16.25-16.55 1.01-3.05 3.96-3.21 3.91-0.1 0.81 8.96-8.14 21.59-19.3 21.9-10.87-0.04-10.97-8.35-18.53-8.61-8.33 0.88-12.78-2.47-16.52-5.81-5.22 2.23-10.13 10.19-3.7 14.41 2.8 1.89 6.95 1.38 9.74 3.85 4.86 3.85 3.87 9.49 9.3 10.32 6.88 1.21 12.92-4.97 16.16-9.32 2.69-2.57 4.81-1.1 3.7 1.52-5.1 8.05-13.4 13.53-21.25 11.61-7.98-1.32-8.54-11-13.64-12.27-6.8-1.87-12.04-5.38-12.59-10.84-4.3 3.79-7.32 6.68-14.72 10.49-6.8 3.58-9.72 6.42-9.14 12.01 0.81 3.35 1.43 4.61-0.66 4.94-2.29 0.08-5.42-5.53-3.91-11.29-10.89-8.52-30.57-23.9-40.22-24.26-5-0.41-5.43 7.15-1.08 11.5 14.03 3.68 27.29 9.98 32.81 13.99 2.11 1.59 0.43 2.48-2.36 1.44-11.74-5.04-26-9.53-41.33-11.01-4.15-0.3-3.69 4.1-0.23 6.53 3.16 1.89 3.91 4.58 5.24 7.36 2.79 3.44 9.02 4.16 18.69 3.21 5.9-0.62 12.66-1.58 15.63-0.22 1.86 1.37-4.31 4.47-16.44 5.62-5.08 0.52-8.12-0.52-10.08-0.36-3.62 1.86-5.86 5.11-5.11 7.9 1.92 3.58 9.35 2.86 16.59 1.28 10.57-2.62 19.81-7.12 31.64-8.7 2.04-0.27 2.7 1.42 0.14 2.89-7.6 5.86-25.29 10.94-37.83 12.37-9.14 1.22-15.1-2.27-15.52-7.38-0.22-4.19 3.07-7.23 5.98-8.97-5.78-1.37-8.57-5.32-9.54-9.62-3.26-1.47-6.7-5.11-6.98-10 0.49-5.47 4.76-7.65 12.53-6.98-2.79-4.25-2.65-12.4 3.21-14.98 5.34-1.58 10.67 1.37 15.34 4.06 8.8 5.09 23.86 15.9 29.49 22.06 3.45-5.05 12.73-7.84 21.21-13.07 3.23-1.63 4.13-2.52 5.34-3.7 0.9-6.55 5.77-8.85 11.4-10.76-0.9-5.41 0.72-9.14 4.29-12.48-6.3-4.49-11.3-3.76-20.15 0.84-3.43 1.84-5.74-0.73-2.74-3.72 5.8-5.81 13.54-7.13 22.11-4.11l1.24 0.66c1.24-3.54 0.09-5.63-1.51-7-9.17-0.59-17.03 2.7-25.2 10.39-1.83 1.58-4.17 0-2.45-2.62 6.34-8.28 13.1-12.04 21.68-12.71-1.18-1.89-2.18-3.74-2.74-5.65-11.73-0.62-21.07 8.94-25.19 20.37-1.32 2.69-3.51 1.92-3.25-0.06 1.2-9.56 8.71-18.27 18.12-23.36-11.94-0.41-19.36 7.47-25.07 17.52-2.44 3.3-4.67 2.06-3.68-0.89 5.28-13.42 12.93-17.75 24.24-20.27-1.62-2.09-2.5-4.03-1.77-5.13 0.69-1.22 1.83-0.42 3.14 1.21 4.91 4.75 9.97 6.04 14.27 5.18 7.95-1.15 11.79-7.48 12.1-15.26 0.32-4.84 2.66-7.12 7.68-12.45 6.43-7.2 3.87-16.65-4.72-20.55-9.44-4.45-17.27-5.34-22.06-3.82-2.58 0.99-2.88-0.54-1.48-2.27z" fill="#DD7156"/>
  <path d="m150.2 208.9c0.97-1.2 5.71-0.95 9.39-1.01 8.27-0.21 14.07-1.19 25.11-6.72 4.67-2 7.67-1.07 5.56 1.88-8.25 7.85-23.42 11.46-33.19 9.99-6.31-1.15-8.16-3.1-6.87-4.14z" fill="#DD7156"/>
</svg>