<?xml version="1.0" encoding="utf-8" standalone="no"?>
<!DOCTYPE svg PUBLIC "-//W3C//DTD SVG 1.1//EN"
  "http://www.w3.org/Graphics/SVG/1.1/DTD/svg11.dtd">
<svg xmlns:xlink="http://www.w3.org/1999/xlink" width="1144.777187pt" height="543.4975pt" viewBox="0 0 1144.777187 543.4975" xmlns="http://www.w3.org/2000/svg" version="1.1">
 <metadata>
  <rdf:RDF xmlns:dc="http://purl.org/dc/elements/1.1/" xmlns:cc="http://creativecommons.org/ns#" xmlns:rdf="http://www.w3.org/1999/02/22-rdf-syntax-ns#">
   <cc:Work>
    <dc:type rdf:resource="http://purl.org/dc/dcmitype/StillImage"/>
    <dc:date>2026-05-05T10:04:23.726800</dc:date>
    <dc:format>image/svg+xml</dc:format>
    <dc:creator>
     <cc:Agent>
      <dc:title>Matplotlib v3.10.9, https://matplotlib.org/</dc:title>
     </cc:Agent>
    </dc:creator>
   </cc:Work>
  </rdf:RDF>
 </metadata>
 <defs>
  <style type="text/css">*{stroke-linejoin: round; stroke-linecap: butt}</style>
 </defs>
 <g id="figure_1">
  <g id="patch_1">
   <path d="M 0 543.4975 
L 1144.777187 543.4975 
L 1144.777187 0 
L 0 0 
z
" style="fill: #ffffff"/>
  </g>
  <g id="axes_1">
   <g id="patch_2">
    <path d="M 38.612813 520.9275 
L 1137.577187 520.9275 
L 1137.577187 40.1275 
L 38.612813 40.1275 
z
" style="fill: #ffffff"/>
   </g>
   <g id="patch_3">
    <path d="M 59.250641 520.9275 
L 195.63977 520.9275 
L 195.63977 40.1275 
L 59.250641 40.1275 
z
" clip-path="url(#pe8ca96b994)" style="fill: #8bc34a; opacity: 0.15; stroke: #8bc34a; stroke-linejoin: miter"/>
   </g>
   <g id="patch_4">
    <path d="M 338.982949 520.9275 
L 420.861291 520.9275 
L 420.861291 40.1275 
L 338.982949 40.1275 
z
" clip-path="url(#pe8ca96b994)" style="fill: #8bc34a; opacity: 0.15; stroke: #8bc34a; stroke-linejoin: miter"/>
   </g>
   <g id="patch_5">
    <path d="M 625.893632 520.9275 
L 666.720641 520.9275 
L 666.720641 40.1275 
L 625.893632 40.1275 
z
" clip-path="url(#pe8ca96b994)" style="fill: #8bc34a; opacity: 0.15; stroke: #8bc34a; stroke-linejoin: miter"/>
   </g>
   <g id="patch_6">
    <path d="M 912.57999 520.9275 
L 994.458332 520.9275 
L 994.458332 40.1275 
L 912.57999 40.1275 
z
" clip-path="url(#pe8ca96b994)" style="fill: #8bc34a; opacity: 0.15; stroke: #8bc34a; stroke-linejoin: miter"/>
   </g>
   <g id="patch_7">
    <path d="M 195.63977 520.9275 
L 298.15594 520.9275 
L 298.15594 40.1275 
L 195.63977 40.1275 
z
" clip-path="url(#pe8ca96b994)" style="fill: #f44336; opacity: 0.12; stroke: #f44336; stroke-linejoin: miter"/>
   </g>
   <g id="patch_8">
    <path d="M 420.861291 520.9275 
L 564.20447 520.9275 
L 564.20447 40.1275 
L 420.861291 40.1275 
z
" clip-path="url(#pe8ca96b994)" style="fill: #f44336; opacity: 0.12; stroke: #f44336; stroke-linejoin: miter"/>
   </g>
   <g id="patch_9">
    <path d="M 666.720641 520.9275 
L 830.477324 520.9275 
L 830.477324 40.1275 
L 666.720641 40.1275 
z
" clip-path="url(#pe8ca96b994)" style="fill: #f44336; opacity: 0.12; stroke: #f44336; stroke-linejoin: miter"/>
   </g>
   <g id="patch_10">
    <path d="M 994.458332 520.9275 
L 1103.70423 520.9275 
L 1103.70423 40.1275 
L 994.458332 40.1275 
z
" clip-path="url(#pe8ca96b994)" style="fill: #f44336; opacity: 0.12; stroke: #f44336; stroke-linejoin: miter"/>
   </g>
   <g id="patch_11">
    <path d="M 298.15594 520.9275 
L 338.982949 520.9275 
L 338.982949 40.1275 
L 298.15594 40.1275 
z
" clip-path="url(#pe8ca96b994)" style="fill: #2196f3; opacity: 0.12; stroke: #2196f3; stroke-linejoin: miter"/>
   </g>
   <g id="patch_12">
    <path d="M 564.20447 520.9275 
L 625.893632 520.9275 
L 625.893632 40.1275 
L 564.20447 40.1275 
z
" clip-path="url(#pe8ca96b994)" style="fill: #2196f3; opacity: 0.12; stroke: #2196f3; stroke-linejoin: miter"/>
   </g>
   <g id="patch_13">
    <path d="M 830.477324 520.9275 
L 912.57999 520.9275 
L 912.57999 40.1275 
L 830.477324 40.1275 
z
" clip-path="url(#pe8ca96b994)" style="fill: #2196f3; opacity: 0.12; stroke: #2196f3; stroke-linejoin: miter"/>
   </g>
   <g id="line2d_1">
    <path d="M 195.63977 520.9275 
L 195.63977 40.1275 
" clip-path="url(#pe8ca96b994)" style="fill: none; stroke: #4caf50; stroke-opacity: 0.7; stroke-width: 1.2; stroke-linecap: square"/>
   </g>
   <g id="line2d_2">
    <path d="M 298.15594 520.9275 
L 298.15594 40.1275 
" clip-path="url(#pe8ca96b994)" style="fill: none; stroke-dasharray: 4.44,1.92; stroke-dashoffset: 0; stroke: #ff9800; stroke-opacity: 0.7; stroke-width: 1.2"/>
   </g>
   <g id="line2d_3">
    <path d="M 318.34512 520.9275 
L 318.34512 40.1275 
" clip-path="url(#pe8ca96b994)" style="fill: none; stroke-dasharray: 1.2,1.98; stroke-dashoffset: 0; stroke: #9c27b0; stroke-opacity: 0.7; stroke-width: 1.2"/>
   </g>
   <g id="line2d_4">
    <path d="M 420.861291 520.9275 
L 420.861291 40.1275 
" clip-path="url(#pe8ca96b994)" style="fill: none; stroke: #4caf50; stroke-opacity: 0.7; stroke-width: 1.2; stroke-linecap: square"/>
   </g>
   <g id="line2d_5">
    <path d="M 564.20447 520.9275 
L 564.20447 40.1275 
" clip-path="url(#pe8ca96b994)" style="fill: none; stroke-dasharray: 4.44,1.92; stroke-dashoffset: 0; stroke: #ff9800; stroke-opacity: 0.7; stroke-width: 1.2"/>
   </g>
   <g id="line2d_6">
    <path d="M 605.480127 520.9275 
L 605.480127 40.1275 
" clip-path="url(#pe8ca96b994)" style="fill: none; stroke-dasharray: 1.2,1.98; stroke-dashoffset: 0; stroke: #9c27b0; stroke-opacity: 0.7; stroke-width: 1.2"/>
   </g>
   <g id="line2d_7">
    <path d="M 666.720641 520.9275 
L 666.720641 40.1275 
" clip-path="url(#pe8ca96b994)" style="fill: none; stroke: #4caf50; stroke-opacity: 0.7; stroke-width: 1.2; stroke-linecap: square"/>
   </g>
   <g id="line2d_8">
    <path d="M 809.839496 520.9275 
L 809.839496 40.1275 
" clip-path="url(#pe8ca96b994)" style="fill: none; stroke-dasharray: 4.44,1.92; stroke-dashoffset: 0; stroke: #ff9800; stroke-opacity: 0.7; stroke-width: 1.2"/>
   </g>
   <g id="line2d_9">
    <path d="M 851.115153 520.9275 
L 851.115153 40.1275 
" clip-path="url(#pe8ca96b994)" style="fill: none; stroke-dasharray: 1.2,1.98; stroke-dashoffset: 0; stroke: #9c27b0; stroke-opacity: 0.7; stroke-width: 1.2"/>
   </g>
   <g id="line2d_10">
    <path d="M 994.458332 520.9275 
L 994.458332 40.1275 
" clip-path="url(#pe8ca96b994)" style="fill: none; stroke: #4caf50; stroke-opacity: 0.7; stroke-width: 1.2; stroke-linecap: square"/>
   </g>
   <g id="line2d_11">
    <path d="M 1055.698846 520.9275 
L 1055.698846 40.1275 
" clip-path="url(#pe8ca96b994)" style="fill: none; stroke-dasharray: 4.44,1.92; stroke-dashoffset: 0; stroke: #ff9800; stroke-opacity: 0.7; stroke-width: 1.2"/>
   </g>
   <g id="line2d_12">
    <path d="M 38.612813 280.5275 
L 1137.577187 280.5275 
" clip-path="url(#pe8ca96b994)" style="fill: none; stroke-dasharray: 5.12,1.28,0.8,1.28; stroke-dashoffset: 0; stroke: #9e9e9e; stroke-opacity: 0.5; stroke-width: 0.8"/>
   </g>
   <g id="matplotlib.axis_1">
    <g id="xtick_1">
     <g id="line2d_13">
      <defs>
       <path id="m08843c7f05" d="M 0 0 
L 0 3.5 
" style="stroke: #000000; stroke-width: 0.8"/>
      </defs>
      <g>
       <use xlink:href="#m08843c7f05" x="59.250641" y="520.9275" style="stroke: #000000; stroke-width: 0.8"/>
      </g>
     </g>
     <g id="text_1">
      <text style="font-size: 9px; font-family: 'STHeiti', 'Arial', 'DejaVu Sans', sans-serif; text-anchor: middle" x="59.250641" y="535.090937" transform="rotate(-0 59.250641 535.090937)">2006</text>
     </g>
    </g>
    <g id="xtick_2">
     <g id="line2d_14">
      <g>
       <use xlink:href="#m08843c7f05" x="141.128983" y="520.9275" style="stroke: #000000; stroke-width: 0.8"/>
      </g>
     </g>
     <g id="text_2">
      <text style="font-size: 9px; font-family: 'STHeiti', 'Arial', 'DejaVu Sans', sans-serif; text-anchor: middle" x="141.128983" y="535.090937" transform="rotate(-0 141.128983 535.090937)">2007</text>
     </g>
    </g>
    <g id="xtick_3">
     <g id="line2d_15">
      <g>
       <use xlink:href="#m08843c7f05" x="223.007325" y="520.9275" style="stroke: #000000; stroke-width: 0.8"/>
      </g>
     </g>
     <g id="text_3">
      <text style="font-size: 9px; font-family: 'STHeiti', 'Arial', 'DejaVu Sans', sans-serif; text-anchor: middle" x="223.007325" y="535.090937" transform="rotate(-0 223.007325 535.090937)">2008</text>
     </g>
    </g>
    <g id="xtick_4">
     <g id="line2d_16">
      <g>
       <use xlink:href="#m08843c7f05" x="305.109991" y="520.9275" style="stroke: #000000; stroke-width: 0.8"/>
      </g>
     </g>
     <g id="text_4">
      <text style="font-size: 9px; font-family: 'STHeiti', 'Arial', 'DejaVu Sans', sans-serif; text-anchor: middle" x="305.109991" y="535.090937" transform="rotate(-0 305.109991 535.090937)">2009</text>
     </g>
    </g>
    <g id="xtick_5">
     <g id="line2d_17">
      <g>
       <use xlink:href="#m08843c7f05" x="386.988333" y="520.9275" style="stroke: #000000; stroke-width: 0.8"/>
      </g>
     </g>
     <g id="text_5">
      <text style="font-size: 9px; font-family: 'STHeiti', 'Arial', 'DejaVu Sans', sans-serif; text-anchor: middle" x="386.988333" y="535.090937" transform="rotate(-0 386.988333 535.090937)">2010</text>
     </g>
    </g>
    <g id="xtick_6">
     <g id="line2d_18">
      <g>
       <use xlink:href="#m08843c7f05" x="468.866675" y="520.9275" style="stroke: #000000; stroke-width: 0.8"/>
      </g>
     </g>
     <g id="text_6">
      <text style="font-size: 9px; font-family: 'STHeiti', 'Arial', 'DejaVu Sans', sans-serif; text-anchor: middle" x="468.866675" y="535.090937" transform="rotate(-0 468.866675 535.090937)">2011</text>
     </g>
    </g>
    <g id="xtick_7">
     <g id="line2d_19">
      <g>
       <use xlink:href="#m08843c7f05" x="550.745017" y="520.9275" style="stroke: #000000; stroke-width: 0.8"/>
      </g>
     </g>
     <g id="text_7">
      <text style="font-size: 9px; font-family: 'STHeiti', 'Arial', 'DejaVu Sans', sans-serif; text-anchor: middle" x="550.745017" y="535.090937" transform="rotate(-0 550.745017 535.090937)">2012</text>
     </g>
    </g>
    <g id="xtick_8">
     <g id="line2d_20">
      <g>
       <use xlink:href="#m08843c7f05" x="632.847683" y="520.9275" style="stroke: #000000; stroke-width: 0.8"/>
      </g>
     </g>
     <g id="text_8">
      <text style="font-size: 9px; font-family: 'STHeiti', 'Arial', 'DejaVu Sans', sans-serif; text-anchor: middle" x="632.847683" y="535.090937" transform="rotate(-0 632.847683 535.090937)">2013</text>
     </g>
    </g>
    <g id="xtick_9">
     <g id="line2d_21">
      <g>
       <use xlink:href="#m08843c7f05" x="714.726025" y="520.9275" style="stroke: #000000; stroke-width: 0.8"/>
      </g>
     </g>
     <g id="text_9">
      <text style="font-size: 9px; font-family: 'STHeiti', 'Arial', 'DejaVu Sans', sans-serif; text-anchor: middle" x="714.726025" y="535.090937" transform="rotate(-0 714.726025 535.090937)">2014</text>
     </g>
    </g>
    <g id="xtick_10">
     <g id="line2d_22">
      <g>
       <use xlink:href="#m08843c7f05" x="796.604367" y="520.9275" style="stroke: #000000; stroke-width: 0.8"/>
      </g>
     </g>
     <g id="text_10">
      <text style="font-size: 9px; font-family: 'STHeiti', 'Arial', 'DejaVu Sans', sans-serif; text-anchor: middle" x="796.604367" y="535.090937" transform="rotate(-0 796.604367 535.090937)">2015</text>
     </g>
    </g>
    <g id="xtick_11">
     <g id="line2d_23">
      <g>
       <use xlink:href="#m08843c7f05" x="878.482708" y="520.9275" style="stroke: #000000; stroke-width: 0.8"/>
      </g>
     </g>
     <g id="text_11">
      <text style="font-size: 9px; font-family: 'STHeiti', 'Arial', 'DejaVu Sans', sans-serif; text-anchor: middle" x="878.482708" y="535.090937" transform="rotate(-0 878.482708 535.090937)">2016</text>
     </g>
    </g>
    <g id="xtick_12">
     <g id="line2d_24">
      <g>
       <use xlink:href="#m08843c7f05" x="960.585375" y="520.9275" style="stroke: #000000; stroke-width: 0.8"/>
      </g>
     </g>
     <g id="text_12">
      <text style="font-size: 9px; font-family: 'STHeiti', 'Arial', 'DejaVu Sans', sans-serif; text-anchor: middle" x="960.585375" y="535.090937" transform="rotate(-0 960.585375 535.090937)">2017</text>
     </g>
    </g>
    <g id="xtick_13">
     <g id="line2d_25">
      <g>
       <use xlink:href="#m08843c7f05" x="1042.463716" y="520.9275" style="stroke: #000000; stroke-width: 0.8"/>
      </g>
     </g>
     <g id="text_13">
      <text style="font-size: 9px; font-family: 'STHeiti', 'Arial', 'DejaVu Sans', sans-serif; text-anchor: middle" x="1042.463716" y="535.090937" transform="rotate(-0 1042.463716 535.090937)">2018</text>
     </g>
    </g>
    <g id="xtick_14">
     <g id="line2d_26">
      <g>
       <use xlink:href="#m08843c7f05" x="1124.342058" y="520.9275" style="stroke: #000000; stroke-width: 0.8"/>
      </g>
     </g>
     <g id="text_14">
      <text style="font-size: 9px; font-family: 'STHeiti', 'Arial', 'DejaVu Sans', sans-serif; text-anchor: middle" x="1124.342058" y="535.090937" transform="rotate(-0 1124.342058 535.090937)">2019</text>
     </g>
    </g>
   </g>
   <g id="matplotlib.axis_2">
    <g id="ytick_1">
     <g id="line2d_27">
      <defs>
       <path id="mf87796f7dd" d="M 0 0 
L -3.5 0 
" style="stroke: #000000; stroke-width: 0.8"/>
      </defs>
      <g>
       <use xlink:href="#mf87796f7dd" x="38.612813" y="520.9275" style="stroke: #000000; stroke-width: 0.8"/>
      </g>
     </g>
     <g id="text_15">
      <text style="font-size: 9px; font-family: 'STHeiti', 'Arial', 'DejaVu Sans', sans-serif; text-anchor: end" x="31.612813" y="524.509219" transform="rotate(-0 31.612813 524.509219)">35</text>
     </g>
    </g>
    <g id="ytick_2">
     <g id="line2d_28">
      <g>
       <use xlink:href="#mf87796f7dd" x="38.612813" y="440.794167" style="stroke: #000000; stroke-width: 0.8"/>
      </g>
     </g>
     <g id="text_16">
      <text style="font-size: 9px; font-family: 'STHeiti', 'Arial', 'DejaVu Sans', sans-serif; text-anchor: end" x="31.612813" y="444.375885" transform="rotate(-0 31.612813 444.375885)">40</text>
     </g>
    </g>
    <g id="ytick_3">
     <g id="line2d_29">
      <g>
       <use xlink:href="#mf87796f7dd" x="38.612813" y="360.660833" style="stroke: #000000; stroke-width: 0.8"/>
      </g>
     </g>
     <g id="text_17">
      <text style="font-size: 9px; font-family: 'STHeiti', 'Arial', 'DejaVu Sans', sans-serif; text-anchor: end" x="31.612813" y="364.242552" transform="rotate(-0 31.612813 364.242552)">45</text>
     </g>
    </g>
    <g id="ytick_4">
     <g id="line2d_30">
      <g>
       <use xlink:href="#mf87796f7dd" x="38.612813" y="280.5275" style="stroke: #000000; stroke-width: 0.8"/>
      </g>
     </g>
     <g id="text_18">
      <text style="font-size: 9px; font-family: 'STHeiti', 'Arial', 'DejaVu Sans', sans-serif; text-anchor: end" x="31.612813" y="284.109219" transform="rotate(-0 31.612813 284.109219)">50</text>
     </g>
    </g>
    <g id="ytick_5">
     <g id="line2d_31">
      <g>
       <use xlink:href="#mf87796f7dd" x="38.612813" y="200.394167" style="stroke: #000000; stroke-width: 0.8"/>
      </g>
     </g>
     <g id="text_19">
      <text style="font-size: 9px; font-family: 'STHeiti', 'Arial', 'DejaVu Sans', sans-serif; text-anchor: end" x="31.612813" y="203.975885" transform="rotate(-0 31.612813 203.975885)">55</text>
     </g>
    </g>
    <g id="ytick_6">
     <g id="line2d_32">
      <g>
       <use xlink:href="#mf87796f7dd" x="38.612813" y="120.260833" style="stroke: #000000; stroke-width: 0.8"/>
      </g>
     </g>
     <g id="text_20">
      <text style="font-size: 9px; font-family: 'STHeiti', 'Arial', 'DejaVu Sans', sans-serif; text-anchor: end" x="31.612813" y="123.842552" transform="rotate(-0 31.612813 123.842552)">60</text>
     </g>
    </g>
    <g id="ytick_7">
     <g id="line2d_33">
      <g>
       <use xlink:href="#mf87796f7dd" x="38.612813" y="40.1275" style="stroke: #000000; stroke-width: 0.8"/>
      </g>
     </g>
     <g id="text_21">
      <text style="font-size: 9px; font-family: 'STHeiti', 'Arial', 'DejaVu Sans', sans-serif; text-anchor: end" x="31.612813" y="43.709219" transform="rotate(-0 31.612813 43.709219)">65</text>
     </g>
    </g>
    <g id="text_22">
     <text style="font-size: 11px; font-family: 'STHeiti', 'Arial', 'DejaVu Sans', sans-serif; text-anchor: middle" x="16.165" y="280.5275" transform="rotate(-90 16.165 280.5275)">增速（%）</text>
    </g>
   </g>
   <g id="patch_14">
    <path d="M 38.612813 520.9275 
L 38.612813 40.1275 
" style="fill: none; stroke: #000000; stroke-width: 0.8; stroke-linejoin: miter; stroke-linecap: square"/>
   </g>
   <g id="patch_15">
    <path d="M 38.612812 520.9275 
L 1137.577187 520.9275 
" style="fill: none; stroke: #000000; stroke-width: 0.8; stroke-linejoin: miter; stroke-linecap: square"/>
   </g>
   <g id="line2d_34">
    <path clip-path="url(#pe8ca96b994)" style="fill: none; stroke: #1a237e; stroke-width: 2; stroke-linecap: square"/>
   </g>
   <g id="line2d_35">
    <path clip-path="url(#pe8ca96b994)" style="fill: none; stroke: #42a5f5; stroke-opacity: 0.8; stroke-width: 1.5; stroke-linecap: square"/>
   </g>
   <g id="line2d_36">
    <path d="M 59.250641 248.474167 
L 79.439821 224.434167 
L 99.853326 208.4075 
L 120.491154 232.4475 
L 141.128983 216.420833 
L 161.318163 200.394167 
L 181.731668 192.380833 
L 202.369496 248.474167 
L 223.007325 264.500833 
L 243.420829 280.5275 
L 263.834334 360.660833 
L 284.472162 424.7675 
L 305.109991 408.740833 
L 325.299171 312.580833 
L 345.712676 240.460833 
L 366.350504 200.394167 
L 386.988333 192.380833 
L 407.177513 216.420833 
L 427.591017 248.474167 
L 448.228846 232.4475 
L 468.866675 224.434167 
L 489.055855 232.4475 
L 509.469359 256.4875 
L 530.107188 272.514167 
L 550.745017 280.5275 
L 571.158521 296.554167 
L 591.572025 288.540833 
L 612.209854 272.514167 
L 632.847683 264.500833 
L 653.036863 272.514167 
L 673.450367 264.500833 
L 694.088196 256.4875 
L 714.726025 272.514167 
L 734.915205 267.706167 
L 755.328709 264.500833 
L 775.966538 280.5275 
L 796.604367 288.540833 
L 816.793547 296.554167 
L 837.207051 304.5675 
L 857.84488 312.580833 
L 878.482708 296.554167 
L 898.896213 280.5275 
L 919.309717 272.514167 
L 939.947546 264.500833 
L 960.585375 256.4875 
L 980.774555 251.6795 
L 1001.188059 256.4875 
L 1021.825888 264.500833 
L 1042.463716 264.500833 
L 1062.652897 272.514167 
L 1083.066401 280.5275 
L 1103.70423 288.540833 
" clip-path="url(#pe8ca96b994)" style="fill: none; stroke: #e53935; stroke-opacity: 0.8; stroke-width: 1.5; stroke-linecap: square"/>
   </g>
   <g id="text_23">
    <text style="font-size: 8px; font-family: 'STHeiti', 'Arial', 'DejaVu Sans', sans-serif; text-anchor: start; fill: #757575" x="62.39118" y="267.706167" transform="rotate(-0 62.39118 267.706167)">荣枯线</text>
   </g>
   <g id="text_24">
    <text style="font-weight: 700; font-size: 16px; font-family: 'STHeiti', 'Arial', 'DejaVu Sans', sans-serif; text-anchor: middle" x="588.095" y="20.1275" transform="rotate(-0 588.095 20.1275)">中国经济周期（2006-2018）</text>
   </g>
   <g id="patch_16">
    <path d="M 257.104607 92.954582 
Q 257.104607 305.940265 257.104607 518.925948 
" style="fill: none; stroke: #bdbdbd; stroke-width: 0.8; stroke-linecap: round"/>
   </g>
   <g id="text_25">
    <g id="patch_17">
     <path d="M 234.604607 90.4575 
L 279.604607 90.4575 
Q 281.854607 90.4575 281.854607 88.2075 
L 281.854607 73.033125 
Q 281.854607 70.783125 279.604607 70.783125 
L 234.604607 70.783125 
Q 232.354607 70.783125 232.354607 73.033125 
L 232.354607 88.2075 
Q 232.354607 90.4575 234.604607 90.4575 
z
" style="fill: #ffffff; opacity: 0.9; stroke: #e0e0e0; stroke-linejoin: miter"/>
    </g>
    <text style="font-size: 7.5px; font-family: 'STHeiti', 'Arial', 'DejaVu Sans', sans-serif; fill: #333333" transform="translate(234.604607 79.033125)">美国次贷危机</text>
    <text style="font-size: 7.5px; font-family: 'STHeiti', 'Arial', 'DejaVu Sans', sans-serif; fill: #333333" transform="translate(249.604607 87.202031)">深化</text>
   </g>
   <g id="patch_18">
    <path d="M 298.15594 157.067205 
Q 298.15594 337.996592 298.15594 518.92598 
" style="fill: none; stroke: #bdbdbd; stroke-width: 0.8; stroke-linecap: round"/>
   </g>
   <g id="text_26">
    <g id="patch_19">
     <path d="M 279.40594 154.564167 
L 316.90594 154.564167 
Q 319.15594 154.564167 319.15594 152.314167 
L 319.15594 137.17026 
Q 319.15594 134.92026 316.90594 134.92026 
L 279.40594 134.92026 
Q 277.15594 134.92026 277.15594 137.17026 
L 277.15594 152.314167 
Q 277.15594 154.564167 279.40594 154.564167 
z
" style="fill: #ffffff; opacity: 0.9; stroke: #e0e0e0; stroke-linejoin: miter"/>
    </g>
    <text style="font-size: 7.5px; font-family: 'STHeiti', 'Arial', 'DejaVu Sans', sans-serif; fill: #333333" transform="translate(279.40594 143.139792)">中国四万亿</text>
    <text style="font-size: 7.5px; font-family: 'STHeiti', 'Arial', 'DejaVu Sans', sans-serif; fill: #333333" transform="translate(283.15594 151.308698)">刺激计划</text>
   </g>
   <g id="patch_20">
    <path d="M 420.861291 92.95201 
Q 420.861291 305.938973 420.861291 518.925936 
" style="fill: none; stroke: #bdbdbd; stroke-width: 0.8; stroke-linecap: round"/>
   </g>
   <g id="text_27">
    <g id="patch_21">
     <path d="M 405.861291 90.4575 
L 435.861291 90.4575 
Q 438.111291 90.4575 438.111291 88.2075 
L 438.111291 73.000312 
Q 438.111291 70.750312 435.861291 70.750312 
L 405.861291 70.750312 
Q 403.611291 70.750312 403.611291 73.000312 
L 403.611291 88.2075 
Q 403.611291 90.4575 405.861291 90.4575 
z
" style="fill: #ffffff; opacity: 0.9; stroke: #e0e0e0; stroke-linejoin: miter"/>
    </g>
    <text style="font-size: 7.5px; font-family: 'STHeiti', 'Arial', 'DejaVu Sans', sans-serif; fill: #333333" transform="translate(405.861291 78.969844)">产能过剩</text>
    <text style="font-size: 7.5px; font-family: 'STHeiti', 'Arial', 'DejaVu Sans', sans-serif; fill: #333333" transform="translate(413.361291 87.202031)">加剧</text>
   </g>
   <g id="patch_22">
    <path d="M 564.20447 157.063888 
Q 564.20447 337.994925 564.20447 518.925961 
" style="fill: none; stroke: #bdbdbd; stroke-width: 0.8; stroke-linecap: round"/>
   </g>
   <g id="text_28">
    <g id="patch_23">
     <path d="M 552.95447 154.564167 
L 575.45447 154.564167 
Q 577.70447 154.564167 577.70447 152.314167 
L 577.70447 137.139792 
Q 577.70447 134.889792 575.45447 134.889792 
L 552.95447 134.889792 
Q 550.70447 134.889792 550.70447 137.139792 
L 550.70447 152.314167 
Q 550.70447 154.564167 552.95447 154.564167 
z
" style="fill: #ffffff; opacity: 0.9; stroke: #e0e0e0; stroke-linejoin: miter"/>
    </g>
    <text style="font-size: 7.5px; font-family: 'STHeiti', 'Arial', 'DejaVu Sans', sans-serif; fill: #333333" transform="translate(552.95447 143.139792)">稳增长</text>
    <text style="font-size: 7.5px; font-family: 'STHeiti', 'Arial', 'DejaVu Sans', sans-serif; fill: #333333" transform="translate(556.70447 151.308698)">发力</text>
   </g>
   <g id="patch_24">
    <path d="M 666.720641 92.957757 
Q 666.720641 305.94186 666.720641 518.925963 
" style="fill: none; stroke: #bdbdbd; stroke-width: 0.8; stroke-linecap: round"/>
   </g>
   <g id="text_29">
    <g id="patch_25">
     <path d="M 659.220641 90.4575 
L 674.220641 90.4575 
Q 676.470641 90.4575 676.470641 88.2075 
L 676.470641 81.2325 
Q 676.470641 78.9825 674.220641 78.9825 
L 659.220641 78.9825 
Q 656.970641 78.9825 656.970641 81.2325 
L 656.970641 88.2075 
Q 656.970641 90.4575 659.220641 90.4575 
z
" style="fill: #ffffff; opacity: 0.9; stroke: #e0e0e0; stroke-linejoin: miter"/>
    </g>
    <text style="font-size: 7.5px; font-family: 'STHeiti', 'Arial', 'DejaVu Sans', sans-serif; text-anchor: middle; fill: #333333" x="666.720641" y="87.202031" transform="rotate(-0 666.720641 87.202031)">钱荒</text>
   </g>
   <g id="patch_26">
    <path d="M 809.839496 157.067205 
Q 809.839496 337.996592 809.839496 518.92598 
" style="fill: none; stroke: #bdbdbd; stroke-width: 0.8; stroke-linecap: round"/>
   </g>
   <g id="text_30">
    <g id="patch_27">
     <path d="M 794.839496 154.564167 
L 824.839496 154.564167 
Q 827.089496 154.564167 827.089496 152.314167 
L 827.089496 137.17026 
Q 827.089496 134.92026 824.839496 134.92026 
L 794.839496 134.92026 
Q 792.589496 134.92026 792.589496 137.17026 
L 792.589496 152.314167 
Q 792.589496 154.564167 794.839496 154.564167 
z
" style="fill: #ffffff; opacity: 0.9; stroke: #e0e0e0; stroke-linejoin: miter"/>
    </g>
    <text style="font-size: 7.5px; font-family: 'STHeiti', 'Arial', 'DejaVu Sans', sans-serif; fill: #333333" transform="translate(794.839496 143.139792)">中美贸易</text>
    <text style="font-size: 7.5px; font-family: 'STHeiti', 'Arial', 'DejaVu Sans', sans-serif; fill: #333333" transform="translate(798.589496 151.308698)">战升级</text>
   </g>
   <g id="patch_28">
    <path d="M 851.115153 92.956015 
Q 851.115153 305.940985 851.115153 518.925955 
" style="fill: none; stroke: #bdbdbd; stroke-width: 0.8; stroke-linecap: round"/>
   </g>
   <g id="text_31">
    <g id="patch_29">
     <path d="M 836.115153 90.4575 
L 866.115153 90.4575 
Q 868.365153 90.4575 868.365153 88.2075 
L 868.365153 73.063594 
Q 868.365153 70.813594 866.115153 70.813594 
L 836.115153 70.813594 
Q 833.865153 70.813594 833.865153 73.063594 
L 833.865153 88.2075 
Q 833.865153 90.4575 836.115153 90.4575 
z
" style="fill: #ffffff; opacity: 0.9; stroke: #e0e0e0; stroke-linejoin: miter"/>
    </g>
    <text style="font-size: 7.5px; font-family: 'STHeiti', 'Arial', 'DejaVu Sans', sans-serif; fill: #333333" transform="translate(836.115153 79.033125)">汇率改革</text>
    <text style="font-size: 7.5px; font-family: 'STHeiti', 'Arial', 'DejaVu Sans', sans-serif; fill: #333333" transform="translate(837.38195 87.202031)">811汇改</text>
   </g>
   <g id="patch_30">
    <path d="M 912.57999 157.067205 
Q 912.57999 337.996592 912.57999 518.92598 
" style="fill: none; stroke: #bdbdbd; stroke-width: 0.8; stroke-linecap: round"/>
   </g>
   <g id="text_32">
    <g id="patch_31">
     <path d="M 882.57999 154.564167 
L 942.57999 154.564167 
Q 944.82999 154.564167 944.82999 152.314167 
L 944.82999 137.17026 
Q 944.82999 134.92026 942.57999 134.92026 
L 882.57999 134.92026 
Q 880.32999 134.92026 880.32999 137.17026 
L 880.32999 152.314167 
Q 880.32999 154.564167 882.57999 154.564167 
z
" style="fill: #ffffff; opacity: 0.9; stroke: #e0e0e0; stroke-linejoin: miter"/>
    </g>
    <text style="font-size: 7.5px; font-family: 'STHeiti', 'Arial', 'DejaVu Sans', sans-serif; fill: #333333" transform="translate(882.57999 143.139792)">供给侧结构性改革</text>
    <text style="font-size: 7.5px; font-family: 'STHeiti', 'Arial', 'DejaVu Sans', sans-serif; fill: #333333" transform="translate(890.07999 151.308698)">三去一降一补</text>
   </g>
   <g id="patch_32">
    <path d="M 994.458332 92.957757 
Q 994.458332 305.94186 994.458332 518.925963 
" style="fill: none; stroke: #bdbdbd; stroke-width: 0.8; stroke-linecap: round"/>
   </g>
   <g id="text_33">
    <g id="patch_33">
     <path d="M 975.708332 90.4575 
L 1013.208332 90.4575 
Q 1015.458332 90.4575 1015.458332 88.2075 
L 1015.458332 81.2325 
Q 1015.458332 78.9825 1013.208332 78.9825 
L 975.708332 78.9825 
Q 973.458332 78.9825 973.458332 81.2325 
L 973.458332 88.2075 
Q 973.458332 90.4575 975.708332 90.4575 
z
" style="fill: #ffffff; opacity: 0.9; stroke: #e0e0e0; stroke-linejoin: miter"/>
    </g>
    <text style="font-size: 7.5px; font-family: 'STHeiti', 'Arial', 'DejaVu Sans', sans-serif; text-anchor: middle; fill: #333333" x="994.458332" y="87.202031" transform="rotate(-0 994.458332 87.202031)">棚改货币化</text>
   </g>
   <g id="patch_34">
    <path d="M 1076.336674 157.067205 
Q 1076.336674 337.996592 1076.336674 518.92598 
" style="fill: none; stroke: #bdbdbd; stroke-width: 0.8; stroke-linecap: round"/>
   </g>
   <g id="text_34">
    <g id="patch_35">
     <path d="M 1057.586674 154.564167 
L 1095.086674 154.564167 
Q 1097.336674 154.564167 1097.336674 152.314167 
L 1097.336674 137.17026 
Q 1097.336674 134.92026 1095.086674 134.92026 
L 1057.586674 134.92026 
Q 1055.336674 134.92026 1055.336674 137.17026 
L 1055.336674 152.314167 
Q 1055.336674 154.564167 1057.586674 154.564167 
z
" style="fill: #ffffff; opacity: 0.9; stroke: #e0e0e0; stroke-linejoin: miter"/>
    </g>
    <text style="font-size: 7.5px; font-family: 'STHeiti', 'Arial', 'DejaVu Sans', sans-serif; fill: #333333" transform="translate(1057.586674 143.139792)">中美贸易战</text>
    <text style="font-size: 7.5px; font-family: 'STHeiti', 'Arial', 'DejaVu Sans', sans-serif; fill: #333333" transform="translate(1068.836674 151.308698)">升级</text>
   </g>
   <g id="patch_36">
    <path d="M 1096.974503 92.956061 
Q 1096.974503 305.941008 1096.974503 518.925955 
" style="fill: none; stroke: #bdbdbd; stroke-width: 0.8; stroke-linecap: round"/>
   </g>
   <g id="text_35">
    <g id="patch_37">
     <path d="M 1085.724503 90.4575 
L 1108.224503 90.4575 
Q 1110.474503 90.4575 1110.474503 88.2075 
L 1110.474503 81.202031 
Q 1110.474503 78.952031 1108.224503 78.952031 
L 1085.724503 78.952031 
Q 1083.474503 78.952031 1083.474503 81.202031 
L 1083.474503 88.2075 
Q 1083.474503 90.4575 1085.724503 90.4575 
z
" style="fill: #ffffff; opacity: 0.9; stroke: #e0e0e0; stroke-linejoin: miter"/>
    </g>
    <text style="font-size: 7.5px; font-family: 'STHeiti', 'Arial', 'DejaVu Sans', sans-serif; text-anchor: middle; fill: #333333" x="1096.974503" y="87.202031" transform="rotate(-0 1096.974503 87.202031)">稳增长</text>
   </g>
   <g id="legend_1">
    <g id="patch_38">
     <path d="M 1032.502187 124.809062 
L 1131.277187 124.809062 
Q 1133.077187 124.809062 1133.077187 123.009062 
L 1133.077187 46.4275 
Q 1133.077187 44.6275 1131.277187 44.6275 
L 1032.502187 44.6275 
Q 1030.702187 44.6275 1030.702187 46.4275 
L 1030.702187 123.009062 
Q 1030.702187 124.809062 1032.502187 124.809062 
z
" style="fill: #ffffff; opacity: 0.9; stroke: #e0e0e0; stroke-linejoin: miter"/>
    </g>
    <g id="line2d_37">
     <path d="M 1034.302187 52.240937 
L 1043.302187 52.240937 
L 1052.302187 52.240937 
" style="fill: none; stroke: #4caf50; stroke-opacity: 0.7; stroke-width: 1.2; stroke-linecap: square"/>
    </g>
    <g id="text_36">
     <text style="font-size: 9px; font-family: 'STHeiti', 'Arial', 'DejaVu Sans', sans-serif; text-anchor: start" x="1059.502187" y="55.390937" transform="rotate(-0 1059.502187 55.390937)">周期顶点</text>
    </g>
    <g id="line2d_38">
     <path d="M 1034.302187 65.110937 
L 1043.302187 65.110937 
L 1052.302187 65.110937 
" style="fill: none; stroke-dasharray: 4.44,1.92; stroke-dashoffset: 0; stroke: #ff9800; stroke-opacity: 0.7; stroke-width: 1.2"/>
    </g>
    <g id="text_37">
     <text style="font-size: 9px; font-family: 'STHeiti', 'Arial', 'DejaVu Sans', sans-serif; text-anchor: start" x="1059.502187" y="68.260937" transform="rotate(-0 1059.502187 68.260937)">政策底</text>
    </g>
    <g id="line2d_39">
     <path d="M 1034.302187 77.980937 
L 1043.302187 77.980937 
L 1052.302187 77.980937 
" style="fill: none; stroke-dasharray: 1.2,1.98; stroke-dashoffset: 0; stroke: #9c27b0; stroke-opacity: 0.7; stroke-width: 1.2"/>
    </g>
    <g id="text_38">
     <text style="font-size: 9px; font-family: 'STHeiti', 'Arial', 'DejaVu Sans', sans-serif; text-anchor: start" x="1059.502187" y="81.130937" transform="rotate(-0 1059.502187 81.130937)">周期底部</text>
    </g>
    <g id="line2d_40">
     <path d="M 1034.302187 90.940937 
L 1043.302187 90.940937 
L 1052.302187 90.940937 
" style="fill: none; stroke: #1a237e; stroke-width: 2; stroke-linecap: square"/>
    </g>
    <g id="text_39">
     <text style="font-size: 9px; font-family: 'STHeiti', 'Arial', 'DejaVu Sans', sans-serif; text-anchor: start" x="1059.502187" y="94.090937" transform="rotate(-0 1059.502187 94.090937)">GDP 同比（%）</text>
    </g>
    <g id="line2d_41">
     <path d="M 1034.302187 103.9825 
L 1043.302187 103.9825 
L 1052.302187 103.9825 
" style="fill: none; stroke: #42a5f5; stroke-opacity: 0.8; stroke-width: 1.5; stroke-linecap: square"/>
    </g>
    <g id="text_40">
     <text style="font-size: 9px; font-family: 'STHeiti', 'Arial', 'DejaVu Sans', sans-serif; text-anchor: start" x="1059.502187" y="107.1325" transform="rotate(-0 1059.502187 107.1325)">工业增加值（%）</text>
    </g>
    <g id="line2d_42">
     <path d="M 1034.302187 116.8525 
L 1043.302187 116.8525 
L 1052.302187 116.8525 
" style="fill: none; stroke: #e53935; stroke-opacity: 0.8; stroke-width: 1.5; stroke-linecap: square"/>
    </g>
    <g id="text_41">
     <text style="font-size: 9px; font-family: 'STHeiti', 'Arial', 'DejaVu Sans', sans-serif; text-anchor: start" x="1059.502187" y="120.0025" transform="rotate(-0 1059.502187 120.0025)">PMI</text>
    </g>
   </g>
  </g>
  <g id="text_42">
   <text style="font-size: 10px; font-family: 'STHeiti', 'Arial', 'DejaVu Sans', sans-serif; text-anchor: middle; fill: #666666" x="572.377187" y="17.0875" transform="rotate(-0 572.377187 17.0875)">注：周期复苏从政策底开始，经历上行、顶点、衰退，到底部再进入下一个周期</text>
  </g>
 </g>
 <defs>
  <clipPath id="pe8ca96b994">
   <rect x="38.612813" y="40.1275" width="1098.964375" height="480.8"/>
  </clipPath>
 </defs>
</svg>
