<svg xmlns="http://www.w3.org/2000/svg" width="100%" viewBox="0 0 680 400">
<defs>
<marker id="a" viewBox="0 0 10 10" refX="8" refY="5" markerWidth="6" markerHeight="6" orient="auto-start-reverse">
<path d="M2 1L8 5L2 9" fill="none" stroke="#857d74" stroke-width="1.5" stroke-linecap="round" stroke-linejoin="round"/>
</marker>
</defs>
<style>
.f{font-family:system-ui,-apple-system,'PingFang SC','Microsoft YaHei',sans-serif}
.t{font-size:15px;font-weight:600}
.b{font-size:12px;font-weight:600}
.n{font-size:11px}
.s{font-size:10px}
</style>

<!-- Background -->
<rect width="680" height="400" fill="#faf8f5"/>

<!-- Title -->
<text x="20" y="36" class="f t" fill="#454240">L4-13 问题 → 后果 → 应对闭环</text>
<text x="20" y="56" class="f s" fill="#857d74">18个核心信号的闭环处理：问题发现 → 后果评估 → 答案准备 → 辅导动作</text>

<!-- Headers -->
<g transform="translate(16,76)">
<rect width="150" height="28" rx="6" fill="#faeae5" stroke="#c25030" stroke-width="1"/>
<text x="75" y="18" class="f b" fill="#6b2010" text-anchor="middle">问题</text>

<rect x="158" width="160" height="28" rx="6" fill="#faf0dc" stroke="#b88018" stroke-width="1"/>
<text x="238" y="18" class="f b" fill="#6a4005" text-anchor="middle">后果</text>

<rect x="326" width="170" height="28" rx="6" fill="#e8f1fa" stroke="#3a7ab8" stroke-width="1"/>
<text x="411" y="18" class="f b" fill="#0e4070" text-anchor="middle">答案准备</text>

<rect x="504" width="160" height="28" rx="6" fill="#e6f5f0" stroke="#2e8b6e" stroke-width="1"/>
<text x="584" y="18" class="f b" fill="#0f5040" text-anchor="middle">辅导动作</text>
</g>

<!-- Row 1: 流失率超标 -->
<g transform="translate(16,112)">
<rect width="150" height="40" rx="6" fill="#faf8f5" stroke="#857d74" stroke-width="1"/>
<text x="8" y="16" class="f s" fill="#454240">月度流失率&gt;8%</text>

<rect x="158" width="160" height="40" rx="6" fill="#faeae5" stroke="#c25030" stroke-width="1"/>
<text x="166" y="16" class="f s" fill="#454240">人力持续流失</text>
<text x="166" y="30" class="f s" fill="#c25030">产能跟不上</text>

<rect x="326" width="170" height="40" rx="6" fill="#faf8f5" stroke="#857d74" stroke-width="1"/>
<text x="334" y="16" class="f s" fill="#454240">离职原因是什么？</text>
<text x="334" y="30" class="f s" fill="#454240">主管留人动作有哪些？</text>

<rect x="504" width="160" height="40" rx="6" fill="#e6f5f0" stroke="#2e8b6e" stroke-width="1"/>
<text x="512" y="16" class="f s" fill="#454240">约谈主管</text>
<text x="512" y="30" class="f s" fill="#2e8b6e">要求提交留人方案</text>
</g>

<!-- Row 2: 出勤率下降 -->
<g transform="translate(16,158)">
<rect width="150" height="40" rx="6" fill="#faf8f5" stroke="#857d74" stroke-width="1"/>
<text x="8" y="16" class="f s" fill="#454240">出勤率&lt;85%</text>

<rect x="158" width="160" height="40" rx="6" fill="#faeae5" stroke="#c25030" stroke-width="1"/>
<text x="166" y="16" class="f s" fill="#454240">实际人力不足</text>
<text x="166" y="30" class="f s" fill="#c25030">总产能被动下降</text>

<rect x="326" width="170" height="40" rx="6" fill="#faf8f5" stroke="#857d74" stroke-width="1"/>
<text x="334" y="16" class="f s" fill="#454240">缺勤集中在哪些组？</text>
<text x="334" y="30" class="f s" fill="#454240">是否有请假审批记录？</text>

<rect x="504" width="160" height="40" rx="6" fill="#e6f5f0" stroke="#2e8b6e" stroke-width="1"/>
<text x="512" y="16" class="f s" fill="#454240">核实出勤真实性</text>
<text x="512" y="30" class="f s" fill="#2e8b6e">要求补人+加强考勤</text>
</g>

<!-- Row 3: 人均拨打量下降 -->
<g transform="translate(16,204)">
<rect width="150" height="40" rx="6" fill="#faf8f5" stroke="#857d74" stroke-width="1"/>
<text x="8" y="16" class="f s" fill="#454240">人均拨打量降15%</text>

<rect x="158" width="160" height="40" rx="6" fill="#faeae5" stroke="#c25030" stroke-width="1"/>
<text x="166" y="16" class="f s" fill="#454240">管理松弛信号</text>
<text x="166" y="30" class="f s" fill="#c25030">在的人不努力</text>

<rect x="326" width="170" height="40" rx="6" fill="#faf8f5" stroke="#857d74" stroke-width="1"/>
<text x="334" y="16" class="f s" fill="#454240">管理节奏有没有变？</text>
<text x="334" y="30" class="f s" fill="#454240">晨会/目标拆解还在做吗？</text>

<rect x="504" width="160" height="40" rx="6" fill="#e6f5f0" stroke="#2e8b6e" stroke-width="1"/>
<text x="512" y="16" class="f s" fill="#454240">约谈管理节奏</text>
<text x="512" y="30" class="f s" fill="#2e8b6e">要求恢复日常管理动作</text>
</g>

<!-- Row 4: 转化率下降 -->
<g transform="translate(16,250)">
<rect width="150" height="40" rx="6" fill="#faf8f5" stroke="#857d74" stroke-width="1"/>
<text x="8" y="16" class="f s" fill="#454240">转化率降5pp</text>

<rect x="158" width="160" height="40" rx="6" fill="#faeae5" stroke="#c25030" stroke-width="1"/>
<text x="166" y="16" class="f s" fill="#454240">接通了没成单</text>
<text x="166" y="30" class="f s" fill="#c25030">浪费名单资源</text>

<rect x="326" width="170" height="40" rx="6" fill="#faf8f5" stroke="#857d74" stroke-width="1"/>
<text x="334" y="16" class="f s" fill="#454240">话术有没有调整？</text>
<text x="334" y="30" class="f s" fill="#454240">是共性问题还是单家？</text>

<rect x="504" width="160" height="40" rx="6" fill="#e6f5f0" stroke="#2e8b6e" stroke-width="1"/>
<text x="512" y="16" class="f s" fill="#454240">共性问题→反馈策略组</text>
<text x="512" y="30" class="f s" fill="#2e8b6e">个性问题→培训+对标</text>
</g>

<!-- Row 5: 件均下降 -->
<g transform="translate(16,296)">
<rect width="150" height="40" rx="6" fill="#faf8f5" stroke="#857d74" stroke-width="1"/>
<text x="8" y="16" class="f s" fill="#454240">件均降幅&gt;10%</text>

<rect x="158" width="160" height="40" rx="6" fill="#faeae5" stroke="#c25030" stroke-width="1"/>
<text x="166" y="16" class="f s" fill="#454240">转化了但金额小</text>
<text x="166" y="30" class="f s" fill="#c25030">客户结构变差</text>

<rect x="326" width="170" height="40" rx="6" fill="#faf8f5" stroke="#857d74" stroke-width="1"/>
<text x="334" y="16" class="f s" fill="#454240">大额客户流失到哪了？</text>
<text x="334" y="30" class="f s" fill="#454240">坐席大额能力有没有降？</text>

<rect x="504" width="160" height="40" rx="6" fill="#e6f5f0" stroke="#2e8b6e" stroke-width="1"/>
<text x="512" y="16" class="f s" fill="#454240">推荐大额案例学习</text>
<text x="512" y="30" class="f s" fill="#2e8b6e">配对大额能力强的供应商</text>
</g>

<!-- Row 6: GMV骤降 -->
<g transform="translate(16,342)">
<rect width="150" height="40" rx="6" fill="#faf8f5" stroke="#857d74" stroke-width="1"/>
<text x="8" y="16" class="f s" fill="#454240">GMV降幅&gt;20%</text>

<rect x="158" width="160" height="40" rx="6" fill="#faeae5" stroke="#c25030" stroke-width="1"/>
<text x="166" y="16" class="f s" fill="#454240">月度目标无法完成</text>
<text x="166" y="30" class="f s" fill="#c25030">排名大幅下滑</text>

<rect x="326" width="170" height="40" rx="6" fill="#faf8f5" stroke="#857d74" stroke-width="1"/>
<text x="334" y="16" class="f s" fill="#454240">哪一维度的问题？</text>
<text x="334" y="30" class="f s" fill="#454240">7指标哪个异常最明显？</text>

<rect x="504" width="160" height="40" rx="6" fill="#e6f5f0" stroke="#2e8b6e" stroke-width="1"/>
<text x="512" y="16" class="f s" fill="#454240">立即约谈+7指标诊断</text>
<text x="512" y="30" class="f s" fill="#2e8b6e">48小时内出整改计划</text>
</g>
</svg>