<svg xmlns="http://www.w3.org/2000/svg" width="1100" height="920" viewBox="0 0 1100 920">
<defs>
  <style>
    @keyframes dash-flow { to { stroke-dashoffset: -40; } }
    @keyframes dash-flow-slow { to { stroke-dashoffset: -40; } }
    .flow-primary { stroke-dasharray: 10 6; animation: dash-flow 2s linear infinite; }
    .flow-secondary { stroke-dasharray: 8 8; animation: dash-flow 2.4s linear infinite; }
    .flow-feedback { stroke-dasharray: 6 10; animation: dash-flow-slow 3s linear infinite; }
    .phase-bg { opacity: 0.07; }
    .phase-tag { font-size: 10px; font-weight: 700; letter-spacing: 0.1em; }
    .node-title { font-size: 14px; font-weight: 600; fill: #2d2926; }
    .node-desc { font-size: 10.5px; fill: #7a6f66; }
    .edge-lbl { font-size: 11px; font-weight: 500; }
    .main-title { font-size: 20px; font-weight: 600; fill: #2d2926; }
    .main-sub { font-size: 11px; fill: #7a6f66; letter-spacing: 0.04em; }
    .val-title { font-size: 12px; font-weight: 600; fill: #2d2926; }
    .val-desc { font-size: 10px; fill: #7a6f66; }
    .val-num { font-size: 11px; font-weight: 600; }
    .comp-title { font-size: 12px; font-weight: 600; fill: #2d2926; }
    .comp-desc { font-size: 9.5px; fill: #7a6f66; }
    text { font-family: "PingFang SC", "Microsoft YaHei", "Noto Sans SC", system-ui, sans-serif; }
  </style>
  <marker id="ac" viewBox="0 0 10 8" refX="9" refY="4" markerWidth="6" markerHeight="5" orient="auto"><path d="M0,0 L10,4 L0,8Z" fill="#f36b3c"/></marker>
  <marker id="as" viewBox="0 0 10 8" refX="9" refY="4" markerWidth="6" markerHeight="5" orient="auto"><path d="M0,0 L10,4 L0,8Z" fill="#2f7cf6"/></marker>
  <marker id="am" viewBox="0 0 10 8" refX="9" refY="4" markerWidth="6" markerHeight="5" orient="auto"><path d="M0,0 L10,4 L0,8Z" fill="#24b36b"/></marker>
  <marker id="aa" viewBox="0 0 10 8" refX="9" refY="4" markerWidth="6" markerHeight="5" orient="auto"><path d="M0,0 L10,4 L0,8Z" fill="#d79210"/></marker>
  <marker id="ag" viewBox="0 0 10 8" refX="9" refY="4" markerWidth="6" markerHeight="5" orient="auto"><path d="M0,0 L10,4 L0,8Z" fill="#7a6f66"/></marker>

  <!-- Phosphor Icons -->
  <symbol id="ico-user" viewBox="0 0 256 256"><path d="M230.92 212c-15.23-26.33-38.7-45.21-66.09-54.16a72 72 0 1 0-73.66 0c-27.39 8.94-50.86 27.82-66.09 54.16a8 8 0 1 0 13.85 8c18.84-32.56 52.14-52 89.07-52s70.23 19.44 89.07 52a8 8 0 1 0 13.85-8M72 96a56 56 0 1 1 56 56a56.06 56.06 0 0 1-56-56"/></symbol>
  <symbol id="ico-gear" viewBox="0 0 256 256"><path d="M128 80a48 48 0 1 0 48 48 48.05 48.05 0 0 0-48-48m0 80a32 32 0 1 1 32-32 32 32 0 0 1-32 32m109.94-52.79a8 8 0 0 0-3.89-5.4l-29.83-17-.12-33.62a8 8 0 0 0-2.83-6.08 111.9 111.9 0 0 0-36.72-20.67 8 8 0 0 0-6.46.59L128 41.85 97.88 25a8 8 0 0 0-6.47-.6 112.1 112.1 0 0 0-36.68 20.75 8 8 0 0 0-2.83 6.07l-.15 33.65-29.83 17a8 8 0 0 0-3.89 5.4 106.5 106.5 0 0 0 0 41.56 8 8 0 0 0 3.89 5.4l29.83 17 .12 33.62a8 8 0 0 0 2.83 6.08 111.9 111.9 0 0 0 36.72 20.67 8 8 0 0 0 6.46-.59L128 214.15 158.12 231a7.9 7.9 0 0 0 3.9 1 8.1 8.1 0 0 0 2.57-.42 112.1 112.1 0 0 0 36.68-20.73 8 8 0 0 0 2.83-6.07l.15-33.65 29.83-17a8 8 0 0 0 3.89-5.4 106.5 106.5 0 0 0-.03-41.52m-15 34.91-28.57 16.25a8 8 0 0 0-3 3c-.58 1-1.19 2.06-1.81 3.06a7.94 7.94 0 0 0-1.22 4.21l-.15 32.25a95.9 95.9 0 0 1-25.37 14.3L134 199.13a8 8 0 0 0-3.91-1h-3.83a8.1 8.1 0 0 0-4.1 1l-28.84 16.1A96 96 0 0 1 67.88 201l-.11-32.2a8 8 0 0 0-1.22-4.22c-.62-1-1.23-2-1.8-3.06a8.1 8.1 0 0 0-3-3.06l-28.6-16.29a90.5 90.5 0 0 1 0-28.26l28.52-16.28a8 8 0 0 0 3-3c.58-1 1.19-2.06 1.81-3.06a7.94 7.94 0 0 0 1.22-4.21l.15-32.25a95.9 95.9 0 0 1 25.37-14.3L122 56.87a8 8 0 0 0 4.1 1h3.64a8.1 8.1 0 0 0 4.1-1l28.84-16.1A96 96 0 0 1 188.12 55l.11 32.2a8 8 0 0 0 1.22 4.22c.62 1 1.23 2 1.8 3.06a8.1 8.1 0 0 0 3 3.06l28.6 16.29a90.5 90.5 0 0 1 .05 28.29Z"/></symbol>
  <symbol id="ico-database" viewBox="0 0 256 256"><path d="M128 24c-53.83 0-96 24.6-96 56v96c0 31.4 42.17 56 96 56s96-24.6 96-56V80c0-31.4-42.17-56-96-56m80 104c0 9.62-7.88 19.43-21.61 26.92C170.93 163.35 150.19 168 128 168s-42.93-4.65-58.39-13.08C55.88 147.43 48 137.62 48 128v-16.64c17.06 15 46.23 24.64 80 24.64s62.94-9.68 80-24.64ZM69.61 53.08C85.07 44.65 105.81 40 128 40s42.93 4.65 58.39 13.08C200.12 60.57 208 70.38 208 80s-7.88 19.43-21.61 26.92C170.93 115.35 150.19 120 128 120s-42.93-4.65-58.39-13.08C55.88 99.43 48 89.62 48 80s7.88-19.43 21.61-26.92m116.78 149.84C170.93 211.35 150.19 216 128 216s-42.93-4.65-58.39-13.08C55.88 195.43 48 185.62 48 176v-16.64c17.06 15 46.23 24.64 80 24.64s62.94-9.68 80-24.64V176c0 9.62-7.88 19.43-21.61 26.92"/></symbol>
  <symbol id="ico-wand" viewBox="0 0 256 256"><path d="M48 64a8 8 0 0 1 8-8h16V40a8 8 0 0 1 16 0v16h16a8 8 0 0 1 0 16H88v16a8 8 0 0 1-16 0V72H56a8 8 0 0 1-8-8m136 128h-8v-8a8 8 0 0 0-16 0v8h-8a8 8 0 0 0 0 16h8v8a8 8 0 0 0 16 0v-8h8a8 8 0 0 0 0-16m56-48h-16v-16a8 8 0 0 0-16 0v16h-16a8 8 0 0 0 0 16h16v16a8 8 0 0 0 16 0v-16h16a8 8 0 0 0 0-16m-20.69-64L80 219.31a16 16 0 0 1-22.62 0l-20.7-20.68a16 16 0 0 1 0-22.63L176 36.69a16 16 0 0 1 22.63 0l20.68 20.68a16 16 0 0 1 0 22.63m-54.63 32L144 91.31l-96 96L68.68 208ZM208 68.69 187.31 48l-32 32L176 100.69Z"/></symbol>
  <symbol id="ico-cpu" viewBox="0 0 256 256"><path d="M152 96h-48a8 8 0 0 0-8 8v48a8 8 0 0 0 8 8h48a8 8 0 0 0 8-8v-48a8 8 0 0 0-8-8m-8 48h-32v-32h32Zm88 0h-16v-32h16a8 8 0 0 0 0-16h-16V56a16 16 0 0 0-16-16h-40V24a8 8 0 0 0-16 0v16h-32V24a8 8 0 0 0-16 0v16H56a16 16 0 0 0-16 16v40H24a8 8 0 0 0 0 16h16v32H24a8 8 0 0 0 0 16h16v40a16 16 0 0 0 16 16h40v16a8 8 0 0 0 16 0v-16h32v16a8 8 0 0 0 16 0v-16h40a16 16 0 0 0 16-16v-40h16a8 8 0 0 0 0-16m-32 56H56V56h144z"/></symbol>
  <symbol id="ico-megaphone" viewBox="0 0 256 256"><path d="M248 120a48.05 48.05 0 0 0-48-48h-39.8c-2.91-.17-53.62-3.74-101.91-44.24A16 16 0 0 0 32 40v160a16 16 0 0 0 26.29 12.25c37.77-31.68 77-40.76 93.71-43.3v31.72a16 16 0 0 0 7.12 13.33l11 7.33A16 16 0 0 0 194.5 212l11.77-44.36A48.07 48.07 0 0 0 248 120M48 199.93V40c42.81 35.91 86.63 45 104 47.24v65.48c-17.35 2.28-61.16 11.35-104 47.21m131 8v.11l-11-7.33V168h21.6ZM200 152h-32V88h32a32 32 0 1 1 0 64"/></symbol>
  <symbol id="ico-gauge" viewBox="0 0 256 256"><path d="M207.06 72.67A111.24 111.24 0 0 0 128 40h-.4C66.07 40.21 16 91 16 153.13V176a16 16 0 0 0 16 16h192a16 16 0 0 0 16-16v-24a111.25 111.25 0 0 0-32.94-79.33M224 176H119.71l54.76-75.3a8 8 0 0 0-12.94-9.42L99.92 176H32v-22.87c0-3.08.15-6.12.43-9.13H56a8 8 0 0 0 0-16H35.27c10.32-38.86 44-68.24 84.73-71.66V80a8 8 0 0 0 16 0V56.33A96.14 96.14 0 0 1 221 128h-21a8 8 0 0 0 0 16h23.67c.21 2.65.33 5.31.33 8Z"/></symbol>
  <symbol id="ico-check" viewBox="0 0 256 256"><path d="M229.66 77.66l-128 128a8 8 0 0 1-11.32 0l-56-56a8 8 0 0 1 11.32-11.32L96 188.69 218.34 66.34a8 8 0 0 1 11.32 11.32"/></symbol>
</defs>

<!-- Background -->
<rect width="1100" height="920" fill="#fcfbf7"/>
<text x="60" y="40" class="main-title">Joyclaw 智能工作流 — Agent 工作流程</text>
<text x="60" y="62" class="main-sub">提交需求 → 自动搭建 → 定时执行 → 结果推送</text>

<!-- ============ PHASE 1: 输入 ============ -->
<rect x="60" y="86" width="880" height="140" rx="10" fill="#fff0cf" class="phase-bg"/>
<rect x="60" y="86" width="880" height="140" rx="10" fill="none" stroke="#e8e1d7"/>
<rect x="72" y="94" width="56" height="20" rx="4" fill="#fff0cf" stroke="#d4b870" stroke-width="1"/>
<text x="100" y="108" class="phase-tag" text-anchor="middle" fill="#c49000">01 输入</text>

<!-- N1 业务人员 -->
<rect x="340" y="108" width="320" height="96" rx="14" fill="white" stroke="#2d2926" stroke-width="1.5"/>
<rect x="342" y="110" width="320" height="96" rx="14" fill="none" stroke="#2d2926" stroke-width="0.6" opacity="0.2"/>
<use href="#ico-user" x="362" y="130" width="26" height="26" fill="#c49000"/>
<text x="396" y="148" class="node-title">业务人员</text>
<text x="362" y="178" class="node-desc">提交 SQL 与提示词</text>

<!-- N1→N2 -->
<path d="M500,204 L500,275" fill="none" stroke="#f36b3c" stroke-width="3.5" class="flow-primary" marker-end="url(#ac)"/>
<rect x="506" y="224" width="90" height="18" rx="4" fill="#fcfbf7"/>
<text x="551" y="237" class="edge-lbl" fill="#f36b3c" text-anchor="middle">提交需求</text>

<!-- ============ PHASE 2: 搭建 ============ -->
<rect x="60" y="240" width="880" height="240" rx="10" fill="#ffe0d7" class="phase-bg"/>
<rect x="60" y="240" width="880" height="240" rx="10" fill="none" stroke="#e8e1d7"/>
<rect x="72" y="248" width="56" height="20" rx="4" fill="#ffe0d7" stroke="#d4a090" stroke-width="1"/>
<text x="100" y="262" class="phase-tag" text-anchor="middle" fill="#c44400">02 搭建</text>

<!-- N2 Joyclaw 智能引擎 -->
<rect x="330" y="278" width="340" height="96" rx="14" fill="#ffe0d7" stroke="#2d2926" stroke-width="1.5"/>
<rect x="332" y="280" width="340" height="96" rx="14" fill="none" stroke="#2d2926" stroke-width="0.6" opacity="0.2"/>
<use href="#ico-gear" x="352" y="302" width="26" height="26" fill="#c44400"/>
<text x="386" y="320" class="node-title">Joyclaw 智能引擎</text>
<text x="352" y="350" class="node-desc">根据 Skill 自动搭建 Agent 工作流</text>

<!-- N2→N3 (分支) -->
<path d="M500,374 L500,410" fill="none" stroke="#f36b3c" stroke-width="3" class="flow-primary" marker-end="url(#ac)"/>
<rect x="506" y="382" width="90" height="18" rx="4" fill="#fcfbf7"/>
<text x="551" y="395" class="edge-lbl" fill="#f36b3c" text-anchor="middle">生成工作流</text>

<!-- N3 工作流组件（4个并排） -->
<rect x="90" y="415" width="820" height="56" rx="10" fill="white" stroke="#2f7cf6" stroke-width="1.2" stroke-dasharray="4 3"/>

<!-- C1 数据库 -->
<rect x="105" y="420" width="185" height="46" rx="8" fill="#dcebff" stroke="#2f7cf6" stroke-width="0.8"/>
<use href="#ico-database" x="115" y="430" width="22" height="22" fill="#1a5fb4"/>
<text x="142" y="446" class="comp-title">数据库</text>
<text x="115" y="458" class="comp-desc">SQL 查询</text>

<!-- C2 提示词 -->
<rect x="305" y="420" width="185" height="46" rx="8" fill="#dcebff" stroke="#2f7cf6" stroke-width="0.8"/>
<use href="#ico-wand" x="315" y="430" width="22" height="22" fill="#1a5fb4"/>
<text x="342" y="446" class="comp-title">提示词</text>
<text x="315" y="458" class="comp-desc">用户自定义</text>

<!-- C3 大模型 -->
<rect x="505" y="420" width="185" height="46" rx="8" fill="#dcebff" stroke="#2f7cf6" stroke-width="0.8"/>
<use href="#ico-cpu" x="515" y="430" width="22" height="22" fill="#1a5fb4"/>
<text x="542" y="446" class="comp-title">大模型</text>
<text x="515" y="458" class="comp-desc">智能分析</text>

<!-- C4 发送京me群 -->
<rect x="705" y="420" width="185" height="46" rx="8" fill="#dcebff" stroke="#2f7cf6" stroke-width="0.8"/>
<use href="#ico-megaphone" x="715" y="430" width="22" height="22" fill="#1a5fb4"/>
<text x="742" y="446" class="comp-title">发送京me群</text>
<text x="715" y="458" class="comp-desc">结果推送</text>

<!-- N3→N4 -->
<path d="M500,471 L500,540" fill="none" stroke="#2f7cf6" stroke-width="3.5" class="flow-primary" marker-end="url(#as)"/>
<rect x="506" y="492" width="90" height="18" rx="4" fill="#fcfbf7"/>
<text x="551" y="505" class="edge-lbl" fill="#2f7cf6" text-anchor="middle">定时触发</text>

<!-- ============ PHASE 3: 执行 ============ -->
<rect x="60" y="510" width="880" height="240" rx="10" fill="#dff7e8" class="phase-bg"/>
<rect x="60" y="510" width="880" height="240" rx="10" fill="none" stroke="#e8e1d7"/>
<rect x="72" y="518" width="56" height="20" rx="4" fill="#dff7e8" stroke="#90d0a8" stroke-width="1"/>
<text x="100" y="532" class="phase-tag" text-anchor="middle" fill="#1a7a3a">03 执行</text>

<!-- N4 智能体云端定时调用 -->
<rect x="300" y="548" width="400" height="96" rx="14" fill="white" stroke="#2d2926" stroke-width="1.5"/>
<rect x="302" y="550" width="400" height="96" rx="14" fill="none" stroke="#2d2926" stroke-width="0.6" opacity="0.2"/>
<use href="#ico-gauge" x="322" y="572" width="26" height="26" fill="#1a7a3a"/>
<text x="356" y="590" class="node-title">智能体云端定时调用</text>
<text x="322" y="620" class="node-desc">云端自动执行 · 无需人工干预</text>

<!-- N4→N5 -->
<path d="M500,644 L500,690" fill="none" stroke="#24b36b" stroke-width="3.5" class="flow-primary" marker-end="url(#am)"/>

<!-- N5 执行完毕 -->
<rect x="370" y="695" width="260" height="56" rx="28" fill="#dff7e8" stroke="#1a7a3a" stroke-width="1.5"/>
<rect x="372" y="697" width="260" height="56" rx="28" fill="none" stroke="#1a7a3a" stroke-width="0.6" opacity="0.2"/>
<use href="#ico-check" x="392" y="710" width="22" height="22" fill="#1a7a3a"/>
<text x="420" y="726" class="node-title">执行完毕</text>
<text x="392" y="742" class="comp-desc">结果已推送至京me群</text>

<!-- ============ FEEDBACK: 执行结果 → 优化提示词 ============ -->
<path d="M370,723 L80,723 L80,443 L105,443" fill="none" stroke="#d79210" stroke-width="2.5" class="flow-feedback" marker-end="url(#aa)"/>
<rect x="42" y="570" width="76" height="18" rx="4" fill="#fcfbf7"/>
<text x="80" y="583" class="edge-lbl" fill="#d79210" text-anchor="middle">结果反馈</text>

<!-- ============ RIGHT SIDE ============ -->
<rect x="960" y="86" width="120" height="664" rx="8" fill="white" stroke="#e8e1d7" stroke-width="1"/>
<text x="1020" y="106" class="phase-tag" text-anchor="middle" fill="#7a6f66">阶段说明</text>

<line x1="970" y1="116" x2="1070" y2="116" stroke="#e8e1d7"/>
<text x="974" y="140" class="val-title" fill="#c49000">01 输入</text>
<text x="974" y="158" class="val-desc">业务人员提交</text>
<text x="974" y="174" class="val-desc">SQL 和提示词</text>

<line x1="970" y1="194" x2="1070" y2="194" stroke="#e8e1d7"/>
<text x="974" y="218" class="val-title" fill="#c44400">02 搭建</text>
<text x="974" y="236" class="val-desc">Joyclaw 根据 Skill</text>
<text x="974" y="252" class="val-desc">自动生成工作流</text>
<text x="974" y="268" class="val-desc">含4个核心组件</text>

<line x1="970" y1="288" x2="1070" y2="288" stroke="#e8e1d7"/>
<text x="974" y="312" class="val-title" fill="#1a7a3a">03 执行</text>
<text x="974" y="330" class="val-desc">云端定时调用</text>
<text x="974" y="346" class="val-desc">自动运行推送</text>

<!-- ============ BOTTOM: VALUE ============ -->
<rect x="60" y="778" width="1020" height="120" rx="12" fill="white" stroke="#e8e1d7" stroke-width="1.5"/>
<rect x="60" y="778" width="1020" height="4" rx="2" fill="#f36b3c"/>
<text x="90" y="808" class="val-title" fill="#2d2926">核心流程特点</text>

<!-- V1 -->
<rect x="80" y="822" width="230" height="60" rx="8" fill="#fcfbf7" stroke="#e8e1d7"/>
<use href="#ico-user" x="92" y="836" width="18" height="18" fill="#c49000"/>
<text x="116" y="850" class="val-title">自然语言驱动</text>
<text x="92" y="868" class="val-desc">提交 SQL + 提示词即可</text>

<!-- V2 -->
<rect x="330" y="822" width="230" height="60" rx="8" fill="#fcfbf7" stroke="#e8e1d7"/>
<use href="#ico-gear" x="342" y="836" width="18" height="18" fill="#c44400"/>
<text x="366" y="850" class="val-title">Skill 自动搭建</text>
<text x="342" y="868" class="val-desc">Joyclaw 根据模板生成工作流</text>

<!-- V3 -->
<rect x="580" y="822" width="230" height="60" rx="8" fill="#fcfbf7" stroke="#e8e1d7"/>
<use href="#ico-gauge" x="592" y="836" width="18" height="18" fill="#1a7a3a"/>
<text x="616" y="850" class="val-title">云端定时执行</text>
<text x="592" y="868" class="val-desc">无需人工干预，自动运行</text>

<!-- V4 -->
<rect x="830" y="822" width="230" height="60" rx="8" fill="#fcfbf7" stroke="#e8e1d7"/>
<use href="#ico-megaphone" x="842" y="836" width="18" height="18" fill="#1a5fb4"/>
<text x="866" y="850" class="val-title">京me群推送</text>
<text x="842" y="868" class="val-desc">结果自动发送至工作群</text>

</svg>