<?xml version="1.0" encoding="utf-8" standalone="no"?>
<!DOCTYPE svg PUBLIC "-//W3C//DTD SVG 1.1//EN"
  "http://www.w3.org/Graphics/SVG/1.1/DTD/svg11.dtd">
<svg xmlns:xlink="http://www.w3.org/1999/xlink" width="567.024663pt" height="278.735pt" viewBox="0 0 567.024663 278.735" xmlns="http://www.w3.org/2000/svg" version="1.1">
 <metadata>
  <rdf:RDF xmlns:dc="http://purl.org/dc/elements/1.1/" xmlns:cc="http://creativecommons.org/ns#" xmlns:rdf="http://www.w3.org/1999/02/22-rdf-syntax-ns#">
   <cc:Work>
    <dc:type rdf:resource="http://purl.org/dc/dcmitype/StillImage"/>
    <dc:date>2026-05-05T13:01:18.880044</dc:date>
    <dc:format>image/svg+xml</dc:format>
    <dc:creator>
     <cc:Agent>
      <dc:title>Matplotlib v3.10.9, https://matplotlib.org/</dc:title>
     </cc:Agent>
    </dc:creator>
   </cc:Work>
  </rdf:RDF>
 </metadata>
 <defs>
  <style type="text/css">*{stroke-linejoin: round; stroke-linecap: butt}</style>
 </defs>
 <g id="figure_1">
  <g id="patch_1">
   <path d="M 0 278.735 
L 567.024663 278.735 
L 567.024663 0 
L 0 0 
z
" style="fill: #ffffff"/>
  </g>
  <g id="axes_1">
   <g id="patch_2">
    <path d="M 43.886719 254.305 
L 526.310355 254.305 
L 526.310355 38.255 
L 43.886719 38.255 
z
" style="fill: #ffffff"/>
   </g>
   <g id="matplotlib.axis_1">
    <g id="xtick_1">
     <g id="line2d_1">
      <defs>
       <path id="m4c95125264" d="M 0 0 
L 0 3.5 
" style="stroke: #857d74; stroke-width: 0.8"/>
      </defs>
      <g>
       <use xlink:href="#m4c95125264" x="65.815066" y="254.305" style="fill: #857d74; stroke: #857d74; stroke-width: 0.8"/>
      </g>
     </g>
     <g id="text_1">
      <!-- 1月 -->
      <g style="fill: #857d74" transform="translate(57.267722 270.060312) scale(0.11 -0.11)">
       <defs>
        <path id="STHeiti-31" d="M 1184 4979 
L 2086 4979 
L 2086 384 
L 1632 384 
L 1632 4531 
L 909 4531 
L 1184 4979 
z
" transform="scale(0.015625)"/>
        <path id="STHeiti-6708" d="M 4710 1587 
L 2208 1587 
Q 2112 269 1235 -595 
Q 1005 -339 614 -237 
Q 1184 192 1430 800 
Q 1677 1408 1677 2509 
L 1677 4045 
Q 1677 4646 1651 4877 
Q 1978 4851 3501 4851 
Q 5024 4851 5331 4877 
Q 5306 4646 5306 4045 
L 5306 288 
Q 5306 -64 5245 -205 
Q 5184 -346 4969 -416 
Q 4755 -486 4211 -538 
Q 4211 -160 3930 173 
Q 4294 109 4457 109 
Q 4621 109 4665 214 
Q 4710 320 4710 659 
L 4710 1587 
z
M 2227 3443 
L 4710 3443 
L 4710 4371 
L 2227 4371 
L 2227 3443 
z
M 4710 2995 
L 2227 2995 
L 2227 2054 
L 4710 2054 
L 4710 2995 
z
" transform="scale(0.015625)"/>
       </defs>
       <use xlink:href="#STHeiti-31"/>
       <use xlink:href="#STHeiti-6708" transform="translate(55.399994 0)"/>
      </g>
     </g>
    </g>
    <g id="xtick_2">
     <g id="line2d_2">
      <g>
       <use xlink:href="#m4c95125264" x="285.098537" y="254.305" style="fill: #857d74; stroke: #857d74; stroke-width: 0.8"/>
      </g>
     </g>
     <g id="text_2">
      <!-- 2月 -->
      <g style="fill: #857d74" transform="translate(276.551193 270.060312) scale(0.11 -0.11)">
       <defs>
        <path id="STHeiti-32" d="M 742 3539 
L 301 3539 
Q 333 4243 768 4668 
Q 1203 5094 1820 5094 
Q 2438 5094 2844 4694 
Q 3251 4294 3251 3718 
Q 3251 3290 3024 2925 
Q 2797 2560 2336 2061 
L 1190 826 
L 3315 826 
L 3315 384 
L 192 384 
L 1946 2278 
Q 2406 2778 2604 3066 
Q 2803 3354 2803 3725 
Q 2803 4096 2512 4377 
Q 2221 4659 1789 4659 
Q 1357 4659 1072 4368 
Q 787 4077 742 3539 
z
" transform="scale(0.015625)"/>
       </defs>
       <use xlink:href="#STHeiti-32"/>
       <use xlink:href="#STHeiti-6708" transform="translate(55.399994 0)"/>
      </g>
     </g>
    </g>
    <g id="xtick_3">
     <g id="line2d_3">
      <g>
       <use xlink:href="#m4c95125264" x="504.382008" y="254.305" style="fill: #857d74; stroke: #857d74; stroke-width: 0.8"/>
      </g>
     </g>
     <g id="text_3">
      <!-- 3月 -->
      <g style="fill: #857d74" transform="translate(495.834664 270.060312) scale(0.11 -0.11)">
       <defs>
        <path id="STHeiti-33" d="M 845 3917 
L 378 3917 
Q 506 4486 867 4790 
Q 1229 5094 1750 5094 
Q 2272 5094 2659 4748 
Q 3046 4403 3046 3910 
Q 3046 3315 2458 2970 
Q 2861 2803 3081 2473 
Q 3302 2144 3302 1754 
Q 3302 1146 2857 707 
Q 2413 269 1734 269 
Q 1133 269 742 611 
Q 352 954 224 1613 
L 672 1613 
Q 794 1158 1046 937 
Q 1299 717 1760 717 
Q 2221 717 2534 1011 
Q 2848 1306 2848 1741 
Q 2848 2176 2502 2441 
Q 2157 2707 1498 2720 
L 1498 3142 
Q 1971 3142 2268 3360 
Q 2566 3578 2566 3901 
Q 2566 4224 2326 4438 
Q 2086 4653 1747 4653 
Q 1408 4653 1200 4470 
Q 992 4288 845 3917 
z
" transform="scale(0.015625)"/>
       </defs>
       <use xlink:href="#STHeiti-33"/>
       <use xlink:href="#STHeiti-6708" transform="translate(55.399994 0)"/>
      </g>
     </g>
    </g>
   </g>
   <g id="matplotlib.axis_2">
    <g id="ytick_1">
     <g id="line2d_4">
      <path d="M 43.886719 239.901667 
L 526.310355 239.901667 
" clip-path="url(#p7064d5cb41)" style="fill: none; stroke-dasharray: 2.96,1.28; stroke-dashoffset: 0; stroke: #f2f0eb; stroke-width: 0.8"/>
     </g>
     <g id="line2d_5">
      <defs>
       <path id="m79ac9ca1f1" d="M 0 0 
L -3.5 0 
" style="stroke: #857d74; stroke-width: 0.8"/>
      </defs>
      <g>
       <use xlink:href="#m79ac9ca1f1" x="43.886719" y="239.901667" style="fill: #857d74; stroke: #857d74; stroke-width: 0.8"/>
      </g>
     </g>
     <g id="text_4">
      <!-- 1.6 -->
      <g style="fill: #857d74" transform="translate(21.65 244.279323) scale(0.11 -0.11)">
       <defs>
        <path id="STHeiti-2e" d="M 582 685 
Q 582 845 697 957 
Q 813 1069 969 1069 
Q 1126 1069 1238 957 
Q 1350 845 1350 681 
Q 1350 518 1238 406 
Q 1126 294 969 294 
Q 813 294 697 409 
Q 582 525 582 685 
z
" transform="scale(0.015625)"/>
        <path id="STHeiti-36" d="M 2349 5094 
L 2726 4851 
L 1485 2970 
Q 1747 3059 1984 3059 
Q 2496 3059 2880 2652 
Q 3264 2246 3264 1660 
Q 3264 1075 2845 672 
Q 2426 269 1827 269 
Q 1229 269 829 678 
Q 429 1088 429 1677 
Q 429 1958 537 2256 
Q 646 2554 954 3014 
L 2349 5094 
z
M 2810 1683 
Q 2810 2086 2528 2368 
Q 2246 2650 1843 2650 
Q 1440 2650 1158 2368 
Q 877 2086 877 1683 
Q 877 1280 1161 998 
Q 1446 717 1843 717 
Q 2240 717 2525 998 
Q 2810 1280 2810 1683 
z
" transform="scale(0.015625)"/>
       </defs>
       <use xlink:href="#STHeiti-31"/>
       <use xlink:href="#STHeiti-2e" transform="translate(55.399994 0)"/>
       <use xlink:href="#STHeiti-36" transform="translate(83.099991 0)"/>
      </g>
     </g>
    </g>
    <g id="ytick_2">
     <g id="line2d_6">
      <path d="M 43.886719 211.095 
L 526.310355 211.095 
" clip-path="url(#p7064d5cb41)" style="fill: none; stroke-dasharray: 2.96,1.28; stroke-dashoffset: 0; stroke: #f2f0eb; stroke-width: 0.8"/>
     </g>
     <g id="line2d_7">
      <g>
       <use xlink:href="#m79ac9ca1f1" x="43.886719" y="211.095" style="fill: #857d74; stroke: #857d74; stroke-width: 0.8"/>
      </g>
     </g>
     <g id="text_5">
      <!-- 1.8 -->
      <g style="fill: #857d74" transform="translate(21.65 215.472656) scale(0.11 -0.11)">
       <defs>
        <path id="STHeiti-38" d="M 2458 2906 
Q 3328 2477 3328 1702 
Q 3328 1088 2896 678 
Q 2464 269 1763 269 
Q 1062 269 640 678 
Q 218 1088 218 1664 
Q 218 2470 1107 2906 
Q 435 3264 435 3898 
Q 435 4371 828 4732 
Q 1222 5094 1779 5094 
Q 2336 5094 2726 4742 
Q 3117 4390 3117 3885 
Q 3117 3270 2458 2906 
z
M 2656 3904 
Q 2656 4211 2416 4432 
Q 2176 4653 1789 4653 
Q 1402 4653 1152 4432 
Q 902 4211 902 3897 
Q 902 3584 1174 3337 
Q 1446 3091 1792 3091 
Q 2138 3091 2397 3334 
Q 2656 3578 2656 3904 
z
M 2867 1696 
Q 2867 2086 2550 2380 
Q 2234 2675 1782 2675 
Q 1331 2675 1004 2371 
Q 678 2067 678 1654 
Q 678 1242 979 973 
Q 1280 704 1766 704 
Q 2253 704 2560 992 
Q 2867 1280 2867 1696 
z
" transform="scale(0.015625)"/>
       </defs>
       <use xlink:href="#STHeiti-31"/>
       <use xlink:href="#STHeiti-2e" transform="translate(55.399994 0)"/>
       <use xlink:href="#STHeiti-38" transform="translate(83.099991 0)"/>
      </g>
     </g>
    </g>
    <g id="ytick_3">
     <g id="line2d_8">
      <path d="M 43.886719 182.288333 
L 526.310355 182.288333 
" clip-path="url(#p7064d5cb41)" style="fill: none; stroke-dasharray: 2.96,1.28; stroke-dashoffset: 0; stroke: #f2f0eb; stroke-width: 0.8"/>
     </g>
     <g id="line2d_9">
      <g>
       <use xlink:href="#m79ac9ca1f1" x="43.886719" y="182.288333" style="fill: #857d74; stroke: #857d74; stroke-width: 0.8"/>
      </g>
     </g>
     <g id="text_6">
      <!-- 2.0 -->
      <g style="fill: #857d74" transform="translate(21.65 186.66599) scale(0.11 -0.11)">
       <defs>
        <path id="STHeiti-30" d="M 1747 269 
Q 1005 269 605 880 
Q 205 1491 205 2681 
Q 205 3872 605 4483 
Q 1005 5094 1741 5094 
Q 2477 5094 2909 4470 
Q 3341 3846 3341 2681 
Q 3341 1517 2905 893 
Q 2470 269 1747 269 
z
M 1760 4659 
Q 1229 4659 934 4147 
Q 640 3635 640 2669 
Q 640 685 1760 685 
Q 2304 685 2608 1206 
Q 2912 1728 2912 2681 
Q 2912 3635 2598 4147 
Q 2285 4659 1760 4659 
z
" transform="scale(0.015625)"/>
       </defs>
       <use xlink:href="#STHeiti-32"/>
       <use xlink:href="#STHeiti-2e" transform="translate(55.399994 0)"/>
       <use xlink:href="#STHeiti-30" transform="translate(83.099991 0)"/>
      </g>
     </g>
    </g>
    <g id="ytick_4">
     <g id="line2d_10">
      <path d="M 43.886719 153.481667 
L 526.310355 153.481667 
" clip-path="url(#p7064d5cb41)" style="fill: none; stroke-dasharray: 2.96,1.28; stroke-dashoffset: 0; stroke: #f2f0eb; stroke-width: 0.8"/>
     </g>
     <g id="line2d_11">
      <g>
       <use xlink:href="#m79ac9ca1f1" x="43.886719" y="153.481667" style="fill: #857d74; stroke: #857d74; stroke-width: 0.8"/>
      </g>
     </g>
     <g id="text_7">
      <!-- 2.2 -->
      <g style="fill: #857d74" transform="translate(21.65 157.859323) scale(0.11 -0.11)">
       <use xlink:href="#STHeiti-32"/>
       <use xlink:href="#STHeiti-2e" transform="translate(55.399994 0)"/>
       <use xlink:href="#STHeiti-32" transform="translate(83.099991 0)"/>
      </g>
     </g>
    </g>
    <g id="ytick_5">
     <g id="line2d_12">
      <path d="M 43.886719 124.675 
L 526.310355 124.675 
" clip-path="url(#p7064d5cb41)" style="fill: none; stroke-dasharray: 2.96,1.28; stroke-dashoffset: 0; stroke: #f2f0eb; stroke-width: 0.8"/>
     </g>
     <g id="line2d_13">
      <g>
       <use xlink:href="#m79ac9ca1f1" x="43.886719" y="124.675" style="fill: #857d74; stroke: #857d74; stroke-width: 0.8"/>
      </g>
     </g>
     <g id="text_8">
      <!-- 2.4 -->
      <g style="fill: #857d74" transform="translate(21.65 129.052656) scale(0.11 -0.11)">
       <defs>
        <path id="STHeiti-34" d="M 2726 5094 
L 2816 5094 
L 2816 1894 
L 3373 1894 
L 3373 1453 
L 2816 1453 
L 2816 384 
L 2362 384 
L 2362 1453 
L 160 1453 
L 2726 5094 
z
M 2362 1894 
L 2362 3808 
L 1005 1894 
L 2362 1894 
z
" transform="scale(0.015625)"/>
       </defs>
       <use xlink:href="#STHeiti-32"/>
       <use xlink:href="#STHeiti-2e" transform="translate(55.399994 0)"/>
       <use xlink:href="#STHeiti-34" transform="translate(83.099991 0)"/>
      </g>
     </g>
    </g>
    <g id="ytick_6">
     <g id="line2d_14">
      <path d="M 43.886719 95.868333 
L 526.310355 95.868333 
" clip-path="url(#p7064d5cb41)" style="fill: none; stroke-dasharray: 2.96,1.28; stroke-dashoffset: 0; stroke: #f2f0eb; stroke-width: 0.8"/>
     </g>
     <g id="line2d_15">
      <g>
       <use xlink:href="#m79ac9ca1f1" x="43.886719" y="95.868333" style="fill: #857d74; stroke: #857d74; stroke-width: 0.8"/>
      </g>
     </g>
     <g id="text_9">
      <!-- 2.6 -->
      <g style="fill: #857d74" transform="translate(21.65 100.24599) scale(0.11 -0.11)">
       <use xlink:href="#STHeiti-32"/>
       <use xlink:href="#STHeiti-2e" transform="translate(55.399994 0)"/>
       <use xlink:href="#STHeiti-36" transform="translate(83.099991 0)"/>
      </g>
     </g>
    </g>
    <g id="ytick_7">
     <g id="line2d_16">
      <path d="M 43.886719 67.061667 
L 526.310355 67.061667 
" clip-path="url(#p7064d5cb41)" style="fill: none; stroke-dasharray: 2.96,1.28; stroke-dashoffset: 0; stroke: #f2f0eb; stroke-width: 0.8"/>
     </g>
     <g id="line2d_17">
      <g>
       <use xlink:href="#m79ac9ca1f1" x="43.886719" y="67.061667" style="fill: #857d74; stroke: #857d74; stroke-width: 0.8"/>
      </g>
     </g>
     <g id="text_10">
      <!-- 2.8 -->
      <g style="fill: #857d74" transform="translate(21.65 71.439323) scale(0.11 -0.11)">
       <use xlink:href="#STHeiti-32"/>
       <use xlink:href="#STHeiti-2e" transform="translate(55.399994 0)"/>
       <use xlink:href="#STHeiti-38" transform="translate(83.099991 0)"/>
      </g>
     </g>
    </g>
    <g id="ytick_8">
     <g id="line2d_18">
      <path d="M 43.886719 38.255 
L 526.310355 38.255 
" clip-path="url(#p7064d5cb41)" style="fill: none; stroke-dasharray: 2.96,1.28; stroke-dashoffset: 0; stroke: #f2f0eb; stroke-width: 0.8"/>
     </g>
     <g id="line2d_19">
      <g>
       <use xlink:href="#m79ac9ca1f1" x="43.886719" y="38.255" style="fill: #857d74; stroke: #857d74; stroke-width: 0.8"/>
      </g>
     </g>
     <g id="text_11">
      <!-- 3.0 -->
      <g style="fill: #857d74" transform="translate(21.65 42.632656) scale(0.11 -0.11)">
       <use xlink:href="#STHeiti-33"/>
       <use xlink:href="#STHeiti-2e" transform="translate(55.399994 0)"/>
       <use xlink:href="#STHeiti-30" transform="translate(83.099991 0)"/>
      </g>
     </g>
    </g>
    <g id="text_12">
     <!-- 转化率（%） -->
     <g style="fill: #857d74" transform="translate(16.175313 178.0425) rotate(-90) scale(0.11 -0.11)">
      <defs>
       <path id="STHeiti-8f6c" d="M 1658 2477 
Q 1651 3085 1613 3443 
Q 1894 3398 2208 3398 
Q 2278 3398 2278 3369 
Q 2278 3341 2211 3312 
Q 2144 3283 2144 3142 
L 2144 2477 
Q 2515 2483 2720 2528 
L 2720 2048 
Q 2496 2074 2144 2080 
L 2144 1190 
Q 2682 1280 2944 1357 
Q 2886 1101 2886 832 
Q 2682 813 2144 730 
Q 2144 19 2202 -646 
L 1600 -646 
Q 1658 -13 1658 653 
Q 960 531 563 384 
Q 525 653 448 1030 
Q 1037 1050 1658 1120 
L 1658 2074 
Q 979 2048 627 1958 
Q 570 2214 416 2438 
Q 666 2547 1094 3853 
Q 723 3846 512 3808 
L 512 4346 
Q 723 4301 1235 4294 
Q 1427 4909 1446 5274 
Q 1862 5120 2099 5069 
Q 2163 5056 2163 5024 
Q 2163 4992 2086 4944 
Q 2010 4896 1754 4294 
Q 2496 4294 2797 4346 
L 2797 3808 
Q 2598 3853 1574 3853 
L 1050 2477 
L 1658 2477 
z
M 4704 198 
Q 4934 26 5408 -365 
L 4986 -806 
Q 4160 51 3328 531 
L 3642 922 
Q 3923 742 4326 467 
L 4979 1414 
L 3405 1414 
Q 3546 2067 3622 2554 
Q 2963 2528 2797 2496 
L 2797 3040 
Q 3130 3002 3680 2989 
Q 3750 3571 3782 3782 
Q 3270 3770 3021 3731 
L 3021 4275 
Q 3251 4230 3834 4218 
Q 3910 4851 3917 5210 
Q 4307 5094 4538 5094 
Q 4621 5094 4621 5062 
Q 4621 5030 4541 4956 
Q 4461 4883 4352 4211 
L 5037 4211 
Q 5370 4211 5741 4275 
L 5741 3731 
Q 5408 3789 5037 3789 
L 4282 3789 
L 4166 2982 
L 5248 2982 
Q 5709 2982 6106 3040 
L 6106 2496 
Q 5664 2560 5248 2560 
L 4109 2560 
L 4019 1856 
L 5056 1856 
Q 5498 1856 5798 1894 
L 5798 1453 
Q 5510 1331 5312 1056 
L 4704 198 
z
" transform="scale(0.015625)"/>
       <path id="STHeiti-5316" d="M 1293 2912 
Q 1011 2464 730 2086 
Q 589 2336 314 2528 
Q 781 2912 1177 3696 
Q 1574 4480 1683 5274 
Q 2003 5120 2236 5072 
Q 2470 5024 2470 4963 
Q 2470 4902 2362 4845 
Q 2317 4819 2214 4636 
Q 2112 4454 1824 3859 
L 1824 -531 
L 1222 -531 
Q 1293 -6 1293 499 
L 1293 2912 
z
M 3283 1395 
Q 2995 1178 2534 858 
Q 2374 1139 2054 1312 
Q 2579 1485 3283 2035 
L 3283 4422 
Q 3283 4992 3232 5229 
Q 3584 5152 3917 5152 
Q 4019 5152 4019 5104 
Q 4019 5056 3964 5017 
Q 3910 4979 3868 4889 
Q 3827 4800 3827 4736 
L 3827 2522 
Q 4570 3245 5158 4307 
Q 5472 4045 5766 3891 
Q 5837 3853 5837 3817 
Q 5837 3782 5766 3772 
Q 5696 3763 5536 3625 
Q 5376 3488 5280 3366 
Q 4518 2445 3827 1843 
L 3827 448 
Q 3827 275 3868 201 
Q 3910 128 4048 105 
Q 4186 83 4544 83 
Q 4902 83 5065 134 
Q 5229 186 5315 371 
Q 5402 557 5472 1005 
Q 5709 685 6080 576 
Q 5882 -83 5754 -204 
Q 5626 -326 5437 -377 
Q 5248 -429 4589 -429 
Q 3930 -429 3680 -381 
Q 3430 -333 3356 -208 
Q 3283 -83 3283 198 
L 3283 1395 
z
" transform="scale(0.015625)"/>
       <path id="STHeiti-7387" d="M 3066 4621 
Q 2970 4934 2867 5152 
L 3526 5254 
Q 3546 4902 3616 4621 
Q 5018 4627 5837 4685 
L 5837 4115 
Q 4941 4179 3277 4179 
Q 1613 4179 678 4115 
L 678 4685 
Q 1568 4621 3066 4621 
z
M 3046 2790 
L 2662 2739 
Q 2195 2675 2106 2637 
Q 2106 2854 2010 3059 
Q 2336 3155 2842 4128 
Q 3110 3955 3251 3913 
Q 3392 3872 3392 3846 
Q 3392 3821 3251 3769 
Q 3110 3718 2944 3497 
Q 2778 3277 2573 3085 
L 3373 3142 
Q 3686 3501 3859 3770 
Q 4077 3546 4307 3443 
Q 4397 3405 4397 3360 
Q 4397 3315 4307 3308 
Q 4218 3302 3965 3126 
Q 3712 2950 3411 2636 
Q 3110 2323 2624 1952 
L 3808 2035 
Q 3661 2278 3552 2413 
L 3942 2656 
Q 4211 2176 4595 1600 
L 4141 1389 
Q 4109 1466 4000 1683 
L 3456 1651 
L 3456 1018 
Q 5126 1018 5990 1075 
L 5990 518 
Q 5126 576 3456 576 
Q 3469 -160 3520 -691 
L 2886 -691 
Q 2944 -70 2944 576 
Q 1325 563 506 518 
L 506 1075 
Q 1331 1030 2950 1018 
L 2950 1613 
Q 2419 1574 2093 1491 
Q 2048 1786 1933 1965 
Q 2157 1965 2377 2147 
Q 2598 2330 3046 2790 
z
M 5248 3898 
Q 5453 3629 5709 3475 
Q 5760 3443 5760 3414 
Q 5760 3386 5677 3386 
Q 5594 3386 5389 3296 
Q 5184 3206 4755 2803 
Q 4595 3002 4384 3117 
Q 4934 3482 5248 3898 
z
M 1958 3238 
L 1587 2848 
Q 1261 3219 877 3507 
L 1222 3859 
Q 1517 3558 1958 3238 
z
M 5811 1933 
L 5414 1485 
Q 5030 1920 4461 2291 
L 4826 2675 
Q 5242 2317 5811 1933 
z
M 2003 2170 
Q 1824 2099 1024 1350 
Q 890 1645 704 1888 
Q 1018 2003 1357 2272 
Q 1696 2541 1798 2662 
Q 1830 2413 2003 2170 
z
" transform="scale(0.015625)"/>
       <path id="STHeiti-ff08" d="M 5651 -749 
L 5274 -749 
Q 4646 173 4409 835 
Q 4173 1498 4173 2266 
Q 4173 3034 4432 3750 
Q 4691 4467 5254 5267 
L 5645 5267 
Q 5082 4237 4928 3606 
Q 4774 2976 4774 2093 
Q 4774 1472 4953 861 
Q 5133 250 5651 -749 
z
" transform="scale(0.015625)"/>
       <path id="STHeiti-25" d="M 4314 5184 
L 966 64 
L 550 64 
L 3603 4730 
Q 3232 4640 2845 4614 
Q 2458 4589 2278 4595 
L 2112 4602 
Q 2304 4333 2304 4032 
Q 2304 3571 1993 3248 
Q 1683 2925 1225 2925 
Q 768 2925 454 3238 
Q 141 3552 141 4006 
Q 141 4461 464 4774 
Q 787 5088 1210 5088 
Q 1382 5088 1702 5021 
Q 2022 4954 2490 4954 
Q 3232 4954 3949 5184 
L 4314 5184 
z
M 1914 4013 
Q 1914 4301 1712 4499 
Q 1510 4698 1225 4698 
Q 941 4698 739 4496 
Q 538 4294 538 4012 
Q 538 3731 739 3529 
Q 941 3328 1225 3328 
Q 1510 3328 1712 3526 
Q 1914 3725 1914 4013 
z
M 2656 1331 
Q 2656 1773 2973 2093 
Q 3290 2413 3734 2413 
Q 4179 2413 4496 2096 
Q 4813 1779 4813 1331 
Q 4813 883 4496 566 
Q 4179 250 3734 250 
Q 3290 250 2973 566 
Q 2656 883 2656 1331 
z
M 4422 1331 
Q 4422 1613 4220 1814 
Q 4019 2016 3734 2016 
Q 3450 2016 3251 1814 
Q 3053 1613 3053 1331 
Q 3053 1050 3251 848 
Q 3450 646 3734 646 
Q 4019 646 4220 844 
Q 4422 1043 4422 1331 
z
" transform="scale(0.015625)"/>
       <path id="STHeiti-ff09" d="M 1120 5267 
Q 1747 4346 1984 3683 
Q 2221 3021 2221 2253 
Q 2221 1485 1961 768 
Q 1702 51 1139 -749 
L 749 -749 
Q 1312 282 1465 912 
Q 1619 1542 1619 2426 
Q 1619 3046 1440 3657 
Q 1261 4269 742 5267 
L 1120 5267 
z
" transform="scale(0.015625)"/>
      </defs>
      <use xlink:href="#STHeiti-8f6c"/>
      <use xlink:href="#STHeiti-5316" transform="translate(99.999985 0)"/>
      <use xlink:href="#STHeiti-7387" transform="translate(199.999969 0)"/>
      <use xlink:href="#STHeiti-ff08" transform="translate(299.999954 0)"/>
      <use xlink:href="#STHeiti-25" transform="translate(399.999939 0)"/>
      <use xlink:href="#STHeiti-ff09" transform="translate(477.499924 0)"/>
     </g>
    </g>
   </g>
   <g id="line2d_20">
    <path d="M 65.815066 225.498333 
L 285.098537 196.691667 
L 504.382008 225.498333 
" clip-path="url(#p7064d5cb41)" style="fill: none; stroke-dasharray: 3.7,1.6; stroke-dashoffset: 0; stroke: #ada599"/>
    <defs>
     <path id="m2af7f51668" d="M 0 -2 
L -2 2 
L 2 2 
z
" style="stroke: #ada599; stroke-linejoin: miter"/>
    </defs>
    <g clip-path="url(#p7064d5cb41)">
     <use xlink:href="#m2af7f51668" x="65.815066" y="225.498333" style="fill: #ada599; stroke: #ada599; stroke-linejoin: miter"/>
     <use xlink:href="#m2af7f51668" x="285.098537" y="196.691667" style="fill: #ada599; stroke: #ada599; stroke-linejoin: miter"/>
     <use xlink:href="#m2af7f51668" x="504.382008" y="225.498333" style="fill: #ada599; stroke: #ada599; stroke-linejoin: miter"/>
    </g>
   </g>
   <g id="line2d_21">
    <path d="M 65.815066 225.498333 
L 285.098537 196.691667 
L 504.382008 225.498333 
" clip-path="url(#p7064d5cb41)" style="fill: none; stroke-dasharray: 3.7,1.6; stroke-dashoffset: 0; stroke: #ada599"/>
    <g clip-path="url(#p7064d5cb41)">
     <use xlink:href="#m2af7f51668" x="65.815066" y="225.498333" style="fill: #ada599; stroke: #ada599; stroke-linejoin: miter"/>
     <use xlink:href="#m2af7f51668" x="285.098537" y="196.691667" style="fill: #ada599; stroke: #ada599; stroke-linejoin: miter"/>
     <use xlink:href="#m2af7f51668" x="504.382008" y="225.498333" style="fill: #ada599; stroke: #ada599; stroke-linejoin: miter"/>
    </g>
   </g>
   <g id="patch_3">
    <path d="M 43.886719 254.305 
L 43.886719 38.255 
" style="fill: none; stroke: #ada599; stroke-width: 0.8; stroke-linejoin: miter; stroke-linecap: square"/>
   </g>
   <g id="patch_4">
    <path d="M 43.886719 254.305 
L 526.310355 254.305 
" style="fill: none; stroke: #ada599; stroke-width: 0.8; stroke-linejoin: miter; stroke-linecap: square"/>
   </g>
   <g id="line2d_22">
    <path d="M 65.815066 182.288333 
L 285.098537 139.078333 
L 504.382008 139.078333 
" clip-path="url(#p7064d5cb41)" style="fill: none; stroke: #c26d3a; stroke-width: 1.5; stroke-linecap: square"/>
    <defs>
     <path id="m71e94d23c0" d="M -2 2 
L 2 2 
L 2 -2 
L -2 -2 
z
" style="stroke: #c26d3a; stroke-linejoin: miter"/>
    </defs>
    <g clip-path="url(#p7064d5cb41)">
     <use xlink:href="#m71e94d23c0" x="65.815066" y="182.288333" style="fill: #c26d3a; stroke: #c26d3a; stroke-linejoin: miter"/>
     <use xlink:href="#m71e94d23c0" x="285.098537" y="139.078333" style="fill: #c26d3a; stroke: #c26d3a; stroke-linejoin: miter"/>
     <use xlink:href="#m71e94d23c0" x="504.382008" y="139.078333" style="fill: #c26d3a; stroke: #c26d3a; stroke-linejoin: miter"/>
    </g>
   </g>
   <g id="line2d_23">
    <path d="M 65.815066 182.288333 
L 285.098537 110.271667 
L 504.382008 139.078333 
" clip-path="url(#p7064d5cb41)" style="fill: none; stroke: #c26d3a; stroke-width: 1.5; stroke-linecap: square"/>
    <g clip-path="url(#p7064d5cb41)">
     <use xlink:href="#m71e94d23c0" x="65.815066" y="182.288333" style="fill: #c26d3a; stroke: #c26d3a; stroke-linejoin: miter"/>
     <use xlink:href="#m71e94d23c0" x="285.098537" y="110.271667" style="fill: #c26d3a; stroke: #c26d3a; stroke-linejoin: miter"/>
     <use xlink:href="#m71e94d23c0" x="504.382008" y="139.078333" style="fill: #c26d3a; stroke: #c26d3a; stroke-linejoin: miter"/>
    </g>
   </g>
   <g id="patch_5">
    <path d="M 357.889771 51.792459 
Q 322.473797 59.221566 287.933198 66.467048 
" style="fill: none; stroke: #2e8b6e; stroke-width: 0.8; stroke-linecap: round"/>
    <path d="M 291.826053 67.489631 
L 287.933198 66.467048 
L 291.086977 63.966313 
" style="fill: none; stroke: #2e8b6e; stroke-width: 0.8; stroke-linecap: round"/>
   </g>
   <g id="text_13">
    <!-- 峰值 2.8% -->
    <g style="fill: #2e8b6e" transform="translate(361.847752 49.777667) scale(0.09 -0.09)">
     <defs>
      <path id="STHeiti-5cf0" d="M 4314 3162 
Q 3590 2701 2758 2413 
Q 2669 2694 2547 2874 
Q 3328 3014 4000 3430 
Q 3744 3699 3552 4077 
Q 3341 3782 3091 3482 
Q 2893 3622 2694 3686 
Q 3430 4416 3667 5286 
Q 3904 5146 4269 5075 
Q 4320 5062 4320 5040 
Q 4320 5018 4269 4992 
Q 4166 4941 3936 4646 
L 4762 4646 
Q 5389 4646 5702 4698 
Q 5626 4448 5338 4086 
Q 5050 3725 4691 3430 
Q 5261 3136 6144 3130 
Q 5946 2899 5946 2688 
Q 5946 2618 5965 2547 
Q 4915 2726 4314 3162 
z
M 4326 3674 
Q 4704 3974 4954 4294 
L 3770 4294 
Q 4026 3904 4326 3674 
z
M 2086 506 
L 1190 397 
Q 749 346 474 294 
Q 518 608 518 954 
L 518 3040 
Q 518 3610 474 3782 
Q 659 3750 832 3750 
L 1011 3757 
Q 1088 3757 1088 3721 
Q 1088 3686 1008 3625 
Q 928 3565 928 3424 
L 928 787 
L 1350 826 
L 1350 4173 
Q 1350 4723 1299 4992 
Q 1478 4973 1626 4973 
L 1830 4979 
Q 1926 4979 1926 4940 
Q 1926 4902 1865 4860 
Q 1805 4819 1776 4771 
Q 1747 4723 1747 4621 
L 1747 858 
L 2086 890 
L 2086 3136 
Q 2086 3680 2042 3808 
Q 2221 3782 2438 3782 
L 2598 3789 
Q 2662 3789 2662 3747 
Q 2662 3706 2598 3658 
Q 2534 3610 2512 3568 
Q 2490 3526 2490 3450 
L 2490 858 
Q 2490 410 2522 102 
L 2086 102 
L 2086 506 
z
M 4122 1875 
Q 3418 1875 2989 1837 
L 2989 2285 
Q 3418 2246 4115 2246 
Q 4109 2618 4064 2714 
Q 4314 2669 4627 2669 
Q 4698 2669 4698 2643 
Q 4698 2618 4653 2586 
Q 4589 2534 4570 2246 
Q 5216 2253 5670 2285 
L 5670 1837 
Q 5216 1869 4570 1875 
L 4570 1478 
Q 5082 1478 5600 1517 
L 5600 1069 
Q 5190 1101 4570 1107 
L 4570 666 
Q 5363 666 5990 710 
L 5990 237 
Q 5498 282 4570 282 
Q 4576 -320 4627 -659 
L 4064 -659 
Q 4115 -141 4122 282 
Q 3328 282 2707 237 
L 2707 710 
Q 3334 666 4122 666 
L 4122 1107 
Q 3456 1107 3053 1069 
L 3053 1517 
Q 3456 1478 4122 1478 
L 4122 1875 
z
" transform="scale(0.015625)"/>
      <path id="STHeiti-503c" d="M 2438 109 
L 2438 2912 
Q 2438 3322 2406 3610 
Q 2861 3571 3507 3565 
Q 3552 3834 3571 4186 
Q 2490 4173 2086 4147 
L 2086 4646 
Q 2586 4602 3597 4595 
Q 3610 5024 3590 5229 
Q 3840 5184 4294 5184 
Q 4346 5184 4346 5155 
Q 4346 5126 4301 5088 
Q 4192 4998 4128 4595 
Q 5440 4595 6022 4646 
L 6022 4147 
Q 5338 4192 4077 4186 
L 4013 3565 
Q 5043 3565 5434 3610 
Q 5408 3405 5408 2912 
L 5408 102 
Q 5805 109 6118 147 
L 6118 -365 
Q 5754 -320 3965 -320 
Q 2176 -320 1830 -358 
L 1830 147 
Q 2106 122 2438 109 
z
M 4915 2688 
L 4915 3155 
L 2925 3155 
L 2925 2688 
L 4915 2688 
z
M 2925 2323 
L 2925 1824 
L 4915 1824 
L 4915 2323 
L 2925 2323 
z
M 2925 1466 
L 2925 973 
L 4915 973 
L 4915 1466 
L 2925 1466 
z
M 4915 102 
L 4915 608 
L 2925 608 
L 2925 102 
L 4915 102 
z
M 1549 4026 
L 1549 -627 
L 966 -627 
Q 1037 70 1037 749 
L 1037 3066 
Q 845 2726 595 2349 
Q 448 2579 186 2752 
Q 685 3354 944 3933 
Q 1203 4512 1408 5216 
Q 1786 5024 1926 4995 
Q 2067 4966 2067 4918 
Q 2067 4870 1984 4825 
Q 1901 4781 1766 4493 
L 1549 4026 
z
" transform="scale(0.015625)"/>
      <path id="STHeiti-20" transform="scale(0.015625)"/>
     </defs>
     <use xlink:href="#STHeiti-5cf0"/>
     <use xlink:href="#STHeiti-503c" transform="translate(99.999985 0)"/>
     <use xlink:href="#STHeiti-20" transform="translate(199.999969 0)"/>
     <use xlink:href="#STHeiti-32" transform="translate(224.999954 0)"/>
     <use xlink:href="#STHeiti-2e" transform="translate(280.399948 0)"/>
     <use xlink:href="#STHeiti-38" transform="translate(308.099945 0)"/>
     <use xlink:href="#STHeiti-25" transform="translate(363.499939 0)"/>
    </g>
   </g>
   <g id="patch_6">
    <path d="M 521.924686 222.158916 
Q 521.924686 160.683519 521.924686 99.208123 
" style="fill: none; stroke: #c25030; stroke-width: 1.2; stroke-linecap: round"/>
    <path d="M 524.124686 217.758916 
L 521.924686 222.158916 
L 519.724686 217.758916 
" style="fill: none; stroke: #c25030; stroke-width: 1.2; stroke-linecap: round"/>
    <path d="M 519.724686 103.608123 
L 521.924686 99.208123 
L 524.124686 103.608123 
" style="fill: none; stroke: #c25030; stroke-width: 1.2; stroke-linecap: round"/>
   </g>
   <g id="text_14">
    <!-- 0.9pp -->
    <g style="fill: #c25030" transform="translate(535.081694 163.661771) scale(0.09 -0.09)">
     <defs>
      <path id="STHeiti-39" d="M 1229 269 
L 851 512 
L 2093 2394 
Q 1850 2310 1613 2310 
Q 1062 2310 688 2707 
Q 314 3104 314 3696 
Q 314 4288 730 4691 
Q 1146 5094 1750 5094 
Q 2355 5094 2748 4681 
Q 3142 4269 3142 3693 
Q 3142 3373 3011 3049 
Q 2880 2726 2624 2349 
L 1229 269 
z
M 762 3680 
Q 762 3277 1043 2995 
Q 1325 2714 1728 2714 
Q 2131 2714 2412 2998 
Q 2694 3283 2694 3680 
Q 2694 4077 2412 4361 
Q 2131 4646 1728 4646 
Q 1325 4646 1043 4364 
Q 762 4083 762 3680 
z
" transform="scale(0.015625)"/>
      <path id="STHeiti-70" d="M 493 3782 
L 928 3782 
L 928 3162 
Q 1446 3872 2278 3872 
Q 2995 3872 3513 3344 
Q 4032 2816 4032 2073 
Q 4032 1331 3520 800 
Q 3008 269 2291 269 
Q 1510 269 928 966 
L 928 -858 
L 493 -858 
L 493 3782 
z
M 3597 2067 
Q 3597 2637 3203 3043 
Q 2810 3450 2240 3450 
Q 1670 3450 1283 3050 
Q 896 2650 896 2061 
Q 896 1472 1293 1072 
Q 1690 672 2243 672 
Q 2797 672 3197 1078 
Q 3597 1485 3597 2067 
z
" transform="scale(0.015625)"/>
     </defs>
     <use xlink:href="#STHeiti-30"/>
     <use xlink:href="#STHeiti-2e" transform="translate(55.399994 0)"/>
     <use xlink:href="#STHeiti-39" transform="translate(83.099991 0)"/>
     <use xlink:href="#STHeiti-70" transform="translate(138.499985 0)"/>
     <use xlink:href="#STHeiti-70" transform="translate(206.699966 0)"/>
    </g>
   </g>
   <g id="text_15">
    <!-- 2025年 Q1 月度转化率变化 -->
    <g style="fill: #857d74" transform="translate(43.886719 33.934) scale(0.11 -0.11)">
     <defs>
      <path id="STHeiti-35" d="M 3149 4979 
L 3149 4544 
L 1510 4544 
L 1280 3290 
Q 1587 3379 1856 3379 
Q 2458 3379 2861 2953 
Q 3264 2528 3264 1862 
Q 3264 1197 2825 733 
Q 2387 269 1664 269 
Q 1114 269 726 598 
Q 339 928 262 1498 
L 730 1498 
Q 813 1114 1075 909 
Q 1338 704 1683 704 
Q 2138 704 2467 1043 
Q 2797 1382 2797 1888 
Q 2797 2349 2509 2646 
Q 2221 2944 1757 2944 
Q 1293 2944 730 2701 
L 1158 4979 
L 3149 4979 
z
" transform="scale(0.015625)"/>
      <path id="STHeiti-5e74" d="M 2125 4346 
L 3738 4346 
Q 5107 4346 5696 4397 
L 5696 3827 
Q 5088 3878 3770 3878 
L 3770 2886 
Q 4819 2893 5395 2938 
L 5395 2406 
Q 4602 2451 3770 2458 
L 3770 1338 
Q 5658 1338 6080 1395 
L 6080 819 
Q 5709 870 3770 877 
Q 3770 -26 3821 -704 
L 3174 -704 
Q 3226 -19 3226 877 
Q 973 877 371 819 
L 371 1395 
Q 730 1357 1466 1344 
L 1466 2349 
Q 1466 2682 1421 2938 
Q 2093 2886 3226 2886 
L 3226 3878 
L 1862 3878 
Q 1510 3277 1120 2803 
Q 922 2938 563 3040 
Q 973 3430 1341 4028 
Q 1709 4627 1907 5216 
Q 2234 5088 2426 5043 
Q 2618 4998 2618 4966 
Q 2618 4934 2522 4886 
Q 2426 4838 2125 4346 
z
M 3226 2458 
L 1984 2458 
L 1984 1338 
L 3226 1338 
L 3226 2458 
z
" transform="scale(0.015625)"/>
      <path id="STHeiti-51" d="M 4416 883 
L 5094 19 
L 4531 19 
L 4064 614 
Q 3494 269 2822 269 
Q 1779 269 1072 963 
Q 365 1658 365 2662 
Q 365 3693 1049 4393 
Q 1734 5094 2784 5094 
Q 3443 5094 4003 4774 
Q 4563 4454 4883 3897 
Q 5203 3341 5203 2682 
Q 5203 1626 4416 883 
z
M 4134 1242 
Q 4730 1830 4730 2668 
Q 4730 3507 4154 4076 
Q 3578 4646 2778 4646 
Q 1978 4646 1411 4070 
Q 845 3494 845 2659 
Q 845 1824 1421 1270 
Q 1997 717 2790 717 
Q 3322 717 3776 979 
L 2752 2278 
L 3309 2278 
L 4134 1242 
z
" transform="scale(0.015625)"/>
      <path id="STHeiti-5ea6" d="M 3661 4557 
Q 5344 4563 5779 4614 
L 5779 4090 
Q 5133 4147 4275 4147 
L 1510 4147 
Q 1542 3526 1542 2995 
Q 1542 1786 1379 931 
Q 1216 77 858 -557 
Q 608 -294 326 -160 
Q 685 352 851 1081 
Q 1018 1811 1018 2726 
Q 1018 3642 934 4614 
Q 1446 4563 3059 4557 
Q 3008 4806 2854 5101 
L 3437 5210 
Q 3533 4909 3661 4557 
z
M 2522 3430 
Q 2515 3840 2464 3987 
Q 2707 3923 2938 3923 
L 3053 3930 
Q 3091 3930 3091 3907 
Q 3091 3885 3059 3846 
Q 2989 3770 2982 3430 
L 4269 3430 
Q 4269 3898 4230 4045 
Q 4454 3974 4685 3974 
L 4845 3987 
Q 4877 3987 4877 3968 
Q 4877 3949 4838 3910 
Q 4774 3840 4768 3430 
Q 5472 3437 5888 3482 
L 5888 3014 
Q 5421 3066 4768 3072 
L 4768 2746 
Q 4768 2336 4813 2086 
Q 4538 2138 3658 2138 
Q 2778 2138 2477 2086 
Q 2522 2387 2522 2707 
L 2522 3066 
Q 2074 3059 1773 3014 
L 1773 3482 
Q 2080 3437 2522 3430 
z
M 2982 3072 
L 2982 2522 
L 4269 2522 
L 4269 3072 
L 2982 3072 
z
M 2336 1382 
Q 1997 1363 1843 1344 
L 1843 1824 
Q 2541 1766 3574 1766 
Q 4608 1766 5267 1824 
Q 4787 851 4090 365 
Q 4832 83 5760 83 
Q 5907 83 6067 90 
Q 5824 -192 5779 -557 
Q 4499 -422 3629 64 
Q 2976 -307 1869 -582 
Q 1773 -326 1459 -26 
Q 2278 13 3168 358 
Q 2707 723 2336 1382 
z
M 2880 1389 
Q 3162 877 3622 582 
Q 4147 928 4435 1389 
L 2880 1389 
z
" transform="scale(0.015625)"/>
      <path id="STHeiti-53d8" d="M 2272 4058 
Q 1350 4058 602 3987 
L 602 4563 
Q 1555 4493 2957 4493 
Q 2867 4832 2694 5056 
L 3302 5210 
Q 3437 4768 3507 4493 
Q 4922 4493 5869 4563 
L 5869 3987 
Q 5152 4058 4045 4058 
L 4045 2842 
Q 4045 2470 4083 2208 
L 3507 2208 
Q 3546 2470 3546 2842 
L 3546 4058 
L 2752 4058 
L 2752 2842 
Q 2752 2470 2790 2208 
L 2240 2208 
Q 2272 2483 2272 2842 
L 2272 4058 
z
M 1446 3808 
Q 1568 3680 1894 3514 
Q 1952 3482 1952 3446 
Q 1952 3411 1881 3398 
Q 1811 3386 1635 3194 
Q 1459 3002 890 2304 
Q 774 2464 416 2637 
Q 1018 3072 1446 3808 
z
M 5946 2650 
L 5478 2285 
Q 4877 3040 4346 3411 
L 4710 3744 
Q 5453 3181 5946 2650 
z
M 1459 1587 
Q 1280 1581 941 1549 
L 941 2086 
Q 1466 2022 3078 2022 
Q 4691 2022 5210 2086 
Q 4730 1107 3616 397 
Q 4499 83 5523 83 
Q 5741 83 5958 96 
Q 5715 -160 5594 -512 
Q 4358 -410 3136 122 
Q 2061 -384 736 -582 
Q 672 -282 429 -32 
Q 1696 -13 2624 378 
Q 2061 717 1459 1587 
z
M 2003 1594 
Q 2451 966 3110 608 
Q 3936 1030 4275 1594 
L 2003 1594 
z
" transform="scale(0.015625)"/>
     </defs>
     <use xlink:href="#STHeiti-32"/>
     <use xlink:href="#STHeiti-30" transform="translate(55.399994 0)"/>
     <use xlink:href="#STHeiti-32" transform="translate(110.799988 0)"/>
     <use xlink:href="#STHeiti-35" transform="translate(166.199982 0)"/>
     <use xlink:href="#STHeiti-5e74" transform="translate(221.599976 0)"/>
     <use xlink:href="#STHeiti-20" transform="translate(321.59996 0)"/>
     <use xlink:href="#STHeiti-51" transform="translate(346.599945 0)"/>
     <use xlink:href="#STHeiti-31" transform="translate(433.699936 0)"/>
     <use xlink:href="#STHeiti-20" transform="translate(489.09993 0)"/>
     <use xlink:href="#STHeiti-6708" transform="translate(514.099915 0)"/>
     <use xlink:href="#STHeiti-5ea6" transform="translate(614.099899 0)"/>
     <use xlink:href="#STHeiti-8f6c" transform="translate(714.099884 0)"/>
     <use xlink:href="#STHeiti-5316" transform="translate(814.099869 0)"/>
     <use xlink:href="#STHeiti-7387" transform="translate(914.099854 0)"/>
     <use xlink:href="#STHeiti-53d8" transform="translate(1014.099838 0)"/>
     <use xlink:href="#STHeiti-5316" transform="translate(1114.099823 0)"/>
    </g>
   </g>
   <g id="text_16">
    <!-- B/D 转化率稳步上升，C/F 三月无进展 -->
    <g style="fill: #6b3410" transform="translate(43.886719 20.255) scale(0.16 -0.16)">
     <defs>
      <path id="STHeiti-42" d="M 570 4979 
L 1478 4979 
Q 2202 4979 2576 4688 
Q 2950 4397 2950 3853 
Q 2950 3552 2800 3299 
Q 2650 3046 2362 2893 
Q 2835 2739 3081 2432 
Q 3328 2125 3328 1702 
Q 3328 1133 2912 758 
Q 2496 384 1837 384 
L 570 384 
L 570 4979 
z
M 1024 4531 
L 1024 3059 
L 1286 3059 
Q 1888 3059 2182 3251 
Q 2477 3443 2477 3853 
Q 2477 4531 1555 4531 
L 1024 4531 
z
M 1024 2598 
L 1024 832 
L 1594 832 
Q 2086 832 2320 931 
Q 2554 1030 2701 1238 
Q 2848 1446 2848 1664 
Q 2848 1882 2765 2048 
Q 2682 2214 2518 2342 
Q 2355 2470 2128 2534 
Q 1901 2598 1280 2598 
L 1024 2598 
z
" transform="scale(0.015625)"/>
      <path id="STHeiti-2f" d="M 2611 5094 
L 704 -243 
L 224 -243 
L 2131 5094 
L 2611 5094 
z
" transform="scale(0.015625)"/>
      <path id="STHeiti-44" d="M 557 384 
L 557 4979 
L 1510 4979 
Q 2490 4979 2947 4835 
Q 3405 4691 3737 4380 
Q 4070 4070 4249 3622 
Q 4429 3174 4429 2576 
Q 4429 1978 4150 1450 
Q 3872 922 3395 653 
Q 2918 384 2022 384 
L 557 384 
z
M 998 819 
L 1530 819 
Q 2362 819 2736 902 
Q 3110 986 3392 1232 
Q 3674 1478 3821 1830 
Q 3968 2182 3968 2636 
Q 3968 3091 3798 3475 
Q 3629 3859 3315 4108 
Q 3002 4358 2576 4444 
Q 2150 4531 1325 4531 
L 998 4531 
L 998 819 
z
" transform="scale(0.015625)"/>
      <path id="STHeiti-7a33" d="M 3360 4262 
Q 3098 3955 2765 3661 
Q 2650 3738 2330 3898 
Q 2765 4179 3017 4467 
Q 3270 4755 3462 5235 
Q 3654 5152 3962 5069 
Q 4006 5056 4006 5030 
Q 4006 5005 3929 4950 
Q 3853 4896 3635 4621 
L 4730 4621 
Q 5222 4621 5517 4646 
L 4755 3616 
Q 5280 3622 5875 3654 
Q 5850 3366 5850 2784 
L 5850 1498 
Q 3539 1498 2701 1459 
L 2701 1933 
Q 3110 1901 5363 1901 
L 5363 2374 
L 4301 2374 
Q 3251 2374 2874 2362 
L 2874 2746 
Q 3264 2733 4339 2733 
L 5363 2733 
L 5363 3226 
Q 2899 3226 2726 3194 
L 2726 3654 
Q 3162 3616 4237 3616 
L 4698 4262 
L 3360 4262 
z
M 1293 4250 
L 742 4090 
Q 634 4358 493 4550 
Q 1658 4634 2323 5107 
Q 2413 4915 2637 4672 
Q 2688 4614 2688 4582 
Q 2688 4550 2624 4550 
L 2528 4557 
Q 2374 4557 1734 4371 
L 1734 3341 
Q 2202 3347 2458 3392 
L 2458 2906 
Q 2221 2938 1734 2957 
L 1734 2419 
L 2093 2541 
Q 2330 2195 2541 1786 
L 2182 1581 
Q 2003 1958 1734 2355 
L 1734 531 
Q 1734 102 1779 -570 
L 1248 -570 
Q 1293 102 1293 531 
L 1293 2035 
Q 1050 1408 576 730 
Q 429 973 269 1146 
Q 1030 1990 1280 2957 
Q 794 2950 397 2906 
L 397 3392 
Q 774 3341 1293 3341 
L 1293 4250 
z
M 4698 659 
L 4256 506 
Q 4115 966 3859 1267 
L 4307 1363 
Q 4493 1082 4698 659 
z
M 6195 45 
L 5690 -173 
Q 5414 538 5126 1024 
L 5555 1190 
Q 5882 582 6195 45 
z
M 3008 1024 
Q 2797 410 2630 -211 
L 2138 -38 
Q 2458 512 2509 1178 
L 3008 1024 
z
M 5286 326 
Q 5146 -294 4992 -364 
Q 4838 -435 4204 -435 
Q 3571 -435 3446 -393 
Q 3322 -352 3280 -288 
Q 3238 -224 3238 96 
L 3238 595 
Q 3238 1011 3200 1152 
Q 3507 1082 3635 1075 
Q 3763 1069 3763 1043 
Q 3763 1018 3708 957 
Q 3654 896 3654 774 
L 3654 179 
Q 3654 45 3696 13 
Q 3738 -19 4198 -19 
Q 4403 -19 4547 3 
Q 4691 26 4745 186 
Q 4800 346 4826 550 
Q 5030 371 5286 326 
z
" transform="scale(0.015625)"/>
      <path id="STHeiti-6b65" d="M 3526 4461 
Q 5056 4461 5478 4499 
L 5478 3974 
Q 5056 4013 3526 4013 
L 3526 3098 
Q 5062 3098 6035 3155 
L 6035 2605 
Q 4915 2669 3257 2669 
Q 1600 2669 467 2605 
L 467 3162 
Q 947 3104 1555 3098 
L 1555 4006 
Q 1555 4365 1510 4717 
Q 1696 4678 2170 4678 
Q 2221 4678 2221 4652 
Q 2221 4627 2147 4579 
Q 2074 4531 2074 4403 
L 2074 3098 
L 3008 3098 
L 3008 4570 
Q 3008 4979 2963 5274 
Q 3277 5235 3584 5235 
Q 3667 5235 3667 5203 
Q 3667 5171 3622 5146 
Q 3526 5101 3526 4966 
L 3526 4461 
z
M 2976 262 
L 2976 1683 
Q 2976 2163 2931 2406 
Q 3213 2381 3571 2381 
Q 3674 2381 3674 2345 
Q 3674 2310 3610 2265 
Q 3546 2221 3520 2169 
Q 3494 2118 3494 2029 
L 3494 531 
Q 4365 1114 4960 2285 
Q 5088 2170 5245 2070 
Q 5402 1971 5494 1939 
Q 5587 1907 5587 1875 
Q 5587 1843 5500 1814 
Q 5414 1786 4717 915 
Q 4192 275 3225 -128 
Q 2259 -531 902 -659 
Q 870 -358 666 -83 
Q 1286 -83 1907 9 
Q 2528 102 2976 262 
z
M 1741 2170 
Q 2022 1978 2298 1933 
Q 2381 1914 2381 1888 
Q 2381 1862 2323 1837 
Q 2176 1773 1274 621 
Q 1056 838 755 960 
Q 1037 1133 1312 1472 
Q 1587 1811 1741 2170 
z
" transform="scale(0.015625)"/>
      <path id="STHeiti-4e0a" d="M 3270 390 
Q 5075 390 6022 454 
L 6022 -186 
Q 5069 -122 3219 -122 
Q 1370 -122 422 -186 
L 422 454 
Q 1242 397 2675 390 
L 2675 3488 
Q 2675 4832 2624 5101 
Q 2950 5043 3366 5043 
Q 3462 5043 3462 5001 
Q 3462 4960 3401 4915 
Q 3341 4870 3305 4707 
Q 3270 4544 3270 4326 
L 3270 3482 
L 4115 3482 
Q 4922 3482 5472 3533 
L 5472 2899 
Q 5030 2950 4115 2950 
L 3270 2950 
L 3270 390 
z
" transform="scale(0.015625)"/>
      <path id="STHeiti-5347" d="M 4614 2752 
Q 5581 2765 6054 2803 
L 6054 2189 
Q 5696 2227 4614 2240 
L 4614 454 
Q 4614 -19 4672 -518 
L 3981 -518 
Q 4038 -19 4038 454 
L 4038 2246 
L 2566 2246 
Q 2534 1242 2211 637 
Q 1888 32 1005 -570 
Q 749 -166 397 -38 
Q 1235 288 1593 813 
Q 1952 1338 1990 2246 
Q 1050 2246 320 2189 
L 320 2803 
Q 1133 2752 1997 2752 
L 1997 4006 
Q 1395 3795 922 3693 
Q 819 4013 589 4237 
Q 1222 4224 1952 4512 
Q 2682 4800 3021 5126 
Q 3245 4800 3488 4582 
Q 3539 4531 3539 4492 
Q 3539 4454 3488 4454 
L 3398 4467 
Q 3264 4467 2573 4211 
L 2573 2752 
L 4038 2752 
L 4038 4262 
Q 4038 5056 3962 5178 
Q 4282 5114 4659 5114 
Q 4787 5114 4787 5072 
Q 4787 5030 4700 4988 
Q 4614 4947 4614 4723 
L 4614 2752 
z
" transform="scale(0.015625)"/>
      <path id="STHeiti-ff0c" d="M 1952 435 
Q 1952 0 1776 -253 
Q 1600 -506 1286 -557 
L 1286 -262 
Q 1626 -224 1626 384 
L 1286 384 
L 1286 1062 
L 1952 1062 
L 1952 435 
z
" transform="scale(0.015625)"/>
      <path id="STHeiti-43" d="M 4838 4128 
L 4480 3853 
Q 3840 4646 2835 4646 
Q 2016 4646 1424 4070 
Q 832 3494 832 2659 
Q 832 1824 1411 1264 
Q 1990 704 2861 704 
Q 3834 704 4480 1459 
L 4838 1184 
Q 4499 736 3980 502 
Q 3462 269 2835 269 
Q 1741 269 1043 960 
Q 346 1651 346 2707 
Q 346 3360 669 3913 
Q 992 4467 1565 4780 
Q 2138 5094 2797 5094 
Q 3456 5094 3981 4844 
Q 4506 4595 4838 4128 
z
" transform="scale(0.015625)"/>
      <path id="STHeiti-46" d="M 557 4979 
L 2861 4979 
L 2861 4525 
L 1018 4525 
L 1018 3091 
L 2861 3091 
L 2861 2637 
L 1018 2637 
L 1018 384 
L 557 384 
L 557 4979 
z
" transform="scale(0.015625)"/>
      <path id="STHeiti-4e09" d="M 5427 3936 
Q 4678 4000 3212 4000 
Q 1747 4000 998 3936 
L 998 4576 
Q 1754 4512 3216 4512 
Q 4678 4512 5427 4576 
L 5427 3936 
z
M 5011 2061 
Q 4397 2125 3187 2125 
Q 1978 2125 1363 2061 
L 1363 2701 
Q 1990 2637 3193 2637 
Q 4397 2637 5011 2701 
L 5011 2061 
z
M 5901 -26 
Q 4992 38 3219 38 
Q 1446 38 538 -26 
L 538 614 
Q 1453 550 3222 550 
Q 4992 550 5901 614 
L 5901 -26 
z
" transform="scale(0.015625)"/>
      <path id="STHeiti-65e0" d="M 3181 3021 
Q 5050 3021 5856 3066 
L 5856 2496 
Q 5229 2534 4006 2534 
L 4006 512 
Q 4006 365 4096 313 
Q 4186 262 4547 262 
Q 4909 262 5075 304 
Q 5242 346 5306 499 
Q 5370 653 5446 1120 
Q 5818 749 6042 749 
Q 5901 237 5776 41 
Q 5651 -154 5382 -218 
Q 5114 -282 4474 -282 
Q 3834 -282 3648 -179 
Q 3462 -77 3462 352 
L 3462 2541 
L 3091 2541 
Q 2861 1421 2390 765 
Q 1920 109 890 -480 
Q 685 -205 397 13 
Q 1318 371 1833 976 
Q 2349 1581 2541 2541 
Q 1222 2528 602 2496 
L 602 3066 
Q 1235 3034 2618 3021 
Q 2682 3680 2688 4339 
Q 1651 4326 1165 4294 
L 1165 4870 
Q 1792 4826 3129 4826 
Q 4467 4826 5306 4870 
L 5306 4294 
Q 4698 4339 3277 4339 
Q 3277 3706 3181 3021 
z
" transform="scale(0.015625)"/>
      <path id="STHeiti-8fdb" d="M 4851 4115 
Q 5350 4115 5818 4166 
L 5818 3642 
Q 5350 3693 4851 3693 
L 4851 2662 
Q 5472 2662 5958 2714 
L 5958 2189 
Q 5472 2240 4851 2240 
L 4851 1530 
Q 4851 832 4896 378 
L 4320 378 
Q 4365 947 4365 1530 
L 4365 2240 
L 3443 2240 
Q 3392 1709 3235 1312 
Q 3078 915 2694 358 
Q 2362 608 2010 634 
Q 2752 1043 2957 2240 
Q 2387 2227 1965 2189 
L 1965 2714 
Q 2419 2662 3008 2662 
Q 3034 2918 3040 3693 
Q 2560 3693 2118 3642 
L 2118 4166 
Q 2560 4115 3034 4115 
Q 3021 4698 2957 5235 
Q 3206 5190 3558 5190 
Q 3642 5190 3642 5161 
Q 3642 5133 3578 5056 
Q 3494 4966 3507 4115 
L 4365 4115 
Q 4365 4870 4314 5235 
Q 4422 5210 4915 5210 
Q 4998 5210 4998 5168 
Q 4998 5126 4953 5081 
Q 4909 5037 4880 4877 
Q 4851 4717 4851 4576 
L 4851 4115 
z
M 4365 3693 
L 3514 3693 
Q 3514 3110 3482 2662 
L 4365 2662 
L 4365 3693 
z
M 1709 3955 
L 1133 3706 
Q 986 4307 634 4800 
L 1197 5018 
Q 1459 4506 1709 3955 
z
M 1568 563 
Q 1734 499 1933 384 
Q 2490 77 3802 77 
Q 4819 77 6067 275 
Q 5888 -70 5888 -378 
Q 4890 -435 4112 -435 
Q 3334 -435 2755 -336 
Q 2176 -237 1683 19 
Q 1446 141 1324 141 
Q 1203 141 1068 9 
Q 934 -122 717 -416 
Q 518 -166 288 0 
Q 813 493 1043 576 
L 1043 2618 
Q 525 2618 416 2592 
L 416 3142 
Q 659 3110 988 3110 
Q 1318 3110 1613 3142 
Q 1568 2842 1568 2394 
L 1568 563 
z
" transform="scale(0.015625)"/>
      <path id="STHeiti-5c55" d="M 2694 1542 
L 2694 122 
Q 3213 397 3501 627 
Q 3501 358 3597 122 
Q 2560 -384 2374 -678 
Q 2195 -339 1971 -147 
Q 2106 -83 2160 13 
Q 2214 109 2214 326 
L 2214 1542 
L 1459 1542 
Q 1395 403 922 -550 
Q 704 -294 384 -198 
Q 781 397 880 953 
Q 979 1510 979 2412 
Q 979 3315 922 4979 
Q 1530 4915 3286 4915 
Q 5043 4915 5574 4979 
Q 5530 4723 5530 4288 
Q 5530 3853 5574 3501 
Q 5382 3526 5084 3526 
Q 4787 3526 4512 3520 
L 4512 2976 
Q 5171 2989 5542 3027 
L 5542 2522 
Q 5139 2573 4512 2573 
L 4512 1939 
Q 5722 1946 6016 2003 
L 6016 1472 
Q 5619 1542 3763 1542 
Q 3923 1094 4314 742 
Q 4794 1171 4973 1485 
Q 5062 1408 5232 1309 
Q 5402 1210 5472 1187 
Q 5542 1165 5542 1120 
Q 5542 1075 5465 1075 
Q 5389 1075 5181 940 
Q 4973 806 4666 538 
Q 5414 173 6150 160 
Q 5901 -102 5882 -467 
Q 4806 -237 4230 214 
Q 3654 666 3334 1542 
L 2694 1542 
z
M 5005 3930 
L 5005 4493 
L 1498 4493 
L 1498 3930 
L 5005 3930 
z
M 3091 2976 
L 4026 2976 
L 4026 3520 
L 3091 3520 
L 3091 2976 
z
M 2605 2566 
Q 2298 2560 1875 2522 
L 1875 3027 
Q 2163 2995 2605 2982 
L 2605 3520 
L 1498 3520 
Q 1510 2432 1485 1939 
L 2605 1939 
L 2605 2566 
z
M 4026 2573 
L 3091 2573 
L 3091 1939 
L 4026 1939 
L 4026 2573 
z
" transform="scale(0.015625)"/>
     </defs>
     <use xlink:href="#STHeiti-42"/>
     <use xlink:href="#STHeiti-2f" transform="translate(57.399994 0)"/>
     <use xlink:href="#STHeiti-44" transform="translate(101.099991 0)"/>
     <use xlink:href="#STHeiti-20" transform="translate(175.499985 0)"/>
     <use xlink:href="#STHeiti-8f6c" transform="translate(200.499969 0)"/>
     <use xlink:href="#STHeiti-5316" transform="translate(300.499954 0)"/>
     <use xlink:href="#STHeiti-7387" transform="translate(400.499939 0)"/>
     <use xlink:href="#STHeiti-7a33" transform="translate(500.499924 0)"/>
     <use xlink:href="#STHeiti-6b65" transform="translate(600.499908 0)"/>
     <use xlink:href="#STHeiti-4e0a" transform="translate(700.499893 0)"/>
     <use xlink:href="#STHeiti-5347" transform="translate(800.499878 0)"/>
     <use xlink:href="#STHeiti-ff0c" transform="translate(900.499863 0)"/>
     <use xlink:href="#STHeiti-43" transform="translate(1000.499847 0)"/>
     <use xlink:href="#STHeiti-2f" transform="translate(1081.799835 0)"/>
     <use xlink:href="#STHeiti-46" transform="translate(1125.499832 0)"/>
     <use xlink:href="#STHeiti-20" transform="translate(1173.999817 0)"/>
     <use xlink:href="#STHeiti-4e09" transform="translate(1198.999802 0)"/>
     <use xlink:href="#STHeiti-6708" transform="translate(1298.999786 0)"/>
     <use xlink:href="#STHeiti-65e0" transform="translate(1398.999771 0)"/>
     <use xlink:href="#STHeiti-8fdb" transform="translate(1498.999756 0)"/>
     <use xlink:href="#STHeiti-5c55" transform="translate(1598.999741 0)"/>
    </g>
   </g>
   <g id="line2d_24">
    <path d="M 65.815066 139.078333 
L 285.098537 67.061667 
L 504.382008 95.868333 
" clip-path="url(#p7064d5cb41)" style="fill: none; stroke: #2e8b6e; stroke-width: 2.5; stroke-linecap: square"/>
    <defs>
     <path id="mcdd150befd" d="M 0 3 
C 0.795609 3 1.55874 2.683901 2.12132 2.12132 
C 2.683901 1.55874 3 0.795609 3 0 
C 3 -0.795609 2.683901 -1.55874 2.12132 -2.12132 
C 1.55874 -2.683901 0.795609 -3 0 -3 
C -0.795609 -3 -1.55874 -2.683901 -2.12132 -2.12132 
C -2.683901 -1.55874 -3 -0.795609 -3 0 
C -3 0.795609 -2.683901 1.55874 -2.12132 2.12132 
C -1.55874 2.683901 -0.795609 3 0 3 
z
" style="stroke: #2e8b6e"/>
    </defs>
    <g clip-path="url(#p7064d5cb41)">
     <use xlink:href="#mcdd150befd" x="65.815066" y="139.078333" style="fill: #2e8b6e; stroke: #2e8b6e"/>
     <use xlink:href="#mcdd150befd" x="285.098537" y="67.061667" style="fill: #2e8b6e; stroke: #2e8b6e"/>
     <use xlink:href="#mcdd150befd" x="504.382008" y="95.868333" style="fill: #2e8b6e; stroke: #2e8b6e"/>
    </g>
   </g>
   <g id="line2d_25">
    <path d="M 65.815066 153.481667 
L 285.098537 95.868333 
L 504.382008 110.271667 
" clip-path="url(#p7064d5cb41)" style="fill: none; stroke: #2e8b6e; stroke-width: 2.5; stroke-linecap: square"/>
    <g clip-path="url(#p7064d5cb41)">
     <use xlink:href="#mcdd150befd" x="65.815066" y="153.481667" style="fill: #2e8b6e; stroke: #2e8b6e"/>
     <use xlink:href="#mcdd150befd" x="285.098537" y="95.868333" style="fill: #2e8b6e; stroke: #2e8b6e"/>
     <use xlink:href="#mcdd150befd" x="504.382008" y="110.271667" style="fill: #2e8b6e; stroke: #2e8b6e"/>
    </g>
   </g>
   <g id="legend_1">
    <g id="line2d_26">
     <path d="M 447.574101 54.689437 
L 456.574101 54.689437 
L 465.574101 54.689437 
" style="fill: none; stroke: #c26d3a; stroke-width: 1.5; stroke-linecap: square"/>
     <g>
      <use xlink:href="#m71e94d23c0" x="456.574101" y="54.689437" style="fill: #c26d3a; stroke: #c26d3a; stroke-linejoin: miter"/>
     </g>
    </g>
    <g id="text_17">
     <!-- A组 -->
     <g style="fill: #857d74" transform="translate(472.774101 57.839437) scale(0.09 -0.09)">
      <defs>
       <path id="STHeiti-41" d="M 2438 5165 
L 4582 384 
L 4090 384 
L 3366 1952 
L 1382 1952 
L 666 384 
L 154 384 
L 2323 5165 
L 2438 5165 
z
M 2381 4147 
L 1594 2419 
L 3162 2419 
L 2381 4147 
z
" transform="scale(0.015625)"/>
       <path id="STHeiti-7ec4" d="M 1594 2829 
L 1011 2758 
Q 698 2726 531 2669 
Q 499 2957 390 3181 
Q 832 3443 1427 5101 
Q 1773 4902 1933 4860 
Q 2093 4819 2093 4787 
Q 2093 4755 2029 4729 
Q 1965 4704 1885 4608 
Q 1805 4512 1530 4083 
L 922 3123 
L 1805 3194 
Q 2067 3731 2221 4109 
Q 2490 3949 2746 3853 
Q 2803 3827 2803 3801 
Q 2803 3776 2752 3744 
Q 2701 3712 2608 3590 
Q 2515 3469 2138 2899 
L 1286 1626 
Q 1875 1670 2458 1760 
Q 2394 1549 2406 1280 
L 1190 1190 
Q 826 1165 608 1075 
Q 570 1344 467 1542 
Q 973 1811 1594 2829 
z
M 5594 141 
Q 6022 154 6131 173 
L 6131 -352 
Q 6093 -326 4371 -326 
Q 2650 -326 2400 -365 
L 2400 173 
Q 2554 147 2944 147 
L 2944 4218 
Q 2944 4666 2925 4864 
Q 3514 4832 4269 4832 
Q 5024 4832 5613 4864 
Q 5594 4672 5594 4218 
L 5594 141 
z
M 3450 3270 
L 5075 3270 
L 5075 4384 
L 3450 4384 
L 3450 3270 
z
M 3450 1773 
L 5075 1773 
L 5075 2816 
L 3450 2816 
L 3450 1773 
z
M 5075 1312 
L 3450 1312 
L 3450 141 
L 5075 141 
L 5075 1312 
z
M 2483 755 
Q 2445 634 2445 506 
Q 2445 378 2464 269 
Q 954 -38 493 -352 
Q 467 -45 352 294 
Q 1114 397 2483 755 
z
" transform="scale(0.015625)"/>
      </defs>
      <use xlink:href="#STHeiti-41"/>
      <use xlink:href="#STHeiti-7ec4" transform="translate(73.999985 0)"/>
     </g>
    </g>
    <g id="line2d_27">
     <path d="M 447.574101 67.559437 
L 456.574101 67.559437 
L 465.574101 67.559437 
" style="fill: none; stroke: #2e8b6e; stroke-width: 2.5; stroke-linecap: square"/>
     <g>
      <use xlink:href="#mcdd150befd" x="456.574101" y="67.559437" style="fill: #2e8b6e; stroke: #2e8b6e"/>
     </g>
    </g>
    <g id="text_18">
     <!-- B组 -->
     <g style="fill: #857d74" transform="translate(472.774101 70.709437) scale(0.09 -0.09)">
      <use xlink:href="#STHeiti-42"/>
      <use xlink:href="#STHeiti-7ec4" transform="translate(57.399994 0)"/>
     </g>
    </g>
    <g id="line2d_28">
     <path d="M 447.574101 80.429437 
L 456.574101 80.429437 
L 465.574101 80.429437 
" style="fill: none; stroke-dasharray: 3.7,1.6; stroke-dashoffset: 0; stroke: #ada599"/>
     <g>
      <use xlink:href="#m2af7f51668" x="456.574101" y="80.429437" style="fill: #ada599; stroke: #ada599; stroke-linejoin: miter"/>
     </g>
    </g>
    <g id="text_19">
     <!-- C组 -->
     <g style="fill: #857d74" transform="translate(472.774101 83.579437) scale(0.09 -0.09)">
      <use xlink:href="#STHeiti-43"/>
      <use xlink:href="#STHeiti-7ec4" transform="translate(81.299988 0)"/>
     </g>
    </g>
    <g id="line2d_29">
     <path d="M 447.574101 93.299437 
L 456.574101 93.299437 
L 465.574101 93.299437 
" style="fill: none; stroke: #2e8b6e; stroke-width: 2.5; stroke-linecap: square"/>
     <g>
      <use xlink:href="#mcdd150befd" x="456.574101" y="93.299437" style="fill: #2e8b6e; stroke: #2e8b6e"/>
     </g>
    </g>
    <g id="text_20">
     <!-- D组 -->
     <g style="fill: #857d74" transform="translate(472.774101 96.449437) scale(0.09 -0.09)">
      <use xlink:href="#STHeiti-44"/>
      <use xlink:href="#STHeiti-7ec4" transform="translate(74.399994 0)"/>
     </g>
    </g>
    <g id="line2d_30">
     <path d="M 447.574101 106.169437 
L 456.574101 106.169437 
L 465.574101 106.169437 
" style="fill: none; stroke: #c26d3a; stroke-width: 1.5; stroke-linecap: square"/>
     <g>
      <use xlink:href="#m71e94d23c0" x="456.574101" y="106.169437" style="fill: #c26d3a; stroke: #c26d3a; stroke-linejoin: miter"/>
     </g>
    </g>
    <g id="text_21">
     <!-- E组 -->
     <g style="fill: #857d74" transform="translate(472.774101 109.319437) scale(0.09 -0.09)">
      <defs>
       <path id="STHeiti-45" d="M 563 4979 
L 3200 4979 
L 3200 4525 
L 1024 4525 
L 1024 3091 
L 3181 3091 
L 3181 2643 
L 1024 2643 
L 1024 838 
L 3181 838 
L 3181 384 
L 563 384 
L 563 4979 
z
" transform="scale(0.015625)"/>
      </defs>
      <use xlink:href="#STHeiti-45"/>
      <use xlink:href="#STHeiti-7ec4" transform="translate(53.599991 0)"/>
     </g>
    </g>
    <g id="line2d_31">
     <path d="M 447.574101 119.039437 
L 456.574101 119.039437 
L 465.574101 119.039437 
" style="fill: none; stroke-dasharray: 3.7,1.6; stroke-dashoffset: 0; stroke: #ada599"/>
     <g>
      <use xlink:href="#m2af7f51668" x="456.574101" y="119.039437" style="fill: #ada599; stroke: #ada599; stroke-linejoin: miter"/>
     </g>
    </g>
    <g id="text_22">
     <!-- F组 -->
     <g style="fill: #857d74" transform="translate(472.774101 122.189437) scale(0.09 -0.09)">
      <use xlink:href="#STHeiti-46"/>
      <use xlink:href="#STHeiti-7ec4" transform="translate(48.499985 0)"/>
     </g>
    </g>
   </g>
  </g>
 </g>
 <defs>
  <clipPath id="p7064d5cb41">
   <rect x="43.886719" y="38.255" width="482.423636" height="216.05"/>
  </clipPath>
 </defs>
</svg>
