<?xml version="1.0" encoding="utf-8" standalone="no"?>
<!DOCTYPE svg PUBLIC "-//W3C//DTD SVG 1.1//EN"
  "http://www.w3.org/Graphics/SVG/1.1/DTD/svg11.dtd">
<svg xmlns:xlink="http://www.w3.org/1999/xlink" width="417.996365pt" height="350.4475pt" viewBox="0 0 417.996365 350.4475" xmlns="http://www.w3.org/2000/svg" version="1.1">
 <metadata>
  <rdf:RDF xmlns:dc="http://purl.org/dc/elements/1.1/" xmlns:cc="http://creativecommons.org/ns#" xmlns:rdf="http://www.w3.org/1999/02/22-rdf-syntax-ns#">
   <cc:Work>
    <dc:type rdf:resource="http://purl.org/dc/dcmitype/StillImage"/>
    <dc:date>2026-05-05T13:01:18.911953</dc:date>
    <dc:format>image/svg+xml</dc:format>
    <dc:creator>
     <cc:Agent>
      <dc:title>Matplotlib v3.10.9, https://matplotlib.org/</dc:title>
     </cc:Agent>
    </dc:creator>
   </cc:Work>
  </rdf:RDF>
 </metadata>
 <defs>
  <style type="text/css">*{stroke-linejoin: round; stroke-linecap: butt}</style>
 </defs>
 <g id="figure_1">
  <g id="patch_1">
   <path d="M 0 350.4475 
L 417.996365 350.4475 
L 417.996365 0 
L 0 0 
z
" style="fill: #ffffff"/>
  </g>
  <g id="axes_1">
   <g id="patch_2">
    <path d="M 23.586942 108.9775 
L 351.325785 108.9775 
L 234.614446 161.38 
L 140.298282 161.38 
z
" clip-path="url(#paf2da93eee)" style="fill: #2e8b6e; opacity: 0.85; stroke: #ffffff; stroke-width: 2; stroke-linejoin: miter"/>
   </g>
   <g id="patch_3">
    <path d="M 140.298282 170.6275 
L 234.614446 170.6275 
L 192.469661 223.03 
L 182.443066 223.03 
z
" clip-path="url(#paf2da93eee)" style="fill: #c25030; opacity: 0.85; stroke: #ffffff; stroke-width: 2; stroke-linejoin: miter"/>
   </g>
   <g id="patch_4">
    <path d="M 182.443066 232.2775 
L 192.469661 232.2775 
L 188.485557 284.68 
L 186.42717 284.68 
z
" clip-path="url(#paf2da93eee)" style="fill: #3a9e7e; opacity: 0.85; stroke: #ffffff; stroke-width: 2; stroke-linejoin: miter"/>
   </g>
   <g id="patch_5">
    <path d="M 186.42717 293.9275 
L 188.485557 293.9275 
L 187.765122 346.33 
L 187.147606 346.33 
z
" clip-path="url(#paf2da93eee)" style="fill: #2e8b6e; opacity: 0.85; stroke: #ffffff; stroke-width: 2; stroke-linejoin: miter"/>
   </g>
   <g id="text_1">
    <!-- 外呼总量 -->
    <g style="fill: #ffffff" transform="translate(165.456364 128.226266) scale(0.11 -0.11)">
     <defs>
      <path id="STHeiti-5916" d="M 4320 3098 
L 4320 730 
Q 4320 -38 4378 -499 
L 3718 -499 
Q 3776 -38 3776 730 
L 3776 4365 
Q 3776 4941 3718 5267 
Q 4070 5203 4365 5203 
Q 4493 5203 4493 5168 
Q 4493 5133 4403 5075 
Q 4320 5011 4320 4819 
L 4320 3648 
Q 5363 2893 6150 1965 
L 5670 1536 
Q 5024 2458 4320 3098 
z
M 2355 1926 
Q 2618 2579 2701 3450 
L 1632 3450 
Q 1261 2432 819 1766 
Q 544 2042 301 2074 
Q 742 2490 1097 3402 
Q 1453 4314 1485 5107 
Q 1914 4986 2163 4960 
Q 2246 4947 2246 4912 
Q 2246 4877 2169 4816 
Q 2093 4755 1974 4406 
Q 1856 4058 1798 3910 
Q 3002 3891 3283 3949 
Q 3238 3162 3065 2432 
Q 2893 1702 2669 1337 
Q 2445 973 2025 547 
Q 1606 122 966 -320 
Q 749 -32 371 115 
Q 1638 691 2118 1459 
Q 1805 1997 1395 2310 
L 1766 2662 
Q 2054 2374 2355 1926 
z
" transform="scale(0.015625)"/>
      <path id="STHeiti-547c" d="M 3955 4352 
Q 3290 4262 2688 4230 
Q 2624 4474 2458 4710 
Q 2624 4704 2797 4704 
Q 3418 4704 4022 4787 
Q 4627 4870 5402 5114 
Q 5587 4851 5824 4627 
Q 5882 4570 5882 4531 
Q 5882 4493 5805 4493 
L 5562 4499 
Q 5126 4499 4461 4416 
L 4461 2131 
Q 5434 2131 6022 2195 
L 6022 1645 
Q 5747 1683 4461 1683 
L 4461 19 
Q 4461 -250 4397 -368 
Q 4333 -486 4112 -560 
Q 3891 -634 3347 -710 
Q 3322 -346 3085 32 
Q 3379 -58 3571 -58 
Q 3763 -58 3859 9 
Q 3955 77 3955 186 
L 3955 1683 
Q 2925 1683 2496 1645 
L 2496 2195 
Q 3027 2138 3955 2131 
L 3955 4352 
z
M 1760 1395 
L 1094 1395 
L 1094 448 
L 550 448 
Q 589 934 589 1344 
L 589 4128 
Q 589 4493 563 4685 
Q 883 4666 1350 4666 
Q 1818 4666 2272 4685 
Q 2240 4480 2240 4128 
L 2240 1786 
Q 2240 1453 2278 922 
L 1760 922 
L 1760 1395 
z
M 1094 1830 
L 1760 1830 
L 1760 4218 
L 1094 4218 
L 1094 1830 
z
M 5184 3936 
Q 5446 3840 5773 3789 
Q 5862 3770 5862 3741 
Q 5862 3712 5786 3661 
Q 5626 3558 5306 2560 
Q 5133 2624 4992 2624 
Q 4851 2624 4768 2618 
Q 5075 3142 5184 3936 
z
M 3494 2650 
L 2944 2522 
Q 2861 3277 2637 3674 
L 3123 3814 
Q 3354 3200 3494 2650 
z
" transform="scale(0.015625)"/>
      <path id="STHeiti-603b" d="M 3411 3968 
Q 3885 4666 4102 5254 
Q 4454 5037 4794 4973 
Q 4877 4960 4877 4928 
Q 4877 4896 4806 4858 
Q 4595 4749 4451 4601 
Q 4307 4454 3962 3968 
Q 4838 3974 5120 4000 
Q 5088 3514 5088 3142 
Q 5088 2771 5120 2029 
Q 4960 2042 3155 2042 
Q 1350 2042 1210 2029 
Q 1242 2374 1242 3020 
Q 1242 3667 1210 4000 
Q 1734 3962 3411 3968 
z
M 1760 3584 
L 1760 2451 
L 4570 2451 
L 4570 3584 
L 1760 3584 
z
M 2701 4422 
L 2234 4038 
Q 1978 4397 1498 4838 
L 1882 5146 
Q 2355 4698 2701 4422 
z
M 3994 954 
L 3469 659 
Q 3264 1178 2925 1626 
L 3443 1850 
Q 3718 1363 3994 954 
z
M 6176 467 
L 5594 115 
Q 5357 640 4794 1325 
L 5286 1581 
Q 5664 1146 6176 467 
z
M 5056 435 
Q 4922 64 4832 -93 
Q 4742 -250 4620 -317 
Q 4499 -384 4176 -416 
Q 3853 -448 3152 -448 
Q 2451 -448 2198 -345 
Q 1946 -243 1946 160 
L 1946 845 
Q 1946 1274 1888 1517 
Q 2170 1459 2406 1459 
L 2554 1466 
Q 2624 1466 2624 1437 
Q 2624 1408 2550 1347 
Q 2477 1286 2477 1165 
L 2477 358 
Q 2477 179 2614 115 
Q 2752 51 3107 51 
Q 3462 51 3811 80 
Q 4160 109 4243 147 
Q 4326 186 4380 326 
Q 4435 467 4499 819 
Q 4762 493 5056 435 
z
M 1427 1389 
Q 1261 672 1101 -205 
L 448 -134 
Q 806 621 858 1434 
L 1427 1389 
z
" transform="scale(0.015625)"/>
      <path id="STHeiti-91cf" d="M 5229 3379 
Q 5043 3411 3209 3411 
Q 1376 3411 1197 3379 
Q 1229 3834 1229 4186 
Q 1229 4538 1197 4934 
Q 1389 4890 3174 4890 
Q 4960 4890 5222 4934 
Q 5210 4461 5210 4115 
Q 5210 3770 5229 3379 
z
M 1690 4288 
L 4742 4288 
L 4742 4595 
L 1690 4595 
L 1690 4288 
z
M 4742 4019 
L 1690 4019 
L 1690 3693 
L 4742 3693 
L 4742 4019 
z
M 5952 2746 
Q 5082 2797 3190 2797 
Q 1299 2797 448 2746 
L 448 3174 
Q 1619 3130 3321 3130 
Q 5024 3130 5952 3174 
L 5952 2746 
z
M 3398 352 
L 3398 0 
Q 5075 0 5875 51 
L 5875 -384 
Q 4979 -339 3164 -339 
Q 1350 -339 467 -384 
L 467 51 
Q 1254 0 2938 0 
L 2938 352 
Q 1766 346 986 282 
L 986 742 
Q 1875 672 2938 666 
L 2938 1030 
Q 1363 1030 1178 1011 
Q 1210 1325 1210 1798 
Q 1210 2272 1178 2566 
Q 1370 2522 3155 2522 
Q 4941 2522 5210 2566 
Q 5190 2208 5190 1875 
Q 5190 1542 5216 1011 
Q 4928 1030 3398 1030 
L 3398 666 
Q 4659 666 5363 742 
L 5363 282 
Q 4608 352 3398 352 
z
M 2938 1907 
L 2938 2221 
L 1670 2221 
L 1670 1907 
L 2938 1907 
z
M 3398 2221 
L 3398 1907 
L 4723 1907 
L 4723 2221 
L 3398 2221 
z
M 3398 1638 
L 3398 1331 
L 4723 1331 
L 4723 1638 
L 3398 1638 
z
M 2938 1331 
L 2938 1638 
L 1670 1638 
L 1670 1331 
L 2938 1331 
z
" transform="scale(0.015625)"/>
     </defs>
     <use xlink:href="#STHeiti-5916"/>
     <use xlink:href="#STHeiti-547c" transform="translate(99.999985 0)"/>
     <use xlink:href="#STHeiti-603b" transform="translate(199.999969 0)"/>
     <use xlink:href="#STHeiti-91cf" transform="translate(299.999954 0)"/>
    </g>
    <!-- 3,042,240 -->
    <g style="fill: #ffffff" transform="translate(163.077614 140.207328) scale(0.11 -0.11)">
     <defs>
      <path id="STHeiti-33" d="M 845 3917 
L 378 3917 
Q 506 4486 867 4790 
Q 1229 5094 1750 5094 
Q 2272 5094 2659 4748 
Q 3046 4403 3046 3910 
Q 3046 3315 2458 2970 
Q 2861 2803 3081 2473 
Q 3302 2144 3302 1754 
Q 3302 1146 2857 707 
Q 2413 269 1734 269 
Q 1133 269 742 611 
Q 352 954 224 1613 
L 672 1613 
Q 794 1158 1046 937 
Q 1299 717 1760 717 
Q 2221 717 2534 1011 
Q 2848 1306 2848 1741 
Q 2848 2176 2502 2441 
Q 2157 2707 1498 2720 
L 1498 3142 
Q 1971 3142 2268 3360 
Q 2566 3578 2566 3901 
Q 2566 4224 2326 4438 
Q 2086 4653 1747 4653 
Q 1408 4653 1200 4470 
Q 992 4288 845 3917 
z
" transform="scale(0.015625)"/>
      <path id="STHeiti-2c" d="M 922 1229 
L 1344 1030 
L 710 -154 
L 397 -19 
L 922 1229 
z
" transform="scale(0.015625)"/>
      <path id="STHeiti-30" d="M 1747 269 
Q 1005 269 605 880 
Q 205 1491 205 2681 
Q 205 3872 605 4483 
Q 1005 5094 1741 5094 
Q 2477 5094 2909 4470 
Q 3341 3846 3341 2681 
Q 3341 1517 2905 893 
Q 2470 269 1747 269 
z
M 1760 4659 
Q 1229 4659 934 4147 
Q 640 3635 640 2669 
Q 640 685 1760 685 
Q 2304 685 2608 1206 
Q 2912 1728 2912 2681 
Q 2912 3635 2598 4147 
Q 2285 4659 1760 4659 
z
" transform="scale(0.015625)"/>
      <path id="STHeiti-34" d="M 2726 5094 
L 2816 5094 
L 2816 1894 
L 3373 1894 
L 3373 1453 
L 2816 1453 
L 2816 384 
L 2362 384 
L 2362 1453 
L 160 1453 
L 2726 5094 
z
M 2362 1894 
L 2362 3808 
L 1005 1894 
L 2362 1894 
z
" transform="scale(0.015625)"/>
      <path id="STHeiti-32" d="M 742 3539 
L 301 3539 
Q 333 4243 768 4668 
Q 1203 5094 1820 5094 
Q 2438 5094 2844 4694 
Q 3251 4294 3251 3718 
Q 3251 3290 3024 2925 
Q 2797 2560 2336 2061 
L 1190 826 
L 3315 826 
L 3315 384 
L 192 384 
L 1946 2278 
Q 2406 2778 2604 3066 
Q 2803 3354 2803 3725 
Q 2803 4096 2512 4377 
Q 2221 4659 1789 4659 
Q 1357 4659 1072 4368 
Q 787 4077 742 3539 
z
" transform="scale(0.015625)"/>
     </defs>
     <use xlink:href="#STHeiti-33"/>
     <use xlink:href="#STHeiti-2c" transform="translate(55.399994 0)"/>
     <use xlink:href="#STHeiti-30" transform="translate(83.099991 0)"/>
     <use xlink:href="#STHeiti-34" transform="translate(138.499985 0)"/>
     <use xlink:href="#STHeiti-32" transform="translate(193.899979 0)"/>
     <use xlink:href="#STHeiti-2c" transform="translate(249.299973 0)"/>
     <use xlink:href="#STHeiti-32" transform="translate(276.999969 0)"/>
     <use xlink:href="#STHeiti-34" transform="translate(332.399963 0)"/>
     <use xlink:href="#STHeiti-30" transform="translate(387.799957 0)"/>
    </g>
   </g>
   <g id="text_2">
    <!-- 接通量 -->
    <g style="fill: #ffffff" transform="translate(170.956364 189.854781) scale(0.11 -0.11)">
     <defs>
      <path id="STHeiti-63a5" d="M 3987 4531 
Q 3917 4864 3834 5094 
L 4422 5229 
Q 4486 4883 4582 4531 
Q 5549 4531 5875 4576 
L 5875 4038 
Q 5549 4090 4201 4090 
Q 2854 4090 2528 4038 
L 2528 4576 
Q 2874 4531 3987 4531 
z
M 1171 2189 
L 1171 3456 
Q 685 3456 365 3424 
L 365 3949 
Q 717 3910 1171 3904 
Q 1171 4832 1133 5101 
Q 1357 5050 1741 5050 
Q 1869 5050 1869 5008 
Q 1869 4966 1769 4886 
Q 1670 4806 1670 4653 
L 1670 3910 
Q 2093 3923 2330 3949 
L 2330 3424 
Q 2163 3443 1670 3456 
L 1670 2438 
Q 1978 2592 2189 2733 
Q 2208 2496 2285 2253 
Q 2054 2131 1670 1920 
L 1670 147 
Q 1670 -211 1603 -313 
Q 1536 -416 1389 -470 
Q 1242 -525 742 -602 
Q 717 -294 557 6 
Q 730 -6 826 -6 
Q 1056 -6 1113 61 
Q 1171 128 1171 346 
L 1171 1632 
Q 781 1414 474 1229 
Q 403 1594 269 1856 
Q 685 1978 1171 2189 
z
M 4282 2963 
Q 4557 3526 4640 3987 
Q 4934 3827 5222 3776 
Q 5261 3770 5261 3750 
Q 5261 3731 5235 3712 
Q 5056 3578 4749 2963 
Q 5459 2963 5907 3008 
L 5907 2496 
Q 5510 2541 4150 2541 
Q 2790 2541 2490 2496 
L 2490 3008 
Q 2938 2963 3674 2963 
L 4282 2963 
z
M 3866 3315 
L 3341 3053 
Q 3213 3379 3053 3622 
L 3533 3878 
Q 3654 3603 3866 3315 
z
M 4595 461 
Q 5325 134 5875 -134 
Q 5651 -371 5504 -634 
Q 4998 -250 4243 134 
Q 3558 -390 2368 -557 
Q 2246 -320 2042 -109 
Q 3130 -26 3763 365 
Q 3264 602 2778 755 
Q 3014 1056 3194 1459 
Q 2650 1453 2234 1414 
L 2234 1939 
Q 2650 1894 3405 1894 
Q 3584 2278 3603 2464 
Q 3891 2336 4102 2310 
Q 4192 2298 4192 2256 
Q 4192 2214 4109 2157 
Q 4064 2118 3936 1894 
L 4806 1894 
Q 5715 1894 6054 1939 
L 6054 1414 
Q 5747 1453 5146 1459 
Q 4973 870 4595 461 
z
M 3699 1459 
L 3424 947 
Q 3706 845 4134 659 
Q 4467 979 4614 1459 
L 3699 1459 
z
" transform="scale(0.015625)"/>
      <path id="STHeiti-901a" d="M 1862 4070 
L 1376 3731 
Q 1101 4314 730 4672 
L 1229 4973 
L 1862 4070 
z
M 3885 3834 
L 4614 4480 
Q 2784 4480 2253 4429 
L 2253 4960 
Q 2842 4902 3978 4902 
Q 5114 4902 5542 4960 
L 5542 4538 
Q 5395 4480 5196 4358 
Q 4998 4237 4928 4179 
L 4154 3533 
Q 5370 3533 5760 3584 
Q 5645 3347 5645 2848 
L 5645 774 
Q 5645 646 5590 569 
Q 5536 493 5357 422 
Q 5178 352 4794 275 
Q 4794 544 4576 819 
Q 4858 819 4970 851 
Q 5082 883 5120 979 
Q 5158 1075 5165 1312 
L 4115 1312 
Q 4115 781 4160 314 
L 3610 314 
Q 3654 653 3654 1312 
L 2707 1312 
L 2707 371 
L 2182 371 
Q 2240 781 2240 1280 
L 2240 2848 
Q 2240 3354 2195 3584 
Q 2566 3539 3558 3533 
Q 3347 3859 3085 4166 
L 3494 4358 
L 3885 3834 
z
M 2707 2618 
L 3654 2618 
L 3654 3142 
L 2707 3142 
L 2707 2618 
z
M 4115 2618 
L 5165 2618 
L 5165 3142 
L 4115 3142 
L 4115 2618 
z
M 3654 2234 
L 2707 2234 
L 2707 1690 
L 3654 1690 
L 3654 2234 
z
M 5165 2234 
L 4115 2234 
L 4115 1690 
L 5165 1690 
L 5165 2234 
z
M 1088 493 
L 1088 2387 
Q 563 2387 378 2355 
L 378 2976 
Q 653 2938 1014 2938 
Q 1376 2938 1632 2976 
Q 1587 2733 1587 2202 
L 1587 493 
Q 1798 422 2106 262 
Q 2554 26 3872 26 
Q 4845 26 6074 166 
Q 5933 -134 5933 -442 
Q 4730 -499 3952 -499 
Q 3174 -499 2736 -406 
Q 2298 -314 1862 -70 
Q 1594 77 1411 77 
Q 1229 77 1069 -64 
Q 909 -205 742 -506 
Q 557 -224 282 -13 
Q 749 358 1088 493 
z
" transform="scale(0.015625)"/>
     </defs>
     <use xlink:href="#STHeiti-63a5"/>
     <use xlink:href="#STHeiti-901a" transform="translate(99.999985 0)"/>
     <use xlink:href="#STHeiti-91cf" transform="translate(199.999969 0)"/>
    </g>
    <!-- 875,491 -->
    <g style="fill: #ffffff" transform="translate(167.648629 201.835844) scale(0.11 -0.11)">
     <defs>
      <path id="STHeiti-38" d="M 2458 2906 
Q 3328 2477 3328 1702 
Q 3328 1088 2896 678 
Q 2464 269 1763 269 
Q 1062 269 640 678 
Q 218 1088 218 1664 
Q 218 2470 1107 2906 
Q 435 3264 435 3898 
Q 435 4371 828 4732 
Q 1222 5094 1779 5094 
Q 2336 5094 2726 4742 
Q 3117 4390 3117 3885 
Q 3117 3270 2458 2906 
z
M 2656 3904 
Q 2656 4211 2416 4432 
Q 2176 4653 1789 4653 
Q 1402 4653 1152 4432 
Q 902 4211 902 3897 
Q 902 3584 1174 3337 
Q 1446 3091 1792 3091 
Q 2138 3091 2397 3334 
Q 2656 3578 2656 3904 
z
M 2867 1696 
Q 2867 2086 2550 2380 
Q 2234 2675 1782 2675 
Q 1331 2675 1004 2371 
Q 678 2067 678 1654 
Q 678 1242 979 973 
Q 1280 704 1766 704 
Q 2253 704 2560 992 
Q 2867 1280 2867 1696 
z
" transform="scale(0.015625)"/>
      <path id="STHeiti-37" d="M 461 4979 
L 3373 4979 
L 915 269 
L 538 461 
L 2662 4544 
L 461 4544 
L 461 4979 
z
" transform="scale(0.015625)"/>
      <path id="STHeiti-35" d="M 3149 4979 
L 3149 4544 
L 1510 4544 
L 1280 3290 
Q 1587 3379 1856 3379 
Q 2458 3379 2861 2953 
Q 3264 2528 3264 1862 
Q 3264 1197 2825 733 
Q 2387 269 1664 269 
Q 1114 269 726 598 
Q 339 928 262 1498 
L 730 1498 
Q 813 1114 1075 909 
Q 1338 704 1683 704 
Q 2138 704 2467 1043 
Q 2797 1382 2797 1888 
Q 2797 2349 2509 2646 
Q 2221 2944 1757 2944 
Q 1293 2944 730 2701 
L 1158 4979 
L 3149 4979 
z
" transform="scale(0.015625)"/>
      <path id="STHeiti-39" d="M 1229 269 
L 851 512 
L 2093 2394 
Q 1850 2310 1613 2310 
Q 1062 2310 688 2707 
Q 314 3104 314 3696 
Q 314 4288 730 4691 
Q 1146 5094 1750 5094 
Q 2355 5094 2748 4681 
Q 3142 4269 3142 3693 
Q 3142 3373 3011 3049 
Q 2880 2726 2624 2349 
L 1229 269 
z
M 762 3680 
Q 762 3277 1043 2995 
Q 1325 2714 1728 2714 
Q 2131 2714 2412 2998 
Q 2694 3283 2694 3680 
Q 2694 4077 2412 4361 
Q 2131 4646 1728 4646 
Q 1325 4646 1043 4364 
Q 762 4083 762 3680 
z
" transform="scale(0.015625)"/>
      <path id="STHeiti-31" d="M 1184 4979 
L 2086 4979 
L 2086 384 
L 1632 384 
L 1632 4531 
L 909 4531 
L 1184 4979 
z
" transform="scale(0.015625)"/>
     </defs>
     <use xlink:href="#STHeiti-38"/>
     <use xlink:href="#STHeiti-37" transform="translate(55.399994 0)"/>
     <use xlink:href="#STHeiti-35" transform="translate(110.799988 0)"/>
     <use xlink:href="#STHeiti-2c" transform="translate(166.199982 0)"/>
     <use xlink:href="#STHeiti-34" transform="translate(193.899979 0)"/>
     <use xlink:href="#STHeiti-39" transform="translate(249.299973 0)"/>
     <use xlink:href="#STHeiti-31" transform="translate(304.699966 0)"/>
    </g>
   </g>
   <g id="text_3">
    <!-- → 28.8% -->
    <g style="fill: #857d74" transform="translate(361.15795 195.183437) scale(0.09 -0.09)">
     <defs>
      <path id="STHeiti-2192" d="M 6086 2285 
L 4115 1114 
L 4115 2131 
L 262 2131 
L 262 2477 
L 4115 2477 
L 4115 3526 
L 6086 2285 
z
" transform="scale(0.015625)"/>
      <path id="STHeiti-20" transform="scale(0.015625)"/>
      <path id="STHeiti-2e" d="M 582 685 
Q 582 845 697 957 
Q 813 1069 969 1069 
Q 1126 1069 1238 957 
Q 1350 845 1350 681 
Q 1350 518 1238 406 
Q 1126 294 969 294 
Q 813 294 697 409 
Q 582 525 582 685 
z
" transform="scale(0.015625)"/>
      <path id="STHeiti-25" d="M 4314 5184 
L 966 64 
L 550 64 
L 3603 4730 
Q 3232 4640 2845 4614 
Q 2458 4589 2278 4595 
L 2112 4602 
Q 2304 4333 2304 4032 
Q 2304 3571 1993 3248 
Q 1683 2925 1225 2925 
Q 768 2925 454 3238 
Q 141 3552 141 4006 
Q 141 4461 464 4774 
Q 787 5088 1210 5088 
Q 1382 5088 1702 5021 
Q 2022 4954 2490 4954 
Q 3232 4954 3949 5184 
L 4314 5184 
z
M 1914 4013 
Q 1914 4301 1712 4499 
Q 1510 4698 1225 4698 
Q 941 4698 739 4496 
Q 538 4294 538 4012 
Q 538 3731 739 3529 
Q 941 3328 1225 3328 
Q 1510 3328 1712 3526 
Q 1914 3725 1914 4013 
z
M 2656 1331 
Q 2656 1773 2973 2093 
Q 3290 2413 3734 2413 
Q 4179 2413 4496 2096 
Q 4813 1779 4813 1331 
Q 4813 883 4496 566 
Q 4179 250 3734 250 
Q 3290 250 2973 566 
Q 2656 883 2656 1331 
z
M 4422 1331 
Q 4422 1613 4220 1814 
Q 4019 2016 3734 2016 
Q 3450 2016 3251 1814 
Q 3053 1613 3053 1331 
Q 3053 1050 3251 848 
Q 3450 646 3734 646 
Q 4019 646 4220 844 
Q 4422 1043 4422 1331 
z
" transform="scale(0.015625)"/>
     </defs>
     <use xlink:href="#STHeiti-2192"/>
     <use xlink:href="#STHeiti-20" transform="translate(99.999985 0)"/>
     <use xlink:href="#STHeiti-32" transform="translate(124.999969 0)"/>
     <use xlink:href="#STHeiti-38" transform="translate(180.399963 0)"/>
     <use xlink:href="#STHeiti-2e" transform="translate(235.799957 0)"/>
     <use xlink:href="#STHeiti-38" transform="translate(263.499954 0)"/>
     <use xlink:href="#STHeiti-25" transform="translate(318.899948 0)"/>
    </g>
   </g>
   <g id="text_4">
    <!-- 意向客户 -->
    <g style="fill: #ffffff" transform="translate(165.456364 251.521969) scale(0.11 -0.11)">
     <defs>
      <path id="STHeiti-610f" d="M 2970 4723 
Q 2906 4992 2803 5197 
L 3469 5306 
Q 3597 4794 3622 4723 
Q 4851 4730 5536 4768 
L 5536 4288 
Q 4627 4339 3177 4339 
Q 1728 4339 819 4288 
L 819 4768 
Q 1510 4723 2970 4723 
z
M 2150 3731 
Q 2067 3910 1888 4096 
L 2522 4275 
Q 2618 4058 2758 3878 
Q 2413 3789 2259 3731 
L 3725 3731 
Q 3917 4013 3994 4275 
Q 4326 4186 4685 4134 
Q 4749 4122 4749 4109 
Q 4749 4096 4704 4083 
Q 4493 4019 4288 3731 
Q 5248 3731 5888 3770 
L 5888 3290 
Q 5274 3341 3261 3341 
Q 1248 3341 557 3290 
L 557 3770 
Q 1133 3731 2150 3731 
z
M 5178 1069 
Q 4774 1101 3248 1101 
Q 1722 1101 1325 1069 
Q 1382 1229 1382 1510 
L 1382 2541 
Q 1382 2829 1325 2989 
Q 1722 2957 3248 2957 
Q 4774 2957 5178 2989 
Q 5114 2842 5114 2541 
L 5114 1510 
Q 5114 1216 5178 1069 
z
M 4634 2208 
L 4634 2566 
L 1862 2566 
L 1862 2208 
L 4634 2208 
z
M 1862 1830 
L 1862 1485 
L 4634 1485 
L 4634 1830 
L 1862 1830 
z
M 3846 461 
L 3226 256 
Q 3130 602 2906 890 
L 3494 1056 
Q 3757 582 3846 461 
z
M 6048 134 
L 5542 -224 
Q 5216 314 4851 666 
L 5293 909 
L 6048 134 
z
M 4902 339 
Q 4678 -294 4444 -390 
Q 4211 -486 2957 -486 
Q 2349 -486 2211 -451 
Q 2074 -416 2006 -374 
Q 1939 -333 1939 -70 
L 1939 461 
Q 1939 672 1901 838 
Q 2086 781 2195 768 
Q 2304 755 2435 755 
Q 2566 755 2566 732 
Q 2566 710 2499 665 
Q 2432 621 2432 525 
L 2432 282 
Q 2432 154 2464 77 
Q 2496 0 2573 -35 
Q 2650 -70 3002 -70 
Q 3354 -70 3696 -41 
Q 4038 -13 4124 22 
Q 4211 58 4256 173 
Q 4301 288 4339 582 
Q 4550 378 4902 339 
z
M 1568 621 
Q 1318 38 1056 -435 
L 518 -218 
Q 877 192 998 768 
L 1568 621 
z
" transform="scale(0.015625)"/>
      <path id="STHeiti-5411" d="M 2221 4147 
Q 2394 4646 2426 5190 
Q 2848 5050 3206 5030 
Q 3309 5024 3309 4989 
Q 3309 4954 3245 4902 
Q 3034 4749 2752 4147 
L 3891 4147 
Q 5318 4141 5766 4237 
Q 5722 3942 5722 3053 
L 5722 115 
Q 5722 -115 5654 -233 
Q 5587 -352 5379 -422 
Q 5171 -493 4710 -550 
Q 4698 -243 4461 90 
Q 4608 77 4784 77 
Q 4960 77 5075 141 
Q 5190 205 5190 397 
L 5190 3686 
L 1408 3686 
L 1408 -531 
L 813 -531 
Q 883 134 883 1005 
L 883 3053 
Q 883 3776 832 4237 
Q 1210 4154 2221 4147 
z
M 4346 762 
Q 3808 787 3120 787 
Q 2432 787 2106 755 
Q 2144 1158 2144 1824 
Q 2144 2490 2106 2880 
Q 2483 2835 3222 2835 
Q 3962 2835 4346 2880 
Q 4314 2445 4314 1773 
Q 4314 1101 4346 762 
z
M 3821 1222 
L 3821 2394 
L 2630 2394 
L 2630 1222 
L 3821 1222 
z
" transform="scale(0.015625)"/>
      <path id="STHeiti-5ba2" d="M 3066 4608 
Q 2995 4909 2867 5197 
L 3546 5248 
Q 3642 4838 3680 4608 
Q 5235 4608 5779 4646 
L 5779 3501 
L 5267 3501 
L 5267 4186 
L 1216 4186 
L 1216 3501 
L 698 3501 
L 698 4646 
Q 1274 4608 3066 4608 
z
M 2285 3155 
Q 1894 2746 1414 2355 
Q 1229 2566 934 2662 
Q 2022 3264 2387 4051 
Q 2662 3936 2880 3904 
Q 2976 3891 2976 3849 
Q 2976 3808 2896 3779 
Q 2816 3750 2650 3565 
L 3475 3565 
Q 4525 3565 4973 3584 
Q 4525 2765 3661 2246 
Q 4659 1792 6003 1786 
Q 5818 1517 5760 1152 
Q 5216 1254 4928 1338 
Q 4915 1248 4915 851 
L 4915 109 
Q 4915 -269 4973 -582 
L 4397 -582 
L 4397 -211 
L 2112 -211 
L 2112 -614 
L 1517 -614 
Q 1587 -154 1587 211 
L 1587 851 
Q 1587 986 1568 1318 
Q 1203 1197 774 1082 
Q 608 1370 422 1594 
Q 1677 1747 2790 2234 
Q 2438 2464 2118 2746 
L 2432 3040 
Q 2829 2694 3238 2458 
Q 3680 2714 4090 3155 
L 2285 3155 
z
M 3200 1997 
Q 2426 1594 1696 1357 
Q 2112 1338 3309 1338 
Q 4506 1338 4864 1357 
Q 3930 1606 3200 1997 
z
M 2112 198 
L 4397 198 
L 4397 928 
L 2112 928 
L 2112 198 
z
" transform="scale(0.015625)"/>
      <path id="STHeiti-6237" d="M 3936 4518 
L 3296 4307 
Q 3187 4691 2970 5075 
L 3578 5274 
Q 3834 4717 3936 4518 
z
M 5082 1792 
L 1984 1792 
Q 1901 320 1082 -666 
Q 832 -474 435 -352 
Q 973 141 1206 749 
Q 1440 1357 1440 2368 
L 1440 3686 
Q 1440 4032 1402 4186 
Q 1798 4160 3568 4160 
Q 5338 4160 5696 4186 
Q 5645 4013 5645 3686 
L 5645 2131 
Q 5645 1638 5690 1299 
L 5082 1299 
L 5082 1792 
z
M 1990 2272 
L 5082 2272 
L 5082 3680 
L 1990 3680 
L 1990 2272 
z
" transform="scale(0.015625)"/>
     </defs>
     <use xlink:href="#STHeiti-610f"/>
     <use xlink:href="#STHeiti-5411" transform="translate(99.999985 0)"/>
     <use xlink:href="#STHeiti-5ba2" transform="translate(199.999969 0)"/>
     <use xlink:href="#STHeiti-6237" transform="translate(299.999954 0)"/>
    </g>
    <!-- 93,072 -->
    <g style="fill: #ffffff" transform="translate(170.695973 263.503031) scale(0.11 -0.11)">
     <use xlink:href="#STHeiti-39"/>
     <use xlink:href="#STHeiti-33" transform="translate(55.399994 0)"/>
     <use xlink:href="#STHeiti-2c" transform="translate(110.799988 0)"/>
     <use xlink:href="#STHeiti-30" transform="translate(138.499985 0)"/>
     <use xlink:href="#STHeiti-37" transform="translate(193.899979 0)"/>
     <use xlink:href="#STHeiti-32" transform="translate(249.299973 0)"/>
    </g>
   </g>
   <g id="text_5">
    <!-- → 10.6% -->
    <g style="fill: #857d74" transform="translate(361.15795 256.833437) scale(0.09 -0.09)">
     <defs>
      <path id="STHeiti-36" d="M 2349 5094 
L 2726 4851 
L 1485 2970 
Q 1747 3059 1984 3059 
Q 2496 3059 2880 2652 
Q 3264 2246 3264 1660 
Q 3264 1075 2845 672 
Q 2426 269 1827 269 
Q 1229 269 829 678 
Q 429 1088 429 1677 
Q 429 1958 537 2256 
Q 646 2554 954 3014 
L 2349 5094 
z
M 2810 1683 
Q 2810 2086 2528 2368 
Q 2246 2650 1843 2650 
Q 1440 2650 1158 2368 
Q 877 2086 877 1683 
Q 877 1280 1161 998 
Q 1446 717 1843 717 
Q 2240 717 2525 998 
Q 2810 1280 2810 1683 
z
" transform="scale(0.015625)"/>
     </defs>
     <use xlink:href="#STHeiti-2192"/>
     <use xlink:href="#STHeiti-20" transform="translate(99.999985 0)"/>
     <use xlink:href="#STHeiti-31" transform="translate(124.999969 0)"/>
     <use xlink:href="#STHeiti-30" transform="translate(180.399963 0)"/>
     <use xlink:href="#STHeiti-2e" transform="translate(235.799957 0)"/>
     <use xlink:href="#STHeiti-36" transform="translate(263.499954 0)"/>
     <use xlink:href="#STHeiti-25" transform="translate(318.899948 0)"/>
    </g>
   </g>
   <g id="text_6">
    <!-- 成交单数 -->
    <g style="fill: #ffffff" transform="translate(165.456364 313.198609) scale(0.11 -0.11)">
     <defs>
      <path id="STHeiti-6210" d="M 3392 3610 
L 1491 3610 
L 1491 2720 
Q 2778 2720 3066 2778 
L 2976 1056 
Q 2957 813 2877 688 
Q 2797 563 2585 480 
Q 2374 397 1907 294 
Q 1907 550 1670 947 
Q 1984 890 2163 890 
Q 2342 890 2412 957 
Q 2483 1024 2490 1203 
L 2547 2310 
L 1485 2310 
Q 1472 1382 1357 832 
Q 1242 282 845 -422 
Q 582 -224 282 -160 
Q 685 320 835 937 
Q 986 1555 986 2771 
Q 986 3334 954 4141 
Q 1453 4077 3347 4077 
L 3251 5248 
Q 3514 5203 3750 5203 
L 3930 5210 
Q 4006 5210 4006 5178 
Q 4006 5146 3942 5072 
Q 3878 4998 3878 4461 
Q 3878 4288 3885 4077 
Q 5274 4083 5798 4141 
L 5798 3546 
Q 5126 3610 3904 3610 
Q 3968 2432 4301 1549 
Q 4666 2202 4832 3187 
Q 5152 3014 5434 2938 
Q 5510 2912 5510 2883 
Q 5510 2854 5452 2832 
Q 5395 2810 5328 2685 
Q 5261 2560 5222 2451 
Q 4973 1632 4563 1030 
Q 4858 557 5050 326 
Q 5242 96 5347 96 
Q 5453 96 5510 256 
Q 5568 416 5600 755 
Q 5882 410 6144 358 
Q 5971 -160 5840 -397 
Q 5709 -634 5529 -634 
Q 5350 -634 4972 -304 
Q 4595 26 4230 589 
Q 3725 0 2899 -557 
Q 2752 -237 2470 -109 
Q 3424 326 3987 1056 
Q 3744 1542 3638 2019 
Q 3533 2496 3392 3610 
z
M 5331 4474 
L 4794 4211 
Q 4634 4646 4416 4922 
L 4922 5165 
Q 5178 4819 5331 4474 
z
" transform="scale(0.015625)"/>
      <path id="STHeiti-4ea4" d="M 3731 4544 
L 3066 4384 
Q 3002 4634 2784 5101 
L 3462 5299 
Q 3565 4915 3731 4544 
z
M 5946 3770 
Q 4954 3808 3133 3808 
Q 1312 3808 634 3763 
L 634 4358 
Q 1293 4314 3270 4314 
Q 5248 4314 5946 4352 
L 5946 3770 
z
M 2170 3629 
Q 2490 3405 2733 3309 
Q 2842 3270 2842 3222 
Q 2842 3174 2688 3155 
Q 2656 3149 2550 3069 
Q 2445 2989 2342 2880 
Q 1779 2317 1069 1824 
Q 883 2074 595 2208 
Q 1741 2848 2170 3629 
z
M 5901 2400 
L 5446 1914 
Q 4813 2624 3942 3238 
L 4333 3603 
Q 5056 3104 5901 2400 
z
M 2803 813 
Q 2330 1286 1939 2240 
L 2445 2426 
Q 2797 1594 3219 1152 
Q 3802 1728 4058 2490 
Q 4448 2246 4653 2195 
Q 4762 2163 4762 2134 
Q 4762 2106 4656 2045 
Q 4550 1984 4448 1818 
Q 4173 1370 3629 813 
Q 4122 461 4666 304 
Q 5210 147 5971 109 
Q 5702 -250 5581 -614 
Q 3962 -160 3226 435 
Q 2771 38 2236 -202 
Q 1702 -442 890 -634 
Q 717 -301 474 -45 
Q 1677 45 2803 813 
z
" transform="scale(0.015625)"/>
      <path id="STHeiti-5355" d="M 3456 954 
Q 5050 954 5971 1011 
L 5971 461 
Q 5050 518 3456 518 
Q 3456 -173 3501 -704 
L 2893 -704 
Q 2938 -275 2938 518 
Q 1344 518 429 461 
L 429 1011 
Q 1344 954 2938 954 
L 2938 1466 
Q 1741 1472 1094 1453 
Q 1120 1664 1120 1971 
L 1120 3462 
Q 1120 3872 1101 4013 
Q 1933 3981 3565 3981 
Q 4051 4909 4122 5254 
Q 4518 5062 4800 5018 
Q 4890 5005 4890 4944 
Q 4890 4883 4819 4864 
Q 4646 4826 4051 3981 
Q 4800 3981 5299 4013 
Q 5286 3872 5286 3475 
L 5286 1997 
Q 5286 1677 5306 1446 
Q 4742 1472 3456 1466 
L 3456 954 
z
M 2938 2925 
L 2938 3571 
L 1651 3571 
L 1651 2925 
L 2938 2925 
z
M 3456 3571 
L 3456 2925 
L 4787 2925 
L 4787 3571 
L 3456 3571 
z
M 3456 2534 
L 3456 1875 
L 4787 1875 
L 4787 2534 
L 3456 2534 
z
M 2938 1875 
L 2938 2534 
L 1651 2534 
L 1651 1875 
L 2938 1875 
z
M 2880 4448 
L 2387 4077 
Q 2054 4570 1734 4890 
L 2150 5197 
Q 2509 4774 2880 4448 
z
" transform="scale(0.015625)"/>
      <path id="STHeiti-6570" d="M 4640 480 
Q 4173 -51 3194 -467 
Q 3059 -237 2803 -26 
Q 3238 70 3673 323 
Q 4109 576 4365 890 
Q 3994 1549 3962 2835 
Q 3744 2458 3520 2176 
Q 3366 2419 3206 2522 
Q 3584 3040 3837 3747 
Q 4090 4454 4147 5171 
Q 4486 5062 4800 5037 
Q 4877 5030 4877 4988 
Q 4877 4947 4781 4896 
Q 4704 4858 4480 4128 
L 5216 4128 
Q 5747 4128 6003 4179 
L 6003 3661 
Q 5850 3680 5562 3699 
Q 5440 1773 4934 896 
Q 5254 518 6112 250 
Q 5856 6 5754 -365 
Q 4902 141 4640 480 
z
M 4627 1363 
Q 5018 2253 5088 3706 
L 4352 3706 
Q 4237 3328 3981 2874 
L 4384 2886 
Q 4384 1907 4627 1363 
z
M 1549 3526 
Q 1222 3520 589 3488 
L 589 3942 
Q 1158 3898 1850 3898 
L 1850 4499 
Q 1850 4800 1786 5165 
Q 2042 5139 2362 5139 
Q 2458 5139 2458 5094 
Q 2458 5050 2406 5030 
Q 2355 5011 2336 4976 
Q 2317 4941 2317 4845 
L 2317 3898 
Q 2758 3904 3507 3942 
L 3507 3488 
Q 2810 3526 2317 3533 
Q 2317 2970 2362 2515 
L 1805 2515 
Q 1850 3034 1850 3456 
Q 1632 3014 1401 2745 
Q 1171 2477 755 2189 
Q 608 2406 282 2573 
Q 1030 2816 1549 3526 
z
M 2861 4922 
Q 3155 4826 3386 4794 
Q 3462 4781 3462 4755 
Q 3462 4730 3388 4701 
Q 3315 4672 3228 4521 
Q 3142 4371 3014 4122 
Q 2835 4166 2560 4186 
Q 2746 4461 2861 4922 
z
M 1510 4230 
L 973 4154 
Q 966 4461 883 4806 
L 1389 4870 
Q 1459 4595 1510 4230 
z
M 3360 2790 
L 3046 2477 
Q 2765 2816 2464 3078 
L 2790 3328 
Q 3034 3117 3360 2790 
z
M 2899 755 
Q 3168 666 3450 525 
Q 3251 314 3168 128 
Q 2886 288 2637 390 
Q 2394 128 1984 -51 
Q 1574 -230 781 -410 
Q 627 -115 346 109 
Q 1619 134 2157 557 
Q 1709 691 1030 781 
Q 1248 1165 1408 1555 
Q 800 1549 531 1504 
L 531 1965 
Q 858 1939 1536 1926 
Q 1600 2118 1696 2458 
Q 1946 2355 2214 2336 
Q 2342 2323 2342 2294 
Q 2342 2266 2243 2198 
Q 2144 2131 2035 1926 
L 2899 1926 
Q 3162 1926 3341 1971 
Q 3123 1158 2899 755 
z
M 1862 1555 
L 1626 1043 
Q 2118 966 2470 883 
Q 2662 1165 2726 1555 
L 1862 1555 
z
" transform="scale(0.015625)"/>
     </defs>
     <use xlink:href="#STHeiti-6210"/>
     <use xlink:href="#STHeiti-4ea4" transform="translate(99.999985 0)"/>
     <use xlink:href="#STHeiti-5355" transform="translate(199.999969 0)"/>
     <use xlink:href="#STHeiti-6570" transform="translate(299.999954 0)"/>
    </g>
    <!-- 19,107 -->
    <g style="fill: #ffffff" transform="translate(170.695973 325.179672) scale(0.11 -0.11)">
     <use xlink:href="#STHeiti-31"/>
     <use xlink:href="#STHeiti-39" transform="translate(55.399994 0)"/>
     <use xlink:href="#STHeiti-2c" transform="translate(110.799988 0)"/>
     <use xlink:href="#STHeiti-31" transform="translate(138.499985 0)"/>
     <use xlink:href="#STHeiti-30" transform="translate(193.899979 0)"/>
     <use xlink:href="#STHeiti-37" transform="translate(249.299973 0)"/>
    </g>
   </g>
   <g id="text_7">
    <!-- → 20.5% -->
    <g style="fill: #857d74" transform="translate(361.15795 318.483437) scale(0.09 -0.09)">
     <use xlink:href="#STHeiti-2192"/>
     <use xlink:href="#STHeiti-20" transform="translate(99.999985 0)"/>
     <use xlink:href="#STHeiti-32" transform="translate(124.999969 0)"/>
     <use xlink:href="#STHeiti-30" transform="translate(180.399963 0)"/>
     <use xlink:href="#STHeiti-2e" transform="translate(235.799957 0)"/>
     <use xlink:href="#STHeiti-35" transform="translate(263.499954 0)"/>
     <use xlink:href="#STHeiti-25" transform="translate(318.899948 0)"/>
    </g>
   </g>
   <g id="patch_6">
    <path d="M 345.682728 191.056968 
Q 324.751223 176.782716 304.558672 163.012394 
" style="fill: none; stroke: #c25030; stroke-width: 0.8; stroke-linecap: round"/>
    <path d="M 306.518767 166.527793 
L 304.558672 163.012394 
L 308.547048 163.553558 
" style="fill: none; stroke: #c25030; stroke-width: 0.8; stroke-linecap: round"/>
   </g>
   <g id="text_8">
    <!-- 71.2% 未接通 = 最大浪费点 -->
    <g style="fill: #c25030" transform="translate(302.164959 201.4525) scale(0.09 -0.09)">
     <defs>
      <path id="STHeiti-672a" d="M 3488 2240 
L 3488 563 
Q 3488 26 3552 -589 
L 2874 -589 
Q 2931 -122 2931 563 
L 2931 2093 
Q 2714 1453 2234 912 
Q 1754 371 864 -256 
Q 685 51 397 198 
Q 1018 474 1651 1062 
Q 2285 1651 2560 2240 
Q 1286 2227 582 2176 
L 582 2778 
Q 1510 2714 2931 2707 
L 2931 3706 
Q 1677 3693 1018 3642 
L 1018 4230 
Q 1773 4166 2931 4160 
L 2931 4602 
Q 2931 5069 2874 5267 
Q 3072 5248 3251 5248 
L 3520 5254 
Q 3622 5254 3622 5212 
Q 3622 5171 3568 5139 
Q 3514 5107 3501 5040 
Q 3488 4973 3488 4774 
L 3488 4160 
Q 4602 4166 5338 4230 
L 5338 3642 
Q 4698 3693 3488 3706 
L 3488 2701 
Q 4794 2707 5818 2778 
L 5818 2176 
Q 5114 2234 3872 2240 
Q 4474 864 6061 493 
Q 5933 422 5833 233 
Q 5734 45 5709 -147 
Q 3718 800 3488 2240 
z
" transform="scale(0.015625)"/>
      <path id="STHeiti-3d" d="M 3520 3584 
L 3520 3155 
L 358 3155 
L 358 3584 
L 3520 3584 
z
M 3520 2208 
L 3520 1779 
L 358 1779 
L 358 2208 
L 3520 2208 
z
" transform="scale(0.015625)"/>
      <path id="STHeiti-6700" d="M 5190 3117 
Q 4710 3162 3219 3162 
Q 1728 3162 1254 3117 
Q 1299 3232 1299 3520 
L 1299 4570 
Q 1299 4877 1254 4986 
Q 1779 4947 3225 4947 
Q 4672 4947 5190 4986 
Q 5152 4877 5152 4570 
L 5152 3520 
Q 5152 3219 5190 3117 
z
M 4634 4205 
L 4634 4563 
L 1792 4563 
L 1792 4205 
L 4634 4205 
z
M 4634 3514 
L 4634 3853 
L 1792 3853 
L 1792 3514 
L 4634 3514 
z
M 1056 2406 
Q 838 2400 403 2362 
L 403 2880 
Q 960 2816 3161 2816 
Q 5363 2816 5907 2880 
L 5907 2362 
Q 5568 2413 3040 2413 
L 3040 570 
L 3398 634 
Q 3373 390 3379 205 
L 3040 179 
Q 3053 -358 3085 -666 
L 2554 -666 
Q 2592 -224 2592 128 
Q 1894 38 634 -211 
Q 602 38 506 320 
Q 730 326 1056 346 
L 1056 2406 
z
M 2598 2413 
L 1498 2413 
L 1498 2003 
L 2598 2003 
L 2598 2413 
z
M 2598 1216 
L 2598 1664 
L 1498 1664 
L 1498 1216 
L 2598 1216 
z
M 2598 506 
L 2598 890 
L 1498 890 
L 1498 390 
L 2598 506 
z
M 4723 307 
Q 5216 19 5894 0 
Q 5709 -288 5645 -589 
Q 4858 -352 4416 -26 
Q 4109 -314 3616 -653 
Q 3456 -429 3187 -282 
Q 3718 -45 4077 269 
Q 3731 646 3462 1235 
L 3853 1363 
Q 4058 883 4371 576 
Q 4723 1011 4870 1613 
Q 3674 1613 3360 1574 
L 3360 2048 
Q 3725 2003 4425 2003 
Q 5126 2003 5478 2048 
Q 5216 883 4723 307 
z
" transform="scale(0.015625)"/>
      <path id="STHeiti-5927" d="M 3264 2304 
Q 3078 1402 2560 739 
Q 2042 77 909 -486 
Q 723 -192 365 6 
Q 1370 275 2051 963 
Q 2733 1651 2829 3027 
Q 1427 3021 621 2970 
L 621 3584 
Q 1389 3533 2854 3520 
Q 2880 4051 2880 4454 
Q 2880 4858 2848 5158 
Q 3117 5120 3296 5120 
Q 3661 5120 3661 5094 
Q 3661 5069 3603 5024 
Q 3501 4947 3488 4659 
L 3411 3520 
Q 4973 3520 5773 3584 
L 5773 2970 
Q 4915 3027 3379 3027 
Q 3629 1946 4333 1171 
Q 5037 397 5997 237 
Q 5645 -6 5459 -448 
Q 4787 -115 4179 521 
Q 3571 1158 3264 2304 
z
" transform="scale(0.015625)"/>
      <path id="STHeiti-6d6a" d="M 4422 4666 
L 3808 4461 
Q 3706 4819 3526 5107 
L 4141 5318 
Q 4256 5018 4422 4666 
z
M 2227 4288 
L 1888 3795 
Q 1408 4237 806 4582 
L 1114 4998 
Q 1830 4576 2227 4288 
z
M 4787 614 
Q 5165 282 6138 109 
Q 5926 -128 5818 -480 
Q 4877 -186 4355 393 
Q 3834 973 3635 1920 
L 2938 1920 
L 2938 262 
Q 3386 563 3731 870 
Q 3776 602 3923 378 
L 3066 -230 
Q 2778 -435 2592 -710 
Q 2426 -422 2195 -198 
Q 2426 -32 2426 262 
L 2426 3808 
Q 2426 4211 2381 4486 
Q 2976 4403 4070 4403 
Q 5165 4403 5619 4486 
Q 5574 4205 5574 3808 
L 5574 2573 
Q 5574 2131 5626 1875 
Q 5350 1920 4109 1920 
Q 4218 1325 4512 902 
Q 5139 1299 5402 1715 
Q 5638 1523 5808 1424 
Q 5978 1325 5978 1302 
Q 5978 1280 5891 1267 
Q 5805 1254 5597 1129 
Q 5389 1005 4787 614 
z
M 2938 3360 
L 5101 3360 
L 5101 3987 
L 2938 3987 
L 2938 3360 
z
M 5101 2957 
L 2938 2957 
L 2938 2323 
L 5101 2323 
L 5101 2957 
z
M 1818 2963 
L 1536 2432 
Q 1062 2803 429 3066 
L 653 3526 
Q 1312 3251 1818 2963 
z
M 1862 1734 
Q 1741 1446 1549 726 
Q 1357 6 1197 -557 
Q 864 -333 550 -224 
Q 794 179 1037 844 
Q 1280 1510 1344 2048 
Q 1555 1818 1862 1734 
z
" transform="scale(0.015625)"/>
      <path id="STHeiti-8d39" d="M 1997 2618 
Q 986 2618 774 2605 
Q 858 3085 877 3750 
Q 1152 3718 2266 3706 
Q 2278 3942 2266 4186 
Q 922 4186 646 4154 
L 646 4563 
Q 883 4525 2266 4518 
Q 2266 4755 2253 5082 
Q 2509 5037 2765 5037 
L 2893 5050 
Q 2944 5050 2944 5011 
Q 2944 4973 2883 4925 
Q 2822 4877 2793 4790 
Q 2765 4704 2758 4518 
L 3693 4518 
Q 3693 4947 3661 5101 
Q 4058 5043 4202 5043 
Q 4346 5043 4346 5008 
Q 4346 4973 4282 4928 
Q 4173 4858 4173 4672 
L 4173 4518 
Q 5453 4531 5651 4563 
Q 5638 4250 5638 3930 
Q 5638 3610 5651 3373 
Q 5370 3398 4173 3398 
L 4173 2944 
Q 5562 2957 6016 2995 
Q 5946 2746 5920 2483 
Q 5894 2221 5833 2080 
Q 5773 1939 5619 1875 
Q 5466 1811 5120 1773 
L 5120 845 
Q 5120 576 5133 474 
L 4627 474 
L 4627 1530 
L 1907 1530 
L 1907 320 
L 1402 320 
Q 1421 493 1421 691 
L 1421 1722 
Q 1043 1562 602 1414 
Q 474 1696 275 1882 
Q 1472 1978 1997 2618 
z
M 4173 3706 
L 5178 3706 
L 5178 4186 
L 4173 4186 
L 4173 3706 
z
M 2746 3706 
L 3693 3706 
L 3693 4186 
L 2752 4186 
Q 2752 3827 2746 3706 
z
M 2726 3398 
Q 2707 3117 2662 2944 
L 3693 2944 
L 3693 3398 
L 2726 3398 
z
M 2176 2944 
Q 2246 3130 2246 3398 
L 1312 3398 
L 1274 2944 
L 2176 2944 
z
M 4890 1933 
Q 4845 2067 4723 2285 
Q 5037 2221 5174 2221 
Q 5312 2221 5369 2297 
Q 5427 2374 5427 2618 
L 4173 2618 
Q 4198 2246 4218 2125 
L 3654 2125 
Q 3686 2355 3686 2618 
L 2541 2618 
Q 2342 2234 1837 1933 
L 4890 1933 
z
M 2950 1402 
Q 3226 1293 3546 1274 
Q 3648 1267 3648 1232 
Q 3648 1197 3571 1155 
Q 3494 1114 3382 790 
Q 3270 467 3004 201 
Q 2739 -64 2195 -304 
Q 1651 -544 986 -640 
Q 832 -294 589 -83 
Q 698 -90 806 -90 
Q 1594 -90 2275 217 
Q 2957 525 2950 1402 
z
M 5683 -134 
L 5274 -595 
Q 4294 -6 3334 320 
L 3565 666 
Q 4659 307 5683 -134 
z
" transform="scale(0.015625)"/>
      <path id="STHeiti-70b9" d="M 3238 3962 
L 3238 3206 
Q 4749 3206 5120 3270 
Q 5082 2893 5082 2217 
Q 5082 1542 5120 1248 
Q 4621 1299 3136 1299 
Q 1651 1299 1216 1235 
Q 1280 1734 1280 2268 
Q 1280 2803 1216 3270 
Q 1658 3213 2662 3206 
L 2662 4224 
Q 2662 4922 2598 5229 
Q 3040 5133 3354 5133 
Q 3450 5133 3450 5104 
Q 3450 5075 3376 5030 
Q 3302 4986 3270 4934 
Q 3238 4883 3238 4755 
L 3238 4429 
L 4358 4429 
Q 4998 4429 5594 4486 
L 5594 3904 
Q 5114 3962 4365 3962 
L 3238 3962 
z
M 4557 1754 
L 4557 2752 
L 1779 2752 
L 1779 1754 
L 4557 1754 
z
M 6022 -141 
L 5389 -397 
Q 5184 230 4781 813 
L 5267 998 
Q 5613 435 6022 -141 
z
M 1478 704 
Q 1107 -83 909 -538 
L 275 -294 
Q 800 250 1005 896 
L 1478 704 
z
M 4320 -250 
L 3706 -333 
Q 3584 314 3405 762 
L 3923 890 
Q 4083 352 4320 -250 
z
M 2835 -358 
L 2214 -422 
Q 2227 154 2080 653 
L 2605 710 
Q 2714 64 2835 -358 
z
" transform="scale(0.015625)"/>
     </defs>
     <use xlink:href="#STHeiti-37"/>
     <use xlink:href="#STHeiti-31" transform="translate(55.399994 0)"/>
     <use xlink:href="#STHeiti-2e" transform="translate(110.799988 0)"/>
     <use xlink:href="#STHeiti-32" transform="translate(138.499985 0)"/>
     <use xlink:href="#STHeiti-25" transform="translate(193.899979 0)"/>
     <use xlink:href="#STHeiti-20" transform="translate(271.399963 0)"/>
     <use xlink:href="#STHeiti-672a" transform="translate(296.399948 0)"/>
     <use xlink:href="#STHeiti-63a5" transform="translate(396.399933 0)"/>
     <use xlink:href="#STHeiti-901a" transform="translate(496.399918 0)"/>
     <use xlink:href="#STHeiti-20" transform="translate(596.399902 0)"/>
     <use xlink:href="#STHeiti-3d" transform="translate(621.399887 0)"/>
     <use xlink:href="#STHeiti-20" transform="translate(681.999878 0)"/>
     <use xlink:href="#STHeiti-6700" transform="translate(706.999863 0)"/>
     <use xlink:href="#STHeiti-5927" transform="translate(806.999847 0)"/>
     <use xlink:href="#STHeiti-6d6a" transform="translate(906.999832 0)"/>
     <use xlink:href="#STHeiti-8d39" transform="translate(1006.999817 0)"/>
     <use xlink:href="#STHeiti-70b9" transform="translate(1106.999802 0)"/>
    </g>
   </g>
   <g id="text_9">
    <!-- 71% 外呼未接通，接通率是最大瓶颈 -->
    <g style="fill: #6b3410" transform="translate(58.391364 19.9975) scale(0.16 -0.16)">
     <defs>
      <path id="STHeiti-ff0c" d="M 1952 435 
Q 1952 0 1776 -253 
Q 1600 -506 1286 -557 
L 1286 -262 
Q 1626 -224 1626 384 
L 1286 384 
L 1286 1062 
L 1952 1062 
L 1952 435 
z
" transform="scale(0.015625)"/>
      <path id="STHeiti-7387" d="M 3066 4621 
Q 2970 4934 2867 5152 
L 3526 5254 
Q 3546 4902 3616 4621 
Q 5018 4627 5837 4685 
L 5837 4115 
Q 4941 4179 3277 4179 
Q 1613 4179 678 4115 
L 678 4685 
Q 1568 4621 3066 4621 
z
M 3046 2790 
L 2662 2739 
Q 2195 2675 2106 2637 
Q 2106 2854 2010 3059 
Q 2336 3155 2842 4128 
Q 3110 3955 3251 3913 
Q 3392 3872 3392 3846 
Q 3392 3821 3251 3769 
Q 3110 3718 2944 3497 
Q 2778 3277 2573 3085 
L 3373 3142 
Q 3686 3501 3859 3770 
Q 4077 3546 4307 3443 
Q 4397 3405 4397 3360 
Q 4397 3315 4307 3308 
Q 4218 3302 3965 3126 
Q 3712 2950 3411 2636 
Q 3110 2323 2624 1952 
L 3808 2035 
Q 3661 2278 3552 2413 
L 3942 2656 
Q 4211 2176 4595 1600 
L 4141 1389 
Q 4109 1466 4000 1683 
L 3456 1651 
L 3456 1018 
Q 5126 1018 5990 1075 
L 5990 518 
Q 5126 576 3456 576 
Q 3469 -160 3520 -691 
L 2886 -691 
Q 2944 -70 2944 576 
Q 1325 563 506 518 
L 506 1075 
Q 1331 1030 2950 1018 
L 2950 1613 
Q 2419 1574 2093 1491 
Q 2048 1786 1933 1965 
Q 2157 1965 2377 2147 
Q 2598 2330 3046 2790 
z
M 5248 3898 
Q 5453 3629 5709 3475 
Q 5760 3443 5760 3414 
Q 5760 3386 5677 3386 
Q 5594 3386 5389 3296 
Q 5184 3206 4755 2803 
Q 4595 3002 4384 3117 
Q 4934 3482 5248 3898 
z
M 1958 3238 
L 1587 2848 
Q 1261 3219 877 3507 
L 1222 3859 
Q 1517 3558 1958 3238 
z
M 5811 1933 
L 5414 1485 
Q 5030 1920 4461 2291 
L 4826 2675 
Q 5242 2317 5811 1933 
z
M 2003 2170 
Q 1824 2099 1024 1350 
Q 890 1645 704 1888 
Q 1018 2003 1357 2272 
Q 1696 2541 1798 2662 
Q 1830 2413 2003 2170 
z
" transform="scale(0.015625)"/>
      <path id="STHeiti-662f" d="M 5069 2829 
Q 4960 2867 3309 2867 
Q 1658 2867 1421 2822 
Q 1453 3085 1453 3475 
L 1453 4371 
Q 1453 4794 1421 4998 
Q 1638 4954 3235 4954 
Q 4832 4954 5069 4998 
Q 5030 4768 5030 4358 
L 5030 3462 
Q 5030 3136 5069 2829 
z
M 4518 4096 
L 4518 4570 
L 1984 4570 
L 1984 4096 
L 4518 4096 
z
M 4518 3238 
L 4518 3712 
L 1984 3712 
L 1984 3238 
L 4518 3238 
z
M 2982 1971 
Q 1414 1971 454 1920 
L 454 2438 
Q 1312 2387 3225 2387 
Q 5139 2387 5990 2438 
L 5990 1920 
Q 5030 1971 3507 1971 
L 3507 1376 
Q 4947 1376 5325 1434 
L 5325 928 
Q 5030 966 3507 966 
L 3507 109 
Q 3917 77 4365 77 
Q 5254 77 5984 192 
Q 5830 -64 5830 -288 
Q 5830 -384 5856 -493 
Q 4851 -512 4112 -467 
Q 3373 -422 3065 -332 
Q 2758 -243 2502 -128 
Q 2246 -13 2057 160 
Q 1869 333 1696 621 
Q 1370 -58 941 -614 
Q 698 -352 416 -230 
Q 1242 339 1594 1709 
Q 1696 1638 1869 1593 
Q 2042 1549 2138 1549 
Q 2234 1549 2234 1523 
Q 2234 1498 2189 1459 
Q 2054 1338 1875 979 
Q 2336 339 2982 173 
L 2982 1971 
z
" transform="scale(0.015625)"/>
      <path id="STHeiti-74f6" d="M 1901 3725 
Q 2195 4410 2240 5146 
Q 2611 4966 2931 4909 
Q 2995 4902 2995 4848 
Q 2995 4794 2918 4762 
Q 2675 4646 2253 3725 
Q 2842 3725 3110 3782 
L 3110 3264 
Q 2899 3309 2573 3322 
L 2573 2163 
Q 2918 2176 3213 2221 
L 3213 1696 
Q 2938 1747 2573 1760 
L 2573 698 
Q 2573 243 2637 -403 
L 2061 -403 
Q 2131 205 2131 698 
L 2131 1760 
L 1555 1760 
Q 1542 1005 1376 518 
Q 1210 32 813 -448 
Q 582 -173 371 -70 
Q 781 275 928 675 
Q 1075 1075 1088 1760 
Q 678 1747 371 1702 
L 371 2227 
Q 659 2176 1094 2163 
L 1094 3322 
Q 806 3315 538 3264 
L 538 3782 
Q 851 3725 1197 3725 
L 1901 3725 
z
M 2131 2163 
L 2131 3322 
L 1562 3322 
L 1562 2163 
L 2131 2163 
z
M 1690 4096 
L 1190 3904 
Q 1037 4390 787 4755 
L 1229 4986 
Q 1466 4608 1690 4096 
z
M 4000 4288 
L 3955 3443 
L 4762 3443 
Q 5178 3443 5466 3494 
Q 5402 3334 5370 2765 
L 5235 211 
Q 5229 58 5261 -9 
Q 5293 -77 5401 -77 
Q 5510 -77 5561 -35 
Q 5613 6 5645 153 
Q 5677 301 5715 653 
Q 5901 416 6163 352 
Q 6067 -51 5990 -220 
Q 5914 -390 5786 -441 
Q 5658 -493 5334 -493 
Q 5011 -493 4892 -384 
Q 4774 -275 4787 32 
L 4922 3040 
L 3930 3040 
L 3770 282 
Q 4186 525 4467 755 
Q 4499 550 4646 333 
L 3782 -230 
Q 3514 -403 3386 -550 
Q 3238 -256 3046 -77 
Q 3302 90 3328 570 
L 3539 4275 
Q 3245 4256 3072 4230 
L 3072 4762 
Q 3610 4710 4458 4710 
Q 5306 4710 5837 4762 
L 5837 4230 
Q 5338 4288 4730 4288 
L 4000 4288 
z
M 4685 1363 
L 4198 1274 
Q 4198 1978 4070 2522 
L 4506 2573 
Q 4570 1990 4685 1363 
z
" transform="scale(0.015625)"/>
      <path id="STHeiti-9888" d="M 4205 4410 
Q 3437 4403 3053 4358 
L 3053 4902 
Q 3526 4851 4585 4851 
Q 5645 4851 6125 4902 
L 6125 4358 
Q 5587 4410 4762 4410 
Q 4678 4026 4640 3661 
Q 5344 3674 5805 3706 
Q 5766 3386 5766 2848 
L 5766 1658 
Q 5766 1165 5805 774 
L 5267 774 
L 5267 3232 
L 3699 3232 
L 3699 742 
L 3181 742 
Q 3226 1171 3226 1632 
L 3226 2848 
Q 3226 3450 3187 3706 
Q 3539 3674 4122 3661 
Q 4173 3994 4205 4410 
z
M 2086 3834 
Q 2733 3418 3110 3008 
L 2752 2586 
Q 2330 3117 1830 3482 
Q 1376 2931 672 2573 
Q 576 2803 237 3014 
Q 1267 3309 1875 4397 
L 1126 4397 
Q 877 4397 538 4346 
L 538 4896 
Q 883 4851 1587 4851 
Q 2291 4851 2656 4896 
Q 2419 4333 2086 3834 
z
M 4198 2803 
Q 4563 2739 4720 2739 
Q 4877 2739 4877 2729 
Q 4877 2720 4841 2697 
Q 4806 2675 4777 2601 
Q 4749 2528 4742 2445 
Q 4678 1344 4569 928 
Q 4461 512 4153 208 
Q 3846 -96 3008 -595 
Q 2835 -371 2509 -147 
Q 3181 58 3581 342 
Q 3981 627 4105 1139 
Q 4230 1651 4230 2070 
Q 4230 2490 4198 2803 
z
M 1882 646 
Q 2317 742 2822 883 
Q 2771 653 2784 384 
Q 1133 38 582 -218 
Q 518 32 390 410 
Q 915 454 1414 550 
L 1414 1856 
Q 870 1850 621 1805 
L 621 2336 
Q 947 2285 1689 2285 
Q 2432 2285 2758 2336 
L 2758 1805 
Q 2496 1843 1882 1856 
L 1882 646 
z
M 6080 -230 
L 5645 -646 
Q 5152 -83 4589 371 
L 4966 710 
Q 5485 294 6080 -230 
z
" transform="scale(0.015625)"/>
     </defs>
     <use xlink:href="#STHeiti-37"/>
     <use xlink:href="#STHeiti-31" transform="translate(55.399994 0)"/>
     <use xlink:href="#STHeiti-25" transform="translate(110.799988 0)"/>
     <use xlink:href="#STHeiti-20" transform="translate(188.299973 0)"/>
     <use xlink:href="#STHeiti-5916" transform="translate(213.299957 0)"/>
     <use xlink:href="#STHeiti-547c" transform="translate(313.299942 0)"/>
     <use xlink:href="#STHeiti-672a" transform="translate(413.299927 0)"/>
     <use xlink:href="#STHeiti-63a5" transform="translate(513.299911 0)"/>
     <use xlink:href="#STHeiti-901a" transform="translate(613.299896 0)"/>
     <use xlink:href="#STHeiti-ff0c" transform="translate(713.299881 0)"/>
     <use xlink:href="#STHeiti-63a5" transform="translate(813.299866 0)"/>
     <use xlink:href="#STHeiti-901a" transform="translate(913.29985 0)"/>
     <use xlink:href="#STHeiti-7387" transform="translate(1013.299835 0)"/>
     <use xlink:href="#STHeiti-662f" transform="translate(1113.29982 0)"/>
     <use xlink:href="#STHeiti-6700" transform="translate(1213.299805 0)"/>
     <use xlink:href="#STHeiti-5927" transform="translate(1313.299789 0)"/>
     <use xlink:href="#STHeiti-74f6" transform="translate(1413.299774 0)"/>
     <use xlink:href="#STHeiti-9888" transform="translate(1513.299759 0)"/>
    </g>
   </g>
  </g>
 </g>
 <defs>
  <clipPath id="paf2da93eee">
   <rect x="7.2" y="34.9975" width="360.512727" height="308.25"/>
  </clipPath>
 </defs>
</svg>
