<svg xmlns="http://www.w3.org/2000/svg" viewBox="0 0 1000 2680" width="1000" height="2680">
<defs>
  <style>
    .bg { fill: #FAFAFA; }
    .section-bg { fill: #FFFFFF; stroke: #E0E0E0; stroke-width: 1; rx: 6; }
    .section-title { font-family: -apple-system, 'PingFang SC', 'Microsoft YaHei', sans-serif; font-size: 15px; font-weight: 700; fill: #1A1A1A; }
    .node-title { font-family: -apple-system, 'PingFang SC', 'Microsoft YaHei', sans-serif; font-size: 12px; font-weight: 600; fill: #1A1A1A; }
    .node-body { font-family: -apple-system, 'PingFang SC', 'Microsoft YaHei', sans-serif; font-size: 10.5px; fill: #555555; }
    .node-body-bold { font-family: -apple-system, 'PingFang SC', 'Microsoft YaHei', sans-serif; font-size: 10.5px; font-weight: 600; fill: #333333; }
    .small { font-size: 9.5px; }
    .arrow { stroke: #999999; stroke-width: 1.5; fill: none; marker-end: url(#arrowhead); }
    .arrow-green { stroke: #2E7D32; stroke-width: 1.5; fill: none; marker-end: url(#arrowgreen); }
    .arrow-red { stroke: #C62828; stroke-width: 1.5; fill: none; marker-end: url(#arrowred); }
    .arrow-amber { stroke: #E65100; stroke-width: 1.5; fill: none; marker-end: url(#arrowamber); }
    .arrow-dashed { stroke: #999999; stroke-width: 1.2; stroke-dasharray: 4,3; fill: none; marker-end: url(#arrowhead); }
    .label-green { font-family: -apple-system, 'PingFang SC', 'Microsoft YaHei', sans-serif; font-size: 9px; font-weight: 600; fill: #2E7D32; }
    .label-red { font-family: -apple-system, 'PingFang SC', 'Microsoft YaHei', sans-serif; font-size: 9px; font-weight: 600; fill: #C62828; }
    .label-amber { font-family: -apple-system, 'PingFang SC', 'Microsoft YaHei', sans-serif; font-size: 9px; font-weight: 600; fill: #E65100; }
    .label-gray { font-family: -apple-system, 'PingFang SC', 'Microsoft YaHei', sans-serif; font-size: 9px; fill: #888888; }
    .badge { font-family: -apple-system, 'PingFang SC', 'Microsoft YaHei', sans-serif; font-size: 9px; font-weight: 700; fill: #FFFFFF; }
    .table-header { font-family: -apple-system, 'PingFang SC', 'Microsoft YaHei', sans-serif; font-size: 10px; font-weight: 600; fill: #FFFFFF; }
    .table-cell { font-family: -apple-system, 'PingFang SC', 'Microsoft YaHei', sans-serif; font-size: 9.5px; fill: #444444; }
  </style>
  <marker id="arrowhead" markerWidth="8" markerHeight="6" refX="8" refY="3" orient="auto">
    <polygon points="0 0, 8 3, 0 6" fill="#999999"/>
  </marker>
  <marker id="arrowgreen" markerWidth="8" markerHeight="6" refX="8" refY="3" orient="auto">
    <polygon points="0 0, 8 3, 0 6" fill="#2E7D32"/>
  </marker>
  <marker id="arrowred" markerWidth="8" markerHeight="6" refX="8" refY="3" orient="auto">
    <polygon points="0 0, 8 3, 0 6" fill="#C62828"/>
  </marker>
  <marker id="arrowamber" markerWidth="8" markerHeight="6" refX="8" refY="3" orient="auto">
    <polygon points="0 0, 8 3, 0 6" fill="#E65100"/>
  </marker>
</defs>

<!-- Background -->
<rect class="bg" width="1000" height="2680" rx="0"/>

<!-- ==================== HEADER ==================== -->
<rect x="0" y="0" width="1000" height="52" fill="#1A1A1A" rx="0"/>
<text x="36" y="33" font-family="-apple-system, 'PingFang SC', 'Microsoft YaHei', sans-serif" font-size="20" font-weight="700" fill="#FFFFFF">viz-design 三循环工作流</text>
<text x="36" y="48" font-family="-apple-system, 'PingFang SC', 'Microsoft YaHei', sans-serif" font-size="11" fill="#AAAAAA">从数据/概念/文字到完整可视化图表 — 初稿 → 减法迭代 → 验收交付</text>
<text x="800" y="33" font-family="-apple-system, 'PingFang SC', 'Microsoft YaHei', sans-serif" font-size="10" fill="#888888">2026-05-10</text>

<!-- ==================== SECTION 1: 入口模式 ==================== -->
<g transform="translate(36, 72)">
  <rect class="section-bg" width="928" height="130"/>
  <text class="section-title" x="16" y="26">一、入口模式 — 年老师怎么说，决定怎么走</text>

  <!-- Mode A -->
  <rect x="16" y="38" width="210" height="80" rx="5" fill="#E3F2FD" stroke="#1976D2" stroke-width="1"/>
  <rect x="16" y="38" width="210" height="22" rx="5" fill="#1976D2"/>
  <rect x="16" y="50" width="210" height="10" fill="#1976D2"/>
  <text class="badge" x="26" y="54">A — 逐步引导</text>
  <text class="node-body" x="26" y="76"><tspan class="node-body-bold">"先看看数据能讲什么"</tspan></text>
  <text class="node-body small" x="26" y="91">列出 2-5 个分析角度 → 确认 → 选图表</text>
  <text class="node-body small" x="26" y="105">多图/复杂数据默认走此模式</text>

  <!-- Mode B -->
  <rect x="246" y="38" width="210" height="80" rx="5" fill="#E8F5E9" stroke="#388E3C" stroke-width="1"/>
  <rect x="246" y="38" width="210" height="22" rx="5" fill="#388E3C"/>
  <rect x="246" y="50" width="210" height="10" fill="#388E3C"/>
  <text class="badge" x="256" y="54">B — AI 推荐</text>
  <text class="node-body" x="266" y="76"><tspan class="node-body-bold">"你帮我决定" / "最佳方案"</tspan></text>
  <text class="node-body small" x="266" y="91">AI 自主决策最佳方案 → 直接出图</text>
  <text class="node-body small" x="266" y="105">跳过引导，DNA 自动匹配</text>

  <!-- Mode C -->
  <rect x="476" y="38" width="210" height="80" rx="5" fill="#FFF3E0" stroke="#F57C00" stroke-width="1"/>
  <rect x="476" y="38" width="210" height="22" rx="5" fill="#F57C00"/>
  <rect x="476" y="50" width="210" height="10" fill="#F57C00"/>
  <text class="badge" x="486" y="54">C — 自定义</text>
  <text class="node-body" x="496" y="76"><tspan class="node-body-bold">直接指定图表或角度</tspan></text>
  <text class="node-body small" x="496" y="91">按指定执行，跳过引导和推荐</text>
  <text class="node-body small" x="496" y="105">意图明确，路径清晰</text>

  <!-- Mode C-fast -->
  <rect x="706" y="38" width="210" height="80" rx="5" fill="#F3E5F5" stroke="#7B1FA2" stroke-width="1"/>
  <rect x="706" y="38" width="210" height="22" rx="5" fill="#7B1FA2"/>
  <rect x="706" y="50" width="210" height="10" fill="#7B1FA2"/>
  <text class="badge" x="716" y="54">C — 快速路径</text>
  <text class="node-body" x="736" y="76"><tspan class="node-body-bold">单图需求且意图明确</tspan></text>
  <text class="node-body small" x="736" y="91">跳过中间文件，直接出图</text>
  <text class="node-body small" x="736" y="105">减法迭代照常，验收照常</text>
</g>

<!-- Arrow down from entry modes -->
<line x1="500" y1="202" x2="500" y2="222" class="arrow"/>

<!-- ==================== SECTION 2: 快速通道决策 ==================== -->
<g transform="translate(36, 222)">
  <rect class="section-bg" width="928" height="108"/>
  <text class="section-title" x="16" y="26">二、快速通道决策 — 收到需求先读这四行</text>

  <!-- Table -->
  <rect x="16" y="36" width="896" height="22" rx="3" fill="#37474F"/>
  <text class="table-header" x="26" y="51">你的需求</text>
  <text class="table-header" x="280" y="51">走哪条路</text>
  <text class="table-header" x="500" y="51">中间文件</text>
  <text class="table-header" x="730" y="51">渲染目标</text>

  <!-- Row 1 -->
  <rect x="16" y="58" width="896" height="18" fill="#F5F5F5"/>
  <text class="table-cell" x="26" y="71">"帮我画个 X 图"（单图、意图明确）</text>
  <text class="table-cell" x="280" y="71" fill="#E65100" font-weight="600">轻量模式</text>
  <text class="table-cell" x="500" y="71">跳过，直接出图</text>
  <text class="table-cell" x="730" y="71">ECharts / SVG</text>

  <!-- Row 2 -->
  <rect x="16" y="76" width="896" height="18" fill="#FFFFFF"/>
  <text class="table-cell" x="26" y="89">"做一份 XX 报告，需要 N 张图"</text>
  <text class="table-cell" x="280" y="89" fill="#1976D2" font-weight="600">完整流程</text>
  <text class="table-cell" x="500" y="89">每张写完整中间文件，先锁全局风格</text>
  <text class="table-cell" x="730" y="89">ECharts HTML</text>

  <!-- Row 3 -->
  <rect x="16" y="94" width="896" height="18" fill="#F5F5F5"/>
  <text class="table-cell" x="26" y="107">"只有概念/文字，没有数据"</text>
  <text class="table-cell" x="280" y="107" fill="#7B1FA2" font-weight="600">概念路径</text>
  <text class="table-cell" x="500" y="107">写中间文件，Phase 1 读 concept-pattern-map</text>
  <text class="table-cell" x="730" y="107">SVG</text>

  <!-- Row 4 -->
  <rect x="16" y="112" width="896" height="18" fill="#FFFFFF"/>
  <text class="table-cell" x="26" y="125">"先看看数据能讲什么"（不确定方向）</text>
  <text class="table-cell" x="280" y="125" fill="#388E3C" font-weight="600">引导模式</text>
  <text class="table-cell" x="500" y="125">先列分析角度 → 确认 → 写中间文件 → 出图</text>
  <text class="table-cell" x="730" y="125">按意图匹配</text>
</g>

<!-- Arrow down -->
<line x1="500" y1="330" x2="500" y2="352" class="arrow"/>

<!-- ==================== SECTION 3: R0 必要性门禁 ==================== -->
<g transform="translate(36, 352)">
  <rect class="section-bg" width="928" height="110"/>
  <text class="section-title" x="16" y="26">三、R0 必要性门禁 — 三个判断，不通过直接终止</text>

  <!-- Decision 1 -->
  <polygon points="100,42 220,72 100,102 -20,72" fill="#FFF9C4" stroke="#F9A825" stroke-width="1.5"/>
  <text class="node-body" x="50" y="69" text-anchor="middle">信息能用一句话</text>
  <text class="node-body" x="50" y="82" text-anchor="middle">说清？</text>

  <!-- Arrow: YES -->
  <line x1="220" y1="72" x2="310" y2="72" class="arrow-green"/>
  <text class="label-green" x="230" y="65">是 →</text>
  <rect x="310" y="58" width="130" height="28" rx="4" fill="#E8F5E9" stroke="#388E3C" stroke-width="1"/>
  <text class="node-body" x="320" y="76" font-weight="600" fill="#2E7D32">不做图，文字表达</text>

  <!-- Arrow: NO (down) -->
  <line x1="100" y1="102" x2="100" y2="130" class="arrow"/>
  <text class="label-gray" x="108" y="122">否 ↓</text>

  <!-- Decision 2 -->
  <polygon points="100,130 220,160 100,190 -20,160" fill="#FFF9C4" stroke="#F9A825" stroke-width="1.5"/>
  <text class="node-body" x="50" y="157" text-anchor="middle">精确数值/系数/清单？</text>

  <!-- Arrow: YES -->
  <line x1="220" y1="160" x2="310" y2="160" class="arrow-green"/>
  <text class="label-green" x="230" y="153">是 →</text>
  <rect x="310" y="146" width="100" height="28" rx="4" fill="#E8F5E9" stroke="#388E3C" stroke-width="1"/>
  <text class="node-body" x="320" y="164" font-weight="600" fill="#2E7D32">表格</text>

  <!-- Decision 3 -->
  <polygon points="500,52 620,82 500,112 380,82" fill="#C8E6C9" stroke="#388E3C" stroke-width="1.5"/>
  <text class="node-body" x="450" y="79" text-anchor="middle">分布/趋势/关联/</text>
  <text class="node-body" x="450" y="92" text-anchor="middle">复杂比较？</text>

  <!-- Arrow: YES (continue) -->
  <line x1="620" y1="82" x2="710" y2="82" class="arrow-green"/>
  <text class="label-green" x="630" y="75">是 →</text>
  <rect x="710" y="68" width="180" height="28" rx="4" fill="#C8E6C9" stroke="#388E3C" stroke-width="1.5"/>
  <text class="node-body" x="720" y="86" font-weight="600" fill="#2E7D32">继续，进入循环 1</text>

  <!-- Arrow from decision 2 NO to decision 3 -->
  <line x1="100" y1="190" x2="100" y2="210" class="arrow" stroke-dasharray="1,1"/>
  <text class="label-gray" x="108" y="205">否 ↓ 继续判断</text>
  <!-- Connect decision 2 to decision 3 area -->
  <line x1="100" y1="190" x2="380" y2="82" class="arrow" stroke-dasharray="1,1"/>

  <!-- Note -->
  <text class="label-gray" x="500" y="115" text-anchor="middle">R0 任一判断命中终止条件 → 直接输出，不走三循环</text>
</g>

<!-- Arrow down to Loop 1 -->
<line x1="500" y1="462" x2="500" y2="488" class="arrow"/>

<!-- ==================== SECTION 4: 循环 1 — 初稿 ==================== -->
<g transform="translate(36, 488)">
  <rect class="section-bg" width="928" height="420"/>
  <rect x="16" y="10" width="240" height="26" rx="4" fill="#1565C0"/>
  <text class="badge" x="26" y="28" font-size="12">循环 1：初稿 — 先有</text>
  <text class="label-gray" x="270" y="28">目标：产出第一版图表，可以包含所有元素</text>

  <!-- Step 1: DNA 意图匹配 -->
  <rect x="30" y="52" width="868" height="48" rx="5" fill="#E3F2FD" stroke="#1976D2" stroke-width="1"/>
  <text x="44" y="68" font-family="-apple-system, sans-serif" font-size="11" font-weight="700" fill="#1565C0">Step 1</text>
  <text class="node-body" x="96" y="68"><tspan class="node-body-bold">DNA 意图匹配</tspan> — 读 dna-index-ai.md（15 类意图索引），按"要表达什么"选模式</text>
  <text class="node-body small" x="96" y="84">锁定后按案例 ID 去 TSV 查完整 DNA（highlight / annotation / composition / reading_path / 色板），继承全策略</text>

  <line x1="464" y1="100" x2="464" y2="118" class="arrow"/>

  <!-- Step 2: 查 TSV 继承全策略 -->
  <rect x="30" y="118" width="868" height="40" rx="5" fill="#E3F2FD" stroke="#1976D2" stroke-width="1"/>
  <text x="44" y="134" font-family="-apple-system, sans-serif" font-size="11" font-weight="700" fill="#1565C0">Step 2</text>
  <text class="node-body" x="96" y="134"><tspan class="node-body-bold">查 TSV 继承全策略</tspan> — highlight / annotation / composition / reading_path / 色板</text>
  <text class="node-body small" x="96" y="150">完整继承，不自行发明</text>

  <line x1="464" y1="158" x2="464" y2="176" class="arrow"/>

  <!-- Step 3: 速查施工图模板 -->
  <rect x="30" y="176" width="868" height="56" rx="5" fill="#BBDEFB" stroke="#1976D2" stroke-width="1"/>
  <text x="44" y="192" font-family="-apple-system, sans-serif" font-size="11" font-weight="700" fill="#1565C0">Step 3</text>
  <text class="node-body" x="96" y="192"><tspan class="node-body-bold">速查施工图模板</tspan> — dna-playbook.md</text>
  <text class="node-body small" x="96" y="208">命中模板 → 直接套用，只替换数据（不重新发明轮子）</text>
  <text class="node-body small" x="96" y="222" fill="#E65100">未命中 → 走 fallback 链（Step 4）</text>

  <line x1="464" y1="232" x2="464" y2="250" class="arrow"/>

  <!-- Step 4: fallback 链 -->
  <rect x="30" y="250" width="868" height="44" rx="5" fill="#FFF3E0" stroke="#F57C00" stroke-width="1"/>
  <text x="44" y="266" font-family="-apple-system, sans-serif" font-size="11" font-weight="700" fill="#E65100">Step 4</text>
  <text class="node-body" x="96" y="266"><tspan class="node-body-bold">Fallback 链</tspan>（未命中模板时）concept-pattern-map → consulting-archetypes → 自主推理（写依据）</text>
  <text class="node-body small" x="96" y="282">自主推理时必须写出决策依据，不走独立决策树</text>

  <line x1="464" y1="294" x2="464" y2="312" class="arrow"/>

  <!-- Step 5: 版式 + 解读策略 -->
  <rect x="30" y="312" width="868" height="36" rx="5" fill="#E3F2FD" stroke="#1976D2" stroke-width="1"/>
  <text x="44" y="328" font-family="-apple-system, sans-serif" font-size="11" font-weight="700" fill="#1565C0">Step 5</text>
  <text class="node-body" x="96" y="328"><tspan class="node-body-bold">版式 + 解读策略</tspan> — 读 layout-selector.md，按场景匹配版式与解读策略</text>

  <line x1="464" y1="348" x2="464" y2="366" class="arrow"/>

  <!-- Step 6: 写中间文件 -->
  <rect x="30" y="366" width="868" height="42" rx="5" fill="#F3E5F5" stroke="#7B1FA2" stroke-width="1"/>
  <text x="44" y="382" font-family="-apple-system, sans-serif" font-size="11" font-weight="700" fill="#7B1FA2">Step 6</text>
  <text class="node-body" x="96" y="382"><tspan class="node-body-bold">写中间文件</tspan>（记录意图、叙事、规格，用于减法和验收对照）</text>
  <text class="node-body small" x="96" y="398">intent.md（意图决策） | storyboard.md（视觉叙事） | spec.md（设计规格）</text>
</g>

<!-- Arrow down -->
<line x1="500" y1="908" x2="500" y2="926" class="arrow"/>

<!-- ==================== SECTION 5: 出第一版 ==================== -->
<g transform="translate(36, 926)">
  <rect x="16" y="0" width="896" height="46" rx="6" fill="#E8F5E9" stroke="#388E3C" stroke-width="1.5"/>
  <text class="node-body" x="36" y="20"><tspan class="node-body-bold" font-size="13" fill="#2E7D32">Step 7 — 出第一版图表</tspan></text>
  <text class="node-body small" x="36" y="36">ECharts HTML / SVG，可包含所有元素：图例、标题区、结论区、标注、参考线...</text>
</g>

<!-- Arrow down -->
<line x1="500" y1="972" x2="500" y2="992" class="arrow"/>

<!-- ==================== SECTION 6: 循环 2 — 减法迭代 ==================== -->
<g transform="translate(36, 992)">
  <rect class="section-bg" width="928" height="380"/>
  <rect x="16" y="10" width="280" height="26" rx="4" fill="#E65100"/>
  <text class="badge" x="26" y="28" font-size="12">循环 2：减法迭代 — 再做精</text>
  <text class="label-gray" x="310" y="28">核心！最多 3 轮，逐项追问每个元素的价值</text>

  <!-- 7 Questions Table -->
  <rect x="16" y="46" width="896" height="22" rx="3" fill="#455A64"/>
  <text class="table-header" x="26" y="61">元素</text>
  <text class="table-header" x="200" y="61">追问</text>
  <text class="table-header" x="560" y="61">判断标准</text>
  <text class="table-header" x="810" y="61">动作</text>

  <!-- Row 1: 标题 -->
  <rect x="16" y="68" width="896" height="18" fill="#F5F5F5"/>
  <text class="table-cell" x="26" y="81" font-weight="600">标题</text>
  <text class="table-cell" x="200" y="81">是结论还是描述？</text>
  <text class="table-cell" x="560" y="81">"B 组领先 F 组 62%" vs "各组对比"</text>
  <text class="table-cell" x="810" y="81" fill="#E65100" font-weight="600">结论留，描述改</text>

  <!-- Row 2: 图例 -->
  <rect x="16" y="86" width="896" height="18" fill="#FFFFFF"/>
  <text class="table-cell" x="26" y="99" font-weight="600">图例</text>
  <text class="table-cell" x="200" y="99">必须吗？能用颜色+文字替代？</text>
  <text class="table-cell" x="560" y="99">单系列数据不需要图例</text>
  <text class="table-cell" x="810" y="99" fill="#E65100" font-weight="600">能省则省</text>

  <!-- Row 3: 网格线 -->
  <rect x="16" y="104" width="896" height="18" fill="#F5F5F5"/>
  <text class="table-cell" x="26" y="117" font-weight="600">网格线</text>
  <text class="table-cell" x="200" y="117">帮助读图还是干扰？</text>
  <text class="table-cell" x="560" y="117">多数情况可以淡化或去掉</text>
  <text class="table-cell" x="810" y="117" fill="#E65100" font-weight="600">淡化或去掉</text>

  <!-- Row 4: 边框 -->
  <rect x="16" y="122" width="896" height="18" fill="#FFFFFF"/>
  <text class="table-cell" x="26" y="135" font-weight="600">边框</text>
  <text class="table-cell" x="200" y="135">有结构价值吗？</text>
  <text class="table-cell" x="560" y="135">几乎总是可以去掉</text>
  <text class="table-cell" x="810" y="135" fill="#E65100" font-weight="600">去掉</text>

  <!-- Row 5: 标注 -->
  <rect x="16" y="140" width="896" height="18" fill="#F5F5F5"/>
  <text class="table-cell" x="26" y="153" font-weight="600">标注</text>
  <text class="table-cell" x="200" y="153">写原因还是写数字？</text>
  <text class="table-cell" x="560" y="153">写原因+幅度（"增长 62%"），不写纯数字</text>
  <text class="table-cell" x="810" y="153" fill="#E65100" font-weight="600">写原因+幅度</text>

  <!-- Row 6: 参考线 -->
  <rect x="16" y="158" width="896" height="18" fill="#FFFFFF"/>
  <text class="table-cell" x="26" y="171" font-weight="600">参考线</text>
  <text class="table-cell" x="200" y="171">帮助理解基准吗？</text>
  <text class="table-cell" x="560" y="171">有明确基准（目标值/平均值/前高）时保留</text>
  <text class="table-cell" x="810" y="171" fill="#E65100" font-weight="600">有基准就留</text>

  <!-- Row 7: 色块/背景 -->
  <rect x="16" y="176" width="896" height="18" fill="#F5F5F5"/>
  <text class="table-cell" x="26" y="189" font-weight="600">色块/背景</text>
  <text class="table-cell" x="200" y="189">帮助区分阶段吗？</text>
  <text class="table-cell" x="560" y="189">有明确阶段划分时保留，否则去掉</text>
  <text class="table-cell" x="810" y="189" fill="#E65100" font-weight="600">有阶段就留</text>

  <!-- Principle box -->
  <rect x="16" y="206" width="896" height="36" rx="4" fill="#FFF3E0" stroke="#F57C00" stroke-width="1"/>
  <text class="node-body" x="26" y="222"><tspan class="node-body-bold">原则：</tspan>每去掉一个元素，图都应该更清晰。减法的终点是<tspan class="node-body-bold">"每个留下的元素都在为核心判断服务"</tspan></text>
  <text class="node-body small" x="26" y="236">中间文件同步更新，记录每次迭代决策 | 用户说"够了"则提前终止</text>

  <!-- Loop indicator -->
  <rect x="16" y="254" width="896" height="36" rx="4" fill="#FBE9E7" stroke="#E65100" stroke-width="1" stroke-dasharray="4,2"/>
  <text class="node-body" x="26" y="270" fill="#E65100"><tspan class="node-body-bold">循环标识：</tspan>最多 3 轮迭代。每轮：出图 → 7 问追问 → 做减法 → 更新中间文件 → 再出图</text>
  <text class="node-body small" x="26" y="284">迭代后进入循环 3 验收</text>

  <!-- Meta questions area -->
  <rect x="16" y="302" width="896" height="66" rx="4" fill="#FFF9C4" stroke="#F9A825" stroke-width="1"/>
  <text class="node-body" x="26" y="318"><tspan class="node-body-bold">减法追问元问题：</tspan></text>
  <text class="node-body small" x="26" y="333">1. 这个元素让用户更清楚了吗？  2. 去掉它会影响理解吗？  3. 留下它会让重点更突出还是更分散？</text>
  <text class="node-body small" x="26" y="348">4. 标注写原因还是写数字？  5. 图例必须吗？  6. 网格线/边框/背景需要吗？  7. 标题是结论还是描述？</text>
</g>

<!-- Arrow down -->
<line x1="500" y1="1372" x2="500" y2="1392" class="arrow"/>

<!-- ==================== SECTION 7: 渲染路由 ==================== -->
<g transform="translate(36, 1392)">
  <rect class="section-bg" width="928" height="100"/>
  <text class="section-title" x="16" y="26">渲染路由 — 在出图阶段确定技术选型</text>

  <!-- Route 1: ECharts -->
  <rect x="16" y="38" width="280" height="50" rx="5" fill="#E3F2FD" stroke="#1976D2" stroke-width="1"/>
  <text class="node-body" x="26" y="56"><tspan class="node-body-bold">数据图表</tspan></text>
  <text class="node-body small" x="26" y="71">折线/柱状/环形/条形/散点/面积/瀑布/漏斗</text>
  <rect x="16" y="78" width="280" height="14" rx="0" fill="#1976D2"/>
  <rect x="16" y="86" width="280" height="2" fill="#1976D2"/>
  <text class="badge" x="80" y="88" font-size="9">ECharts HTML（自包含）</text>

  <!-- Route 2: SVG -->
  <rect x="316" y="38" width="280" height="50" rx="5" fill="#F3E5F5" stroke="#7B1FA2" stroke-width="1"/>
  <text class="node-body" x="326" y="56"><tspan class="node-body-bold">概念图</tspan></text>
  <text class="node-body small" x="326" y="71">齿轮/金字塔/冰山/流程/层级/网络</text>
  <rect x="316" y="78" width="280" height="14" rx="0" fill="#7B1FA2"/>
  <rect x="316" y="86" width="280" height="2" fill="#7B1FA2"/>
  <text class="badge" x="410" y="88" font-size="9">SVG</text>

  <!-- Route 3: nature-figure -->
  <rect x="616" y="38" width="280" height="50" rx="5" fill="#FBE9E7" stroke="#BF360C" stroke-width="1"/>
  <text class="node-body" x="626" y="56"><tspan class="node-body-bold">印刷级 / 学术论文</tspan></text>
  <text class="node-body small" x="626" y="71">Nature/顶刊级出版要求，调用 nature-figure 技能</text>
  <rect x="616" y="78" width="280" height="14" rx="0" fill="#BF360C"/>
  <rect x="616" y="86" width="280" height="2" fill="#BF360C"/>
  <text class="badge" x="660" y="88" font-size="9">nature-figure (ggplot2)</text>
</g>

<!-- Arrow down -->
<line x1="500" y1="1492" x2="500" y2="1512" class="arrow"/>

<!-- ==================== SECTION 8: 循环 3 — 验收 ==================== -->
<g transform="translate(36, 1512)">
  <rect class="section-bg" width="928" height="320"/>
  <rect x="16" y="10" width="280" height="26" rx="4" fill="#C62828"/>
  <text class="badge" x="26" y="28" font-size="12">循环 3：验收 — 最后检查</text>
  <text class="label-gray" x="310" y="28">逐项检查，4+ 失败 → 回退循环 1</text>

  <!-- 8 Check Items -->
  <rect x="16" y="46" width="896" height="22" rx="3" fill="#37474F"/>
  <text class="table-header" x="26" y="61">#</text>
  <text class="table-header" x="60" y="61">检查项</text>
  <text class="table-header" x="400" y="61">标准</text>
  <text class="table-header" x="700" y="61">失败表现</text>
  <text class="table-header" x="860" y="61">结果</text>

  <!-- Item 1 -->
  <rect x="16" y="68" width="896" height="18" fill="#F5F5F5"/>
  <text class="table-cell" x="30" y="81">1</text>
  <text class="table-cell" x="60" y="81" font-weight="600">内容截断</text>
  <text class="table-cell" x="400" y="81">所有元素在 viewBox 内完整显示</text>
  <text class="table-cell" x="700" y="81">文字/图形被裁剪</text>
  <text class="label-gray" x="860" y="81">PASS / FAIL</text>

  <!-- Item 2 -->
  <rect x="16" y="86" width="896" height="18" fill="#FFFFFF"/>
  <text class="table-cell" x="30" y="99">2</text>
  <text class="table-cell" x="60" y="99" font-weight="600">代码泄露</text>
  <text class="table-cell" x="400" y="99">页面不显示源代码或技术标记</text>
  <text class="table-cell" x="700" y="99">HTML/JS 代码可见</text>
  <text class="label-gray" x="860" y="99">PASS / FAIL</text>

  <!-- Item 3 -->
  <rect x="16" y="104" width="896" height="18" fill="#F5F5F5"/>
  <text class="table-cell" x="30" y="117">3</text>
  <text class="table-cell" x="60" y="117" font-weight="600">中文乱码</text>
  <text class="table-cell" x="400" y="117">所有中文文字正常显示</text>
  <text class="table-cell" x="700" y="117">问号方块/乱码</text>
  <text class="label-gray" x="860" y="117">PASS / FAIL</text>

  <!-- Item 4 -->
  <rect x="16" y="122" width="896" height="18" fill="#FFFFFF"/>
  <text class="table-cell" x="30" y="135">4</text>
  <text class="table-cell" x="60" y="135" font-weight="600">元素重叠</text>
  <text class="table-cell" x="400" y="135">各元素无异常重叠</text>
  <text class="table-cell" x="700" y="135">文字/图形互相遮挡</text>
  <text class="label-gray" x="860" y="135">PASS / FAIL</text>

  <!-- Item 5 -->
  <rect x="16" y="140" width="896" height="18" fill="#F5F5F5"/>
  <text class="table-cell" x="30" y="153">5</text>
  <text class="table-cell" x="60" y="153" font-weight="600">色盲友好</text>
  <text class="table-cell" x="400" y="153">禁用红绿对比，使用色盲安全色板</text>
  <text class="table-cell" x="700" y="153">红绿同时使用</text>
  <text class="label-gray" x="860" y="153">PASS / FAIL</text>

  <!-- Item 6 -->
  <rect x="16" y="158" width="896" height="18" fill="#FFFFFF"/>
  <text class="table-cell" x="30" y="171">6</text>
  <text class="table-cell" x="60" y="171" font-weight="600">高亮 ≤10%</text>
  <text class="table-cell" x="400" y="171">高亮元素不超过总面积 10%</text>
  <text class="table-cell" x="700" y="171">大面积高亮，失去信号作用</text>
  <text class="label-gray" x="860" y="171">PASS / FAIL</text>

  <!-- Item 7 -->
  <rect x="16" y="176" width="896" height="18" fill="#F5F5F5"/>
  <text class="table-cell" x="30" y="189">7</text>
  <text class="table-cell" x="60" y="189" font-weight="600">标题结论性</text>
  <text class="table-cell" x="400" y="189">标题是结论性陈述，非描述性</text>
  <text class="table-cell" x="700" y="189">"各组对比"类描述标题</text>
  <text class="label-gray" x="860" y="189">PASS / FAIL</text>

  <!-- Item 8 -->
  <rect x="16" y="194" width="896" height="18" fill="#FFFFFF"/>
  <text class="table-cell" x="30" y="207">8</text>
  <text class="table-cell" x="60" y="207" font-weight="600">一图一核心判断</text>
  <text class="table-cell" x="400" y="207">一张图只传达一个核心洞察</text>
  <text class="table-cell" x="700" y="207">多核心并列，信息过载</text>
  <text class="label-gray" x="860" y="207">PASS / FAIL</text>

  <!-- Result boxes -->
  <rect x="16" y="224" width="430" height="40" rx="5" fill="#E8F5E9" stroke="#388E3C" stroke-width="1.5"/>
  <text class="node-body" x="26" y="242" font-weight="700" fill="#2E7D32">通过（FAIL < 4 项）→ 交付最终图表</text>
  <text class="node-body small" x="26" y="256">清理中间文件，保留最终版</text>

  <rect x="466" y="224" width="446" height="40" rx="5" fill="#FFEBEE" stroke="#C62828" stroke-width="1.5"/>
  <text class="node-body" x="476" y="242" font-weight="700" fill="#C62828">FAIL ≥ 4 项 → 回退循环 1 重做</text>
  <text class="node-body small" x="476" y="256">从 DNA 意图匹配重新开始，不能只修补</text>

  <!-- Loop back indicator -->
  <rect x="16" y="276" width="896" height="32" rx="4" fill="#FFEBEE" stroke="#C62828" stroke-width="1" stroke-dasharray="4,2"/>
  <text class="node-body small" x="26" y="293" fill="#C62828">回退路径：循环 3 FAIL ≥4 → 回到循环 1（DNA 意图匹配）→ 重新走完整流程</text>
</g>

<!-- Arrow down -->
<line x1="500" y1="1832" x2="500" y2="1852" class="arrow"/>

<!-- ==================== SECTION 9: 渲染资产索引 ==================== -->
<g transform="translate(36, 1852)">
  <rect class="section-bg" width="928" height="190"/>
  <text class="section-title" x="16" y="26">渲染资产索引 — references 目录下完整知识资产</text>

  <!-- Left column -->
  <rect x="16" y="36" width="436" height="140" rx="4" fill="#F5F5F5"/>
  <text class="node-body" x="26" y="54"><tspan class="node-body-bold">工作流中读取的参考文件：</tspan></text>

  <text class="node-body small" x="26" y="72"><tspan class="node-body-bold">library-index.md</tspan> — 工作流第一步，决定下一步加载什么</text>
  <text class="node-body small" x="26" y="86"><tspan class="node-body-bold">dna-index-ai.md</tspan> — 15 类意图索引，按表达意图匹配</text>
  <text class="node-body small" x="26" y="100"><tspan class="node-body-bold">dna-playbook.md</tspan> — 施工图模板，完整 ECharts option</text>
  <text class="node-body small" x="26" y="114"><tspan class="node-body-bold">layout-selector.md</tspan> — 版式 + 解读策略（场景映射）</text>
  <text class="node-body small" x="26" y="128"><tspan class="node-body-bold">concept-pattern-map.md</tspan> — 纯概念输入时（无数据）</text>
  <text class="node-body small" x="26" y="142"><tspan class="node-body-bold">pattern-index.md</tspan> — 88 种模式 + 快速选图 + 决策树</text>
  <text class="node-body small" x="26" y="156"><tspan class="node-body-bold">auto-selector.md</tspan> — 风格/配色/字体自动选择器</text>
  <text class="node-body small" x="26" y="170"><tspan class="node-body-bold">echarts-recipes.md</tspan> — 完整主题配置、色值、API 映射</text>

  <!-- Right column -->
  <rect x="476" y="36" width="436" height="140" rx="4" fill="#F5F5F5"/>
  <text class="node-body" x="486" y="54"><tspan class="node-body-bold">验收与辅助参考：</tspan></text>

  <text class="node-body small" x="486" y="72"><tspan class="node-body-bold">anti-patterns.md</tspan> — 出图前自检反模式</text>
  <text class="node-body small" x="486" y="86"><tspan class="node-body-bold">verification-standards.md</tspan> — 验收标准</text>
  <text class="node-body small" x="486" y="100"><tspan class="node-body-bold">chart-validity-gate.md</tspan> — 门禁检验</text>
  <text class="node-body small" x="486" y="114"><tspan class="node-body-bold">narrative-arcs.md</tspan> + <tspan class="node-body-bold">visual-beats.md</tspan> — 视觉叙事设计</text>
  <text class="node-body small" x="486" y="128"><tspan class="node-body-bold">aesthetic-spells.md</tspan> — AI 审美概念映射参数</text>
  <text class="node-body small" x="486" y="142"><tspan class="node-body-bold">consulting-archetypes</tspan> — 咨询原型参考</text>

  <text class="node-body small" x="486" y="162" fill="#888888">13-VISUALIZATION.md — 全局设计原则</text>
  <text class="node-body small" x="486" y="176" fill="#888888">style-schools.md / color-themes.md / typography-moods.md — 多图风格锁定</text>
</g>

<!-- Arrow down -->
<line x1="500" y1="2042" x2="500" y2="2062" class="arrow"/>

<!-- ==================== SECTION 10: 核心铁律 ==================== -->
<g transform="translate(36, 2062)">
  <rect class="section-bg" width="928" height="190"/>
  <text class="section-title" x="16" y="26">核心铁律与反模式</text>

  <!-- 5 Iron Rules -->
  <rect x="16" y="38" width="436" height="140" rx="4" fill="#E8F5E9" stroke="#388E3C" stroke-width="1"/>
  <text class="node-body" x="26" y="56"><tspan class="node-body-bold" fill="#2E7D32">五条铁律：</tspan></text>
  <text class="node-body small" x="26" y="72"><tspan class="node-body-bold">铁律 1：</tspan>自己画图 — 直接写 HTML/SVG，不委派 viz-echarts/viz-svg-flow</text>
  <text class="node-body small" x="26" y="86"><tspan class="node-body-bold">铁律 2：</tspan>中间文件必须写 — intent/storyboard/spec，记录意图、叙事、规格</text>
  <text class="node-body small" x="26" y="100"><tspan class="node-body-bold">铁律 3：</tspan>减法必须做 — 出第一版后至少一轮减法，不减到"为核心判断服务"不交付</text>
  <text class="node-body small" x="26" y="114"><tspan class="node-body-bold">铁律 4：</tspan>多图必须先锁全局风格 — 后续每张从全局继承，不得各自选色</text>
  <text class="node-body small" x="26" y="128"><tspan class="node-body-bold">铁律 5：</tspan>出图后必须按 checklist.md 验收 — 逐项检查，不通过 = 打回重做</text>

  <!-- Anti-patterns -->
  <rect x="476" y="38" width="436" height="140" rx="4" fill="#FFEBEE" stroke="#C62828" stroke-width="1"/>
  <text class="node-body" x="486" y="56"><tspan class="node-body-bold" fill="#C62828">反模式（禁止）：</tspan></text>
  <text class="node-body small" x="486" y="74">× 为了走流程而走流程（每个 Phase 需有明确产出价值）</text>
  <text class="node-body small" x="486" y="88">× 第一版就交付（不做减法迭代）</text>
  <text class="node-body small" x="486" y="102">× 多个元素同等突出互相抢夺注意力</text>
  <text class="node-body small" x="486" y="116">× 多图各自选色，不锁全局</text>
  <text class="node-body small" x="486" y="130">× 出图后不验收即交付</text>
  <text class="node-body small" x="486" y="144">× 视觉突出程度与重要性不匹配</text>
  <text class="node-body small" x="486" y="158">× 标注只写数字不写原因和幅度</text>
  <text class="node-body small" x="486" y="172">× 标题用描述性而非结论性</text>
</g>

<!-- Arrow down -->
<line x1="500" y1="2252" x2="500" y2="2272" class="arrow"/>

<!-- ==================== SECTION 11: 全局流程总览 ==================== -->
<g transform="translate(36, 2272)">
  <rect class="section-bg" width="928" height="200"/>
  <text class="section-title" x="16" y="26">全局流程总览 — 三循环架构</text>

  <!-- Overview flow: simplified visual -->
  <!-- Entry -->
  <rect x="16" y="40" width="100" height="32" rx="16" fill="#5C6BC0"/>
  <text class="badge" x="30" y="60" font-size="10">入口</text>

  <line x1="116" y1="56" x2="156" y2="56" class="arrow"/>

  <!-- R0 -->
  <polygon points="180,40 210,56 180,72 150,56" fill="#FFF9C4" stroke="#F9A825" stroke-width="1.5"/>
  <text class="node-body small" x="180" y="59" text-anchor="middle">R0</text>

  <line x1="210" y1="56" x2="250" y2="56" class="arrow-green"/>
  <text class="label-green" x="215" y="50">通过</text>

  <!-- Loop 1 -->
  <rect x="250" y="36" width="120" height="40" rx="6" fill="#1565C0"/>
  <text class="badge" x="260" y="52" font-size="9">循环 1</text>
  <text class="badge" x="260" y="65" font-size="9">初稿</text>

  <line x1="370" y1="56" x2="400" y2="56" class="arrow"/>

  <!-- First Version -->
  <rect x="400" y="40" width="90" height="32" rx="16" fill="#388E3C"/>
  <text class="badge" x="410" y="60" font-size="9">第一版</text>

  <line x1="490" y1="56" x2="520" y2="56" class="arrow"/>

  <!-- Loop 2 -->
  <rect x="520" y="36" width="120" height="40" rx="6" fill="#E65100"/>
  <text class="badge" x="530" y="52" font-size="9">循环 2</text>
  <text class="badge" x="530" y="65" font-size="9">减法迭代</text>

  <line x1="640" y1="56" x2="670" y2="56" class="arrow"/>

  <!-- Loop 3 -->
  <rect x="670" y="36" width="120" height="40" rx="6" fill="#C62828"/>
  <text class="badge" x="680" y="52" font-size="9">循环 3</text>
  <text class="badge" x="680" y="65" font-size="9">验收</text>

  <!-- Pass path -->
  <line x1="790" y1="56" x2="830" y2="56" class="arrow-green"/>
  <text class="label-green" x="795" y="50">PASS</text>

  <rect x="830" y="40" width="100" height="32" rx="16" fill="#2E7D32"/>
  <text class="badge" x="840" y="60" font-size="10">交付</text>

  <!-- Loop back arrow (red, from Loop 3 to Loop 1) -->
  <path d="M 730 76 L 730 100 L 310 100 L 310 76" stroke="#C62828" stroke-width="1.5" stroke-dasharray="5,3" fill="none" marker-end="url(#arrowred)"/>
  <text class="label-red" x="480" y="96" text-anchor="middle">FAIL ≥4 → 回退循环 1</text>

  <!-- Detailed Loop 1 -->
  <rect x="16" y="116" width="896" height="32" rx="4" fill="#E3F2FD" stroke="#1976D2" stroke-width="1"/>
  <text class="node-body small" x="26" y="134"><tspan class="node-body-bold" fill="#1565C0">循环 1（初稿）：</tspan> DNA 意图匹配 → 查 TSV → 命中模板/ fallback → 版式 → 中间文件 → 出第一版</text>

  <!-- Detailed Loop 2 -->
  <rect x="16" y="152" width="896" height="32" rx="4" fill="#FFF3E0" stroke="#F57C00" stroke-width="1"/>
  <text class="node-body small" x="26" y="170"><tspan class="node-body-bold" fill="#E65100">循环 2（减法）：</tspan> 7 问清单逐项追问 → 做减法 → 最多 3 轮 → 每个留下的元素都为核心判断服务</text>

  <!-- Detailed Loop 3 -->
  <rect x="16" y="188" width="896" height="32" rx="4" fill="#FFEBEE" stroke="#C62828" stroke-width="1"/>
  <text class="node-body small" x="26" y="206"><tspan class="node-body-bold" fill="#C62828">循环 3（验收）：</tspan> 8 项检查（截断/泄露/乱码/重叠/色盲/高亮/标题/核心）→ PASS 交付 / FAIL≥4 回退循环 1</text>

  <!-- Render route note -->
  <rect x="16" y="232" width="896" height="28" rx="4" fill="#F5F5F5"/>
  <text class="node-body small" x="26" y="250"><tspan class="node-body-bold">渲染路由：</tspan> 数据图表 → ECharts HTML | 概念图 → SVG | 印刷级/学术 → nature-figure (ggplot2)</text>
</g>

<!-- Footer -->
<text x="500" y="2510" text-anchor="middle" font-family="-apple-system, 'PingFang SC', 'Microsoft YaHei', sans-serif" font-size="10" fill="#BBBBBB">viz-design SKILL.md 工作流图 | 生成于 2026-05-10 | 来源：.claude/skills/viz-design/SKILL.md</text>
</svg>
