<svg xmlns="http://www.w3.org/2000/svg" width="100" height="100" viewBox="0 0 100 100">
  <!-- 泳帽主体 - 椭圆形 -->
  <ellipse cx="50" cy="48" rx="35" ry="30"
           fill="#FEFFFE" stroke="#1A1612" stroke-width="4.5"/>

  <!-- 顶部波浪 - 手绘感 -->
  <path d="m22 42c3-8 8-15 14-18s12-3 14 0c2 3 6 10 14 18"
        fill="none" stroke="#1A1612" stroke-width="3"
        stroke-linecap="round"/>

  <!-- 帽檐边缘 -->
  <path d="m18 55c2 4 10 7 15 7.5s13-1 17-1.5 12-3 16-6"
        fill="none" stroke="#1A1612" stroke-width="3.5"
        stroke-linecap="round"/>

  <!-- 内部纹理线 -->
  <path d="m30 35c2 3 4 8 5 13" fill="none"
        stroke="#1A1612" stroke-width="2"
        stroke-linecap="round" opacity="0.5"/>
  <path d="m50 30c1 4 2 10 3 15" fill="none"
        stroke="#1A1612" stroke-width="2"
        stroke-linecap="round" opacity="0.5"/>
  <path d="m70 35c-2 3-4 8-5 13" fill="none"
        stroke="#1A1612" stroke-width="2"
        stroke-linecap="round" opacity="0.5"/>
</svg>