<svg xmlns="http://www.w3.org/2000/svg" viewBox="0 0 680 520" width="100%">
<defs>
  <marker id="a2" viewBox="0 0 10 10" refX="8" refY="5" markerWidth="6" markerHeight="6" orient="auto-start-reverse">
    <path d="M2 1L8 5L2 9" fill="none" stroke="#5b7faa" stroke-width="1.5" stroke-linecap="round" stroke-linejoin="round"/>
  </marker>
</defs>

<!-- Background -->
<rect width="680" height="520" fill="#f1f3f5" rx="4"/>

<!-- Title -->
<text x="340" y="42" text-anchor="middle" font-family="'Noto Serif SC',serif" font-size="18" font-weight="700" fill="#0a1f3d">芯片供给格局</text>
<text x="340" y="62" text-anchor="middle" font-family="'IBM Plex Mono',monospace" font-size="10" fill="#6b8ab0" letter-spacing="2">CHIP SUPPLY LANDSCAPE · 2024-2026</text>

<!-- Left side: NVIDIA decline -->
<rect x="40" y="90" width="270" height="180" rx="12" fill="#f5f7fa" stroke="#c8d4e0" stroke-width="1"/>
<text x="175" y="118" text-anchor="middle" font-family="'IBM Plex Mono',monospace" font-size="10" fill="#8aa0b8" letter-spacing="1">NVIDIA · 在华市占率</text>

<!-- Declining bar chart -->
<rect x="60" y="180" width="30" height="70" rx="4" fill="#8aa0b8"/>
<rect x="120" y="165" width="30" height="85" rx="4" fill="#7a98b8"/>
<rect x="180" y="155" width="30" height="95" rx="4" fill="#5b7faa"/>
<rect x="240" y="195" width="30" height="55" rx="4" fill="#2a4a6a"/>

<!-- Labels -->
<text x="75" y="175" text-anchor="middle" font-family="'IBM Plex Mono',monospace" font-size="10" font-weight="600" fill="#4a6a8a">66%</text>
<text x="135" y="160" text-anchor="middle" font-family="'IBM Plex Mono',monospace" font-size="10" font-weight="600" fill="#3a5a7a">54%</text>
<text x="195" y="150" text-anchor="middle" font-family="'IBM Plex Mono',monospace" font-size="10" font-weight="600" fill="#2a4a6a">&lt;50%</text>
<text x="255" y="190" text-anchor="middle" font-family="'IBM Plex Mono',monospace" font-size="10" font-weight="600" fill="#0a1f3d">&lt;40%</text>

<text x="75" y="265" text-anchor="middle" font-family="'IBM Plex Mono',monospace" font-size="9" fill="#8aa0b8">2024</text>
<text x="135" y="265" text-anchor="middle" font-family="'IBM Plex Mono',monospace" font-size="9" fill="#8aa0b8">2025</text>
<text x="195" y="265" text-anchor="middle" font-family="'IBM Plex Mono',monospace" font-size="9" fill="#8aa0b8">2026E</text>
<text x="255" y="265" text-anchor="middle" font-family="'IBM Plex Mono',monospace" font-size="9" fill="#8aa0b8">2027E</text>

<!-- Trend line -->
<polyline points="75 178 135 158 195 148 255 188" fill="none" stroke="#c25030" stroke-width="2" stroke-dasharray="4,3"/>

<!-- Right side: Huawei Rise -->
<rect x="370" y="90" width="270" height="180" rx="12" fill="#e8eef5" stroke="#7a98b8" stroke-width="1.5"/>
<text x="505" y="118" text-anchor="middle" font-family="'IBM Plex Mono',monospace" font-size="10" fill="#4a6a8a" letter-spacing="1">华为昇腾 · 崛起</text>

<!-- Ascending bar chart -->
<rect x="390" y="210" width="30" height="40" rx="4" fill="#a0b4c8"/>
<rect x="450" y="185" width="30" height="65" rx="4" fill="#7a98b8"/>
<rect x="510" y="150" width="30" height="100" rx="4" fill="#3a5a7a"/>
<rect x="570" y="125" width="30" height="125" rx="4" fill="#0a1f3d"/>

<text x="405" y="205" text-anchor="middle" font-family="'IBM Plex Mono',monospace" font-size="10" font-weight="600" fill="#6b8ab0">20%</text>
<text x="465" y="180" text-anchor="middle" font-family="'IBM Plex Mono',monospace" font-size="10" font-weight="600" fill="#4a6a8a">35%</text>
<text x="525" y="145" text-anchor="middle" font-family="'IBM Plex Mono',monospace" font-size="10" font-weight="600" fill="#2a4a6a">50%</text>
<text x="585" y="120" text-anchor="middle" font-family="'IBM Plex Mono',monospace" font-size="10" font-weight="600" fill="#0a1f3d">60%</text>

<text x="405" y="265" text-anchor="middle" font-family="'IBM Plex Mono',monospace" font-size="9" fill="#8aa0b8">2024</text>
<text x="465" y="265" text-anchor="middle" font-family="'IBM Plex Mono',monospace" font-size="9" fill="#8aa0b8">2025</text>
<text x="525" y="265" text-anchor="middle" font-family="'IBM Plex Mono',monospace" font-size="9" fill="#8aa0b8">2026E</text>
<text x="585" y="265" text-anchor="middle" font-family="'IBM Plex Mono',monospace" font-size="9" fill="#8aa0b8">2027E</text>

<!-- Trend line -->
<polyline points="405 208 465 183 525 148 585 123" fill="none" stroke="#2e8b6e" stroke-width="2" stroke-dasharray="4,3"/>

<!-- Bottom: Chip comparison table -->
<text x="340" y="300" text-anchor="middle" font-family="'IBM Plex Mono',monospace" font-size="10" fill="#6b8ab0" letter-spacing="2">芯片对比 · 950PR vs H20 vs H200</text>

<!-- Table header -->
<rect x="60" y="315" width="560" height="36" rx="6" fill="#0a1f3d"/>
<text x="80" y="338" font-family="'IBM Plex Mono',monospace" font-size="10" font-weight="600" fill="#f1f3f5">芯片</text>
<text x="220" y="338" font-family="'IBM Plex Mono',monospace" font-size="10" font-weight="600" fill="#f1f3f5">FP4 算力</text>
<text x="370" y="338" font-family="'IBM Plex Mono',monospace" font-size="10" font-weight="600" fill="#f1f3f5">定价</text>
<text x="500" y="338" font-family="'IBM Plex Mono',monospace" font-size="10" font-weight="600" fill="#f1f3f5">状态</text>

<!-- Row 1: H20 -->
<rect x="60" y="351" width="560" height="32" fill="#f5f7fa"/>
<text x="80" y="372" font-family="'Noto Sans SC',sans-serif" font-size="11" fill="#3a5a7a">H20</text>
<text x="220" y="372" font-family="'IBM Plex Mono',monospace" font-size="11" fill="#4a6a8a">0.54 PFLOPS</text>
<text x="370" y="372" font-family="'IBM Plex Mono',monospace" font-size="11" fill="#4a6a8a">~$15,000</text>
<text x="500" y="372" font-family="'IBM Plex Mono',monospace" font-size="11" fill="#8aa0b8">受限</text>

<!-- Row 2: H200 -->
<rect x="60" y="383" width="560" height="32" fill="#e8eef5"/>
<text x="80" y="404" font-family="'Noto Sans SC',sans-serif" font-size="11" fill="#3a5a7a">H200</text>
<text x="220" y="404" font-family="'IBM Plex Mono',monospace" font-size="11" fill="#4a6a8a">1.48 PFLOPS</text>
<text x="370" y="404" font-family="'IBM Plex Mono',monospace" font-size="11" fill="#4a6a8a">~$21,000</text>
<text x="500" y="404" font-family="'IBM Plex Mono',monospace" font-size="11" fill="#c25030">禁售</text>

<!-- Row 3: 950PR (highlighted) -->
<rect x="60" y="415" width="560" height="40" rx="4" fill="#0a1f3d"/>
<text x="80" y="440" font-family="'Noto Sans SC',sans-serif" font-size="12" font-weight="600" fill="#f1f3f5">昇腾 950PR</text>
<text x="220" y="440" font-family="'IBM Plex Mono',monospace" font-size="12" font-weight="600" fill="#70b0e0">1.56 PFLOPS</text>
<text x="370" y="440" font-family="'IBM Plex Mono',monospace" font-size="12" font-weight="600" fill="#70b0e0">~¥70,000</text>
<text x="500" y="440" font-family="'IBM Plex Mono',monospace" font-size="12" font-weight="600" fill="#2e8b6e">量产</text>

<!-- Highlight annotation -->
<rect x="62" y="460" width="556" height="24" rx="12" fill="#e8eef5"/>
<text x="340" y="477" text-anchor="middle" font-family="'Noto Sans SC',sans-serif" font-size="10" fill="#2a4a6a">算力是 H20 的 2.87 倍，价格是 H200 的 1/3 —— 国产自研 HBM 突破供应链限制</text>

<!-- Connection arrows from charts to table -->
<path d="M175 270 C175 290,200 300,250 310" fill="none" stroke="#c25030" stroke-width="1" stroke-dasharray="3,3" marker-end="url(#a2)" opacity="0.5"/>
<path d="M505 270 C505 290,480 300,440 310" fill="none" stroke="#2e8b6e" stroke-width="1" stroke-dasharray="3,3" marker-end="url(#a2)" opacity="0.5"/>

</svg>
