<svg xmlns="http://www.w3.org/2000/svg" width="200" height="200" fill="none" viewBox="0 0 200 200"> <path d="m90.05 24.18c-44-0.51-86.94 28.75-86.94 67.33 0 33.71 35.65 65.15 87.4 65.15 21.37 0 39.42-5.86 55.39-14.38l5.85 4.76 27.36 23.48c5.07 3.85 7.92 5.31 11.94 5.14 4.72-0.2 6.76-5.53 5.52-9.41-1.27-4.06-4.39-7.91-8.65-12.82l-21.72-26.62c10.22-12.64 13.81-22.05 13.25-36.07-1.38-35.62-35.37-65.91-89.4-66.56z" fill="#FEFFFE" stroke="#16110D" stroke-linecap="round" stroke-linejoin="round" stroke-width="1.6"/> <path d="m163.7 124c8.36-10.77 12.21-21.72 10.11-36.89-4.52-31.81-36.09-59.34-82.45-59.99-43.18-0.6-81.28 27.89-82.25 61.66-1.12 35.27 33.86 61.12 81.15 61.12 17.07 0 33.63-4.14 49.65-11.83" stroke="#16110D" stroke-linecap="round" stroke-linejoin="round" stroke-width="1.2"/> <path d="m17.02 64.19c-8.86 13.17-9.32 26.62-4.35 40.12 9.21 26.31 37.54 44.65 78.09 43.58 19.06-0.53 35.47-4.91 48.98-11" stroke="#16110D" stroke-linecap="round" stroke-linejoin="round" stroke-width="1.2"/> <path d="m92.28 35.53c37.25 0.42 65.42 23.48 65.42 50.49 0 7.9-3.08 15.61-8.05 22.53" stroke="#16110D" stroke-linecap="round" stroke-linejoin="round" stroke-width="1.2"/> <path d="m86.21 36.19c-32.7 1.92-62.25 22.5-62.25 49.36 0 21.52 22.78 47.23 67.66 47.23 11.54 0 21.09-2.59 31.1-5.42" stroke="#16110D" stroke-linecap="round" stroke-linejoin="round" stroke-width="1.2"/> <path d="m151.1 105.7c2.9-5.65 3.41-9.61 2.8-17.03-1.84-18.58-25.86-40.1-62.62-40.1-35.15 0-61.28 21.12-62.08 45.12-0.25 6.05 1.56 10.62 4.02 14.79" stroke="#16110D" stroke-linecap="round" stroke-linejoin="round" stroke-width="1.2"/> <path d="m38.31 101.4 9.16 10.22" stroke="#16110D" stroke-linecap="round" stroke-linejoin="round" stroke-width="1.2"/> <path d="m68.22 118 7.21 8.21" stroke="#16110D" stroke-linecap="round" stroke-linejoin="round" stroke-width="1.2"/> <path d="m102.9 125.4 2.42 2.36" stroke="#16110D" stroke-linecap="round" stroke-linejoin="round" stroke-width="1.2"/> <path d="m115.3 121.8 1.71 1.71" stroke="#16110D" stroke-linecap="round" stroke-linejoin="round" stroke-width="1.2"/> <path d="m84.28 106.8 1.2 1.56" stroke="#16110D" stroke-linecap="round" stroke-linejoin="round" stroke-width="1.2"/> <path d="m85.99 96.09 9.96 9.56" stroke="#16110D" stroke-linecap="round" stroke-linejoin="round" stroke-width="1.2"/> <path d="m97.32 94.53 7.82 6.88" stroke="#16110D" stroke-linecap="round" stroke-linejoin="round" stroke-width="1.2"/> <path d="m125.8 107.5 6.77 6.61" stroke="#16110D" stroke-linecap="round" stroke-linejoin="round" stroke-width="1.2"/> <path d="m140.1 87.73 6.67 5.88" stroke="#16110D" stroke-linecap="round" stroke-linejoin="round" stroke-width="1.2"/> <path d="m109 69.32 10.87 0.97" stroke="#FEFFFE" stroke-linecap="round" stroke-linejoin="round" stroke-width="1.2"/> <path d="m97.01 73.71 1.76 2" stroke="#16110D" stroke-linecap="round" stroke-linejoin="round" stroke-width="1.2"/> <path d="m117.7 59.76 11.44 9.41" stroke="#16110D" stroke-linecap="round" stroke-linejoin="round" stroke-width="1.2"/> <path d="m68.63 58.35 3.08 2.73" stroke="#16110D" stroke-linecap="round" stroke-linejoin="round" stroke-width="1.2"/> <path d="m59.71 62.45 3.9 3.59" stroke="#16110D" stroke-linecap="round" stroke-linejoin="round" stroke-width="1.2"/> <path d="m50.45 68.47 2.97 2.52" stroke="#16110D" stroke-linecap="round" stroke-linejoin="round" stroke-width="1.2"/> <path d="m43.18 75.41 2.11 1.95" stroke="#16110D" stroke-linecap="round" stroke-linejoin="round" stroke-width="1.2"/> <path d="m64.32 89.12 4.31 4.29" stroke="#16110D" stroke-linecap="round" stroke-linejoin="round" stroke-width="1.2"/> <path d="m57.8 96.06 2.51 2.84" stroke="#16110D" stroke-linecap="round" stroke-linejoin="round" stroke-width="1.2"/> <path d="m129.2 136.6c-11.94 4.96-24.28 7.84-39.05 7.84-26.1 0-43.6-7.18-61.15-23.38" stroke="#16110D" stroke-linecap="round" stroke-linejoin="round" stroke-width="1.2"/> <path d="m155.4 84.81-0.57 3.32" stroke="#16110D" stroke-linecap="round" stroke-linejoin="round" stroke-width="1.2"/> <path d="m153.9 76.54-0.81 5.22" stroke="#16110D" stroke-linecap="round" stroke-linejoin="round" stroke-width="1.2"/> <path d="m151.3 70.26-0.5 6.94" stroke="#16110D" stroke-linecap="round" stroke-linejoin="round" stroke-width="1.2"/> <path d="m147.7 63.42-0.4 6.59" stroke="#16110D" stroke-linecap="round" stroke-linejoin="round" stroke-width="1.2"/> <path d="m144.2 60.11-0.35 6.02" stroke="#16110D" stroke-linecap="round" stroke-linejoin="round" stroke-width="1.2"/> <path d="m139.8 54.34-0.36 8.52" stroke="#16110D" stroke-linecap="round" stroke-linejoin="round" stroke-width="1.2"/> <path d="m135.3 51.71-0.69 6.17" stroke="#16110D" stroke-linecap="round" stroke-linejoin="round" stroke-width="1.2"/> <path d="m130.4 48.74v6.67" stroke="#16110D" stroke-linecap="round" stroke-linejoin="round" stroke-width="1.2"/> <path d="m125.7 47.22-0.51 5.72" stroke="#16110D" stroke-linecap="round" stroke-linejoin="round" stroke-width="1.2"/> <path d="m119.1 44.96-0.51 5.47" stroke="#16110D" stroke-linecap="round" stroke-linejoin="round" stroke-width="1.2"/> <path d="m115.2 43.19-0.36 5.62" stroke="#16110D" stroke-linecap="round" stroke-linejoin="round" stroke-width="1.2"/> <path d="m110.1 41.62-0.35 6.17" stroke="#16110D" stroke-linecap="round" stroke-linejoin="round" stroke-width="1.2"/> <path d="m100.7 39.42-0.36 6.33" stroke="#16110D" stroke-linecap="round" stroke-linejoin="round" stroke-width="1.2"/> <path d="m93.86 39.06-0.35 6.33" stroke="#16110D" stroke-linecap="round" stroke-linejoin="round" stroke-width="1.2"/> <path d="m88.34 39.06-0.25 6.33" stroke="#16110D" stroke-linecap="round" stroke-linejoin="round" stroke-width="1.2"/> <path d="m83.37 39.42-0.35 6.68" stroke="#16110D" stroke-linecap="round" stroke-linejoin="round" stroke-width="1.2"/> <path d="m77.3 40.64-0.25 6.07" stroke="#16110D" stroke-linecap="round" stroke-linejoin="round" stroke-width="1.2"/> <path d="m71.43 42.43-0.25 5.42" stroke="#16110D" stroke-linecap="round" stroke-linejoin="round" stroke-width="1.2"/> <path d="m66.51 43.39-0.25 6.33" stroke="#16110D" stroke-linecap="round" stroke-linejoin="round" stroke-width="1.2"/> <path d="m61.29 45.44-0.46 5.77" stroke="#16110D" stroke-linecap="round" stroke-linejoin="round" stroke-width="1.2"/> <path d="m52.43 49.25-0.35 6.56" stroke="#16110D" stroke-linecap="round" stroke-linejoin="round" stroke-width="1.2"/> <path d="m46.71 52.22-0.36 6.28" stroke="#16110D" stroke-linecap="round" stroke-linejoin="round" stroke-width="1.2"/> <path d="m41.58 56.63-0.66 6.58" stroke="#16110D" stroke-linecap="round" stroke-linejoin="round" stroke-width="1.2"/> <path d="m35.46 64.65-0.35 4.96" stroke="#16110D" stroke-linecap="round" stroke-linejoin="round" stroke-width="1.2"/> <path d="m30.64 70.72-1.71 10.45" stroke="#16110D" stroke-linecap="round" stroke-linejoin="round" stroke-width="1.2"/> <path d="m26.43 85.16-0.11 2.57" stroke="#16110D" stroke-linecap="round" stroke-linejoin="round" stroke-width="1.2"/> <path d="m168.8 96.34c-2.11 7.18-4.65 12.52-8.72 18.34" stroke="#16110D" stroke-linecap="round" stroke-linejoin="round" stroke-width="1.2"/> <path d="m144 104c-2.32 1.37-2.37 5.47 0.61 6.74-0.17 2.02 0.8 3.96 3.63 4.06 0.66 2.26 1.42 3.27 3.63 3.53 0.31 1.31 0.46 2.13 1.22 2.69 2.11 0.71 4.52 1.72 8.19 6.2 8.57 10.6 16.05 20.53 27.36 32.97 3.42 4.1 5.21 7.28 4.5 8.94-1.61 1.76-5.58-0.81-9.35-3.49-11.64-9.02-27.01-20.67-39.35-29.93-5.33-3.9-5.38-5.56-6.6-8.79-0.71-1.42-1.94-1.77-3.7-1.82-0.81-0.76-1.01-1.63-0.76-3.57-1.06-1.01-2.57-1.46-4.55-1.56-1.04-2.36-2.4-3.58-4.03-3.07-1.96-2.93-3.37-3.79-4.17-2.17-1.42 2.47-0.56 6.39 2.61 9.86 7.42 8.37 11.69 10.58 21.86 18.85" stroke="#050101" stroke-linecap="round" stroke-linejoin="round" stroke-width="1.2"/> <path d="m133.4 122.1c4.36-2.83 8.33-5.76 12.39-9.42" stroke="#050101" stroke-linecap="round" stroke-linejoin="round" stroke-width="1.2"/> <path d="m140.7 131.4c5.07-3.21 9.14-6.43 12.45-9.65" stroke="#050101" stroke-linecap="round" stroke-linejoin="round" stroke-width="1.2"/> <path d="m147.3 139.7c5.38-3.82 9.77-7.68 14.4-11.02" stroke="#050101" stroke-linecap="round" stroke-linejoin="round" stroke-width="1.2"/> <path d="m40.19 94.07c2.73 4.06 9 5.57 12.22 3.25 4.31-2.97 6.68-9.24 12.95-12.99 5.43-3.26 7.32-6.04 7.27-10.32-0.07-3.95-5.24-5.26-10.51-3.9-6.93 1.9-21.22 13.66-23.05 19.98-0.65 2.17 0.21 3.12 1.12 3.98z" fill="#B93621" stroke="#16110D" stroke-linecap="round" stroke-linejoin="round" stroke-width="1.2"/> <path d="m41.01 91.91c3.72 3.47 9.39 3.42 12.41 0.1 4.21-4.59 5.73-7.11 11.6-10.96 4.97-3.22 7.19-4.83 7.59-7.61" stroke="#16110D" stroke-linecap="round" stroke-linejoin="round" stroke-width="1.2"/> <path d="m49.66 80.26-1.14 10.23" stroke="#16110D" stroke-linecap="round" stroke-linejoin="round" stroke-width="1.2"/> <path d="m55.63 77.73-0.35 6.94" stroke="#16110D" stroke-linecap="round" stroke-linejoin="round" stroke-width="1.2"/> <path d="m62.2 73.71-0.15 5.08" stroke="#16110D" stroke-linecap="round" stroke-linejoin="round" stroke-width="1.2"/> <path d="m49.71 108.6c0.5 4.86 1.4 9.37 7.28 9.47 5.92 0.1 20.09-9.26 22.97-12.14 3.27-3.27 3.76-5.64 1.65-10.91-1.89-4.91-6.52-3.89-8.84-1.53-4.87 4.86-8.09 6.33-15.02 9.3-4.02 1.76-8.39 2.63-8.04 5.81z" fill="#B93621" stroke="#16110D" stroke-linecap="round" stroke-linejoin="round" stroke-width="1.2"/> <path d="m51.92 110.7c0.8 3.52 4.27 5.73 8.89 4.82 5.22-1.06 16.54-9.38 18.81-11.65 2.52-2.52 2.67-4.38 2.46-6.8" stroke="#16110D" stroke-linecap="round" stroke-linejoin="round" stroke-width="1.2"/> <path d="m62.51 104.1-1.95 7.04" stroke="#16110D" stroke-linecap="round" stroke-linejoin="round" stroke-width="1.2"/> <path d="m71.71 98.42-1.96 7.71" stroke="#16110D" stroke-linecap="round" stroke-linejoin="round" stroke-width="1.2"/> <path d="m79.87 56.43c6.27-1.81 17.45-0.8 28.17 1.87 4.17 1.06 5.45 2.42 5.3 7.38-0.15 3.75-2.66 6.63-7.63 5.52-5.18-1.19-6.74-1.74-13.66-1.19-5.76 0.46-10.99 0.81-14.8-0.75-3.13-1.27-3.23-4.97-1.47-9.04 0.96-2.47 1.47-3.08 4.09-3.79z" fill="#B93621" stroke="#16110D" stroke-linecap="round" stroke-linejoin="round" stroke-width="1.2"/> <path d="m76.14 61.69c0 3.17 2.37 4.49 6.14 4.34 5.27-0.2 10.6 0 13.32 0" stroke="#16110D" stroke-linecap="round" stroke-linejoin="round" stroke-width="1.2"/> <path d="m89.86 57.75-8.65 6.47" stroke="#16110D" stroke-linecap="round" stroke-linejoin="round" stroke-width="1.2"/> <path d="m98.72 59.21-7.68 5.42" stroke="#16110D" stroke-linecap="round" stroke-linejoin="round" stroke-width="1.2"/> <path d="m106.1 60.52-5.42 4.81" stroke="#16110D" stroke-linecap="round" stroke-linejoin="round" stroke-width="1.2"/> <path d="m111 75.12c4.72-0.7 9.69 0 17.06-2.31 5.38-1.46 8.25 0.25 11.82 5.07 2.22 3.07 2.22 6.77-2.04 8.19-3.22 1.11-6.14-0.36-11.86 0.55-4.38 0.71-9.95 1.11-13.32-1.51-5.28-3.85-6.55-9.07-1.66-9.99z" fill="#B93621" stroke="#16110D" stroke-linecap="round" stroke-linejoin="round" stroke-width="1.2"/> <path d="m109.1 78.84c1.16 3.37 5.28 6.09 9.8 6.24 4.57 0.15 7.24-1.96 13.07-2.16 4.12-0.15 7.14-0.2 8.05-3.72" stroke="#16110D" stroke-linecap="round" stroke-linejoin="round" stroke-width="1.2"/> <path d="m120.2 75.72-4.97 5.12" stroke="#16110D" stroke-linecap="round" stroke-linejoin="round" stroke-width="1.2"/> <path d="m130.3 74.51-5.13 5.48" stroke="#16110D" stroke-linecap="round" stroke-linejoin="round" stroke-width="1.2"/> <path d="m111.2 90.49c3.72-0.71 8.08 0.66 13.96 0.05 8.85-0.91 13.47 0.91 15.18 3.93 1.41 2.72-0.35 6.35-1.46 9.42-1.27 3.22-5.98 3.27-10.7 1.41-6.02-2.42-10.09-0.35-15.66-2.12-4.36-1.41-6.37-3.27-5.77-5.99 0.91-4.03 1.21-6.14 4.45-6.7z" fill="#B93621" stroke="#16110D" stroke-linecap="round" stroke-linejoin="round" stroke-width="1.2"/> <path d="m107.7 96.92c1.46 2.72 4.73 3.69 9.35 3.39 6.02-0.4 9.54 0.71 13.85 2.32 3.27 1.16 6.69 0.2 8.06-2.52" stroke="#16110D" stroke-linecap="round" stroke-linejoin="round" stroke-width="1.2"/> <path d="m123.3 93.41-7.73 4.21" stroke="#16110D" stroke-linecap="round" stroke-linejoin="round" stroke-width="1.2"/> <path d="m133.7 93.71-7.53 4.82" stroke="#16110D" stroke-linecap="round" stroke-linejoin="round" stroke-width="1.2"/> <path d="m82.89 75.62c4.87 0.56 9.03 1.77 14.46 1.71 5.37-0.1 7.93 2.32 8.54 7.88 0.61 4.57-1.76 7.4-7.93 6.85-4.97-0.51-8.89-3.03-14.91-2.78-6.32 0.25-10.13-2.11-9.53-6.16 0.81-4.18 3.73-8.1 9.37-7.5z" fill="#B93621" stroke="#16110D" stroke-linecap="round" stroke-linejoin="round" stroke-width="1.2"/> <path d="m77.13 81.76c1.66 1.46 3.78 1.76 7.65 1.86 4.97 0.1 8.34 2.57 13.11 3.15 4.07 0.5 6.18-0.2 6.94-1.66" stroke="#16110D" stroke-linecap="round" stroke-linejoin="round" stroke-width="1.2"/> <path d="m84.98 79.14-4.77 2.97" stroke="#16110D" stroke-linecap="round" stroke-linejoin="round" stroke-width="1.2"/> <path d="m93.28 79.6-6.57 4.32" stroke="#16110D" stroke-linecap="round" stroke-linejoin="round" stroke-width="1.2"/> <path d="m101 81.11-6.16 4.1" stroke="#16110D" stroke-linecap="round" stroke-linejoin="round" stroke-width="1.2"/> <path d="m80.12 115.8c1.06-3.7 5.07-5.11 10.54-5.77 6.42-0.76 9.29-2.37 13.46-3.83 3.17-1.11 4.87 0.25 6.73 1.41 3.07 1.31 5.54 1.71 5.54 5.76 0 3.9-1.61 6.17-7.98 7.78-7.32 1.96-9.29 5.08-17.35 4.88-4.67-0.15-9.34-1.81-11.05-3.77-1.8-2.06-0.85-3.73 0.11-6.46z" fill="#B93621" stroke="#16110D" stroke-linecap="round" stroke-linejoin="round" stroke-width="1.2"/> <path d="m80.62 118.2c2.11 2.26 6.53 4.22 10.44 4.58" stroke="#16110D" stroke-linecap="round" stroke-linejoin="round" stroke-width="1.2"/> <path d="m96.1 111.1-5.47 7.49" stroke="#16110D" stroke-linecap="round" stroke-linejoin="round" stroke-width="1.2"/> <path d="m106.7 108.6-5.23 7.87" stroke="#16110D" stroke-linecap="round" stroke-linejoin="round" stroke-width="1.2"/> <path d="m115.2 111.7c0.4 3.17-1.76 5.33-6.13 6.18-5.67 1.16-8.9 2.47-12.97 3.73" stroke="#16110D" stroke-linecap="round" stroke-linejoin="round" stroke-width="1.2"/> </svg>