<svg xmlns="http://www.w3.org/2000/svg" width="200" height="200" fill="none" viewBox="0 0 200 200">
<!-- SVG created with Arrow, by QuiverAI (https://quiver.ai) -->
  <path d="m197.4 104c0 4.7-0.94 9.6-2.88 14.5-8.52 23.23-39.2 49.94-94.19 51.47-55.13 1.03-90.89-25.99-96.36-54.89-2.11-10.07-0.96-19.53 3.97-29.3 7.19-14.19 18.78-25.05 36.01-34.94 1.94-1.1 3.07-1.17 2.92 0-0.08 0.61-1.2 1.49-2.53 2.24-15.7 9.17-26.71 18.09-33.98 32.13-5.27 10-6.24 19.21-3.91 29.51 6.37 27.6 40.12 53.23 90.74 53.38 52.56 0.15 84.76-25.12 96.2-50.01 2.48-5.36 3.26-11.18 2.78-15.95-1.92-17.14-10.18-28.83-21.7-38.8-1.32-1.19-1.46-2.18-0.74-2.3 1.02-0.19 2.09 0.56 2.8 1.24 9.9 9.21 16.91 18.76 19.92 31.35 0.47 2.05 0.95 6.63 0.95 10.37z" fill="#0B0800"/>
  <path d="m23.39 94.93c0.37-7.82 5.72-16.24 10.42-20.66 1.1-1.06 1.87-0.59 1.01 1.05-4.39 6.25-7.81 11.99-9.21 19.37-0.4 1.64-2.34 2.11-2.22 0.24z" fill="#0B0800"/>
  <path d="m176.1 100.1c0.82-1.89 1.56-1.33 1.3 1.7-0.19 9.95-6.3 20.41-13.6 27.59-1.52 1.06-2.21-0.09-1.07-1.18 8.09-7.56 12.64-17.11 13.37-28.11z" fill="#0B0800"/>
  <path d="m120 148.7c-1.58 1.48-12.86 2.24-24.98 1.93-17.56-0.49-29.61-2.76-46.66-11.9-1.13-0.55-0.98-2.34 0.39-1.36 13.69 7.5 26.28 11.26 45.42 11.65 10.39 0.3 17.18-0.54 23.11-0.95 1.48-0.23 3.44-0.31 2.72 0.63z" fill="#0B0800"/>
  <path d="m110.1 38.77c7.35 0 15.72 0.8 21.58 2.88 1.78 0.72 1.07 2.51-1.03 2.26-6.36-1.54-12.8-2.63-20.15-2.95-2.26-0.58-2.42-2.12-0.4-2.19z" fill="#0B0800"/>
  <path d="m42.96 58.13c2.15 0 3.17-1.71 4.5-3.53 0.82-1.15 1.54-1.51 2.26-2.03 1.32-1.31 2.36-3.39 4.38-4.01-2.47-0.65-3.51-2.62-3.67-4.65 0-1.28 1.2-2.69 2.32-1.48 1.78 1.83 4.57 1.55 6.26-0.84 1.41-2.24 3.07-3.8 6.65-4.35 0.96-2.29 3.05-2.77 5.07-2.77h2.4c-0.36-1.03-0.64-1.75-0.12-2.66 2.09-0.7 3.69 1.1 5.63 2.12 1.22 0.54 1.69-1.82 2.97-2.91 1.05-0.91 3.76-1.72 4.62-1.12 0.94 0.63-0.4 1.44-1.38 1.61-2.02 0.32-3.4 1.14-4.12 2.62 4.24-1.12 7.11-2.45 11.63-1.41 3.17 0.72 4.63 1.99 6.49 2.98 1.32 0.72 2.36 2.21 4.5 0.72 1.45-0.96 2.77-1.24 2.41 0.4-0.64 2.91-2.48 4.4-5.79 4.4l2.47 1.49c2.48 0.87 4.64 1.78 5.68 3.61 1.54 1.39 3.11 2.14 6.19 1.28 2.55-0.72 3.41 0.55 1.71 1.46-1.04 0.8-1.71 1.19-0.56 1.95 1.56 0.94 2.7 0.62 3.94 0 0.72-0.42 0.88 0.62-0.32 1.78-1.28 0.96-2.22 1.35-2.3 2.39 1.94 2.59 1.94 4.64 1.66 5.85-0.28 0.91-1 0.44-1.16-0.72-0.16-1.29-0.72-2.3-1.76-2.89 1.76 3.66 1.18 6.79-1.37 9.62-0.64 0.91-0.84 1.87-0.68 2.75l3.31-1.74c1.46-0.72 2.34-0.1 1.3 1.46-1.3 1.77-1.9 3.33-1.62 5.01 3.15 2.44 3.66 4 3.05 4.81-1.63 1.64-2.23-1.31-4.45-0.99-2.98 0.42-5.06 1.63-7.34 3.38-0.96 0.72-2.56-0.15-1.6-1.59 1.2-1.84 3.43-2.95 5.59-3.71-2.88 0.32-5.59 0.84-6.99 2.35-1.33-0.65-2.16-1.71-3-2.75l-3.55 1.04-5.46-1.04c-2.99 0.72-5.18 0.6-7.3-0.51l-4.28 1.01-5.01-0.5-2.99 0.72-5.02-0.72-3.93 1.41-3.16-0.69-3.14 1.38-4.3-0.69-3.3 1.46-2.36-0.77c-1.69 0.77-3.25 1.6-4.96 0.77l-4 0.83h-3.88c-0.44-1.01 0.64-1.7 2.08-1.6 3.43 0 4.77-1.7 6.08-3-4.01 1.94-5.61 0.9-4.41-2.46 0.4-4.93 2.46-6.44 4.17-8.63l-2.93-1.67c-1.16-0.3-1.88-2.35-0.16-1.9 0.88 0.25 2.07 0.42 3.05-2.33z" fill="#FEFFFE"/>
  <path d="m46.43 60.09c1.24-3.71 4.05-6.61 7.31-10.09" stroke="#FEFFFE" stroke-linecap="round" stroke-width="1.3"/>
  <path d="m44.91 63.07c-0.6 2.1-0.52 3.74 2 6.51l-1.84 5.02" stroke="#FEFFFE" stroke-linecap="round" stroke-width="1.3"/>
  <path d="m50.32 51.71c0.79-1.69 2.75-2.93 5.52-3.75" stroke="#FEFFFE" stroke-linecap="round" stroke-width="1.3"/>
  <path d="m56.59 44.01c2.17-0.56 3.73-1.3 4.43-2.73" stroke="#FEFFFE" stroke-linecap="round" stroke-width="1.3"/>
  <path d="m67.13 34.81c2.88-1.17 4.68-1 6.84-0.78 1.14-0.82 3.33-0.92 6.24 0.78" stroke="#FEFFFE" stroke-linecap="round" stroke-width="1.3"/>
  <path d="m73.65 35.81c2.59-0.52 5.07-0.77 7.08 0.51 3.03-1.21 6.47-2.21 8.15-2.63 2.22-0.61 4.89 0 6.29 1.49" stroke="#FEFFFE" stroke-linecap="round" stroke-width="1.3"/>
  <path d="m84.77 36.62c3.55-0.41 6.18 0.49 8.62 3.19 3.89 2.21 5.93 4.71 7.13 7.48" stroke="#FEFFFE" stroke-linecap="round" stroke-width="1.3"/>
  <path d="m104.3 44.36c3.11 1.31 5.34 2.85 6.62 4.85" stroke="#FEFFFE" stroke-linecap="round" stroke-width="1.3"/>
  <path d="m101.2 46.32c2.3 0.76 3.91 2.36 5.21 4.34 2.69 0.42 5.37 0.55 7.89-0.25 1.71 0.65 2.93 1.96 2.97 4.23" stroke="#FEFFFE" stroke-linecap="round" stroke-width="1.3"/>
  <path d="m114.9 57.34c1.67 1.41 2.21 3.02 2.21 4.76" stroke="#FEFFFE" stroke-linecap="round" stroke-width="1.3"/>
  <path d="m97.73 37.14c1.08 1.97 3.4 2.59 6.99 1.18" stroke="#FEFFFE" stroke-linecap="round" stroke-width="1.3"/>
  <path d="m63.61 39.73c-2.32 2.33-4.44 4.48-5.73 7.98-0.48 2.51 0.66 4.08 2.2 5.91-0.95 2.33-3.33 4.15-6.93 5.49-1.4 0.86-1.36 1.62-0.84 2.45" stroke="#FEFFFE" stroke-linecap="round" stroke-width="1.3"/>
  <path d="m61.68 46.06c2.55-1.95 5.86-2.31 9.61-1.85 2.08 0.42 3.94 1.6 5.77 3.08-2.4 1.77-4.85 3.32-6.97 5.62-1.32 0.99-2.87 0.4-3.63-0.92" stroke="#FEFFFE" stroke-linecap="round" stroke-width="1.3"/>
  <path d="m68.81 38.97c2.32-1.26 4.96-1.31 8.61 0.31 2.32 0.73 3.99 1.76 5.27 3.15" stroke="#FEFFFE" stroke-linecap="round" stroke-width="1.3"/>
  <path d="m85.92 39.81c2.56-0.76 4.86-0.38 6.99 2.09 3.06 1.88 5.26 4.24 6.98 7.01" stroke="#FEFFFE" stroke-linecap="round" stroke-width="1.3"/>
  <path d="m79.34 41.69c2.87-1.96 5.75-2.79 8.66-2.39" stroke="#FEFFFE" stroke-linecap="round" stroke-width="1.3"/>
  <path d="m78.84 46.78c2.49-1.99 6.17-2.77 10.32-1.82 1.32-0.75 2.66-1.18 4.07-1.05" stroke="#FEFFFE" stroke-linecap="round" stroke-width="1.3"/>
  <path d="m72.33 50.57c2.77 0.82 5.29 1.79 7.39 3.25 1.07 2-1.8 4.74-3.3 5.8-1.8 0.56-4.17-0.71-7.37-3.67-1.16-0.96-1.93-2.33-1.41-3.84" stroke="#FEFFFE" stroke-linecap="round" stroke-width="1.3"/>
  <path d="m85.05 50.93c3.43-0.91 6.69-0.76 9.76 1.1 2.22 2.19 5.4 5.43 7.7 7.04" stroke="#FEFFFE" stroke-linecap="round" stroke-width="1.3"/>
  <path d="m105.5 52.46c1.6 1.76 2.68 3.72 3.23 5.98 0.48 1.82 0.32 3.5-0.87 4.88" stroke="#FEFFFE" stroke-linecap="round" stroke-width="1.3"/>
  <path d="m90.16 50.41c1.58 3.46 4.82 6.65 8.65 9.77" stroke="#0B0800" stroke-linecap="round" stroke-width="1.3"/>
  <path d="m90.16 56.63 4.78-3.49" stroke="#0B0800" stroke-linecap="round" stroke-width="1.3"/>
  <path d="m100.8 57.61c3.16 3.7 5.81 7.93 9.19 11.55" stroke="#FEFFFE" stroke-linecap="round" stroke-width="1.3"/>
  <path d="m106.5 68.64-4.22 3.03" stroke="#FEFFFE" stroke-linecap="round" stroke-width="1.3"/>
  <path d="m115.8 68.52c-1.11 2.93-1.99 4.89-3.55 6.38" stroke="#FEFFFE" stroke-linecap="round" stroke-width="1.3"/>
  <path d="m89.28 53.06c-1.59 4-3.67 7.2-6.55 9.04" stroke="#FEFFFE" stroke-linecap="round" stroke-width="1.3"/>
  <path d="m87.96 59.27c-1.44 1.89-2.99 4.38-4.32 7.06" stroke="#FEFFFE" stroke-linecap="round" stroke-width="1.3"/>
  <path d="m90.16 62.42c2.91 0.85 6.17 1.66 9.73 2.19" stroke="#FEFFFE" stroke-linecap="round" stroke-width="1.3"/>
  <path d="m90.86 66.08c3.59 0.73 6.46 1.97 8.55 3.92" stroke="#FEFFFE" stroke-linecap="round" stroke-width="1.3"/>
  <path d="m83.01 70.71c3.34 0.47 6.87 1.37 9.9 3.11" stroke="#FEFFFE" stroke-linecap="round" stroke-width="1.3"/>
  <path d="m62.73 55.79c-1.91 2.96-4.14 5.62-6.89 7.78-0.9 2.39-2.88 4.42-5.68 6.09" stroke="#FEFFFE" stroke-linecap="round" stroke-width="1.3"/>
  <path d="m60.08 60.62c1.76 3.23 4.2 5.56 7.3 7.19" stroke="#FEFFFE" stroke-linecap="round" stroke-width="1.3"/>
  <path d="m57.04 68.52c1.2 2.26 3.04 3.49 5.69 3.79" stroke="#FEFFFE" stroke-linecap="round" stroke-width="1.3"/>
  <path d="m70.53 67.24c3.39 0.39 6.85-1.1 10.4-4.62" stroke="#FEFFFE" stroke-linecap="round" stroke-width="1.3"/>
  <path d="m71.01 64.08c3.35 0.94 6.85-0.89 10.64-5.95" stroke="#FEFFFE" stroke-linecap="round" stroke-width="1.3"/>
  <path d="m48.88 77.42v-3.81l2.75-4.3" stroke="#FEFFFE" stroke-linecap="round" stroke-width="1.3"/>
  <path d="m120 67.58c1.62 8.05 5.95 15.2 11.4 18.5" stroke="#0B0800" stroke-linecap="round" stroke-width="1.3"/>
  <path d="m165.9 52.3c2.79 2.81 4.15 6.14 3.51 10.47-0.76 5.04-2.52 10.35-4.74 15.04" stroke="#0B0800" stroke-linecap="round" stroke-width="1.3"/>
  <path d="m119.6 61.89c0-9.73 10.36-17.29 24.24-17.29 7.39 0 14.22 2.52 18.71 6.34" stroke="#0B0800" stroke-linecap="round" stroke-width="1.3"/>
  <path d="m162 53.96c2.8 2.6 4.04 5.31 3.38 8.81-1.62 7.39-10.78 13.4-20.82 13.64-11.19 0.28-22.9-4.15-22.9-13.89 0-8.8 10.29-14.89 21.63-14.89" stroke="#0B0800" stroke-linecap="round" stroke-width="1.3"/>
  <path d="m144.1 54.51c-11.6 0-18.42 4.4-18.42 10.8 0 4.78 9.02 8.31 18.42 8.31 9.93 0 18.73-4.44 18.73-9.41 0-5.55-7.96-9.7-18.73-9.7z" fill="#0B0800"/>
  <path d="m129.1 64.03c3.02-3.32 7.85-5.02 14.87-5.37" stroke="#FEFFFE" stroke-linecap="round" stroke-width="1.3"/>
  <path d="m149.9 58.91 0.92 0.29" stroke="#FEFFFE" stroke-linecap="round" stroke-width="1.3"/>
  <path d="m134.2 87.29c2.7 1.27 5.03 1.62 8.01 1.62" stroke="#0B0800" stroke-linecap="round" stroke-width="1.3"/>
  <path d="m147.2 89.68 30.68-15.95c1.2-0.62 2.75-0.07 3.15 1.59 2.02 8.04-0.54 17.84-12.15 23.29-8.05 2.82-17.26-0.19-22-5.4-0.72-1.83-0.59-3.19 0.32-3.53z" fill="#BA3420" stroke="#0B0800" stroke-linecap="round" stroke-width="1.3"/>
  <path d="m149.1 89.19c3.52 5.62 7.84 7.5 13.62 6.59 8.33-1.71 15.06-8.69 15.06-16.6l-0.48-3.01" stroke="#0B0800" stroke-linecap="round" stroke-width="1.3"/>
  <path d="m147.2 90.53c-0.76 3.15 1.8 7.31 10.74 9.28h5.36" stroke="#0B0800" stroke-linecap="round" stroke-width="1.3"/>
  <path d="m163.7 84.37-4.37 9.35" stroke="#0B0800" stroke-linecap="round" stroke-width=".9"/>
  <path d="m167.2 84.96 1.05 4.72" stroke="#0B0800" stroke-linecap="round" stroke-width=".9"/>
  <path d="m169.6 82.78 5.44 0.99" stroke="#0B0800" stroke-linecap="round" stroke-width=".9"/>
  <path d="m113.8 83.73c-1.88-0.37-2.92 1.2-3.4 3.48-1.72-0.15-3.02 1.56-3.46 2.87-0.72-0.72-0.53-4.21-2.25-7.68-0.85-1.96-2.6-3.22-3.84-1.66-1.01 0.75-2.51-2.62-4.53-0.61-1.04 1.36-2.41 0.53-3.88 0-1.69-0.64-1.69-4.11-4.31-4.62-2.15-0.19-2.35 1.67-4 1.6-1.63-0.05-1.47-2.31-3.15-1.99-1.69 0.32-2.09 1.5-3.63 1.05-1.76-0.54-2.96-0.39-3.69 1.52-0.96 1.21-2 0.08-3.28-0.4-1.66-0.87-2.94-1.27-3.8 0.62-0.83 1.89-1.75 1.66-2.84 0.8-1.65-1.42-2.51-1.1-3.61 0.06-1.4 1.2-2.44-0.36-3.4 0.06-1.69 0.91-2.29 1.02-3.77 0.69-1.84-0.23-2.56 1.69-3.75 2.6-1.33 0.42-3.01-0.79-4.05 0-1.27 1.37-2.71 1.49-4.3 0.66-1.7-0.86-2.17 0-2.45 1.43-0.65 0.81-1.73 0.08-2.68 0.6-1.69 0.86-1.89 2.63-1 3.44-1.64 0.66-2.6 0.31-2.96 2.65-0.28 2.01-2.83 2.16-4.39 3.67-1.46 1.29-0.84 2.8-1 3.9-0.69 0.99-3.29 1.97-2.47 3.64 0.83 1.14 1.31 2.25-0.32 3.67-1.15 1.21-0.67 2.63 1.11 3.83 1.32 0.91 1.43 2.73 1.28 3.67-0.32 1.43 0.48 1.8 1.36 2.61-1.12 2.59-0.44 6.46 1.48 5.65 1.46-0.72 1.1-1.44 1.66-1.8 1.41 0.47 1.81 3.01 2.57 4.75 0.79 1.64 2.32 1.57 3.4 2.63 1.44 1.71 2.68 1.61 3.87 0.55 1.04 0.52 1.16 2.72 2.49 3.14 1.55 0.15 1.67-0.66 2.54 0.15 0.77 0.78 0.61 2.85 2.54 3.29 1.76 0.47 2.28-0.57 3.51-0.08 0.85 1.04 1.83 3.12 4.18 3.24 1.87 0.2 2.03-1.11 3.07-1.36 1.24 1.54 4.09 1.81 4.69 0 0.96 2.77 2.41 4.81 4.32 4.87 1.26-0.11 1.68 0.85 2.44 1.17 1.08 0.25 1.76-1.06 2.88-0.47 1.69 0.72 3.71 0.39 5.03-0.91l2.53-2.05c-0.08 1.26 0.84 2.37 1.76 2.93 0.4 2.05 2.08 3.49 3.48 2.45 1.19-1.26 2.63-0.13 3.83 0.34 1.74-0.54 2.1 0.83 3.47 1.44 1.78 0.84 2.6-1.35 3.92-1.44 1.78 0.65 2.78-0.27 3.74-1.25 1.55-1.04 1.35 0.49 2.45 1.48 1.2 1.29 3.06 0.67 4.22-0.23 1.19 1.03 2.43 0.63 3.43-0.07 1.32-0.59 1.44 0.4 2.96 0.4 1.9 0 3.45 0.09 4.65-0.21 1.32 0 3.91-0.07 4.83-2.08 0.96 0.58 1.75 3.35 3.61 3.21 1.6-0.1 2.04-1.32 3.2-0.92 1.52 0.95 2.8 0.63 4.04-0.33 1.23-0.13 2.91 0.63 4.51-0.07 1.28 0.2 2.24 0.55 3.51-0.69 1.19-0.56 2.35-1.2 2.83-2.81 1.42 0.37 2.67 0.6 3.86-1.11 1.27-0.08 3.21-0.15 4.77-2.34 1.37-1.23 2.6-2.44 2.48-4.3 0.92-0.86 1.72-1.77 1.6-3.47-0.12-1.36 1.32-1.58 1.68-2.82 0.72-1.36-0.48-2.28-0.92-3.06-0.16-1.63 1.36-2.52 1.84-3.61 0.67-1.49-0.48-3.68-2.16-4.44-0.08-1.29 0.44-2.35-0.44-3.89-0.68-1.02-1.47-1.55-2.63-1.43 1.32-1.28 1.99-2.37 0.52-3.33-0.88-0.66-1.96-0.25-3.42-0.3-0.15-1.64-1.07-3.83-3.72-4.1-1.2-1.8-2.92-2.4-3.71-0.65-0.44 0.76-0.84 1.29-1.78 0.85-1.16-0.52-1.32-4.45-4.82-6.71-2.02-0.99-3.55-0.49-4.31-3.84-0.64-1.47-2.44-2.28-3.72-1.52-1.25 0.59-2.97-2.37-4.47-1.63-1.19 0.52-1.63-0.94-3.39-0.94-1.44 0-2.16-1.16-3.59-1.41-1.46-0.35-2.22 0.33-3.62-0.69-0.67-0.76-0.39-2.09-1.23-2.34z" fill="#FEFFFE" stroke="#0B0800" stroke-linecap="round" stroke-width="1.3"/>
  <path d="m90.21 82.12c-3.08 0.2-5.89 6.39-7.52 10.19-2.16 2.21-3.77 4.57-5.07 7.46-1.56 0.98-2.8 2.98-3.67 5.14-1.24 0.47-3.42 1.8-3.58 4.46-2.79 1.71-3.31 4.39-3.75 6.58-2.65 2.04-4.06 5.77-3.94 9.24 0.8 1.76 0.89 3.83 0.44 5.52l1.05 4.01 0.64-4.55 1-1.44v-2.71c0.86-3.87 4.12-8.2 7.88-13.4 5.59-5.05 9.83-13.13 15.39-22.43 1.08-4.14 4.71-7.58 9.13-7.17 4.86 0.42 4.37 5.81 1.92 9.96-5.6 8.2-10.53 15.89-15.36 23.94-3.08 4.15-6.05 8.94-10.08 11.71l-5.2 0.2-1.55-2.97" fill="#FEFFFE"/>
  <path d="m90.21 82.12c-3.08 0.2-5.89 6.39-7.52 10.19-2.16 2.21-3.77 4.57-5.07 7.46-1.56 0.98-2.8 2.98-3.67 5.14-1.24 0.47-3.42 1.8-3.58 4.46-2.79 1.71-3.31 4.39-3.75 6.58-2.65 2.04-4.06 5.77-3.94 9.24 0.8 1.76 0.89 3.83 0.44 5.52l1.05 4.01 0.64-4.55 1-1.44v-2.71c0.86-3.87 4.12-8.2 7.88-13.4 5.59-5.05 9.83-13.13 15.39-22.43 1.08-4.14 4.71-7.58 9.13-7.17 4.86 0.42 4.37 5.81 1.92 9.96-5.6 8.2-10.53 15.89-15.36 23.94-3.08 4.15-6.05 8.94-10.08 11.71l-5.2 0.2-1.55-2.97" stroke="#0B0800" stroke-linecap="round" stroke-width="1.3"/>
  <path d="m30.92 99.24 7.89 19.86" stroke="#0B0800" stroke-linecap="round" stroke-width=".9"/>
  <path d="m37.71 90.08 9.16 17.56" stroke="#0B0800" stroke-linecap="round" stroke-width=".9"/>
  <path d="m47.88 85.41 5.43 8.1" stroke="#0B0800" stroke-linecap="round" stroke-width=".9"/>
  <path d="m64.01 88.33 8.12 11.6" stroke="#0B0800" stroke-linecap="round" stroke-width=".9"/>
  <path d="m72.98 82.61 3.08 5.32" stroke="#0B0800" stroke-linecap="round" stroke-width=".9"/>
  <path d="m31.4 111 22.87-10.25 2.97-3.51 10.58-3.68" stroke="#0B0800" stroke-linecap="round" stroke-width=".9"/>
  <path d="m48.52 105.5c-3.45 4.89-5.91 9.91-6.4 14.96" stroke="#0B0800" stroke-linecap="round" stroke-width=".9"/>
  <path d="m48.88 108.9 4.83 14.92" stroke="#0B0800" stroke-linecap="round" stroke-width=".9"/>
  <path d="m54.47 111.5 11.99-3.01" stroke="#0B0800" stroke-linecap="round" stroke-width=".9"/>
  <path d="m105.5 95.69 12.72 11.76" stroke="#0B0800" stroke-linecap="round" stroke-width=".9"/>
  <path d="m116 90.39 13.84 26.8" stroke="#0B0800" stroke-linecap="round" stroke-width=".9"/>
  <path d="m127.4 92.11-12.98 16.82-0.72 5.13-13.46 8.95" stroke="#0B0800" stroke-linecap="round" stroke-width=".9"/>
  <path d="m100.2 104.7 6.91 12.85" stroke="#0B0800" stroke-linecap="round" stroke-width=".9"/>
  <path d="m127.2 106.4 7.67-0.51" stroke="#0B0800" stroke-linecap="round" stroke-width=".9"/>
  <path d="m138.5 109.4 4.51 7.62" stroke="#0B0800" stroke-linecap="round" stroke-width=".9"/>
  <path d="m134.5 121.8 6.5 11.91" stroke="#0B0800" stroke-linecap="round" stroke-width=".9"/>
  <path d="m134.6 132.7 15.15-15.58 0.8-4.3" stroke="#0B0800" stroke-linecap="round" stroke-width=".9"/>
  <path d="m136.6 123.3 16.18-2.61" stroke="#0B0800" stroke-linecap="round" stroke-width=".9"/>
  <path d="m91.82 123.9 3.39 11.89" stroke="#0B0800" stroke-linecap="round" stroke-width=".9"/>
  <path d="m92.22 116.8 7.99 14.73" stroke="#0B0800" stroke-linecap="round" stroke-width=".9"/>
  <path d="m108.1 128.2c-3 4.29-2.8 5.94-3.27 11.18" stroke="#0B0800" stroke-linecap="round" stroke-width=".9"/>
  <path d="m112.7 124.8 6.21 9.48" stroke="#0B0800" stroke-linecap="round" stroke-width=".9"/>
  <path d="m114.8 128.7 13.29-7.79" stroke="#0B0800" stroke-linecap="round" stroke-width=".9"/>
  <path d="m88.28 133.3 22.51-12.41 5.59-9.03 13.37-7.66" stroke="#0B0800" stroke-linecap="round" stroke-width=".9"/>
</svg>