<svg xmlns="http://www.w3.org/2000/svg" width="250" height="250" fill="none" viewBox="0 0 250 250"><!-- SVG created with Arrow, by QuiverAI (https://quiver.ai) -->  <path d="m68.79 5c-6.51 6.51-9.57 12.07-8.64 20.12 1.13 10.11 8.73 16.69 11.82 21.72 4.81 7.79 4.18 16.34-1.26 23.87-2.99 4.2-6.13 7.47-6.13 11.23" stroke="#0B0500" stroke-linecap="round" stroke-miterlimit="10" stroke-width="1.6"/>  <path d="m52.41 44.63c5.5 3.66 7.99 8.69 7.13 14.33-1.23 8.05-6.58 11.23-8.72 17.98-1.71 5.82-0.06 10.88 4.83 16.38 1.84 2.16 3.72 4.15 4.03 5.75" stroke="#0B0500" stroke-linecap="round" stroke-miterlimit="10" stroke-width="1.6"/>  <path d="m130.2 116.1c29.6 3.57 56.57 12.06 56.57 24.87 0 15.37-31.97 39.48-90.09 39.48-53.97 0-89.23-11.75-89.23-27.09v-12.39c0-7.28 8.66-13.25 16.54-15.81" stroke="#0B0500" stroke-linecap="round" stroke-miterlimit="10" stroke-width="1.6"/>  <path d="m186.5 141.1c0 5.61-0.61 9.91-1.59 16.11-6.11 29.74-24.87 56.53-51.65 68.97-11.09 5.11-23.27 8.83-37.32 8.83-24.9 0-40.95-8.76-47.77-13.36-22.99-15.11-39.06-40.61-40.75-68.26" stroke="#0B0500" stroke-linecap="round" stroke-miterlimit="10" stroke-width="1.6"/>  <path d="m60.24 226.7c2.69 10.24 16.82 18.31 36.45 18.31 19.62 0 34.39-8.07 36.59-18.31" stroke="#0B0500" stroke-linecap="round" stroke-miterlimit="10" stroke-width="1.6"/>  <path d="m25.82 182.1c1.26 2.89 2.19 4.6 3.8 6.33" stroke="#0B0500" stroke-linecap="round" stroke-miterlimit="10" stroke-width="1.6"/>  <path d="m34.99 195.1c7.98 10.42 19.63 18.98 32.07 24.23" stroke="#0B0500" stroke-linecap="round" stroke-miterlimit="10" stroke-width="1.6"/>  <path d="m72.48 130c8.86-1.03 17.72-1.32 32.56-1.41" stroke="#0B0500" stroke-linecap="round" stroke-miterlimit="10" stroke-width="1.6"/>  <path d="m123.8 128.8c7.83 1.26 13.25 2.5 19.33 3.78" stroke="#0B0500" stroke-linecap="round" stroke-miterlimit="10" stroke-width="1.6"/>  <path d="m67.85 115.9c8.99-0.94 17.43-1.17 28.06-1.26" stroke="#0B0500" stroke-linecap="round" stroke-miterlimit="10" stroke-width="1.6"/>  <path d="m12.92 147.7c3.23-4.26 6.37-6.71 9.06-7.91" stroke="#0B0500" stroke-linecap="round" stroke-miterlimit="10" stroke-width="1.6"/>  <path d="m76.71 134.2c11.08-1.13 20.15 3.09 28.91 10.57 9.67 8.43 16.53 12.97 31.26 16.94" stroke="#0B0500" stroke-linecap="round" stroke-miterlimit="10" stroke-width="1.6"/>  <path d="m78.73 140.3c9.99-0.4 16.89 3.09 24.37 10.04 5.63 5.33 12.13 10.76 18.03 14.77" stroke="#0B0500" stroke-linecap="round" stroke-miterlimit="10" stroke-width="1.6"/>  <path d="m79.74 148.7c7.71-0.24 12.97 2.91 19.03 8.96 2.96 2.95 6.41 5.93 9.04 8.74" stroke="#0B0500" stroke-linecap="round" stroke-miterlimit="10" stroke-width="1.6"/>  <path d="m77.38 158.8c7.47-1.75 11.9 1.31 18.53 7.94" stroke="#0B0500" stroke-linecap="round" stroke-miterlimit="10" stroke-width="1.6"/>  <path d="m103.2 140.3c4.58-9.87 4.56-19.35-0.87-31.09-4.69-9.89-5.72-15.91-1.62-25.95" stroke="#0B0500" stroke-linecap="round" stroke-miterlimit="10" stroke-width="1.6"/>  <path d="m109.8 139.8c5.31-11.55 3.79-21.2-2.75-34.57-4.16-8.28-4.77-16.54-0.42-23.93" stroke="#0B0500" stroke-linecap="round" stroke-miterlimit="10" stroke-width="1.6"/>  <path d="m116.2 138.8c5.89-12.48 6.13-20.93 0-33.72-5.13-10.6-5.43-18.64-1.01-27.26" stroke="#0B0500" stroke-linecap="round" stroke-miterlimit="10" stroke-width="1.6"/>  <path d="m103.2 140.3c4.58-9.87 5.6-18.32-0.87-31.09-5.29-10.29-4.87-17.94-1.62-25.95" stroke="#0B0500" stroke-linecap="round" stroke-miterlimit="10" stroke-width="1.6"/>  <path d="m109.8 139.8c5.31-11.55 4.97-20.49-1.57-33.87-4.95-9.98-5.18-17.24-0.83-25.38" stroke="#0B0500" stroke-linecap="round" stroke-miterlimit="10" stroke-width="1.6"/>  <path d="m116.2 138.8c5.89-12.48 7.24-21.03 0-35.4-4.95-9.67-5.16-17.99-1.01-25.58" stroke="#0B0500" stroke-linecap="round" stroke-miterlimit="10" stroke-width="1.6"/>  <path d="m123.5 85.43c1.64 4.2 3.5 10.33 4.2 11.63 0.82 2.38-3.22 4.19-3.88 1.19-0.42-1.96 0.87-6.14-2.22-12.06" stroke="#0B0500" stroke-linecap="round" stroke-miterlimit="10" stroke-width="1.6"/>  <path d="m87.41 83.29 147.9-43.01c3.25-1.07 4.79 2.51 4.09 4.68-0.56 1.79-1.9 2.46-3.35 2.88l-148.3 38.27c-2.26 0.62-2.49-2.25-0.36-2.82z" stroke="#0B0500" stroke-linecap="round" stroke-miterlimit="10" stroke-width="1.6"/>  <path d="m88.43 89.96 150.4-34.54c4.1-1.12 4.96 3.51 3.37 5.59-0.96 1.32-1.91 1.53-3.9 2l-149.2 28.9c-1.58 0.35-1.93-1.17-1.31-2.13 0.28-0.42 0.43-0.42 0.67 0.18z" stroke="#0B0500" stroke-linecap="round" stroke-miterlimit="10" stroke-width="1.6"/>  <path d="m103.8 139.8c9.06 2.21 17.66-2.53 24.63-4.88 7.74-2.72 12.8-3.16 18.79-2.55 12.24 1.32 21.68 5.78 31.07 17.04l1.57 2.19" stroke="#0B0500" stroke-linecap="round" stroke-miterlimit="10" stroke-width="1.6"/>  <path d="m115.1 148c11.03-1.04 17.48-8.6 30.69-8.6 11.13 0 19.55 4.41 28.04 14.44" stroke="#0B0500" stroke-linecap="round" stroke-miterlimit="10" stroke-width="1.6"/>  <path d="m125 153.5c7.74-1.48 10.07-2.97 17.95-2.97 8.21 0 14.45 1.86 19.28 7.67" stroke="#0B0500" stroke-linecap="round" stroke-miterlimit="10" stroke-width="1.6"/>  <path d="m38.91 110.1c10.05-2.21 21.18 3.93 31.51 14.62 14.23 15.14 13.7 31.24 3.48 40.18-1.71 1.56-29.52-2.81-35.98-8.12-10.6-8.86-17.2-42.35 0.99-46.68z" fill="#FEFFFE" stroke="#0B0500" stroke-linecap="round" stroke-miterlimit="10" stroke-width="1.6"/>  <path d="m56.77 129.3c-9.03 0-14.02 7.79-14.02 14.26 0 9.08 6.87 15.47 15.31 15.47 8.55 0 12.85-7.61 12.85-13 0-8.54-6.97-16.73-14.14-16.73z" fill="#B1341D"/></svg>