<svg xmlns="http://www.w3.org/2000/svg" width="100" height="100" viewBox="0 0 100 100">
  <!-- 浴巾 - 矩形带折叠感 -->
  <!-- 主体矩形 -->
  <path d="m20 25c3 0 5 0.5 7 1.5s4 3 5 5l5 8c1 2 2 4 2 6v20c0 2-1 4-2 5s-3 2-5 2.5s-4 1-7 1H25c-3 0-5-0.5-7-1.5s-4-3-5-5l-5-8c-1-2-2-4-2-6V35c0-2 1-4 2-5s3-2 5-2.5s4-1 7-1.5z"
        fill="#FEFFFE" stroke="#1A1612" stroke-width="4"
        stroke-linecap="round" stroke-linejoin="round"/>

  <!-- 折叠纹理 -->
  <path d="m25 30c5 0 10 0.5 14 2s7 4 9 7"
        fill="none" stroke="#1A1612" stroke-width="2.5"
        stroke-linecap="round" opacity="0.5"/>

  <!-- 边缘细节 - 陶土色 -->
  <path d="m22 70c3-2 6-3 10-3s8 1 11 3"
        fill="none" stroke="#D6654B" stroke-width="3"
        stroke-linecap="round"/>

  <!-- 挂环 -->
  <circle cx="75" cy="20" r="5"
          fill="none" stroke="#1A1612" stroke-width="3"/>
</svg>