<svg xmlns="http://www.w3.org/2000/svg" width="250" height="250" viewBox="0 0 250 250">
  <!-- ============================================================ -->
  <!-- 餐厅图标 - 29 path，复杂组合风格 -->
  <!-- ============================================================ -->

  <!-- 填充层 -->
  <g id="fill-layer">
    <!-- 外轮廓圆盘 -->
    <path d="m111.6 44.48c-58.74 0-107.6 35.43-107.6 78.08v2.28c0 42.25 39.44 79.79 107.3 79.79 56.18 0 114-33.52 114-79.28 0-43.96-45.32-80.87-113.7-80.87z" fill="#FEFFFE"/>
    <path d="m112.4 45.19c-58.74 0-107.6 34.03-107.6 74.93v2.19c0 40.3 44.24 76.7 107.4 76.7 56.17 0 112.9-32.24 112.9-76.11 0-42.08-44.35-77.71-112.7-77.71z" fill="#FEFFFE"/>

    <!-- 陶土色主体 -->
    <path d="m54.58 163.2c0.84 6.18 19.23 15.35 51.83 16.98 8.12 0.4 17.52 0 21.6-1.2 8.7-1.25 28.68-3.83 42.9-11.97 3.1-2.07 5.25-2.34 9.44-0.08l18.52 10.08c8.32-6.18 20.75-18.26 24.95-36.75l0.69-9.06 0.46-11.04c-2.15 18.01-7.63 32.76-27.71 49.31l-15.36-9.41c-4.68-1.99-5.69-4.01-7.72-8.7-5.83-14.18-20.51-19.45-30.12-18.79-7.88 0.1-13.05 4.61-12.37 11.16 1.57 10.17 12.28 21.48 27.19 22.12 4.68 0.15 9.13-1.94 12.1-0.75-0.86 1.48-4.79 3.58-9.28 5.1-10.56 3.7-22.31 6.92-35.63 8.89-8.61 1.28-31.94 0.61-44.36-2.84-8.99-2.18-20.4-4.84-26.49-10.83l-0.64-2.22z" fill="#B93A22"/>

    <!-- 食物填充（白色） -->
    <path d="m137.8 73.94c1.1-3.58-2.69-7.28-6.1-5.45-1.14-1.48-3.49-3.66-6.99-2.46-1.01 0.68-1.76 0.53-2.89-1.42-1.37-1.95-3.85-2.35-6.09-1.1-1.47-1.64-3.81-2.88-6.45-1.64-1.86-1.51-3.82-1.68-6.16-0.17-1.86-1.88-5.36-2.79-7.6-0.6-2.34-1.38-4.68-1.08-6.54 1.56-2.34-1.48-5.34-1.21-7.88 1.07-2.24-1.34-5.32-0.98-7.08 2.38-3.51-1.02-5.85 0.8-6.24 3.84-3-1.61-4.57 0-5.6 3.14-5.47-0.78-8.47 2.02-9.38 6.64-4.08 0-4.83 2.18-5.22 5.08-2.87 0.5-4.24 1.98-3.75 5.08l-1.13 3.36c-4.88 0.57-7.22 2.76-7.22 6.64l0.54 3.77c-5.07 2.25-7.6 7.55-6.75 13.26l0.49 1.61c-4.09 2.56-4.09 7.63-1.16 9.38-2.06 2.26-1.48 5.77 2.21 7.72-2.05 2.8-1.04 6.58 2.37 7.46l1.57 2.64 1.37 1.11c-1.02 3.35 1.03 6.64 5.9 5.76 0.29 3.14 1.86 4.75 4.79 4.26 0.39 3.21 2.1 4.45 5.6 3.96" fill="#FEFFFE"/>
    <path d="m138.6 76.33c6.63 5.3 3.42 16.28-13.84 22.18-12.68 3.34-20.78 10.61-24.96 24.13-4.88 15.27-16.1 23.11-33.84 28.76-5.99 2.21-10.86 4.68-11.45 10.16" fill="#FEFFFE"/>
    <path d="m180.8 163.6c-5.67-2.84-7.62-3.54-9.67-10.24-3.69-11.15-15.2-19.99-27.86-20.8-10.08-0.15-12.32 6.1-11.73 10.82 1.95 10.32 12.12 21.38 27.13 22.09 4.67 0.15 8.87-1.94 14.03-1.67 4.49 0.08 15.71 7.22 22.24 11.19 12 7.4 25.02 16.73 38.05 22.03 5.06 2.18 10.53 3.89 12.87-0.32 2.44-3.84-2.93-8.2-9.02-10.69-12.23-5.68-30.71-11.98-56.04-22.41z" fill="#FEFFFE"/>
  </g>

  <!-- 描边层 -->
  <g id="stroke-layer" fill="none" stroke="#14110A" stroke-linecap="round" stroke-linejoin="round">
    <!-- 外轮廓（粗线条 1.8px） -->
    <path d="m111.6 44.48c-58.74 0-107.6 35.43-107.6 78.08v2.28c0 42.25 39.44 79.79 107.3 79.79 56.18 0 114-33.52 114-79.28 0-43.96-45.32-80.87-113.7-80.87z" stroke-width="1.8"/>
    <path d="m112.4 45.19c-58.74 0-107.6 34.03-107.6 74.93v2.19c0 40.3 44.24 76.7 107.4 76.7 56.17 0 112.9-32.24 112.9-76.11 0-42.08-44.35-77.71-112.7-77.71z" stroke-width="1.8"/>

    <!-- 陶土色主体轮廓（中线条 1.8px） -->
    <path d="m54.58 163.2c0.84 6.18 19.23 15.35 51.83 16.98 8.12 0.4 17.52 0 21.6-1.2 8.7-1.25 28.68-3.83 42.9-11.97 3.1-2.07 5.25-2.34 9.44-0.08l18.52 10.08c8.32-6.18 20.75-18.26 24.95-36.75l0.69-9.06 0.46-11.04c-2.15 18.01-7.63 32.76-27.71 49.31l-15.36-9.41c-4.68-1.99-5.69-4.01-7.72-8.7-5.83-14.18-20.51-19.45-30.12-18.79-7.88 0.1-13.05 4.61-12.37 11.16 1.57 10.17 12.28 21.48 27.19 22.12 4.68 0.15 9.13-1.94 12.1-0.75-0.86 1.48-4.79 3.58-9.28 5.1-10.56 3.7-22.31 6.92-35.63 8.89-8.61 1.28-31.94 0.61-44.36-2.84-8.99-2.18-20.4-4.84-26.49-10.83l-0.64-2.22z" stroke-width="1.3"/>

    <!-- 食物轮廓（中线条 1.8px / 1.3px） -->
    <path d="m139.9 71.81c0.49-1.79 3.2-1.44 6.07-1.33 21.36 0.83 43.49 18.28 51.61 34.2 7.11 12.13 4.47 29.17-2.49 40.29l-4.62 6.15" stroke-width="1.8"/>
    <path d="m137.8 73.94c1.1-3.58-2.69-7.28-6.1-5.45-1.14-1.48-3.49-3.66-6.99-2.46-1.01 0.68-1.76 0.53-2.89-1.42-1.37-1.95-3.85-2.35-6.09-1.1-1.47-1.64-3.81-2.88-6.45-1.64-1.86-1.51-3.82-1.68-6.16-0.17-1.86-1.88-5.36-2.79-7.6-0.6-2.34-1.38-4.68-1.08-6.54 1.56-2.34-1.48-5.34-1.21-7.88 1.07-2.24-1.34-5.32-0.98-7.08 2.38-3.51-1.02-5.85 0.8-6.24 3.84-3-1.61-4.57 0-5.6 3.14-5.47-0.78-8.47 2.02-9.38 6.64-4.08 0-4.83 2.18-5.22 5.08-2.87 0.5-4.24 1.98-3.75 5.08l-1.13 3.36c-4.88 0.57-7.22 2.76-7.22 6.64l0.54 3.77c-5.07 2.25-7.6 7.55-6.75 13.26l0.49 1.61c-4.09 2.56-4.09 7.63-1.16 9.38-2.06 2.26-1.48 5.77 2.21 7.72-2.05 2.8-1.04 6.58 2.37 7.46l1.57 2.64 1.37 1.11c-1.02 3.35 1.03 6.64 5.9 5.76 0.29 3.14 1.86 4.75 4.79 4.26 0.39 3.21 2.1 4.45 5.6 3.96" stroke-width="1.3"/>
    <path d="m138.6 76.33c6.63 5.3 3.42 16.28-13.84 22.18-12.68 3.34-20.78 10.61-24.96 24.13-4.88 15.27-16.1 23.11-33.84 28.76-5.99 2.21-10.86 4.68-11.45 10.16" stroke-width="1.3"/>
    <path d="m137 144.4c4.19 11.34 16.72 18.56 29.39 15.35" stroke-width="1.8"/>
    <path d="m180.8 163.6c-5.67-2.84-7.62-3.54-9.67-10.24-3.69-11.15-15.2-19.99-27.86-20.8-10.08-0.15-12.32 6.1-11.73 10.82 1.95 10.32 12.12 21.38 27.13 22.09 4.67 0.15 8.87-1.94 14.03-1.67 4.49 0.08 15.71 7.22 22.24 11.19 12 7.4 25.02 16.73 38.05 22.03 5.06 2.18 10.53 3.89 12.87-0.32 2.44-3.84-2.93-8.2-9.02-10.69-12.23-5.68-30.71-11.98-56.04-22.41z" stroke-width="1.8"/>

    <!-- 细节纹理（细线条 1.3px） -->
    <path d="m48.38 105.9c0-2.8 1.03-3.34 2.99-3.6" stroke-width="1.3"/>
    <path d="m47.35 127.4c-1.57 0.67-1.96 3.08 0.19 4.69" stroke-width="1.3"/>
    <path d="m67.14 121c-0.49-2.9 0.53-3.37 2.1-3.87" stroke-width="1.3"/>
    <path d="m74.1 80.35c1.02-2.41 2.78-2.71 4.83-2.24" stroke-width="1.3"/>
    <path d="m107.3 73.91c1.96-1.6 3.82-0.93 5.68 0.68" stroke-width="1.3"/>
    <path d="m77.99 96.23c1.13-1.82 2.36-1.82 4.6-1.35" stroke-width="1.3"/>
    <path d="m100 103.5c-0.58-2.8 0.65-3.7 3.28-3.97" stroke-width="1.3"/>
  </g>
</svg>