<svg xmlns="http://www.w3.org/2000/svg" width="250" height="250" viewBox="0 0 250 250">
  <!-- ============================================================ -->
  <!-- 沙发 - 控笔修复版，用贝塞尔曲线替代直线 -->
  <!-- ============================================================ -->

  <!-- 填充层 -->
  <g id="fill-layer">
    <!-- 沙发主体 - 手绘感曲线 -->
    <path d="m44.18 90.59c16.87-2.32 34.01-1.16 51.01-1.24 16.99-0.08 34-0.39 50.97 0.84 9.31 0.69 15.82 6.83 16.01 16.17 0.26 12.83 0.07 25.68 0.07 38.52 0 20.86 0.18 41.74-0.07 62.59-0.16 13.28-8.41 21.01-21.71 21.59-12.72 0.55-25.51 0.1-38.27 0.19-10.15 0.07-20.32 0.29-30.45-0.63-10.57-0.96-17.72-6.92-18.25-19.24-0.66-15.02-0.11-30.09-0.11-45.15 0-20.05-0.25-40.12 0.1-60.17 0.18-9.76 6.81-16.49 16.93-17.21 0.81-0.06 1.63-0.06 2.45-0.05 1.37 0.01 2.75 0.01 4.12 0.01z" fill="#FEFFFE"/>

    <!-- 靠背垫 - 手绘感曲线 -->
    <path d="m54.23 63.47c14.74-2.01 29.73-1.01 44.57-1.08 14.83-0.07 29.68-0.34 44.49 0.72 8.14 0.58 13.84 5.98 14.01 14.16 0.23 11.23 0.06 22.48 0.06 33.72 0 18.26 0.16 36.53-0.06 54.78-0.14 11.63-7.36 18.71-19.01 19.26-11.12 0.51-22.32 0.09-33.49 0.16-8.88 0.06-17.79 0.26-26.65-0.56-9.25-0.85-15.49-6.32-15.98-16.86-0.58-13.15-0.1-26.34-0.1-39.52 0-17.56-0.22-35.13 0.09-52.68 0.16-8.55 5.97-14.46 14.83-15.08 0.72-0.05 1.44-0.05 2.16-0.04 1.21 0.01 2.42 0.01 3.63 0.01z" fill="#FEFFFE"/>

    <!-- 陶土色抱枕装饰（左） - 手绘感曲线 -->
    <path d="m69.29 106.41c0.17-8.55 7.03-15.35 15.57-15.35 8.55 0 15.4 6.82 15.57 15.35 0.17 8.53-6.82 15.51-15.57 15.51-8.76 0-15.74-6.99-15.57-15.51z" fill="#B03A21"/>

    <!-- 陶土色抱枕装饰（右） - 手绘感曲线 -->
    <path d="m150.48 106.41c0.17-8.55 7.03-15.35 15.57-15.35 8.55 0 15.4 6.82 15.57 15.35 0.17 8.53-6.82 15.51-15.57 15.51-8.76 0-15.74-6.99-15.57-15.51z" fill="#B03A21"/>

    <!-- 扶手垫（左） - 手绘感曲线 -->
    <path d="m44.18 96.47c8.32-1.13 16.76-0.57 25.14-0.61 8.35-0.04 16.72-0.19 25.05 0.42 4.59 0.33 7.81 3.37 7.91 7.98 0.12 6.32 0.03 12.66 0.03 18.99 0 10.27 0.08 20.55-0.03 30.82-0.07 6.57-4.18 10.31-10.71 10.61-6.28 0.29-12.59 0.05-18.89 0.09-4.93 0.03-9.87 0.15-14.78-0.31-5.79-0.54-9.69-3.95-9.96-10.48-0.33-7.51-0.05-15.05-0.05-22.58 0-10.03-0.12-20.06 0.05-30.08 0.08-4.88 3.36-8.19 8.24-8.59 0.41-0.03 0.82-0.03 1.23-0.03 0.69 0.01 1.37 0.01 2.06 0.01z" fill="#FEFFFE"/>

    <!-- 扶手垫（右） - 手绘感曲线 -->
    <path d="m179.69 96.47c-8.32-1.13-16.76-0.57-25.14-0.61-8.35-0.04-16.72-0.19-25.05 0.42-4.59 0.33-7.81 3.37-7.91 7.98-0.12 6.32-0.03 12.66-0.03 18.99 0 10.27-0.08 20.55 0.03 30.82 0.07 6.57 4.18 10.31 10.71 10.61 6.28 0.29 12.59 0.05 18.89 0.09 4.93 0.03 9.87 0.15 14.78-0.31 5.79-0.54 9.69-3.95 9.96-10.48 0.33-7.51 0.05-15.05 0.05-22.58 0-10.03 0.12-20.06-0.05-30.08-0.08-4.88-3.36-8.19-8.24-8.59-0.41-0.03-0.82-0.03-1.23-0.03-0.69 0.01-1.37 0.01-2.06 0.01z" fill="#FEFFFE"/>
  </g>

  <!-- 描边层 -->
  <g id="stroke-layer" fill="none" stroke="#140A05" stroke-linecap="round" stroke-linejoin="round">
    <!-- 靠背轮廓 - 手绘感曲线 1.8px -->
    <path d="m54.23 63.47c14.74-2.01 29.73-1.01 44.57-1.08 14.83-0.07 29.68-0.34 44.49 0.72 8.14 0.58 13.84 5.98 14.01 14.16 0.23 11.23 0.06 22.48 0.06 33.72 0 18.26 0.16 36.53-0.06 54.78-0.14 11.63-7.36 18.71-19.01 19.26-11.12 0.51-22.32 0.09-33.49 0.16-8.88 0.06-17.79 0.26-26.65-0.56-9.25-0.85-15.49-6.32-15.98-16.86-0.58-13.15-0.1-26.34-0.1-39.52 0-17.56-0.22-35.13 0.09-52.68 0.16-8.55 5.97-14.46 14.83-15.08 0.72-0.05 1.44-0.05 2.16-0.04 1.21 0.01 2.42 0.01 3.63 0.01z" stroke-width="1.8"/>

    <!-- 主体轮廓 - 手绘感曲线 1.8px -->
    <path d="m44.18 90.59c16.87-2.32 34.01-1.16 51.01-1.24 16.99-0.08 34-0.39 50.97 0.84 9.31 0.69 15.82 6.83 16.01 16.17 0.26 12.83 0.07 25.68 0.07 38.52 0 20.86 0.18 41.74-0.07 62.59-0.16 13.28-8.41 21.01-21.71 21.59-12.72 0.55-25.51 0.1-38.27 0.19-10.15 0.07-20.32 0.29-30.45-0.63-10.57-0.96-17.72-6.92-18.25-19.24-0.66-15.02-0.11-30.09-0.11-45.15 0-20.05-0.25-40.12 0.1-60.17 0.18-9.76 6.81-16.49 16.93-17.21 0.81-0.06 1.63-0.06 2.45-0.05 1.37 0.01 2.75 0.01 4.12 0.01z" stroke-width="1.8"/>

    <!-- 靠背与主体连接线 - 手绘感曲线 1.5px -->
    <path d="m42.23 115.29c55.22-0.69 110.5 0.36 165.69-0.69" stroke-width="1.5"/>

    <!-- 左扶手轮廓 - 手绘感曲线 1.8px -->
    <path d="m44.18 96.47c8.32-1.13 16.76-0.57 25.14-0.61 8.35-0.04 16.72-0.19 25.05 0.42 4.59 0.33 7.81 3.37 7.91 7.98 0.12 6.32 0.03 12.66 0.03 18.99 0 10.27 0.08 20.55-0.03 30.82-0.07 6.57-4.18 10.31-10.71 10.61-6.28 0.29-12.59 0.05-18.89 0.09-4.93 0.03-9.87 0.15-14.78-0.31-5.79-0.54-9.69-3.95-9.96-10.48-0.33-7.51-0.05-15.05-0.05-22.58 0-10.03-0.12-20.06 0.05-30.08 0.08-4.88 3.36-8.19 8.24-8.59 0.41-0.03 0.82-0.03 1.23-0.03 0.69 0.01 1.37 0.01 2.06 0.01z" stroke-width="1.8"/>

    <!-- 右扶手轮廓 - 手绘感曲线 1.8px -->
    <path d="m179.69 96.47c-8.32-1.13-16.76-0.57-25.14-0.61-8.35-0.04-16.72-0.19-25.05 0.42-4.59 0.33-7.81 3.37-7.91 7.98-0.12 6.32-0.03 12.66-0.03 18.99 0 10.27-0.08 20.55 0.03 30.82 0.07 6.57 4.18 10.31 10.71 10.61 6.28 0.29 12.59 0.05 18.89 0.09 4.93 0.03 9.87 0.15 14.78-0.31 5.79-0.54 9.69-3.95 9.96-10.48 0.33-7.51 0.05-15.05 0.05-22.58 0-10.03 0.12-20.06-0.05-30.08-0.08-4.88-3.36-8.19-8.24-8.59-0.41-0.03-0.82-0.03-1.23-0.03-0.69 0.01-1.37 0.01-2.06 0.01z" stroke-width="1.8"/>

    <!-- 抱枕轮廓（左） - 手绘感曲线 1.5px -->
    <path d="m69.29 106.41c0.17-8.55 7.03-15.35 15.57-15.35 8.55 0 15.4 6.82 15.57 15.35 0.17 8.53-6.82 15.51-15.57 15.51-8.76 0-15.74-6.99-15.57-15.51z" stroke-width="1.5"/>

    <!-- 抱枕轮廓（右） - 手绘感曲线 1.5px -->
    <path d="m150.48 106.41c0.17-8.55 7.03-15.35 15.57-15.35 8.55 0 15.4 6.82 15.57 15.35 0.17 8.53-6.82 15.51-15.57 15.51-8.76 0-15.74-6.99-15.57-15.51z" stroke-width="1.5"/>

    <!-- 靠背纹理线 - 手绘感短曲线 1.3px -->
    <path d="m74.23 75.41c3.27-0.12 6.57-0.08 9.85-0.08" stroke-width="1.3"/>
    <path d="m94.23 75.41c3.27-0.12 6.57-0.08 9.85-0.08" stroke-width="1.3"/>
    <path d="m114.23 75.41c3.27-0.12 6.57-0.08 9.85-0.08" stroke-width="1.3"/>
    <path d="m134.23 75.41c3.27-0.12 6.57-0.08 9.85-0.08" stroke-width="1.3"/>
    <path d="m154.23 75.41c3.27-0.12 6.57-0.08 9.85-0.08" stroke-width="1.3"/>
    <path d="m174.23 75.41c3.27-0.12 6.57-0.08 9.85-0.08" stroke-width="1.3"/>

    <!-- 座垫缝线 - 手绘感曲线 1.3px -->
    <path d="m84.23 131.47c26.86-0.34 53.76 0.17 80.59-0.34" stroke-width="1.3"/>
    <path d="m84.23 156.47c26.86-0.34 53.76 0.17 80.59-0.34" stroke-width="1.3"/>

    <!-- 抱枕装饰细节（左） - 手绘感短曲线 1.0px -->
    <path d="m79.23 101.47c0.06 3.27 0.04 6.57 0.04 9.85" stroke-width="1.0"/>

    <!-- 抱枕装饰细节（右） - 手绘感短曲线 1.0px -->
    <path d="m160.48 101.47c-0.06 3.27-0.04 6.57-0.04 9.85" stroke-width="1.0"/>
  </g>
</svg>
