<svg xmlns="http://www.w3.org/2000/svg" width="250" height="250" viewBox="0 0 250 250">
  <!-- ============================================================ -->
  <!-- 药品盒子 - 控笔修复版，用贝塞尔曲线替代直线 -->
  <!-- ============================================================ -->

  <!-- 填充层 -->
  <g id="fill-layer">
    <!-- 盒子主体 - 手绘感曲线 -->
    <path d="m93.47 43.82c10.12-1.48 20.42-0.74 30.59-0.81 10.19-0.07 20.39-0.36 30.56 0.79 8.02 0.89 13.82 7.27 13.98 15.32 0.22 11.41 0.06 22.84 0.06 34.26 0 18.54 0.16 37.09-0.06 55.62-0.14 11.81-7.47 19.01-19.18 19.67-11.3 0.63-22.65 0.11-33.98 0.21-9.01 0.08-18.04 0.32-27.03-0.71-9.39-1.07-15.74-7.63-16.21-17.07-0.59-11.46-0.1-22.97-0.1-34.46 0-17.79-0.22-35.59 0.09-53.37 0.16-8.66 6.47-14.82 15.03-15.48 0.73-0.06 1.47-0.06 2.21-0.05z" fill="#FEFFFE"/>

    <!-- 陶土色十字装饰 - 手绘感曲线 -->
    <path d="m125.59 86.41c-3.74 0.12-6.81 3.08-6.93 6.82-0.06 1.89 0.02 3.79 0.02 5.68 0 6.32 0.02 12.64-0.02 18.96-0.01 1.42-0.62 2.03-2.03 2.04-8.17 0.06-16.34 0.02-24.51 0.02-0.95 0-1.89-0.01-2.84 0.01-3.48 0.08-6.35 3.01-6.35 6.48 0 3.58 2.77 6.49 6.35 6.59 0.95 0.03 1.89 0.01 2.84 0.01 8.17 0 16.34-0.04 24.51 0.02 1.52 0.01 2.07 0.59 2.06 2.11-0.04 8.17-0.01 16.34-0.01 24.51 0 0.95 0.01 1.89-0.01 2.84-0.09 3.42-3.01 6.22-6.42 6.3-3.74 0.09-6.82-2.85-6.93-6.59-0.06-1.89 0.02-3.79 0.02-5.68 0-6.32-0.02-12.64 0.02-18.96 0.01-1.42 0.62-2.03 2.03-2.04 8.17-0.06 16.34-0.02 24.51-0.02 0.95 0 1.89 0.01 2.84-0.01 3.48-0.08 6.35-3.01 6.35-6.48 0-3.58-2.77-6.49-6.35-6.59-0.95-0.03-1.89-0.01-2.84-0.01-8.17 0-16.34 0.04-24.51-0.02-1.52-0.01-2.07-0.59-2.06-2.11 0.04-8.17 0.01-16.34 0.01-24.51 0-0.95-0.01-1.89 0.01-2.84 0.09-3.42 3.01-6.22 6.42-6.3z" fill="#B03A21"/>
  </g>

  <!-- 描边层 -->
  <g id="stroke-layer" fill="none" stroke="#140A05" stroke-linecap="round" stroke-linejoin="round">
    <!-- 盒子外轮廓 - 手绘感曲线 1.8px -->
    <path d="m93.47 43.82c10.12-1.48 20.42-0.74 30.59-0.81 10.19-0.07 20.39-0.36 30.56 0.79 8.02 0.89 13.82 7.27 13.98 15.32 0.22 11.41 0.06 22.84 0.06 34.26 0 18.54 0.16 37.09-0.06 55.62-0.14 11.81-7.47 19.01-19.18 19.67-11.3 0.63-22.65 0.11-33.98 0.21-9.01 0.08-18.04 0.32-27.03-0.71-9.39-1.07-15.74-7.63-16.21-17.07-0.59-11.46-0.1-22.97-0.1-34.46 0-17.79-0.22-35.59 0.09-53.37 0.16-8.66 6.47-14.82 15.03-15.48 0.73-0.06 1.47-0.06 2.21-0.05z" stroke-width="1.8"/>

    <!-- 盒子顶部折痕 - 手绘感曲线 1.3px -->
    <path d="m80.29 106.41c29.43-0.37 58.89 0.19 88.31-0.37" stroke-width="1.3"/>
    <path d="m80.29 146.47c29.43-0.37 58.89 0.19 88.31-0.37" stroke-width="1.3"/>

    <!-- 盒子底部阴影 - 手绘感曲线 1.3px -->
    <path d="m90.63 195.23c2.87 1.93 9.79 3.41 17.97 3.41 11.27 0 34.81-1.53 38.79-5.23" stroke-width="1.3"/>

    <!-- 十字装饰轮廓 - 手绘感曲线 1.5px -->
    <path d="m125.59 86.41c-3.74 0.12-6.81 3.08-6.93 6.82-0.06 1.89 0.02 3.79 0.02 5.68 0 6.32 0.02 12.64-0.02 18.96-0.01 1.42-0.62 2.03-2.03 2.04-8.17 0.06-16.34 0.02-24.51 0.02-0.95 0-1.89-0.01-2.84 0.01-3.48 0.08-6.35 3.01-6.35 6.48 0 3.58 2.77 6.49 6.35 6.59 0.95 0.03 1.89 0.01 2.84 0.01 8.17 0 16.34-0.04 24.51 0.02 1.52 0.01 2.07 0.59 2.06 2.11-0.04 8.17-0.01 16.34-0.01 24.51 0 0.95 0.01 1.89-0.01 2.84-0.09 3.42-3.01 6.22-6.42 6.3-3.74 0.09-6.82-2.85-6.93-6.59-0.06-1.89 0.02-3.79 0.02-5.68 0-6.32-0.02-12.64 0.02-18.96 0.01-1.42 0.62-2.03 2.03-2.04 8.17-0.06 16.34-0.02 24.51-0.02 0.95 0 1.89 0.01 2.84-0.01 3.48-0.08 6.35-3.01 6.35-6.48 0-3.58-2.77-6.49-6.35-6.59-0.95-0.03-1.89-0.01-2.84-0.01-8.17 0-16.34 0.04-24.51-0.02-1.52-0.01-2.07-0.59-2.06-2.11 0.04-8.17 0.01-16.34 0.01-24.51 0-0.95-0.01-1.89 0.01-2.84 0.09-3.42 3.01-6.22 6.42-6.3z" stroke-width="1.5"/>

    <!-- 盒子侧面纹理 - 手绘感短曲线 1.3px -->
    <path d="m93.47 64.18c3.27-0.12 6.57-0.08 9.85-0.08" stroke-width="1.3"/>
    <path d="m147.84 64.18c-3.27 0.12-6.57 0.08-9.85 0.08" stroke-width="1.3"/>
    <path d="m93.47 186.47c3.27-0.12 6.57-0.08 9.85-0.08" stroke-width="1.3"/>
    <path d="m147.84 186.47c-3.27 0.12-6.57 0.08-9.85 0.08" stroke-width="1.3"/>

    <!-- 内部阴影线 - 手绘感短曲线 1.0px -->
    <path d="m87.29 115.29c2.83-0.09 5.67 0.05 8.5 0.05" stroke-width="1.0"/>
    <path d="m155.02 115.29c-2.83 0.09-5.67-0.05-8.5-0.05" stroke-width="1.0"/>
    <path d="m87.29 137.01c2.83-0.09 5.67 0.05 8.5 0.05" stroke-width="1.0"/>
    <path d="m155.02 137.01c-2.83 0.09-5.67-0.05-8.5-0.05" stroke-width="1.0"/>
  </g>
</svg>
