<svg xmlns="http://www.w3.org/2000/svg" width="250" height="250" viewBox="0 0 250 250">
  <!-- ============================================================ -->
  <!-- 小镜子 - 17 path，装饰风格 -->
  <!-- ============================================================ -->

  <!-- 填充层 -->
  <g id="fill-layer">
    <!-- 镜框 -->
    <path d="m85.27 45.27h80.46c11.05 0 20 8.95 20 20v120c0 11.05-8.95 20-20 20h-80.46c-11.05 0-20-8.95-20-20v-120c0-11.05 8.95-20 20-20z" fill="#FEFFFE"/>

    <!-- 镜面 -->
    <path d="m95.27 60.27h60.46c8.28 0 15 6.72 15 15v100c0 8.28-6.72 15-15 15h-60.46c-8.28 0-15-6.72-15-15v-100c0-8.28 6.72-15 15-15z" fill="#FEFFFE"/>

    <!-- 陶土色镜框装饰（顶部） -->
    <path d="m105.3 50.27h40.46c2.76 0 5 2.24 5 5s-2.24 5-5 5h-40.46c-2.76 0-5-2.24-5-5s2.24-5 5-5z" fill="#B03A21"/>

    <!-- 陶土色镜框装饰（底部） -->
    <path d="m105.3 190.3h40.46c2.76 0 5 2.24 5 5s-2.24 5-5 5h-40.46c-2.76 0-5-2.24-5-5s2.24-5 5-5z" fill="#B03A21"/>

    <!-- 镜面反光效果 -->
    <path d="m105.3 70.27c0-2.76 2.24-5 5-5h30.46c2.76 0 5 2.24 5 5v40c0 2.76-2.24 5-5 5h-30.46c-2.76 0-5-2.24-5-5z" fill="#FEFFFE" opacity="0.5"/>
  </g>

  <!-- 描边层 -->
  <g id="stroke-layer" fill="none" stroke="#140A05" stroke-linecap="round" stroke-linejoin="round">
    <!-- 镜框外轮廓（主线条 1.8px） -->
    <path d="m85.27 45.27h80.46c11.05 0 20 8.95 20 20v120c0 11.05-8.95 20-20 20h-80.46c-11.05 0-20-8.95-20-20v-120c0-11.05 8.95-20 20-20z" stroke-width="1.8"/>

    <!-- 镜面轮廓（主线条 1.8px） -->
    <path d="m95.27 60.27h60.46c8.28 0 15 6.72 15 15v100c0 8.28-6.72 15-15 15h-60.46c-8.28 0-15-6.72-15-15v-100c0-8.28 6.72-15 15-15z" stroke-width="1.8"/>

    <!-- 顶部陶土色装饰轮廓（中线条 1.5px） -->
    <path d="m105.3 50.27h40.46c2.76 0 5 2.24 5 5s-2.24 5-5 5h-40.46c-2.76 0-5-2.24-5-5s2.24-5 5-5z" stroke-width="1.5"/>

    <!-- 底部陶土色装饰轮廓（中线条 1.5px） -->
    <path d="m105.3 190.3h40.46c2.76 0 5 2.24 5 5s-2.24 5-5 5h-40.46c-2.76 0-5-2.24-5-5s2.24-5 5-5z" stroke-width="1.5"/>

    <!-- 镜面反光轮廓（细线条 1.3px） -->
    <path d="m105.3 70.27c0-2.76 2.24-5 5-5h30.46c2.76 0 5 2.24 5 5v40c0 2.76-2.24 5-5 5h-30.46c-2.76 0-5-2.24-5-5z" stroke-width="1.3"/>

    <!-- 镜框纹理线（细线条 1.3px） -->
    <path d="m90.27 60.27v10" stroke-width="1.3"/>
    <path d="m160.7 60.27v10" stroke-width="1.3"/>
    <path d="m90.27 180.3v10" stroke-width="1.3"/>
    <path d="m160.7 180.3v10" stroke-width="1.3"/>

    <!-- 镜面高光线（极细线条 1.0px） -->
    <path d="m110.3 75.27h25" stroke-width="1.0"/>
    <path d="m110.3 85.27h15" stroke-width="1.0"/>

    <!-- 挂环（中线条 1.5px） -->
    <path d="m125.5 45.27v8" stroke-width="1.5"/>
    <path d="m118.3 45.27c0-4.14 3.36-7.5 7.5-7.5s7.5 3.36 7.5 7.5" stroke-width="1.5"/>

    <!-- 镜框内阴影线（细线条 1.3px） -->
    <path d="m100.3 65.27h50.46" stroke-width="1.3"/>
    <path d="m100.3 175.3h50.46" stroke-width="1.3"/>
  </g>
</svg>
