<svg xmlns="http://www.w3.org/2000/svg" viewBox="0 0 1280 720" width="1280" height="720">
  <rect width="1280" height="720" fill="#FFFFFF" />
  <rect x="0" y="0" width="1280" height="4" fill="#2ec4b6" />

  
  <text x="80" y="80" font-family="Microsoft YaHei" font-size="40" font-weight="700" fill="#2ec4b6">他们用科学改变了荒岛 🔬</text>
  <rect x="80" y="100" width="100" height="4" fill="#ff9f1c" />

  
  <line x1="100" y1="210" x2="1180" y2="210" stroke="#ffbf69" stroke-width="4" stroke-linecap="round" />

  
  <circle cx="140" cy="210" r="26" fill="#2ec4b6" />
  <text x="140" y="218" text-anchor="middle" font-family="Segoe UI Emoji, Apple Color Emoji, Noto Color Emoji" font-size="20">🔥</text>
  <path fill="#F0FAF9" d="M76,260 H214 A16,16 0 0 1 230,276 V564 A16,16 0 0 1 214,580 H76 A16,16 0 0 1 60,564 V276 A16,16 0 0 1 76,260 Z" />
  <text x="145" y="300" text-anchor="middle" font-family="Microsoft YaHei" font-size="22" font-weight="700" fill="#2ec4b6">生火</text>
  <text x="80" y="340" font-family="Microsoft YaHei" font-size="14" fill="#666666">用两块玻璃做</text>
  <text x="80" y="360" font-family="Microsoft YaHei" font-size="14" fill="#666666">凸透镜，聚焦阳</text>
  <text x="80" y="380" font-family="Microsoft YaHei" font-size="14" fill="#666666">光点燃干草</text>
  <text x="100" y="430" text-anchor="middle" font-family="Segoe UI Emoji, Apple Color Emoji, Noto Color Emoji" font-size="36">🔍</text>
  <text x="145" y="500" text-anchor="middle" font-family="Microsoft YaHei" font-size="13" fill="#999999">没有火柴</text>
  <text x="145" y="520" text-anchor="middle" font-family="Microsoft YaHei" font-size="13" fill="#999999">也能生火！</text>
  <text x="145" y="555" text-anchor="middle" font-family="Microsoft YaHei" font-size="14" fill="#2ec4b6" font-weight="700">第一步</text>

  
  <polygon points="250,205 280,210 250,215" fill="#ff9f1c" />

  
  <circle cx="320" cy="210" r="26" fill="#ff9f1c" />
  <text x="320" y="218" text-anchor="middle" font-family="Segoe UI Emoji, Apple Color Emoji, Noto Color Emoji" font-size="20">🏺</text>
  <path fill="#FFF3E0" d="M266,260 H404 A16,16 0 0 1 420,276 V564 A16,16 0 0 1 404,580 H266 A16,16 0 0 1 250,564 V276 A16,16 0 0 1 266,260 Z" />
  <text x="335" y="300" text-anchor="middle" font-family="Microsoft YaHei" font-size="22" font-weight="700" fill="#ff9f1c">陶器</text>
  <text x="270" y="340" font-family="Microsoft YaHei" font-size="14" fill="#666666">用黏土做锅碗</text>
  <text x="270" y="360" font-family="Microsoft YaHei" font-size="14" fill="#666666">瓢盆，烧制出</text>
  <text x="270" y="380" font-family="Microsoft YaHei" font-size="14" fill="#666666">可以煮饭的容器</text>
  <text x="290" y="430" text-anchor="middle" font-family="Segoe UI Emoji, Apple Color Emoji, Noto Color Emoji" font-size="36">🥣</text>
  <text x="335" y="500" text-anchor="middle" font-family="Microsoft YaHei" font-size="13" fill="#999999">能做饭了</text>
  <text x="335" y="520" text-anchor="middle" font-family="Microsoft YaHei" font-size="13" fill="#999999">不再吃生的！</text>
  <text x="335" y="555" text-anchor="middle" font-family="Microsoft YaHei" font-size="14" fill="#ff9f1c" font-weight="700">第二步</text>

  
  <polygon points="440,205 470,210 440,215" fill="#ff9f1c" />

  
  <circle cx="510" cy="210" r="26" fill="#ffbf69" />
  <text x="510" y="218" text-anchor="middle" font-family="Segoe UI Emoji, Apple Color Emoji, Noto Color Emoji" font-size="20">🧱</text>
  <path fill="#FFF8E1" d="M456,260 H594 A16,16 0 0 1 610,276 V564 A16,16 0 0 1 594,580 H456 A16,16 0 0 1 440,564 V276 A16,16 0 0 1 456,260 Z" />
  <text x="525" y="300" text-anchor="middle" font-family="Microsoft YaHei" font-size="22" font-weight="700" fill="#ffbf69">砖块</text>
  <text x="460" y="340" font-family="Microsoft YaHei" font-size="14" fill="#666666">找到黏土和沙</text>
  <text x="460" y="360" font-family="Microsoft YaHei" font-size="14" fill="#666666">子，烧制出结实</text>
  <text x="460" y="380" font-family="Microsoft YaHei" font-size="14" fill="#666666">的砖头</text>
  <text x="480" y="430" text-anchor="middle" font-family="Segoe UI Emoji, Apple Color Emoji, Noto Color Emoji" font-size="36">🏗️</text>
  <text x="525" y="500" text-anchor="middle" font-family="Microsoft YaHei" font-size="13" fill="#999999">能盖房子</text>
  <text x="525" y="520" text-anchor="middle" font-family="Microsoft YaHei" font-size="13" fill="#999999">不怕风雨了</text>
  <text x="525" y="555" text-anchor="middle" font-family="Microsoft YaHei" font-size="14" fill="#ffbf69" font-weight="700">第三步</text>

  
  <polygon points="630,205 660,210 630,215" fill="#ff9f1c" />

  
  <circle cx="700" cy="210" r="26" fill="#2ec4b6" />
  <text x="700" y="218" text-anchor="middle" font-family="Segoe UI Emoji, Apple Color Emoji, Noto Color Emoji" font-size="20">⚙️</text>
  <path fill="#F0FAF9" d="M646,260 H784 A16,16 0 0 1 800,276 V564 A16,16 0 0 1 784,580 H646 A16,16 0 0 1 630,564 V276 A16,16 0 0 1 646,260 Z" />
  <text x="715" y="300" text-anchor="middle" font-family="Microsoft YaHei" font-size="22" font-weight="700" fill="#2ec4b6">铁器</text>
  <text x="650" y="340" font-family="Microsoft YaHei" font-size="14" fill="#666666">找到铁矿石，用</text>
  <text x="650" y="360" font-family="Microsoft YaHei" font-size="14" fill="#666666">高温炼出了铁工</text>
  <text x="650" y="380" font-family="Microsoft YaHei" font-size="14" fill="#666666">具和武器</text>
  <text x="670" y="430" text-anchor="middle" font-family="Segoe UI Emoji, Apple Color Emoji, Noto Color Emoji" font-size="36">🔧</text>
  <text x="715" y="500" text-anchor="middle" font-family="Microsoft YaHei" font-size="13" fill="#999999">工具升级</text>
  <text x="715" y="520" text-anchor="middle" font-family="Microsoft YaHei" font-size="13" fill="#999999">效率翻倍！</text>
  <text x="715" y="555" text-anchor="middle" font-family="Microsoft YaHei" font-size="14" fill="#2ec4b6" font-weight="700">第四步</text>

  
  <polygon points="820,205 850,210 820,215" fill="#ff9f1c" />

  
  <circle cx="890" cy="210" r="26" fill="#ff9f1c" />
  <text x="890" y="218" text-anchor="middle" font-family="Segoe UI Emoji, Apple Color Emoji, Noto Color Emoji" font-size="20">📡</text>
  <path fill="#FFF3E0" d="M836,260 H974 A16,16 0 0 1 990,276 V564 A16,16 0 0 1 974,580 H836 A16,16 0 0 1 820,564 V276 A16,16 0 0 1 836,260 Z" />
  <text x="905" y="300" text-anchor="middle" font-family="Microsoft YaHei" font-size="22" font-weight="700" fill="#ff9f1c">电报</text>
  <text x="840" y="340" font-family="Microsoft YaHei" font-size="14" fill="#666666">用电池和电线</text>
  <text x="840" y="360" font-family="Microsoft YaHei" font-size="14" fill="#666666">建了简易电报机</text>
  <text x="840" y="380" font-family="Microsoft YaHei" font-size="14" fill="#666666">可以远距离通讯</text>
  <text x="860" y="430" text-anchor="middle" font-family="Segoe UI Emoji, Apple Color Emoji, Noto Color Emoji" font-size="36">⚡</text>
  <text x="905" y="500" text-anchor="middle" font-family="Microsoft YaHei" font-size="13" fill="#999999">在荒岛上</text>
  <text x="905" y="520" text-anchor="middle" font-family="Microsoft YaHei" font-size="13" fill="#999999">有了高科技！</text>
  <text x="905" y="555" text-anchor="middle" font-family="Microsoft YaHei" font-size="14" fill="#ff9f1c" font-weight="700">第五步</text>

  
  <polygon points="1010,205 1040,210 1010,215" fill="#ff9f1c" />

  
  <circle cx="1080" cy="210" r="26" fill="#2ec4b6" />
  <text x="1080" y="218" text-anchor="middle" font-family="Segoe UI Emoji, Apple Color Emoji, Noto Color Emoji" font-size="20">🚢</text>
  <path fill="#F0FAF9" d="M1026,260 H1194 A16,16 0 0 1 1210,276 V564 A16,16 0 0 1 1194,580 H1026 A16,16 0 0 1 1010,564 V276 A16,16 0 0 1 1026,260 Z" />
  <text x="1110" y="300" text-anchor="middle" font-family="Microsoft YaHei" font-size="22" font-weight="700" fill="#2ec4b6">造船</text>
  <text x="1030" y="340" font-family="Microsoft YaHei" font-size="14" fill="#666666">造了"乘风破</text>
  <text x="1030" y="360" font-family="Microsoft YaHei" font-size="14" fill="#666666">浪号"，绕岛航</text>
  <text x="1030" y="380" font-family="Microsoft YaHei" font-size="14" fill="#666666">行，探索大海</text>
  <text x="1050" y="430" text-anchor="middle" font-family="Segoe UI Emoji, Apple Color Emoji, Noto Color Emoji" font-size="36">⛵</text>
  <text x="1110" y="500" text-anchor="middle" font-family="Microsoft YaHei" font-size="13" fill="#999999">能出海了</text>
  <text x="1110" y="520" text-anchor="middle" font-family="Microsoft YaHei" font-size="13" fill="#999999">太厉害了！</text>
  <text x="1110" y="555" text-anchor="middle" font-family="Microsoft YaHei" font-size="14" fill="#2ec4b6" font-weight="700">第六步</text>

  
  <circle cx="1100" cy="90" r="8" fill="#2ec4b6" fill-opacity="0.3" />
  <circle cx="1150" cy="130" r="5" fill="#ffbf69" fill-opacity="0.5" />

  
  <path fill="#2ec4b6" d="M1186,660 H1210 A6,6 0 0 1 1216,666 V682 A6,6 0 0 1 1210,688 H1186 A6,6 0 0 1 1180,682 V666 A6,6 0 0 1 1186,660 Z" />
  <text x="1198" y="679" text-anchor="middle" font-family="Arial" font-size="13" font-weight="700" fill="#FFFFFF">5</text>
</svg>