<svg xmlns="http://www.w3.org/2000/svg" viewBox="0 0 1280 720" width="1280" height="720">
  <rect width="1280" height="720" fill="#FFFFFF" />
  <rect x="0" y="0" width="1280" height="4" fill="#2ec4b6" />

  
  <text x="80" y="80" font-family="Microsoft YaHei" font-size="40" font-weight="700" fill="#2ec4b6">岛上的神秘事件 🔍</text>
  <rect x="80" y="100" width="100" height="4" fill="#ff9f1c" />

  
  <path fill="#FFF3E0" d="M96,130 H1184 A16,16 0 0 1 1200,146 V184 A16,16 0 0 1 1184,200 H96 A16,16 0 0 1 80,184 V146 A16,16 0 0 1 96,130 Z" />
  <text x="120" y="165" font-family="Microsoft YaHei" font-size="18" fill="#333333">岛上发生了很多奇怪的事，总有一个"神秘人"在暗中帮助他们……</text>

  
  <path fill="#F0FAF9" d="M96,230 H414 A16,16 0 0 1 430,246 V414 A16,16 0 0 1 414,430 H96 A16,16 0 0 1 80,414 V246 A16,16 0 0 1 96,230 Z" />
  <path fill="#2ec4b6" d="M83,230 H83 A3,3 0 0 1 86,233 V427 A3,3 0 0 1 83,430 H83 A3,3 0 0 1 80,427 V233 A3,3 0 0 1 83,230 Z" />
  <text x="100" y="275" font-family="Segoe UI Emoji, Apple Color Emoji, Noto Color Emoji" font-size="40">🔫</text>
  <text x="120" y="320" font-family="Microsoft YaHei" font-size="17" font-weight="700" fill="#2ec4b6">事件一：托普获救</text>
  <text x="100" y="355" font-family="Microsoft YaHei" font-size="15" fill="#666666">狗"托普"掉进海里，被一</text>
  <text x="100" y="378" font-family="Microsoft YaHei" font-size="15" fill="#666666">个看不见的力量拉回了岸边</text>
  <text x="100" y="405" font-family="Microsoft YaHei" font-size="13" fill="#999999">谁救了它？</text>

  
  <path fill="#FFF3E0" d="M476,230 H794 A16,16 0 0 1 810,246 V414 A16,16 0 0 1 794,430 H476 A16,16 0 0 1 460,414 V246 A16,16 0 0 1 476,230 Z" />
  <path fill="#ff9f1c" d="M463,230 H463 A3,3 0 0 1 466,233 V427 A3,3 0 0 1 463,430 H463 A3,3 0 0 1 460,427 V233 A3,3 0 0 1 463,230 Z" />
  <text x="480" y="275" font-family="Segoe UI Emoji, Apple Color Emoji, Noto Color Emoji" font-size="40">📦</text>
  <text x="500" y="320" font-family="Microsoft YaHei" font-size="17" font-weight="700" fill="#ff9f1c">事件二：神秘箱子</text>
  <text x="480" y="355" font-family="Microsoft YaHei" font-size="15" fill="#666666">海滩上出现了一个装满工具</text>
  <text x="480" y="378" font-family="Microsoft YaHei" font-size="15" fill="#666666">和药品的箱子，正好是他们</text>
  <text x="480" y="401" font-family="Microsoft YaHei" font-size="15" fill="#666666">最需要的东西！</text>
  <text x="500" y="405" font-family="Microsoft YaHei" font-size="13" fill="#999999">谁送的？</text>

  
  <path fill="#FFF8E1" d="M856,230 H1184 A16,16 0 0 1 1200,246 V414 A16,16 0 0 1 1184,430 H856 A16,16 0 0 1 840,414 V246 A16,16 0 0 1 856,230 Z" />
  <path fill="#ffbf69" d="M843,230 H843 A3,3 0 0 1 846,233 V427 A3,3 0 0 1 843,430 H843 A3,3 0 0 1 840,427 V233 A3,3 0 0 1 843,230 Z" />
  <text x="860" y="275" font-family="Segoe UI Emoji, Apple Color Emoji, Noto Color Emoji" font-size="40">💥</text>
  <text x="880" y="320" font-family="Microsoft YaHei" font-size="17" font-weight="700" fill="#ffbf69">事件三：炸死海盗</text>
  <text x="860" y="355" font-family="Microsoft YaHei" font-size="15" fill="#666666">海盗来进攻，他们的船突然</text>
  <text x="860" y="378" font-family="Microsoft YaHei" font-size="15" fill="#666666">被炸毁了！五个海盗瞬间被</text>
  <text x="860" y="401" font-family="Microsoft YaHei" font-size="15" fill="#666666">消灭，救了大家的命</text>
  <text x="880" y="405" font-family="Microsoft YaHei" font-size="13" fill="#999999">谁干的？！</text>

  
  <path fill="#2ec4b6" d="M100,470 H1180 A20,20 0 0 1 1200,490 V610 A20,20 0 0 1 1180,630 H100 A20,20 0 0 1 80,610 V490 A20,20 0 0 1 100,470 Z" />
  <text x="640" y="520" text-anchor="middle" font-family="Microsoft YaHei" font-size="28" font-weight="700" fill="#FFFFFF">🌊 谜底揭晓：他是尼摩船长！</text>
  <text x="640" y="560" text-anchor="middle" font-family="Microsoft YaHei" font-size="18" fill="#E0F7F5">《海底两万里》的主角！他住在岛附近的潜艇"鹦鹉螺号"里</text>
  <text x="640" y="595" text-anchor="middle" font-family="Microsoft YaHei" font-size="18" fill="#E0F7F5">默默守护着这群落难者，帮了他们很多次！</text>

  
  <circle cx="1100" cy="90" r="8" fill="#ffbf69" fill-opacity="0.5" />

  
  <path fill="#2ec4b6" d="M1186,660 H1210 A6,6 0 0 1 1216,666 V682 A6,6 0 0 1 1210,688 H1186 A6,6 0 0 1 1180,682 V666 A6,6 0 0 1 1186,660 Z" />
  <text x="1198" y="679" text-anchor="middle" font-family="Arial" font-size="13" font-weight="700" fill="#FFFFFF">7</text>
</svg>