<svg xmlns="http://www.w3.org/2000/svg" viewBox="0 0 1280 720" width="1280" height="720">
  <rect width="1280" height="720" fill="#FFFFFF" />
  <rect x="0" y="0" width="1280" height="4" fill="#2ec4b6" />

  
  <text x="80" y="80" font-family="Microsoft YaHei" font-size="40" font-weight="700" fill="#ff9f1c">最惊险的时刻！😱</text>
  <rect x="80" y="100" width="100" height="4" fill="#ff9f1c" />

  
  <text x="80" y="140" font-family="Microsoft YaHei" font-size="18" fill="#666666">两个大危机，每一个都让他们差点丢掉性命！</text>

  
  <path fill="#FFF3E0" d="M100,170 H1180 A20,20 0 0 1 1200,190 V380 A20,20 0 0 1 1180,400 H100 A20,20 0 0 1 80,380 V190 A20,20 0 0 1 100,170 Z" />
  <path fill="#ff9f1c" d="M84,170 H84 A4,4 0 0 1 88,174 V396 A4,4 0 0 1 84,400 H84 A4,4 0 0 1 80,396 V174 A4,4 0 0 1 84,170 Z" />
  <text x="120" y="220" font-family="Microsoft YaHei" font-size="26" font-weight="700" fill="#ff9f1c">🏴‍☠️ 危机一：海盗进攻</text>
  <text x="120" y="260" font-family="Microsoft YaHei" font-size="18" fill="#333333">一帮凶残的海盗发现了林肯岛，想要占领它！</text>

  
  <path fill="#FFFFFF" d="M132,285 H1148 A12,12 0 0 1 1160,297 V363 A12,12 0 0 1 1148,375 H132 A12,12 0 0 1 120,363 V297 A12,12 0 0 1 132,285 Z" />
  <text x="160" y="315" font-family="Microsoft YaHei" font-size="15" fill="#666666">海盗登陆 → 烧杀抢掠 → 他们躲进花岗岩宫 → 尼摩船长用炸药炸沉海盗船</text>
  <text x="160" y="345" font-family="Microsoft YaHei" font-size="15" fill="#2ec4b6" font-weight="700">💡 虽然击退了海盗，但岛上已经伤痕累累……</text>

  
  <path fill="#F0FAF9" d="M100,430 H1180 A20,20 0 0 1 1200,450 V610 A20,20 0 0 1 1180,630 H100 A20,20 0 0 1 80,610 V450 A20,20 0 0 1 100,430 Z" />
  <path fill="#2ec4b6" d="M84,430 H84 A4,4 0 0 1 88,434 V626 A4,4 0 0 1 84,630 H84 A4,4 0 0 1 80,626 V434 A4,4 0 0 1 84,430 Z" />
  <text x="120" y="480" font-family="Microsoft YaHei" font-size="26" font-weight="700" fill="#2ec4b6">🌋 危机二：火山爆发</text>
  <text x="120" y="520" font-family="Microsoft YaHei" font-size="18" fill="#333333">林肯岛上的火山突然爆发，岩浆四处流淌，整个岛即将被毁灭！</text>

  
  <path fill="#FFF8E1" d="M132,545 H608 A12,12 0 0 1 620,557 V603 A12,12 0 0 1 608,615 H132 A12,12 0 0 1 120,603 V557 A12,12 0 0 1 132,545 Z" />
  <text x="150" y="575" font-family="Microsoft YaHei" font-size="15" fill="#666666">🔥 花岗岩宫被岩浆吞没</text>
  <text x="150" y="600" font-family="Microsoft YaHei" font-size="15" fill="#666666">🏔️ 整个岛屿开始下沉</text>

  <path fill="#FFF8E1" d="M662,545 H1138 A12,12 0 0 1 1150,557 V603 A12,12 0 0 1 1138,615 H662 A12,12 0 0 1 650,603 V557 A12,12 0 0 1 662,545 Z" />
  <text x="680" y="575" font-family="Microsoft YaHei" font-size="15" fill="#666666">🌊 他们被困在一块小岩石上</text>
  <text x="680" y="600" font-family="Microsoft YaHei" font-size="15" fill="#666666">⏰ 随时可能被海水淹没！</text>

  
  <circle cx="1100" cy="90" r="8" fill="#ff9f1c" fill-opacity="0.3" />

  
  <path fill="#ff9f1c" d="M1186,660 H1210 A6,6 0 0 1 1216,666 V682 A6,6 0 0 1 1210,688 H1186 A6,6 0 0 1 1180,682 V666 A6,6 0 0 1 1186,660 Z" />
  <text x="1198" y="679" text-anchor="middle" font-family="Arial" font-size="13" font-weight="700" fill="#FFFFFF">8</text>
</svg>