<svg xmlns="http://www.w3.org/2000/svg" viewBox="0 0 1280 720" width="1280" height="720">
  <rect width="1280" height="720" fill="#FFFFFF" />
  <rect x="0" y="0" width="1280" height="4" fill="#2ec4b6" />

  
  <text x="80" y="80" font-family="Microsoft YaHei" font-size="40" font-weight="700" fill="#2ec4b6">最后他们怎么样了？🚢</text>
  <rect x="80" y="100" width="100" height="4" fill="#ff9f1c" />

  
  <path fill="#F0FAF9" d="M100,140 H1180 A20,20 0 0 1 1200,160 V260 A20,20 0 0 1 1180,280 H100 A20,20 0 0 1 80,260 V160 A20,20 0 0 1 100,140 Z" />
  <path fill="#2ec4b6" d="M84,140 H84 A4,4 0 0 1 88,144 V276 A4,4 0 0 1 84,280 H84 A4,4 0 0 1 80,276 V144 A4,4 0 0 1 84,140 Z" />
  <text x="120" y="185" font-family="Microsoft YaHei" font-size="24" font-weight="700" fill="#2ec4b6">🆘 奇迹般的救援</text>
  <text x="120" y="220" font-family="Microsoft YaHei" font-size="18" fill="#333333">在最绝望的时候，"邓肯号"轮船赶来了！</text>
  <text x="120" y="250" font-family="Microsoft YaHei" font-size="18" fill="#333333">是尼摩船长之前发出的信号，指引他们来救援的</text>

  
  <path fill="#FFF3E0" d="M96,310 H414 A16,16 0 0 1 430,326 V574 A16,16 0 0 1 414,590 H96 A16,16 0 0 1 80,574 V326 A16,16 0 0 1 96,310 Z" />
  <path fill="#ff9f1c" d="M83,310 H83 A3,3 0 0 1 86,313 V587 A3,3 0 0 1 83,590 H83 A3,3 0 0 1 80,587 V313 A3,3 0 0 1 83,310 Z" />
  <text x="255" y="365" text-anchor="middle" font-family="Segoe UI Emoji, Apple Color Emoji, Noto Color Emoji" font-size="50">💀</text>
  <text x="120" y="420" font-family="Microsoft YaHei" font-size="20" font-weight="700" fill="#333333">尼摩船长</text>
  <text x="100" y="455" font-family="Microsoft YaHei" font-size="15" fill="#666666">在救援前去世了，</text>
  <text x="100" y="480" font-family="Microsoft YaHei" font-size="15" fill="#666666">他是一个印度王子</text>
  <text x="100" y="505" font-family="Microsoft YaHei" font-size="15" fill="#666666">叫达卡王子</text>
  <text x="120" y="555" font-family="Microsoft YaHei" font-size="13" fill="#999999">真正的无名英雄</text>

  <path fill="#F0FAF9" d="M476,310 H794 A16,16 0 0 1 810,326 V574 A16,16 0 0 1 794,590 H476 A16,16 0 0 1 460,574 V326 A16,16 0 0 1 476,310 Z" />
  <path fill="#2ec4b6" d="M463,310 H463 A3,3 0 0 1 466,313 V587 A3,3 0 0 1 463,590 H463 A3,3 0 0 1 460,587 V313 A3,3 0 0 1 463,310 Z" />
  <text x="635" y="365" text-anchor="middle" font-family="Segoe UI Emoji, Apple Color Emoji, Noto Color Emoji" font-size="50">🏡</text>
  <text x="500" y="420" font-family="Microsoft YaHei" font-size="20" font-weight="700" fill="#333333">回到美国</text>
  <text x="480" y="455" font-family="Microsoft YaHei" font-size="15" fill="#666666">他们带着尼摩船长</text>
  <text x="480" y="480" font-family="Microsoft YaHei" font-size="15" fill="#666666">留下的财宝回到了</text>
  <text x="480" y="505" font-family="Microsoft YaHei" font-size="15" fill="#666666">美国，在爱荷华州</text>
  <text x="480" y="530" font-family="Microsoft YaHei" font-size="15" fill="#666666">建立了新家园</text>
  <text x="500" y="555" font-family="Microsoft YaHei" font-size="13" fill="#999999">重新开始生活！</text>

  <path fill="#FFF8E1" d="M856,310 H1184 A16,16 0 0 1 1200,326 V574 A16,16 0 0 1 1184,590 H856 A16,16 0 0 1 840,574 V326 A16,16 0 0 1 856,310 Z" />
  <path fill="#ffbf69" d="M843,310 H843 A3,3 0 0 1 846,313 V587 A3,3 0 0 1 843,590 H843 A3,3 0 0 1 840,587 V313 A3,3 0 0 1 843,310 Z" />
  <text x="1020" y="365" text-anchor="middle" font-family="Segoe UI Emoji, Apple Color Emoji, Noto Color Emoji" font-size="50">🌍</text>
  <text x="880" y="420" font-family="Microsoft YaHei" font-size="20" font-weight="700" fill="#333333">永远的林肯岛</text>
  <text x="860" y="455" font-family="Microsoft YaHei" font-size="15" fill="#666666">虽然离开了荒岛，</text>
  <text x="860" y="480" font-family="Microsoft YaHei" font-size="15" fill="#666666">但他们永远记得在</text>
  <text x="860" y="505" font-family="Microsoft YaHei" font-size="15" fill="#666666">岛上奋斗的日子</text>
  <text x="880" y="555" font-family="Microsoft YaHei" font-size="13" fill="#999999">那是他们最骄傲的时光</text>

  
  <path fill="#FFFFFF" stroke="#2ec4b6" stroke-width="1" d="M96,620 H1184 A16,16 0 0 1 1200,636 V654 A16,16 0 0 1 1184,670 H96 A16,16 0 0 1 80,654 V636 A16,16 0 0 1 96,620 Z" />
  <text x="640" y="650" text-anchor="middle" font-family="Microsoft YaHei" font-size="17" fill="#2ec4b6" font-weight="700">📖 凡尔纳还写了《格兰特船长的儿女》和《海底两万里》，三部曲可以连着读！</text>

  
  <circle cx="1100" cy="90" r="8" fill="#2ec4b6" fill-opacity="0.3" />

  
  <path fill="#2ec4b6" d="M1186,660 H1210 A6,6 0 0 1 1216,666 V682 A6,6 0 0 1 1210,688 H1186 A6,6 0 0 1 1180,682 V666 A6,6 0 0 1 1186,660 Z" />
  <text x="1198" y="679" text-anchor="middle" font-family="Arial" font-size="13" font-weight="700" fill="#FFFFFF">9</text>
</svg>