<svg xmlns="http://www.w3.org/2000/svg" viewBox="0 0 1280 720" width="1280" height="720">
  <rect width="1280" height="720" fill="#FFFFFF" />
  <rect x="0" y="0" width="1280" height="4" fill="#2ec4b6" />

  
  <circle cx="200" cy="360" r="120" fill="#F0FAF9" fill-opacity="0.8" />
  <circle cx="1080" cy="360" r="80" fill="#FFF3E0" fill-opacity="0.8" />
  <circle cx="640" cy="200" r="60" fill="#FFF8E1" fill-opacity="0.5" />

  
  <text x="640" y="260" text-anchor="middle" font-family="Segoe UI Emoji, Apple Color Emoji, Noto Color Emoji" font-size="80">📚</text>

  
  <text x="640" y="360" text-anchor="middle" font-family="Microsoft YaHei" font-size="52" font-weight="700" fill="#2ec4b6">谢谢大家！</text>

  
  <path fill="#F0FAF9" d="M370,400 H910 A30,30 0 0 1 940,430 V430 A30,30 0 0 1 910,460 H370 A30,30 0 0 1 340,430 V430 A30,30 0 0 1 370,400 Z" />
  <text x="640" y="438" text-anchor="middle" font-family="Microsoft YaHei" font-size="22" fill="#333333">希望大家也能读一读《神秘岛》</text>

  
  <path fill="#FFF3E0" d="M370,490 H910 A30,30 0 0 1 940,520 V520 A30,30 0 0 1 910,550 H370 A30,30 0 0 1 340,520 V520 A30,30 0 0 1 370,490 Z" />
  <text x="640" y="528" text-anchor="middle" font-family="Microsoft YaHei" font-size="20" fill="#ff9f1c" font-weight="700">🏝️ 一起去冒险吧！</text>

  
  <path fill="#FFFFFF" stroke="#ffbf69" stroke-width="2" d="M470,580 H810 A30,30 0 0 1 840,610 V610 A30,30 0 0 1 810,640 H470 A30,30 0 0 1 440,610 V610 A30,30 0 0 1 470,580 Z" />
  <text x="640" y="615" text-anchor="middle" font-family="Microsoft YaHei" font-size="18" fill="#666666">六年级 12 班  梁峻睿</text>

  
  <circle cx="150" cy="120" r="6" fill="#ff9f1c" fill-opacity="0.4" />
  <circle cx="1120" cy="150" r="6" fill="#2ec4b6" fill-opacity="0.4" />
  <circle cx="100" cy="600" r="5" fill="#ffbf69" fill-opacity="0.4" />

  
  <path fill="#2ec4b6" d="M1186,660 H1210 A6,6 0 0 1 1216,666 V682 A6,6 0 0 1 1210,688 H1186 A6,6 0 0 1 1180,682 V666 A6,6 0 0 1 1186,660 Z" />
  <text x="1198" y="679" text-anchor="middle" font-family="Arial" font-size="13" font-weight="700" fill="#FFFFFF">11</text>
</svg>