<svg xmlns="http://www.w3.org/2000/svg" width="1600" height="930" viewBox="0 0 1600 930" role="img" aria-labelledby="diagram-title diagram-subtitle">
  <title id="diagram-title">供应商准入分流流程</title>
  <desc id="diagram-subtitle">三种路径，统一入口，归口服务组</desc>
  <defs>
    <pattern id="paper-dots" width="28" height="28" patternUnits="userSpaceOnUse">
      <circle cx="2" cy="2" r="1" fill="var(--grid)" opacity="0.45" />
      <circle cx="16" cy="12" r="0.8" fill="var(--grid)" opacity="0.28" />
      <circle cx="10" cy="22" r="0.9" fill="var(--grid)" opacity="0.22" />
    </pattern>
    <marker id="pipe-arrow" viewBox="0 0 12 12" refX="10" refY="6" markerWidth="8" markerHeight="8" orient="auto">
      <path d="M 2 2 L 10 6 L 2 10" fill="none" stroke="context-stroke" stroke-width="1.6" stroke-linecap="round" stroke-linejoin="round" />
    </marker>
  </defs>
  <style>
    :root {
      --bg-paper: #fcfbf7;
      --ink: #2D2926;
      --muted: #7A6F66;
      --grid: #E8E1D7;
      --sand: #FFF0CF;
      --mint: #DFF7E8;
      --sky: #DCEBFF;
      --coral: #FFE0D7;
      --amber: #FFE8B5;
      --graphite: #EAE6E1;
      --flow-mint: #24B36B;
      --flow-sky: #2F7CF6;
      --flow-coral: #F36B3C;
      --flow-amber: #D79210;
      --font-hand: Virgil, "Segoe Print", "Bradley Hand", "Comic Sans MS", cursive;
      --font-sans: "Avenir Next", "Segoe UI", sans-serif;
    }

    .canvas-bg {
      fill: var(--bg-paper);
    }

    .canvas-grain {
      fill: url(#paper-dots);
    }

    .title {
      fill: var(--ink);
      font-family: var(--font-hand);
      font-size: 30px;
      font-weight: 600;
      letter-spacing: 0.2px;
    }

    .subtitle {
      fill: var(--muted);
      font-family: var(--font-sans);
      font-size: 14px;
      font-weight: 600;
      letter-spacing: 0.08em;
      text-transform: uppercase;
    }

    .group-frame {
      fill: none;
      stroke: var(--grid);
      stroke-width: 2;
      stroke-dasharray: 10 12;
    }

    .group-title {
      fill: var(--muted);
      font-family: var(--font-sans);
      font-size: 13px;
      font-weight: 700;
      letter-spacing: 0.06em;
      text-transform: uppercase;
    }

    .node-fill {
      stroke: none;
    }

    .node-stroke {
      fill: none;
      stroke: var(--ink);
      stroke-width: 2.2;
      stroke-linecap: round;
      stroke-linejoin: round;
    }

    .node-stroke.ghost {
      opacity: 0.38;
    }

    .node-label {
      fill: var(--ink);
      font-family: var(--font-hand);
      font-size: 18px;
      font-weight: 600;
      text-anchor: middle;
    }

    .node-caption {
      fill: var(--muted);
      font-family: var(--font-sans);
      font-size: 12.5px;
      font-weight: 700;
      letter-spacing: 0.06em;
      text-anchor: middle;
      text-transform: uppercase;
    }

    .pipe-flow {
      fill: none;
      stroke-linecap: round;
      stroke-linejoin: round;
      marker-end: url(#pipe-arrow);
      animation: flow linear infinite;
    }

    .edge-label-bg {
      fill: rgba(252, 251, 247, 0.96);
      stroke: rgba(45, 41, 38, 0.12);
      stroke-width: 1;
    }

    .edge-label {
      fill: var(--ink);
      font-family: var(--font-hand);
      font-size: 13.5px;
      font-weight: 600;
      text-anchor: middle;
    }

    @keyframes flow {
      from {
        stroke-dashoffset: 0;
      }
      to {
        stroke-dashoffset: -44;
      }
    }
  </style>
  <rect class="canvas-bg" x="0" y="0" width="1600" height="930" />
  <rect class="canvas-grain" x="0" y="0" width="1600" height="930" />
  <g class="header">
<text class="title" x="72" y="82">供应商准入分流流程</text>
<text class="subtitle" x="72" y="112">三种路径，统一入口，归口服务组</text>
</g>
  <g class="group" id="group-g-entry">
<path class="group-frame" d="M 88 426 H 392 A 28 28 0 0 1 420 454 V 598 A 28 28 0 0 1 392 626 H 88 A 28 28 0 0 1 60 598 V 454 A 28 28 0 0 1 88 426 Z" />
<text class="group-title" x="82" y="460">入口</text>
</g>
<g class="group" id="group-g-standard">
<path class="group-frame" d="M 548 146 H 972 A 28 28 0 0 1 1000 174 V 318 A 28 28 0 0 1 972 346 H 548 A 28 28 0 0 1 520 318 V 174 A 28 28 0 0 1 548 146 Z" />
<text class="group-title" x="542" y="180">标准通道</text>
</g>
<g class="group" id="group-g-fast">
<path class="group-frame" d="M 548 406 H 1172 A 28 28 0 0 1 1200 434 V 578 A 28 28 0 0 1 1172 606 H 548 A 28 28 0 0 1 520 578 V 434 A 28 28 0 0 1 548 406 Z" />
<text class="group-title" x="542" y="440">快速通道</text>
</g>
<g class="group" id="group-g-expand">
<path class="group-frame" d="M 548 706 H 972 A 28 28 0 0 1 1000 734 V 878 A 28 28 0 0 1 972 906 H 548 A 28 28 0 0 1 520 878 V 734 A 28 28 0 0 1 548 706 Z" />
<text class="group-title" x="542" y="740">扩产线</text>
</g>
<g class="group" id="group-g-exit">
<path class="group-frame" d="M 1128 266 H 1512 A 28 28 0 0 1 1540 294 V 838 A 28 28 0 0 1 1512 866 H 1128 A 28 28 0 0 1 1100 838 V 294 A 28 28 0 0 1 1128 266 Z" />
<text class="group-title" x="1122" y="300">终审/清退</text>
</g>
  <g class="edges">
    <g class="edge edge-0">
<path class="pipe-flow" style="stroke: var(--ink); stroke-width: 2.46; stroke-dasharray: 6 7; animation-duration: 2s;" d="M 340 540 C 394 540, 394 540, 340 540" />
<rect class="edge-label-bg" x="405.46" y="492" width="92" height="36" rx="16" />
<text class="edge-label" style="font-size: 13.5px;" x="451.46" y="512.8">
<tspan x="451.46" dy="0">提单</tspan>
</text>
</g>
<g class="edge edge-1">
<path class="pipe-flow" style="stroke: var(--ink); stroke-width: 2.46; stroke-dasharray: 6 7; animation-duration: 2s;" d="M 340 540 C 520 540, 1040 741, 1040 561" />
<rect class="edge-label-bg" x="627.94" y="628.3" width="92" height="36" rx="16" />
<text class="edge-label" style="font-size: 13.5px;" x="673.94" y="649.1">
<tspan x="673.94" dy="0">初审通过</tspan>
</text>
</g>
<g class="edge edge-2">
<path class="pipe-flow" style="stroke: var(--flow-sky); stroke-width: 2.46; stroke-dasharray: 6 7; animation-duration: 2.2s;" d="M 1040 473 C 1040 341.98, 893.02 252, 762 252" />
<rect class="edge-label-bg" x="868.7" y="343.79" width="92" height="36" rx="16" />
<text class="edge-label" style="font-size: 13.5px;" x="914.7" y="364.59">
<tspan x="914.7" dy="0">新供应商</tspan>
</text>
</g>
<g class="edge edge-3">
<path class="pipe-flow" style="stroke: var(--flow-amber); stroke-width: 2.46; stroke-dasharray: 6 7; animation-duration: 2.2s;" d="M 1040 473 C 1040 366.76, 868.24 517, 762 517" />
<rect class="edge-label-bg" x="1001.58" y="315.75" width="124.51" height="36" rx="16" />
<text class="edge-label" style="font-size: 13.5px;" x="1063.83" y="336.55">
<tspan x="1063.83" dy="0">紧急+总监签字</tspan>
</text>
</g>
<g class="edge edge-4">
<path class="pipe-flow" style="stroke: var(--flow-mint); stroke-width: 2.46; stroke-dasharray: 6 7; animation-duration: 2.2s;" d="M 1040 561 C 1040 727.18, 662 609.82, 662 776" />
<rect class="edge-label-bg" x="805" y="650.5" width="92" height="36" rx="16" />
<text class="edge-label" style="font-size: 13.5px;" x="851" y="671.3">
<tspan x="851" dy="0">现有扩线</tspan>
</text>
</g>
<g class="edge edge-5">
<path class="pipe-flow" style="stroke: var(--flow-sky); stroke-width: 2.46; stroke-dasharray: 6 7; animation-duration: 2s;" d="M 762 252 C 942 252, 1310 306, 1310 486" />
<rect class="edge-label-bg" x="1070.7" y="241.53" width="92" height="36" rx="16" />
<text class="edge-label" style="font-size: 13.5px;" x="1116.7" y="262.33">
<tspan x="1116.7" dy="0">提交终审</tspan>
</text>
</g>
<g class="edge edge-6">
<path class="pipe-flow" style="stroke: var(--flow-mint); stroke-width: 2.46; stroke-dasharray: 6 7; animation-duration: 2s;" d="M 662 776 C 662 596, 1310 754, 1310 574" />
<rect class="edge-label-bg" x="1067.4" y="621.03" width="92" height="36" rx="16" />
<text class="edge-label" style="font-size: 13.5px;" x="1113.4" y="641.83">
<tspan x="1113.4" dy="0">提交终审</tspan>
</text>
</g>
<g class="edge edge-7">
<path class="pipe-flow" style="stroke: var(--flow-amber); stroke-width: 2.46; stroke-dasharray: 6 7; animation-duration: 2s;" d="M 762 517 C 826.08 517, 875.92 517, 940 517" />
<rect class="edge-label-bg" x="743.54" y="387" width="92" height="36" rx="16" />
<text class="edge-label" style="font-size: 13.5px;" x="789.54" y="407.8">
<tspan x="789.54" dy="0">先上线</tspan>
</text>
</g>
<g class="edge edge-8">
<path class="pipe-flow" style="stroke: var(--flow-amber); stroke-width: 2.46; stroke-dasharray: 6 7; animation-duration: 2s;" d="M 1040 561 C 1040 626.78, 1023.78 820, 958 820" />
<rect class="edge-label-bg" x="1036.3" y="709.9" width="92" height="36" rx="16" />
<text class="edge-label" style="font-size: 13.5px;" x="1082.3" y="730.7">
<tspan x="1082.3" dy="0">3个月内</tspan>
</text>
</g>
<g class="edge edge-9">
<path class="pipe-flow" style="stroke: var(--flow-mint); stroke-width: 2.46; stroke-dasharray: 6 7; animation-duration: 2.4s;" d="M 858 776 C 858 596, 1310 754, 1310 574" />
<rect class="edge-label-bg" x="929.08" y="635.34" width="92" height="36" rx="16" />
<text class="edge-label" style="font-size: 13.5px;" x="975.08" y="656.14">
<tspan x="975.08" dy="0">补审通过</tspan>
</text>
</g>
<g class="edge edge-10">
<path class="pipe-flow" style="stroke: var(--flow-coral); stroke-width: 2.46; stroke-dasharray: 6 7; animation-duration: 2.2s;" d="M 958 820 C 1058.52 820, 1109.48 750, 1210 750" />
<rect class="edge-label-bg" x="1037.71" y="815.5" width="92" height="36" rx="16" />
<text class="edge-label" style="font-size: 13.5px;" x="1083.71" y="836.3">
<tspan x="1083.71" dy="0">未完成</tspan>
</text>
</g>
  </g>
  <g class="nodes">
    <g class="node" id="node-N1">
<path class="node-fill" style="fill: var(--graphite);" d="M 160.49 496.43 H 320.49 A 20 20 0 0 1 340.49 516.43 V 564.43 A 20 20 0 0 1 320.49 584.43 H 160.49 A 20 20 0 0 1 140.49 564.43 V 516.43 A 20 20 0 0 1 160.49 496.43 Z" />
<path class="node-stroke" d="M 160.49 496.43 H 320.49 A 20 20 0 0 1 340.49 516.43 V 564.43 A 20 20 0 0 1 320.49 584.43 H 160.49 A 20 20 0 0 1 140.49 564.43 V 516.43 A 20 20 0 0 1 160.49 496.43 Z" />
<path class="node-stroke ghost" d="M 160.5 496.44 H 320.5 A 20 20 0 0 1 340.5 516.44 V 564.44 A 20 20 0 0 1 320.5 584.44 H 160.5 A 20 20 0 0 1 140.5 564.44 V 516.44 A 20 20 0 0 1 160.5 496.44 Z" />
<text class="node-label" style="font-size: 18px;" x="240" y="531.16">
<tspan x="240" dy="0">业务提需求</tspan>
</text>
<text class="node-caption" style="font-size: 12.24px;" x="240" y="569.7">入口</text>
</g>
<g class="node" id="node-N2">
<path class="node-fill" style="fill: var(--graphite);" d="M 160.49 496.43 H 320.49 A 20 20 0 0 1 340.49 516.43 V 564.43 A 20 20 0 0 1 320.49 584.43 H 160.49 A 20 20 0 0 1 140.49 564.43 V 516.43 A 20 20 0 0 1 160.49 496.43 Z" />
<path class="node-stroke" d="M 160.49 496.43 H 320.49 A 20 20 0 0 1 340.49 516.43 V 564.43 A 20 20 0 0 1 320.49 584.43 H 160.49 A 20 20 0 0 1 140.49 564.43 V 516.43 A 20 20 0 0 1 160.49 496.43 Z" />
<path class="node-stroke ghost" d="M 160.5 496.44 H 320.5 A 20 20 0 0 1 340.5 516.44 V 564.44 A 20 20 0 0 1 320.5 584.44 H 160.5 A 20 20 0 0 1 140.5 564.44 V 516.44 A 20 20 0 0 1 160.5 496.44 Z" />
<text class="node-label" style="font-size: 18px;" x="240" y="531.16">
<tspan x="240" dy="0">服务组初审</tspan>
</text>
<text class="node-caption" style="font-size: 12.24px;" x="240" y="569.7">归口</text>
</g>
<g class="node" id="node-N3">
<path class="node-fill" style="fill: var(--sand);" d="M 1040.49 473.44 L 1130.49 517.44 L 1040.49 561.44 L 950.49 517.44 Z" />
<path class="node-stroke" d="M 1040.49 473.44 L 1130.49 517.44 L 1040.49 561.44 L 950.49 517.44 Z" />
<path class="node-stroke ghost" d="M 1040.5 473.45 L 1130.5 517.45 L 1040.5 561.45 L 950.5 517.45 Z" />
<text class="node-label" style="font-size: 18px;" x="1040" y="508.16">
<tspan x="1040" dy="0">路径判定</tspan>
</text>
<text class="node-caption" style="font-size: 12.24px;" x="1040" y="546.7">分流</text>
</g>
<g class="node" id="node-N4">
<path class="node-fill" style="fill: var(--sky);" d="M 582.5 208.44 H 742.5 A 20 20 0 0 1 762.5 228.44 V 276.44 A 20 20 0 0 1 742.5 296.44 H 582.5 A 20 20 0 0 1 562.5 276.44 V 228.44 A 20 20 0 0 1 582.5 208.44 Z" />
<path class="node-stroke" d="M 582.5 208.44 H 742.5 A 20 20 0 0 1 762.5 228.44 V 276.44 A 20 20 0 0 1 742.5 296.44 H 582.5 A 20 20 0 0 1 562.5 276.44 V 228.44 A 20 20 0 0 1 582.5 208.44 Z" />
<path class="node-stroke ghost" d="M 582.51 208.45 H 742.51 A 20 20 0 0 1 762.51 228.45 V 276.45 A 20 20 0 0 1 742.51 296.45 H 582.51 A 20 20 0 0 1 562.51 276.45 V 228.45 A 20 20 0 0 1 582.51 208.45 Z" />
<text class="node-label" style="font-size: 18px;" x="662" y="243.16">
<tspan x="662" dy="0">标准通道</tspan>
</text>
<text class="node-caption" style="font-size: 12.24px;" x="662" y="281.7">全量审查</text>
</g>
<g class="node" id="node-N5">
<path class="node-fill" style="fill: var(--amber);" d="M 606.5 473.44 H 718.5 A 44 44 0 0 1 762.5 517.44 V 517.44 A 44 44 0 0 1 718.5 561.44 H 606.5 A 44 44 0 0 1 562.5 517.44 V 517.44 A 44 44 0 0 1 606.5 473.44 Z" />
<path class="node-stroke" d="M 606.5 473.44 H 718.5 A 44 44 0 0 1 762.5 517.44 V 517.44 A 44 44 0 0 1 718.5 561.44 H 606.5 A 44 44 0 0 1 562.5 517.44 V 517.44 A 44 44 0 0 1 606.5 473.44 Z" />
<path class="node-stroke ghost" d="M 606.51 473.45 H 718.51 A 44 44 0 0 1 762.51 517.45 V 517.45 A 44 44 0 0 1 718.51 561.45 H 606.51 A 44 44 0 0 1 562.51 517.45 V 517.45 A 44 44 0 0 1 606.51 473.45 Z" />
<text class="node-label" style="font-size: 18px;" x="662" y="508.16">
<tspan x="662" dy="0">快速通道</tspan>
</text>
<text class="node-caption" style="font-size: 12.24px;" x="662" y="546.7">总监担保</text>
</g>
<g class="node" id="node-N6">
<path class="node-fill" style="fill: var(--mint);" d="M 582.5 776.45 H 742.5 A 20 20 0 0 1 762.5 796.45 V 844.45 A 20 20 0 0 1 742.5 864.45 H 582.5 A 20 20 0 0 1 562.5 844.45 V 796.45 A 20 20 0 0 1 582.5 776.45 Z" />
<path class="node-stroke" d="M 582.5 776.45 H 742.5 A 20 20 0 0 1 762.5 796.45 V 844.45 A 20 20 0 0 1 742.5 864.45 H 582.5 A 20 20 0 0 1 562.5 844.45 V 796.45 A 20 20 0 0 1 582.5 776.45 Z" />
<path class="node-stroke ghost" d="M 582.51 776.45 H 742.51 A 20 20 0 0 1 762.51 796.45 V 844.45 A 20 20 0 0 1 742.51 864.45 H 582.51 A 20 20 0 0 1 562.51 844.45 V 796.45 A 20 20 0 0 1 582.51 776.45 Z" />
<text class="node-label" style="font-size: 18px;" x="662" y="811.16">
<tspan x="662" dy="0">扩产线</tspan>
</text>
<text class="node-caption" style="font-size: 12.24px;" x="662" y="849.7">增量审查</text>
</g>
<g class="node" id="node-N7">
<path class="node-fill" style="fill: var(--sand);" d="M 1230.51 486.45 H 1390.51 A 20 20 0 0 1 1410.51 506.45 V 554.45 A 20 20 0 0 1 1390.51 574.45 H 1230.51 A 20 20 0 0 1 1210.51 554.45 V 506.45 A 20 20 0 0 1 1230.51 486.45 Z" />
<path class="node-stroke" d="M 1230.51 486.45 H 1390.51 A 20 20 0 0 1 1410.51 506.45 V 554.45 A 20 20 0 0 1 1390.51 574.45 H 1230.51 A 20 20 0 0 1 1210.51 554.45 V 506.45 A 20 20 0 0 1 1230.51 486.45 Z" />
<path class="node-stroke ghost" d="M 1230.52 486.46 H 1390.52 A 20 20 0 0 1 1410.52 506.46 V 554.46 A 20 20 0 0 1 1390.52 574.46 H 1230.52 A 20 20 0 0 1 1210.52 554.46 V 506.46 A 20 20 0 0 1 1230.52 486.46 Z" />
<text class="node-label" style="font-size: 18px;" x="1310" y="521.16">
<tspan x="1310" dy="0">合规终审</tspan>
</text>
<text class="node-caption" style="font-size: 12.24px;" x="1310" y="559.7">通过</text>
</g>
<g class="node" id="node-N8">
<path class="node-fill" style="fill: var(--amber);" d="M 960.51 473.45 H 1120.51 A 20 20 0 0 1 1140.51 493.45 V 541.45 A 20 20 0 0 1 1120.51 561.45 H 960.51 A 20 20 0 0 1 940.51 541.45 V 493.45 A 20 20 0 0 1 960.51 473.45 Z" />
<path class="node-stroke" d="M 960.51 473.45 H 1120.51 A 20 20 0 0 1 1140.51 493.45 V 541.45 A 20 20 0 0 1 1120.51 561.45 H 960.51 A 20 20 0 0 1 940.51 541.45 V 493.45 A 20 20 0 0 1 960.51 473.45 Z" />
<path class="node-stroke ghost" d="M 960.52 473.46 H 1120.52 A 20 20 0 0 1 1140.52 493.46 V 541.46 A 20 20 0 0 1 1120.52 561.46 H 960.52 A 20 20 0 0 1 940.52 541.46 V 493.46 A 20 20 0 0 1 960.52 473.46 Z" />
<text class="node-label" style="font-size: 18px;" x="1040" y="508.16">
<tspan x="1040" dy="0">上线+标记</tspan>
</text>
<text class="node-caption" style="font-size: 12.24px;" x="1040" y="546.7">快速上线</text>
</g>
<g class="node" id="node-N9">
<path class="node-fill" style="fill: var(--amber);" d="M 778.51 776.45 H 938.51 A 20 20 0 0 1 958.51 796.45 V 844.45 A 20 20 0 0 1 938.51 864.45 H 778.51 A 20 20 0 0 1 758.51 844.45 V 796.45 A 20 20 0 0 1 778.51 776.45 Z" />
<path class="node-stroke" d="M 778.51 776.45 H 938.51 A 20 20 0 0 1 958.51 796.45 V 844.45 A 20 20 0 0 1 938.51 864.45 H 778.51 A 20 20 0 0 1 758.51 844.45 V 796.45 A 20 20 0 0 1 778.51 776.45 Z" />
<path class="node-stroke ghost" d="M 778.52 776.46 H 938.52 A 20 20 0 0 1 958.52 796.46 V 844.46 A 20 20 0 0 1 938.52 864.46 H 778.52 A 20 20 0 0 1 758.52 844.46 V 796.46 A 20 20 0 0 1 778.52 776.46 Z" />
<text class="node-label" style="font-size: 18px;" x="858" y="811.16">
<tspan x="858" dy="0">3月补审</tspan>
</text>
<text class="node-caption" style="font-size: 12.24px;" x="858" y="849.7">限期完成</text>
</g>
<g class="node" id="node-N10">
<path class="node-fill" style="fill: var(--coral);" d="M 1255.13 707 H 1367.13 A 44 44 0 0 1 1411.13 751 V 751 A 44 44 0 0 1 1367.13 795 H 1255.13 A 44 44 0 0 1 1211.13 751 V 751 A 44 44 0 0 1 1255.13 707 Z" />
<path class="node-stroke" d="M 1255.13 707 H 1367.13 A 44 44 0 0 1 1411.13 751 V 751 A 44 44 0 0 1 1367.13 795 H 1255.13 A 44 44 0 0 1 1211.13 751 V 751 A 44 44 0 0 1 1255.13 707 Z" />
<path class="node-stroke ghost" d="M 1255.14 707.01 H 1367.14 A 44 44 0 0 1 1411.14 751.01 V 751.01 A 44 44 0 0 1 1367.14 795.01 H 1255.14 A 44 44 0 0 1 1211.14 751.01 V 751.01 A 44 44 0 0 1 1255.14 707.01 Z" />
<text class="node-label" style="font-size: 18px;" x="1310" y="741.16">
<tspan x="1310" dy="0">自动清退</tspan>
</text>
<text class="node-caption" style="font-size: 12.24px;" x="1310" y="779.7">惩罚</text>
</g>
  </g>
</svg>
