<svg xmlns="http://www.w3.org/2000/svg" viewBox="0 0 1280 720">
    <defs>
        <linearGradient id="headerGrad" x1="0%" y1="0%" x2="100%" y2="0%">
            <stop offset="0%" style="stop-color:#005587"/>
            <stop offset="100%" style="stop-color:#0076A8"/>
        </linearGradient>
    </defs>

    <rect width="1280" height="720" fill="#FFFFFF"/>
    <rect x="0" y="0" width="1280" height="6" fill="url(#headerGrad)"/>

    <text x="60" y="75" font-family="Arial, sans-serif" font-size="14" font-weight="bold" fill="#005587" letter-spacing="3">CONTENTS</text>
    <text x="60" y="115" font-family="Arial, sans-serif" font-size="40" font-weight="bold" fill="#2C3E50">Agenda</text>
    <line x1="60" y1="135" x2="160" y2="135" stroke="#005587" stroke-width="4"/>
    <line x1="165" y1="135" x2="220" y2="135" stroke="#F5A623" stroke-width="4"/>

    <!-- 01 -->
    <rect x="60" y="170" width="560" height="110" fill="#FFFFFF" stroke="#E5E7EB" stroke-width="1.5" rx="6"/>
    <rect x="60" y="170" width="6" height="110" fill="#005587" rx="3"/>
    <rect x="80" y="190" width="60" height="60" fill="#005587" fill-opacity="0.08" rx="4"/>
    <text x="110" y="232" text-anchor="middle" font-family="Arial, sans-serif" font-size="28" font-weight="bold" fill="#005587">01</text>
    <text x="165" y="218" font-family="Arial, sans-serif" font-size="20" font-weight="bold" fill="#2C3E50">核心方法论</text>
    <text x="165" y="248" font-family="Arial, sans-serif" font-size="14" fill="#5D6D7E">电销管理六大核心模块体系</text>

    <!-- 02 -->
    <rect x="660" y="170" width="560" height="110" fill="#FFFFFF" stroke="#E5E7EB" stroke-width="1.5" rx="6"/>
    <rect x="660" y="170" width="6" height="110" fill="#0076A8" rx="3"/>
    <rect x="680" y="190" width="60" height="60" fill="#0076A8" fill-opacity="0.08" rx="4"/>
    <text x="710" y="232" text-anchor="middle" font-family="Arial, sans-serif" font-size="28" font-weight="bold" fill="#0076A8">02</text>
    <text x="765" y="218" font-family="Arial, sans-serif" font-size="20" font-weight="bold" fill="#2C3E50">认证结果</text>
    <text x="765" y="248" font-family="Arial, sans-serif" font-size="14" fill="#5D6D7E">供应商认证评分与核心收获</text>

    <!-- 03 -->
    <rect x="60" y="300" width="560" height="110" fill="#FFFFFF" stroke="#E5E7EB" stroke-width="1.5" rx="6"/>
    <rect x="60" y="300" width="6" height="110" fill="#004D5C" rx="3"/>
    <rect x="80" y="320" width="60" height="60" fill="#004D5C" fill-opacity="0.08" rx="4"/>
    <text x="110" y="362" text-anchor="middle" font-family="Arial, sans-serif" font-size="28" font-weight="bold" fill="#004D5C">03</text>
    <text x="165" y="348" font-family="Arial, sans-serif" font-size="20" font-weight="bold" fill="#2C3E50">落地方案</text>
    <text x="165" y="378" font-family="Arial, sans-serif" font-size="14" fill="#5D6D7E">三阶段推进计划与关键指标</text>

    <!-- 04 -->
    <rect x="660" y="300" width="560" height="110" fill="#FFFFFF" stroke="#E5E7EB" stroke-width="1.5" rx="6"/>
    <rect x="660" y="300" width="6" height="110" fill="#F5A623" rx="3"/>
    <rect x="680" y="320" width="60" height="60" fill="#F5A623" fill-opacity="0.08" rx="4"/>
    <text x="710" y="362" text-anchor="middle" font-family="Arial, sans-serif" font-size="28" font-weight="bold" fill="#F5A623">04</text>
    <text x="765" y="348" font-family="Arial, sans-serif" font-size="20" font-weight="bold" fill="#2C3E50">总结展望</text>
    <text x="765" y="378" font-family="Arial, sans-serif" font-size="14" fill="#5D6D7E">联盟持续开放共享推进</text>

    <!-- Key Focus -->
    <rect x="60" y="460" width="1160" height="60" fill="#F8F9FA" rx="6"/>
    <rect x="60" y="460" width="5" height="60" fill="#F5A623" rx="2"/>
    <text x="100" y="498" font-family="Arial, sans-serif" font-size="14" font-weight="bold" fill="#E89207">KEY FOCUS</text>
    <text x="230" y="498" font-family="Arial, sans-serif" font-size="14" fill="#5D6D7E">本次总结会聚焦：标准化运营方法论提炼 + 各供应商差异化落地方案 + 三个月推进计划</text>

    <!-- Footer -->
    <line x1="60" y1="665" x2="1220" y2="665" stroke="#ECF0F1" stroke-width="1"/>
    <text x="60" y="695" font-family="Arial, sans-serif" font-size="14" fill="#7F8C8D">02</text>
    <text x="1160" y="695" text-anchor="end" font-family="Arial, sans-serif" font-size="12" font-weight="bold" fill="#005587" letter-spacing="1">CONFIDENTIAL</text>
</svg>
