<svg xmlns="http://www.w3.org/2000/svg" viewBox="0 0 1280 720">
    <defs>
        <linearGradient id="headerGrad" x1="0%" y1="0%" x2="100%" y2="0%">
            <stop offset="0%" style="stop-color:#005587"/>
            <stop offset="100%" style="stop-color:#0076A8"/>
        </linearGradient>
    </defs>

    <rect width="1280" height="720" fill="#FFFFFF"/>
    <rect x="0" y="0" width="1280" height="5" fill="url(#headerGrad)"/>
    <rect x="0" y="5" width="1280" height="75" fill="#FAFBFC"/>
    <line x1="0" y1="80" x2="1280" y2="80" stroke="#E5E7EB" stroke-width="1"/>
    <rect x="60" y="22" width="50" height="40" fill="#005587" rx="4"/>
    <text x="85" y="50" text-anchor="middle" font-family="Arial, sans-serif" font-size="18" font-weight="bold" fill="#FFFFFF">03</text>
    <text x="130" y="52" font-family="Arial, sans-serif" font-size="28" font-weight="bold" fill="#2C3E50">关键共识：规模交付与质量平衡</text>
    <text x="1160" y="52" text-anchor="end" font-family="Arial, sans-serif" font-size="14" fill="#7F8C8D">落地方案</text>

    <rect x="60" y="100" width="1160" height="50" fill="#FFF8E1" stroke="#F5A623" stroke-width="1" rx="4"/>
    <rect x="60" y="100" width="5" height="50" fill="#F5A623" rx="2"/>
    <text x="85" y="132" font-family="Arial, sans-serif" font-size="14" font-weight="bold" fill="#E89207">KEY INSIGHT</text>
    <text x="220" y="132" font-family="Arial, sans-serif" font-size="15" fill="#5D6D7E">规模与质量是跷跷板关系，当前阶段优先上规模，入场后逐步培育到合格标准</text>

    <!-- Left: Core Principles -->
    <g transform="translate(60, 170)">
        <rect width="560" height="450" fill="#FFFFFF" stroke="#E5E7EB" stroke-width="1.5" rx="6"/>
        <rect x="0" y="0" width="4" height="450" fill="#005587" rx="2"/>
        <text x="25" y="35" font-family="Arial, sans-serif" font-size="20" font-weight="bold" fill="#005587">管理SOP三维框架</text>

        <!-- Dimension 1 -->
        <rect x="20" y="55" width="515" height="115" fill="#F8F9FA" stroke="#E5E7EB" stroke-width="1" rx="6"/>
        <rect x="20" y="55" width="6" height="115" fill="#005587" rx="2"/>
        <text x="45" y="85" font-family="Arial, sans-serif" font-size="17" font-weight="bold" fill="#2C3E50">人员维度</text>
        <text x="45" y="112" font-family="Arial, sans-serif" font-size="14" fill="#5D6D7E">团队搭建从0到1：选人 → 育人 → 留人 → 淘汰人</text>
        <text x="45" y="138" font-family="Arial, sans-serif" font-size="14" fill="#5D6D7E">先明确招聘标准，教会员工赚钱，能力培养后价值绑定</text>
        <text x="45" y="160" font-family="Arial, sans-serif" font-size="13" fill="#95A5A6">淘汰不合格人员，保证团队整体质量</text>

        <!-- Dimension 2 -->
        <rect x="20" y="190" width="515" height="115" fill="#F8F9FA" stroke="#E5E7EB" stroke-width="1" rx="6"/>
        <rect x="20" y="190" width="6" height="115" fill="#0076A8" rx="2"/>
        <text x="45" y="220" font-family="Arial, sans-serif" font-size="17" font-weight="bold" fill="#2C3E50">职场维度</text>
        <text x="45" y="247" font-family="Arial, sans-serif" font-size="14" fill="#5D6D7E">目标拆解从100到1：将甲方整体目标逐层拆解</text>
        <text x="45" y="273" font-family="Arial, sans-serif" font-size="14" fill="#5D6D7E">每个班、每个组长、每个坐席都有明确目标</text>
        <text x="45" y="295" font-family="Arial, sans-serif" font-size="13" fill="#95A5A6">通过细节落地实现全员同频</text>

        <!-- Dimension 3 -->
        <rect x="20" y="325" width="515" height="115" fill="#F8F9FA" stroke="#E5E7EB" stroke-width="1" rx="6"/>
        <rect x="20" y="325" width="6" height="115" fill="#F5A623" rx="2"/>
        <text x="45" y="355" font-family="Arial, sans-serif" font-size="17" font-weight="bold" fill="#2C3E50">资源维度</text>
        <text x="45" y="382" font-family="Arial, sans-serif" font-size="14" fill="#5D6D7E">客户名单全周期管理 + 激励体系升级为管理架构</text>
        <text x="45" y="408" font-family="Arial, sans-serif" font-size="14" fill="#5D6D7E">日/周/月/年不同周期激励规则明确</text>
        <text x="45" y="430" font-family="Arial, sans-serif" font-size="13" fill="#95A5A6">最大化利用往期资源，避免名单过期浪费</text>
    </g>

    <!-- Right: Strategy + Gen-Z -->
    <g transform="translate(660, 170)">
        <!-- Strategy card -->
        <rect width="560" height="220" fill="#FFFFFF" stroke="#E5E7EB" stroke-width="1.5" rx="6"/>
        <rect x="0" y="0" width="4" height="220" fill="#27AE60" rx="2"/>
        <text x="25" y="35" font-family="Arial, sans-serif" font-size="20" font-weight="bold" fill="#27AE60">当前阶段策略</text>

        <rect x="20" y="55" width="515" height="70" fill="#F0FFF0" stroke="#27AE60" stroke-width="1" rx="6"/>
        <text x="40" y="82" font-family="Arial, sans-serif" font-size="16" font-weight="bold" fill="#2C3E50">优先上规模，入场后逐步培育</text>
        <text x="40" y="108" font-family="Arial, sans-serif" font-size="14" fill="#5D6D7E">在不突破底线标准前提下适当降低准入标准</text>

        <rect x="20" y="140" width="515" height="65" fill="#F8F9FA" stroke="#E5E7EB" stroke-width="1" rx="6"/>
        <text x="40" y="165" font-family="Arial, sans-serif" font-size="14" font-weight="bold" fill="#2C3E50">核心原则：追求产能而非堆人头</text>
        <text x="40" y="190" font-family="Arial, sans-serif" font-size="13" fill="#5D6D7E">五险一金标准提高后，更需要聚焦产能达标</text>

        <!-- Gen-Z card -->
        <rect x="0" y="240" width="560" height="200" fill="#FFFFFF" stroke="#E5E7EB" stroke-width="1.5" rx="6"/>
        <rect x="0" y="240" width="4" height="200" fill="#004D5C" rx="2"/>
        <text x="25" y="275" font-family="Arial, sans-serif" font-size="20" font-weight="bold" fill="#004D5C">00后团队管理经验</text>

        <rect x="20" y="290" width="240" height="135" fill="#F8F9FA" stroke="#E5E7EB" stroke-width="1" rx="6"/>
        <text x="35" y="315" font-family="Arial, sans-serif" font-size="15" font-weight="bold" fill="#2C3E50">选人策略</text>
        <text x="35" y="342" font-family="Arial, sans-serif" font-size="13" fill="#5D6D7E">优先选择执行力强</text>
        <text x="35" y="362" font-family="Arial, sans-serif" font-size="13" fill="#5D6D7E">踏实的候选人</text>
        <text x="35" y="382" font-family="Arial, sans-serif" font-size="13" fill="#5D6D7E">用团队氛围感染新人</text>
        <text x="35" y="402" font-family="Arial, sans-serif" font-size="13" fill="#5D6D7E">减少负面情绪传播</text>

        <rect x="285" y="290" width="250" height="135" fill="#F8F9FA" stroke="#E5E7EB" stroke-width="1" rx="6"/>
        <text x="300" y="315" font-family="Arial, sans-serif" font-size="15" font-weight="bold" fill="#2C3E50">管理技巧</text>
        <text x="300" y="342" font-family="Arial, sans-serif" font-size="13" fill="#5D6D7E">明确知道每个坐席行为</text>
        <text x="300" y="362" font-family="Arial, sans-serif" font-size="13" fill="#5D6D7E">开会点出问题不点名</text>
        <text x="300" y="382" font-family="Arial, sans-serif" font-size="13" fill="#5D6D7E">让问题坐席自我调节</text>
        <text x="300" y="402" font-family="Arial, sans-serif" font-size="13" fill="#5D6D7E">维持团队正面氛围</text>
    </g>

    <rect x="0" y="640" width="1280" height="80" fill="#FAFBFC"/>
    <line x1="0" y1="640" x2="1280" y2="640" stroke="#E5E7EB" stroke-width="1"/>
    <text x="60" y="675" font-family="Arial, sans-serif" font-size="12" fill="#95A5A6">Source: 313上午供应商联盟认证总结会 | 关键共识与冲突解决方案</text>
    <text x="60" y="700" font-family="Arial, sans-serif" font-size="11" fill="#BDC3C7">人员+职场+资源三维框架，当前阶段优先上规模后培育</text>
    <rect x="1140" y="655" width="80" height="30" fill="#005587" rx="4"/>
    <text x="1180" y="676" text-anchor="middle" font-family="Arial, sans-serif" font-size="14" font-weight="bold" fill="#FFFFFF">12</text>
</svg>
