<svg xmlns="http://www.w3.org/2000/svg" viewBox="0 0 1280 720">
    <defs>
        <linearGradient id="headerGrad" x1="0%" y1="0%" x2="100%" y2="0%">
            <stop offset="0%" style="stop-color:#005587"/>
            <stop offset="100%" style="stop-color:#0076A8"/>
        </linearGradient>
        <linearGradient id="cardGrad" x1="0%" y1="0%" x2="0%" y2="100%">
            <stop offset="0%" style="stop-color:#FAFBFC"/>
            <stop offset="100%" style="stop-color:#F1F3F4"/>
        </linearGradient>
    </defs>

    <rect width="1280" height="720" fill="#FFFFFF"/>
    <rect x="0" y="0" width="1280" height="6" fill="url(#headerGrad)"/>

    <rect x="0" y="0" width="400" height="720" fill="#005587" fill-opacity="0.02"/>
    <rect x="880" y="0" width="400" height="720" fill="#005587" fill-opacity="0.02"/>

    <rect x="80" y="100" width="180" height="180" fill="none" stroke="#005587" stroke-width="1" stroke-opacity="0.08"/>
    <rect x="120" y="140" width="100" height="100" fill="#005587" fill-opacity="0.03"/>

    <rect x="1020" y="420" width="180" height="180" fill="none" stroke="#005587" stroke-width="1" stroke-opacity="0.08"/>
    <rect x="1060" y="460" width="100" height="100" fill="#005587" fill-opacity="0.03"/>

    <text x="640" y="230" text-anchor="middle" font-family="Arial, sans-serif" font-size="18" font-weight="bold" fill="#005587" letter-spacing="4">THANK YOU</text>

    <text x="640" y="300" text-anchor="middle" font-family="Arial, sans-serif" font-size="52" font-weight="bold" fill="#2C3E50">感谢聆听</text>

    <line x1="480" y1="340" x2="600" y2="340" stroke="#005587" stroke-width="3"/>
    <circle cx="640" cy="340" r="8" fill="#F5A623"/>
    <line x1="680" y1="340" x2="800" y2="340" stroke="#005587" stroke-width="3"/>

    <text x="640" y="390" text-anchor="middle" font-family="Arial, sans-serif" font-size="20" fill="#5D6D7E">联盟持续开放共享，共建标准化运营体系</text>

    <rect x="390" y="440" width="500" height="150" fill="url(#cardGrad)" stroke="#E5E7EB" stroke-width="1.5" rx="8"/>
    <rect x="390" y="440" width="6" height="150" fill="#005587" rx="3"/>

    <text x="640" y="485" text-anchor="middle" font-family="Arial, sans-serif" font-size="20" font-weight="bold" fill="#2C3E50">BPO 供应商联盟</text>
    <text x="640" y="515" text-anchor="middle" font-family="Arial, sans-serif" font-size="14" fill="#7F8C8D">标准化运营 | 共建共享 | 持续迭代</text>

    <line x1="480" y1="535" x2="800" y2="535" stroke="#E5E7EB" stroke-width="1"/>

    <text x="520" y="565" text-anchor="middle" font-family="Arial, sans-serif" font-size="14" fill="#005587">数据科技业务部</text>
    <text x="760" y="565" text-anchor="middle" font-family="Arial, sans-serif" font-size="14" fill="#005587">2026.04</text>

    <rect x="0" y="640" width="1280" height="80" fill="#FAFBFC"/>
    <line x1="0" y1="640" x2="1280" y2="640" stroke="#E5E7EB" stroke-width="1"/>

    <text x="640" y="675" text-anchor="middle" font-family="Arial, sans-serif" font-size="12" fill="#95A5A6">数据驱动决策 | 标准化运营 | 联盟共建共享</text>

    <rect x="1080" y="655" width="140" height="28" fill="#005587" fill-opacity="0.08" rx="4"/>
    <text x="1150" y="675" text-anchor="middle" font-family="Arial, sans-serif" font-size="12" font-weight="bold" fill="#005587" letter-spacing="1">CONFIDENTIAL</text>

    <text x="60" y="705" font-family="Arial, sans-serif" font-size="14" fill="#7F8C8D">14</text>
</svg>
