<svg xmlns="http://www.w3.org/2000/svg" viewBox="0 0 1280 720">
  <defs>
    <linearGradient id="titleGradient" x1="0%" y1="0%" x2="100%" y2="100%">
      <stop offset="0%" stop-color="#005587" />
      <stop offset="100%" stop-color="#0076A8" />
    </linearGradient>
    <radialGradient id="bgDecor" cx="80%" cy="20%" r="50%">
      <stop offset="0%" stop-color="#005587" stop-opacity="0.12" />
      <stop offset="100%" stop-color="#005587" stop-opacity="0" />
    </radialGradient>
  </defs>

  
  <rect width="1280" height="720" fill="#FFFFFF" />
  <rect width="1280" height="720" fill="url(#bgDecor)" />

  
  <rect x="0" y="0" width="1280" height="8" fill="url(#titleGradient)" />

  
  <g transform="translate(640, 320)">
    
    <circle cx="0" cy="-140" r="48" fill="#005587" fill-opacity="0.1" />
    
  <g transform="translate(-24.0, -164.0) scale(3.0)" fill="#005587">
    <path d="M8 3.5C8 4.88071 6.88071 6 5.5 6C4.11929 6 3 4.88071 3 3.5C3 2.11929 4.11929 1 5.5 1C6.88071 1 8 2.11929 8 3.5Z" />
    <path d="M3 8C1.34315 8 0 9.34315 0 11V15H8V8H3Z" />
    <path d="M13 8H10V15H16V11C16 9.34315 14.6569 8 13 8Z" />
    <path d="M12 6C13.1046 6 14 5.10457 14 4C14 2.89543 13.1046 2 12 2C10.8954 2 10 2.89543 10 4C10 5.10457 10.8954 6 12 6Z" />
  </g>

    
    <text text-anchor="middle" y="0" font-family="Microsoft YaHei, Arial" font-weight="bold" font-size="60" fill="#005587">BPO 供应商联盟认证总结会</text>

    
    <text text-anchor="middle" y="50" font-family="Microsoft YaHei, Calibri" font-size="28" fill="#666666">标准化运营方法论与落地实践</text>

    
    <text text-anchor="middle" y="110" font-family="Microsoft YaHei, Calibri" font-size="22" fill="#999999">2026年4月</text>
  </g>

  
  <path fill="#D04A02" d="M542,650 H738 A2,2 0 0 1 740,652 V652 A2,2 0 0 1 738,654 H542 A2,2 0 0 1 540,652 V652 A2,2 0 0 1 542,650 Z" />

  
  <text x="60" y="695" font-family="Microsoft YaHei, Calibri" font-size="13" fill="#999999">供应商联盟认证总结 | 2026</text>
</svg>