<svg xmlns="http://www.w3.org/2000/svg" viewBox="0 0 1280 720">
  <defs>
    <linearGradient id="cardGradient" x1="0%" y1="0%" x2="0%" y2="100%">
      <stop offset="0%" stop-color="#FFFFFF" />
      <stop offset="100%" stop-color="#F5F8FA" />
    </linearGradient>
    <filter id="shadow" x="-20%" y="-20%" width="140%" height="140%">
      <feDropShadow dx="0" dy="4" stdDeviation="8" flood-color="#005587" flood-opacity="0.15" />
    </filter>
  </defs>

  
  <rect width="1280" height="720" fill="#FFFFFF" />

  
  <text x="60" y="55" font-family="Microsoft YaHei, Arial" font-weight="bold" font-size="36" fill="#005587">今日议程</text>
  <line x1="60" y1="75" x2="1220" y2="75" stroke="#E0E0E0" stroke-width="1" />

  
  
  <g transform="translate(60, 120)">
    <path fill="url(#cardGradient)" stroke="#E0E0E0" stroke-width="1" filter="url(#shadow)" d="M12,0 H348 A12,12 0 0 1 360,12 V268 A12,12 0 0 1 348,280 H12 A12,12 0 0 1 0,268 V12 A12,12 0 0 1 12,0 Z" />
    <path fill="#005587" transform="translate(0, 0)" d="M3,0 H357 A3,3 0 0 1 360,3 V3 A3,3 0 0 1 357,6 H3 A3,3 0 0 1 0,3 V3 A3,3 0 0 1 3,0 Z" />

    
  <g transform="translate(30.0, 30.0) scale(3.0)" fill="#005587">
    <path d="M5 4.79198C5.88295 4.4062 6.5 3.52516 6.5 2.5C6.5 1.11929 5.38071 0 4 0C2.61929 0 1.5 1.11929 1.5 2.5C1.5 3.52516 2.11705 4.4062 3 4.79198V11.208C2.11705 11.5938 1.5 12.4748 1.5 13.5C1.5 14.8807 2.61929 16 4 16C5.38071 16 6.5 14.8807 6.5 13.5C6.5 12.4748 5.88295 11.5938 5 11.208V9H13V4.79198C13.883 4.4062 14.5 3.52516 14.5 2.5C14.5 1.11929 13.3807 0 12 0C10.6193 0 9.5 1.11929 9.5 2.5C9.5 3.52516 10.117 4.4062 11 4.79198V7H5V4.79198Z" />
  </g>
    <text x="30" y="100" font-family="Microsoft YaHei, Arial" font-weight="bold" font-size="24" fill="#005587">核心方法论分享</text>

    <g transform="translate(30, 130)">
      <circle cx="8" cy="8" r="4" fill="#0076A8" />
      <text x="24" y="14" font-family="Microsoft YaHei, Calibri" font-size="18" fill="#333333">坐席分级管理</text>
    </g>
    <g transform="translate(30, 165)">
      <circle cx="8" cy="8" r="4" fill="#0076A8" />
      <text x="24" y="14" font-family="Microsoft YaHei, Calibri" font-size="18" fill="#333333">激励体系设计</text>
    </g>
    <g transform="translate(30, 200)">
      <circle cx="8" cy="8" r="4" fill="#0076A8" />
      <text x="24" y="14" font-family="Microsoft YaHei, Calibri" font-size="18" fill="#333333">三会管理流程</text>
    </g>
    <g transform="translate(30, 235)">
      <circle cx="8" cy="8" r="4" fill="#0076A8" />
      <text x="24" y="14" font-family="Microsoft YaHei, Calibri" font-size="18" fill="#333333">名单管控策略</text>
    </g>
  </g>

  
  <g transform="translate(460, 120)">
    <path fill="url(#cardGradient)" stroke="#E0E0E0" stroke-width="1" filter="url(#shadow)" d="M12,0 H348 A12,12 0 0 1 360,12 V268 A12,12 0 0 1 348,280 H12 A12,12 0 0 1 0,268 V12 A12,12 0 0 1 12,0 Z" />
    <path fill="#0076A8" transform="translate(0, 0)" d="M3,0 H357 A3,3 0 0 1 360,3 V3 A3,3 0 0 1 357,6 H3 A3,3 0 0 1 0,3 V3 A3,3 0 0 1 3,0 Z" />

    <use data-icon="chunk/check-circle" x="30" y="30" width="48" height="48" fill="#0076A8" />
    <text x="30" y="100" font-family="Microsoft YaHei, Arial" font-weight="bold" font-size="24" fill="#0076A8">供应商认证与收获</text>

    <g transform="translate(30, 130)">
      <circle cx="8" cy="8" r="4" fill="#005587" />
      <text x="24" y="14" font-family="Microsoft YaHei, Calibri" font-size="18" fill="#333333">认证规则与结果</text>
    </g>
    <g transform="translate(30, 165)">
      <circle cx="8" cy="8" r="4" fill="#005587" />
      <text x="24" y="14" font-family="Microsoft YaHei, Calibri" font-size="18" fill="#333333">岐力落地三阶段</text>
    </g>
    <g transform="translate(30, 200)">
      <circle cx="8" cy="8" r="4" fill="#005587" />
      <text x="24" y="14" font-family="Microsoft YaHei, Calibri" font-size="18" fill="#333333">汇讯管理工具优化</text>
    </g>
    <g transform="translate(30, 235)">
      <circle cx="8" cy="8" r="4" fill="#005587" />
      <text x="24" y="14" font-family="Microsoft YaHei, Calibri" font-size="18" fill="#333333">各供应商核心收获</text>
    </g>
  </g>

  
  <g transform="translate(860, 120)">
    <path fill="url(#cardGradient)" stroke="#E0E0E0" stroke-width="1" filter="url(#shadow)" d="M12,0 H348 A12,12 0 0 1 360,12 V268 A12,12 0 0 1 348,280 H12 A12,12 0 0 1 0,268 V12 A12,12 0 0 1 12,0 Z" />
    <path fill="#D04A02" transform="translate(0, 0)" d="M3,0 H357 A3,3 0 0 1 360,3 V3 A3,3 0 0 1 357,6 H3 A3,3 0 0 1 0,3 V3 A3,3 0 0 1 3,0 Z" />

    
  <g transform="translate(30.0, 30.0) scale(3.0)" fill="#D04A02">
    <path fill-rule="evenodd" clip-rule="evenodd" d="M8 4C5.79086 4 4 5.79086 4 8C4 10.2091 5.79086 12 8 12C10.2091 12 12 10.2091 12 8C12 5.79086 10.2091 4 8 4ZM6 8C6 6.89543 6.89543 6 8 6C9.10457 6 10 6.89543 10 8C10 9.10457 9.10457 10 8 10C6.89543 10 6 9.10457 6 8Z" />
    <path fill-rule="evenodd" clip-rule="evenodd" d="M8 0C3.58172 0 0 3.58172 0 8C0 12.4183 3.58172 16 8 16C12.4183 16 16 12.4183 16 8C16 3.58172 12.4183 0 8 0ZM2 8C2 4.68629 4.68629 2 8 2C11.3137 2 14 4.68629 14 8C14 11.3137 11.3137 14 8 14C4.68629 14 2 11.3137 2 8Z" />
  </g>
    <text x="30" y="100" font-family="Microsoft YaHei, Arial" font-weight="bold" font-size="24" fill="#D04A02">落地方案与展望</text>

    <g transform="translate(30, 130)">
      <circle cx="8" cy="8" r="4" fill="#005587" />
      <text x="24" y="14" font-family="Microsoft YaHei, Calibri" font-size="18" fill="#333333">三个月推进计划</text>
    </g>
    <g transform="translate(30, 165)">
      <circle cx="8" cy="8" r="4" fill="#005587" />
      <text x="24" y="14" font-family="Microsoft YaHei, Calibri" font-size="18" fill="#333333">关键成功要素</text>
    </g>
    <g transform="translate(30, 200)">
      <circle cx="8" cy="8" r="4" fill="#005587" />
      <text x="24" y="14" font-family="Microsoft YaHei, Calibri" font-size="18" fill="#333333">标准化落地指标</text>
    </g>
    <g transform="translate(30, 235)">
      <circle cx="8" cy="8" r="4" fill="#005587" />
      <text x="24" y="14" font-family="Microsoft YaHei, Calibri" font-size="18" fill="#333333">携手推进共创价值</text>
    </g>
  </g>

  
  <text x="60" y="695" font-family="Microsoft YaHei, Calibri" font-size="13" fill="#999999">02 | 今日议程</text>
</svg>