<svg xmlns="http://www.w3.org/2000/svg" viewBox="0 0 1280 720">
  <defs>
    <filter id="cardShadow" x="-20%" y="-20%" width="140%" height="140%">
      <feDropShadow dx="0" dy="2" stdDeviation="6" flood-color="#005587" flood-opacity="0.12" />
    </filter>
  </defs>

  
  <rect width="1280" height="720" fill="#FFFFFF" />

  
  <text x="60" y="55" font-family="Microsoft YaHei, Arial" font-weight="bold" font-size="36" fill="#005587">电销管理六大核心模块</text>
  <line x1="60" y1="75" x2="1220" y2="75" stroke="#E0E0E0" stroke-width="1" />

  
  <path fill="#005587" fill-opacity="0.08" d="M68,95 H1212 A8,8 0 0 1 1220,103 V127 A8,8 0 0 1 1212,135 H68 A8,8 0 0 1 60,127 V103 A8,8 0 0 1 68,95 Z" />
  <text x="80" y="122" font-family="Microsoft YaHei, Calibri" font-size="16" fill="#005587">核心洞察：标准化运营是提升电销产能的关键，六大模块相互支撑形成闭环管理体系</text>

  
  
  <g transform="translate(60, 160)">
    <path fill="#F5F8FA" stroke="#E0E0E0" stroke-width="1" filter="url(#cardShadow)" d="M12,0 H338 A12,12 0 0 1 350,12 V168 A12,12 0 0 1 338,180 H12 A12,12 0 0 1 0,168 V12 A12,12 0 0 1 12,0 Z" />
    
  <g transform="translate(20.0, 20.0) scale(2.5)" fill="#005587">
    <path d="M8 3.5C8 4.88071 6.88071 6 5.5 6C4.11929 6 3 4.88071 3 3.5C3 2.11929 4.11929 1 5.5 1C6.88071 1 8 2.11929 8 3.5Z" />
    <path d="M3 8C1.34315 8 0 9.34315 0 11V15H8V8H3Z" />
    <path d="M13 8H10V15H16V11C16 9.34315 14.6569 8 13 8Z" />
    <path d="M12 6C13.1046 6 14 5.10457 14 4C14 2.89543 13.1046 2 12 2C10.8954 2 10 2.89543 10 4C10 5.10457 10.8954 6 12 6Z" />
  </g>
    <text x="75" y="48" font-family="Microsoft YaHei, Arial" font-weight="bold" font-size="20" fill="#005587">坐席分级管理</text>
    <text x="20" y="90" font-family="Microsoft YaHei, Calibri" font-size="16" fill="#666666">ABC分级竞争机制</text>
    <text x="20" y="118" font-family="Microsoft YaHei, Calibri" font-size="16" fill="#666666">同等级竞争晋升路径</text>
    <text x="20" y="146" font-family="Microsoft YaHei, Calibri" font-size="16" fill="#666666">名单量差异化分配</text>
  </g>

  <g transform="translate(465, 160)">
    <path fill="#F5F8FA" stroke="#E0E0E0" stroke-width="1" filter="url(#cardShadow)" d="M12,0 H338 A12,12 0 0 1 350,12 V168 A12,12 0 0 1 338,180 H12 A12,12 0 0 1 0,168 V12 A12,12 0 0 1 12,0 Z" />
    <use data-icon="chunk/list-details" x="20" y="20" width="40" height="40" fill="#005587" />
    <text x="75" y="48" font-family="Microsoft YaHei, Arial" font-weight="bold" font-size="20" fill="#005587">话术沉淀体系</text>
    <text x="20" y="90" font-family="Microsoft YaHei, Calibri" font-size="16" fill="#666666">7类专项话术库</text>
    <text x="20" y="118" font-family="Microsoft YaHei, Calibri" font-size="16" fill="#666666">月度迭代更新</text>
    <text x="20" y="146" font-family="Microsoft YaHei, Calibri" font-size="16" fill="#666666">绩优分享标准化</text>
  </g>

  <g transform="translate(870, 160)">
    <path fill="#F5F8FA" stroke="#E0E0E0" stroke-width="1" filter="url(#cardShadow)" d="M12,0 H338 A12,12 0 0 1 350,12 V168 A12,12 0 0 1 338,180 H12 A12,12 0 0 1 0,168 V12 A12,12 0 0 1 12,0 Z" />
    
  <g transform="translate(20.0, 20.0) scale(2.5)" fill="#005587">
    <path d="M3 3V0H5C6.65685 0 8 1.34315 8 3C8 1.34315 9.34315 0 11 0H13V3H16V6H0V3H3Z" />
    <path d="M1 8H7V15H1V8Z" />
    <path d="M15 8H9V15H15V8Z" />
  </g>
    <text x="75" y="48" font-family="Microsoft YaHei, Arial" font-weight="bold" font-size="20" fill="#005587">团队激励方案</text>
    <text x="20" y="90" font-family="Microsoft YaHei, Calibri" font-size="16" fill="#666666">日周维度即时激励</text>
    <text x="20" y="118" font-family="Microsoft YaHei, Calibri" font-size="16" fill="#666666">团队PK活动</text>
    <text x="20" y="146" font-family="Microsoft YaHei, Calibri" font-size="16" fill="#666666">可视化排名体系</text>
  </g>

  
  <g transform="translate(60, 360)">
    <path fill="#F5F8FA" stroke="#E0E0E0" stroke-width="1" filter="url(#cardShadow)" d="M12,0 H338 A12,12 0 0 1 350,12 V168 A12,12 0 0 1 338,180 H12 A12,12 0 0 1 0,168 V12 A12,12 0 0 1 12,0 Z" />
    <use data-icon="chunk/calendar-clock" x="20" y="20" width="40" height="40" fill="#0076A8" />
    <text x="75" y="48" font-family="Microsoft YaHei, Arial" font-weight="bold" font-size="20" fill="#0076A8">三会管理流程</text>
    <text x="20" y="90" font-family="Microsoft YaHei, Calibri" font-size="16" fill="#666666">早会15分钟结果对齐</text>
    <text x="20" y="118" font-family="Microsoft YaHei, Calibri" font-size="16" fill="#666666">午会10分钟叫醒</text>
    <text x="20" y="146" font-family="Microsoft YaHei, Calibri" font-size="16" fill="#666666">晚会复盘培训</text>
  </g>

  <g transform="translate(465, 360)">
    <path fill="#F5F8FA" stroke="#E0E0E0" stroke-width="1" filter="url(#cardShadow)" d="M12,0 H338 A12,12 0 0 1 350,12 V168 A12,12 0 0 1 338,180 H12 A12,12 0 0 1 0,168 V12 A12,12 0 0 1 12,0 Z" />
    
  <g transform="translate(20.0, 20.0) scale(2.5)" fill="#0076A8">
    <path d="M13.1371 6.91018C13.4184 6.7695 13.7123 6.59981 14 6.40001V8C14 9.65685 11.3137 11 8 11C4.68629 11 2 9.65685 2 8V6.40001C2.28772 6.59981 2.58158 6.7695 2.86293 6.91018C4.28096 7.61919 6.09998 8 8 8C9.90002 8 11.719 7.61919 13.1371 6.91018Z" />
    <path d="M2 11.4V13C2 14.6569 4.68629 16 8 16C11.3137 16 14 14.6569 14 13V11.4C13.7123 11.5998 13.4184 11.7695 13.1371 11.9102C11.719 12.6192 9.90002 13 8 13C6.09998 13 4.28096 12.6192 2.86293 11.9102C2.58158 11.7695 2.28772 11.5998 2 11.4Z" />
    <path d="M8 0C11.3137 0 14 1.34315 14 3C14 4.65685 11.3137 6 8 6C4.68629 6 2 4.65685 2 3C2 1.34315 4.68629 0 8 0Z" />
  </g>
    <text x="75" y="48" font-family="Microsoft YaHei, Arial" font-weight="bold" font-size="20" fill="#0076A8">名单管控规则</text>
    <text x="20" y="90" font-family="Microsoft YaHei, Calibri" font-size="16" fill="#666666">新名单静置2-3天</text>
    <text x="20" y="118" font-family="Microsoft YaHei, Calibri" font-size="16" fill="#666666">单名单拨打≤40次</text>
    <text x="20" y="146" font-family="Microsoft YaHei, Calibri" font-size="16" fill="#666666">周末全量回收清零</text>
  </g>

  <g transform="translate(870, 360)">
    <path fill="#F5F8FA" stroke="#E0E0E0" stroke-width="1" filter="url(#cardShadow)" d="M12,0 H338 A12,12 0 0 1 350,12 V168 A12,12 0 0 1 338,180 H12 A12,12 0 0 1 0,168 V12 A12,12 0 0 1 12,0 Z" />
    
  <g transform="translate(20.0, 20.0) scale(2.5)" fill="#0076A8">
    <path fill-rule="evenodd" clip-rule="evenodd" d="M8 16C12.4183 16 16 12.4183 16 8C16 3.58172 12.4183 0 8 0C3.58172 0 0 3.58172 0 8C0 12.4183 3.58172 16 8 16ZM7 3V8.41421L10.2929 11.7071L11.7071 10.2929L9 7.58579V3H7Z" />
  </g>
    <text x="75" y="48" font-family="Microsoft YaHei, Arial" font-weight="bold" font-size="20" fill="#0076A8">分时段拨打策略</text>
    <text x="20" y="90" font-family="Microsoft YaHei, Calibri" font-size="16" fill="#666666">9:00-9:30回拨高意向</text>
    <text x="20" y="118" font-family="Microsoft YaHei, Calibri" font-size="16" fill="#666666">18:30-19:30黄金时段</text>
    <text x="20" y="146" font-family="Microsoft YaHei, Calibri" font-size="16" fill="#666666">客户ABCD分级优先</text>
  </g>

  
  <text x="60" y="695" font-family="Microsoft YaHei, Calibri" font-size="13" fill="#999999">03 | 电销管理六大核心模块</text>
</svg>