<svg xmlns="http://www.w3.org/2000/svg" viewBox="0 0 1280 720">
  <defs>
    <filter id="cardShadow" x="-20%" y="-20%" width="140%" height="140%">
      <feDropShadow dx="0" dy="2" stdDeviation="6" flood-color="#005587" flood-opacity="0.12" />
    </filter>
  </defs>

  
  <rect width="1280" height="720" fill="#FFFFFF" />

  
  <text x="60" y="55" font-family="Microsoft YaHei, Arial" font-weight="bold" font-size="36" fill="#005587">日周维度即时激励</text>
  <line x1="60" y1="75" x2="1220" y2="75" stroke="#E0E0E0" stroke-width="1" />

  
  <path fill="#005587" fill-opacity="0.08" d="M68,95 H1212 A8,8 0 0 1 1220,103 V127 A8,8 0 0 1 1212,135 H68 A8,8 0 0 1 60,127 V103 A8,8 0 0 1 68,95 Z" />
  <text x="80" y="122" font-family="Microsoft YaHei, Calibri" font-size="16" fill="#005587">核心洞察：即时正向反馈提升内驱力，但需控制频率避免激励价值稀释</text>

  
  <g transform="translate(60, 160)">
    <path fill="#F5F8FA" stroke="#E0E0E0" stroke-width="1" filter="url(#cardShadow)" d="M12,0 H1148 A12,12 0 0 1 1160,12 V188 A12,12 0 0 1 1148,200 H12 A12,12 0 0 1 0,188 V12 A12,12 0 0 1 12,0 Z" />
    <path fill="#005587" d="M3,0 H1157 A3,3 0 0 1 1160,3 V3 A3,3 0 0 1 1157,6 H3 A3,3 0 0 1 0,3 V3 A3,3 0 0 1 3,0 Z" />

    
  <g transform="translate(20.0, 20.0) scale(2.5)" fill="#005587">
    <path d="M3 3V0H5C6.65685 0 8 1.34315 8 3C8 1.34315 9.34315 0 11 0H13V3H16V6H0V3H3Z" />
    <path d="M1 8H7V15H1V8Z" />
    <path d="M15 8H9V15H15V8Z" />
  </g>
    <text x="75" y="48" font-family="Microsoft YaHei, Arial" font-weight="bold" font-size="24" fill="#005587">日维度：分段激励</text>

    
    <g transform="translate(30, 70)">
      
      <path fill="#FFFFFF" stroke="#E0E0E0" stroke-width="1" d="M8,0 H342 A8,8 0 0 1 350,8 V92 A8,8 0 0 1 342,100 H8 A8,8 0 0 1 0,92 V8 A8,8 0 0 1 8,0 Z" />
      <text x="20" y="35" font-family="Microsoft YaHei, Arial" font-weight="bold" font-size="18" fill="#005587">上午开单</text>
      <text x="20" y="65" font-family="Microsoft YaHei, Calibri" font-size="16" fill="#333333">开出 <tspan font-weight="bold" fill="#D04A02">2单</tspan> → 抽红包</text>
      <text x="20" y="90" font-family="Microsoft YaHei, Calibri" font-size="14" fill="#999999">金额：16-88元</text>
    </g>

    <g transform="translate(400, 70)">
      
      <path fill="#FFFFFF" stroke="#E0E0E0" stroke-width="1" d="M8,0 H342 A8,8 0 0 1 350,8 V92 A8,8 0 0 1 342,100 H8 A8,8 0 0 1 0,92 V8 A8,8 0 0 1 8,0 Z" />
      <text x="20" y="35" font-family="Microsoft YaHei, Arial" font-weight="bold" font-size="18" fill="#005587">下午第一轮</text>
      <text x="20" y="65" font-family="Microsoft YaHei, Calibri" font-size="16" fill="#333333">开出 <tspan font-weight="bold" fill="#D04A02">3单</tspan> → 再抽一次</text>
      <text x="20" y="90" font-family="Microsoft YaHei, Calibri" font-size="14" fill="#999999">金额：16-88元</text>
    </g>

    <g transform="translate(770, 70)">
      
      <path fill="#FFFFFF" stroke="#E0E0E0" stroke-width="1" d="M8,0 H342 A8,8 0 0 1 350,8 V92 A8,8 0 0 1 342,100 H8 A8,8 0 0 1 0,92 V8 A8,8 0 0 1 8,0 Z" />
      <text x="20" y="35" font-family="Microsoft YaHei, Arial" font-weight="bold" font-size="18" fill="#005587">下午第二轮</text>
      <text x="20" y="65" font-family="Microsoft YaHei, Calibri" font-size="16" fill="#333333">开出 <tspan font-weight="bold" fill="#D04A02">6单</tspan> → 再抽一次</text>
      <text x="20" y="90" font-family="Microsoft YaHei, Calibri" font-size="14" fill="#999999">金额：16-88元</text>
    </g>
  </g>

  
  <g transform="translate(60, 390)">
    <path fill="#F5F8FA" stroke="#E0E0E0" stroke-width="1" filter="url(#cardShadow)" d="M12,0 H548 A12,12 0 0 1 560,12 V238 A12,12 0 0 1 548,250 H12 A12,12 0 0 1 0,238 V12 A12,12 0 0 1 12,0 Z" />
    <path fill="#0076A8" d="M3,0 H557 A3,3 0 0 1 560,3 V3 A3,3 0 0 1 557,6 H3 A3,3 0 0 1 0,3 V3 A3,3 0 0 1 3,0 Z" />

    
  <g transform="translate(20.0, 20.0) scale(2.5)" fill="#0076A8">
    <path d="M6 0H3V2H1V5H15V2H13V0H10V2H6V0Z" />
    <path d="M15 7H1V15H15V7Z" />
  </g>
    <text x="75" y="48" font-family="Microsoft YaHei, Arial" font-weight="bold" font-size="24" fill="#0076A8">周维度：大额奖励</text>

    <g transform="translate(30, 75)">
      <path fill="#FFFFFF" stroke="#E0E0E0" stroke-width="1" d="M8,0 H492 A8,8 0 0 1 500,8 V132 A8,8 0 0 1 492,140 H8 A8,8 0 0 1 0,132 V8 A8,8 0 0 1 8,0 Z" />

      <text x="20" y="35" font-family="Microsoft YaHei, Arial" font-weight="bold" font-size="18" fill="#333333">触发条件</text>
      <text x="20" y="65" font-family="Microsoft YaHei, Calibri" font-size="16" fill="#666666">大盘人均不到 <tspan font-weight="bold" fill="#D04A02">2单</tspan> 的周期</text>
      <text x="20" y="95" font-family="Microsoft YaHei, Calibri" font-size="16" fill="#666666">个人周开 <tspan font-weight="bold" fill="#D04A02">12单</tspan> 即可参与</text>

      <text x="280" y="35" font-family="Microsoft YaHei, Arial" font-weight="bold" font-size="18" fill="#333333">奖励</text>
      <text x="280" y="65" font-family="Microsoft YaHei, Calibri" font-size="16" fill="#666666">抽一次奖品</text>
      <text x="280" y="95" font-family="Microsoft YaHei, Calibri" font-size="16" fill="#666666">金额：<tspan font-weight="bold" fill="#D04A02">50-300元</tspan></text>
    </g>
  </g>

  
  <g transform="translate(660, 390)">
    <path fill="#FFF8F0" stroke="#FFE0B2" stroke-width="1" filter="url(#cardShadow)" d="M12,0 H548 A12,12 0 0 1 560,12 V238 A12,12 0 0 1 548,250 H12 A12,12 0 0 1 0,238 V12 A12,12 0 0 1 12,0 Z" />
    <path fill="#D04A02" d="M3,0 H557 A3,3 0 0 1 560,3 V3 A3,3 0 0 1 557,6 H3 A3,3 0 0 1 0,3 V3 A3,3 0 0 1 3,0 Z" />

    <use data-icon="chunk/alert-triangle" x="20" y="20" width="40" height="40" fill="#D04A02" />
    <text x="75" y="48" font-family="Microsoft YaHei, Arial" font-weight="bold" font-size="24" fill="#D04A02">关键原则</text>

    <g transform="translate(30, 75)">
      
      <g transform="translate(0, 0)">
        <circle cx="12" cy="12" r="12" fill="#D04A02" />
        <text x="12" y="17" text-anchor="middle" font-family="Microsoft YaHei, Arial" font-weight="bold" font-size="14" fill="#FFFFFF">1</text>
        <text x="35" y="18" font-family="Microsoft YaHei, Calibri" font-size="16" fill="#333333">不要天天做激励</text>
      </g>

      
      <g transform="translate(0, 45)">
        <circle cx="12" cy="12" r="12" fill="#D04A02" />
        <text x="12" y="17" text-anchor="middle" font-family="Microsoft YaHei, Arial" font-weight="bold" font-size="14" fill="#FFFFFF">2</text>
        <text x="35" y="18" font-family="Microsoft YaHei, Calibri" font-size="16" fill="#333333">放在月头第一周、月尾做</text>
      </g>

      
      <g transform="translate(0, 90)">
        <circle cx="12" cy="12" r="12" fill="#D04A02" />
        <text x="12" y="17" text-anchor="middle" font-family="Microsoft YaHei, Arial" font-weight="bold" font-size="14" fill="#FFFFFF">3</text>
        <text x="35" y="18" font-family="Microsoft YaHei, Calibri" font-size="16" fill="#333333">高频会降低激励价值</text>
      </g>

      
      <g transform="translate(0, 135)">
        <circle cx="12" cy="12" r="12" fill="#D04A02" />
        <text x="12" y="17" text-anchor="middle" font-family="Microsoft YaHei, Arial" font-weight="bold" font-size="14" fill="#FFFFFF">4</text>
        <text x="35" y="18" font-family="Microsoft YaHei, Calibri" font-size="16" fill="#333333">团队PK比现金更有效</text>
      </g>
    </g>
  </g>

  
  <text x="60" y="695" font-family="Microsoft YaHei, Calibri" font-size="13" fill="#999999">05 | 日周维度即时激励</text>
</svg>