<svg xmlns="http://www.w3.org/2000/svg" viewBox="0 0 1280 720">
  <defs>
    <filter id="cardShadow" x="-20%" y="-20%" width="140%" height="140%">
      <feDropShadow dx="0" dy="2" stdDeviation="6" flood-color="#005587" flood-opacity="0.12" />
    </filter>
    <linearGradient id="goldGradient" x1="0%" y1="0%" x2="100%" y2="100%">
      <stop offset="0%" stop-color="#FFD700" />
      <stop offset="100%" stop-color="#FFA500" />
    </linearGradient>
  </defs>

  
  <rect width="1280" height="720" fill="#FFFFFF" />

  
  <text x="60" y="55" font-family="Microsoft YaHei, Arial" font-weight="bold" font-size="36" fill="#005587">认证规则与结果</text>
  <line x1="60" y1="75" x2="1220" y2="75" stroke="#E0E0E0" stroke-width="1" />

  
  <path fill="#005587" fill-opacity="0.08" d="M68,95 H1212 A8,8 0 0 1 1220,103 V127 A8,8 0 0 1 1212,135 H68 A8,8 0 0 1 60,127 V103 A8,8 0 0 1 68,95 Z" />
  <text x="80" y="122" font-family="Microsoft YaHei, Calibri" font-size="16" fill="#005587">认证结果：所有供应商均通过认证，岐力以91分获得第一名</text>

  
  <g transform="translate(60, 160)">
    <path fill="#F5F8FA" stroke="#E0E0E0" stroke-width="1" filter="url(#cardShadow)" d="M12,0 H548 A12,12 0 0 1 560,12 V468 A12,12 0 0 1 548,480 H12 A12,12 0 0 1 0,468 V12 A12,12 0 0 1 12,0 Z" />
    <path fill="#005587" d="M3,0 H557 A3,3 0 0 1 560,3 V3 A3,3 0 0 1 557,6 H3 A3,3 0 0 1 0,3 V3 A3,3 0 0 1 3,0 Z" />

    <use data-icon="chunk/check-circle" x="20" y="20" width="40" height="40" fill="#005587" />
    <text x="75" y="48" font-family="Microsoft YaHei, Arial" font-weight="bold" font-size="24" fill="#005587">评分规则</text>

    
    <g transform="translate(30, 80)">
      <path fill="#005587" fill-opacity="0.1" d="M8,0 H492 A8,8 0 0 1 500,8 V42 A8,8 0 0 1 492,50 H8 A8,8 0 0 1 0,42 V8 A8,8 0 0 1 8,0 Z" />
      <text x="20" y="32" font-family="Microsoft YaHei, Arial" font-weight="bold" font-size="18" fill="#005587">满分100分 | 80分以上通过认证</text>
    </g>

    
    <text x="30" y="165" font-family="Microsoft YaHei, Arial" font-weight="bold" font-size="18" fill="#333333">评分构成</text>

    
    <g transform="translate(30, 190)">
      <path fill="#FFFFFF" stroke="#E0E0E0" stroke-width="1" d="M8,0 H492 A8,8 0 0 1 500,8 V62 A8,8 0 0 1 492,70 H8 A8,8 0 0 1 0,62 V8 A8,8 0 0 1 8,0 Z" />
      <path fill="#005587" d="M4,0 H4 A4,4 0 0 1 8,4 V66 A4,4 0 0 1 4,70 H4 A4,4 0 0 1 0,66 V4 A4,4 0 0 1 4,0 Z" />
      <text x="25" y="30" font-family="Microsoft YaHei, Arial" font-weight="bold" font-size="18" fill="#333333">清晰表达有观点</text>
      <text x="25" y="55" font-family="Microsoft YaHei, Calibri" font-size="16" fill="#666666">25分</text>
    </g>

    
    <g transform="translate(30, 275)">
      <path fill="#FFFFFF" stroke="#E0E0E0" stroke-width="1" d="M8,0 H492 A8,8 0 0 1 500,8 V62 A8,8 0 0 1 492,70 H8 A8,8 0 0 1 0,62 V8 A8,8 0 0 1 8,0 Z" />
      <path fill="#0076A8" d="M4,0 H4 A4,4 0 0 1 8,4 V66 A4,4 0 0 1 4,70 H4 A4,4 0 0 1 0,66 V4 A4,4 0 0 1 4,0 Z" />
      <text x="25" y="30" font-family="Microsoft YaHei, Arial" font-weight="bold" font-size="18" fill="#333333">内容完整贴合主题</text>
      <text x="25" y="55" font-family="Microsoft YaHei, Calibri" font-size="16" fill="#666666">25分</text>
    </g>

    
    <g transform="translate(30, 360)">
      <path fill="#FFFFFF" stroke="#E0E0E0" stroke-width="1" d="M8,0 H492 A8,8 0 0 1 500,8 V62 A8,8 0 0 1 492,70 H8 A8,8 0 0 1 0,62 V8 A8,8 0 0 1 8,0 Z" />
      <path fill="#D04A02" d="M4,0 H4 A4,4 0 0 1 8,4 V66 A4,4 0 0 1 4,70 H4 A4,4 0 0 1 0,66 V4 A4,4 0 0 1 4,0 Z" />
      <text x="25" y="30" font-family="Microsoft YaHei, Arial" font-weight="bold" font-size="18" fill="#333333">结构清晰可落地</text>
      <text x="25" y="55" font-family="Microsoft YaHei, Calibri" font-size="16" fill="#666666">50分</text>
    </g>

    
    <g transform="translate(30, 450)">
      <path fill="#D04A02" fill-opacity="0.1" d="M4,0 H496 A4,4 0 0 1 500,4 V16 A4,4 0 0 1 496,20 H4 A4,4 0 0 1 0,16 V4 A4,4 0 0 1 4,0 Z" />
      <text x="250" y="15" text-anchor="middle" font-family="Microsoft YaHei, Calibri" font-size="12" fill="#D04A02">加分项：底层逻辑、延伸思考、落地可行性高</text>
    </g>
  </g>

  
  <g transform="translate(660, 160)">
    <path fill="#FFF8E1" stroke="#FFE082" stroke-width="1" filter="url(#cardShadow)" d="M12,0 H548 A12,12 0 0 1 560,12 V468 A12,12 0 0 1 548,480 H12 A12,12 0 0 1 0,468 V12 A12,12 0 0 1 12,0 Z" />
    <path fill="#D04A02" d="M3,0 H557 A3,3 0 0 1 560,3 V3 A3,3 0 0 1 557,6 H3 A3,3 0 0 1 0,3 V3 A3,3 0 0 1 3,0 Z" />

    
  <g transform="translate(20.0, 20.0) scale(2.5)" fill="#D04A02">
    <path fill-rule="evenodd" clip-rule="evenodd" d="M4 0H12V2H16V4C16 6.45641 14.2286 8.49909 11.8936 8.92038C11.5537 10.3637 10.432 11.5054 9 11.874V14H12V16H4V14H7V11.874C5.56796 11.5054 4.44628 10.3637 4.1064 8.92038C1.77136 8.49909 0 6.45641 0 4V2H4V0ZM12 6.82929V4H14C14 5.30622 13.1652 6.41746 12 6.82929ZM4 4H2C2 5.30622 2.83481 6.41746 4 6.82929V4Z" />
  </g>
    <text x="75" y="48" font-family="Microsoft YaHei, Arial" font-weight="bold" font-size="24" fill="#D04A02">认证结果</text>

    
    <g transform="translate(30, 80)">
      
      <g transform="translate(0, 60)">
        <path fill="#E0E0E0" stroke="#BDBDBD" stroke-width="2" d="M12,0 H128 A12,12 0 0 1 140,12 V128 A12,12 0 0 1 128,140 H12 A12,12 0 0 1 0,128 V12 A12,12 0 0 1 12,0 Z" />
        <text x="70" y="30" text-anchor="middle" font-family="Microsoft YaHei, Arial" font-weight="bold" font-size="48" fill="#BDBDBD">2</text>
        <text x="70" y="70" text-anchor="middle" font-family="Microsoft YaHei, Arial" font-weight="bold" font-size="20" fill="#333333">汇讯</text>
        <text x="70" y="100" text-anchor="middle" font-family="Microsoft YaHei, Calibri" font-size="28" font-weight="bold" fill="#757575">88分</text>
      </g>

      
      <g transform="translate(180, 0)">
        <path fill="url(#goldGradient)" stroke="#FF8C00" stroke-width="2" d="M12,0 H148 A12,12 0 0 1 160,12 V188 A12,12 0 0 1 148,200 H12 A12,12 0 0 1 0,188 V12 A12,12 0 0 1 12,0 Z" />
        
  <g transform="translate(60.0, 10.0) scale(2.5)" fill="#FFFFFF">
    <path d="M9.00001 0H7.00001L5.51292 4.57681L0.700554 4.57682L0.0825195 6.47893L3.97581 9.30756L2.48873 13.8843L4.10677 15.0599L8.00002 12.2313L11.8933 15.0599L13.5113 13.8843L12.0242 9.30754L15.9175 6.47892L15.2994 4.57681L10.4871 4.57681L9.00001 0Z" />
  </g>
        <text x="80" y="70" text-anchor="middle" font-family="Microsoft YaHei, Arial" font-weight="bold" font-size="56" fill="#FFFFFF">1</text>
        <text x="80" y="120" text-anchor="middle" font-family="Microsoft YaHei, Arial" font-weight="bold" font-size="24" fill="#FFFFFF">岐力</text>
        <text x="80" y="160" text-anchor="middle" font-family="Microsoft YaHei, Calibri" font-size="32" font-weight="bold" fill="#FFFFFF">91分</text>
      </g>

      
      <g transform="translate(370, 90)">
        <path fill="#FFE0B2" stroke="#FFB74D" stroke-width="2" d="M12,0 H128 A12,12 0 0 1 140,12 V98 A12,12 0 0 1 128,110 H12 A12,12 0 0 1 0,98 V12 A12,12 0 0 1 12,0 Z" />
        <text x="70" y="30" text-anchor="middle" font-family="Microsoft YaHei, Arial" font-weight="bold" font-size="48" fill="#FF8C00">3</text>
        <text x="70" y="65" text-anchor="middle" font-family="Microsoft YaHei, Arial" font-weight="bold" font-size="20" fill="#333333">赛维斯</text>
        <text x="70" y="95" text-anchor="middle" font-family="Microsoft YaHei, Calibri" font-size="28" font-weight="bold" fill="#E65100">86分</text>
      </g>
    </g>

    
    <g transform="translate(30, 320)">
      <path fill="#4CAF50" fill-opacity="0.1" stroke="#4CAF50" stroke-width="2" d="M12,0 H488 A12,12 0 0 1 500,12 V128 A12,12 0 0 1 488,140 H12 A12,12 0 0 1 0,128 V12 A12,12 0 0 1 12,0 Z" />
      <use data-icon="chunk/check-circle" x="20" y="20" width="40" height="40" fill="#4CAF50" />
      <text x="75" y="48" font-family="Microsoft YaHei, Arial" font-weight="bold" font-size="20" fill="#2E7D32">所有供应商均通过认证</text>

      <text x="30" y="85" font-family="Microsoft YaHei, Calibri" font-size="16" fill="#333333">• 岐力：91分（第一名）</text>
      <text x="30" y="110" font-family="Microsoft YaHei, Calibri" font-size="16" fill="#333333">• 汇讯：88分（第二名）</text>
      <text x="280" y="85" font-family="Microsoft YaHei, Calibri" font-size="16" fill="#333333">• 赛维斯：86分（第三名）</text>
      <text x="280" y="110" font-family="Microsoft YaHei, Calibri" font-size="16" fill="#333333">• 华啸、广达、瀚锐均通过</text>
    </g>
  </g>

  
  <text x="60" y="695" font-family="Microsoft YaHei, Calibri" font-size="13" fill="#999999">08 | 认证规则与结果</text>
</svg>