<svg xmlns="http://www.w3.org/2000/svg" viewBox="0 0 1280 720">
  <defs>
    <filter id="cardShadow" x="-20%" y="-20%" width="140%" height="140%">
      <feDropShadow dx="0" dy="2" stdDeviation="6" flood-color="#005587" flood-opacity="0.12" />
    </filter>
  </defs>

  
  <rect width="1280" height="720" fill="#FFFFFF" />

  
  <text x="60" y="55" font-family="Microsoft YaHei, Arial" font-weight="bold" font-size="36" fill="#005587">岐力：标准化落地三阶段</text>
  <line x1="60" y1="75" x2="1220" y2="75" stroke="#E0E0E0" stroke-width="1" />

  
  <path fill="#005587" fill-opacity="0.08" d="M68,95 H1212 A8,8 0 0 1 1220,103 V127 A8,8 0 0 1 1212,135 H68 A8,8 0 0 1 60,127 V103 A8,8 0 0 1 68,95 Z" />
  <text x="80" y="122" font-family="Microsoft YaHei, Calibri" font-size="16" fill="#005587">核心策略：分阶段推进，先建立认知，再培优覆盖，最后全团队推广</text>

  
  
  <g transform="translate(60, 160)">
    <path fill="#F0F8FF" stroke="#B3D9FF" stroke-width="1" filter="url(#cardShadow)" d="M12,0 H348 A12,12 0 0 1 360,12 V468 A12,12 0 0 1 348,480 H12 A12,12 0 0 1 0,468 V12 A12,12 0 0 1 12,0 Z" />
    <path fill="#005587" d="M3,0 H357 A3,3 0 0 1 360,3 V3 A3,3 0 0 1 357,6 H3 A3,3 0 0 1 0,3 V3 A3,3 0 0 1 3,0 Z" />

    
    <path fill="#005587" d="M35,15 H85 A15,15 0 0 1 100,30 V30 A15,15 0 0 1 85,45 H35 A15,15 0 0 1 20,30 V30 A15,15 0 0 1 35,15 Z" />
    <text x="60" y="36" text-anchor="middle" font-family="Microsoft YaHei, Arial" font-weight="bold" font-size="14" fill="#FFFFFF">第一阶段</text>

    <text x="20" y="75" font-family="Microsoft YaHei, Arial" font-weight="bold" font-size="24" fill="#005587">建立初步认知</text>

    
    <g transform="translate(20, 100)">
      <path fill="#FFFFFF" stroke="#E0E0E0" stroke-width="1" d="M8,0 H312 A8,8 0 0 1 320,8 V172 A8,8 0 0 1 312,180 H8 A8,8 0 0 1 0,172 V8 A8,8 0 0 1 8,0 Z" />

      <text x="20" y="30" font-family="Microsoft YaHei, Arial" font-weight="bold" font-size="16" fill="#333333">管控重点</text>

      <g transform="translate(20, 50)">
        <circle cx="8" cy="8" r="6" fill="#005587" />
        <text x="25" y="13" font-family="Microsoft YaHei, Calibri" font-size="15" fill="#333333">管控准入端</text>
      </g>

      <g transform="translate(20, 85)">
        <circle cx="8" cy="8" r="6" fill="#005587" />
        <text x="25" y="13" font-family="Microsoft YaHei, Calibri" font-size="15" fill="#333333">执行话术模式表</text>
      </g>

      <g transform="translate(20, 120)">
        <circle cx="8" cy="8" r="6" fill="#005587" />
        <text x="25" y="13" font-family="Microsoft YaHei, Calibri" font-size="15" fill="#333333">人员画像要求</text>
      </g>

      <g transform="translate(20, 155)">
        <circle cx="8" cy="8" r="6" fill="#005587" />
        <text x="25" y="13" font-family="Microsoft YaHei, Calibri" font-size="15" fill="#333333">新人新办法老人老办法</text>
      </g>
    </g>

    
    <g transform="translate(20, 300)">
      <path fill="#005587" fill-opacity="0.05" d="M8,0 H312 A8,8 0 0 1 320,8 V152 A8,8 0 0 1 312,160 H8 A8,8 0 0 1 0,152 V8 A8,8 0 0 1 8,0 Z" />

      <text x="20" y="30" font-family="Microsoft YaHei, Arial" font-weight="bold" font-size="16" fill="#005587">目标</text>

      <g transform="translate(20, 55)">
        <text x="0" y="0" font-family="Microsoft YaHei, Calibri" font-size="15" fill="#333333">新员工手动流数据</text>
        <text x="0" y="30" font-family="Microsoft YaHei, Calibri" font-weight="bold" font-size="28" fill="#D04A02">降低 50%</text>
      </g>

      <line x1="20" y1="100" x2="300" y2="100" stroke="#E0E0E0" stroke-width="1" />

      <text x="20" y="130" font-family="Microsoft YaHei, Calibri" font-size="15" fill="#333333">管理层养成每日数据查看习惯</text>
    </g>
  </g>

  
  <g transform="translate(460, 160)">
    <path fill="#F5F8FA" stroke="#E0E0E0" stroke-width="1" filter="url(#cardShadow)" d="M12,0 H348 A12,12 0 0 1 360,12 V468 A12,12 0 0 1 348,480 H12 A12,12 0 0 1 0,468 V12 A12,12 0 0 1 12,0 Z" />
    <path fill="#0076A8" d="M3,0 H357 A3,3 0 0 1 360,3 V3 A3,3 0 0 1 357,6 H3 A3,3 0 0 1 0,3 V3 A3,3 0 0 1 3,0 Z" />

    
    <path fill="#0076A8" d="M35,15 H85 A15,15 0 0 1 100,30 V30 A15,15 0 0 1 85,45 H35 A15,15 0 0 1 20,30 V30 A15,15 0 0 1 35,15 Z" />
    <text x="60" y="36" text-anchor="middle" font-family="Microsoft YaHei, Arial" font-weight="bold" font-size="14" fill="#FFFFFF">第二阶段</text>

    <text x="20" y="75" font-family="Microsoft YaHei, Arial" font-weight="bold" font-size="24" fill="#0076A8">培优覆盖</text>

    
    <path fill="#0076A8" fill-opacity="0.1" d="M28,95 H332 A8,8 0 0 1 340,103 V122 A8,8 0 0 1 332,130 H28 A8,8 0 0 1 20,122 V103 A8,8 0 0 1 28,95 Z" />
    <text x="180" y="120" text-anchor="middle" font-family="Microsoft YaHei, Calibri" font-size="16" fill="#0076A8">2-3个月</text>

    
    <g transform="translate(20, 145)">
      <path fill="#FFFFFF" stroke="#E0E0E0" stroke-width="1" d="M8,0 H312 A8,8 0 0 1 320,8 V192 A8,8 0 0 1 312,200 H8 A8,8 0 0 1 0,192 V8 A8,8 0 0 1 8,0 Z" />

      <text x="20" y="30" font-family="Microsoft YaHei, Arial" font-weight="bold" font-size="16" fill="#333333">推进重点</text>

      <g transform="translate(20, 55)">
        <path fill="#0076A8" fill-opacity="0.1" d="M6,0 H274 A6,6 0 0 1 280,6 V29 A6,6 0 0 1 274,35 H6 A6,6 0 0 1 0,29 V6 A6,6 0 0 1 6,0 Z" />
        <text x="15" y="24" font-family="Microsoft YaHei, Calibri" font-size="15" fill="#333333">覆盖 <tspan font-weight="bold" fill="#0076A8">25%-40%</tspan> 员工</text>
      </g>

      <g transform="translate(20, 100)">
        <path fill="#0076A8" fill-opacity="0.1" d="M6,0 H274 A6,6 0 0 1 280,6 V29 A6,6 0 0 1 274,35 H6 A6,6 0 0 1 0,29 V6 A6,6 0 0 1 6,0 Z" />
        <text x="15" y="24" font-family="Microsoft YaHei, Calibri" font-size="15" fill="#333333">标准化制度管理</text>
      </g>

      <g transform="translate(20, 145)">
        <path fill="#0076A8" fill-opacity="0.1" d="M6,0 H274 A6,6 0 0 1 280,6 V29 A6,6 0 0 1 274,35 H6 A6,6 0 0 1 0,29 V6 A6,6 0 0 1 6,0 Z" />
        <text x="15" y="24" font-family="Microsoft YaHei, Calibri" font-size="15" fill="#333333">打造核心团队</text>
      </g>
    </g>

    
    <g transform="translate(20, 365)">
      <path fill="#FFF3E0" stroke="#FFE0B2" stroke-width="1" d="M8,0 H312 A8,8 0 0 1 320,8 V87 A8,8 0 0 1 312,95 H8 A8,8 0 0 1 0,87 V8 A8,8 0 0 1 8,0 Z" />
      
  <g transform="translate(15.0, 15.0) scale(1.875)" fill="#F57C00">
    <path fill-rule="evenodd" clip-rule="evenodd" d="M6.21606 15L6.10495 16H8.11726L8.22837 15H10.003C12.2105 15 14 13.2105 14 11.003C14 9.12963 12.6989 7.5076 10.8701 7.1012L9.14852 6.71864L9.45059 4H13V1H9.78393L9.89504 0H7.88273L7.77162 1H5.99699C3.78951 1 2 2.78951 2 4.99699C2 6.87037 3.30115 8.4924 5.12992 8.8988L6.85147 9.28136L6.54939 12H3V15H6.21606ZM8.5617 12H10.003C10.5536 12 11 11.5536 11 11.003C11 10.5357 10.6754 10.1311 10.2193 10.0298L8.81528 9.71776L8.5617 12ZM7.1847 6.28223L7.43828 4H5.99699C5.44637 4 5 4.44637 5 4.99699C5 5.46427 5.32455 5.86887 5.78071 5.97023L7.1847 6.28223Z" />
  </g>
      <text x="55" y="38" font-family="Microsoft YaHei, Arial" font-weight="bold" font-size="16" fill="#F57C00">专项预算支持</text>
      <text x="20" y="70" font-family="Microsoft YaHei, Calibri" font-size="14" fill="#666666">给存量30%潜力员工</text>
      <text x="20" y="88" font-family="Microsoft YaHei, Calibri" font-size="14" fill="#666666">倾斜资源</text>
    </g>
  </g>

  
  <g transform="translate(860, 160)">
    <path fill="#F1F8E9" stroke="#C5E1A5" stroke-width="1" filter="url(#cardShadow)" d="M12,0 H348 A12,12 0 0 1 360,12 V468 A12,12 0 0 1 348,480 H12 A12,12 0 0 1 0,468 V12 A12,12 0 0 1 12,0 Z" />
    <path fill="#4CAF50" d="M3,0 H357 A3,3 0 0 1 360,3 V3 A3,3 0 0 1 357,6 H3 A3,3 0 0 1 0,3 V3 A3,3 0 0 1 3,0 Z" />

    
    <path fill="#4CAF50" d="M35,15 H85 A15,15 0 0 1 100,30 V30 A15,15 0 0 1 85,45 H35 A15,15 0 0 1 20,30 V30 A15,15 0 0 1 35,15 Z" />
    <text x="60" y="36" text-anchor="middle" font-family="Microsoft YaHei, Arial" font-weight="bold" font-size="14" fill="#FFFFFF">第三阶段</text>

    <text x="20" y="75" font-family="Microsoft YaHei, Arial" font-weight="bold" font-size="24" fill="#4CAF50">全团队推广</text>

    
    <g transform="translate(20, 100)">
      <path fill="#FFFFFF" stroke="#E0E0E0" stroke-width="1" d="M8,0 H312 A8,8 0 0 1 320,8 V237 A8,8 0 0 1 312,245 H8 A8,8 0 0 1 0,237 V8 A8,8 0 0 1 8,0 Z" />

      <text x="20" y="30" font-family="Microsoft YaHei, Arial" font-weight="bold" font-size="16" fill="#333333">推进重点</text>

      <g transform="translate(20, 55)">
        <circle cx="8" cy="8" r="6" fill="#4CAF50" />
        <text x="25" y="13" font-family="Microsoft YaHei, Calibri" font-size="15" fill="#333333">验证成熟的管理制度</text>
      </g>

      <g transform="translate(20, 90)">
        <circle cx="8" cy="8" r="6" fill="#4CAF50" />
        <text x="25" y="13" font-family="Microsoft YaHei, Calibri" font-size="15" fill="#333333">工具迭代后推广</text>
      </g>

      <g transform="translate(20, 125)">
        <circle cx="8" cy="8" r="6" fill="#4CAF50" />
        <text x="25" y="13" font-family="Microsoft YaHei, Calibri" font-size="15" fill="#333333">实现全团队标准化</text>
      </g>

      <line x1="20" y1="155" x2="300" y2="155" stroke="#E0E0E0" stroke-width="1" />

      <text x="20" y="185" font-family="Microsoft YaHei, Arial" font-weight="bold" font-size="16" fill="#4CAF50">最终目标</text>
      <text x="20" y="215" font-family="Microsoft YaHei, Calibri" font-size="15" fill="#333333">所有员工按标准执行</text>
      <text x="20" y="235" font-family="Microsoft YaHei, Calibri" font-size="15" fill="#333333">管理动作系统化</text>
    </g>
  </g>

  
  <g transform="translate(60, 670)">
    <rect width="1160" height="1" fill="#E0E0E0" />
    <text x="0" y="-15" font-family="Microsoft YaHei, Calibri" font-size="14" fill="#666666">保障措施：已启动专项小组，由组织发展部和合规部牵头，所有任务绑定绩效考核</text>
  </g>

  
  <text x="60" y="695" font-family="Microsoft YaHei, Calibri" font-size="13" fill="#999999">09 | 岐力：标准化落地三阶段</text>
</svg>