<svg xmlns="http://www.w3.org/2000/svg" viewBox="0 0 1280 720">
  <defs>
    <filter id="cardShadow" x="-20%" y="-20%" width="140%" height="140%">
      <feDropShadow dx="0" dy="2" stdDeviation="6" flood-color="#005587" flood-opacity="0.12" />
    </filter>
  </defs>

  
  <rect width="1280" height="720" fill="#FFFFFF" />

  
  <text x="60" y="55" font-family="Microsoft YaHei, Arial" font-weight="bold" font-size="36" fill="#005587">汇讯：管理工具优化方向</text>
  <line x1="60" y1="75" x2="1220" y2="75" stroke="#E0E0E0" stroke-width="1" />

  
  <path fill="#005587" fill-opacity="0.08" d="M68,95 H1212 A8,8 0 0 1 1220,103 V127 A8,8 0 0 1 1212,135 H68 A8,8 0 0 1 60,127 V103 A8,8 0 0 1 68,95 Z" />
  <text x="80" y="122" font-family="Microsoft YaHei, Calibri" font-size="16" fill="#005587">核心收获：已落地BI看板和WPS智能看板，需补充夕会记录表和新人成长记录表</text>

  
  <g transform="translate(60, 160)">
    <path fill="#F1F8E9" stroke="#C5E1A5" stroke-width="1" filter="url(#cardShadow)" d="M12,0 H438 A12,12 0 0 1 450,12 V468 A12,12 0 0 1 438,480 H12 A12,12 0 0 1 0,468 V12 A12,12 0 0 1 12,0 Z" />
    <path fill="#4CAF50" d="M3,0 H447 A3,3 0 0 1 450,3 V3 A3,3 0 0 1 447,6 H3 A3,3 0 0 1 0,3 V3 A3,3 0 0 1 3,0 Z" />

    <use data-icon="chunk/check-circle" x="20" y="20" width="40" height="40" fill="#4CAF50" />
    <text x="75" y="48" font-family="Microsoft YaHei, Arial" font-weight="bold" font-size="24" fill="#4CAF50">现有工具</text>

    
    <g transform="translate(25, 85)">
      <path fill="#FFFFFF" stroke="#E0E0E0" stroke-width="1" d="M10,0 H390 A10,10 0 0 1 400,10 V110 A10,10 0 0 1 390,120 H10 A10,10 0 0 1 0,110 V10 A10,10 0 0 1 10,0 Z" />

      <use data-icon="chunk/bar-chart" x="15" y="15" width="35" height="35" fill="#4CAF50" />
      <text x="65" y="40" font-family="Microsoft YaHei, Arial" font-weight="bold" font-size="18" fill="#333333">BI看板</text>

      <g transform="translate(15, 60)">
        <text x="0" y="0" font-family="Microsoft YaHei, Calibri" font-size="15" fill="#333333">• 多维度数据追踪</text>
        <text x="0" y="25" font-family="Microsoft YaHei, Calibri" font-size="15" fill="#333333">• 分周期统计分析</text>
        <text x="0" y="50" font-family="Microsoft YaHei, Calibri" font-size="15" fill="#333333">• 分组到人数据监控</text>
      </g>
    </g>

    
    <g transform="translate(25, 220)">
      <path fill="#FFFFFF" stroke="#E0E0E0" stroke-width="1" d="M10,0 H390 A10,10 0 0 1 400,10 V110 A10,10 0 0 1 390,120 H10 A10,10 0 0 1 0,110 V10 A10,10 0 0 1 10,0 Z" />

      <use data-icon="chunk/device-mobile" x="15" y="15" width="35" height="35" fill="#4CAF50" />
      <text x="65" y="40" font-family="Microsoft YaHei, Arial" font-weight="bold" font-size="18" fill="#333333">WPS智能看板</text>

      <g transform="translate(15, 60)">
        <text x="0" y="0" font-family="Microsoft YaHei, Calibri" font-size="15" fill="#333333">• 钉钉绑定推送</text>
        <text x="0" y="25" font-family="Microsoft YaHei, Calibri" font-size="15" fill="#333333">• 定时数据报告</text>
        <text x="0" y="50" font-family="Microsoft YaHei, Calibri" font-size="15" fill="#333333">• 移动端查看</text>
      </g>
    </g>

    
    <g transform="translate(25, 355)">
      <path fill="#4CAF50" fill-opacity="0.1" stroke="#4CAF50" stroke-width="1" d="M10,0 H390 A10,10 0 0 1 400,10 V90 A10,10 0 0 1 390,100 H10 A10,10 0 0 1 0,90 V10 A10,10 0 0 1 10,0 Z" />

      <use data-icon="chunk/plus-circle" x="15" y="15" width="35" height="35" fill="#4CAF50" />
      <text x="65" y="40" font-family="Microsoft YaHei, Arial" font-weight="bold" font-size="18" fill="#4CAF50">待补充</text>

      <text x="15" y="75" font-family="Microsoft YaHei, Calibri" font-size="15" fill="#333333">• 现场大屏实时展示</text>
    </g>
  </g>

  
  <g transform="translate(540, 160)">
    <path fill="#FFF3E0" stroke="#FFE0B2" stroke-width="1" filter="url(#cardShadow)" d="M12,0 H668 A12,12 0 0 1 680,12 V468 A12,12 0 0 1 668,480 H12 A12,12 0 0 1 0,468 V12 A12,12 0 0 1 12,0 Z" />
    <path fill="#F57C00" d="M3,0 H677 A3,3 0 0 1 680,3 V3 A3,3 0 0 1 677,6 H3 A3,3 0 0 1 0,3 V3 A3,3 0 0 1 3,0 Z" />

    <use data-icon="chunk/plus-circle" x="20" y="20" width="40" height="40" fill="#F57C00" />
    <text x="75" y="48" font-family="Microsoft YaHei, Arial" font-weight="bold" font-size="24" fill="#F57C00">待补充管理工具</text>

    
    
    <g transform="translate(30, 85)">
      <path fill="#FFFFFF" stroke="#FFE0B2" stroke-width="1" d="M10,0 H610 A10,10 0 0 1 620,10 V70 A10,10 0 0 1 610,80 H10 A10,10 0 0 1 0,70 V10 A10,10 0 0 1 10,0 Z" />

      <circle cx="40" cy="40" r="20" fill="#F57C00" fill-opacity="0.2" />
      <text x="40" y="47" text-anchor="middle" font-family="Microsoft YaHei, Arial" font-weight="bold" font-size="18" fill="#F57C00">1</text>

      <text x="75" y="35" font-family="Microsoft YaHei, Arial" font-weight="bold" font-size="18" fill="#333333">夕会问题记录表</text>
      <text x="75" y="60" font-family="Microsoft YaHei, Calibri" font-size="15" fill="#666666">记录每日问题，确保闭环解决</text>
    </g>

    
    <g transform="translate(30, 180)">
      <path fill="#FFFFFF" stroke="#FFE0B2" stroke-width="1" d="M10,0 H610 A10,10 0 0 1 620,10 V70 A10,10 0 0 1 610,80 H10 A10,10 0 0 1 0,70 V10 A10,10 0 0 1 10,0 Z" />

      <circle cx="40" cy="40" r="20" fill="#F57C00" fill-opacity="0.2" />
      <text x="40" y="47" text-anchor="middle" font-family="Microsoft YaHei, Arial" font-weight="bold" font-size="18" fill="#F57C00">2</text>

      <text x="75" y="35" font-family="Microsoft YaHei, Arial" font-weight="bold" font-size="18" fill="#333333">新人30天成长记录表</text>
      <text x="75" y="60" font-family="Microsoft YaHei, Calibri" font-size="15" fill="#666666">追踪新人培训进度和能力成长</text>
    </g>

    
    <g transform="translate(30, 275)">
      <path fill="#FFFFFF" stroke="#FFE0B2" stroke-width="1" d="M10,0 H610 A10,10 0 0 1 620,10 V70 A10,10 0 0 1 610,80 H10 A10,10 0 0 1 0,70 V10 A10,10 0 0 1 10,0 Z" />

      <circle cx="40" cy="40" r="20" fill="#F57C00" fill-opacity="0.2" />
      <text x="40" y="47" text-anchor="middle" font-family="Microsoft YaHei, Arial" font-weight="bold" font-size="18" fill="#F57C00">3</text>

      <text x="75" y="35" font-family="Microsoft YaHei, Arial" font-weight="bold" font-size="18" fill="#333333">60秒非有效名单回收流程</text>
      <text x="75" y="60" font-family="Microsoft YaHei, Calibri" font-size="15" fill="#666666">提升坐席名单使用效率</text>
    </g>

    
    <g transform="translate(30, 370)">
      <path fill="#FFFFFF" stroke="#FFE0B2" stroke-width="1" d="M10,0 H610 A10,10 0 0 1 620,10 V70 A10,10 0 0 1 610,80 H10 A10,10 0 0 1 0,70 V10 A10,10 0 0 1 10,0 Z" />

      <circle cx="40" cy="40" r="20" fill="#F57C00" fill-opacity="0.2" />
      <text x="40" y="47" text-anchor="middle" font-family="Microsoft YaHei, Arial" font-weight="bold" font-size="18" fill="#F57C00">4</text>

      <text x="75" y="35" font-family="Microsoft YaHei, Arial" font-weight="bold" font-size="18" fill="#333333">标准化质检流程</text>
      <text x="75" y="60" font-family="Microsoft YaHei, Calibri" font-size="15" fill="#666666">第一时间同步问题解决方案</text>
    </g>
  </g>

  
  <text x="60" y="695" font-family="Microsoft YaHei, Calibri" font-size="13" fill="#999999">10 | 汇讯：管理工具优化方向</text>
</svg>