<svg xmlns="http://www.w3.org/2000/svg" viewBox="0 0 1280 720">
  <defs>
    <filter id="cardShadow" x="-20%" y="-20%" width="140%" height="140%">
      <feDropShadow dx="0" dy="2" stdDeviation="6" flood-color="#005587" flood-opacity="0.12" />
    </filter>
  </defs>

  
  <rect width="1280" height="720" fill="#FFFFFF" />

  
  <text x="60" y="55" font-family="Microsoft YaHei, Arial" font-weight="bold" font-size="36" fill="#005587">供应商认证收获对比</text>
  <line x1="60" y1="75" x2="1220" y2="75" stroke="#E0E0E0" stroke-width="1" />

  
  <path fill="#005587" fill-opacity="0.08" d="M68,95 H1212 A8,8 0 0 1 1220,103 V127 A8,8 0 0 1 1212,135 H68 A8,8 0 0 1 60,127 V103 A8,8 0 0 1 68,95 Z" />
  <text x="80" y="122" font-family="Microsoft YaHei, Calibri" font-size="16" fill="#005587">差异化收获：各供应商根据自身情况，制定了不同的改进重点和落地方案</text>

  
  <g transform="translate(60, 160)">
    
    <g transform="translate(0, 0)">
      <path fill="#005587" fill-opacity="0.08" stroke="#005587" stroke-width="2" d="M10,0 H1150 A10,10 0 0 1 1160,10 V65 A10,10 0 0 1 1150,75 H10 A10,10 0 0 1 0,65 V10 A10,10 0 0 1 10,0 Z" />
      <path fill="#005587" d="M3,0 H3 A3,3 0 0 1 6,3 V72 A3,3 0 0 1 3,75 H3 A3,3 0 0 1 0,72 V3 A3,3 0 0 1 3,0 Z" />

      <text x="25" y="30" font-family="Microsoft YaHei, Arial" font-weight="bold" font-size="22" fill="#005587">岐力</text>
      <text x="25" y="58" font-family="Microsoft YaHei, Calibri" font-size="16" fill="#D04A02">91分 · 第一名</text>

      <text x="150" y="30" font-family="Microsoft YaHei, Calibri" font-size="16" fill="#333333">分模块改进方案</text>
      <text x="150" y="55" font-family="Microsoft YaHei, Calibri" font-size="16" fill="#333333">三阶段落地计划 · 专项小组保障</text>

      <text x="1050" y="45" font-family="Microsoft YaHei, Arial" font-weight="bold" font-size="32" fill="#005587">91</text>
    </g>

    
    <g transform="translate(0, 90)">
      <path fill="#0076A8" fill-opacity="0.08" stroke="#0076A8" stroke-width="2" d="M10,0 H1150 A10,10 0 0 1 1160,10 V65 A10,10 0 0 1 1150,75 H10 A10,10 0 0 1 0,65 V10 A10,10 0 0 1 10,0 Z" />
      <path fill="#0076A8" d="M3,0 H3 A3,3 0 0 1 6,3 V72 A3,3 0 0 1 3,75 H3 A3,3 0 0 1 0,72 V3 A3,3 0 0 1 3,0 Z" />

      <text x="25" y="30" font-family="Microsoft YaHei, Arial" font-weight="bold" font-size="22" fill="#0076A8">汇讯</text>
      <text x="25" y="58" font-family="Microsoft YaHei, Calibri" font-size="16" fill="#D04A02">88分 · 第二名</text>

      <text x="150" y="30" font-family="Microsoft YaHei, Calibri" font-size="16" fill="#333333">管理工具复盘 · BI+WPS看板</text>
      <text x="150" y="55" font-family="Microsoft YaHei, Calibri" font-size="16" fill="#333333">补充夕会记录表 · 新人成长记录表</text>

      <text x="1050" y="45" font-family="Microsoft YaHei, Arial" font-weight="bold" font-size="32" fill="#0076A8">88</text>
    </g>

    
    <g transform="translate(0, 180)">
      <path fill="#4CAF50" fill-opacity="0.08" stroke="#4CAF50" stroke-width="2" d="M10,0 H1150 A10,10 0 0 1 1160,10 V65 A10,10 0 0 1 1150,75 H10 A10,10 0 0 1 0,65 V10 A10,10 0 0 1 10,0 Z" />
      <path fill="#4CAF50" d="M3,0 H3 A3,3 0 0 1 6,3 V72 A3,3 0 0 1 3,75 H3 A3,3 0 0 1 0,72 V3 A3,3 0 0 1 3,0 Z" />

      <text x="25" y="30" font-family="Microsoft YaHei, Arial" font-weight="bold" font-size="22" fill="#4CAF50">赛维斯</text>
      <text x="25" y="58" font-family="Microsoft YaHei, Calibri" font-size="16" fill="#D04A02">86分 · 第三名</text>

      <text x="150" y="30" font-family="Microsoft YaHei, Calibri" font-size="16" fill="#333333">人员管理优化 · 激励体系完善</text>
      <text x="150" y="55" font-family="Microsoft YaHei, Calibri" font-size="16" fill="#333333">ABC梯队建设 · 分层激励参与率</text>

      <text x="1050" y="45" font-family="Microsoft YaHei, Arial" font-weight="bold" font-size="32" fill="#4CAF50">86</text>
    </g>

    
    <g transform="translate(0, 270)">
      <path fill="#F5F8FA" stroke="#E0E0E0" stroke-width="1" d="M10,0 H1150 A10,10 0 0 1 1160,10 V65 A10,10 0 0 1 1150,75 H10 A10,10 0 0 1 0,65 V10 A10,10 0 0 1 10,0 Z" />

      <text x="25" y="30" font-family="Microsoft YaHei, Arial" font-weight="bold" font-size="22" fill="#333333">华啸</text>
      <text x="25" y="58" font-family="Microsoft YaHei, Calibri" font-size="16" fill="#666666">认证通过</text>

      <text x="150" y="30" font-family="Microsoft YaHei, Calibri" font-size="16" fill="#333333">新人培育方案 · 30天60天成长计划</text>
      <text x="150" y="55" font-family="Microsoft YaHei, Calibri" font-size="16" fill="#333333">名产分层精细化 · 客户ABCD标签</text>
    </g>

    
    <g transform="translate(0, 360)">
      <path fill="#F5F8FA" stroke="#E0E0E0" stroke-width="1" d="M10,0 H1150 A10,10 0 0 1 1160,10 V65 A10,10 0 0 1 1150,75 H10 A10,10 0 0 1 0,65 V10 A10,10 0 0 1 10,0 Z" />

      <text x="25" y="30" font-family="Microsoft YaHei, Arial" font-weight="bold" font-size="22" fill="#333333">广达</text>
      <text x="25" y="58" font-family="Microsoft YaHei, Calibri" font-size="16" fill="#666666">认证通过</text>

      <text x="150" y="30" font-family="Microsoft YaHei, Calibri" font-size="16" fill="#333333">招聘环节调整 · 师徒带教优化</text>
      <text x="150" y="55" font-family="Microsoft YaHei, Calibri" font-size="16" fill="#333333">二对一带教模式 · 复盘闭环环节</text>
    </g>

    
    <g transform="translate(0, 450)">
      <path fill="#F5F8FA" stroke="#E0E0E0" stroke-width="1" d="M10,0 H1150 A10,10 0 0 1 1160,10 V65 A10,10 0 0 1 1150,75 H10 A10,10 0 0 1 0,65 V10 A10,10 0 0 1 10,0 Z" />

      <text x="25" y="30" font-family="Microsoft YaHei, Arial" font-weight="bold" font-size="22" fill="#333333">瀚锐</text>
      <text x="25" y="58" font-family="Microsoft YaHei, Calibri" font-size="16" fill="#666666">认证通过</text>

      <text x="150" y="30" font-family="Microsoft YaHei, Calibri" font-size="16" fill="#333333">零后团队激活 · 老员工参与感提升</text>
      <text x="150" y="55" font-family="Microsoft YaHei, Calibri" font-size="16" fill="#333333">话术迭代机制 · 坐席自我总结分享</text>
    </g>
  </g>

  
  <g transform="translate(60, 670)">
    <rect width="1160" height="1" fill="#E0E0E0" />
    <text x="0" y="-15" font-family="Microsoft YaHei, Calibri" font-size="14" fill="#666666">共同收获：所有供应商均找到了自身差距，制定了差异化落地方案，明确了后续推进方向</text>
  </g>

  
  <text x="60" y="695" font-family="Microsoft YaHei, Calibri" font-size="13" fill="#999999">11 | 供应商认证收获对比</text>
</svg>