<svg xmlns="http://www.w3.org/2000/svg" viewBox="0 0 1280 720">
  <defs>
    <filter id="cardShadow" x="-20%" y="-20%" width="140%" height="140%">
      <feDropShadow dx="0" dy="2" stdDeviation="6" flood-color="#005587" flood-opacity="0.12" />
    </filter>
  </defs>

  
  <rect width="1280" height="720" fill="#FFFFFF" />

  
  <text x="60" y="55" font-family="Microsoft YaHei, Arial" font-weight="bold" font-size="36" fill="#005587">标准化落地关键指标</text>
  <line x1="60" y1="75" x2="1220" y2="75" stroke="#E0E0E0" stroke-width="1" />

  
  <path fill="#005587" fill-opacity="0.08" d="M68,95 H1212 A8,8 0 0 1 1220,103 V127 A8,8 0 0 1 1212,135 H68 A8,8 0 0 1 60,127 V103 A8,8 0 0 1 68,95 Z" />
  <text x="80" y="122" font-family="Microsoft YaHei, Calibri" font-size="16" fill="#005587">核心目标：通过可量化的指标体系，确保标准化运营落地效果可追踪、可验证</text>

  
  
  
  <g transform="translate(60, 160)">
    <path fill="#F5F8FA" stroke="#E0E0E0" stroke-width="1" filter="url(#cardShadow)" d="M12,0 H348 A12,12 0 0 1 360,12 V168 A12,12 0 0 1 348,180 H12 A12,12 0 0 1 0,168 V12 A12,12 0 0 1 12,0 Z" />
    <path fill="#005587" d="M3,0 H357 A3,3 0 0 1 360,3 V3 A3,3 0 0 1 357,6 H3 A3,3 0 0 1 0,3 V3 A3,3 0 0 1 3,0 Z" />

    
  <g transform="translate(20.0, 20.0) scale(2.5)" fill="#005587">
    <path d="M8 3.5C8 4.88071 6.88071 6 5.5 6C4.11929 6 3 4.88071 3 3.5C3 2.11929 4.11929 1 5.5 1C6.88071 1 8 2.11929 8 3.5Z" />
    <path d="M3 8C1.34315 8 0 9.34315 0 11V15H8V8H3Z" />
    <path d="M13 8H10V15H16V11C16 9.34315 14.6569 8 13 8Z" />
    <path d="M12 6C13.1046 6 14 5.10457 14 4C14 2.89543 13.1046 2 12 2C10.8954 2 10 2.89543 10 4C10 5.10457 10.8954 6 12 6Z" />
  </g>
    <text x="75" y="48" font-family="Microsoft YaHei, Arial" font-weight="bold" font-size="18" fill="#005587">人员管理</text>

    <text x="20" y="90" font-family="Microsoft YaHei, Calibri" font-size="14" fill="#666666">ABC梯队建设覆盖率</text>
    <text x="20" y="130" font-family="Microsoft YaHei, Arial" font-weight="bold" font-size="42" fill="#005587">100%</text>

    
  <g transform="translate(250.0, 100.0) scale(1.875)" fill="#4CAF50">
    <path d="M10 3L9.00001 4L11.2929 6.29289L8.50001 9.08579L5.50001 6.08579L0.292908 11.2929L1.70712 12.7071L5.50001 8.91421L8.50001 11.9142L12.7071 7.70711L15 10L16 9L16 3H10Z" />
  </g>
  </g>

  
  <g transform="translate(460, 160)">
    <path fill="#F5F8FA" stroke="#E0E0E0" stroke-width="1" filter="url(#cardShadow)" d="M12,0 H348 A12,12 0 0 1 360,12 V168 A12,12 0 0 1 348,180 H12 A12,12 0 0 1 0,168 V12 A12,12 0 0 1 12,0 Z" />
    <path fill="#0076A8" d="M3,0 H357 A3,3 0 0 1 360,3 V3 A3,3 0 0 1 357,6 H3 A3,3 0 0 1 0,3 V3 A3,3 0 0 1 3,0 Z" />

    
  <g transform="translate(20.0, 20.0) scale(2.5)" fill="#0076A8">
    <path d="M3 3V0H5C6.65685 0 8 1.34315 8 3C8 1.34315 9.34315 0 11 0H13V3H16V6H0V3H3Z" />
    <path d="M1 8H7V15H1V8Z" />
    <path d="M15 8H9V15H15V8Z" />
  </g>
    <text x="75" y="48" font-family="Microsoft YaHei, Arial" font-weight="bold" font-size="18" fill="#0076A8">激励体系</text>

    <text x="20" y="90" font-family="Microsoft YaHei, Calibri" font-size="14" fill="#666666">日周月分层激励参与率</text>
    <text x="20" y="130" font-family="Microsoft YaHei, Arial" font-weight="bold" font-size="42" fill="#0076A8">&gt;80%</text>

    
  <g transform="translate(250.0, 100.0) scale(1.875)" fill="#4CAF50">
    <path d="M10 3L9.00001 4L11.2929 6.29289L8.50001 9.08579L5.50001 6.08579L0.292908 11.2929L1.70712 12.7071L5.50001 8.91421L8.50001 11.9142L12.7071 7.70711L15 10L16 9L16 3H10Z" />
  </g>
  </g>

  
  <g transform="translate(860, 160)">
    <path fill="#F5F8FA" stroke="#E0E0E0" stroke-width="1" filter="url(#cardShadow)" d="M12,0 H348 A12,12 0 0 1 360,12 V168 A12,12 0 0 1 348,180 H12 A12,12 0 0 1 0,168 V12 A12,12 0 0 1 12,0 Z" />
    <path fill="#D04A02" d="M3,0 H357 A3,3 0 0 1 360,3 V3 A3,3 0 0 1 357,6 H3 A3,3 0 0 1 0,3 V3 A3,3 0 0 1 3,0 Z" />

    <use data-icon="chunk/bar-chart" x="20" y="20" width="40" height="40" fill="#D04A02" />
    <text x="75" y="48" font-family="Microsoft YaHei, Arial" font-weight="bold" font-size="18" fill="#D04A02">数据驱动</text>

    <text x="20" y="90" font-family="Microsoft YaHei, Calibri" font-size="14" fill="#666666">每日数据查看执行率</text>
    <text x="20" y="130" font-family="Microsoft YaHei, Arial" font-weight="bold" font-size="42" fill="#D04A02">100%</text>

    <use data-icon="chunk/check-circle" x="250" y="100" width="30" height="30" fill="#4CAF50" />
  </g>

  
  
  <g transform="translate(60, 370)">
    <path fill="#F5F8FA" stroke="#E0E0E0" stroke-width="1" filter="url(#cardShadow)" d="M12,0 H348 A12,12 0 0 1 360,12 V168 A12,12 0 0 1 348,180 H12 A12,12 0 0 1 0,168 V12 A12,12 0 0 1 12,0 Z" />
    <path fill="#4CAF50" d="M3,0 H357 A3,3 0 0 1 360,3 V3 A3,3 0 0 1 357,6 H3 A3,3 0 0 1 0,3 V3 A3,3 0 0 1 3,0 Z" />

    <use data-icon="chunk/list-details" x="20" y="20" width="40" height="40" fill="#4CAF50" />
    <text x="75" y="48" font-family="Microsoft YaHei, Arial" font-weight="bold" font-size="18" fill="#4CAF50">话术迭代</text>

    <text x="20" y="90" font-family="Microsoft YaHei, Calibri" font-size="14" fill="#666666">月度话术更新及时率</text>
    <text x="20" y="130" font-family="Microsoft YaHei, Arial" font-weight="bold" font-size="42" fill="#4CAF50">100%</text>

    <use data-icon="chunk/check-circle" x="250" y="100" width="30" height="30" fill="#4CAF50" />
  </g>

  
  <g transform="translate(460, 370)">
    <path fill="#F5F8FA" stroke="#E0E0E0" stroke-width="1" filter="url(#cardShadow)" d="M12,0 H348 A12,12 0 0 1 360,12 V168 A12,12 0 0 1 348,180 H12 A12,12 0 0 1 0,168 V12 A12,12 0 0 1 12,0 Z" />
    <path fill="#7B1FA2" d="M3,0 H357 A3,3 0 0 1 360,3 V3 A3,3 0 0 1 357,6 H3 A3,3 0 0 1 0,3 V3 A3,3 0 0 1 3,0 Z" />

    <use data-icon="chunk/calendar-clock" x="20" y="20" width="40" height="40" fill="#7B1FA2" />
    <text x="75" y="48" font-family="Microsoft YaHei, Arial" font-weight="bold" font-size="18" fill="#7B1FA2">三会执行</text>

    <text x="20" y="90" font-family="Microsoft YaHei, Calibri" font-size="14" fill="#666666">早会午会晚会达标率</text>
    <text x="20" y="130" font-family="Microsoft YaHei, Arial" font-weight="bold" font-size="42" fill="#7B1FA2">&gt;95%</text>

    
  <g transform="translate(250.0, 100.0) scale(1.875)" fill="#4CAF50">
    <path d="M10 3L9.00001 4L11.2929 6.29289L8.50001 9.08579L5.50001 6.08579L0.292908 11.2929L1.70712 12.7071L5.50001 8.91421L8.50001 11.9142L12.7071 7.70711L15 10L16 9L16 3H10Z" />
  </g>
  </g>

  
  <g transform="translate(860, 370)">
    <path fill="#F5F8FA" stroke="#E0E0E0" stroke-width="1" filter="url(#cardShadow)" d="M12,0 H348 A12,12 0 0 1 360,12 V168 A12,12 0 0 1 348,180 H12 A12,12 0 0 1 0,168 V12 A12,12 0 0 1 12,0 Z" />
    <path fill="#F57C00" d="M3,0 H357 A3,3 0 0 1 360,3 V3 A3,3 0 0 1 357,6 H3 A3,3 0 0 1 0,3 V3 A3,3 0 0 1 3,0 Z" />

    
  <g transform="translate(20.0, 20.0) scale(2.5)" fill="#F57C00">
    <path d="M13.1371 6.91018C13.4184 6.7695 13.7123 6.59981 14 6.40001V8C14 9.65685 11.3137 11 8 11C4.68629 11 2 9.65685 2 8V6.40001C2.28772 6.59981 2.58158 6.7695 2.86293 6.91018C4.28096 7.61919 6.09998 8 8 8C9.90002 8 11.719 7.61919 13.1371 6.91018Z" />
    <path d="M2 11.4V13C2 14.6569 4.68629 16 8 16C11.3137 16 14 14.6569 14 13V11.4C13.7123 11.5998 13.4184 11.7695 13.1371 11.9102C11.719 12.6192 9.90002 13 8 13C6.09998 13 4.28096 12.6192 2.86293 11.9102C2.58158 11.7695 2.28772 11.5998 2 11.4Z" />
    <path d="M8 0C11.3137 0 14 1.34315 14 3C14 4.65685 11.3137 6 8 6C4.68629 6 2 4.65685 2 3C2 1.34315 4.68629 0 8 0Z" />
  </g>
    <text x="75" y="48" font-family="Microsoft YaHei, Arial" font-weight="bold" font-size="18" fill="#F57C00">名单效率</text>

    <text x="20" y="90" font-family="Microsoft YaHei, Calibri" font-size="14" fill="#666666">名单利用率提升</text>
    <text x="20" y="130" font-family="Microsoft YaHei, Arial" font-weight="bold" font-size="42" fill="#F57C00">&gt;30%</text>

    
  <g transform="translate(250.0, 100.0) scale(1.875)" fill="#4CAF50">
    <path d="M10 3L9.00001 4L11.2929 6.29289L8.50001 9.08579L5.50001 6.08579L0.292908 11.2929L1.70712 12.7071L5.50001 8.91421L8.50001 11.9142L12.7071 7.70711L15 10L16 9L16 3H10Z" />
  </g>
  </g>

  
  <g transform="translate(60, 580)">
    <path fill="#005587" fill-opacity="0.05" d="M12,0 H1148 A12,12 0 0 1 1160,12 V48 A12,12 0 0 1 1148,60 H12 A12,12 0 0 1 0,48 V12 A12,12 0 0 1 12,0 Z" />
    <use data-icon="chunk/info" x="20" y="15" width="30" height="30" fill="#005587" />
    <text x="65" y="38" font-family="Microsoft YaHei, Calibri" font-size="16" fill="#333333">指标说明：以上指标为标准化运营落地的关键成功要素，需定期追踪、公开公示、与绩效挂钩</text>
  </g>

  
  <text x="60" y="695" font-family="Microsoft YaHei, Calibri" font-size="13" fill="#999999">13 | 标准化落地关键指标</text>
</svg>