<svg xmlns="http://www.w3.org/2000/svg" viewBox="0 0 1280 720">
  <defs>
    <linearGradient id="bgGradient" x1="0%" y1="0%" x2="100%" y2="100%">
      <stop offset="0%" stop-color="#005587" />
      <stop offset="100%" stop-color="#0076A8" />
    </linearGradient>
    <radialGradient id="decorGlow" cx="20%" cy="20%" r="40%">
      <stop offset="0%" stop-color="#FFFFFF" stop-opacity="0.15" />
      <stop offset="100%" stop-color="#FFFFFF" stop-opacity="0" />
    </radialGradient>
  </defs>

  
  <rect width="1280" height="720" fill="url(#bgGradient)" />
  <rect width="1280" height="720" fill="url(#decorGlow)" />

  
  <rect x="0" y="0" width="1280" height="8" fill="#D04A02" />

  
  <g transform="translate(640, 280)">
    
    <circle cx="0" cy="-120" r="56" fill="#FFFFFF" fill-opacity="0.15" />
    <circle cx="0" cy="-120" r="48" fill="#FFFFFF" fill-opacity="0.25" />
    
  <g transform="translate(-24.0, -144.0) scale(3.0)" fill="#FFFFFF">
    <path d="M8 3.5C8 4.88071 6.88071 6 5.5 6C4.11929 6 3 4.88071 3 3.5C3 2.11929 4.11929 1 5.5 1C6.88071 1 8 2.11929 8 3.5Z" />
    <path d="M3 8C1.34315 8 0 9.34315 0 11V15H8V8H3Z" />
    <path d="M13 8H10V15H16V11C16 9.34315 14.6569 8 13 8Z" />
    <path d="M12 6C13.1046 6 14 5.10457 14 4C14 2.89543 13.1046 2 12 2C10.8954 2 10 2.89543 10 4C10 5.10457 10.8954 6 12 6Z" />
  </g>

    
    <text text-anchor="middle" y="20" font-family="Microsoft YaHei, Arial" font-weight="bold" font-size="56" fill="#FFFFFF">携手推进，共创价值</text>

    
    <text text-anchor="middle" y="70" font-family="Microsoft YaHei, Calibri" font-size="22" fill="#FFFFFF" fill-opacity="0.9">BPO供应商联盟 · 标准化运营落地</text>
  </g>

  
  <g transform="translate(190, 400)">
    <path fill="#FFFFFF" fill-opacity="0.15" d="M16,0 H264 A16,16 0 0 1 280,16 V164 A16,16 0 0 1 264,180 H16 A16,16 0 0 1 0,164 V16 A16,16 0 0 1 16,0 Z" />
    <path fill="none" stroke="#FFFFFF" stroke-opacity="0.3" stroke-width="2" d="M16,0 H264 A16,16 0 0 1 280,16 V164 A16,16 0 0 1 264,180 H16 A16,16 0 0 1 0,164 V16 A16,16 0 0 1 16,0 Z" />

    <use data-icon="chunk/check-circle" x="30" y="25" width="40" height="40" fill="#FFFFFF" />
    <text x="85" y="53" font-family="Microsoft YaHei, Arial" font-weight="bold" font-size="20" fill="#FFFFFF">认证通过</text>

    <text x="30" y="100" font-family="Microsoft YaHei, Calibri" font-size="16" fill="#FFFFFF" fill-opacity="0.9">所有供应商</text>
    <text x="30" y="130" font-family="Microsoft YaHei, Calibri" font-size="16" fill="#FFFFFF" fill-opacity="0.9">均通过认证</text>
    <text x="30" y="160" font-family="Microsoft YaHei, Calibri" font-size="16" fill="#FFFFFF" fill-opacity="0.9">明确改进方向</text>
  </g>

  <g transform="translate(500, 400)">
    <path fill="#FFFFFF" fill-opacity="0.15" d="M16,0 H264 A16,16 0 0 1 280,16 V164 A16,16 0 0 1 264,180 H16 A16,16 0 0 1 0,164 V16 A16,16 0 0 1 16,0 Z" />
    <path fill="none" stroke="#FFFFFF" stroke-opacity="0.3" stroke-width="2" d="M16,0 H264 A16,16 0 0 1 280,16 V164 A16,16 0 0 1 264,180 H16 A16,16 0 0 1 0,164 V16 A16,16 0 0 1 16,0 Z" />

    
  <g transform="translate(30.0, 25.0) scale(2.5)" fill="#FFFFFF">
    <path fill-rule="evenodd" clip-rule="evenodd" d="M8 4C5.79086 4 4 5.79086 4 8C4 10.2091 5.79086 12 8 12C10.2091 12 12 10.2091 12 8C12 5.79086 10.2091 4 8 4ZM6 8C6 6.89543 6.89543 6 8 6C9.10457 6 10 6.89543 10 8C10 9.10457 9.10457 10 8 10C6.89543 10 6 9.10457 6 8Z" />
    <path fill-rule="evenodd" clip-rule="evenodd" d="M8 0C3.58172 0 0 3.58172 0 8C0 12.4183 3.58172 16 8 16C12.4183 16 16 12.4183 16 8C16 3.58172 12.4183 0 8 0ZM2 8C2 4.68629 4.68629 2 8 2C11.3137 2 14 4.68629 14 8C14 11.3137 11.3137 14 8 14C4.68629 14 2 11.3137 2 8Z" />
  </g>
    <text x="85" y="53" font-family="Microsoft YaHei, Arial" font-weight="bold" font-size="20" fill="#FFFFFF">落地方案</text>

    <text x="30" y="100" font-family="Microsoft YaHei, Calibri" font-size="16" fill="#FFFFFF" fill-opacity="0.9">差异化改进</text>
    <text x="30" y="130" font-family="Microsoft YaHei, Calibri" font-size="16" fill="#FFFFFF" fill-opacity="0.9">三阶段推进</text>
    <text x="30" y="160" font-family="Microsoft YaHei, Calibri" font-size="16" fill="#FFFFFF" fill-opacity="0.9">可量化指标</text>
  </g>

  <g transform="translate(810, 400)">
    <path fill="#FFFFFF" fill-opacity="0.15" d="M16,0 H264 A16,16 0 0 1 280,16 V164 A16,16 0 0 1 264,180 H16 A16,16 0 0 1 0,164 V16 A16,16 0 0 1 16,0 Z" />
    <path fill="none" stroke="#FFFFFF" stroke-opacity="0.3" stroke-width="2" d="M16,0 H264 A16,16 0 0 1 280,16 V164 A16,16 0 0 1 264,180 H16 A16,16 0 0 1 0,164 V16 A16,16 0 0 1 16,0 Z" />

    <use data-icon="chunk/trending-up" x="30" y="25" width="40" height="40" fill="#FFFFFF" />
    <text x="85" y="53" font-family="Microsoft YaHei, Arial" font-weight="bold" font-size="20" fill="#FFFFFF">持续开放</text>

    <text x="30" y="100" font-family="Microsoft YaHei, Calibri" font-size="16" fill="#FFFFFF" fill-opacity="0.9">联盟持续共享</text>
    <text x="30" y="130" font-family="Microsoft YaHei, Calibri" font-size="16" fill="#FFFFFF" fill-opacity="0.9">提升整体产能</text>
    <text x="30" y="160" font-family="Microsoft YaHei, Calibri" font-size="16" fill="#FFFFFF" fill-opacity="0.9">携手共进发展</text>
  </g>

  
  <path fill="#D04A02" d="M542,650 H738 A2,2 0 0 1 740,652 V652 A2,2 0 0 1 738,654 H542 A2,2 0 0 1 540,652 V652 A2,2 0 0 1 542,650 Z" />

  
  <text x="60" y="695" font-family="Microsoft YaHei, Calibri" font-size="13" fill="#FFFFFF" fill-opacity="0.7">供应商联盟认证总结会 | 2026年4月</text>
  <text x="1220" y="695" text-anchor="end" font-family="Microsoft YaHei, Calibri" font-size="13" fill="#FFFFFF" fill-opacity="0.7">14</text>
</svg>