<svg xmlns="http://www.w3.org/2000/svg" viewBox="0 0 1280 720" width="1280" height="720">
  <rect width="1280" height="720" fill="#FFFFFF"/>
  <rect x="0" y="0" width="1280" height="4" fill="#2ec4b6"/>

  <!-- Title -->
  <text x="80" y="80" font-family="Microsoft YaHei" font-size="40" font-weight="700" fill="#2ec4b6">关于这本书 📖</text>
  <rect x="80" y="100" width="100" height="4" fill="#ff9f1c"/>

  <!-- Author card -->
  <rect x="80" y="140" width="550" height="100" rx="16" fill="#F0FAF9"/>
  <rect x="80" y="140" width="6" height="100" rx="3" fill="#2ec4b6"/>
  <text x="120" y="180" font-family="Microsoft YaHei" font-size="22" font-weight="700" fill="#333333">作者：儒勒·凡尔纳（法国）</text>
  <text x="120" y="210" font-family="Microsoft YaHei" font-size="16" fill="#666666">1828 - 1905 · 被称为"科幻小说之父"</text>

  <!-- Series card -->
  <rect x="80" y="265" width="550" height="140" rx="16" fill="#FFF3E0"/>
  <rect x="80" y="265" width="6" height="140" rx="3" fill="#ff9f1c"/>
  <text x="120" y="305" font-family="Microsoft YaHei" font-size="20" font-weight="700" fill="#333333">科幻三部曲</text>
  <text x="120" y="335" font-family="Microsoft YaHei" font-size="16" fill="#666666">①《格兰特船长的儿女》</text>
  <text x="120" y="360" font-family="Microsoft YaHei" font-size="16" fill="#666666">②《海底两万里》</text>
  <text x="120" y="385" font-family="Microsoft YaHei" font-size="16" fill="#ff9f1c" font-weight="700">③《神秘岛》 ← 就是这本！</text>

  <!-- Year card -->
  <rect x="80" y="430" width="550" height="70" rx="16" fill="#FFF8E1"/>
  <text x="120" y="460" font-family="Microsoft YaHei" font-size="18" fill="#333333">📅 1874 年出版，已经 150 多年了！</text>

  <!-- Big summary box - right side -->
  <rect x="660" y="140" width="540" height="380" rx="16" fill="#FFFFFF" stroke="#2ec4b6" stroke-width="2"/>
  <rect x="660" y="140" width="540" height="6" rx="3" fill="#2ec4b6"/>

  <!-- Summary emoji -->
  <text x="720" y="230" font-family="Segoe UI Emoji, Apple Color Emoji, Noto Color Emoji" font-size="60">📖</text>

  <!-- Summary text -->
  <text x="800" y="210" font-family="Microsoft YaHei" font-size="24" font-weight="700" fill="#2ec4b6">一句话介绍</text>
  <text x="700" y="270" font-family="Microsoft YaHei" font-size="22" fill="#333333">五个遇难的人，飘到荒岛上。</text>
  <text x="700" y="310" font-family="Microsoft YaHei" font-size="22" fill="#333333">他们什么都有——</text>
  <text x="700" y="350" font-family="Microsoft YaHei" font-size="22" font-weight="700" fill="#ff9f1c">智慧和双手，</text>
  <text x="700" y="390" font-family="Microsoft YaHei" font-size="22" fill="#333333">把荒岛变成了美丽的家园！</text>

  <!-- Decorative dots -->
  <circle cx="1100" cy="90" r="8" fill="#ffbf69" fill-opacity="0.5"/>
  <circle cx="1150" cy="130" r="5" fill="#2ec4b6" fill-opacity="0.3"/>

  <!-- Page badge -->
  <rect x="1180" y="660" width="36" height="28" rx="6" fill="#2ec4b6"/>
  <text x="1198" y="679" text-anchor="middle" font-family="Arial" font-size="13" font-weight="700" fill="#FFFFFF">2</text>
</svg>
