<svg xmlns="http://www.w3.org/2000/svg" viewBox="0 0 1280 720" width="1280" height="720">
  <rect width="1280" height="720" fill="#FFFFFF"/>
  <rect x="0" y="0" width="1280" height="4" fill="#2ec4b6"/>

  <!-- Title -->
  <text x="80" y="80" font-family="Microsoft YaHei" font-size="40" font-weight="700" fill="#2ec4b6">认识岛上的英雄们 ⭐</text>

  <!-- Row 1 -->
  <rect x="60" y="120" width="380" height="120" rx="16" fill="#F0FAF9"/>
  <rect x="60" y="120" width="6" height="120" rx="3" fill="#2ec4b6"/>
  <circle cx="115" cy="165" r="28" fill="#2ec4b6" fill-opacity="0.15"/>
  <text x="115" y="174" text-anchor="middle" font-family="Segoe UI Emoji, Apple Color Emoji, Noto Color Emoji" font-size="28">🧠</text>
  <text x="160" y="160" font-family="Microsoft YaHei" font-size="20" font-weight="700" fill="#333333">赛勒斯·史密斯</text>
  <text x="160" y="185" font-family="Microsoft YaHei" font-size="14" fill="#666666">铁路工程师，知识渊博，团队的大脑</text>
  <text x="160" y="210" font-family="Microsoft YaHei" font-size="12" fill="#2ec4b6" font-weight="700">团队领导者</text>

  <rect x="460" y="120" width="380" height="120" rx="16" fill="#FFF3E0"/>
  <rect x="460" y="120" width="6" height="120" rx="3" fill="#ff9f1c"/>
  <circle cx="515" cy="165" r="28" fill="#ff9f1c" fill-opacity="0.15"/>
  <text x="515" y="174" text-anchor="middle" font-family="Segoe UI Emoji, Apple Color Emoji, Noto Color Emoji" font-size="28">📝</text>
  <text x="560" y="160" font-family="Microsoft YaHei" font-size="20" font-weight="700" fill="#333333">吉丁·史佩莱</text>
  <text x="560" y="185" font-family="Microsoft YaHei" font-size="14" fill="#666666">通讯记者，什么都写下来</text>
  <text x="560" y="210" font-family="Microsoft YaHei" font-size="12" fill="#ff9f1c" font-weight="700">记录者</text>

  <rect x="860" y="120" width="360" height="120" rx="16" fill="#FFF8E1"/>
  <rect x="860" y="120" width="6" height="120" rx="3" fill="#ffbf69"/>
  <circle cx="915" cy="165" r="28" fill="#ffbf69" fill-opacity="0.15"/>
  <text x="915" y="174" text-anchor="middle" font-family="Segoe UI Emoji, Apple Color Emoji, Noto Color Emoji" font-size="28">🍳</text>
  <text x="960" y="160" font-family="Microsoft YaHei" font-size="20" font-weight="700" fill="#333333">纳布</text>
  <text x="960" y="185" font-family="Microsoft YaHei" font-size="14" fill="#666666">史密斯的仆人，忠心耿耿</text>
  <text x="960" y="210" font-family="Microsoft YaHei" font-size="12" fill="#ffbf69" font-weight="700">温暖守护</text>

  <!-- Row 2 -->
  <rect x="60" y="270" width="380" height="120" rx="16" fill="#F0FAF9"/>
  <rect x="60" y="270" width="6" height="120" rx="3" fill="#2ec4b6"/>
  <circle cx="115" cy="315" r="28" fill="#2ec4b6" fill-opacity="0.15"/>
  <text x="115" y="324" text-anchor="middle" font-family="Segoe UI Emoji, Apple Color Emoji, Noto Color Emoji" font-size="28">⚓</text>
  <text x="160" y="310" font-family="Microsoft YaHei" font-size="20" font-weight="700" fill="#333333">潘克洛夫</text>
  <text x="160" y="335" font-family="Microsoft YaHei" font-size="14" fill="#666666">水手，意志坚定，造船高手</text>
  <text x="160" y="360" font-family="Microsoft YaHei" font-size="12" fill="#2ec4b6" font-weight="700">动手达人</text>

  <rect x="460" y="270" width="380" height="120" rx="16" fill="#FFF3E0"/>
  <rect x="460" y="270" width="6" height="120" rx="3" fill="#ff9f1c"/>
  <circle cx="515" cy="315" r="28" fill="#ff9f1c" fill-opacity="0.15"/>
  <text x="515" y="324" text-anchor="middle" font-family="Segoe UI Emoji, Apple Color Emoji, Noto Color Emoji" font-size="28">🧒</text>
  <text x="560" y="310" font-family="Microsoft YaHei" font-size="20" font-weight="700" fill="#333333">赫伯特</text>
  <text x="560" y="335" font-family="Microsoft YaHei" font-size="14" fill="#666666">15 岁少年，勇敢好学</text>
  <text x="560" y="360" font-family="Microsoft YaHei" font-size="12" fill="#ff9f1c" font-weight="700">和你差不多大！</text>

  <rect x="860" y="270" width="360" height="120" rx="16" fill="#FFF8E1"/>
  <rect x="860" y="270" width="6" height="120" rx="3" fill="#ffbf69"/>
  <circle cx="915" cy="315" r="28" fill="#ffbf69" fill-opacity="0.15"/>
  <text x="915" y="324" text-anchor="middle" font-family="Segoe UI Emoji, Apple Color Emoji, Noto Color Emoji" font-size="28">🤝</text>
  <text x="960" y="310" font-family="Microsoft YaHei" font-size="20" font-weight="700" fill="#333333">艾尔通</text>
  <text x="960" y="335" font-family="Microsoft YaHei" font-size="14" fill="#666666">后来加入，改过自新</text>
  <text x="960" y="360" font-family="Microsoft YaHei" font-size="12" fill="#ffbf69" font-weight="700">迷途知返</text>

  <!-- Dog card -->
  <rect x="60" y="420" width="560" height="80" rx="16" fill="#F0FAF9" stroke="#2ec4b6" stroke-width="1"/>
  <text x="100" y="468" font-family="Segoe UI Emoji, Apple Color Emoji, Noto Color Emoji" font-size="40">🐕</text>
  <text x="160" y="458" font-family="Microsoft YaHei" font-size="20" font-weight="700" fill="#333333">托普</text>
  <text x="160" y="485" font-family="Microsoft YaHei" font-size="15" fill="#666666">忠诚的狗，救了主人的命！</text>

  <!-- Orangutan card -->
  <rect x="650" y="420" width="570" height="80" rx="16" fill="#FFF3E0" stroke="#ff9f1c" stroke-width="1"/>
  <text x="690" y="468" font-family="Segoe UI Emoji, Apple Color Emoji, Noto Color Emoji" font-size="40">🦧</text>
  <text x="750" y="458" font-family="Microsoft YaHei" font-size="20" font-weight="700" fill="#333333">朱普</text>
  <text x="750" y="485" font-family="Microsoft YaHei" font-size="15" fill="#666666">被驯养的猩猩，会帮忙干活，像家里的小成员！</text>

  <!-- Fun note -->
  <rect x="80" y="540" width="1120" height="60" rx="16" fill="#FFF8E1"/>
  <text x="140" y="575" font-family="Microsoft YaHei" font-size="17" fill="#666666">💡 赫伯特 15 岁，比二年级的哥哥姐姐大一些，他可勇敢了！</text>

  <!-- Decorative dots -->
  <circle cx="1100" cy="90" r="8" fill="#ffbf69" fill-opacity="0.5"/>

  <!-- Page badge -->
  <rect x="1180" y="660" width="36" height="28" rx="6" fill="#2ec4b6"/>
  <text x="1198" y="679" text-anchor="middle" font-family="Arial" font-size="13" font-weight="700" fill="#FFFFFF">4</text>
</svg>
