<svg xmlns="http://www.w3.org/2000/svg" viewBox="0 0 1280 720" width="1280" height="720">
  <rect width="1280" height="720" fill="#FFFFFF"/>
  <rect x="0" y="0" width="1280" height="4" fill="#2ec4b6"/>

  <!-- Title -->
  <text x="80" y="80" font-family="Microsoft YaHei" font-size="40" font-weight="700" fill="#2ec4b6">他们住在哪？🏠</text>
  <rect x="80" y="100" width="100" height="4" fill="#ff9f1c"/>

  <!-- Left side: Tent (before) -->
  <rect x="80" y="150" width="530" height="260" rx="16" fill="#F0FAF9"/>
  <rect x="80" y="150" width="6" height="260" rx="3" fill="#2ec4b6"/>
  <text x="120" y="195" font-family="Microsoft YaHei" font-size="18" fill="#2ec4b6" font-weight="700">一开始</text>

  <!-- Tent emoji large -->
  <text x="340" y="290" text-anchor="middle" font-family="Segoe UI Emoji, Apple Color Emoji, Noto Color Emoji" font-size="80">⛺</text>
  <text x="120" y="280" font-family="Microsoft YaHei" font-size="16" fill="#666666">用树枝和帆布</text>
  <text x="120" y="305" font-family="Microsoft YaHei" font-size="16" fill="#666666">搭了临时帐篷</text>
  <text x="120" y="330" font-family="Microsoft YaHei" font-size="16" fill="#666666">只能遮风挡雨</text>

  <!-- Arrow -->
  <text x="640" y="300" text-anchor="middle" font-family="Arial" font-size="40" fill="#ff9f1c" font-weight="700">→</text>

  <!-- Right side: Granite House (after) -->
  <rect x="680" y="150" width="520" height="260" rx="16" fill="#FFF3E0"/>
  <rect x="680" y="150" width="6" height="260" rx="3" fill="#ff9f1c"/>
  <text x="720" y="195" font-family="Microsoft YaHei" font-size="18" fill="#ff9f1c" font-weight="700">后来</text>

  <!-- House emoji large -->
  <text x="940" y="290" text-anchor="middle" font-family="Segoe UI Emoji, Apple Color Emoji, Noto Color Emoji" font-size="80">🏛️</text>
  <text x="720" y="280" font-family="Microsoft YaHei" font-size="16" fill="#666666">发现悬崖上的大洞穴</text>
  <text x="720" y="305" font-family="Microsoft YaHei" font-size="16" fill="#666666">改造成了"花岗岩宫"</text>
  <text x="720" y="330" font-family="Microsoft YaHei" font-size="16" fill="#666666">有客厅、卧室、仓库！</text>

  <!-- Bottom: Fun facts -->
  <rect x="80" y="440" width="530" height="120" rx="16" fill="#FFF8E1"/>
  <text x="120" y="480" font-family="Microsoft YaHei" font-size="20" font-weight="700" fill="#333333">🦧 朱普的家</text>
  <text x="120" y="510" font-family="Microsoft YaHei" font-size="16" fill="#666666">他们驯养了一只猩猩叫"朱普"</text>
  <text x="120" y="535" font-family="Microsoft YaHei" font-size="16" fill="#666666">朱普会帮忙干活，端盘子、擦桌子</text>
  <text x="120" y="480" text-anchor="start"></text>

  <rect x="630" y="440" width="570" height="120" rx="16" fill="#F0FAF9"/>
  <text x="670" y="480" font-family="Microsoft YaHei" font-size="20" font-weight="700" fill="#333333">🪟 花岗岩宫长什么样？</text>
  <text x="670" y="510" font-family="Microsoft YaHei" font-size="16" fill="#666666">建在悬崖峭壁上，外面看不到里面</text>
  <text x="670" y="535" font-family="Microsoft YaHei" font-size="16" fill="#666666">有绳梯进出，非常安全！</text>

  <!-- Tag -->
  <rect x="80" y="590" width="1120" height="50" rx="16" fill="#FFFFFF" stroke="#2ec4b6" stroke-width="1"/>
  <text x="640" y="620" text-anchor="middle" font-family="Microsoft YaHei" font-size="17" fill="#2ec4b6" font-weight="700">💡 花岗岩宫 = Granite House，是他们在岛上的大本营</text>

  <!-- Decorative dots -->
  <circle cx="1100" cy="90" r="8" fill="#2ec4b6" fill-opacity="0.3"/>

  <!-- Page badge -->
  <rect x="1180" y="660" width="36" height="28" rx="6" fill="#2ec4b6"/>
  <text x="1198" y="679" text-anchor="middle" font-family="Arial" font-size="13" font-weight="700" fill="#FFFFFF">6</text>
</svg>
