<svg xmlns="http://www.w3.org/2000/svg" viewBox="0 0 1280 720" width="1280" height="720">
  <rect width="1280" height="720" fill="#FFFFFF"/>
  <rect x="0" y="0" width="1280" height="4" fill="#2ec4b6"/>

  <!-- Title -->
  <text x="80" y="80" font-family="Microsoft YaHei" font-size="40" font-weight="700" fill="#2ec4b6">我学到的道理 💡</text>
  <rect x="80" y="100" width="100" height="4" fill="#ff9f1c"/>

  <!-- Lesson 1 -->
  <rect x="80" y="140" width="540" height="160" rx="16" fill="#F0FAF9"/>
  <rect x="80" y="140" width="6" height="160" rx="3" fill="#2ec4b6"/>
  <text x="120" y="185" font-family="Microsoft YaHei" font-size="22" font-weight="700" fill="#2ec4b6">1. 团结就是力量</text>
  <text x="100" y="225" font-family="Microsoft YaHei" font-size="16" fill="#333333">六个人从一无所有到建立家园，</text>
  <text x="100" y="250" font-family="Microsoft YaHei" font-size="16" fill="#333333">靠的不是一个人厉害，而是</text>
  <text x="100" y="275" font-family="Microsoft YaHei" font-size="16" fill="#2ec4b6" font-weight="700">每个人发挥自己的特长！</text>

  <!-- Lesson 2 -->
  <rect x="660" y="140" width="540" height="160" rx="16" fill="#FFF3E0"/>
  <rect x="660" y="140" width="6" height="160" rx="3" fill="#ff9f1c"/>
  <text x="700" y="185" font-family="Microsoft YaHei" font-size="22" font-weight="700" fill="#ff9f1c">2. 知识改变命运</text>
  <text x="680" y="225" font-family="Microsoft YaHei" font-size="16" fill="#333333">工程师用科学方法生火、制陶、</text>
  <text x="680" y="250" font-family="Microsoft YaHei" font-size="16" fill="#333333">炼铁、造船——知识是最强的</text>
  <text x="680" y="275" font-family="Microsoft YaHei" font-size="16" fill="#ff9f1c" font-weight="700">"超能力"！</text>

  <!-- Lesson 3 -->
  <rect x="80" y="330" width="540" height="160" rx="16" fill="#FFF8E1"/>
  <rect x="80" y="330" width="6" height="160" rx="3" fill="#ffbf69"/>
  <text x="120" y="375" font-family="Microsoft YaHei" font-size="22" font-weight="700" fill="#ffbf69">3. 永不放弃</text>
  <text x="100" y="415" font-family="Microsoft YaHei" font-size="16" fill="#333333">荒岛上没有食物、没有房子、</text>
  <text x="100" y="440" font-family="Microsoft YaHei" font-size="16" fill="#333333">还有海盗和火山……但他们</text>
  <text x="100" y="465" font-family="Microsoft YaHei" font-size="16" fill="#ffbf69" font-weight="700">从来没有说"算了吧"！</text>

  <!-- Lesson 4 -->
  <rect x="660" y="330" width="540" height="160" rx="16" fill="#F0FAF9"/>
  <rect x="660" y="330" width="6" height="160" rx="3" fill="#2ec4b6"/>
  <text x="700" y="375" font-family="Microsoft YaHei" font-size="22" font-weight="700" fill="#2ec4b6">4. 善意会有回报</text>
  <text x="680" y="415" font-family="Microsoft YaHei" font-size="16" fill="#333333">他们救了艾尔通，后来艾尔通</text>
  <text x="680" y="440" font-family="Microsoft YaHei" font-size="16" fill="#333333">成了最忠实的伙伴。尼摩船长</text>
  <text x="680" y="465" font-family="Microsoft YaHei" font-size="16" fill="#2ec4b6" font-weight="700">默默帮助他们，因为值得！</text>

  <!-- Interactive Question -->
  <rect x="80" y="530" width="1120" height="130" rx="20" fill="#2ec4b6"/>
  <text x="640" y="575" text-anchor="middle" font-family="Microsoft YaHei" font-size="26" font-weight="700" fill="#FFFFFF">🙋 互动时间！</text>
  <text x="640" y="615" text-anchor="middle" font-family="Microsoft YaHei" font-size="20" fill="#E0F7F5">如果你流落荒岛，你最想带什么东西？为什么？</text>

  <!-- Decorative dots -->
  <circle cx="1100" cy="90" r="8" fill="#2ec4b6" fill-opacity="0.3"/>

  <!-- Page badge -->
  <rect x="1180" y="660" width="36" height="28" rx="6" fill="#2ec4b6"/>
  <text x="1198" y="679" text-anchor="middle" font-family="Arial" font-size="13" font-weight="700" fill="#FFFFFF">10</text>
</svg>
