<svg width="1280" height="720" viewBox="0 0 1280 720" xmlns="http://www.w3.org/2000/svg">
<defs><style>
  :root { --brand-primary: #1677FF; }
</style></defs>
<rect width="1280" height="720" fill="#FFFFFF"/>
<rect x="0" y="0" width="1280" height="3" fill="#1677FF"/>
<text x="40" y="22" font-family="Microsoft YaHei,sans-serif" font-size="11" fill="#888888">Q2 工作规划 · 2026年5月</text>
<text x="1240" y="22" text-anchor="end" font-family="Microsoft YaHei,sans-serif" font-size="11" font-weight="bold" fill="#1677FF">供应商管理BP</text>
<line x1="40" y1="30" x2="1240" y2="30" stroke="#E2E2E2" stroke-width="0.5"/>
<text x="40" y="60" font-family="Microsoft YaHei,sans-serif" font-size="12" fill="#888888" letter-spacing="2">WORK PLANNING · 十大落地项目</text>
<text x="40" y="120" font-family="Songti SC,SimSun,serif" font-size="48" font-weight="bold" fill="#1A1A1A">Q2 供应商管理BP</text>
<text x="40" y="180" font-family="Songti SC,SimSun,serif" font-size="48" font-weight="bold" fill="#1A1A1A">工作规划</text>
<rect x="40" y="196" width="80" height="4" fill="#1677FF"/>
<text x="40" y="240" font-family="Microsoft YaHei,sans-serif" font-size="18" fill="#555555">十大落地项目 · 从被动响应到主动管理</text>
<rect x="40" y="280" width="100" height="28" rx="4" fill="#1677FF"/>
<text x="52" y="299" font-family="Microsoft YaHei,sans-serif" font-size="12" fill="#FFFFFF">30+ 供应商</text>
<rect x="150" y="280" width="60" height="28" rx="4" fill="#F5F5F5"/>
<text x="162" y="299" font-family="Microsoft YaHei,sans-serif" font-size="12" fill="#333333">4-6月</text>
<rect x="220" y="280" width="90" height="28" rx="4" fill="#F5F5F5"/>
<text x="232" y="299" font-family="Microsoft YaHei,sans-serif" font-size="12" fill="#333333">三阶段推进</text>
<rect x="320" y="280" width="80" height="28" rx="4" fill="#F5F5F5"/>
<text x="332" y="299" font-family="Microsoft YaHei,sans-serif" font-size="12" fill="#333333">数据驱动</text>
<line x1="40" y1="690" x2="1240" y2="690" stroke="#E2E2E2" stroke-width="0.5"/>
<text x="40" y="708" font-family="Microsoft YaHei,sans-serif" font-size="11" fill="#888888">年老师 · 2026-05</text>
<text x="1240" y="708" text-anchor="end" font-family="Microsoft YaHei,sans-serif" font-size="11" fill="#888888">1 / 13</text>
</svg>
