<svg width="1280" height="720" viewBox="0 0 1280 720" xmlns="http://www.w3.org/2000/svg">
<rect width="1280" height="720" fill="#FFFFFF"/>
<rect x="0" y="0" width="1280" height="3" fill="#1677FF"/>
<text x="40" y="22" font-family="Microsoft YaHei,sans-serif" font-size="11" fill="#888888">阶段二 · 核心供应商保留</text>
<text x="1240" y="22" text-anchor="end" font-family="Microsoft YaHei,sans-serif" font-size="11" font-weight="bold" fill="#1677FF">供应商管理BP</text>
<line x1="40" y1="30" x2="1240" y2="30" stroke="#E2E2E2" stroke-width="0.5"/>
<rect x="40" y="36" width="3" height="52" fill="#1677FF"/>
<text x="52" y="70" font-family="Songti SC,SimSun,serif" font-size="22" font-weight="bold" fill="#1A1A1A">核心供应商保留：健康档案 + 三级预警 + 激励包</text>
<line x1="40" y1="94" x2="1240" y2="94" stroke="#E2E2E2" stroke-width="0.5"/>
<rect x="40" y="100" width="380" height="580" rx="4" fill="#FFFFFF" stroke="#E2E2E2" stroke-width="0.5"/>
<rect x="40" y="100" width="4" height="580" fill="#1677FF"/>
<text x="64" y="132" font-family="Microsoft YaHei,sans-serif" font-size="14" font-weight="bold" fill="#1677FF">健康档案</text>
<text x="64" y="164" font-family="Microsoft YaHei,sans-serif" font-size="13" fill="#555555">头部 6 家建档跟踪</text>
<rect x="64" y="188" width="336" height="1" fill="#E2E2E2"/>
<text x="64" y="220" font-family="Microsoft YaHei,sans-serif" font-size="13" font-weight="bold" fill="#1A1A1A">档案字段</text>
<text x="64" y="248" font-family="Microsoft YaHei,sans-serif" font-size="12" fill="#333333">· 业绩趋势（月度 GMV）</text>
<text x="64" y="268" font-family="Microsoft YaHei,sans-serif" font-size="12" fill="#333333">· 人员稳定性（核心岗位）</text>
<text x="64" y="288" font-family="Microsoft YaHei,sans-serif" font-size="12" fill="#333333">· 合规记录（违规/整改）</text>
<text x="64" y="308" font-family="Microsoft YaHei,sans-serif" font-size="12" fill="#333333">· 合作满意度（内部反馈）</text>
<text x="64" y="328" font-family="Microsoft YaHei,sans-serif" font-size="12" fill="#333333">· 战略匹配度（方向一致性）</text>
<rect x="64" y="372" width="336" height="1" fill="#E2E2E2"/>
<text x="64" y="404" font-family="Microsoft YaHei,sans-serif" font-size="13" font-weight="bold" fill="#1A1A1A">更新频率</text>
<text x="64" y="428" font-family="Microsoft YaHei,sans-serif" font-size="12" fill="#333333">月度数据更新 + 季度深度复盘</text>
<rect x="450" y="100" width="380" height="580" rx="4" fill="#FFFFFF" stroke="#E2E2E2" stroke-width="0.5"/>
<rect x="450" y="100" width="4" height="580" fill="#4A9E6A"/>
<text x="474" y="132" font-family="Microsoft YaHei,sans-serif" font-size="14" font-weight="bold" fill="#4A9E6A">三级预警</text>
<rect x="474" y="156" width="336" height="80" rx="4" fill="#EDF3EE"/>
<text x="494" y="184" font-family="Microsoft YaHei,sans-serif" font-size="13" font-weight="bold" fill="#2E6B3E">绿色 · 正常</text>
<text x="494" y="212" font-family="Microsoft YaHei,sans-serif" font-size="12" fill="#333333">各项指标达标，无需干预</text>
<rect x="474" y="256" width="336" height="80" rx="4" fill="#F7EFE0"/>
<text x="494" y="284" font-family="Microsoft YaHei,sans-serif" font-size="13" font-weight="bold" fill="#8A5A00">黄色 · 关注</text>
<text x="494" y="312" font-family="Microsoft YaHei,sans-serif" font-size="12" fill="#333333">单一指标下滑，主动沟通</text>
<rect x="474" y="356" width="336" height="80" rx="4" fill="#F5E6E6"/>
<text x="494" y="384" font-family="Microsoft YaHei,sans-serif" font-size="13" font-weight="bold" fill="#9C2B2B">红色 · 风险</text>
<text x="494" y="412" font-family="Microsoft YaHei,sans-serif" font-size="12" fill="#333333">多项指标异常，启动保留方案</text>
<rect x="474" y="476" width="336" height="1" fill="#E2E2E2"/>
<text x="474" y="508" font-family="Microsoft YaHei,sans-serif" font-size="13" font-weight="bold" fill="#1A1A1A">预警触发信号</text>
<text x="474" y="536" font-family="Microsoft YaHei,sans-serif" font-size="12" fill="#333333">· 业绩环比下降 > 15%</text>
<text x="474" y="556" font-family="Microsoft YaHei,sans-serif" font-size="12" fill="#333333">· 核心人员离职</text>
<text x="474" y="576" font-family="Microsoft YaHei,sans-serif" font-size="12" fill="#333333">· 内部投诉 ≥ 2 次/月</text>
<rect x="64" y="520" width="336" height="150" rx="4" fill="#F5F5F5"/>
<text x="84" y="548" font-family="Microsoft YaHei,sans-serif" font-size="13" font-weight="bold" fill="#1A1A1A">季度保留复盘</text>
<text x="84" y="576" font-family="Microsoft YaHei,sans-serif" font-size="12" fill="#333333">· 保留率趋势分析</text>
<text x="84" y="596" font-family="Microsoft YaHei,sans-serif" font-size="12" fill="#333333">· 预警准确率校验</text>
<text x="84" y="616" font-family="Microsoft YaHei,sans-serif" font-size="12" fill="#333333">· 激励包效果评估</text>
<text x="84" y="636" font-family="Microsoft YaHei,sans-serif" font-size="12" fill="#333333">· 策略调整建议</text>
<rect x="860" y="100" width="380" height="580" rx="4" fill="#FFFFFF" stroke="#E2E2E2" stroke-width="0.5"/>
<rect x="860" y="100" width="4" height="580" fill="#888888"/>
<text x="884" y="132" font-family="Microsoft YaHei,sans-serif" font-size="14" font-weight="bold" fill="#1A1A1A">激励包</text>
<rect x="884" y="156" width="336" height="1" fill="#E2E2E2"/>
<text x="884" y="188" font-family="Microsoft YaHei,sans-serif" font-size="13" font-weight="bold" fill="#1A1A1A">资源倾斜</text>
<text x="884" y="212" font-family="Microsoft YaHei,sans-serif" font-size="12" fill="#333333">优先分配高价值业务线</text>
<text x="884" y="232" font-family="Microsoft YaHei,sans-serif" font-size="12" fill="#333333">联合规划季度目标</text>
<rect x="884" y="276" width="336" height="1" fill="#E2E2E2"/>
<text x="884" y="308" font-family="Microsoft YaHei,sans-serif" font-size="13" font-weight="bold" fill="#1A1A1A">发展机会</text>
<text x="884" y="332" font-family="Microsoft YaHei,sans-serif" font-size="12" fill="#333333">纳入创新项目试点</text>
<text x="884" y="352" font-family="Microsoft YaHei,sans-serif" font-size="12" fill="#333333">联合培训 + 能力共建</text>
<rect x="884" y="396" width="336" height="1" fill="#E2E2E2"/>
<text x="884" y="428" font-family="Microsoft YaHei,sans-serif" font-size="13" font-weight="bold" fill="#1A1A1A">合作深化</text>
<text x="884" y="452" font-family="Microsoft YaHei,sans-serif" font-size="12" fill="#333333">长期框架协议（年度）</text>
<text x="884" y="472" font-family="Microsoft YaHei,sans-serif" font-size="12" fill="#333333">高层定期对齐（季度）</text>
<rect x="884" y="516" width="336" height="1" fill="#E2E2E2"/>
<text x="884" y="548" font-family="Microsoft YaHei,sans-serif" font-size="13" font-weight="bold" fill="#1A1A1A">认可机制</text>
<text x="884" y="572" font-family="Microsoft YaHei,sans-serif" font-size="12" fill="#333333">季度优秀供应商表彰</text>
<text x="884" y="592" font-family="Microsoft YaHei,sans-serif" font-size="12" fill="#333333">公开感谢 + 内部分享</text>
<rect x="884" y="636" width="336" height="1" fill="#E2E2E2"/>
<text x="884" y="660" font-family="Microsoft YaHei,sans-serif" font-size="12" fill="#888888">一供应商一策略，不通用</text>
<line x1="40" y1="690" x2="1240" y2="690" stroke="#E2E2E2" stroke-width="0.5"/>
<text x="40" y="708" font-family="Microsoft YaHei,sans-serif" font-size="11" fill="#888888">来源：内部梳理 · 2026-05-04</text>
<text x="1240" y="708" text-anchor="end" font-family="Microsoft YaHei,sans-serif" font-size="11" fill="#888888">7 / 13</text>
</svg>
