<svg width="1280" height="720" viewBox="0 0 1280 720" xmlns="http://www.w3.org/2000/svg">
<rect width="1280" height="720" fill="#FFFFFF"/>
<rect x="0" y="0" width="1280" height="3" fill="#1677FF"/>
<text x="40" y="22" font-family="Microsoft YaHei,sans-serif" font-size="11" fill="#888888">基础设施建设</text>
<text x="1240" y="22" text-anchor="end" font-family="Microsoft YaHei,sans-serif" font-size="11" font-weight="bold" fill="#1677FF">供应商管理BP</text>
<line x1="40" y1="30" x2="1240" y2="30" stroke="#E2E2E2" stroke-width="0.5"/>
<rect x="40" y="36" width="3" height="52" fill="#1677FF"/>
<text x="52" y="70" font-family="Songti SC,SimSun,serif" font-size="22" font-weight="bold" fill="#1A1A1A">数据基础设施：从 0 到 1 搭建供应商数据底座</text>
<line x1="40" y1="94" x2="1240" y2="94" stroke="#E2E2E2" stroke-width="0.5"/>
<rect x="40" y="100" width="380" height="580" rx="4" fill="#FFFFFF" stroke="#E2E2E2" stroke-width="0.5"/>
<rect x="40" y="100" width="4" height="580" fill="#1677FF"/>
<text x="64" y="132" font-family="Microsoft YaHei,sans-serif" font-size="14" font-weight="bold" fill="#1677FF">数据层</text>
<text x="64" y="164" font-family="Microsoft YaHei,sans-serif" font-size="13" fill="#555555">供应商基础信息库</text>
<rect x="64" y="188" width="336" height="1" fill="#E2E2E2"/>
<text x="64" y="220" font-family="Microsoft YaHei,sans-serif" font-size="13" fill="#333333">· 工商信息 / 资质 / 合同</text>
<text x="64" y="240" font-family="Microsoft YaHei,sans-serif" font-size="13" fill="#333333">· 人员编制 / 核心岗位备案</text>
<text x="64" y="260" font-family="Microsoft YaHei,sans-serif" font-size="13" fill="#333333">· 历史合作记录</text>
<rect x="64" y="304" width="336" height="1" fill="#E2E2E2"/>
<text x="64" y="336" font-family="Microsoft YaHei,sans-serif" font-size="13" fill="#333333">业绩数据库</text>
<text x="64" y="364" font-family="Microsoft YaHei,sans-serif" font-size="13" fill="#333333">· 月度 GMV / 产出指标</text>
<text x="64" y="384" font-family="Microsoft YaHei,sans-serif" font-size="13" fill="#333333">· 质量指标（投诉/返工）</text>
<text x="64" y="404" font-family="Microsoft YaHei,sans-serif" font-size="13" fill="#333333">· 交付及时率</text>
<rect x="64" y="448" width="336" height="1" fill="#E2E2E2"/>
<text x="64" y="480" font-family="Microsoft YaHei,sans-serif" font-size="13" fill="#333333">合规与风险数据库</text>
<text x="64" y="508" font-family="Microsoft YaHei,sans-serif" font-size="13" fill="#333333">· 违规记录 / 整改记录</text>
<text x="64" y="528" font-family="Microsoft YaHei,sans-serif" font-size="13" fill="#333333">· 预警事件日志</text>
<text x="64" y="548" font-family="Microsoft YaHei,sans-serif" font-size="13" fill="#333333">· 纠纷 / 投诉记录</text>
<rect x="450" y="100" width="380" height="580" rx="4" fill="#FFFFFF" stroke="#E2E2E2" stroke-width="0.5"/>
<rect x="450" y="100" width="4" height="580" fill="#4A9E6A"/>
<text x="474" y="132" font-family="Microsoft YaHei,sans-serif" font-size="14" font-weight="bold" fill="#4A9E6A">工具层</text>
<rect x="474" y="156" width="336" height="100" rx="4" fill="#EDF3EE"/>
<text x="494" y="184" font-family="Microsoft YaHei,sans-serif" font-size="13" font-weight="bold" fill="#2E6B3E">数据仪表盘</text>
<text x="494" y="208" font-family="Microsoft YaHei,sans-serif" font-size="12" fill="#333333">月度自动更新</text>
<text x="494" y="228" font-family="Microsoft YaHei,sans-serif" font-size="12" fill="#333333">核心指标一屏可见</text>
<rect x="474" y="276" width="336" height="100" rx="4" fill="#EDF3EE"/>
<text x="494" y="304" font-family="Microsoft YaHei,sans-serif" font-size="13" font-weight="bold" fill="#2E6B3E">评估模板</text>
<text x="494" y="328" font-family="Microsoft YaHei,sans-serif" font-size="12" fill="#333333">分级评估表（九宫格）</text>
<text x="494" y="348" font-family="Microsoft YaHei,sans-serif" font-size="12" fill="#333333">健康度评分表</text>
<rect x="474" y="396" width="336" height="100" rx="4" fill="#EDF3EE"/>
<text x="494" y="424" font-family="Microsoft YaHei,sans-serif" font-size="13" font-weight="bold" fill="#2E6B3E">报告模板</text>
<text x="494" y="448" font-family="Microsoft YaHei,sans-serif" font-size="12" fill="#333333">月度供应商简报</text>
<text x="494" y="468" font-family="Microsoft YaHei,sans-serif" font-size="12" fill="#333333">季度复盘报告</text>
<rect x="860" y="100" width="380" height="580" rx="4" fill="#FFFFFF" stroke="#E2E2E2" stroke-width="0.5"/>
<rect x="860" y="100" width="4" height="580" fill="#888888"/>
<text x="884" y="132" font-family="Microsoft YaHei,sans-serif" font-size="14" font-weight="bold" fill="#1A1A1A">推进节奏</text>
<rect x="884" y="156" width="336" height="110" rx="4" fill="#F5F5F5"/>
<text x="904" y="184" font-family="Microsoft YaHei,sans-serif" font-size="13" font-weight="bold" fill="#1677FF">4 月 · 数据收集</text>
<text x="904" y="208" font-family="Microsoft YaHei,sans-serif" font-size="12" fill="#333333">手动收集 + Excel 建表</text>
<text x="904" y="228" font-family="Microsoft YaHei,sans-serif" font-size="12" fill="#333333">确定指标口径</text>
<text x="904" y="248" font-family="Microsoft YaHei,sans-serif" font-size="12" fill="#333333">完成历史数据回填</text>
<rect x="884" y="286" width="336" height="110" rx="4" fill="#F5F5F5"/>
<text x="904" y="314" font-family="Microsoft YaHei,sans-serif" font-size="13" font-weight="bold" fill="#4A9E6A">5 月 · 工具搭建</text>
<text x="904" y="338" font-family="Microsoft YaHei,sans-serif" font-size="12" fill="#333333">仪表盘 V1 上线</text>
<text x="904" y="358" font-family="Microsoft YaHei,sans-serif" font-size="12" fill="#333333">评估模板标准化</text>
<text x="904" y="378" font-family="Microsoft YaHei,sans-serif" font-size="12" fill="#333333">自动化数据接入</text>
<rect x="884" y="416" width="336" height="110" rx="4" fill="#F5F5F5"/>
<text x="904" y="444" font-family="Microsoft YaHei,sans-serif" font-size="13" font-weight="bold" fill="#888888">6 月 · 迭代优化</text>
<text x="904" y="468" font-family="Microsoft YaHei,sans-serif" font-size="12" fill="#333333">仪表盘 V2（预警功能）</text>
<text x="904" y="488" font-family="Microsoft YaHei,sans-serif" font-size="12" fill="#333333">指标体系完善</text>
<text x="904" y="508" font-family="Microsoft YaHei,sans-serif" font-size="12" fill="#333333">操作文档输出</text>
<rect x="884" y="556" width="336" height="70" rx="4" fill="#F7EFE0"/>
<text x="904" y="584" font-family="Microsoft YaHei,sans-serif" font-size="13" font-weight="bold" fill="#8A5A00">当前状态</text>
<text x="904" y="608" font-family="Microsoft YaHei,sans-serif" font-size="12" fill="#333333">数据从 0 开始建设，</text>
<text x="904" y="628" font-family="Microsoft YaHei,sans-serif" font-size="12" fill="#333333">Q2 完成基础版</text>
<line x1="40" y1="690" x2="1240" y2="690" stroke="#E2E2E2" stroke-width="0.5"/>
<text x="40" y="708" font-family="Microsoft YaHei,sans-serif" font-size="11" fill="#888888">来源：内部梳理 · 2026-05-04</text>
<text x="1240" y="708" text-anchor="end" font-family="Microsoft YaHei,sans-serif" font-size="11" fill="#888888">10 / 13</text>
</svg>
