<svg width="1280" height="720" viewBox="0 0 1280 720" xmlns="http://www.w3.org/2000/svg">
<rect width="1280" height="720" fill="#FFFFFF"/>
<rect x="0" y="0" width="1280" height="3" fill="#1677FF"/>
<text x="40" y="22" font-family="Microsoft YaHei,sans-serif" font-size="11" fill="#888888">总结</text>
<text x="1240" y="22" text-anchor="end" font-family="Microsoft YaHei,sans-serif" font-size="11" font-weight="bold" fill="#1677FF">供应商管理BP</text>
<line x1="40" y1="30" x2="1240" y2="30" stroke="#E2E2E2" stroke-width="0.5"/>
<rect x="40" y="36" width="3" height="52" fill="#1677FF"/>
<text x="52" y="70" font-family="Songti SC,SimSun,serif" font-size="22" font-weight="bold" fill="#1A1A1A">打底 + 建体系，Q2 只做一件事</text>
<line x1="40" y1="94" x2="1240" y2="94" stroke="#E2E2E2" stroke-width="0.5"/>
<rect x="40" y="120" width="1200" height="200" rx="8" fill="#F5F5F5"/>
<text x="100" y="180" font-family="Songti SC,SimSun,serif" font-size="36" font-weight="bold" fill="#1A1A1A">Q2 的核心目标就一句话：</text>
<text x="100" y="240" font-family="Songti SC,SimSun,serif" font-size="36" font-weight="bold" fill="#1677FF">把供应商管理从"被动响应"</text>
<text x="680" y="240" font-family="Songti SC,SimSun,serif" font-size="36" font-weight="bold" fill="#1677FF">变成"主动管理"。</text>
<rect x="40" y="360" width="1200" height="1" fill="#E2E2E2"/>
<text x="40" y="400" font-family="Microsoft YaHei,sans-serif" font-size="16" fill="#555555">两条主线：</text>
<rect x="80" y="430" width="540" height="100" rx="4" fill="#EDF3EE"/>
<text x="120" y="468" font-family="Microsoft YaHei,sans-serif" font-size="18" font-weight="bold" fill="#2E6B3E">打底（4 月）</text>
<text x="120" y="500" font-family="Microsoft YaHei,sans-serif" font-size="14" fill="#333333">分级盘点 + 健康度诊断 → 看清现状</text>
<rect x="660" y="430" width="540" height="100" rx="4" fill="#EDF3EE"/>
<text x="700" y="468" font-family="Microsoft YaHei,sans-serif" font-size="18" font-weight="bold" fill="#2E6B3E">建体系（5-6 月）</text>
<text x="700" y="500" font-family="Microsoft YaHei,sans-serif" font-size="14" fill="#333333">SOP + 数据 + 预警 → 有法可依</text>
<rect x="40" y="560" width="1200" height="1" fill="#E2E2E2"/>
<text x="40" y="600" font-family="Microsoft YaHei,sans-serif" font-size="16" fill="#555555">Q2 末交付 5 样东西：</text>
<rect x="80" y="620" width="80" height="28" rx="4" fill="#1677FF"/>
<text x="96" y="639" font-family="Microsoft YaHei,sans-serif" font-size="12" fill="#FFFFFF">分级图</text>
<rect x="170" y="620" width="80" height="28" rx="4" fill="#1677FF"/>
<text x="186" y="639" font-family="Microsoft YaHei,sans-serif" font-size="12" fill="#FFFFFF">诊断报告</text>
<rect x="260" y="620" width="80" height="28" rx="4" fill="#1677FF"/>
<text x="276" y="639" font-family="Microsoft YaHei,sans-serif" font-size="12" fill="#FFFFFF">SOP 集</text>
<rect x="350" y="620" width="80" height="28" rx="4" fill="#1677FF"/>
<text x="366" y="639" font-family="Microsoft YaHei,sans-serif" font-size="12" fill="#FFFFFF">仪表盘</text>
<rect x="440" y="620" width="80" height="28" rx="4" fill="#1677FF"/>
<text x="456" y="639" font-family="Microsoft YaHei,sans-serif" font-size="12" fill="#FFFFFF">复盘报告</text>
<line x1="40" y1="690" x2="1240" y2="690" stroke="#E2E2E2" stroke-width="0.5"/>
<text x="40" y="708" font-family="Microsoft YaHei,sans-serif" font-size="11" fill="#888888">来源：内部梳理 · 2026-05-04</text>
<text x="1240" y="708" text-anchor="end" font-family="Microsoft YaHei,sans-serif" font-size="11" fill="#888888">13 / 13</text>
</svg>
