<svg width="1280" height="720" viewBox="0 0 1280 720" xmlns="http://www.w3.org/2000/svg">
<rect width="1280" height="720" fill="#FFFFFF"/>
<rect x="0" y="0" width="1280" height="3" fill="#1677FF"/>
<text x="40" y="22" font-family="Microsoft YaHei,sans-serif" font-size="11" fill="#888888">三阶段推进</text>
<text x="1240" y="22" text-anchor="end" font-family="Microsoft YaHei,sans-serif" font-size="11" font-weight="bold" fill="#1677FF">供应商管理BP</text>
<line x1="40" y1="30" x2="1240" y2="30" stroke="#E2E2E2" stroke-width="0.5"/>
<rect x="40" y="36" width="3" height="52" fill="#1677FF"/>
<text x="52" y="70" font-family="Songti SC,SimSun,serif" font-size="22" font-weight="bold" fill="#1A1A1A">4-6月 三阶段推进节奏</text>
<line x1="40" y1="94" x2="1240" y2="94" stroke="#E2E2E2" stroke-width="0.5"/>
<rect x="40" y="100" width="380" height="580" rx="4" fill="#FFFFFF" stroke="#E2E2E2" stroke-width="0.5"/>
<rect x="40" y="100" width="4" height="580" fill="#1677FF"/>
<text x="64" y="132" font-family="Microsoft YaHei,sans-serif" font-size="11" fill="#1677FF" letter-spacing="2">PHASE 01 · 4月</text>
<text x="64" y="168" font-family="Songti SC,SimSun,serif" font-size="28" font-weight="bold" fill="#1A1A1A">打底</text>
<rect x="64" y="192" width="336" height="1" fill="#E2E2E2"/>
<text x="64" y="228" font-family="Microsoft YaHei,sans-serif" font-size="14" font-weight="bold" fill="#1A1A1A">供应商分级盘点</text>
<text x="64" y="252" font-family="Microsoft YaHei,sans-serif" font-size="13" fill="#555555">30+ 供应商三维评估</text>
<text x="64" y="272" font-family="Microsoft YaHei,sans-serif" font-size="13" fill="#555555">输出九宫格 + 三张清单</text>
<rect x="64" y="296" width="336" height="1" fill="#E2E2E2"/>
<text x="64" y="332" font-family="Microsoft YaHei,sans-serif" font-size="14" font-weight="bold" fill="#1A1A1A">合作健康度诊断</text>
<text x="64" y="356" font-family="Microsoft YaHei,sans-serif" font-size="13" fill="#555555">识别 Top3 协作卡点</text>
<text x="64" y="376" font-family="Microsoft YaHei,sans-serif" font-size="13" fill="#555555">启动 90 天改善计划</text>
<rect x="64" y="420" width="336" height="120" rx="4" fill="#F5F5F5"/>
<text x="84" y="452" font-family="Microsoft YaHei,sans-serif" font-size="13" fill="#333333">分析类项目</text>
<text x="84" y="476" font-family="Microsoft YaHei,sans-serif" font-size="13" fill="#333333">不需要额外审批</text>
<text x="84" y="500" font-family="Microsoft YaHei,sans-serif" font-size="13" fill="#333333">立即启动</text>
<rect x="64" y="540" width="336" height="1" fill="#E2E2E2"/>
<text x="64" y="572" font-family="Microsoft YaHei,sans-serif" font-size="13" fill="#888888">产出：分级图 + 诊断报告</text>
<text x="64" y="592" font-family="Microsoft YaHei,sans-serif" font-size="13" fill="#888888">+ 90天改善计划</text>
<rect x="450" y="100" width="380" height="580" rx="4" fill="#FFFFFF" stroke="#E2E2E2" stroke-width="0.5"/>
<rect x="450" y="100" width="4" height="580" fill="#4A9E6A"/>
<text x="474" y="132" font-family="Microsoft YaHei,sans-serif" font-size="11" fill="#4A9E6A" letter-spacing="2">PHASE 02 · 5月</text>
<text x="474" y="168" font-family="Songti SC,SimSun,serif" font-size="28" font-weight="bold" fill="#1A1A1A">体系建设</text>
<rect x="474" y="192" width="336" height="1" fill="#E2E2E2"/>
<text x="474" y="220" font-family="Microsoft YaHei,sans-serif" font-size="13" fill="#333333">1. 新供应商冷启动 SOP</text>
<text x="474" y="256" font-family="Microsoft YaHei,sans-serif" font-size="13" fill="#333333">2. 考核体系对齐业务目标</text>
<text x="474" y="292" font-family="Microsoft YaHei,sans-serif" font-size="13" fill="#333333">3. 核心供应商保留与激励</text>
<text x="474" y="328" font-family="Microsoft YaHei,sans-serif" font-size="13" fill="#333333">4. 供应商备份与产能冗余</text>
<text x="474" y="364" font-family="Microsoft YaHei,sans-serif" font-size="13" fill="#333333">5. 供应商关系精细化</text>
<rect x="474" y="408" width="336" height="120" rx="4" fill="#EDF3EE"/>
<text x="494" y="440" font-family="Microsoft YaHei,sans-serif" font-size="13" font-weight="bold" fill="#2E6B3E">5 个项目并行</text>
<text x="494" y="464" font-family="Microsoft YaHei,sans-serif" font-size="13" fill="#333333">聚焦 3 个核心</text>
<text x="494" y="484" font-family="Microsoft YaHei,sans-serif" font-size="13" fill="#333333">其余做框架</text>
<text x="494" y="504" font-family="Microsoft YaHei,sans-serif" font-size="13" fill="#8A5A00">2 项涉及制度需确认</text>
<rect x="860" y="100" width="380" height="580" rx="4" fill="#FFFFFF" stroke="#E2E2E2" stroke-width="0.5"/>
<rect x="860" y="100" width="4" height="580" fill="#888888"/>
<text x="884" y="132" font-family="Microsoft YaHei,sans-serif" font-size="11" fill="#888888" letter-spacing="2">PHASE 03 · 6月</text>
<text x="884" y="168" font-family="Songti SC,SimSun,serif" font-size="28" font-weight="bold" fill="#1A1A1A">深化闭环</text>
<rect x="884" y="192" width="336" height="1" fill="#E2E2E2"/>
<text x="884" y="220" font-family="Microsoft YaHei,sans-serif" font-size="13" fill="#333333">1. 供应商主管赋能</text>
<text x="884" y="256" font-family="Microsoft YaHei,sans-serif" font-size="13" fill="#333333">2. 新供应商引入效能</text>
<text x="884" y="292" font-family="Microsoft YaHei,sans-serif" font-size="13" fill="#333333">3. 供应商文化对齐</text>
<text x="884" y="328" font-family="Microsoft YaHei,sans-serif" font-size="13" fill="#333333">4. Q2 整体复盘</text>
<rect x="884" y="372" width="336" height="120" rx="4" fill="#F5F5F5"/>
<text x="904" y="404" font-family="Microsoft YaHei,sans-serif" font-size="13" fill="#333333">收尾 + 深化</text>
<text x="904" y="428" font-family="Microsoft YaHei,sans-serif" font-size="13" fill="#333333">为 Q3 打基础</text>
<rect x="884" y="468" width="336" height="1" fill="#E2E2E2"/>
<text x="884" y="500" font-family="Microsoft YaHei,sans-serif" font-size="13" font-weight="bold" fill="#1A1A1A">Q2 复盘要点</text>
<text x="884" y="524" font-family="Microsoft YaHei,sans-serif" font-size="13" fill="#555555">各项目完成度评估</text>
<text x="884" y="544" font-family="Microsoft YaHei,sans-serif" font-size="13" fill="#555555">量化指标达成情况</text>
<text x="884" y="564" font-family="Microsoft YaHei,sans-serif" font-size="13" fill="#555555">Q3 规划草案</text>
<text x="884" y="608" font-family="Microsoft YaHei,sans-serif" font-size="13" fill="#888888">产出：复盘报告</text>
<text x="884" y="628" font-family="Microsoft YaHei,sans-serif" font-size="13" fill="#888888">+ Q3 计划草案</text>
<line x1="40" y1="690" x2="1240" y2="690" stroke="#E2E2E2" stroke-width="0.5"/>
<text x="40" y="708" font-family="Microsoft YaHei,sans-serif" font-size="11" fill="#888888">来源：内部梳理 · 2026-05-04</text>
<text x="1240" y="708" text-anchor="end" font-family="Microsoft YaHei,sans-serif" font-size="11" fill="#888888">4 / 13</text>
</svg>
