<svg width="1280" height="720" viewBox="0 0 1280 720" xmlns="http://www.w3.org/2000/svg">
<rect width="1280" height="720" fill="#FFFFFF"/>
<rect x="0" y="0" width="1280" height="3" fill="#1677FF"/>
<text x="40" y="22" font-family="Microsoft YaHei,sans-serif" font-size="11" fill="#888888">十大项目总览</text>
<text x="1240" y="22" text-anchor="end" font-family="Microsoft YaHei,sans-serif" font-size="11" font-weight="bold" fill="#1677FF">供应商管理BP</text>
<line x1="40" y1="30" x2="1240" y2="30" stroke="#E2E2E2" stroke-width="0.5"/>
<rect x="40" y="36" width="3" height="52" fill="#1677FF"/>
<text x="52" y="70" font-family="Songti SC,SimSun,serif" font-size="22" font-weight="bold" fill="#1A1A1A">十大落地项目一览</text>
<line x1="40" y1="94" x2="1240" y2="94" stroke="#E2E2E2" stroke-width="0.5"/>
<rect x="40" y="120" width="1200" height="36" fill="#1A1A1A"/>
<text x="56" y="143" font-family="Microsoft YaHei,sans-serif" font-size="11" font-weight="bold" fill="#FFFFFF">#</text>
<text x="90" y="143" font-family="Microsoft YaHei,sans-serif" font-size="11" font-weight="bold" fill="#FFFFFF">项目名称</text>
<text x="880" y="143" font-family="Microsoft YaHei,sans-serif" font-size="11" font-weight="bold" fill="#FFFFFF">周期</text>
<text x="1060" y="143" font-family="Microsoft YaHei,sans-serif" font-size="11" font-weight="bold" fill="#FFFFFF">优先级</text>
<text x="1160" y="143" font-family="Microsoft YaHei,sans-serif" font-size="11" font-weight="bold" fill="#FFFFFF">状态</text>
<rect x="40" y="156" width="1200" height="46" fill="#FFFFFF"/>
<line x1="40" y1="202" x2="1240" y2="202" stroke="#E2E2E2" stroke-width="0.5"/>
<text x="56" y="184" font-family="Microsoft YaHei,sans-serif" font-size="13" font-weight="bold" fill="#1A1A1A">1</text>
<text x="90" y="184" font-family="Microsoft YaHei,sans-serif" font-size="13" font-weight="bold" fill="#1A1A1A">供应商分级盘点（九宫格）</text>
<text x="880" y="184" font-family="Microsoft YaHei,sans-serif" font-size="13" fill="#333333">4月</text>
<rect x="1060" y="170" width="40" height="22" rx="4" fill="#1677FF"/>
<text x="1068" y="185" font-family="Microsoft YaHei,sans-serif" font-size="11" fill="#FFFFFF">P0</text>
<text x="1160" y="184" font-family="Microsoft YaHei,sans-serif" font-size="13" fill="#888888">立即启动</text>
<rect x="40" y="202" width="1200" height="46" fill="#FAFAFA"/>
<line x1="40" y1="248" x2="1240" y2="248" stroke="#E2E2E2" stroke-width="0.5"/>
<text x="56" y="230" font-family="Microsoft YaHei,sans-serif" font-size="13" fill="#1A1A1A">2</text>
<text x="90" y="230" font-family="Microsoft YaHei,sans-serif" font-size="13" fill="#333333">新供应商冷启动（30/60/90天）</text>
<text x="880" y="230" font-family="Microsoft YaHei,sans-serif" font-size="13" fill="#333333">5月</text>
<rect x="1060" y="216" width="40" height="22" rx="4" fill="#4A9E6A"/>
<text x="1068" y="231" font-family="Microsoft YaHei,sans-serif" font-size="11" fill="#FFFFFF">P1</text>
<text x="1160" y="230" font-family="Microsoft YaHei,sans-serif" font-size="13" fill="#888888">体系建设</text>
<rect x="40" y="248" width="1200" height="46" fill="#FFFFFF"/>
<line x1="40" y1="294" x2="1240" y2="294" stroke="#E2E2E2" stroke-width="0.5"/>
<text x="56" y="276" font-family="Microsoft YaHei,sans-serif" font-size="13" fill="#1A1A1A">3</text>
<text x="90" y="276" font-family="Microsoft YaHei,sans-serif" font-size="13" fill="#333333">供应商考核体系对齐业务目标</text>
<text x="880" y="276" font-family="Microsoft YaHei,sans-serif" font-size="13" fill="#333333">5-6月</text>
<rect x="1060" y="262" width="40" height="22" rx="4" fill="#4A9E6A"/>
<text x="1068" y="277" font-family="Microsoft YaHei,sans-serif" font-size="11" fill="#FFFFFF">P1</text>
<text x="1160" y="276" font-family="Microsoft YaHei,sans-serif" font-size="13" fill="#888888">需确认</text>
<rect x="40" y="294" width="1200" height="46" fill="#FAFAFA"/>
<line x1="40" y1="340" x2="1240" y2="340" stroke="#E2E2E2" stroke-width="0.5"/>
<text x="56" y="322" font-family="Microsoft YaHei,sans-serif" font-size="13" fill="#1A1A1A">4</text>
<text x="90" y="322" font-family="Microsoft YaHei,sans-serif" font-size="13" fill="#333333">供应商备份与产能冗余</text>
<text x="880" y="322" font-family="Microsoft YaHei,sans-serif" font-size="13" fill="#333333">5-6月</text>
<rect x="1060" y="308" width="40" height="22" rx="4" fill="#4A9E6A"/>
<text x="1068" y="323" font-family="Microsoft YaHei,sans-serif" font-size="11" fill="#FFFFFF">P1</text>
<text x="1160" y="322" font-family="Microsoft YaHei,sans-serif" font-size="13" fill="#888888">体系建设</text>
<rect x="40" y="340" width="1200" height="46" fill="#FFFFFF"/>
<line x1="40" y1="386" x2="1240" y2="386" stroke="#E2E2E2" stroke-width="0.5"/>
<text x="56" y="368" font-family="Microsoft YaHei,sans-serif" font-size="13" fill="#1A1A1A">5</text>
<text x="90" y="368" font-family="Microsoft YaHei,sans-serif" font-size="13" fill="#333333">供应商主管赋能</text>
<text x="880" y="368" font-family="Microsoft YaHei,sans-serif" font-size="13" fill="#333333">6月</text>
<rect x="1060" y="354" width="40" height="22" rx="4" fill="#888888"/>
<text x="1068" y="369" font-family="Microsoft YaHei,sans-serif" font-size="11" fill="#FFFFFF">P2</text>
<text x="1160" y="368" font-family="Microsoft YaHei,sans-serif" font-size="13" fill="#888888">深化阶段</text>
<rect x="40" y="386" width="1200" height="46" fill="#FAFAFA"/>
<line x1="40" y1="432" x2="1240" y2="432" stroke="#E2E2E2" stroke-width="0.5"/>
<text x="56" y="414" font-family="Microsoft YaHei,sans-serif" font-size="13" font-weight="bold" fill="#1A1A1A">6</text>
<text x="90" y="414" font-family="Microsoft YaHei,sans-serif" font-size="13" font-weight="bold" fill="#1A1A1A">合作健康度诊断</text>
<text x="880" y="414" font-family="Microsoft YaHei,sans-serif" font-size="13" fill="#333333">4月</text>
<rect x="1060" y="400" width="40" height="22" rx="4" fill="#1677FF"/>
<text x="1068" y="415" font-family="Microsoft YaHei,sans-serif" font-size="11" fill="#FFFFFF">P0</text>
<text x="1160" y="414" font-family="Microsoft YaHei,sans-serif" font-size="13" fill="#888888">立即启动</text>
<rect x="40" y="432" width="1200" height="46" fill="#FFFFFF"/>
<line x1="40" y1="478" x2="1240" y2="478" stroke="#E2E2E2" stroke-width="0.5"/>
<text x="56" y="460" font-family="Microsoft YaHei,sans-serif" font-size="13" fill="#1A1A1A">7</text>
<text x="90" y="460" font-family="Microsoft YaHei,sans-serif" font-size="13" fill="#333333">核心供应商保留与激励</text>
<text x="880" y="460" font-family="Microsoft YaHei,sans-serif" font-size="13" fill="#333333">5月</text>
<rect x="1060" y="446" width="40" height="22" rx="4" fill="#4A9E6A"/>
<text x="1068" y="461" font-family="Microsoft YaHei,sans-serif" font-size="11" fill="#FFFFFF">P1</text>
<text x="1160" y="460" font-family="Microsoft YaHei,sans-serif" font-size="13" fill="#888888">需确认</text>
<rect x="40" y="478" width="1200" height="46" fill="#FAFAFA"/>
<line x1="40" y1="524" x2="1240" y2="524" stroke="#E2E2E2" stroke-width="0.5"/>
<text x="56" y="506" font-family="Microsoft YaHei,sans-serif" font-size="13" fill="#1A1A1A">8</text>
<text x="90" y="506" font-family="Microsoft YaHei,sans-serif" font-size="13" fill="#333333">新供应商引入效能</text>
<text x="880" y="506" font-family="Microsoft YaHei,sans-serif" font-size="13" fill="#333333">6月</text>
<rect x="1060" y="492" width="40" height="22" rx="4" fill="#888888"/>
<text x="1068" y="507" font-family="Microsoft YaHei,sans-serif" font-size="11" fill="#FFFFFF">P2</text>
<text x="1160" y="506" font-family="Microsoft YaHei,sans-serif" font-size="13" fill="#888888">深化阶段</text>
<rect x="40" y="524" width="1200" height="46" fill="#FFFFFF"/>
<line x1="40" y1="570" x2="1240" y2="570" stroke="#E2E2E2" stroke-width="0.5"/>
<text x="56" y="552" font-family="Microsoft YaHei,sans-serif" font-size="13" fill="#1A1A1A">9</text>
<text x="90" y="552" font-family="Microsoft YaHei,sans-serif" font-size="13" fill="#333333">供应商关系精细化 + 风险前置</text>
<text x="880" y="552" font-family="Microsoft YaHei,sans-serif" font-size="13" fill="#333333">5-6月</text>
<rect x="1060" y="538" width="40" height="22" rx="4" fill="#4A9E6A"/>
<text x="1068" y="553" font-family="Microsoft YaHei,sans-serif" font-size="11" fill="#FFFFFF">P1</text>
<text x="1160" y="552" font-family="Microsoft YaHei,sans-serif" font-size="13" fill="#888888">体系建设</text>
<rect x="40" y="570" width="1200" height="46" fill="#FAFAFA"/>
<text x="56" y="598" font-family="Microsoft YaHei,sans-serif" font-size="13" fill="#1A1A1A">10</text>
<text x="90" y="598" font-family="Microsoft YaHei,sans-serif" font-size="13" fill="#333333">供应商文化对齐</text>
<text x="880" y="598" font-family="Microsoft YaHei,sans-serif" font-size="13" fill="#333333">6月</text>
<rect x="1060" y="584" width="40" height="22" rx="4" fill="#888888"/>
<text x="1068" y="599" font-family="Microsoft YaHei,sans-serif" font-size="11" fill="#FFFFFF">P2</text>
<text x="1160" y="598" font-family="Microsoft YaHei,sans-serif" font-size="13" fill="#888888">深化阶段</text>
<line x1="40" y1="636" x2="1240" y2="636" stroke="#E2E2E2" stroke-width="0.5"/>
<rect x="40" y="646" width="380" height="1" fill="#E2E2E2"/>
<text x="40" y="668" font-family="Microsoft YaHei,sans-serif" font-size="12" fill="#888888">P0 立即启动  ·  P1 体系建设  ·  P2 深化阶段</text>
<line x1="40" y1="690" x2="1240" y2="690" stroke="#E2E2E2" stroke-width="0.5"/>
<text x="40" y="708" font-family="Microsoft YaHei,sans-serif" font-size="11" fill="#888888">来源：内部梳理 · 2026-05-04</text>
<text x="1240" y="708" text-anchor="end" font-family="Microsoft YaHei,sans-serif" font-size="11" fill="#888888">3 / 13</text>
</svg>
