<svg xmlns="http://www.w3.org/2000/svg" width="250" height="250" viewBox="0 0 250 250">
  <!-- ============================================================ -->
  <!-- 椅子 - 18 path，家具风格 -->
  <!-- ============================================================ -->

  <!-- 填充层 -->
  <g id="fill-layer">
    <!-- 靠背 -->
    <path d="m80.27 49.27h90.46c6.62 0 12 5.38 12 12v48c0 6.62-5.38 12-12 12h-90.46c-6.62 0-12-5.38-12-12v-48c0-6.62 5.38-12 12-12z" fill="#FEFFFE"/>

    <!-- 座垫 -->
    <path d="m60.27 121.3h130.46c5.52 0 10 4.48 10 10v10c0 5.52-4.48 10-10 10h-130.46c-5.52 0-10-4.48-10-10v-10c0-5.52 4.48-10 10-10z" fill="#FEFFFE"/>

    <!-- 陶土色坐垫装饰 -->
    <path d="m95.27 131.3h60.46c2.76 0 5 2.24 5 5s-2.24 5-5 5h-60.46c-2.76 0-5-2.24-5-5s2.24-5 5-5z" fill="#B03A21"/>

    <!-- 腿部连接件 -->
    <path d="m70.27 151.3h110.46" fill="#FEFFFE"/>
  </g>

  <!-- 描边层 -->
  <g id="stroke-layer" fill="none" stroke="#140A05" stroke-linecap="round" stroke-linejoin="round">
    <!-- 靠背外轮廓（主线条 1.8px） -->
    <path d="m80.27 49.27h90.46c6.62 0 12 5.38 12 12v48c0 6.62-5.38 12-12 12h-90.46c-6.62 0-12-5.38-12-12v-48c0-6.62 5.38-12 12-12z" stroke-width="1.8"/>

    <!-- 靠背内框（中线条 1.5px） -->
    <path d="m90.27 61.27h70.46c4.42 0 8 3.58 8 8v30c0 4.42-3.58 8-8 8h-70.46c-4.42 0-8-3.58-8-8v-30c0-4.42 3.58-8 8-8z" stroke-width="1.5"/>

    <!-- 靠背竖条纹（细线条 1.3px） -->
    <path d="m105.3 61.27v46" stroke-width="1.3"/>
    <path d="m125.5 61.27v46" stroke-width="1.3"/>
    <path d="m145.7 61.27v46" stroke-width="1.3"/>

    <!-- 座垫外轮廓（主线条 1.8px） -->
    <path d="m60.27 121.3h130.46c5.52 0 10 4.48 10 10v10c0 5.52-4.48 10-10 10h-130.46c-5.52 0-10-4.48-10-10v-10c0-5.52 4.48-10 10-10z" stroke-width="1.8"/>

    <!-- 陶土色装饰轮廓（中线条 1.5px） -->
    <path d="m95.27 131.3h60.46c2.76 0 5 2.24 5 5s-2.24 5-5 5h-60.46c-2.76 0-5-2.24-5-5s2.24-5 5-5z" stroke-width="1.5"/>

    <!-- 前腿（主线条 1.8px） -->
    <path d="m75.27 151.3v45" stroke-width="1.8"/>
    <path d="m175.7 151.3v45" stroke-width="1.8"/>

    <!-- 后腿（主线条 1.8px） -->
    <path d="m65.27 151.3v55" stroke-width="1.8"/>
    <path d="m185.7 151.3v55" stroke-width="1.8"/>

    <!-- 腿部横档（中线条 1.5px） -->
    <path d="m65.27 180.3h120.46" stroke-width="1.5"/>
    <path d="m70.27 195.3h110.46" stroke-width="1.5"/>
  </g>
</svg>
