<svg xmlns="http://www.w3.org/2000/svg" width="250" height="250" viewBox="0 0 250 250">
  <!-- ============================================================ -->
  <!-- 小桌子 - 14 path，简约风格 -->
  <!-- ============================================================ -->

  <!-- 填充层 -->
  <g id="fill-layer">
    <!-- 桌面 -->
    <path d="m40.27 95.27h170.46c5.52 0 10 4.48 10 10v15c0 5.52-4.48 10-10 10h-170.46c-5.52 0-10-4.48-10-10v-15c0-5.52 4.48-10 10-10z" fill="#FEFFFE"/>

    <!-- 陶土色桌面装饰条 -->
    <path d="m50.27 100.3h150.46c2.76 0 5 2.24 5 5s-2.24 5-5 5h-150.46c-2.76 0-5-2.24-5-5s2.24-5 5-5z" fill="#B03A21"/>

    <!-- 抽屉 -->
    <path d="m85.27 120.3h80.46c3.31 0 6 2.69 6 6v12c0 3.31-2.69 6-6 6h-80.46c-3.31 0-6-2.69-6-6v-12c0-3.31 2.69-6 6-6z" fill="#FEFFFE"/>
  </g>

  <!-- 描边层 -->
  <g id="stroke-layer" fill="none" stroke="#140A05" stroke-linecap="round" stroke-linejoin="round">
    <!-- 桌面外轮廓（主线条 1.8px） -->
    <path d="m40.27 95.27h170.46c5.52 0 10 4.48 10 10v15c0 5.52-4.48 10-10 10h-170.46c-5.52 0-10-4.48-10-10v-15c0-5.52 4.48-10 10-10z" stroke-width="1.8"/>

    <!-- 陶土色装饰条轮廓（中线条 1.5px） -->
    <path d="m50.27 100.3h150.46c2.76 0 5 2.24 5 5s-2.24 5-5 5h-150.46c-2.76 0-5-2.24-5-5s2.24-5 5-5z" stroke-width="1.5"/>

    <!-- 抽屉轮廓（主线条 1.8px） -->
    <path d="m85.27 120.3h80.46c3.31 0 6 2.69 6 6v12c0 3.31-2.69 6-6 6h-80.46c-3.31 0-6-2.69-6-6v-12c0-3.31 2.69-6 6-6z" stroke-width="1.8"/>

    <!-- 抽屉把手（中线条 1.5px） -->
    <path d="m118.3 129.3h14" stroke-width="1.5"/>
    <path d="m118.3 135.3h14" stroke-width="1.5"/>

    <!-- 桌腿（主线条 1.8px） -->
    <path d="m55.27 120.3v65" stroke-width="1.8"/>
    <path d="m195.7 120.3v65" stroke-width="1.8"/>
    <path d="m70.27 144.3v45" stroke-width="1.8"/>
    <path d="m180.7 144.3v45" stroke-width="1.8"/>

    <!-- 桌腿横档（中线条 1.5px） -->
    <path d="m60.27 165.3h130.46" stroke-width="1.5"/>
    <path d="m65.27 180.3h120.46" stroke-width="1.5"/>

    <!-- 桌面侧面阴影（细线条 1.3px） -->
    <path d="m40.27 105.3h170.46" stroke-width="1.3"/>
  </g>
</svg>
