<svg xmlns="http://www.w3.org/2000/svg" width="250" height="250" viewBox="0 0 250 250">
  <!-- ============================================================ -->
  <!-- 小镜子 - 控笔修复版，用贝塞尔曲线替代直线 -->
  <!-- ============================================================ -->

  <!-- 填充层 -->
  <g id="fill-layer">
    <!-- 镜框 - 手绘感曲线 -->
    <path d="m83.41 46.72c12.37-1.83 25.18-0.91 37.62-0.87 14.73 0.05 28.91-1.21 42.83 1.74 9.27 2.01 15.18 10.12 15.41 19.52 0.37 15.22 0.13 30.47 0.13 45.7 0 23.12 0.24 46.26-0.13 69.37-0.23 12.35-8.91 20.63-21.02 21.24-14.39 0.74-28.88 0.21-43.3 0.31-12.8 0.09-25.61 0.38-38.39-0.87-11.85-1.15-20.17-9.42-20.72-21.24-0.73-15.88-0.13-31.82-0.13-47.74 0-22.45-0.27-44.91 0.13-67.35 0.21-11.38 8.69-19.37 19.87-20.15 2.55-0.17 5.12-0.17 7.67-0.16z" fill="#FEFFFE"/>

    <!-- 镜面 - 手绘感曲线 -->
    <path d="m94.18 60.37c10.23-1.48 20.62-0.74 30.91-0.82 10.31-0.08 20.63-0.37 30.91 0.81 7.65 0.89 13.08 6.92 13.23 14.62 0.21 10.85 0.05 21.72 0.05 32.58 0 17.62 0.15 35.25-0.05 52.87-0.13 11.23-7.12 18.02-18.31 18.71-10.69 0.66-21.48 0.13-32.23 0.23-8.52 0.08-17.05 0.31-25.55-0.73-8.92-1.09-14.91-7.41-15.37-16.41-0.56-10.91-0.09-21.88-0.09-32.83 0-16.93-0.21-33.87 0.09-50.79 0.15-8.25 6.21-14.08 14.41-14.71 0.67-0.05 1.35-0.05 2.03-0.03z" fill="#FEFFFE"/>

    <!-- 陶土色镜框装饰（顶部） - 手绘感曲线 -->
    <path d="m104.23 50.41c6.92-0.93 13.99-0.46 20.97-0.49 6.87-0.03 13.75-0.26 20.59 0.57 3.14 0.38 5.17 3.21 4.98 6.38-0.18 3.05-2.47 5.42-5.51 5.59-7.27 0.41-14.59 0.12-21.88 0.17-6.81 0.05-13.63 0.23-20.41-0.41-2.98-0.28-5.04-2.97-4.91-5.96 0.13-2.87 2.27-5.17 5.17-5.85z" fill="#B03A21"/>

    <!-- 陶土色镜框装饰（底部） - 手绘感曲线 -->
    <path d="m104.18 190.32c6.91-0.85 13.97-0.42 20.93-0.45 6.86-0.03 13.73-0.24 20.56 0.53 3.13 0.35 5.19 3.16 5.03 6.33-0.15 3.06-2.41 5.46-5.45 5.66-7.25 0.47-14.56 0.19-21.83 0.24-6.8 0.05-13.61 0.21-20.38-0.47-2.97-0.31-4.99-3.03-4.83-6.01 0.15-2.86 2.26-5.13 5.15-5.83z" fill="#B03A21"/>

    <!-- 镜面反光效果 - 手绘感曲线 -->
    <path d="m105.37 72.18c6.84-0.97 13.86-0.48 20.78-0.51 6.77-0.03 13.55-0.27 20.29 0.59 2.79 0.34 4.62 2.85 4.47 5.67-0.14 2.71-2.15 4.84-4.87 5.01-6.48 0.4-13.01 0.12-19.51 0.16-6.07 0.04-12.15 0.2-18.19-0.37-2.65-0.26-4.43-2.69-4.29-5.35 0.14-2.54 2.01-4.56 4.59-5.2 0.56-0.15 1.13-0.23 1.71-0.23 1.71-0.06 3.43-0.06 5.14-0.06 3.43 0 6.87 0.03 10.3 0.03 2.29 0 4.59-0.01 6.88-0.01 1.37 0 2.75 0.01 4.12 0.01z" fill="#FEFFFE" opacity="0.5"/>
  </g>

  <!-- 描边层 -->
  <g id="stroke-layer" fill="none" stroke="#140A05" stroke-linecap="round" stroke-linejoin="round">
    <!-- 镜框外轮廓 - 手绘感曲线 1.8px -->
    <path d="m83.41 46.72c12.37-1.83 25.18-0.91 37.62-0.87 14.73 0.05 28.91-1.21 42.83 1.74 9.27 2.01 15.18 10.12 15.41 19.52 0.37 15.22 0.13 30.47 0.13 45.7 0 23.12 0.24 46.26-0.13 69.37-0.23 12.35-8.91 20.63-21.02 21.24-14.39 0.74-28.88 0.21-43.3 0.31-12.8 0.09-25.61 0.38-38.39-0.87-11.85-1.15-20.17-9.42-20.72-21.24-0.73-15.88-0.13-31.82-0.13-47.74 0-22.45-0.27-44.91 0.13-67.35 0.21-11.38 8.69-19.37 19.87-20.15 2.55-0.17 5.12-0.17 7.67-0.16z" stroke-width="1.8"/>

    <!-- 镜面轮廓 - 手绘感曲线 1.8px -->
    <path d="m94.18 60.37c10.23-1.48 20.62-0.74 30.91-0.82 10.31-0.08 20.63-0.37 30.91 0.81 7.65 0.89 13.08 6.92 13.23 14.62 0.21 10.85 0.05 21.72 0.05 32.58 0 17.62 0.15 35.25-0.05 52.87-0.13 11.23-7.12 18.02-18.31 18.71-10.69 0.66-21.48 0.13-32.23 0.23-8.52 0.08-17.05 0.31-25.55-0.73-8.92-1.09-14.91-7.41-15.37-16.41-0.56-10.91-0.09-21.88-0.09-32.83 0-16.93-0.21-33.87 0.09-50.79 0.15-8.25 6.21-14.08 14.41-14.71 0.67-0.05 1.35-0.05 2.03-0.03z" stroke-width="1.8"/>

    <!-- 顶部陶土色装饰轮廓 - 手绘感曲线 1.5px -->
    <path d="m104.23 50.41c6.92-0.93 13.99-0.46 20.97-0.49 6.87-0.03 13.75-0.26 20.59 0.57 3.14 0.38 5.17 3.21 4.98 6.38-0.18 3.05-2.47 5.42-5.51 5.59-7.27 0.41-14.59 0.12-21.88 0.17-6.81 0.05-13.63 0.23-20.41-0.41-2.98-0.28-5.04-2.97-4.91-5.96 0.13-2.87 2.27-5.17 5.17-5.85z" stroke-width="1.5"/>

    <!-- 底部陶土色装饰轮廓 - 手绘感曲线 1.5px -->
    <path d="m104.18 190.32c6.91-0.85 13.97-0.42 20.93-0.45 6.86-0.03 13.73-0.24 20.56 0.53 3.13 0.35 5.19 3.16 5.03 6.33-0.15 3.06-2.41 5.46-5.45 5.66-7.25 0.47-14.56 0.19-21.83 0.24-6.8 0.05-13.61 0.21-20.38-0.47-2.97-0.31-4.99-3.03-4.83-6.01 0.15-2.86 2.26-5.13 5.15-5.83z" stroke-width="1.5"/>

    <!-- 镜面反光轮廓 - 手绘感曲线 1.3px -->
    <path d="m105.37 72.18c6.84-0.97 13.86-0.48 20.78-0.51 6.77-0.03 13.55-0.27 20.29 0.59 2.79 0.34 4.62 2.85 4.47 5.67-0.14 2.71-2.15 4.84-4.87 5.01-6.48 0.4-13.01 0.12-19.51 0.16-6.07 0.04-12.15 0.2-18.19-0.37-2.65-0.26-4.43-2.69-4.29-5.35 0.14-2.54 2.01-4.56 4.59-5.2 0.56-0.15 1.13-0.23 1.71-0.23 1.71-0.06 3.43-0.06 5.14-0.06 3.43 0 6.87 0.03 10.3 0.03 2.29 0 4.59-0.01 6.88-0.01 1.37 0 2.75 0.01 4.12 0.01z" stroke-width="1.3"/>

    <!-- 镜框纹理线 - 手绘感短曲线 1.3px -->
    <path d="m89.23 61.41c0.12 3.27 0.08 6.57 0.08 9.85" stroke-width="1.3"/>
    <path d="m161.77 61.41c-0.12 3.27-0.08 6.57-0.08 9.85" stroke-width="1.3"/>
    <path d="m89.23 179.18c0.12 3.27 0.08 6.57 0.08 9.85" stroke-width="1.3"/>
    <path d="m161.77 179.18c-0.12 3.27-0.08 6.57-0.08 9.85" stroke-width="1.3"/>

    <!-- 镜面高光线 - 手绘感短曲线 1.0px -->
    <path d="m109.41 76.23c8.32-0.17 16.65 0.08 24.97 0.08" stroke-width="1.0"/>
    <path d="m109.41 86.18c4.87-0.09 9.75 0.05 14.62 0.05" stroke-width="1.0"/>

    <!-- 挂环 - 手绘感曲线 1.5px -->
    <path d="m124.87 46.72c0.08 2.63 0.05 5.28 0.05 7.92" stroke-width="1.5"/>
    <path d="m117.63 46.72c0.17-4.32 3.58-7.83 7.83-7.83 4.26 0 7.69 3.52 7.83 7.83" stroke-width="1.5"/>

    <!-- 镜框内阴影线 - 手绘感曲线 1.3px -->
    <path d="m99.29 66.32c16.82-0.23 33.67 0.13 50.48-0.13" stroke-width="1.3"/>
    <path d="m99.29 176.18c16.82-0.23 33.67 0.13 50.48-0.13" stroke-width="1.3"/>
  </g>
</svg>
