<svg xmlns="http://www.w3.org/2000/svg" width="250" height="250" viewBox="0 0 250 250">
  <!-- ============================================================ -->
  <!-- 沙发 - 22 path，软装风格 -->
  <!-- ============================================================ -->

  <!-- 填充层 -->
  <g id="fill-layer">
    <!-- 沙发主体 -->
    <path d="m45.27 89.27h160.46c8.84 0 16 7.16 16 16v75c0 8.84-7.16 16-16 16h-160.46c-8.84 0-16-7.16-16-16v-75c0-8.84 7.16-16 16-16z" fill="#FEFFFE"/>

    <!-- 靠背垫 -->
    <path d="m55.27 62.27h140.46c6.62 0 12 5.38 12 12v28c0 6.62-5.38 12-12 12h-140.46c-6.62 0-12-5.38-12-12v-28c0-6.62 5.38-12 12-12z" fill="#FEFFFE"/>

    <!-- 陶土色抱枕装饰（左） -->
    <path d="m70.27 105.3c0-8.28 6.72-15 15-15s15 6.72 15 15-6.72 15-15 15-15-6.72-15-15z" fill="#B03A21"/>

    <!-- 陶土色抱枕装饰（右） -->
    <path d="m151.5 105.3c0-8.28 6.72-15 15-15s15 6.72 15 15-6.72 15-15 15-15-6.72-15-15z" fill="#B03A21"/>

    <!-- 扶手垫 -->
    <path d="m45.27 95.27h25v75h-25c-2.76 0-5-2.24-5-5v-65c0-2.76 2.24-5 5-5z" fill="#FEFFFE"/>
    <path d="m180.7 95.27h25v75h-25c-2.76 0-5-2.24-5-5v-65c0-2.76 2.24-5 5-5z" fill="#FEFFFE"/>
  </g>

  <!-- 描边层 -->
  <g id="stroke-layer" fill="none" stroke="#140A05" stroke-linecap="round" stroke-linejoin="round">
    <!-- 靠背轮廓（主线条 1.8px） -->
    <path d="m55.27 62.27h140.46c6.62 0 12 5.38 12 12v28c0 6.62-5.38 12-12 12h-140.46c-6.62 0-12-5.38-12-12v-28c0-6.62 5.38-12 12-12z" stroke-width="1.8"/>

    <!-- 主体轮廓（主线条 1.8px） -->
    <path d="m45.27 89.27h160.46c8.84 0 16 7.16 16 16v75c0 8.84-7.16 16-16 16h-160.46c-8.84 0-16-7.16-16-16v-75c0-8.84 7.16-16 16-16z" stroke-width="1.8"/>

    <!-- 靠背与主体连接线（中线条 1.5px） -->
    <path d="m43.27 114.3h164.46" stroke-width="1.5"/>

    <!-- 左扶手轮廓（主线条 1.8px） -->
    <path d="m45.27 95.27h25v75h-25c-2.76 0-5-2.24-5-5v-65c0-2.76 2.24-5 5-5z" stroke-width="1.8"/>

    <!-- 右扶手轮廓（主线条 1.8px） -->
    <path d="m180.7 95.27h25v75h-25c-2.76 0-5-2.24-5-5v-65c0-2.76 2.24-5 5-5z" stroke-width="1.8"/>

    <!-- 抱枕轮廓（左）（中线条 1.5px） -->
    <path d="m70.27 105.3c0-8.28 6.72-15 15-15s15 6.72 15 15-6.72 15-15 15-15-6.72-15-15z" stroke-width="1.5"/>

    <!-- 抱枕轮廓（右）（中线条 1.5px） -->
    <path d="m151.5 105.3c0-8.28 6.72-15 15-15s15 6.72 15 15-6.72 15-15 15-15-6.72-15-15z" stroke-width="1.5"/>

    <!-- 靠背纹理线（细线条 1.3px） -->
    <path d="m75.27 74.27h10" stroke-width="1.3"/>
    <path d="m95.27 74.27h10" stroke-width="1.3"/>
    <path d="m115.3 74.27h10" stroke-width="1.3"/>
    <path d="m135.3 74.27h10" stroke-width="1.3"/>
    <path d="m155.3 74.27h10" stroke-width="1.3"/>
    <path d="m175.3 74.27h10" stroke-width="1.3"/>

    <!-- 座垫缝线（细线条 1.3px） -->
    <path d="m85.27 130.3h80.46" stroke-width="1.3"/>
    <path d="m85.27 155.3h80.46" stroke-width="1.3"/>

    <!-- 抱枕装饰细节（极细线条 1.0px） -->
    <path d="m80.27 100.3v10" stroke-width="1.0"/>
    <path d="m161.5 100.3v10" stroke-width="1.0"/>
  </g>
</svg>
