<svg xmlns="http://www.w3.org/2000/svg" width="250" height="250" viewBox="0 0 250 250">
  <!-- ============================================================ -->
  <!-- 药品盒子 - 15 path，几何风格 -->
  <!-- ============================================================ -->

  <!-- 填充层 -->
  <g id="fill-layer">
    <!-- 盒子主体 -->
    <path d="m95.32 42.87h60.26c7.76 0 14.08 6.32 14.08 14.08v126.7c0 7.76-6.32 14.08-14.08 14.08h-60.26c-7.76 0-14.08-6.32-14.08-14.08v-126.7c0-7.76 6.32-14.08 14.08-14.08z" fill="#FEFFFE"/>

    <!-- 陶土色十字装饰 -->
    <path d="m125.5 85.37c-3.59 0-6.51 2.92-6.51 6.51v24.64h-24.64c-3.59 0-6.51 2.92-6.51 6.51s2.92 6.51 6.51 6.51h24.64v24.64c0 3.59 2.92 6.51 6.51 6.51s6.51-2.92 6.51-6.51v-24.64h24.64c3.59 0 6.51-2.92 6.51-6.51s-2.92-6.51-6.51-6.51h-24.64v-24.64c0-3.59-2.92-6.51-6.51-6.51z" fill="#B03A21"/>
  </g>

  <!-- 描边层 -->
  <g id="stroke-layer" fill="none" stroke="#140A05" stroke-linecap="round" stroke-linejoin="round">
    <!-- 盒子外轮廓（主线条 1.8px） -->
    <path d="m95.32 42.87h60.26c7.76 0 14.08 6.32 14.08 14.08v126.7c0 7.76-6.32 14.08-14.08 14.08h-60.26c-7.76 0-14.08-6.32-14.08-14.08v-126.7c0-7.76 6.32-14.08 14.08-14.08z" stroke-width="1.8"/>

    <!-- 盒子顶部折痕（细节线 1.3px） -->
    <path d="m81.24 105.7h88.44" stroke-width="1.3"/>
    <path d="m81.24 144.3h88.44" stroke-width="1.3"/>

    <!-- 盒子底部阴影（结构线 1.3px） -->
    <path d="m91.58 194.5c2.61 1.83 9.13 3.26 16.9 3.26h33.04c7.77 0 14.29-1.43 16.9-3.26" stroke-width="1.3"/>

    <!-- 十字装饰轮廓（中线条 1.5px） -->
    <path d="m125.5 85.37c-3.59 0-6.51 2.92-6.51 6.51v24.64h-24.64c-3.59 0-6.51 2.92-6.51 6.51s2.92 6.51 6.51 6.51h24.64v24.64c0 3.59 2.92 6.51 6.51 6.51s6.51-2.92 6.51-6.51v-24.64h24.64c3.59 0 6.51-2.92 6.51-6.51s-2.92-6.51-6.51-6.51h-24.64v-24.64c0-3.59-2.92-6.51-6.51-6.51z" stroke-width="1.5"/>

    <!-- 盒子侧面纹理（细线条 1.3px） -->
    <path d="m94.32 62.87h10" stroke-width="1.3"/>
    <path d="m146.5 62.87h10" stroke-width="1.3"/>
    <path d="m94.32 185.7h10" stroke-width="1.3"/>
    <path d="m146.5 185.7h10" stroke-width="1.3"/>

    <!-- 内部阴影线（极细线条 1.0px） -->
    <path d="m88.24 114.2h8.5" stroke-width="1.0"/>
    <path d="m154.3 114.2h8.5" stroke-width="1.0"/>
    <path d="m88.24 135.8h8.5" stroke-width="1.0"/>
    <path d="m154.3 135.8h8.5" stroke-width="1.0"/>
  </g>
</svg>
