<svg xmlns="http://www.w3.org/2000/svg" viewBox="0 0 2400 1850" width="2400" height="1850">
<defs>
  <style>
    :root {
      --bg-paper: #fcfbf7;
      --ink: #2d2926;
      --muted: #7a6f66;
      --grid: #e8e1d7;
      --sand: #fff0cf;
      --mint: #dff7e8;
      --sky: #dcebff;
      --coral: #ffe0d7;
      --amber: #ffe8b5;
      --graphite: #eae6e1;
      --flow-mint: #24b36b;
      --flow-sky: #2f7cf6;
      --flow-coral: #f36b3c;
      --flow-amber: #d79210;
      --flow-coral-fb: #e74c3c;
    }
    .node-label {
      font-family: "Segoe Print", "Bradley Hand", "Comic Sans MS", cursive;
      font-size: 15px;
      fill: var(--ink);
      text-anchor: middle;
    }
    .node-caption {
      font-family: "Avenir Next", "Segoe UI", sans-serif;
      font-size: 11px;
      fill: var(--muted);
      text-anchor: middle;
    }
    .edge-label {
      font-family: "Avenir Next", "Segoe UI", sans-serif;
      font-size: 12px;
      fill: var(--ink);
      text-anchor: middle;
    }
    .group-title {
      font-family: "Segoe Print", "Bradley Hand", "Comic Sans MS", cursive;
      font-size: 16px;
      fill: var(--ink);
    }
    .group-subtitle {
      font-family: "Avenir Next", "Segoe UI", sans-serif;
      font-size: 11px;
      fill: var(--muted);
    }
    .title-main {
      font-family: "Segoe Print", "Bradley Hand", "Comic Sans MS", cursive;
      font-size: 28px;
      fill: var(--ink);
    }
    .title-sub {
      font-family: "Avenir Next", "Segoe UI", sans-serif;
      font-size: 14px;
      fill: var(--muted);
    }
  </style>
  <marker id="arrow-mint" viewBox="0 0 10 7" refX="9" refY="3.5" markerWidth="8" markerHeight="6" orient="auto">
    <polygon points="0 0, 10 3.5, 0 7" fill="var(--flow-mint)"/>
  </marker>
  <marker id="arrow-sky" viewBox="0 0 10 7" refX="9" refY="3.5" markerWidth="8" markerHeight="6" orient="auto">
    <polygon points="0 0, 10 3.5, 0 7" fill="var(--flow-sky)"/>
  </marker>
  <marker id="arrow-coral" viewBox="0 0 10 7" refX="9" refY="3.5" markerWidth="8" markerHeight="6" orient="auto">
    <polygon points="0 0, 10 3.5, 0 7" fill="var(--flow-coral)"/>
  </marker>
  <marker id="arrow-amber" viewBox="0 0 10 7" refX="9" refY="3.5" markerWidth="8" markerHeight="6" orient="auto">
    <polygon points="0 0, 10 3.5, 0 7" fill="var(--flow-amber)"/>
  </marker>
  <marker id="arrow-muted" viewBox="0 0 10 7" refX="9" refY="3.5" markerWidth="8" markerHeight="6" orient="auto">
    <polygon points="0 0, 10 3.5, 0 7" fill="var(--muted)"/>
  </marker>
  <marker id="arrow-coral-fb" viewBox="0 0 10 7" refX="9" refY="3.5" markerWidth="8" markerHeight="6" orient="auto">
    <polygon points="0 0, 10 3.5, 0 7" fill="var(--flow-coral-fb)"/>
  </marker>
  <marker id="arrow-mint-flat" viewBox="0 0 10 7" refX="9" refY="3.5" markerWidth="8" markerHeight="6" orient="auto">
    <polygon points="0 0, 10 3.5, 0 7" fill="var(--flow-mint)"/>
  </marker>
</defs>

<!-- Background -->
<rect width="2400" height="1850" fill="var(--bg-paper)" rx="0"/>

<!-- Title -->
<text x="1200" y="42" class="title-main" text-anchor="middle">viz-design 三循环工作流</text>
<text x="1200" y="64" class="title-sub" text-anchor="middle">从需求到交付：初稿 → 减法迭代 → 验收</text>

<!-- ==================== GROUPS ==================== -->

<!-- Group 1: 入口 -->
<rect x="40" y="80" width="700" height="210" rx="16" fill="var(--sand)" stroke="var(--muted)" stroke-width="1" stroke-dasharray="6,3" opacity="0.7"/>
<text x="60" y="106" class="group-title">入口</text>
<text x="60" y="124" class="group-subtitle">需求接收 + 模式选择</text>

<!-- Group 2: R0 门禁 -->
<rect x="40" y="300" width="700" height="160" rx="16" fill="var(--amber)" stroke="var(--muted)" stroke-width="1" stroke-dasharray="6,3" opacity="0.7"/>
<text x="60" y="326" class="group-title">R0 必要性门禁</text>
<text x="60" y="344" class="group-subtitle">判断是否需要可视化</text>

<!-- Group 3: 循环1 初稿 -->
<rect x="40" y="480" width="1520" height="340" rx="16" fill="var(--sky)" stroke="var(--flow-sky)" stroke-width="1.5" stroke-dasharray="6,3" opacity="0.6"/>
<text x="60" y="506" class="group-title" fill="var(--flow-sky)">循环 1：初稿 — 先有</text>
<text x="60" y="524" class="group-subtitle">DNA 匹配 → 施工图 → 中间文件 → 第一版</text>

<!-- Group 4: 循环2 减法 -->
<rect x="40" y="840" width="1520" height="220" rx="16" fill="var(--mint)" stroke="var(--flow-mint)" stroke-width="1.5" stroke-dasharray="6,3" opacity="0.6"/>
<text x="60" y="866" class="group-title" fill="var(--flow-mint)">循环 2：减法迭代 — 再做精</text>
<text x="60" y="884" class="group-subtitle">7 个问题逐项追问，最多 3 轮</text>

<!-- Group 5: 循环3 验收 -->
<rect x="40" y="1080" width="1520" height="260" rx="16" fill="var(--coral)" stroke="var(--flow-coral)" stroke-width="1.5" stroke-dasharray="6,3" opacity="0.6"/>
<text x="60" y="1106" class="group-title" fill="var(--flow-coral)">循环 3：验收 — 最后检查</text>
<text x="60" y="1124" class="group-subtitle">checklist 逐项检查，4+ 不通过 → 回退循环 1</text>

<!-- Group 6: 渲染+交付 -->
<rect x="1600" y="480" width="760" height="900" rx="16" fill="var(--graphite)" stroke="var(--muted)" stroke-width="1" stroke-dasharray="6,3" opacity="0.5"/>
<text x="1620" y="506" class="group-title">渲染目标 + 交付</text>
<text x="1620" y="524" class="group-subtitle">按类型选择渲染方式</text>

<!-- ==================== NODES ==================== -->

<!-- N1: 收到需求 -->
<g transform="translate(280, 130)">
  <rect x="-2" y="-2" width="204" height="64" rx="20" fill="none" stroke="var(--muted)" stroke-width="1"/>
  <rect x="0" y="0" width="200" height="60" rx="18" fill="var(--sand)" stroke="var(--ink)" stroke-width="2"/>
  <text x="100" y="26" class="node-label">收到需求</text>
  <text x="100" y="46" class="node-caption">用户输入</text>
</g>

<!-- N2: 入口模式选择 -->
<g transform="translate(130, 210)">
  <rect x="-2" y="-2" width="224" height="64" rx="20" fill="none" stroke="var(--muted)" stroke-width="1"/>
  <rect x="0" y="0" width="220" height="60" rx="18" fill="var(--sky)" stroke="var(--ink)" stroke-width="2"/>
  <text x="110" y="22" class="node-label">入口模式选择</text>
  <text x="110" y="38" class="node-caption">A 引导 | B 推荐 | C 自定义</text>
  <text x="110" y="52" class="node-caption">C 快速路径(单图)</text>
</g>

<!-- N3: 快速通道决策 -->
<g transform="translate(410, 210)">
  <rect x="-2" y="-2" width="264" height="64" rx="20" fill="none" stroke="var(--muted)" stroke-width="1"/>
  <rect x="0" y="0" width="260" height="60" rx="18" fill="var(--amber)" stroke="var(--ink)" stroke-width="2"/>
  <text x="130" y="22" class="node-label">快速通道决策</text>
  <text x="130" y="38" class="node-caption">单图轻量 | 多图完整 | 概念 | 引导</text>
  <text x="130" y="52" class="node-caption">中间文件: 跳过 / 完整 / 概念</text>
</g>

<!-- N4: R0 必要性门禁 (diamond) -->
<g transform="translate(430, 380)">
  <rect x="-2" y="-2" width="144" height="64" rx="4" fill="none" stroke="var(--muted)" stroke-width="1" transform="rotate(0)"/>
  <polygon points="0,30 70,0 140,30 70,60" fill="var(--coral)" stroke="var(--ink)" stroke-width="2"/>
  <text x="70" y="28" class="node-label" font-size="13px">R0 门禁</text>
  <text x="70" y="44" class="node-caption" font-size="10px">能一句话说清?</text>
</g>

<!-- N4a: 不做图 -->
<g transform="translate(640, 370)">
  <rect x="-1" y="-1" width="92" height="34" rx="10" fill="none" stroke="var(--muted)" stroke-width="1"/>
  <rect x="0" y="0" width="90" height="32" rx="9" fill="var(--graphite)" stroke="var(--ink)" stroke-width="1.5"/>
  <text x="45" y="21" class="node-caption">文字表达</text>
</g>

<!-- N4b: 表格 -->
<g transform="translate(640, 415)">
  <rect x="-1" y="-1" width="92" height="34" rx="10" fill="none" stroke="var(--muted)" stroke-width="1"/>
  <rect x="0" y="0" width="90" height="32" rx="9" fill="var(--graphite)" stroke="var(--ink)" stroke-width="1.5"/>
  <text x="45" y="21" class="node-caption">表格</text>
</g>

<!-- N5: DNA 意图匹配 -->
<g transform="translate(120, 560)">
  <rect x="-2" y="-2" width="204" height="64" rx="20" fill="none" stroke="var(--muted)" stroke-width="1"/>
  <rect x="0" y="0" width="200" height="60" rx="18" fill="var(--sky)" stroke="var(--ink)" stroke-width="2"/>
  <text x="100" y="26" class="node-label">DNA 意图匹配</text>
  <text x="100" y="44" class="node-caption">dna-index-ai.md</text>
</g>

<!-- N6: 查 TSV 继承策略 -->
<g transform="translate(370, 560)">
  <rect x="-2" y="-2" width="204" height="64" rx="20" fill="none" stroke="var(--muted)" stroke-width="1"/>
  <rect x="0" y="0" width="200" height="60" rx="18" fill="var(--sky)" stroke="var(--ink)" stroke-width="2"/>
  <text x="100" y="26" class="node-label">查 TSV 继承策略</text>
  <text x="100" y="44" class="node-caption">highlight / annotation / 色板</text>
</g>

<!-- N7: 命中施工图模板? -->
<g transform="translate(620, 560)">
  <polygon points="0,30 70,0 140,30 70,60" fill="var(--amber)" stroke="var(--ink)" stroke-width="2"/>
  <text x="70" y="26" class="node-label" font-size="12px">命中模板?</text>
  <text x="70" y="44" class="node-caption" font-size="10px">dna-playbook</text>
</g>

<!-- N7a: 直接套用 -->
<g transform="translate(820, 560)">
  <rect x="-1" y="-1" width="122" height="44" rx="12" fill="none" stroke="var(--muted)" stroke-width="1"/>
  <rect x="0" y="0" width="120" height="42" rx="11" fill="var(--mint)" stroke="var(--ink)" stroke-width="1.5"/>
  <text x="60" y="20" class="node-label" font-size="12px">直接套用</text>
  <text x="60" y="35" class="node-caption">只替换数据</text>
</g>

<!-- N7b: Fallback 链 -->
<g transform="translate(660, 650)">
  <rect x="-1" y="-1" width="182" height="44" rx="12" fill="none" stroke="var(--muted)" stroke-width="1"/>
  <rect x="0" y="0" width="180" height="42" rx="11" fill="var(--amber)" stroke="var(--ink)" stroke-width="1.5"/>
  <text x="90" y="20" class="node-label" font-size="12px">Fallback 链</text>
  <text x="90" y="35" class="node-caption">concept → archetypes → 推理</text>
</g>

<!-- N8: 版式匹配 -->
<g transform="translate(120, 660)">
  <rect x="-1" y="-1" width="162" height="44" rx="12" fill="none" stroke="var(--muted)" stroke-width="1"/>
  <rect x="0" y="0" width="160" height="42" rx="11" fill="var(--sky)" stroke="var(--ink)" stroke-width="1.5"/>
  <text x="80" y="20" class="node-label" font-size="12px">版式匹配</text>
  <text x="80" y="35" class="node-caption">layout-selector.md</text>
</g>

<!-- N9: 写中间文件 -->
<g transform="translate(350, 660)">
  <rect x="-1" y="-1" width="224" height="54" rx="12" fill="none" stroke="var(--muted)" stroke-width="1"/>
  <rect x="0" y="0" width="220" height="52" rx="11" fill="var(--sand)" stroke="var(--ink)" stroke-width="1.5"/>
  <text x="110" y="20" class="node-label" font-size="12px">写中间文件</text>
  <text x="110" y="35" class="node-caption">intent.md / storyboard.md</text>
  <text x="110" y="48" class="node-caption">spec.md</text>
</g>

<!-- N10: 出第一版图表 -->
<g transform="translate(620, 740)">
  <rect x="-2" y="-2" width="204" height="54" rx="20" fill="none" stroke="var(--muted)" stroke-width="1"/>
  <rect x="0" y="0" width="200" height="50" rx="18" fill="var(--sky)" stroke="var(--ink)" stroke-width="2"/>
  <text x="100" y="22" class="node-label" font-size="13px">出第一版</text>
  <text x="100" y="40" class="node-caption">ECharts HTML / SVG</text>
</g>

<!-- N11: 7 问题逐项追问 -->
<g transform="translate(120, 920)">
  <rect x="-2" y="-2" width="244" height="104" rx="20" fill="none" stroke="var(--muted)" stroke-width="1"/>
  <rect x="0" y="0" width="240" height="100" rx="18" fill="var(--mint)" stroke="var(--ink)" stroke-width="2"/>
  <text x="120" y="22" class="node-label">7 问题逐项追问</text>
  <text x="120" y="40" class="node-caption">标题 → 图例 → 网格线 → 边框</text>
  <text x="120" y="56" class="node-caption">标注 → 参考线 → 色块/背景</text>
  <text x="120" y="74" class="node-caption" font-style="italic">"去掉会影响理解吗?"</text>
  <text x="120" y="92" class="node-caption">最多 3 轮 | 用户说"够了"提前终止</text>
</g>

<!-- N12: 更新中间文件 -->
<g transform="translate(420, 940)">
  <rect x="-1" y="-1" width="182" height="44" rx="12" fill="none" stroke="var(--muted)" stroke-width="1"/>
  <rect x="0" y="0" width="180" height="42" rx="11" fill="var(--sand)" stroke="var(--ink)" stroke-width="1.5"/>
  <text x="90" y="20" class="node-label" font-size="12px">同步更新中间文件</text>
  <text x="90" y="35" class="node-caption">记录每次迭代决策</text>
</g>

<!-- N13: 逐项检查 checklist -->
<g transform="translate(120, 1160)">
  <rect x="-2" y="-2" width="264" height="124" rx="20" fill="none" stroke="var(--muted)" stroke-width="1"/>
  <rect x="0" y="0" width="260" height="120" rx="18" fill="var(--coral)" stroke="var(--ink)" stroke-width="2"/>
  <text x="130" y="22" class="node-label">验收 checklist</text>
  <text x="130" y="40" class="node-caption">内容截断 | 代码泄露 | 中文乱码</text>
  <text x="130" y="56" class="node-caption">元素重叠 | 色盲友好(禁用红绿)</text>
  <text x="130" y="72" class="node-caption">高亮 ≤10% | 标题结论性</text>
  <text x="130" y="88" class="node-caption">一图一核心判断</text>
  <text x="130" y="110" class="node-caption" fill="var(--flow-coral-fb)" font-weight="bold">4+ 不通过 → 回退循环 1</text>
</g>

<!-- N14: 通过? -->
<g transform="translate(440, 1180)">
  <polygon points="0,30 60,0 120,30 60,60" fill="var(--mint)" stroke="var(--ink)" stroke-width="2"/>
  <text x="60" y="26" class="node-label" font-size="12px">通过?</text>
  <text x="60" y="44" class="node-caption" font-size="10px">&lt;4 项不通过</text>
</g>

<!-- N15: 渲染目标选择 -->
<g transform="translate(1700, 580)">
  <rect x="-2" y="-2" width="224" height="114" rx="20" fill="none" stroke="var(--muted)" stroke-width="1"/>
  <rect x="0" y="0" width="220" height="110" rx="18" fill="var(--graphite)" stroke="var(--ink)" stroke-width="2"/>
  <text x="110" y="24" class="node-label">渲染目标选择</text>
  <text x="110" y="46" class="node-caption">数据图表 → ECharts HTML</text>
  <text x="110" y="64" class="node-caption">概念图 → SVG</text>
  <text x="110" y="82" class="node-caption">印刷级 → nature-figure</text>
  <text x="110" y="102" class="node-caption">多图: 先锁全局风格</text>
</g>

<!-- N16: 交付 -->
<g transform="translate(1700, 760)">
  <rect x="-2" y="-2" width="224" height="64" rx="20" fill="none" stroke="var(--muted)" stroke-width="1"/>
  <rect x="0" y="0" width="220" height="60" rx="18" fill="var(--mint)" stroke="var(--ink)" stroke-width="2.5"/>
  <text x="110" y="26" class="node-label">交付</text>
  <text x="110" y="46" class="node-caption">最终图表 + 中间文件归档</text>
</g>

<!-- N17: 回退循环1 -->
<g transform="translate(1000, 1200)">
  <rect x="-2" y="-2" width="224" height="64" rx="20" fill="none" stroke="var(--muted)" stroke-width="1"/>
  <rect x="0" y="0" width="220" height="60" rx="18" fill="var(--coral)" stroke="var(--flow-coral-fb)" stroke-width="2.5"/>
  <text x="110" y="26" class="node-label" fill="var(--flow-coral-fb)">回退 → 循环 1</text>
  <text x="110" y="46" class="node-caption">重新 DNA 匹配 → 重做</text>
</g>

<!-- ==================== EDGES ==================== -->

<!-- Entry → Mode selection -->
<path d="M 380,190 C 380,200 240,200 240,210" fill="none" stroke="var(--flow-mint)" stroke-width="4" stroke-dasharray="8,4" marker-end="url(#arrow-mint)">
  <animate attributeName="stroke-dashoffset" from="0" to="-24" dur="2s" repeatCount="indefinite"/>
</path>
<rect x="248" y="178" width="60" height="22" rx="11" fill="var(--bg-paper)" stroke="var(--flow-mint)" stroke-width="1"/>
<text x="278" y="193" class="edge-label" fill="var(--flow-mint)">分流</text>

<!-- Entry → Fast-track decision -->
<path d="M 480,190 C 480,200 540,200 540,210" fill="none" stroke="var(--flow-mint)" stroke-width="4" stroke-dasharray="8,4" marker-end="url(#arrow-mint)">
  <animate attributeName="stroke-dashoffset" from="0" to="-24" dur="2s" repeatCount="indefinite"/>
</path>

<!-- Mode → R0 Gate -->
<path d="M 240,270 C 240,320 430,320 430,370" fill="none" stroke="var(--flow-mint)" stroke-width="4" stroke-dasharray="8,4" marker-end="url(#arrow-mint)">
  <animate attributeName="stroke-dashoffset" from="0" to="-24" dur="2s" repeatCount="indefinite"/>
</path>
<rect x="295" y="295" width="60" height="22" rx="11" fill="var(--bg-paper)" stroke="var(--flow-mint)" stroke-width="1"/>
<text x="325" y="310" class="edge-label" fill="var(--flow-mint)">汇总</text>

<!-- Fast-track → R0 Gate (skip modes) -->
<path d="M 540,270 C 540,300 500,320 500,370" fill="none" stroke="var(--flow-sky)" stroke-width="3" stroke-dasharray="6,4" marker-end="url(#arrow-sky)">
  <animate attributeName="stroke-dashoffset" from="0" to="-20" dur="2.2s" repeatCount="indefinite"/>
</path>
<rect x="498" y="295" width="48" height="22" rx="11" fill="var(--bg-paper)" stroke="var(--flow-sky)" stroke-width="1"/>
<text x="522" y="310" class="edge-label" fill="var(--flow-sky)">跳过</text>

<!-- R0 → 文字表达 (no chart) -->
<path d="M 570,380 L 640,386" fill="none" stroke="var(--muted)" stroke-width="2" stroke-dasharray="4,4" marker-end="url(#arrow-muted)"/>
<text x="600" y="374" class="edge-label" font-size="10px">能一句话说清</text>

<!-- R0 → 表格 -->
<path d="M 570,395 L 640,430" fill="none" stroke="var(--muted)" stroke-width="2" stroke-dasharray="4,4" marker-end="url(#arrow-muted)"/>
<text x="600" y="402" class="edge-label" font-size="10px">精确数值</text>

<!-- R0 → Loop 1 (continue) -->
<path d="M 500,440 C 500,480 220,500 220,560" fill="none" stroke="var(--flow-mint)" stroke-width="4" stroke-dasharray="8,4" marker-end="url(#arrow-mint)">
  <animate attributeName="stroke-dashoffset" from="0" to="-24" dur="2s" repeatCount="indefinite"/>
</path>
<rect x="400" y="470" width="72" height="22" rx="11" fill="var(--bg-paper)" stroke="var(--flow-mint)" stroke-width="1"/>
<text x="436" y="485" class="edge-label" fill="var(--flow-mint)">分布/趋势/关联</text>

<!-- Loop 1: DNA → TSV -->
<path d="M 320,590 L 370,590" fill="none" stroke="var(--flow-sky)" stroke-width="4" stroke-dasharray="8,4" marker-end="url(#arrow-sky)">
  <animate attributeName="stroke-dashoffset" from="0" to="-24" dur="2s" repeatCount="indefinite"/>
</path>

<!-- Loop 1: TSV → Hit template? -->
<path d="M 570,590 L 620,590" fill="none" stroke="var(--flow-sky)" stroke-width="4" stroke-dasharray="8,4" marker-end="url(#arrow-sky)">
  <animate attributeName="stroke-dashoffset" from="0" to="-24" dur="2s" repeatCount="indefinite"/>
</path>

<!-- Loop 1: Hit? → Yes: 直接套用 -->
<path d="M 760,590 L 820,590" fill="none" stroke="var(--flow-mint)" stroke-width="3" stroke-dasharray="6,4" marker-end="url(#arrow-mint)"/>
<text x="792" y="582" class="edge-label" font-size="10px" fill="var(--flow-mint)">命中</text>

<!-- Loop 1: Hit? → No: Fallback -->
<path d="M 690,620 L 690,650" fill="none" stroke="var(--flow-amber)" stroke-width="3" stroke-dasharray="6,4" marker-end="url(#arrow-amber)"/>
<text x="718" y="638" class="edge-label" font-size="10px" fill="var(--flow-amber)">未命中</text>

<!-- Fallback → 版式 -->
<path d="M 660,671 C 500,671 280,682 280,680" fill="none" stroke="var(--flow-sky)" stroke-width="3" stroke-dasharray="6,4" marker-end="url(#arrow-sky)">
  <animate attributeName="stroke-dashoffset" from="0" to="-20" dur="2.2s" repeatCount="indefinite"/>
</path>

<!-- 套用 → 版式 (also goes through) -->
<path d="M 880,582 C 900,582 900,680 280,680" fill="none" stroke="var(--flow-sky)" stroke-width="3" stroke-dasharray="6,4" marker-end="url(#arrow-sky)">
  <animate attributeName="stroke-dashoffset" from="0" to="-20" dur="2.2s" repeatCount="indefinite"/>
</path>

<!-- 版式 → 中间文件 -->
<path d="M 280,682 L 350,686" fill="none" stroke="var(--flow-sky)" stroke-width="4" stroke-dasharray="8,4" marker-end="url(#arrow-sky)">
  <animate attributeName="stroke-dashoffset" from="0" to="-24" dur="2s" repeatCount="indefinite"/>
</path>

<!-- 中间文件 → 出第一版 -->
<path d="M 460,686 C 520,686 580,765 620,765" fill="none" stroke="var(--flow-sky)" stroke-width="4" stroke-dasharray="8,4" marker-end="url(#arrow-sky)">
  <animate attributeName="stroke-dashoffset" from="0" to="-24" dur="2s" repeatCount="indefinite"/>
</path>

<!-- 出第一版 → 循环2 减法 -->
<path d="M 720,790 C 720,850 240,870 240,920" fill="none" stroke="var(--flow-mint)" stroke-width="4" stroke-dasharray="8,4" marker-end="url(#arrow-mint)">
  <animate attributeName="stroke-dashoffset" from="0" to="-24" dur="2s" repeatCount="indefinite"/>
</path>
<rect x="640" y="820" width="72" height="22" rx="11" fill="var(--bg-paper)" stroke="var(--flow-mint)" stroke-width="1"/>
<text x="676" y="835" class="edge-label" fill="var(--flow-mint)">初稿完成</text>

<!-- Loop 2: 追问 → 更新中间文件 -->
<path d="M 360,970 L 420,961" fill="none" stroke="var(--flow-sky)" stroke-width="3" stroke-dasharray="6,4" marker-end="url(#arrow-sky)"/>

<!-- Loop 2: 迭代自循环 -->
<path d="M 240,1020 C 180,1020 180,940 240,940" fill="none" stroke="var(--flow-mint)" stroke-width="2.5" stroke-dasharray="6,4" marker-end="url(#arrow-mint)">
  <animate attributeName="stroke-dashoffset" from="0" to="-20" dur="2.4s" repeatCount="indefinite"/>
</path>
<rect x="148" y="960" width="48" height="22" rx="11" fill="var(--bg-paper)" stroke="var(--flow-mint)" stroke-width="1"/>
<text x="172" y="975" class="edge-label" fill="var(--flow-mint)" font-size="10px">≤3轮</text>

<!-- Loop 2 → Loop 3 -->
<path d="M 240,1020 C 240,1060 250,1100 250,1160" fill="none" stroke="var(--flow-mint)" stroke-width="4" stroke-dasharray="8,4" marker-end="url(#arrow-mint)">
  <animate attributeName="stroke-dashoffset" from="0" to="-24" dur="2s" repeatCount="indefinite"/>
</path>
<rect x="190" y="1060" width="60" height="22" rx="11" fill="var(--bg-paper)" stroke="var(--flow-mint)" stroke-width="1"/>
<text x="220" y="1075" class="edge-label" fill="var(--flow-mint)">减法完成</text>

<!-- Loop 3: checklist → 通过? -->
<path d="M 380,1210 L 440,1210" fill="none" stroke="var(--flow-coral)" stroke-width="4" stroke-dasharray="8,4" marker-end="url(#arrow-coral)">
  <animate attributeName="stroke-dashoffset" from="0" to="-24" dur="2s" repeatCount="indefinite"/>
</path>

<!-- 通过? → 交付 (Yes) -->
<path d="M 500,1210 C 600,1210 600,790 1700,790" fill="none" stroke="var(--flow-mint)" stroke-width="4" stroke-dasharray="8,4" marker-end="url(#arrow-mint)">
  <animate attributeName="stroke-dashoffset" from="0" to="-24" dur="2s" repeatCount="indefinite"/>
</path>
<rect x="920" y="778" width="48" height="22" rx="11" fill="var(--bg-paper)" stroke="var(--flow-mint)" stroke-width="1"/>
<text x="944" y="793" class="edge-label" fill="var(--flow-mint)">通过</text>

<!-- 通过? → 回退循环1 (No: 4+ fail) -->
<path d="M 560,1210 L 1000,1230" fill="none" stroke="var(--flow-coral-fb)" stroke-width="4" stroke-dasharray="8,4" marker-end="url(#arrow-coral-fb)">
  <animate attributeName="stroke-dashoffset" from="0" to="-24" dur="1.8s" repeatCount="indefinite"/>
</path>
<rect x="720" y="1210" width="100" height="22" rx="11" fill="var(--bg-paper)" stroke="var(--flow-coral-fb)" stroke-width="1"/>
<text x="770" y="1225" class="edge-label" fill="var(--flow-coral-fb)" font-size="11px">4+ 不通过</text>

<!-- 回退循环1 → 循环1 (feedback loop on perimeter) -->
<path d="M 1110,1200 C 1110,1100 1200,560 320,590" fill="none" stroke="var(--flow-coral-fb)" stroke-width="3" stroke-dasharray="8,4" marker-end="url(#arrow-coral-fb)">
  <animate attributeName="stroke-dashoffset" from="0" to="-24" dur="2s" repeatCount="indefinite"/>
</path>
<rect x="1020" y="840" width="100" height="22" rx="11" fill="var(--bg-paper)" stroke="var(--flow-coral-fb)" stroke-width="1"/>
<text x="1070" y="855" class="edge-label" fill="var(--flow-coral-fb)" font-size="11px">回退重做</text>

<!-- Loop 1 出第一版 → 渲染目标选择 -->
<path d="M 820,765 C 1200,765 1700,650 1700,635" fill="none" stroke="var(--flow-amber)" stroke-width="3" stroke-dasharray="6,4" marker-end="url(#arrow-amber)">
  <animate attributeName="stroke-dashoffset" from="0" to="-20" dur="2.2s" repeatCount="indefinite"/>
</path>
<rect x="1200" y="680" width="80" height="22" rx="11" fill="var(--bg-paper)" stroke="var(--flow-amber)" stroke-width="1"/>
<text x="1240" y="695" class="edge-label" fill="var(--flow-amber)">选择渲染方式</text>

<!-- 渲染目标 → 交付 -->
<path d="M 1810,690 L 1810,760" fill="none" stroke="var(--flow-mint)" stroke-width="4" stroke-dasharray="8,4" marker-end="url(#arrow-mint)">
  <animate attributeName="stroke-dashoffset" from="0" to="-24" dur="2s" repeatCount="indefinite"/>
</path>

<!-- ==================== LEGEND ==================== -->
<g transform="translate(1800, 1560)">
  <rect x="0" y="0" width="560" height="250" rx="12" fill="var(--bg-paper)" stroke="var(--muted)" stroke-width="1.5"/>
  <text x="20" y="28" class="group-title" font-size="14px">图例</text>

  <!-- Phase colors -->
  <rect x="20" y="48" width="16" height="16" rx="4" fill="var(--sky)" stroke="var(--flow-sky)" stroke-width="1.5"/>
  <text x="46" y="61" class="edge-label">循环 1 初稿 (蓝色)</text>

  <rect x="20" y="76" width="16" height="16" rx="4" fill="var(--mint)" stroke="var(--flow-mint)" stroke-width="1.5"/>
  <text x="46" y="89" class="edge-label">循环 2 减法迭代 (绿色)</text>

  <rect x="20" y="104" width="16" height="16" rx="4" fill="var(--coral)" stroke="var(--flow-coral)" stroke-width="1.5"/>
  <text x="46" y="117" class="edge-label">循环 3 验收 (橙色)</text>

  <rect x="20" y="132" width="16" height="16" rx="4" fill="var(--sand)" stroke="var(--flow-amber)" stroke-width="1.5"/>
  <text x="46" y="145" class="edge-label">入口 / 中间文件 (黄色)</text>

  <!-- Connector types -->
  <line x1="20" y1="174" x2="60" y2="174" stroke="var(--flow-mint)" stroke-width="4" stroke-dasharray="8,4"/>
  <text x="70" y="178" class="edge-label">主流程</text>

  <line x1="20" y1="200" x2="60" y2="200" stroke="var(--flow-sky)" stroke-width="3" stroke-dasharray="6,4"/>
  <text x="70" y="204" class="edge-label">分支 / 次级流程</text>

  <line x1="20" y1="226" x2="60" y2="226" stroke="var(--flow-coral-fb)" stroke-width="3" stroke-dasharray="8,4"/>
  <text x="70" y="230" class="edge-label">回退 / 反馈回路</text>

  <!-- Node shapes -->
  <rect x="280" y="48" width="24" height="16" rx="4" fill="var(--graphite)" stroke="var(--ink)" stroke-width="1.5"/>
  <text x="314" y="61" class="edge-label">处理步骤</text>

  <polygon points="300,82 290,94 300,106 310,94" fill="var(--amber)" stroke="var(--ink)" stroke-width="1.5"/>
  <text x="314" y="98" class="edge-label">决策节点</text>

  <rect x="280" y="118" width="24" height="16" rx="8" fill="var(--mint)" stroke="var(--ink)" stroke-width="2"/>
  <text x="314" y="131" class="edge-label">终态 / 交付</text>
</g>

</svg>
