<svg xmlns="http://www.w3.org/2000/svg" width="250" height="250" fill="none" viewBox="0 0 250 250"><path d="m5.45 68.81c-0.19 5.26 1.72 11.07 8.46 13.69 7.83 3.12 21.17 0.27 36.16-7.7l-0.98-1.24c-10.77 5.52-24.43 10.33-34.43 8.23-6.55-1.42-8.85-7.06-8.8-11.59l-0.41-1.39z" fill="#140A05"/><path d="m44.51 43.62c7.27-6.42 12.68-10.5 20.5-10.08 5.53 0.01 8.78 4.22 9.38 10.16 0.82 7.29-3.02 14.01-7 17.88l-2.11-1.77c5.03-4.19 8.7-9.53 8.1-16.55-0.59-4.45-3.5-7.93-8.47-8-7.03-0.27-11.25 3.66-18.75 10.05l-1.65-1.69z" fill="#140A05"/><path d="m13.82 57.47c-6.96 2.51-9.71 8.84-8.73 12.7 1.33 5.44 6.12 6.75 11.85 6.76 8.29 0 16.24-3.2 26.77-7.31l-0.94-1.45c-9.01 3.98-15.79 6.44-22.66 6.44-6.93 0-10.58-1.92-11.99-5.84-1.6-4.11 1.55-8.56 6.91-10l10.8-3.66-1.42-1.3-10.59 3.66z" fill="#140A05"/><path d="m244.7 192.4-223.3-165.6c-2.45-1.81-4.98 1.08-4.02 3.58l0.39 0.89 217.3 176.7c1.64 1.6 3.06 0.18 4.23-0.99 3.89-3.89 8.27-10.22 5.39-14.63z" fill="#FEFFFE" stroke="#140A05" stroke-linecap="round" stroke-linejoin="round" stroke-miterlimit="10" stroke-width="1.701"/><path d="m233.8 197.8-214.9-168.7c-2.38-1.82-5.06 0.87-3.79 3.57l0.42 0.63 208.2 178.5c2.75 2.36 2.27 5.51-0.48 8.89-2.36 2.93-5.45 2.92-6.87 0.97l-208.1-184.6c-2.28-2.22 0.47-5.73 3-3.92l211.8 176.9" fill="#FEFFFE"/><path d="m233.8 197.8-214.9-168.7c-2.38-1.82-5.06 0.87-3.79 3.57l0.42 0.63 208.2 178.5c2.75 2.36 2.27 5.51-0.48 8.89-2.36 2.93-5.45 2.92-6.87 0.97l-208.1-184.6c-2.28-2.22 0.47-5.73 3-3.92l211.8 176.9" stroke="#140A05" stroke-linecap="round" stroke-linejoin="round" stroke-miterlimit="10" stroke-width="1.701"/><path d="m235.4 207.9c-0.48-4.11 1.67-9.21 9.29-14.31" stroke="#140A05" stroke-linecap="round" stroke-linejoin="round" stroke-miterlimit="10" stroke-width="1.701"/><path d="m215.7 218.1c2.21-0.83 4.97-3.58 5.8-6.34" stroke="#140A05" stroke-linecap="round" stroke-linejoin="round" stroke-miterlimit="10" stroke-width="1.3"/><path d="m60.96 38.68c-3.45 0-4.08 2.83-3.9 4.65 0.31 2.88 2.42 3.98 4.23 3.98 3.45 0 4.36-2.36 4.12-4.65-0.23-2.15-1.65-3.98-4.45-3.98z" fill="#B03A21"/></svg>