<svg xmlns="http://www.w3.org/2000/svg" width="200" height="200" fill="none" viewBox="0 0 200 200"><!-- SVG created with Arrow, by QuiverAI (https://quiver.ai) -->  <path d="m91.31 24.86c-0.62 5.23 1.91 5.47 2.91 4.55 1.87-1.75 4.05-1.22 5.89-0.82 1.07-1.23 5.51-3.71 7.9-3.26 2.4 0.45 3.39 0.9 4.93 0.34 3.22-1.21 2.98 2.13 1.28 3.15 1.7 0.39 3.29 1.21 2.68 4.02 1.56-2.67 5.76-4.46 10.81 0.27 0.43 0.4 0.73 0.81 0.98 1.22l11.15-4.33c1.08-0.53 3.18 6.89 0.44 15.69-1.7 5.78-4.47 9.63-4.47 9.63l1.15 1.86-26.34 95.33c-3.61 14.2-4.21 22.84 0.51 28.34-3.34-1.23-3.69-6.67-1.72-15.12l10.45-44.02-1.75-6.85c-1.71 1.93-4.42 1.61-6.23-0.45-1.92-0.93-5.1 4.36-10.82 4.67-3.25 0.17-3.87-4.41-8.46-5.15-2.02-0.35-2.68 0.68-4.78 0.5-1.39-0.12-1.6 1.49-3.71 1.71-1.43 0.15-1.79-1.16-3.54-1.35l-0.93 0.32-16.04-57.39 1.11-4.08-1.8-1.23-5.29-12.63c1.23-1.86 9.29-2.35 10.63-2-1.18-7.49 2.67-13.92 5.84-17.14l1.12 0.24 8.64 8.33 0.01 7.24c1.86-1.13 3.61-3.69 4.32-5.33-1.23-1.09-3.07-4.03 1.42-7.36 0.84-0.64 1.71-0.63 1.71 1.1z" fill="#FEFFFE" stroke="#0A0806" stroke-linecap="round" stroke-linejoin="round" stroke-width=".6"/>  <path d="m110.1 176.9c11.18 1.52 19.84 5.36 19.84 10.01 0 6.13-11.52 10.08-29.72 10.08-17.51 0-29.03-3.59-29.03-10.37 0-3.9 6.82-8.11 17.45-9.72" stroke="#0A0806" stroke-linecap="round" stroke-linejoin="round" stroke-width=".6"/>  <path d="m73.34 188.2c2.74 3.97 11.94 6.77 26.62 6.77 11.16 0 23.68-2.45 27.6-6.77" stroke="#0A0806" stroke-linecap="round" stroke-linejoin="round" stroke-width=".6"/>  <path d="m64.46 56.7c1.7 2.21 8.52 3.37 35.36 3.52 16.46 0.09 33.37-0.5 36.22-3.81" stroke="#C1982F" stroke-linecap="round" stroke-linejoin="round" stroke-width=".6"/>  <path d="m58.31 39.78c6.51-1.34 16.18-1.05 20.48 2.54" stroke="#0A0806" stroke-linecap="round" stroke-linejoin="round" stroke-width=".6"/>  <path d="m70.88 37.97c-1.03-4.52-0.6-10.84 3.04-16.98" stroke="#0A0806" stroke-linecap="round" stroke-linejoin="round" stroke-width=".6"/>  <path d="m128.6 34.33 11.28-4.31c1.23 1.1 0.12 13.17-5.2 23.75" stroke="#0A0806" stroke-linecap="round" stroke-linejoin="round" stroke-width=".6"/>  <path d="m139.4 34.71-0.39 2.72 1.37 0.98-1.37 0.82 1.04 1.5-1.75 0.29 0.97 1.99-2.3 0.35 0.92 2.56-1.71 0.5" stroke="#0A0806" stroke-linecap="round" stroke-linejoin="round" stroke-width=".6"/>  <path d="m133.3 48.3 0.86 1.85-1.45 0.47 1.39 1.39-2.1 0.65 1.3 2.27" stroke="#0A0806" stroke-linecap="round" stroke-linejoin="round" stroke-width=".6"/>  <path d="m63.57 53.11c3.64-0.53 8.15 2.01 9.07 4.81" stroke="#0A0806" stroke-linecap="round" stroke-linejoin="round" stroke-width=".6"/>  <path d="m75.96 61.91c0.17 2.2 1.56 4.53 3.32 5.63" stroke="#0A0806" stroke-linecap="round" stroke-linejoin="round" stroke-width=".6"/>  <path d="m67.09 62.5 1.66 3.31" stroke="#0A0806" stroke-linecap="round" stroke-linejoin="round" stroke-width=".6"/>  <path d="m69.94 62.71c0.45 1.7 2.19 3.32 3.42 3.9" stroke="#0A0806" stroke-linecap="round" stroke-linejoin="round" stroke-width=".6"/>  <path d="m77.71 69.16c1.7-0.82 3.15-0.89 5.43-0.25 3.63 1.06 6.54 2.35 8.07 2.35h5.67" stroke="#0A0806" stroke-linecap="round" stroke-linejoin="round" stroke-width=".6"/>  <path d="m102.8 70.5c2.29-1.02 5.52-1.34 8.04-0.79 1.49 0.35 2.79 0.79 4.18 0.4" stroke="#0A0806" stroke-linecap="round" stroke-linejoin="round" stroke-width=".6"/>  <path d="m132.7 63.05 1.23-0.63" stroke="#0A0806" stroke-linecap="round" stroke-linejoin="round" stroke-width=".6"/>  <path d="m71.91 79.31c1.34 1.39 2.86 1.25 3.82-0.4 1.39-2.5 2.68-1.59 4.26-0.36 3.41 2.67 6.15 5.12 11.74 4.77 4.73-0.3 7.18-3.62 10.97-3.51 2.97 0.09 5.25 2.52 7.92 1.6 2.59-0.89 5.66-5.32 7.87-4.49 1.58 0.64 1.6 4.43 4.74 5.11 2.18 0.51 4.24-0.92 5.4-2.42" stroke="#0A0806" stroke-linecap="round" stroke-linejoin="round" stroke-width=".6"/>  <path d="m76.94 85.42c7.17 0.74 14.12 8.71 13.67 18.27-1.39 0.82-2.62-0.3-3.9-0.87-2.85-1.27-5.52-2.57-9-2.69" stroke="#0A0806" stroke-linecap="round" stroke-linejoin="round" stroke-width=".6"/>  <path d="m78.85 94.74 1.44-1.94" stroke="#0A0806" stroke-linecap="round" stroke-linejoin="round" stroke-width=".6"/>  <path d="m80.54 96.13 2.37-1.19" stroke="#0A0806" stroke-linecap="round" stroke-linejoin="round" stroke-width=".6"/>  <path d="m81.67 97.82 1.96-0.25" stroke="#0A0806" stroke-linecap="round" stroke-linejoin="round" stroke-width=".6"/>  <path d="m81.76 99.39 1.44 0.56" stroke="#0A0806" stroke-linecap="round" stroke-linejoin="round" stroke-width=".6"/>  <path d="m88.91 86.44-0.5 2.37" stroke="#0A0806" stroke-linecap="round" stroke-linejoin="round" stroke-width=".6"/>  <path d="m92.98 84.61 5.93 4.02c1.23 0.84 2.35 2.83 2 4.29l-1.39 2.33-5.59 2.07" stroke="#0A0806" stroke-linecap="round" stroke-linejoin="round" stroke-width=".6"/>  <path d="m112.7 83.17c4.12 1.01 10.57 3.56 11.74 12.84" stroke="#0A0806" stroke-linecap="round" stroke-linejoin="round" stroke-width=".6"/>  <path d="m114.9 94.11 1.96 1.14" stroke="#0A0806" stroke-linecap="round" stroke-linejoin="round" stroke-width=".6"/>  <path d="m116.2 95.9 1.7 1.39" stroke="#0A0806" stroke-linecap="round" stroke-linejoin="round" stroke-width=".6"/>  <path d="m117.1 97.82 1.76 0.49" stroke="#0A0806" stroke-linecap="round" stroke-linejoin="round" stroke-width=".6"/>  <path d="m125 83.81c0.5 2.27-0.32 4.6-1.1 6.12" stroke="#0A0806" stroke-linecap="round" stroke-linejoin="round" stroke-width=".6"/>  <path d="m103.7 81.5c-0.12 3.06-1.08 5.74-2.53 7.31" stroke="#0A0806" stroke-linecap="round" stroke-linejoin="round" stroke-width=".6"/>  <path d="m115.3 114.4c1.58 1.23 3.6 1.36 4.84-0.3" stroke="#0A0806" stroke-linecap="round" stroke-linejoin="round" stroke-width=".6"/>  <path d="m87.04 141.5c1.75-1.39 3.24-1.54 5.57-0.84 4.66 1.46 10.1-2.13 13.47-3 2.85-0.76 4.87-1.29 7.33-0.06" stroke="#0A0806" stroke-linecap="round" stroke-linejoin="round" stroke-width=".6"/>  <path d="m112.2 146.8c-2.46 5.38-6.8 8.65-11.47 8.65-4.84 0-8.54-3.01-11.56-8.65" stroke="#0A0806" stroke-linecap="round" stroke-linejoin="round" stroke-width=".6"/>  <path d="m89.19 180.6c3.85-2.98 3.62-8.71 1.65-16.37l-11.8-47.97" stroke="#0A0806" stroke-linecap="round" stroke-linejoin="round" stroke-width=".6"/>  <path d="m91.96 130.8c-2.18 0.35-3.17-1.87-4.87-4.79-1.39-2.55-3.72-5.85-3.48-8.3 0.11-0.95 0.97-2 1.8-2.15" stroke="#0A0806" stroke-linecap="round" stroke-linejoin="round" stroke-width=".6"/>  <path d="m95.19 117.3-1.58 11.76" stroke="#0A0806" stroke-linecap="round" stroke-linejoin="round" stroke-width=".6"/>  <path d="m95.69 124.7c0.42-0.95 2.53-0.89 3.45-0.61 2.07 0.67 4.47 1.57 7.08 1.57" stroke="#0A0806" stroke-linecap="round" stroke-linejoin="round" stroke-width=".6"/>  <path d="m104.6 120.4 0.12 4.36" stroke="#0A0806" stroke-linecap="round" stroke-linejoin="round" stroke-width=".6"/>  <path d="m109.1 125c4.12 0.25 7.47-2.95 7.5-7.13 0.02-1.67-0.64-2.69-1.53-3.33" stroke="#0A0806" stroke-linecap="round" stroke-linejoin="round" stroke-width=".6"/>  <path d="m86.43 129.6c0.43 4.14 1.82 8.1 3.85 9.39" stroke="#0A0806" stroke-linecap="round" stroke-linejoin="round" stroke-width=".6"/>  <path d="m95.81 124.7c-0.5 2.72 1.3 8.3 3.47 10.15 4.55 0.3 8.34-4.16 9.36-7.61" stroke="#0A0806" stroke-linecap="round" stroke-linejoin="round" stroke-width=".6"/>  <path d="m107.7 128.5c2.17 1.3 4.34 6.07 5.16 9.11" stroke="#0A0806" stroke-linecap="round" stroke-linejoin="round" stroke-width=".6"/>  <path d="m104 90.26c2.67-1.63 6.31-4.07 7.83-3.72 1.76 0.42 0.59 7.9 0.3 11.09-0.18 2.12-0.3 3.72-0.8 4.38-3.24 1.1-9.89 1.6-14.02-0.96-1.6-0.96-3.47-0.29-4.31 0.06" fill="#FAC737"/>  <path d="m104 90.26c2.67-1.63 6.31-4.07 7.83-3.72 1.76 0.42 0.59 7.9 0.3 11.09-0.18 2.12-0.3 3.72-0.8 4.38-3.24 1.1-9.89 1.6-14.02-0.96-1.6-0.96-0.08-2.74 1.62-5.3 0.92-1.46 0.8-2.89 5.07-5.49z" stroke="#C1982F" stroke-linecap="round" stroke-linejoin="round" stroke-width=".6"/>  <path d="m101.6 49.16 5.58-2.56 4.99-10.78c2.07-0.24 7.8 0.29 9.86 2.96 1.82 2.43 2.82 7.7 3.12 8.4l2.28-0.88c1.75 1.86 3.45 9.31 2.67 12.44-4.41 2.67-11.06 2.22-12.08 1.87-1.87 0.63-13.61 1.55-22.51 0-1.02-1.87-0.41-3.25 0.61-4.77 1.16-1.79 3.83-6.37 5.48-6.68z" fill="#FAC737" stroke="#0A0806" stroke-linecap="round" stroke-linejoin="round" stroke-width=".6"/>  <path d="m111.8 36.01 4.47 13.97" stroke="#0A0806" stroke-linecap="round" stroke-linejoin="round" stroke-width=".6"/>  <path d="m126.9 47.18c1.02 3.27 1.19 6.64 0.34 10.06" stroke="#0A0806" stroke-linecap="round" stroke-linejoin="round" stroke-width=".6"/>  <path d="m101.4 49.42 6.23 11.01" stroke="#0A0806" stroke-linecap="round" stroke-linejoin="round" stroke-width=".6"/>  <path d="m118 51.12 6.43-3.65" stroke="#0A0806" stroke-linecap="round" stroke-linejoin="round" stroke-width=".6"/>  <path d="m117.9 65.28c2.85 2.91 5.52 4.77 7.59 3.94 3.46-1.46 4.91-5.88 4.66-10.13" fill="#FAC737"/>  <path d="m117.9 65.28c2.85 2.91 5.52 4.77 7.59 3.94 3.46-1.46 4.91-5.88 4.66-10.13" stroke="#0A0806" stroke-linecap="round" stroke-linejoin="round" stroke-width=".6"/>  <path d="m106.8 63.23-2.51 6.45" stroke="#C1982F" stroke-linecap="round" stroke-linejoin="round" stroke-width=".6"/>  <path d="m117.4 62.21-6.1 5.55" stroke="#C1982F" stroke-linecap="round" stroke-linejoin="round" stroke-width=".6"/>  <path d="m92.38 25.11c0.4-7.25 1.73-17.44 8.76-18.09 4.65-0.44 11.21 3.19 13.27 8.02 1.81 4.47 0 8.9-4.4 11.07-2.23-1.23-4.96-0.94-8.75 1.82-2.01 1.42-3.82 0.09-4.81 0.38-2.28 0.7-4.24-0.12-4.07-3.2z" fill="#B73E2C" stroke="#0A0806" stroke-linecap="round" stroke-linejoin="round" stroke-width=".6"/>  <path d="m103.7 3.31c0.29 2.45 1.45 3.84 3.57 4.49 0.18-1.59 0.68-3.61 1.46-4.8 0.67 1.95 0.12 3.81 0.24 5.03 1.11 0.24 3.67-0.82 4.15-4.52 0.54-0.12 0.89 0.23 0.77 0.71-0.61 2.59-1.84 3.87-3.27 4.93 2.17 0.46 4.51 0.69 5.64 1.39-0.92 1.23-2.83 1.73-5.1 1.61 1.91 1.29 4.09 1.76 5.61 1.17" stroke="#0A0806" stroke-linecap="round" stroke-linejoin="round" stroke-width=".6"/>  <path d="m94.91 22.24 0.34-0.95" stroke="#0A0806" stroke-linecap="round" stroke-linejoin="round" stroke-width=".6"/>  <path d="m97.29 15.2 0.56-0.59" stroke="#0A0806" stroke-linecap="round" stroke-linejoin="round" stroke-width=".6"/>  <path d="m101.3 10.75 0.35-0.5" stroke="#0A0806" stroke-linecap="round" stroke-linejoin="round" stroke-width=".6"/>  <path d="m103 16.61 0.65-0.74" stroke="#0A0806" stroke-linecap="round" stroke-linejoin="round" stroke-width=".6"/>  <path d="m106.6 13.41 0.76-0.7" stroke="#0A0806" stroke-linecap="round" stroke-linejoin="round" stroke-width=".6"/>  <path d="m107.3 18.96 0.78-0.65" stroke="#0A0806" stroke-linecap="round" stroke-linejoin="round" stroke-width=".6"/>  <path d="m109 22.3 0.71-0.64" stroke="#0A0806" stroke-linecap="round" stroke-linejoin="round" stroke-width=".6"/>  <path d="m95.43 30.06c3.79 3.85 8.99 5.85 15.49 5.95" stroke="#0A0806" stroke-linecap="round" stroke-linejoin="round" stroke-width=".6"/>  <path d="m101.2 37.24c2.28 1.02 4.96 1.49 6.92 1.2" stroke="#0A0806" stroke-linecap="round" stroke-linejoin="round" stroke-width=".6"/>  <path d="m91.96 36.01c4.55 0.56 7.95 3.18 11.23 11.17" stroke="#0A0806" stroke-linecap="round" stroke-linejoin="round" stroke-width=".6"/>  <path d="m90.84 43.9 0.47 0.98" stroke="#0A0806" stroke-linecap="round" stroke-linejoin="round" stroke-width=".6"/>  <path d="m93.33 45.92 0.66 0.82" stroke="#0A0806" stroke-linecap="round" stroke-linejoin="round" stroke-width=".6"/>  <path d="m95.13 48.01 1.03 0.23" stroke="#0A0806" stroke-linecap="round" stroke-linejoin="round" stroke-width=".6"/>  <path d="m95.19 50.74 0.86 0.35" stroke="#0A0806" stroke-linecap="round" stroke-linejoin="round" stroke-width=".6"/>  <path d="m87.04 46.48 0.71 0.64" stroke="#0A0806" stroke-linecap="round" stroke-linejoin="round" stroke-width=".6"/>  <path d="m85.11 48.12 0.8 0.39" stroke="#0A0806" stroke-linecap="round" stroke-linejoin="round" stroke-width=".6"/>  <path d="m83.81 50.62 0.91 0.3" stroke="#0A0806" stroke-linecap="round" stroke-linejoin="round" stroke-width=".6"/>  <path d="m81.96 54.41 1.18 0.11" stroke="#0A0806" stroke-linecap="round" stroke-linejoin="round" stroke-width=".6"/>  <path d="m83.61 56.73 0.85 0.9" stroke="#0A0806" stroke-linecap="round" stroke-linejoin="round" stroke-width=".6"/>  <path d="m86.86 62.82 0.46 1.1" stroke="#0A0806" stroke-linecap="round" stroke-linejoin="round" stroke-width=".6"/>  <path d="m89.22 63.11 0.23 1.23" stroke="#0A0806" stroke-linecap="round" stroke-linejoin="round" stroke-width=".6"/>  <path d="m88.16 48.63c0.97-1.01 1.8-1.22 2.82-0.93 1.8 0.54 2.46 2.22 1.68 3.56-0.7 1.23 0.26 1.93 0.55 2.8 0.49 1.55 0.55 3.01-0.8 4.2-0.96 0.83-2.25 1.07-3.48 0.83-0.77-0.18-1.52 0.12-2.22-0.35-0.66-0.48-0.6-1.5-0.66-2.45-0.12-1.23-1.29-1.88-1.29-3.04-0.12-2.16 1.32-3.27 3.4-4.62z" stroke="#0A0806" stroke-linecap="round" stroke-linejoin="round" stroke-width=".6"/></svg>