<svg width="1280" height="720" viewBox="0 0 1280 720" xmlns="http://www.w3.org/2000/svg">
<defs><style>
  :root {
    --brand-primary:   #1677FF;
    --brand-near-black: #1A1A1A;
    --brand-gray:       #888888;
    --brand-light-bg:   #F5F5F5;
    --brand-border:     #E2E2E2;
    --semantic-success: #2E6B3E;
    --semantic-warning: #8A5A00;
    --semantic-danger:  #9C2B2B;
  }
</style></defs>

<!-- 顶部品牌色线 -->
<rect x="0" y="0" width="1280" height="3" fill="var(--brand-primary)"/>

<!-- 页眉 -->
<text x="40" y="22" font-family="Microsoft YaHei,sans-serif" font-size="11" fill="#888888">下一步计划</text>
<text x="1240" y="22" text-anchor="end" font-family="Microsoft YaHei,sans-serif" font-size="11" font-weight="bold" fill="var(--brand-primary)">京东科技</text>
<line x1="40" y1="30" x2="1240" y2="30" stroke="#E2E2E2" stroke-width="0.5"/>

<!-- Action Title -->
<rect x="40" y="36" width="3" height="52" fill="var(--brand-primary)"/>
<text x="52" y="70" font-family="Songti SC,SimSun,serif" font-size="22" font-weight="bold" fill="#1A1A1A">持续精进三大方向：精准识别、合规强化、技术迭代</text>
<line x1="40" y1="94" x2="1240" y2="94" stroke="#E2E2E2" stroke-width="0.5"/>

<!-- 顶部横向时间轴 -->
<line x1="100" y1="140" x2="1180" y2="140" stroke="var(--brand-primary)" stroke-width="2" stroke-dasharray="6,4"/>
<circle cx="160" cy="140" r="18" fill="var(--brand-primary)"/>
<text x="160" y="146" text-anchor="middle" font-family="Microsoft YaHei,sans-serif" font-size="14" font-weight="bold" fill="#FFFFFF">01</text>
<text x="160" y="180" text-anchor="middle" font-family="Microsoft YaHei,sans-serif" font-size="13" font-weight="bold" fill="var(--brand-primary)">精准识别</text>

<polygon points="310,135 320,140 310,145" fill="var(--brand-primary)"/>
<circle cx="440" cy="140" r="18" fill="var(--brand-primary)"/>
<text x="440" y="146" text-anchor="middle" font-family="Microsoft YaHei,sans-serif" font-size="14" font-weight="bold" fill="#FFFFFF">02</text>
<text x="440" y="180" text-anchor="middle" font-family="Microsoft YaHei,sans-serif" font-size="13" font-weight="bold" fill="var(--brand-primary)">合规强化</text>

<polygon points="590,135 600,140 590,145" fill="var(--brand-primary)"/>
<circle cx="720" cy="140" r="18" fill="var(--brand-primary)"/>
<text x="720" y="146" text-anchor="middle" font-family="Microsoft YaHei,sans-serif" font-size="14" font-weight="bold" fill="#FFFFFF">03</text>
<text x="720" y="180" text-anchor="middle" font-family="Microsoft YaHei,sans-serif" font-size="13" font-weight="bold" fill="var(--brand-primary)">技术迭代</text>

<polygon points="870,135 880,140 870,145" fill="var(--brand-primary)"/>
<circle cx="1000" cy="140" r="18" fill="#0A1F3A" stroke="var(--brand-primary)" stroke-width="2"/>
<text x="1000" y="146" text-anchor="middle" font-family="Microsoft YaHei,sans-serif" font-size="14" font-weight="bold" fill="var(--brand-primary)">04</text>
<text x="1000" y="180" text-anchor="middle" font-family="Microsoft YaHei,sans-serif" font-size="13" font-weight="bold" fill="var(--brand-primary)">生态共建</text>

<!-- 2x2 卡片网格 -->
<!-- 卡片1：精准识别深化 -->
<rect x="40" y="210" width="580" height="220" rx="4" fill="#FFFFFF" stroke="#E2E2E2" stroke-width="0.5"/>
<rect x="40" y="210" width="4" height="220" fill="var(--brand-primary)"/>
<!-- 图标：靶心 -->
<rect x="60" y="224" width="48" height="48" rx="24" fill="#E8F0FA"/>
<circle cx="84" cy="248" r="16" fill="none" stroke="var(--brand-primary)" stroke-width="2"/>
<circle cx="84" cy="248" r="10" fill="none" stroke="var(--brand-primary)" stroke-width="2"/>
<circle cx="84" cy="248" r="4" fill="var(--brand-primary)"/>
<text x="120" y="242" font-family="Songti SC,SimSun,serif" font-size="18" font-weight="bold" fill="#1A1A1A">精准识别深化</text>
<text x="120" y="262" font-family="Microsoft YaHei,sans-serif" font-size="11" fill="#888888">升级AI模型，扩充画像维度</text>

<line x1="60" y1="280" x2="600" y2="280" stroke="#E2E2E2" stroke-width="0.5"/>

<rect x="60" y="292" width="3" height="14" rx="1" fill="var(--brand-primary)"/>
<text x="72" y="304" font-family="Microsoft YaHei,sans-serif" font-size="13" fill="#333333">升级AI需求识别模型，提升需求预测准确率</text>
<rect x="60" y="316" width="3" height="14" rx="1" fill="var(--brand-primary)"/>
<text x="72" y="328" font-family="Microsoft YaHei,sans-serif" font-size="13" fill="#333333">扩充客户画像维度至500+，覆盖全生命周期行为</text>
<rect x="60" y="340" width="3" height="14" rx="1" fill="var(--brand-primary)"/>
<text x="72" y="352" font-family="Microsoft YaHei,sans-serif" font-size="13" fill="#333333">目标：接通率再提升15%，首拨转化率再提升20%</text>

<!-- 目标标签 -->
<rect x="60" y="372" width="100" height="32" rx="16" fill="var(--brand-primary)"/>
<text x="110" y="393" text-anchor="middle" font-family="Microsoft YaHei,sans-serif" font-size="11" font-weight="bold" fill="#FFFFFF">接通率 +15%</text>

<!-- 卡片2：合规体系升级 -->
<rect x="660" y="210" width="580" height="220" rx="4" fill="#FFFFFF" stroke="#E2E2E2" stroke-width="0.5"/>
<rect x="660" y="210" width="4" height="220" fill="var(--brand-primary)"/>
<!-- 图标：盾牌 -->
<rect x="680" y="224" width="48" height="48" rx="24" fill="#E8F0FA"/>
<path d="M704,234 L692,242 L692,254 C692,262 698,268 704,272 C710,268 716,262 716,254 L716,242 Z" fill="var(--brand-primary)"/>
<path d="M699,254 L702,257 L710,249" fill="none" stroke="#FFFFFF" stroke-width="1.5" stroke-linejoin="round"/>
<text x="740" y="242" font-family="Songti SC,SimSun,serif" font-size="18" font-weight="bold" fill="#1A1A1A">合规体系升级</text>
<text x="740" y="262" font-family="Microsoft YaHei,sans-serif" font-size="11" fill="#888888">AI实时监控，知识库自动更新</text>

<line x1="680" y1="280" x2="1220" y2="280" stroke="#E2E2E2" stroke-width="0.5"/>

<rect x="680" y="292" width="3" height="14" rx="1" fill="var(--brand-primary)"/>
<text x="692" y="304" font-family="Microsoft YaHei,sans-serif" font-size="13" fill="#333333">完善AI实时合规监控，覆盖100%通话场景</text>
<rect x="680" y="316" width="3" height="14" rx="1" fill="var(--brand-primary)"/>
<text x="692" y="328" font-family="Microsoft YaHei,sans-serif" font-size="13" fill="#333333">建立合规知识库自动更新机制，季度迭代</text>
<rect x="680" y="340" width="3" height="14" rx="1" fill="var(--brand-primary)"/>
<text x="692" y="352" font-family="Microsoft YaHei,sans-serif" font-size="13" fill="#333333">目标：合规率持续保持100%，零重大合规事件</text>

<!-- 目标标签 -->
<rect x="680" y="372" width="120" height="32" rx="16" fill="var(--brand-primary)"/>
<text x="740" y="393" text-anchor="middle" font-family="Microsoft YaHei,sans-serif" font-size="11" font-weight="bold" fill="#FFFFFF">合规率 100%</text>

<!-- 卡片3：技术持续迭代 -->
<rect x="40" y="450" width="580" height="220" rx="4" fill="#FFFFFF" stroke="#E2E2E2" stroke-width="0.5"/>
<rect x="40" y="450" width="4" height="220" fill="var(--brand-primary)"/>
<!-- 图标：芯片/技术 -->
<rect x="60" y="464" width="48" height="48" rx="24" fill="#E8F0FA"/>
<rect x="72" y="476" width="24" height="24" rx="3" fill="var(--brand-primary)"/>
<rect x="76" y="480" width="6" height="16" rx="1" fill="#FFFFFF"/>
<rect x="84" y="480" width="6" height="16" rx="1" fill="#FFFFFF"/>
<text x="120" y="482" font-family="Songti SC,SimSun,serif" font-size="18" font-weight="bold" fill="#1A1A1A">技术持续迭代</text>
<text x="120" y="502" font-family="Microsoft YaHei,sans-serif" font-size="11" fill="#888888">大模型应用落地，情绪识别升级</text>

<line x1="60" y1="520" x2="600" y2="520" stroke="#E2E2E2" stroke-width="0.5"/>

<rect x="60" y="532" width="3" height="14" rx="1" fill="var(--brand-primary)"/>
<text x="72" y="544" font-family="Microsoft YaHei,sans-serif" font-size="13" fill="#333333">跟进AI大模型应用落地，引入更智能的对话能力</text>
<rect x="60" y="556" width="3" height="14" rx="1" fill="var(--brand-primary)"/>
<text x="72" y="568" font-family="Microsoft YaHei,sans-serif" font-size="13" fill="#333333">优化智能路由匹配算法，提升坐席-客户匹配度</text>
<rect x="60" y="580" width="3" height="14" rx="1" fill="var(--brand-primary)"/>
<text x="72" y="592" font-family="Microsoft YaHei,sans-serif" font-size="13" fill="#333333">目标：人均效率再提升20%，新人上手时间再缩短50%</text>

<!-- 目标标签 -->
<rect x="60" y="612" width="120" height="32" rx="16" fill="var(--brand-primary)"/>
<text x="120" y="633" text-anchor="middle" font-family="Microsoft YaHei,sans-serif" font-size="11" font-weight="bold" fill="#FFFFFF">人均效率 +20%</text>

<!-- 卡片4：生态共建 -->
<rect x="660" y="450" width="580" height="220" rx="4" fill="#FFFFFF" stroke="#E2E2E2" stroke-width="0.5"/>
<rect x="660" y="450" width="4" height="220" fill="var(--brand-primary)"/>
<!-- 图标：网络/连接 -->
<rect x="680" y="464" width="48" height="48" rx="24" fill="#E8F0FA"/>
<circle cx="698" cy="482" r="4" fill="var(--brand-primary)"/>
<circle cx="714" cy="476" r="4" fill="var(--brand-primary)"/>
<circle cx="714" cy="494" r="4" fill="var(--brand-primary)"/>
<circle cx="714" cy="482" r="4" fill="var(--brand-primary)"/>
<line x1="698" y1="482" x2="714" y2="476" stroke="var(--brand-primary)" stroke-width="1"/>
<line x1="698" y1="482" x2="714" y2="488" stroke="var(--brand-primary)" stroke-width="1"/>
<line x1="698" y1="482" x2="714" y2="494" stroke="var(--brand-primary)" stroke-width="1"/>
<text x="740" y="482" font-family="Songti SC,SimSun,serif" font-size="18" font-weight="bold" fill="#1A1A1A">生态共建拓展</text>
<text x="740" y="502" font-family="Microsoft YaHei,sans-serif" font-size="11" fill="#888888">开放能力，赋能上下游合作伙伴</text>

<line x1="680" y1="520" x2="1220" y2="520" stroke="#E2E2E2" stroke-width="0.5"/>

<rect x="680" y="532" width="3" height="14" rx="1" fill="var(--brand-primary)"/>
<text x="692" y="544" font-family="Microsoft YaHei,sans-serif" font-size="13" fill="#333333">开放AI能力接口，赋能供应商与合作伙伴</text>
<rect x="680" y="556" width="3" height="14" rx="1" fill="var(--brand-primary)"/>
<text x="692" y="568" font-family="Microsoft YaHei,sans-serif" font-size="13" fill="#333333">建设行业客服最佳实践标准，输出标杆经验</text>
<rect x="680" y="580" width="3" height="14" rx="1" fill="var(--brand-primary)"/>
<text x="692" y="592" font-family="Microsoft YaHei,sans-serif" font-size="13" fill="#333333">目标：生态伙伴覆盖10+，服务满意度95%+</text>

<!-- 目标标签 -->
<rect x="680" y="612" width="120" height="32" rx="16" fill="var(--brand-primary)"/>
<text x="740" y="633" text-anchor="middle" font-family="Microsoft YaHei,sans-serif" font-size="11" font-weight="bold" fill="#FFFFFF">伙伴 10+ 满意度 95%</text>

<!-- 页脚 -->
<line x1="40" y1="690" x2="1240" y2="690" stroke="#E2E2E2" stroke-width="0.5"/>
<text x="40" y="708" font-family="Microsoft YaHei,sans-serif" font-size="11" fill="#888888">来源：申报材料 &#x00B7; 2026</text>
<text x="1240" y="708" text-anchor="end" font-family="Microsoft YaHei,sans-serif" font-size="11" fill="#888888">10 / 11</text>
</svg>