<svg width="1280" height="720" viewBox="0 0 1280 720" xmlns="http://www.w3.org/2000/svg">
<defs><style>
  :root {
    --brand-primary:   #1677FF;
    --brand-near-black: #1A1A1A;
    --brand-gray:       #888888;
    --brand-light-bg:   #F5F5F5;
    --brand-border:     #E2E2E2;
    --semantic-success: #2E6B3E;
    --semantic-warning: #8A5A00;
    --semantic-danger:  #9C2B2B;
  }
</style></defs>

<!-- 顶部品牌色线 -->
<rect x="0" y="0" width="1280" height="3" fill="var(--brand-primary)"/>

<!-- 页眉 -->
<text x="40" y="22" font-family="Microsoft YaHei,sans-serif" font-size="11" fill="#888888">组织架构</text>
<text x="1240" y="22" text-anchor="end" font-family="Microsoft YaHei,sans-serif" font-size="11" font-weight="bold" fill="var(--brand-primary)">京东科技</text>
<line x1="40" y1="30" x2="1240" y2="30" stroke="#E2E2E2" stroke-width="0.5"/>

<!-- Action Title -->
<rect x="40" y="36" width="3" height="52" fill="var(--brand-primary)"/>
<text x="52" y="70" font-family="Songti SC,SimSun,serif" font-size="22" font-weight="bold" fill="#1A1A1A">数据科技业务部为二级部门，三层架构分工明确</text>
<line x1="40" y1="94" x2="1240" y2="94" stroke="#E2E2E2" stroke-width="0.5"/>

<!-- 左侧：组织架构图 -->
<rect x="40" y="100" width="700" height="580" rx="4" fill="#FFFFFF" stroke="#E2E2E2" stroke-width="0.5"/>

<!-- 顶层：数据科技业务部 -->
<rect x="200" y="120" width="380" height="60" rx="4" fill="var(--brand-primary)"/>
<text x="390" y="156" text-anchor="middle" font-family="Songti SC,SimSun,serif" font-size="18" font-weight="bold" fill="#FFFFFF">数据科技业务部（二级部门）</text>

<!-- 竖线 -->
<line x1="390" y1="180" x2="390" y2="240" stroke="var(--brand-primary)" stroke-width="1.5"/>
<!-- 横线 -->
<line x1="120" y1="240" x2="660" y2="240" stroke="var(--brand-primary)" stroke-width="1.5"/>

<!-- 三个分支竖线 -->
<line x1="180" y1="240" x2="180" y2="270" stroke="var(--brand-primary)" stroke-width="1.5"/>
<line x1="390" y1="240" x2="390" y2="270" stroke="var(--brand-primary)" stroke-width="1.5"/>
<line x1="600" y1="240" x2="600" y2="270" stroke="var(--brand-primary)" stroke-width="1.5"/>

<!-- 三个子部门 -->
<rect x="80" y="270" width="200" height="60" rx="4" fill="#E8F0FA" stroke="var(--brand-primary)" stroke-width="1"/>
<text x="180" y="306" text-anchor="middle" font-family="Microsoft YaHei,sans-serif" font-size="14" font-weight="bold" fill="var(--brand-primary)">电销服务组</text>

<rect x="290" y="270" width="200" height="60" rx="4" fill="#E8F0FA" stroke="var(--brand-primary)" stroke-width="1"/>
<text x="390" y="306" text-anchor="middle" font-family="Microsoft YaHei,sans-serif" font-size="14" font-weight="bold" fill="var(--brand-primary)">策略运营组</text>

<rect x="500" y="270" width="200" height="60" rx="4" fill="#E8F0FA" stroke="var(--brand-primary)" stroke-width="1"/>
<text x="600" y="306" text-anchor="middle" font-family="Microsoft YaHei,sans-serif" font-size="14" font-weight="bold" fill="var(--brand-primary)">后台管理部</text>

<!-- 电销服务组详情 -->
<line x1="180" y1="330" x2="180" y2="370" stroke="#AAAAAA" stroke-width="1"/>
<rect x="60" y="380" width="240" height="180" rx="4" fill="#F5F5F5"/>
<rect x="60" y="380" width="4" height="180" fill="var(--brand-primary)"/>
<text x="80" y="410" font-family="Microsoft YaHei,sans-serif" font-size="12" font-weight="bold" fill="var(--brand-primary)">电销服务组 &#x00B7; 2900+人</text>
<line x1="80" y1="420" x2="280" y2="420" stroke="#CCCCCC" stroke-width="0.5"/>
<rect x="80" y="430" width="3" height="12" rx="1" fill="var(--brand-primary)"/>
<text x="90" y="440" font-family="Microsoft YaHei,sans-serif" font-size="11" fill="#555555">金融营销电销外呼</text>
<rect x="80" y="448" width="3" height="12" rx="1" fill="var(--brand-primary)"/>
<text x="90" y="458" font-family="Microsoft YaHei,sans-serif" font-size="11" fill="#555555">拉新、复购全流程</text>
<rect x="80" y="466" width="3" height="12" rx="1" fill="var(--brand-primary)"/>
<text x="90" y="476" font-family="Microsoft YaHei,sans-serif" font-size="11" fill="#555555">本科及以上60%</text>
<rect x="80" y="484" width="3" height="12" rx="1" fill="var(--brand-primary)"/>
<text x="90" y="494" font-family="Microsoft YaHei,sans-serif" font-size="11" fill="#555555">大专40%</text>

<!-- 策略运营组详情 -->
<line x1="390" y1="330" x2="390" y2="370" stroke="#AAAAAA" stroke-width="1"/>
<rect x="270" y="380" width="240" height="180" rx="4" fill="#F5F5F5"/>
<rect x="270" y="380" width="4" height="180" fill="var(--brand-primary)"/>
<text x="290" y="410" font-family="Microsoft YaHei,sans-serif" font-size="12" font-weight="bold" fill="var(--brand-primary)">策略运营组 &#x00B7; 100+人</text>
<line x1="290" y1="420" x2="490" y2="420" stroke="#CCCCCC" stroke-width="0.5"/>
<rect x="290" y="430" width="3" height="12" rx="1" fill="var(--brand-primary)"/>
<text x="300" y="440" font-family="Microsoft YaHei,sans-serif" font-size="11" fill="#555555">数据策略与模型开发</text>
<rect x="290" y="448" width="3" height="12" rx="1" fill="var(--brand-primary)"/>
<text x="300" y="458" font-family="Microsoft YaHei,sans-serif" font-size="11" fill="#555555">AI辅助系统运营管理</text>
<rect x="290" y="466" width="3" height="12" rx="1" fill="var(--brand-primary)"/>
<text x="300" y="476" font-family="Microsoft YaHei,sans-serif" font-size="11" fill="#555555">质检培训运营</text>
<rect x="290" y="484" width="3" height="12" rx="1" fill="var(--brand-primary)"/>
<text x="300" y="494" font-family="Microsoft YaHei,sans-serif" font-size="11" fill="#555555">合规保障与风控</text>

<!-- 后台管理部详情 -->
<line x1="600" y1="330" x2="600" y2="370" stroke="#AAAAAA" stroke-width="1"/>
<rect x="480" y="380" width="240" height="180" rx="4" fill="#F5F5F5"/>
<rect x="480" y="380" width="4" height="180" fill="var(--brand-primary)"/>
<text x="500" y="410" font-family="Microsoft YaHei,sans-serif" font-size="12" font-weight="bold" fill="var(--brand-primary)">后台管理部 &#x00B7; 50+人</text>
<line x1="500" y1="420" x2="700" y2="420" stroke="#CCCCCC" stroke-width="0.5"/>
<rect x="500" y="430" width="3" height="12" rx="1" fill="var(--brand-primary)"/>
<text x="510" y="440" font-family="Microsoft YaHei,sans-serif" font-size="11" fill="#555555">供应商管理与考核</text>
<rect x="500" y="448" width="3" height="12" rx="1" fill="var(--brand-primary)"/>
<text x="510" y="458" font-family="Microsoft YaHei,sans-serif" font-size="11" fill="#555555">业务管理与跨部门协调</text>
<rect x="500" y="466" width="3" height="12" rx="1" fill="var(--brand-primary)"/>
<text x="510" y="476" font-family="Microsoft YaHei,sans-serif" font-size="11" fill="#555555">运营管理支撑</text>
<rect x="500" y="484" width="3" height="12" rx="1" fill="var(--brand-primary)"/>
<text x="510" y="494" font-family="Microsoft YaHei,sans-serif" font-size="11" fill="#555555">数据分析与报告输出</text>

<!-- 右侧：关键信息 -->
<rect x="756" y="100" width="484" height="580" rx="4" fill="#F5F5F5"/>
<rect x="756" y="100" width="4" height="580" fill="var(--brand-primary)"/>
<text x="776" y="128" font-family="Microsoft YaHei,sans-serif" font-size="11" fill="var(--brand-primary)" letter-spacing="2">关键信息</text>
<line x1="776" y1="138" x2="1220" y2="138" stroke="var(--brand-primary)" stroke-width="1"/>

<!-- 部门定位 -->
<rect x="776" y="156" width="416" height="100" rx="4" fill="#FFFFFF" stroke="#E2E2E2" stroke-width="0.5"/>
<text x="796" y="182" font-family="Songti SC,SimSun,serif" font-size="16" font-weight="bold" fill="#1A1A1A">部门定位</text>
<text x="796" y="206" font-family="Microsoft YaHei,sans-serif" font-size="12" fill="#555555">京东科技金融科技事业群核心部门，</text>
<text x="796" y="226" font-family="Microsoft YaHei,sans-serif" font-size="12" fill="#555555">承载集团金融营销服务职能</text>

<!-- 服务部门定位 -->
<rect x="776" y="272" width="416" height="100" rx="4" fill="#FFFFFF" stroke="#E2E2E2" stroke-width="0.5"/>
<text x="796" y="298" font-family="Songti SC,SimSun,serif" font-size="16" font-weight="bold" fill="#1A1A1A">服务定位</text>
<text x="796" y="322" font-family="Microsoft YaHei,sans-serif" font-size="12" fill="#555555">数据驱动的服务营销中枢</text>
<text x="796" y="342" font-family="Microsoft YaHei,sans-serif" font-size="12" fill="#555555">通过精细化运营和智能化管理</text>

<!-- 运营年份 -->
<rect x="776" y="388" width="416" height="80" rx="4" fill="#FFFFFF" stroke="#E2E2E2" stroke-width="0.5"/>
<text x="796" y="414" font-family="Songti SC,SimSun,serif" font-size="16" font-weight="bold" fill="#1A1A1A">运营始于 2018 年</text>
<text x="796" y="442" font-family="Microsoft YaHei,sans-serif" font-size="12" fill="#555555">7年运营经验积累</text>

<!-- 客服中心层级 -->
<rect x="776" y="484" width="416" height="80" rx="4" fill="#FFFFFF" stroke="#E2E2E2" stroke-width="0.5"/>
<text x="796" y="510" font-family="Songti SC,SimSun,serif" font-size="16" font-weight="bold" fill="#1A1A1A">客服中心层级</text>
<text x="796" y="538" font-family="Microsoft YaHei,sans-serif" font-size="12" fill="#555555">二级部门架构，直接向事业群汇报</text>

<!-- 页脚 -->
<line x1="40" y1="690" x2="1240" y2="690" stroke="#E2E2E2" stroke-width="0.5"/>
<text x="40" y="708" font-family="Microsoft YaHei,sans-serif" font-size="11" fill="#888888">来源：申报材料 &#x00B7; 2026</text>
<text x="1240" y="708" text-anchor="end" font-family="Microsoft YaHei,sans-serif" font-size="11" fill="#888888">4 / 11</text>
</svg>