<svg width="1280" height="720" viewBox="0 0 1280 720" xmlns="http://www.w3.org/2000/svg">
<defs><style>
  :root {
    --brand-primary:   #1677FF;
    --brand-near-black: #1A1A1A;
    --brand-gray:       #888888;
    --brand-light-bg:   #F5F5F5;
    --brand-border:     #E2E2E2;
    --semantic-success: #2E6B3E;
    --semantic-warning: #8A5A00;
    --semantic-danger:  #9C2B2B;
  }
</style></defs>

<!-- 顶部品牌色线 -->
<rect x="0" y="0" width="1280" height="3" fill="var(--brand-primary)"/>

<!-- 页眉 -->
<text x="40" y="22" font-family="Microsoft YaHei,sans-serif" font-size="11" fill="#888888">转型实施过程</text>
<text x="1240" y="22" text-anchor="end" font-family="Microsoft YaHei,sans-serif" font-size="11" font-weight="bold" fill="var(--brand-primary)">京东科技</text>
<line x1="40" y1="30" x2="1240" y2="30" stroke="#E2E2E2" stroke-width="0.5"/>

<!-- Action Title -->
<rect x="40" y="36" width="3" height="52" fill="var(--brand-primary)"/>
<text x="52" y="70" font-family="Songti SC,SimSun,serif" font-size="22" font-weight="bold" fill="#1A1A1A">四步路径：数据赋能 → 人机协同 → 合规提效 → 全生命周期运营</text>
<line x1="40" y1="94" x2="1240" y2="94" stroke="#E2E2E2" stroke-width="0.5"/>

<!-- 四步时间线 -->
<!-- 时间线主轴 -->
<line x1="100" y1="180" x2="1180" y2="180" stroke="var(--brand-primary)" stroke-width="2" stroke-dasharray="6,4"/>

<!-- 阶段1 -->
<circle cx="160" cy="180" r="28" fill="#E8F0FA" stroke="var(--brand-primary)" stroke-width="2"/>
<text x="160" y="186" text-anchor="middle" font-family="Songti SC,SimSun,serif" font-size="18" font-weight="bold" fill="var(--brand-primary)">01</text>
<rect x="80" y="220" width="160" height="36" rx="3" fill="#E8F0FA" stroke="var(--brand-primary)" stroke-width="1"/>
<text x="160" y="244" text-anchor="middle" font-family="Microsoft YaHei,sans-serif" font-size="13" font-weight="bold" fill="var(--brand-primary)">数据赋能</text>

<!-- 装饰图标：数据 -->
<rect x="124" y="264" width="72" height="72" rx="36" fill="#F5F5F5"/>
<rect x="138" y="290" width="8" height="28" rx="2" fill="var(--brand-primary)"/>
<rect x="150" y="280" width="8" height="38" rx="2" fill="var(--brand-primary)"/>
<rect x="162" y="270" width="8" height="48" rx="2" fill="var(--brand-primary)"/>
<rect x="174" y="276" width="8" height="42" rx="2" fill="var(--brand-primary)"/>

<!-- 阶段2 -->
<circle cx="400" cy="180" r="28" fill="#E8F0FA" stroke="var(--brand-primary)" stroke-width="2"/>
<text x="400" y="186" text-anchor="middle" font-family="Songti SC,SimSun,serif" font-size="18" font-weight="bold" fill="var(--brand-primary)">02</text>
<rect x="320" y="220" width="160" height="36" rx="3" fill="#E8F0FA" stroke="var(--brand-primary)" stroke-width="1"/>
<text x="400" y="244" text-anchor="middle" font-family="Microsoft YaHei,sans-serif" font-size="13" font-weight="bold" fill="var(--brand-primary)">人机协同</text>

<!-- 装饰图标：人机 -->
<rect x="364" y="264" width="72" height="72" rx="36" fill="#F5F5F5"/>
<circle cx="388" cy="298" r="10" fill="none" stroke="var(--brand-primary)" stroke-width="2"/>
<line x1="388" y1="308" x2="388" y2="320" stroke="var(--brand-primary)" stroke-width="2"/>
<line x1="382" y1="314" x2="394" y2="314" stroke="var(--brand-primary)" stroke-width="2"/>
<rect x="400" y="290" width="16" height="12" rx="2" fill="var(--brand-primary)"/>
<line x1="404" y1="294" x2="404" y2="298" stroke="#FFFFFF" stroke-width="1"/>
<line x1="408" y1="294" x2="408" y2="298" stroke="#FFFFFF" stroke-width="1"/>

<!-- 阶段3 -->
<circle cx="640" cy="180" r="28" fill="#E8F0FA" stroke="var(--brand-primary)" stroke-width="2"/>
<text x="640" y="186" text-anchor="middle" font-family="Songti SC,SimSun,serif" font-size="18" font-weight="bold" fill="var(--brand-primary)">03</text>
<rect x="560" y="220" width="160" height="36" rx="3" fill="#E8F0FA" stroke="var(--brand-primary)" stroke-width="1"/>
<text x="640" y="244" text-anchor="middle" font-family="Microsoft YaHei,sans-serif" font-size="13" font-weight="bold" fill="var(--brand-primary)">合规提效</text>

<!-- 装饰图标：盾牌 -->
<rect x="604" y="264" width="72" height="72" rx="36" fill="#F5F5F5"/>
<path d="M640,280 L624,290 L624,306 C624,318 632,328 640,332 C648,328 656,318 656,306 L656,290 Z" fill="var(--brand-primary)"/>
<path d="M634,302 L638,306 L648,296" fill="none" stroke="#FFFFFF" stroke-width="2" stroke-linejoin="round"/>

<!-- 阶段4 -->
<circle cx="880" cy="180" r="28" fill="var(--brand-primary)" stroke="var(--brand-primary)" stroke-width="2"/>
<text x="880" y="186" text-anchor="middle" font-family="Songti SC,SimSun,serif" font-size="18" font-weight="bold" fill="#FFFFFF">04</text>
<rect x="800" y="220" width="160" height="36" rx="3" fill="var(--brand-primary)"/>
<text x="880" y="244" text-anchor="middle" font-family="Microsoft YaHei,sans-serif" font-size="13" font-weight="bold" fill="#FFFFFF">全生命周期运营</text>

<!-- 装饰图标：循环 -->
<rect x="844" y="264" width="72" height="72" rx="36" fill="var(--brand-primary)"/>
<circle cx="880" cy="300" r="16" fill="none" stroke="#FFFFFF" stroke-width="2"/>
<polygon points="880,282 874,290 886,290" fill="#FFFFFF"/>
<polygon points="880,318 874,310 886,310" fill="#FFFFFF"/>

<!-- 箭头连接线 -->
<polygon points="240,175 250,180 240,185" fill="var(--brand-primary)"/>
<polygon points="480,175 490,180 480,185" fill="var(--brand-primary)"/>
<polygon points="720,175 730,180 720,185" fill="var(--brand-primary)"/>

<!-- 四大模块详情卡片 2x2 网格 -->
<!-- 卡片1：数据赋能 -->
<rect x="40" y="380" width="580" height="280" rx="4" fill="#FFFFFF" stroke="#E2E2E2" stroke-width="0.5"/>
<rect x="40" y="380" width="4" height="280" fill="var(--brand-primary)"/>
<rect x="60" y="392" width="44" height="44" rx="22" fill="#E8F0FA"/>
<!-- 小图标：数据柱状图 -->
<rect x="68" y="404" width="6" height="20" rx="1" fill="var(--brand-primary)"/>
<rect x="78" y="398" width="6" height="26" rx="1" fill="var(--brand-primary)"/>
<rect x="88" y="402" width="6" height="22" rx="1" fill="var(--brand-primary)"/>
<text x="116" y="410" font-family="Microsoft YaHei,sans-serif" font-size="16" font-weight="bold" fill="var(--brand-primary)">数据赋能 &#x2014; 精准客户识别</text>
<text x="116" y="428" font-family="Microsoft YaHei,sans-serif" font-size="11" fill="#888888">AI需求识别模型，预测客户金融需求</text>

<line x1="60" y1="444" x2="600" y2="444" stroke="#E2E2E2" stroke-width="0.5"/>

<rect x="60" y="456" width="3" height="14" rx="1" fill="var(--brand-primary)"/>
<text x="72" y="468" font-family="Microsoft YaHei,sans-serif" font-size="13" fill="#333333">构建300+维度客户画像，涵盖信贷/理财/保险偏好</text>
<rect x="60" y="482" width="3" height="14" rx="1" fill="var(--brand-primary)"/>
<text x="72" y="494" font-family="Microsoft YaHei,sans-serif" font-size="13" fill="#333333">精准分层运营，差异化触达策略，减少无效外呼</text>
<rect x="60" y="508" width="3" height="14" rx="1" fill="var(--brand-primary)"/>
<text x="72" y="520" font-family="Microsoft YaHei,sans-serif" font-size="13" fill="#333333">首拨转化率提升28%，接通率提升35%</text>

<rect x="60" y="540" width="120" height="36" rx="18" fill="#E8F0FA"/>
<text x="120" y="564" text-anchor="middle" font-family="Microsoft YaHei,sans-serif" font-size="12" font-weight="bold" fill="var(--brand-primary)">首拨转化率 +28%</text>
<rect x="200" y="540" width="120" height="36" rx="18" fill="#E8F0FA"/>
<text x="260" y="564" text-anchor="middle" font-family="Microsoft YaHei,sans-serif" font-size="12" font-weight="bold" fill="var(--brand-primary)">接通率 +35%</text>

<!-- 卡片2：人机协同 -->
<rect x="660" y="380" width="580" height="280" rx="4" fill="#FFFFFF" stroke="#E2E2E2" stroke-width="0.5"/>
<rect x="660" y="380" width="4" height="280" fill="var(--brand-primary)"/>
<rect x="680" y="392" width="44" height="44" rx="22" fill="#E8F0FA"/>
<!-- 小图标：人机协作 -->
<circle cx="696" cy="412" r="6" fill="none" stroke="var(--brand-primary)" stroke-width="1.5"/>
<line x1="696" y1="418" x2="696" y2="424" stroke="var(--brand-primary)" stroke-width="1.5"/>
<rect x="704" y="408" width="10" height="8" rx="1" fill="var(--brand-primary)"/>
<text x="736" y="410" font-family="Microsoft YaHei,sans-serif" font-size="16" font-weight="bold" fill="var(--brand-primary)">人机协同 &#x2014; 智能外呼与坐席辅助</text>
<text x="736" y="428" font-family="Microsoft YaHei,sans-serif" font-size="11" fill="#888888">AI成为3000人坐席团队的超级助手</text>

<line x1="680" y1="444" x2="1220" y2="444" stroke="#E2E2E2" stroke-width="0.5"/>

<rect x="680" y="456" width="3" height="14" rx="1" fill="var(--brand-primary)"/>
<text x="692" y="468" font-family="Microsoft YaHei,sans-serif" font-size="13" fill="#333333">智能路由匹配，根据客户特征与坐席专长最优配对</text>
<rect x="680" y="482" width="3" height="14" rx="1" fill="var(--brand-primary)"/>
<text x="692" y="494" font-family="Microsoft YaHei,sans-serif" font-size="13" fill="#333333">实时话术辅助，AI推荐异议处理与产品话术</text>
<rect x="680" y="508" width="3" height="14" rx="1" fill="var(--brand-primary)"/>
<text x="692" y="520" font-family="Microsoft YaHei,sans-serif" font-size="13" fill="#333333">情绪与合规实时监控预警，降低服务风险</text>

<rect x="680" y="540" width="140" height="36" rx="18" fill="#E8F0FA"/>
<text x="750" y="564" text-anchor="middle" font-family="Microsoft YaHei,sans-serif" font-size="12" font-weight="bold" fill="var(--brand-primary)">人均效率 +40%</text>
<rect x="840" y="540" width="120" height="36" rx="18" fill="#E8F0FA"/>
<text x="900" y="564" text-anchor="middle" font-family="Microsoft YaHei,sans-serif" font-size="12" font-weight="bold" fill="var(--brand-primary)">新人上手 -67%</text>

<!-- 页脚 -->
<line x1="40" y1="690" x2="1240" y2="690" stroke="#E2E2E2" stroke-width="0.5"/>
<text x="40" y="708" font-family="Microsoft YaHei,sans-serif" font-size="11" fill="#888888">来源：申报材料 &#x00B7; 2026</text>
<text x="1240" y="708" text-anchor="end" font-family="Microsoft YaHei,sans-serif" font-size="11" fill="#888888">6 / 11</text>
</svg>