<svg xmlns="http://www.w3.org/2000/svg" width="2520" height="1080" viewBox="0 0 2520 1080"><rect width="2520" height="1080" fill="#FBFAF5"/><g stroke="#D5D2CA" stroke-width="0.8" fill="none" opacity="0.5"><path d="M40,1040 L60,1040 M40,1040 L40,1020"/><circle cx="40" cy="1040" r="2" fill="#D5D2CA" stroke="none" opacity="0.4"/><path d="M2480,1040 L2500,1040 M2480,1040 L2480,1020"/><circle cx="2480" cy="1040" r="2" fill="#D5D2CA" stroke="none" opacity="0.4"/><path d="M40,40 L60,40 M40,40 L40,20"/><circle cx="40" cy="40" r="2" fill="#D5D2CA" stroke="none" opacity="0.4"/><path d="M2480,40 L2500,40 M2480,40 L2480,20"/><circle cx="2480" cy="40" r="2" fill="#D5D2CA" stroke="none" opacity="0.4"/></g><text x="1260.0" y="580" font-size="72" fill="#1A1612" text-anchor="middle" font-weight="normal" font-family="PingFang SC, Hiragino Sans GB, Microsoft YaHei, SimHei, sans-serif">供应商分级盘点</text><path d="M1060.0,620.0 Q1262.2,612.4 1460.0,620.0" stroke="#7BB8D0" stroke-width="3" fill="none" stroke-linecap="round"/><text x="1260.0" y="680" font-size="28" fill="#888888" text-anchor="middle" font-weight="normal" font-family="PingFang SC, Hiragino Sans GB, Microsoft YaHei, SimHei, sans-serif">九宫格评估 · 三张清单 · 动态管理</text><text x="1260.0" y="730" font-size="20" fill="#BBBBBB" text-anchor="middle" font-weight="normal" font-family="PingFang SC, Hiragino Sans GB, Microsoft YaHei, SimHei, sans-serif">Q2 供应商管理 BP · 十大项目</text><g id="fill-layer"><rect x="1232.0" y="352.0" width="16" height="16" rx="2" fill="#B8D8E8" opacity="0.3"/><rect x="1252.0" y="352.0" width="16" height="16" rx="2" fill="#C5E8D0" opacity="0.3"/><rect x="1272.0" y="352.0" width="16" height="16" rx="2" fill="#F5D5B5" opacity="0.3"/><rect x="1232.0" y="372.0" width="16" height="16" rx="2" fill="#C5E8D0" opacity="0.3"/><rect x="1252.0" y="372.0" width="16" height="16" rx="2" fill="#F5D5B5" opacity="0.3"/><rect x="1272.0" y="372.0" width="16" height="16" rx="2" fill="#DDD0F0" opacity="0.3"/><rect x="1232.0" y="392.0" width="16" height="16" rx="2" fill="#F5D5B5" opacity="0.3"/><rect x="1252.0" y="392.0" width="16" height="16" rx="2" fill="#DDD0F0" opacity="0.3"/><rect x="1272.0" y="392.0" width="16" height="16" rx="2" fill="#F5C5C5" opacity="0.3"/></g><g id="stroke-layer" fill="none" stroke="#1A1612" stroke-width="1.5" stroke-linecap="round" stroke-linejoin="round">M1228.200234546953,347.7856859051906 L1291.891769713312,351.41359589938327 L1293.1374365416389,406.6955106610353 L1229.3753745574822,406.2383777555046 Z<path d="M1230.0,350.0 Q1255.5,350.1 1290.0,350.0"/><path d="M1230.0,370.0 Q1252.4,365.2 1290.0,370.0"/><path d="M1230.0,390.0 Q1262.4,390.7 1290.0,390.0"/><path d="M1230.0,350.0 Q1225.5,381.4 1230.0,410.0"/><path d="M1250.0,350.0 Q1255.0,372.1 1250.0,410.0"/><path d="M1270.0,350.0 Q1274.9,383.2 1270.0,410.0"/></g><text x="1260.0" y="850" font-size="18" fill="#999999" text-anchor="middle" font-weight="normal" font-family="PingFang SC, Hiragino Sans GB, Microsoft YaHei, SimHei, sans-serif">业绩 × 合规 × 潜力 → 三维评估</text></svg>