<svg xmlns="http://www.w3.org/2000/svg" width="1920" height="1080" viewBox="0 0 1920 1080"><rect width="1920" height="1080" fill="#FBFAF5"/><g stroke="#D5D2CA" stroke-width="0.8" fill="none" opacity="0.5"><path d="M40,1040 L60,1040 M40,1040 L40,1020"/><circle cx="40" cy="1040" r="2" fill="#D5D2CA" stroke="none" opacity="0.4"/><path d="M1880,1040 L1900,1040 M1880,1040 L1880,1020"/><circle cx="1880" cy="1040" r="2" fill="#D5D2CA" stroke="none" opacity="0.4"/><path d="M40,40 L60,40 M40,40 L40,20"/><circle cx="40" cy="40" r="2" fill="#D5D2CA" stroke="none" opacity="0.4"/><path d="M1880,40 L1900,40 M1880,40 L1880,20"/><circle cx="1880" cy="40" r="2" fill="#D5D2CA" stroke="none" opacity="0.4"/></g><text x="960.0" y="120" font-size="38" fill="#1A1612" text-anchor="middle" font-weight="normal" font-family="PingFang SC, Hiragino Sans GB, Microsoft YaHei, SimHei, sans-serif">为什么需要分级盘点</text><path d="M780.0,155.0 Q957.4,149.5 1140.0,155.0" stroke="#7BB8D0" stroke-width="3" fill="none" stroke-linecap="round"/><text x="960.0" y="190" font-size="20" fill="#999999" text-anchor="middle" font-weight="normal" font-family="PingFang SC, Hiragino Sans GB, Microsoft YaHei, SimHei, sans-serif">从经验驱动到数据驱动</text><text x="60" y="1020" font-size="14" fill="#AAAAAA" text-anchor="start" font-weight="normal" font-family="PingFang SC, Hiragino Sans GB, Microsoft YaHei, SimHei, sans-serif">01 / 08</text><path d="M183.65770457765424,298.692756360901 L796.7419667470411,296.7737310146677 L802.7799549307797,780.8298082509351 L182.45702618619504,781.8378542935505 Z" fill="#FFF8F0" stroke="#CC8866" stroke-width="2" stroke-linecap="round" stroke-linejoin="round"/><text x="490" y="340" font-size="26" fill="#D6654B" text-anchor="middle" font-weight="bold" font-family="PingFang SC, Hiragino Sans GB, Microsoft YaHei, SimHei, sans-serif">现状</text><text x="230" y="400" font-size="18" fill="#555555" text-anchor="start" font-weight="normal" font-family="PingFang SC, Hiragino Sans GB, Microsoft YaHei, SimHei, sans-serif">• 30+ 供应商凭经验分级</text><text x="230" y="470" font-size="18" fill="#555555" text-anchor="start" font-weight="normal" font-family="PingFang SC, Hiragino Sans GB, Microsoft YaHei, SimHei, sans-serif">• 只有业绩一个维度</text><text x="230" y="540" font-size="18" fill="#555555" text-anchor="start" font-weight="normal" font-family="PingFang SC, Hiragino Sans GB, Microsoft YaHei, SimHei, sans-serif">• 无系统性评估机制</text><text x="230" y="610" font-size="18" fill="#555555" text-anchor="start" font-weight="normal" font-family="PingFang SC, Hiragino Sans GB, Microsoft YaHei, SimHei, sans-serif">• 缺"三张清单"</text><g stroke="#1A1612" stroke-width="3" fill="none" stroke-linecap="round" stroke-linejoin="round"><path d="M920.0,540.0 Q950.6,547.6 980.0,540.0"/><path d="M980.0,540.0 Q972.8,543.7 969.5,545.8"/><path d="M980.0,540.0 Q980.0,539.0 969.5,534.2"/></g><text x="950" y="520" font-size="16" fill="#7BB8D0" text-anchor="middle" font-weight="normal" font-family="PingFang SC, Hiragino Sans GB, Microsoft YaHei, SimHei, sans-serif">转变</text><path d="M1122.8936552024861,300.6188171620541 L1741.6365746897193,296.3665950692453 L1737.8231862052123,778.3151037088169 L1116.638335815389,777.8623270908882 Z" fill="#F0FFF5" stroke="#66AA77" stroke-width="2" stroke-linecap="round" stroke-linejoin="round"/><text x="1430" y="340" font-size="26" fill="#44AA55" text-anchor="middle" font-weight="bold" font-family="PingFang SC, Hiragino Sans GB, Microsoft YaHei, SimHei, sans-serif">目标</text><text x="1170" y="400" font-size="18" fill="#555555" text-anchor="start" font-weight="normal" font-family="PingFang SC, Hiragino Sans GB, Microsoft YaHei, SimHei, sans-serif">• 三维评估：业绩+合规+潜力</text><text x="1170" y="470" font-size="18" fill="#555555" text-anchor="start" font-weight="normal" font-family="PingFang SC, Hiragino Sans GB, Microsoft YaHei, SimHei, sans-serif">• 九宫格可视化定位</text><text x="1170" y="540" font-size="18" fill="#555555" text-anchor="start" font-weight="normal" font-family="PingFang SC, Hiragino Sans GB, Microsoft YaHei, SimHei, sans-serif">• 三张清单管理</text><text x="1170" y="610" font-size="18" fill="#555555" text-anchor="start" font-weight="normal" font-family="PingFang SC, Hiragino Sans GB, Microsoft YaHei, SimHei, sans-serif">• 季度动态调整</text></svg>