<svg xmlns="http://www.w3.org/2000/svg" width="1920" height="1080" viewBox="0 0 1920 1080"><rect width="1920" height="1080" fill="#FBFAF5"/><g stroke="#D5D2CA" stroke-width="0.8" fill="none" opacity="0.5"><path d="M40,1040 L60,1040 M40,1040 L40,1020"/><circle cx="40" cy="1040" r="2" fill="#D5D2CA" stroke="none" opacity="0.4"/><path d="M1880,1040 L1900,1040 M1880,1040 L1880,1020"/><circle cx="1880" cy="1040" r="2" fill="#D5D2CA" stroke="none" opacity="0.4"/><path d="M40,40 L60,40 M40,40 L40,20"/><circle cx="40" cy="40" r="2" fill="#D5D2CA" stroke="none" opacity="0.4"/><path d="M1880,40 L1900,40 M1880,40 L1880,20"/><circle cx="1880" cy="40" r="2" fill="#D5D2CA" stroke="none" opacity="0.4"/></g><text x="960.0" y="120" font-size="38" fill="#1A1612" text-anchor="middle" font-weight="normal" font-family="PingFang SC, Hiragino Sans GB, Microsoft YaHei, SimHei, sans-serif">30+ 供应商格局</text><path d="M800.0,155.0 Q953.6,151.4 1120.0,155.0" stroke="#7BB8D0" stroke-width="3" fill="none" stroke-linecap="round"/><text x="960.0" y="190" font-size="20" fill="#999999" text-anchor="middle" font-weight="normal" font-family="PingFang SC, Hiragino Sans GB, Microsoft YaHei, SimHei, sans-serif">覆盖四条产线 · 头部贡献主力</text><text x="60" y="1020" font-size="14" fill="#AAAAAA" text-anchor="start" font-weight="normal" font-family="PingFang SC, Hiragino Sans GB, Microsoft YaHei, SimHei, sans-serif">02 / 08</text><path d="M201.0854755541152,348.91865743176066 L518.961447736935,347.6760562461719 L518.1358225763929,553.4932367017 L201.18428308197275,550.8730480453358 Z" fill="#B8D8E8" stroke="#1A1612" stroke-width="1.5" stroke-linecap="round" stroke-linejoin="round" opacity="0.3"/><text x="360" y="430" font-size="26" fill="#1A1612" text-anchor="middle" font-weight="normal" font-family="PingFang SC, Hiragino Sans GB, Microsoft YaHei, SimHei, sans-serif">金条</text><text x="360" y="470" font-size="14" fill="#999999" text-anchor="middle" font-weight="normal" font-family="PingFang SC, Hiragino Sans GB, Microsoft YaHei, SimHei, sans-serif">产线 1</text><path d="M597.3691091855848,351.8330143836028 L917.3072199500954,349.0356435340612 L923.9161868050927,551.1199980788327 L600.4555979501972,551.476914007919 Z" fill="#C5E8D0" stroke="#1A1612" stroke-width="1.5" stroke-linecap="round" stroke-linejoin="round" opacity="0.3"/><text x="760" y="430" font-size="26" fill="#1A1612" text-anchor="middle" font-weight="normal" font-family="PingFang SC, Hiragino Sans GB, Microsoft YaHei, SimHei, sans-serif">企金</text><text x="760" y="470" font-size="14" fill="#999999" text-anchor="middle" font-weight="normal" font-family="PingFang SC, Hiragino Sans GB, Microsoft YaHei, SimHei, sans-serif">产线 2</text><path d="M1002.7428153615185,352.20799929236995 L1317.832384575713,346.2568019512323 L1318.5236243844727,548.1419270078056 L997.6878627486906,553.5432777146805 Z" fill="#F5D5B5" stroke="#1A1612" stroke-width="1.5" stroke-linecap="round" stroke-linejoin="round" opacity="0.3"/><text x="1160" y="430" font-size="26" fill="#1A1612" text-anchor="middle" font-weight="normal" font-family="PingFang SC, Hiragino Sans GB, Microsoft YaHei, SimHei, sans-serif">信用卡</text><text x="1160" y="470" font-size="14" fill="#999999" text-anchor="middle" font-weight="normal" font-family="PingFang SC, Hiragino Sans GB, Microsoft YaHei, SimHei, sans-serif">产线 3</text><path d="M1403.0109410117814,348.5174230463878 L1721.243509322359,349.16505520848534 L1723.3163807179244,549.6708148206992 L1398.1190413319844,547.9730200615519 Z" fill="#DDD0F0" stroke="#1A1612" stroke-width="1.5" stroke-linecap="round" stroke-linejoin="round" opacity="0.3"/><text x="1560" y="430" font-size="26" fill="#1A1612" text-anchor="middle" font-weight="normal" font-family="PingFang SC, Hiragino Sans GB, Microsoft YaHei, SimHei, sans-serif">财富</text><text x="1560" y="470" font-size="14" fill="#999999" text-anchor="middle" font-weight="normal" font-family="PingFang SC, Hiragino Sans GB, Microsoft YaHei, SimHei, sans-serif">产线 4</text><g id="fill-layer"><circle cx="945.0" cy="670" r="8" fill="#D6654B" opacity="0.15"/><circle cx="965.0" cy="665" r="8" fill="#D6654B" opacity="0.1"/><circle cx="980.0" cy="670" r="8" fill="#D6654B" opacity="0.15"/></g><g id="stroke-layer" fill="none" stroke="#1A1612" stroke-width="1.5" stroke-linecap="round" stroke-linejoin="round"><circle cx="945.0" cy="670" r="8" stroke-width="2"/><path d="M935.0,688 Q945.0,680 955.0,688"/><circle cx="965.0" cy="665" r="8" stroke-width="2"/><path d="M955.0,683 Q965.0,675 975.0,683"/><circle cx="980.0" cy="670" r="8" stroke-width="2"/><path d="M970.0,688 Q980.0,680 990.0,688"/></g><text x="960.0" y="730" font-size="20" fill="#D6654B" text-anchor="middle" font-weight="normal" font-family="PingFang SC, Hiragino Sans GB, Microsoft YaHei, SimHei, sans-serif">头部 6 家贡献绝大部分产能</text><text x="270" y="810" font-size="16" fill="#1A1612" text-anchor="middle" font-weight="normal" font-family="PingFang SC, Hiragino Sans GB, Microsoft YaHei, SimHei, sans-serif">毅航</text><text x="540" y="810" font-size="16" fill="#1A1612" text-anchor="middle" font-weight="normal" font-family="PingFang SC, Hiragino Sans GB, Microsoft YaHei, SimHei, sans-serif">毛毛虫</text><text x="810" y="810" font-size="16" fill="#1A1612" text-anchor="middle" font-weight="normal" font-family="PingFang SC, Hiragino Sans GB, Microsoft YaHei, SimHei, sans-serif">伽玛</text><text x="1080" y="810" font-size="16" fill="#1A1612" text-anchor="middle" font-weight="normal" font-family="PingFang SC, Hiragino Sans GB, Microsoft YaHei, SimHei, sans-serif">赛维斯</text><text x="1350" y="810" font-size="16" fill="#1A1612" text-anchor="middle" font-weight="normal" font-family="PingFang SC, Hiragino Sans GB, Microsoft YaHei, SimHei, sans-serif">岐力</text><text x="1620" y="810" font-size="16" fill="#1A1612" text-anchor="middle" font-weight="normal" font-family="PingFang SC, Hiragino Sans GB, Microsoft YaHei, SimHei, sans-serif">翰锐</text></svg>