<svg xmlns="http://www.w3.org/2000/svg" width="1920" height="1080" viewBox="0 0 1920 1080"><rect width="1920" height="1080" fill="#FBFAF5"/><g stroke="#D5D2CA" stroke-width="0.8" fill="none" opacity="0.5"><path d="M40,1040 L60,1040 M40,1040 L40,1020"/><circle cx="40" cy="1040" r="2" fill="#D5D2CA" stroke="none" opacity="0.4"/><path d="M1880,1040 L1900,1040 M1880,1040 L1880,1020"/><circle cx="1880" cy="1040" r="2" fill="#D5D2CA" stroke="none" opacity="0.4"/><path d="M40,40 L60,40 M40,40 L40,20"/><circle cx="40" cy="40" r="2" fill="#D5D2CA" stroke="none" opacity="0.4"/><path d="M1880,40 L1900,40 M1880,40 L1880,20"/><circle cx="1880" cy="40" r="2" fill="#D5D2CA" stroke="none" opacity="0.4"/></g><text x="960.0" y="120" font-size="38" fill="#1A1612" text-anchor="middle" font-weight="normal" font-family="PingFang SC, Hiragino Sans GB, Microsoft YaHei, SimHei, sans-serif">三维评估体系</text><path d="M820.0,155.0 Q961.0,151.2 1100.0,155.0" stroke="#7BB8D0" stroke-width="3" fill="none" stroke-linecap="round"/><text x="960.0" y="190" font-size="20" fill="#999999" text-anchor="middle" font-weight="normal" font-family="PingFang SC, Hiragino Sans GB, Microsoft YaHei, SimHei, sans-serif">业绩 40% + 合规 30% + 潜力 30%</text><text x="60" y="1020" font-size="14" fill="#AAAAAA" text-anchor="start" font-weight="normal" font-family="PingFang SC, Hiragino Sans GB, Microsoft YaHei, SimHei, sans-serif">03 / 08</text><path d="M160.67668792178833,353.18258306881984 L599.1952040411231,347.7545660732583 L603.9803008519609,750.0762103494117 L156.72727529739035,746.3769310033979 Z" fill="#B8D8E8" stroke="#1A1612" stroke-width="1.5" stroke-linecap="round" stroke-linejoin="round" opacity="0.2"/><g id="fill-layer"><circle cx="380" cy="430" r="25" fill="#FEFFFE" opacity="0.6"/><circle cx="380" cy="430" r="15" fill="#D6654B" opacity="0.2"/><circle cx="380" cy="430" r="5" fill="#D6654B" opacity="0.5"/></g><g id="stroke-layer" fill="none" stroke="#1A1612" stroke-width="2" stroke-linecap="round" stroke-linejoin="round"><circle cx="380" cy="430" r="25" stroke-width="2.5"/><circle cx="380" cy="430" r="15"/><circle cx="380" cy="430" r="5" stroke-width="1.5"/>M350.0,430.0 Q361.3,432.0 385.0,430.0M385.0,430.0 Q385.7,424.8 377.0,422.0M385.0,430.0 Q374.0,432.1 377.0,438.0</g><text x="380" y="510" font-size="24" fill="#1A1612" text-anchor="middle" font-weight="bold" font-family="PingFang SC, Hiragino Sans GB, Microsoft YaHei, SimHei, sans-serif">业绩 40%</text><text x="380" y="560" font-size="16" fill="#555555" text-anchor="middle" font-weight="normal" font-family="PingFang SC, Hiragino Sans GB, Microsoft YaHei, SimHei, sans-serif">目标达成率</text><text x="380" y="610" font-size="16" fill="#555555" text-anchor="middle" font-weight="normal" font-family="PingFang SC, Hiragino Sans GB, Microsoft YaHei, SimHei, sans-serif">产能规模</text><text x="380" y="660" font-size="16" fill="#555555" text-anchor="middle" font-weight="normal" font-family="PingFang SC, Hiragino Sans GB, Microsoft YaHei, SimHei, sans-serif">转化率</text><g stroke="#1A1612" stroke-width="2" fill="none" stroke-linecap="round" stroke-linejoin="round"><path d="M610.0,550.0 Q657.9,550.5 690.0,550.0"/><path d="M690.0,550.0 Q692.3,558.6 679.5,555.8"/><path d="M690.0,550.0 Q676.9,550.7 679.5,544.2"/></g><path d="M701.4536829522126,350.29576264327034 L1138.1346015196204,351.1276943886385 L1136.892417388767,749.4781220053528 L699.6297896506336,753.6305274201686 Z" fill="#C5E8D0" stroke="#1A1612" stroke-width="1.5" stroke-linecap="round" stroke-linejoin="round" opacity="0.2"/><g id="fill-layer"><path d="M920,402 L942,412 L942,432 L920,458 L898,432 L898,412 Z" fill="#D6654B" opacity="0.15"/></g><g id="stroke-layer" fill="none" stroke="#1A1612" stroke-width="2" stroke-linecap="round" stroke-linejoin="round"><path d="M920,402 L942,412 L942,432 L920,458 L898,432 L898,412 Z" stroke-width="2.5"/>M912.0,430.0 Q921.0,430.2 918.0,438.0M918.0,438.0 Q924.0,424.9 930.0,422.0</g><text x="920" y="510" font-size="24" fill="#1A1612" text-anchor="middle" font-weight="bold" font-family="PingFang SC, Hiragino Sans GB, Microsoft YaHei, SimHei, sans-serif">合规 30%</text><text x="920" y="560" font-size="16" fill="#555555" text-anchor="middle" font-weight="normal" font-family="PingFang SC, Hiragino Sans GB, Microsoft YaHei, SimHei, sans-serif">质检合格率</text><text x="920" y="610" font-size="16" fill="#555555" text-anchor="middle" font-weight="normal" font-family="PingFang SC, Hiragino Sans GB, Microsoft YaHei, SimHei, sans-serif">投诉率</text><text x="920" y="660" font-size="16" fill="#555555" text-anchor="middle" font-weight="normal" font-family="PingFang SC, Hiragino Sans GB, Microsoft YaHei, SimHei, sans-serif">违规次数</text><g stroke="#1A1612" stroke-width="2" fill="none" stroke-linecap="round" stroke-linejoin="round"><path d="M1150.0,550.0 Q1196.6,555.9 1230.0,550.0"/><path d="M1230.0,550.0 Q1221.5,555.1 1219.5,555.8"/><path d="M1230.0,550.0 Q1226.5,541.6 1219.5,544.2"/></g><path d="M1242.1000864006012,350.315032240957 L1682.2290118290446,350.2428293775614 L1676.0045751690236,748.5932484560374 L1236.1558139390866,753.4327889301169 Z" fill="#F5D5B5" stroke="#1A1612" stroke-width="1.5" stroke-linecap="round" stroke-linejoin="round" opacity="0.2"/><g id="fill-layer"><ellipse cx="1460" cy="440" rx="18" ry="12" fill="#C5E8D0" opacity="0.3"/><ellipse cx="1450" cy="422" rx="8" ry="12" fill="#D6654B" opacity="0.2"/><ellipse cx="1470" cy="425" rx="7" ry="10" fill="#D6654B" opacity="0.15"/></g><g id="stroke-layer" fill="none" stroke="#1A1612" stroke-width="2" stroke-linecap="round" stroke-linejoin="round">M1460.0,440.0 Q1466.1,432.8 1460.0,415.0M1460.0,415.0 Q1451.9,411.4 1450.0,422.0M1460.0,418.0 Q1471.0,428.7 1470.0,425.0M1460.0,440.0 Q1450.4,444.8 1454.0,450.0M1460.0,440.0 Q1456.1,449.2 1466.0,450.0</g><text x="1460" y="510" font-size="24" fill="#1A1612" text-anchor="middle" font-weight="bold" font-family="PingFang SC, Hiragino Sans GB, Microsoft YaHei, SimHei, sans-serif">潜力 30%</text><text x="1460" y="560" font-size="16" fill="#555555" text-anchor="middle" font-weight="normal" font-family="PingFang SC, Hiragino Sans GB, Microsoft YaHei, SimHei, sans-serif">规模扩张</text><text x="1460" y="610" font-size="16" fill="#555555" text-anchor="middle" font-weight="normal" font-family="PingFang SC, Hiragino Sans GB, Microsoft YaHei, SimHei, sans-serif">技术能力</text><text x="1460" y="660" font-size="16" fill="#555555" text-anchor="middle" font-weight="normal" font-family="PingFang SC, Hiragino Sans GB, Microsoft YaHei, SimHei, sans-serif">配合度</text><text x="960.0" y="810" font-size="14" fill="#AAAAAA" text-anchor="middle" font-weight="normal" font-family="PingFang SC, Hiragino Sans GB, Microsoft YaHei, SimHei, sans-serif">数据来源：业务系统 / 质检培训 / 评估访谈</text></svg>