<svg xmlns="http://www.w3.org/2000/svg" width="1920" height="1080" viewBox="0 0 1920 1080"><rect width="1920" height="1080" fill="#FBFAF5"/><g stroke="#D5D2CA" stroke-width="0.8" fill="none" opacity="0.5"><path d="M40,1040 L60,1040 M40,1040 L40,1020"/><circle cx="40" cy="1040" r="2" fill="#D5D2CA" stroke="none" opacity="0.4"/><path d="M1880,1040 L1900,1040 M1880,1040 L1880,1020"/><circle cx="1880" cy="1040" r="2" fill="#D5D2CA" stroke="none" opacity="0.4"/><path d="M40,40 L60,40 M40,40 L40,20"/><circle cx="40" cy="40" r="2" fill="#D5D2CA" stroke="none" opacity="0.4"/><path d="M1880,40 L1900,40 M1880,40 L1880,20"/><circle cx="1880" cy="40" r="2" fill="#D5D2CA" stroke="none" opacity="0.4"/></g><text x="960.0" y="120" font-size="38" fill="#1A1612" text-anchor="middle" font-weight="normal" font-family="PingFang SC, Hiragino Sans GB, Microsoft YaHei, SimHei, sans-serif">三张清单</text><path d="M860.0,155.0 Q959.3,153.8 1060.0,155.0" stroke="#7BB8D0" stroke-width="3" fill="none" stroke-linecap="round"/><text x="960.0" y="190" font-size="20" fill="#999999" text-anchor="middle" font-weight="normal" font-family="PingFang SC, Hiragino Sans GB, Microsoft YaHei, SimHei, sans-serif">保留 · 培养 · 优化</text><text x="60" y="1020" font-size="14" fill="#AAAAAA" text-anchor="start" font-weight="normal" font-family="PingFang SC, Hiragino Sans GB, Microsoft YaHei, SimHei, sans-serif">05 / 08</text><path d="M163.6585411268774,323.9633815159417 L610.4461465872449,321.7472662023706 L607.2383746021925,738.3736626039565 L163.74967491975326,740.63344232653 Z" fill="#C5E8D0" stroke="#1A1612" stroke-width="1.5" stroke-linecap="round" stroke-linejoin="round" opacity="0.2"/><g id="fill-layer"><path d="M385.0,375.0 L390.9,391.9 L408.8,392.3 L394.5,403.1 L399.7,420.2 L385.0,410.0 L370.3,420.2 L375.5,403.1 L361.2,392.3 L379.1,391.9 Z" fill="#D6654B" opacity="0.25"/></g><g id="stroke-layer" fill="none" stroke="#1A1612" stroke-width="2" stroke-linecap="round" stroke-linejoin="round"><path d="M385.0,375.0 L390.9,391.9 L408.8,392.3 L394.5,403.1 L399.7,420.2 L385.0,410.0 L370.3,420.2 L375.5,403.1 L361.2,392.3 L379.1,391.9 Z" stroke-width="2.5"/></g><text x="385" y="470" font-size="24" fill="#1A1612" text-anchor="middle" font-weight="bold" font-family="PingFang SC, Hiragino Sans GB, Microsoft YaHei, SimHei, sans-serif">保留清单</text><text x="385" y="500" font-size="16" fill="#999999" text-anchor="middle" font-weight="normal" font-family="PingFang SC, Hiragino Sans GB, Microsoft YaHei, SimHei, sans-serif">头部</text><text x="385" y="540" font-size="14" fill="#555555" text-anchor="middle" font-weight="normal" font-family="PingFang SC, Hiragino Sans GB, Microsoft YaHei, SimHei, sans-serif">明星+成长星+现金牛</text><text x="385" y="575" font-size="13" fill="#AAAAAA" text-anchor="middle" font-weight="normal" font-family="PingFang SC, Hiragino Sans GB, Microsoft YaHei, SimHei, sans-serif">资源倾斜 · 优先分配</text><text x="385" y="660" font-size="36" fill="#1A1612" text-anchor="middle" font-weight="bold" font-family="PingFang SC, Hiragino Sans GB, Microsoft YaHei, SimHei, sans-serif">6-10家</text><path d="M700.3375616109942,321.9838044830325 L1146.45732218326,320.67342075567177 L1150.0228030633562,742.8217591363863 L697.2594618235158,743.6862312261956 Z" fill="#B8D8E8" stroke="#1A1612" stroke-width="1.5" stroke-linecap="round" stroke-linejoin="round" opacity="0.2"/><g id="fill-layer"><rect x="907" y="375" width="36" height="45" rx="3" fill="#FEFFFE" opacity="0.5"/></g><g id="stroke-layer" fill="none" stroke="#1A1612" stroke-width="2" stroke-linecap="round" stroke-linejoin="round"><path d="M903.6408917219247,372.4865996878458 L943.7602808516002,376.4017004288327 L940.8816311600075,416.959092911577 L910.1222985130355,417.969722782309 Z" stroke-width="2.5"/>M915.0,385.0 Q927.5,386.9 937.0,385.0M915.0,395.0 Q924.7,396.3 937.0,395.0M915.0,405.0 Q926.4,412.0 937.0,405.0M915.0,415.0 Q921.3,418.5 937.0,415.0M920.0,375.0 Q920.8,373.3 930.0,375.0M911.0,387.0 Q914.7,385.8 913.0,391.0M913.0,391.0 Q912.1,392.0 917.0,385.0</g><text x="925" y="470" font-size="24" fill="#1A1612" text-anchor="middle" font-weight="bold" font-family="PingFang SC, Hiragino Sans GB, Microsoft YaHei, SimHei, sans-serif">培养清单</text><text x="925" y="500" font-size="16" fill="#999999" text-anchor="middle" font-weight="normal" font-family="PingFang SC, Hiragino Sans GB, Microsoft YaHei, SimHei, sans-serif">腰部</text><text x="925" y="540" font-size="14" fill="#555555" text-anchor="middle" font-weight="normal" font-family="PingFang SC, Hiragino Sans GB, Microsoft YaHei, SimHei, sans-serif">中坚+潜力股+观察区</text><text x="925" y="575" font-size="13" fill="#AAAAAA" text-anchor="middle" font-weight="normal" font-family="PingFang SC, Hiragino Sans GB, Microsoft YaHei, SimHei, sans-serif">针对性辅导 · 季度跟踪</text><text x="925" y="660" font-size="36" fill="#1A1612" text-anchor="middle" font-weight="bold" font-family="PingFang SC, Hiragino Sans GB, Microsoft YaHei, SimHei, sans-serif">12-15家</text><path d="M1236.5803449159453,319.6662841809487 L1693.9876355268354,323.96877158284076 L1686.5860857687971,737.7052344981363 L1238.1216033180033,743.4660750239497 Z" fill="#F5C5C5" stroke="#1A1612" stroke-width="1.5" stroke-linecap="round" stroke-linejoin="round" opacity="0.2"/><g id="fill-layer"><circle cx="1465" cy="400" r="25" fill="#FEFFFE" opacity="0.6"/><circle cx="1465" cy="400" r="15" fill="#D6654B" opacity="0.2"/><circle cx="1465" cy="400" r="5" fill="#D6654B" opacity="0.5"/></g><g id="stroke-layer" fill="none" stroke="#1A1612" stroke-width="2" stroke-linecap="round" stroke-linejoin="round"><circle cx="1465" cy="400" r="25" stroke-width="2.5"/><circle cx="1465" cy="400" r="15"/><circle cx="1465" cy="400" r="5" stroke-width="1.5"/>M1435.0,400.0 Q1458.6,406.1 1470.0,400.0M1470.0,400.0 Q1463.9,390.5 1462.0,392.0M1470.0,400.0 Q1471.3,407.3 1462.0,408.0</g><text x="1465" y="470" font-size="24" fill="#1A1612" text-anchor="middle" font-weight="bold" font-family="PingFang SC, Hiragino Sans GB, Microsoft YaHei, SimHei, sans-serif">优化清单</text><text x="1465" y="500" font-size="16" fill="#999999" text-anchor="middle" font-weight="normal" font-family="PingFang SC, Hiragino Sans GB, Microsoft YaHei, SimHei, sans-serif">尾部</text><text x="1465" y="540" font-size="14" fill="#555555" text-anchor="middle" font-weight="normal" font-family="PingFang SC, Hiragino Sans GB, Microsoft YaHei, SimHei, sans-serif">淘汰区+待改进+问题星</text><text x="1465" y="575" font-size="13" fill="#AAAAAA" text-anchor="middle" font-weight="normal" font-family="PingFang SC, Hiragino Sans GB, Microsoft YaHei, SimHei, sans-serif">限期整改 · 减少份额</text><text x="1465" y="660" font-size="36" fill="#1A1612" text-anchor="middle" font-weight="bold" font-family="PingFang SC, Hiragino Sans GB, Microsoft YaHei, SimHei, sans-serif">5-8家</text></svg>