<svg xmlns="http://www.w3.org/2000/svg" width="1920" height="1080" viewBox="0 0 1920 1080"><rect width="1920" height="1080" fill="#FBFAF5"/><g stroke="#D5D2CA" stroke-width="0.8" fill="none" opacity="0.5"><path d="M40,1040 L60,1040 M40,1040 L40,1020"/><circle cx="40" cy="1040" r="2" fill="#D5D2CA" stroke="none" opacity="0.4"/><path d="M1880,1040 L1900,1040 M1880,1040 L1880,1020"/><circle cx="1880" cy="1040" r="2" fill="#D5D2CA" stroke="none" opacity="0.4"/><path d="M40,40 L60,40 M40,40 L40,20"/><circle cx="40" cy="40" r="2" fill="#D5D2CA" stroke="none" opacity="0.4"/><path d="M1880,40 L1900,40 M1880,40 L1880,20"/><circle cx="1880" cy="40" r="2" fill="#D5D2CA" stroke="none" opacity="0.4"/></g><text x="960.0" y="120" font-size="38" fill="#1A1612" text-anchor="middle" font-weight="normal" font-family="PingFang SC, Hiragino Sans GB, Microsoft YaHei, SimHei, sans-serif">实施路径</text><path d="M860.0,155.0 Q961.8,162.8 1060.0,155.0" stroke="#7BB8D0" stroke-width="3" fill="none" stroke-linecap="round"/><text x="960.0" y="190" font-size="20" fill="#999999" text-anchor="middle" font-weight="normal" font-family="PingFang SC, Hiragino Sans GB, Microsoft YaHei, SimHei, sans-serif">四步走 · 三周完成</text><text x="60" y="1020" font-size="14" fill="#AAAAAA" text-anchor="start" font-weight="normal" font-family="PingFang SC, Hiragino Sans GB, Microsoft YaHei, SimHei, sans-serif">06 / 08</text><g id="fill-layer"><rect x="347" y="375" width="36" height="45" rx="3" fill="#FEFFFE" opacity="0.5"/></g><g id="stroke-layer" fill="none" stroke="#1A1612" stroke-width="2" stroke-linecap="round" stroke-linejoin="round"><path d="M348.2318105416859,371.06258485721725 L385.5368330809237,373.3950300175998 L384.3071097197286,423.51144003141684 L344.07432891514696,416.9234293633528 Z" stroke-width="2.5"/>M355.0,385.0 Q359.7,385.9 377.0,385.0M355.0,395.0 Q362.4,396.7 377.0,395.0M355.0,405.0 Q369.5,400.3 377.0,405.0M355.0,415.0 Q368.1,411.2 377.0,415.0M360.0,375.0 Q364.8,381.5 370.0,375.0M351.0,387.0 Q357.5,382.5 353.0,391.0M353.0,391.0 Q353.8,384.4 357.0,385.0</g><path d="M286.02836551270224,482.168953784157 L441.09690701841106,478.0956420994748 L441.92984726678344,600.4134433690111 L289.4214953518454,596.0773575968667 Z" fill="#B8D8E8" stroke="#1A1612" stroke-width="1.5" stroke-linecap="round" stroke-linejoin="round" opacity="0.2"/><text x="365" y="520" font-size="20" fill="#1A1612" text-anchor="middle" font-weight="bold" font-family="PingFang SC, Hiragino Sans GB, Microsoft YaHei, SimHei, sans-serif">数据收集</text><text x="365" y="555" font-size="14" fill="#999999" text-anchor="middle" font-weight="normal" font-family="PingFang SC, Hiragino Sans GB, Microsoft YaHei, SimHei, sans-serif">1 周</text><text x="365" y="590" font-size="13" fill="#666666" text-anchor="middle" font-weight="normal" font-family="PingFang SC, Hiragino Sans GB, Microsoft YaHei, SimHei, sans-serif">统一模板 · 每家一行</text><text x="365" y="350" font-size="22" fill="#D6654B" text-anchor="middle" font-weight="bold" font-family="PingFang SC, Hiragino Sans GB, Microsoft YaHei, SimHei, sans-serif">1</text><g stroke="#1A1612" stroke-width="2" fill="none" stroke-linecap="round" stroke-linejoin="round"><path d="M530.0,540.0 Q543.2,546.1 570.0,540.0"/><path d="M570.0,540.0 Q571.2,543.6 559.5,545.8"/><path d="M570.0,540.0 Q570.1,538.4 559.5,534.2"/></g><g id="fill-layer"><rect x="767.0" y="372.0" width="16" height="16" rx="2" fill="#B8D8E8" opacity="0.3"/><rect x="787.0" y="372.0" width="16" height="16" rx="2" fill="#C5E8D0" opacity="0.3"/><rect x="807.0" y="372.0" width="16" height="16" rx="2" fill="#F5D5B5" opacity="0.3"/><rect x="767.0" y="392.0" width="16" height="16" rx="2" fill="#C5E8D0" opacity="0.3"/><rect x="787.0" y="392.0" width="16" height="16" rx="2" fill="#F5D5B5" opacity="0.3"/><rect x="807.0" y="392.0" width="16" height="16" rx="2" fill="#DDD0F0" opacity="0.3"/><rect x="767.0" y="412.0" width="16" height="16" rx="2" fill="#F5D5B5" opacity="0.3"/><rect x="787.0" y="412.0" width="16" height="16" rx="2" fill="#DDD0F0" opacity="0.3"/><rect x="807.0" y="412.0" width="16" height="16" rx="2" fill="#F5C5C5" opacity="0.3"/></g><g id="stroke-layer" fill="none" stroke="#1A1612" stroke-width="1.5" stroke-linecap="round" stroke-linejoin="round">M762.1847502845399,367.0195641542571 L823.466066799441,373.19185190994074 L827.3689784391044,432.88562065600723 L768.1913970922118,427.68061230671805 Z<path d="M765.0,370.0 Q791.0,363.6 825.0,370.0"/><path d="M765.0,390.0 Q799.5,396.1 825.0,390.0"/><path d="M765.0,410.0 Q793.5,411.9 825.0,410.0"/><path d="M765.0,370.0 Q759.5,406.9 765.0,430.0"/><path d="M785.0,370.0 Q790.8,407.6 785.0,430.0"/><path d="M805.0,370.0 Q810.0,406.1 805.0,430.0"/></g><path d="M716.1982908951856,481.89251577404065 L868.6574837435714,483.44652708838663 L872.4178811114971,602.9125122270023 L722.4859945325951,598.1344456767558 Z" fill="#C5E8D0" stroke="#1A1612" stroke-width="1.5" stroke-linecap="round" stroke-linejoin="round" opacity="0.2"/><text x="795" y="520" font-size="20" fill="#1A1612" text-anchor="middle" font-weight="bold" font-family="PingFang SC, Hiragino Sans GB, Microsoft YaHei, SimHei, sans-serif">九宫格映射</text><text x="795" y="555" font-size="14" fill="#999999" text-anchor="middle" font-weight="normal" font-family="PingFang SC, Hiragino Sans GB, Microsoft YaHei, SimHei, sans-serif">3 天</text><text x="795" y="590" font-size="13" fill="#666666" text-anchor="middle" font-weight="normal" font-family="PingFang SC, Hiragino Sans GB, Microsoft YaHei, SimHei, sans-serif">高中低三分位切分</text><text x="795" y="350" font-size="22" fill="#D6654B" text-anchor="middle" font-weight="bold" font-family="PingFang SC, Hiragino Sans GB, Microsoft YaHei, SimHei, sans-serif">2</text><g stroke="#1A1612" stroke-width="2" fill="none" stroke-linecap="round" stroke-linejoin="round"><path d="M960.0,540.0 Q984.6,533.7 1000.0,540.0"/><path d="M1000.0,540.0 Q1000.7,548.6 989.5,545.8"/><path d="M1000.0,540.0 Q990.3,542.2 989.5,534.2"/></g><g id="fill-layer"><rect x="1207" y="375" width="36" height="45" rx="3" fill="#FEFFFE" opacity="0.5"/></g><g id="stroke-layer" fill="none" stroke="#1A1612" stroke-width="2" stroke-linecap="round" stroke-linejoin="round"><path d="M1206.6824258774316,373.4415269387088 L1245.3627639932229,372.82076389926215 L1239.1893154776117,417.5450383066217 L1205.6260956095816,422.9148235362423 Z" stroke-width="2.5"/>M1215.0,385.0 Q1233.5,381.5 1237.0,385.0M1215.0,395.0 Q1228.3,393.4 1237.0,395.0M1215.0,405.0 Q1233.7,405.6 1237.0,405.0M1215.0,415.0 Q1233.0,408.8 1237.0,415.0M1220.0,375.0 Q1232.5,369.9 1230.0,375.0M1211.0,387.0 Q1219.4,385.2 1213.0,391.0M1213.0,391.0 Q1208.7,387.0 1217.0,385.0</g><path d="M1151.8283604852215,478.5094185135599 L1300.8496708264493,480.0913844773558 L1299.0815634667579,600.6127043479728 L1148.0377800491087,601.6702822706734 Z" fill="#F5D5B5" stroke="#1A1612" stroke-width="1.5" stroke-linecap="round" stroke-linejoin="round" opacity="0.2"/><text x="1225" y="520" font-size="20" fill="#1A1612" text-anchor="middle" font-weight="bold" font-family="PingFang SC, Hiragino Sans GB, Microsoft YaHei, SimHei, sans-serif">输出三清单</text><text x="1225" y="555" font-size="14" fill="#999999" text-anchor="middle" font-weight="normal" font-family="PingFang SC, Hiragino Sans GB, Microsoft YaHei, SimHei, sans-serif">2 天</text><text x="1225" y="590" font-size="13" fill="#666666" text-anchor="middle" font-weight="normal" font-family="PingFang SC, Hiragino Sans GB, Microsoft YaHei, SimHei, sans-serif">保留/培养/优化确认</text><text x="1225" y="350" font-size="22" fill="#D6654B" text-anchor="middle" font-weight="bold" font-family="PingFang SC, Hiragino Sans GB, Microsoft YaHei, SimHei, sans-serif">3</text><g stroke="#1A1612" stroke-width="2" fill="none" stroke-linecap="round" stroke-linejoin="round"><path d="M1390.0,540.0 Q1402.0,546.8 1430.0,540.0"/><path d="M1430.0,540.0 Q1425.3,546.4 1419.5,545.8"/><path d="M1430.0,540.0 Q1428.6,539.9 1419.5,534.2"/></g><g id="fill-layer"><rect x="1635" y="375" width="40" height="50" rx="2" fill="#FEFFFE" opacity="0.5"/><rect x="1641" y="382" width="10" height="8" rx="1" fill="#D6654B" opacity="0.15"/><rect x="1657" y="382" width="10" height="8" rx="1" fill="#D6654B" opacity="0.15"/><rect x="1641" y="396" width="10" height="8" rx="1" fill="#D6654B" opacity="0.15"/><rect x="1657" y="396" width="10" height="8" rx="1" fill="#D6654B" opacity="0.15"/><rect x="1641" y="410" width="10" height="8" rx="1" fill="#D6654B" opacity="0.15"/><rect x="1657" y="410" width="10" height="8" rx="1" fill="#D6654B" opacity="0.15"/></g><g id="stroke-layer" fill="none" stroke="#1A1612" stroke-width="2" stroke-linecap="round" stroke-linejoin="round"><path d="M1633.91377177425,371.5597904890105 L1676.3139014792903,373.6416002883408 L1673.5113251604669,427.7841222360507 L1636.7580341041116,423.4025781456901 Z" stroke-width="2.5"/>M1633.0,375.0 Q1640.9,368.5 1655.0,365.0M1655.0,365.0 Q1664.4,366.7 1677.0,375.0<path d="M1647.0183023924733,404.36357067018326 L1663.5229093658415,406.41854356218187 L1663.2224443658606,425.92411932761104 L1648.4075989965245,425.3834977050856 Z"/></g><path d="M1576.0032475175783,478.29530973495145 L1729.4391051999187,480.63987824956547 L1731.2376449896246,599.7199055219761 L1579.5372783944385,597.7096112079128 Z" fill="#DDD0F0" stroke="#1A1612" stroke-width="1.5" stroke-linecap="round" stroke-linejoin="round" opacity="0.2"/><text x="1655" y="520" font-size="20" fill="#1A1612" text-anchor="middle" font-weight="bold" font-family="PingFang SC, Hiragino Sans GB, Microsoft YaHei, SimHei, sans-serif">汇报共识</text><text x="1655" y="555" font-size="14" fill="#999999" text-anchor="middle" font-weight="normal" font-family="PingFang SC, Hiragino Sans GB, Microsoft YaHei, SimHei, sans-serif">2 天</text><text x="1655" y="590" font-size="13" fill="#666666" text-anchor="middle" font-weight="normal" font-family="PingFang SC, Hiragino Sans GB, Microsoft YaHei, SimHei, sans-serif">向易人汇报确认</text><text x="1655" y="350" font-size="22" fill="#D6654B" text-anchor="middle" font-weight="bold" font-family="PingFang SC, Hiragino Sans GB, Microsoft YaHei, SimHei, sans-serif">4</text></svg>