<svg xmlns="http://www.w3.org/2000/svg" width="1920" height="1080" viewBox="0 0 1920 1080"><rect width="1920" height="1080" fill="#FBFAF5"/><g stroke="#D5D2CA" stroke-width="0.8" fill="none" opacity="0.5"><path d="M40,1040 L60,1040 M40,1040 L40,1020"/><circle cx="40" cy="1040" r="2" fill="#D5D2CA" stroke="none" opacity="0.4"/><path d="M1880,1040 L1900,1040 M1880,1040 L1880,1020"/><circle cx="1880" cy="1040" r="2" fill="#D5D2CA" stroke="none" opacity="0.4"/><path d="M40,40 L60,40 M40,40 L40,20"/><circle cx="40" cy="40" r="2" fill="#D5D2CA" stroke="none" opacity="0.4"/><path d="M1880,40 L1900,40 M1880,40 L1880,20"/><circle cx="1880" cy="40" r="2" fill="#D5D2CA" stroke="none" opacity="0.4"/></g><text x="960.0" y="120" font-size="38" fill="#1A1612" text-anchor="middle" font-weight="normal" font-family="PingFang SC, Hiragino Sans GB, Microsoft YaHei, SimHei, sans-serif">关键结论</text><path d="M860.0,155.0 Q959.6,161.4 1060.0,155.0" stroke="#7BB8D0" stroke-width="3" fill="none" stroke-linecap="round"/><text x="60" y="1020" font-size="14" fill="#AAAAAA" text-anchor="start" font-weight="normal" font-family="PingFang SC, Hiragino Sans GB, Microsoft YaHei, SimHei, sans-serif">07 / 08</text><text x="960.0" y="320" font-size="34" fill="#1A1612" text-anchor="middle" font-weight="normal" font-family="PingFang SC, Hiragino Sans GB, Microsoft YaHei, SimHei, sans-serif">分级是起点，不是终点</text><path d="M710.0,360.0 Q964.7,354.7 1210.0,360.0" stroke="#7BB8D0" stroke-width="3" fill="none" stroke-linecap="round"/><text x="380" y="460" font-size="22" fill="#D6654B" text-anchor="middle" font-weight="bold" font-family="PingFang SC, Hiragino Sans GB, Microsoft YaHei, SimHei, sans-serif">1</text><text x="440" y="455" font-size="20" fill="#1A1612" text-anchor="start" font-weight="normal" font-family="PingFang SC, Hiragino Sans GB, Microsoft YaHei, SimHei, sans-serif">三维评估取代单一业绩维度</text><text x="440" y="485" font-size="14" fill="#AAAAAA" text-anchor="start" font-weight="normal" font-family="PingFang SC, Hiragino Sans GB, Microsoft YaHei, SimHei, sans-serif">业绩40% + 合规30% + 潜力30%</text><text x="380" y="570" font-size="22" fill="#D6654B" text-anchor="middle" font-weight="bold" font-family="PingFang SC, Hiragino Sans GB, Microsoft YaHei, SimHei, sans-serif">2</text><text x="440" y="565" font-size="20" fill="#1A1612" text-anchor="start" font-weight="normal" font-family="PingFang SC, Hiragino Sans GB, Microsoft YaHei, SimHei, sans-serif">三张清单驱动差异化管理</text><text x="440" y="595" font-size="14" fill="#AAAAAA" text-anchor="start" font-weight="normal" font-family="PingFang SC, Hiragino Sans GB, Microsoft YaHei, SimHei, sans-serif">保留头部 · 培养腰部 · 优化尾部</text><text x="380" y="680" font-size="22" fill="#D6654B" text-anchor="middle" font-weight="bold" font-family="PingFang SC, Hiragino Sans GB, Microsoft YaHei, SimHei, sans-serif">3</text><text x="440" y="675" font-size="20" fill="#1A1612" text-anchor="start" font-weight="normal" font-family="PingFang SC, Hiragino Sans GB, Microsoft YaHei, SimHei, sans-serif">动态调整保持供应商活力</text><text x="440" y="705" font-size="14" fill="#AAAAAA" text-anchor="start" font-weight="normal" font-family="PingFang SC, Hiragino Sans GB, Microsoft YaHei, SimHei, sans-serif">季度更新 · 公布进步榜</text><path d="M276.678364293801,800.1236160793218 L1641.0635268461265,798.6815060432784 L1642.5473877162933,872.0091051003259 L281.3823653644573,867.7971253279783 Z" fill="#FFF8E1" stroke="#CC9933" stroke-width="1.5" stroke-linecap="round" stroke-linejoin="round" opacity="0.3"/><text x="960.0" y="838" font-size="16" fill="#AA8822" text-anchor="middle" font-weight="normal" font-family="PingFang SC, Hiragino Sans GB, Microsoft YaHei, SimHei, sans-serif">分级不能变成"贴标签" → 强调动态性，每次公布"进步榜"</text></svg>