<svg xmlns="http://www.w3.org/2000/svg" width="100%" viewBox="0 0 680 560" font-family="system-ui,-apple-system,'PingFang SC','Microsoft YaHei',sans-serif">
  <defs>
    <marker id="a" viewBox="0 0 10 10" refX="8" refY="5" markerWidth="6" markerHeight="6" orient="auto-start-reverse">
      <path d="M2 1L8 5L2 9" fill="none" stroke="#857d74" stroke-width="1.5" stroke-linecap="round" stroke-linejoin="round"/>
    </marker>
  </defs>

  <!-- Title -->
  <text x="340" y="28" text-anchor="middle" font-size="15" font-weight="600" fill="#454240">L3-06 周度产能达成率示例</text>
  <text x="340" y="46" text-anchor="middle" font-size="10" fill="#857d74">横向柱状图 + 数据表格 | 达成率&lt;75%标出</text>

  <!-- Bar Chart Title -->
  <text x="340" y="75" text-anchor="middle" font-size="12" font-weight="600" fill="#454240">各供应商周度产能达成率</text>

  <!-- Bar Chart Area -->
  <!-- Y axis labels and bars -->
  <!--毅航 105% -->
  <text x="80" y="105" text-anchor="end" font-size="10" fill="#454240">毅航</text>
  <rect x="90" y="94" width="420" height="18" rx="4" fill="#e6f5f0"/>
  <text x="515" y="108" font-size="10" font-weight="600" fill="#0f5040">105%</text>

  <!--毛毛虫 97% -->
  <text x="80" y="127" text-anchor="end" font-size="10" fill="#454240">毛毛虫</text>
  <rect x="90" y="116" width="388" height="18" rx="4" fill="#e6f5f0"/>
  <text x="483" y="130" font-size="10" font-weight="600" fill="#0f5040">97%</text>

  <!--伽玛 93% -->
  <text x="80" y="149" text-anchor="end" font-size="10" fill="#454240">伽玛</text>
  <rect x="90" y="138" width="372" height="18" rx="4" fill="#e6f5f0"/>
  <text x="467" y="152" font-size="10" font-weight="600" fill="#0f5040">93%</text>

  <!--岐力 92% -->
  <text x="80" y="171" text-anchor="end" font-size="10" fill="#454240">岐力</text>
  <rect x="90" y="160" width="368" height="18" rx="4" fill="#e6f5f0"/>
  <text x="463" y="174" font-size="10" font-weight="600" fill="#0f5040">92%</text>

  <!--翰锐 103% -->
  <text x="80" y="193" text-anchor="end" font-size="10" fill="#454240">翰锐</text>
  <rect x="90" y="182" width="412" height="18" rx="4" fill="#e6f5f0"/>
  <text x="507" y="196" font-size="10" font-weight="600" fill="#0f5040">103%</text>

  <!--人和 103% -->
  <text x="80" y="215" text-anchor="end" font-size="10" fill="#454240">人和</text>
  <rect x="90" y="204" width="412" height="18" rx="4" fill="#e6f5f0"/>
  <text x="507" y="218" font-size="10" font-weight="600" fill="#0f5040">103%</text>

  <!--广达 120% -->
  <text x="80" y="237" text-anchor="end" font-size="10" fill="#454240">广达</text>
  <rect x="90" y="226" width="480" height="18" rx="4" fill="#e6f5f0"/>
  <text x="575" y="240" font-size="10" font-weight="600" fill="#0f5040">120%</text>

  <!--赛维斯 75% - warning -->
  <text x="80" y="259" text-anchor="end" font-size="10" fill="#6b2010" font-weight="600">赛维斯</text>
  <rect x="90" y="248" width="300" height="18" rx="4" fill="#faeae5"/>
  <text x="395" y="262" font-size="10" font-weight="600" fill="#6b2010">75%</text>
  <rect x="420" y="250" width="35" height="14" rx="7" fill="#faeae5" stroke="#c25030" stroke-width="1"/>
  <text x="437" y="261" text-anchor="middle" font-size="8" fill="#6b2010">落后</text>

  <!--汇讯 69% - severe -->
  <text x="80" y="281" text-anchor="end" font-size="10" fill="#6b2010" font-weight="600">汇讯</text>
  <rect x="90" y="270" width="276" height="18" rx="4" fill="#faeae5"/>
  <text x="371" y="284" font-size="10" font-weight="600" fill="#6b2010">69%</text>
  <rect x="396" y="272" width="45" height="14" rx="7" fill="#faeae5" stroke="#c25030" stroke-width="1"/>
  <text x="418" y="283" text-anchor="middle" font-size="8" fill="#6b2010">严重</text>

  <!--华啸 57% - severe -->
  <text x="80" y="303" text-anchor="end" font-size="10" fill="#6b2010" font-weight="600">华啸</text>
  <rect x="90" y="292" width="228" height="18" rx="4" fill="#faeae5"/>
  <text x="323" y="306" font-size="10" font-weight="600" fill="#6b2010">57%</text>
  <rect x="348" y="294" width="45" height="14" rx="7" fill="#faeae5" stroke="#c25030" stroke-width="1"/>
  <text x="370" y="305" text-anchor="middle" font-size="8" fill="#6b2010">严重</text>

  <!-- Threshold line at 75% -->
  <line x1="390" y1="90" x2="390" y2="315" stroke="#c25030" stroke-width="1" stroke-dasharray="4,4"/>
  <text x="390" y="328" text-anchor="middle" font-size="9" fill="#c25030">75%警戒线</text>

  <!-- Scale labels -->
  <text x="90" y="335" font-size="9" fill="#857d74">0%</text>
  <text x="190" y="335" text-anchor="middle" font-size="9" fill="#857d74">25%</text>
  <text x="290" y="335" text-anchor="middle" font-size="9" fill="#857d74">50%</text>
  <text x="390" y="335" text-anchor="middle" font-size="9" fill="#857d74">75%</text>
  <text x="490" y="335" text-anchor="middle" font-size="9" fill="#857d74">100%</text>

  <!-- Data Table -->
  <text x="340" y="370" text-anchor="middle" font-size="12" font-weight="600" fill="#454240">数据明细</text>

  <!-- Table header -->
  <rect x="20" y="380" width="640" height="26" rx="4" fill="#f2f0eb" stroke="#857d74" stroke-width="1"/>
  <text x="90" y="398" text-anchor="middle" font-size="10" font-weight="600" fill="#454240">供应商</text>
  <text x="190" y="398" text-anchor="middle" font-size="10" font-weight="600" fill="#454240">周目标(万)</text>
  <text x="290" y="398" text-anchor="middle" font-size="10" font-weight="600" fill="#454240">本周实际(万)</text>
  <text x="420" y="398" text-anchor="middle" font-size="10" font-weight="600" fill="#454240">达成率</text>
  <text x="530" y="398" text-anchor="middle" font-size="10" font-weight="600" fill="#454240">状态</text>

  <!-- Table rows -->
  <rect x="20" y="406" width="640" height="22" fill="#ffffff"/>
  <text x="90" y="421" text-anchor="middle" font-size="10" fill="#454240">毅航</text>
  <text x="190" y="421" text-anchor="middle" font-size="10" fill="#454240">2000</text>
  <text x="290" y="421" text-anchor="middle" font-size="10" fill="#454240">2100</text>
  <text x="420" y="421" text-anchor="middle" font-size="10" font-weight="600" fill="#0f5040">105%</text>
  <rect x="510" y="410" width="40" height="14" rx="7" fill="#e6f5f0"/>
  <text x="530" y="421" text-anchor="middle" font-size="9" fill="#0f5040">正常</text>

  <rect x="20" y="428" width="640" height="22" fill="#f9f9f9"/>
  <text x="90" y="443" text-anchor="middle" font-size="10" fill="#454240">毛毛虫</text>
  <text x="190" y="443" text-anchor="middle" font-size="10" fill="#454240">1800</text>
  <text x="290" y="443" text-anchor="middle" font-size="10" fill="#454240">1750</text>
  <text x="420" y="443" text-anchor="middle" font-size="10" font-weight="600" fill="#0f5040">97%</text>
  <rect x="510" y="432" width="40" height="14" rx="7" fill="#e6f5f0"/>
  <text x="530" y="443" text-anchor="middle" font-size="9" fill="#0f5040">正常</text>

  <rect x="20" y="450" width="640" height="22" fill="#ffffff"/>
  <text x="90" y="465" text-anchor="middle" font-size="10" fill="#454240">伽玛</text>
  <text x="190" y="465" text-anchor="middle" font-size="10" fill="#454240">1500</text>
  <text x="290" y="465" text-anchor="middle" font-size="10" fill="#454240">1400</text>
  <text x="420" y="465" text-anchor="middle" font-size="10" font-weight="600" fill="#0f5040">93%</text>
  <rect x="510" y="454" width="40" height="14" rx="7" fill="#e6f5f0"/>
  <text x="530" y="465" text-anchor="middle" font-size="9" fill="#0f5040">正常</text>

  <!-- 赛维斯 highlighted -->
  <rect x="20" y="472" width="640" height="22" fill="#faeae5"/>
  <text x="90" y="487" text-anchor="middle" font-size="10" font-weight="600" fill="#6b2010">赛维斯</text>
  <text x="190" y="487" text-anchor="middle" font-size="10" fill="#454240">1200</text>
  <text x="290" y="487" text-anchor="middle" font-size="10" fill="#454240">900</text>
  <text x="420" y="487" text-anchor="middle" font-size="10" font-weight="600" fill="#6b2010">75%</text>
  <rect x="510" y="476" width="40" height="14" rx="7" fill="#faeae5" stroke="#c25030" stroke-width="1"/>
  <text x="530" y="487" text-anchor="middle" font-size="9" fill="#6b2010">落后</text>

  <!-- 汇讯 highlighted -->
  <rect x="20" y="494" width="640" height="22" fill="#faeae5"/>
  <text x="90" y="509" text-anchor="middle" font-size="10" font-weight="600" fill="#6b2010">汇讯</text>
  <text x="190" y="509" text-anchor="middle" font-size="10" fill="#454240">800</text>
  <text x="290" y="509" text-anchor="middle" font-size="10" fill="#454240">550</text>
  <text x="420" y="509" text-anchor="middle" font-size="10" font-weight="600" fill="#6b2010">69%</text>
  <rect x="505" y="498" width="50" height="14" rx="7" fill="#faeae5" stroke="#c25030" stroke-width="1"/>
  <text x="530" y="509" text-anchor="middle" font-size="9" fill="#6b2010">严重落后</text>

  <rect x="20" y="516" width="640" height="22" fill="#ffffff"/>
  <text x="90" y="531" text-anchor="middle" font-size="10" fill="#454240">翰锐</text>
  <text x="190" y="531" text-anchor="middle" font-size="10" fill="#454240">700</text>
  <text x="290" y="531" text-anchor="middle" font-size="10" fill="#454240">720</text>
  <text x="420" y="531" text-anchor="middle" font-size="10" font-weight="600" fill="#0f5040">103%</text>
  <rect x="510" y="520" width="40" height="14" rx="7" fill="#e6f5f0"/>
  <text x="530" y="531" text-anchor="middle" font-size="9" fill="#0f5040">正常</text>

  <!-- Right side rules -->
  <rect x="560" y="470" width="100" height="70" rx="8" fill="#faf0e6" stroke="#c26d3a" stroke-width="1"/>
  <text x="610" y="488" text-anchor="middle" font-size="9" font-weight="600" fill="#6b3410">判断规则</text>
  <text x="568" y="504" font-size="8" fill="#454240">&lt;75% 标出关注</text>
  <text x="568" y="518" font-size="8" fill="#454240">连续2周 立即介入</text>
  <text x="568" y="532" font-size="8" fill="#454240">等月底才处理太晚</text>

  <!-- Footer -->
  <text x="340" y="558" text-anchor="middle" font-size="9" fill="#857d74">L3-06 周度产能达成率示例 | 达成率&lt;75%标红 | 连续2周&lt;75%立即介入</text>
</svg>