<svg width="1280" height="720" viewBox="0 0 1280 720" xmlns="http://www.w3.org/2000/svg">
<rect width="1280" height="720" fill="#FFFFFF"/>
<rect x="0" y="0" width="1280" height="3" fill="#1677FF"/>
<text x="40" y="22" font-family="Microsoft YaHei,sans-serif" font-size="11" fill="#888888">Q2 预期成果</text>
<text x="1240" y="22" text-anchor="end" font-family="Microsoft YaHei,sans-serif" font-size="11" font-weight="bold" fill="#1677FF">供应商管理BP</text>
<line x1="40" y1="30" x2="1240" y2="30" stroke="#E2E2E2" stroke-width="0.5"/>
<rect x="40" y="36" width="3" height="52" fill="#1677FF"/>
<text x="52" y="70" font-family="Songti SC,SimSun,serif" font-size="22" font-weight="bold" fill="#1A1A1A">Q2 末交付什么：量化指标 + 质化转变</text>
<line x1="40" y1="94" x2="1240" y2="94" stroke="#E2E2E2" stroke-width="0.5"/>
<rect x="40" y="100" width="590" height="580" rx="4" fill="#FFFFFF" stroke="#E2E2E2" stroke-width="0.5"/>
<rect x="40" y="100" width="4" height="580" fill="#1677FF"/>
<text x="64" y="132" font-family="Microsoft YaHei,sans-serif" font-size="14" font-weight="bold" fill="#1677FF">量化目标</text>
<rect x="64" y="156" width="546" height="50" rx="4" fill="#F5F5F5"/>
<text x="84" y="180" font-family="Microsoft YaHei,sans-serif" font-size="13" font-weight="bold" fill="#1A1A1A">指标</text>
<text x="360" y="180" font-family="Microsoft YaHei,sans-serif" font-size="13" font-weight="bold" fill="#1A1A1A">Q2 末目标</text>
<line x1="64" y1="206" x2="610" y2="206" stroke="#E2E2E2" stroke-width="0.5"/>
<text x="84" y="232" font-family="Microsoft YaHei,sans-serif" font-size="13" fill="#333333">供应商分级覆盖率</text>
<text x="360" y="232" font-family="Microsoft YaHei,sans-serif" font-size="13" fill="#333333">100%</text>
<line x1="64" y1="246" x2="610" y2="246" stroke="#E2E2E2" stroke-width="0.5"/>
<text x="84" y="272" font-family="Microsoft YaHei,sans-serif" font-size="13" fill="#333333">核心供应商保留率</text>
<text x="360" y="272" font-family="Microsoft YaHei,sans-serif" font-size="13" fill="#333333">≥ 95%</text>
<line x1="64" y1="286" x2="610" y2="286" stroke="#E2E2E2" stroke-width="0.5"/>
<text x="84" y="312" font-family="Microsoft YaHei,sans-serif" font-size="13" fill="#333333">新供应商 90 天留存率</text>
<text x="360" y="312" font-family="Microsoft YaHei,sans-serif" font-size="13" fill="#333333">≥ 85%</text>
<line x1="64" y1="326" x2="610" y2="326" stroke="#E2E2E2" stroke-width="0.5"/>
<text x="84" y="352" font-family="Microsoft YaHei,sans-serif" font-size="13" fill="#333333">协作卡点改善率</text>
<text x="360" y="352" font-family="Microsoft YaHei,sans-serif" font-size="13" fill="#333333">Top3 全部有行动项</text>
<line x1="64" y1="366" x2="610" y2="366" stroke="#E2E2E2" stroke-width="0.5"/>
<text x="84" y="392" font-family="Microsoft YaHei,sans-serif" font-size="13" fill="#333333">SOP 覆盖率</text>
<text x="360" y="392" font-family="Microsoft YaHei,sans-serif" font-size="13" fill="#333333">核心流程 100%</text>
<line x1="64" y1="406" x2="610" y2="406" stroke="#E2E2E2" stroke-width="0.5"/>
<text x="84" y="432" font-family="Microsoft YaHei,sans-serif" font-size="13" fill="#333333">供应商投诉/纠纷数</text>
<text x="360" y="432" font-family="Microsoft YaHei,sans-serif" font-size="13" fill="#333333">环比下降 30%</text>
<line x1="64" y1="446" x2="610" y2="446" stroke="#E2E2E2" stroke-width="0.5"/>
<text x="84" y="472" font-family="Microsoft YaHei,sans-serif" font-size="13" fill="#333333">数据仪表盘上线</text>
<text x="360" y="472" font-family="Microsoft YaHei,sans-serif" font-size="13" fill="#333333">1 套（月度自动更新）</text>
<rect x="64" y="510" width="546" height="1" fill="#E2E2E2"/>
<text x="64" y="542" font-family="Microsoft YaHei,sans-serif" font-size="13" font-weight="bold" fill="#1A1A1A">交付物清单</text>
<text x="64" y="566" font-family="Microsoft YaHei,sans-serif" font-size="12" fill="#333333">· 供应商分级盘点报告 + 三张清单</text>
<text x="64" y="586" font-family="Microsoft YaHei,sans-serif" font-size="12" fill="#333333">· 合作健康度诊断报告 + 90 天改善计划</text>
<text x="64" y="606" font-family="Microsoft YaHei,sans-serif" font-size="12" fill="#333333">· 5 项 SOP 文档（冷启动/考核/保留/备份/关系）</text>
<text x="64" y="626" font-family="Microsoft YaHei,sans-serif" font-size="12" fill="#333333">· 供应商数据仪表盘（基础版）</text>
<text x="64" y="646" font-family="Microsoft YaHei,sans-serif" font-size="12" fill="#333333">· Q2 复盘报告 + Q3 规划草案</text>
<rect x="646" y="100" width="594" height="580" rx="4" fill="#FFFFFF" stroke="#E2E2E2" stroke-width="0.5"/>
<rect x="646" y="100" width="4" height="580" fill="#4A9E6A"/>
<text x="670" y="132" font-family="Microsoft YaHei,sans-serif" font-size="14" font-weight="bold" fill="#4A9E6A">质化转变</text>
<rect x="670" y="156" width="550" height="100" rx="4" fill="#EDF3EE"/>
<text x="690" y="184" font-family="Microsoft YaHei,sans-serif" font-size="13" font-weight="bold" fill="#2E6B3E">管理方式转变</text>
<text x="690" y="208" font-family="Microsoft YaHei,sans-serif" font-size="12" fill="#333333">从 "出了问题才处理"</text>
<text x="690" y="228" font-family="Microsoft YaHei,sans-serif" font-size="12" fill="#333333">到 "提前预判，主动介入"</text>
<rect x="670" y="276" width="550" height="100" rx="4" fill="#EDF3EE"/>
<text x="690" y="304" font-family="Microsoft YaHei,sans-serif" font-size="13" font-weight="bold" fill="#2E6B3E">决策方式转变</text>
<text x="690" y="328" font-family="Microsoft YaHei,sans-serif" font-size="12" fill="#333333">从 "凭感觉、凭经验"</text>
<text x="690" y="348" font-family="Microsoft YaHei,sans-serif" font-size="12" fill="#333333">到 "有数据、有依据"</text>
<rect x="670" y="396" width="550" height="100" rx="4" fill="#EDF3EE"/>
<text x="690" y="424" font-family="Microsoft YaHei,sans-serif" font-size="13" font-weight="bold" fill="#2E6B3E">角色定位转变</text>
<text x="690" y="448" font-family="Microsoft YaHei,sans-serif" font-size="12" fill="#333333">从 "执行者、传话筒"</text>
<text x="690" y="468" font-family="Microsoft YaHei,sans-serif" font-size="12" fill="#333333">到 "BP、策略伙伴"</text>
<rect x="670" y="516" width="550" height="100" rx="4" fill="#EDF3EE"/>
<text x="690" y="544" font-family="Microsoft YaHei,sans-serif" font-size="13" font-weight="bold" fill="#2E6B3E">供应商关系转变</text>
<text x="690" y="568" font-family="Microsoft YaHei,sans-serif" font-size="12" fill="#333333">从 "甲乙方对立"</text>
<text x="690" y="588" font-family="Microsoft YaHei,sans-serif" font-size="12" fill="#333333">到 "利益绑定、共同产出"</text>
<rect x="670" y="636" width="550" height="34" rx="4" fill="#F5F5F5"/>
<text x="690" y="658" font-family="Microsoft YaHei,sans-serif" font-size="12" fill="#555555">四个转变是 Q2 的核心价值，不是一次性项目</text>
<line x1="40" y1="690" x2="1240" y2="690" stroke="#E2E2E2" stroke-width="0.5"/>
<text x="40" y="708" font-family="Microsoft YaHei,sans-serif" font-size="11" fill="#888888">来源：内部梳理 · 2026-05-04</text>
<text x="1240" y="708" text-anchor="end" font-family="Microsoft YaHei,sans-serif" font-size="11" fill="#888888">9 / 13</text>
</svg>
