<svg width="1280" height="720" viewBox="0 0 1280 720" xmlns="http://www.w3.org/2000/svg">
<rect width="1280" height="720" fill="#FFFFFF"/>
<rect x="0" y="0" width="1280" height="3" fill="#1677FF"/>
<text x="40" y="22" font-family="Microsoft YaHei,sans-serif" font-size="11" fill="#888888">阶段一 · 供应商分级盘点</text>
<text x="1240" y="22" text-anchor="end" font-family="Microsoft YaHei,sans-serif" font-size="11" font-weight="bold" fill="#1677FF">供应商管理BP</text>
<line x1="40" y1="30" x2="1240" y2="30" stroke="#E2E2E2" stroke-width="0.5"/>
<rect x="40" y="36" width="3" height="52" fill="#1677FF"/>
<text x="52" y="70" font-family="Songti SC,SimSun,serif" font-size="22" font-weight="bold" fill="#1A1A1A">30+ 供应商，一张图看清全局</text>
<line x1="40" y1="94" x2="1240" y2="94" stroke="#E2E2E2" stroke-width="0.5"/>
<rect x="40" y="100" width="590" height="580" rx="4" fill="#FFFFFF" stroke="#E2E2E2" stroke-width="0.5"/>
<rect x="40" y="100" width="4" height="580" fill="#1677FF"/>
<text x="64" y="132" font-family="Microsoft YaHei,sans-serif" font-size="14" font-weight="bold" fill="#1677FF">九宫格方法</text>
<text x="64" y="156" font-family="Microsoft YaHei,sans-serif" font-size="13" fill="#555555">三维评估：业绩 40% + 合规 30% + 潜力 30%</text>
<rect x="64" y="180" width="546" height="1" fill="#E2E2E2"/>
<text x="64" y="212" font-family="Microsoft YaHei,sans-serif" font-size="13" font-weight="bold" fill="#1A1A1A">横轴：综合业绩得分（业绩+合规）</text>
<text x="64" y="236" font-family="Microsoft YaHei,sans-serif" font-size="13" fill="#555555">低 ← ——————— → 高</text>
<rect x="64" y="260" width="546" height="1" fill="#E2E2E2"/>
<text x="64" y="292" font-family="Microsoft YaHei,sans-serif" font-size="13" font-weight="bold" fill="#1A1A1A">纵轴：潜力得分</text>
<text x="64" y="316" font-family="Microsoft YaHei,sans-serif" font-size="13" fill="#555555">低 ← ——————— → 高</text>
<rect x="64" y="360" width="546" height="1" fill="#E2E2E2"/>
<text x="64" y="396" font-family="Microsoft YaHei,sans-serif" font-size="13" font-weight="bold" fill="#1A1A1A">九宫格落位</text>
<rect x="64" y="416" width="172" height="60" rx="4" fill="#EDF3EE"/>
<text x="76" y="440" font-family="Microsoft YaHei,sans-serif" font-size="12" fill="#2E6B3E" font-weight="bold">高业绩 · 高潜力</text>
<text x="76" y="460" font-family="Microsoft YaHei,sans-serif" font-size="11" fill="#333333">明星 → 重点投入</text>
<rect x="246" y="416" width="172" height="60" rx="4" fill="#F7EFE0"/>
<text x="258" y="440" font-family="Microsoft YaHei,sans-serif" font-size="12" fill="#8A5A00" font-weight="bold">中业绩 · 中潜力</text>
<text x="258" y="460" font-family="Microsoft YaHei,sans-serif" font-size="11" fill="#333333">中坚 → 重点培养</text>
<rect x="428" y="416" width="172" height="60" rx="4" fill="#F5E6E6"/>
<text x="440" y="440" font-family="Microsoft YaHei,sans-serif" font-size="12" fill="#9C2B2B" font-weight="bold">低业绩 · 低潜力</text>
<text x="440" y="460" font-family="Microsoft YaHei,sans-serif" font-size="11" fill="#333333">淘汰 → 限期优化</text>
<rect x="64" y="500" width="546" height="1" fill="#E2E2E2"/>
<text x="64" y="532" font-family="Microsoft YaHei,sans-serif" font-size="13" font-weight="bold" fill="#1A1A1A">时间：3 周</text>
<text x="64" y="556" font-family="Microsoft YaHei,sans-serif" font-size="13" fill="#555555">第1周 数据收集 → 第2周 九宫格</text>
<text x="64" y="580" font-family="Microsoft YaHei,sans-serif" font-size="13" fill="#555555">→ 第3周 汇报确认</text>
<rect x="646" y="100" width="594" height="580" rx="4" fill="#FFFFFF" stroke="#E2E2E2" stroke-width="0.5"/>
<rect x="646" y="100" width="4" height="580" fill="#1677FF"/>
<text x="670" y="132" font-family="Microsoft YaHei,sans-serif" font-size="14" font-weight="bold" fill="#1677FF">三张清单</text>
<rect x="670" y="156" width="550" height="130" rx="4" fill="#EDF3EE"/>
<rect x="670" y="156" width="4" height="130" fill="#2E6B3E"/>
<text x="690" y="184" font-family="Microsoft YaHei,sans-serif" font-size="14" font-weight="bold" fill="#2E6B3E">保留清单（头部）</text>
<text x="690" y="208" font-family="Microsoft YaHei,sans-serif" font-size="13" fill="#333333">6-10 家 · 资源倾斜 · 优先分配 · 深度绑定</text>
<text x="690" y="232" font-family="Microsoft YaHei,sans-serif" font-size="13" fill="#333333">策略：重点投入，确保稳定产出</text>
<text x="690" y="260" font-family="Microsoft YaHei,sans-serif" font-size="13" fill="#333333">代表：毅航、毛毛虫、伽玛等头部</text>
<rect x="670" y="306" width="550" height="130" rx="4" fill="#F7EFE0"/>
<rect x="670" y="306" width="4" height="130" fill="#8A5A00"/>
<text x="690" y="334" font-family="Microsoft YaHei,sans-serif" font-size="14" font-weight="bold" fill="#8A5A00">培养清单（腰部）</text>
<text x="690" y="358" font-family="Microsoft YaHei,sans-serif" font-size="13" fill="#333333">12-15 家 · 针对性辅导 · 季度跟踪</text>
<text x="690" y="382" font-family="Microsoft YaHei,sans-serif" font-size="13" fill="#333333">策略：明确提升方向，推动向头部转化</text>
<text x="690" y="410" font-family="Microsoft YaHei,sans-serif" font-size="13" fill="#333333">目标：Q2 末至少 1 家进入头部</text>
<rect x="670" y="456" width="550" height="130" rx="4" fill="#F5E6E6"/>
<rect x="670" y="456" width="4" height="130" fill="#9C2B2B"/>
<text x="690" y="484" font-family="Microsoft YaHei,sans-serif" font-size="14" font-weight="bold" fill="#9C2B2B">优化清单（尾部）</text>
<text x="690" y="508" font-family="Microsoft YaHei,sans-serif" font-size="13" fill="#333333">5-8 家 · 限期整改 · 减少份额</text>
<text x="690" y="532" font-family="Microsoft YaHei,sans-serif" font-size="13" fill="#333333">策略：准备替代方案，必要时清退</text>
<text x="690" y="560" font-family="Microsoft YaHei,sans-serif" font-size="13" fill="#333333">注意：分级是动态的，季度调整</text>
<rect x="670" y="610" width="550" height="60" rx="4" fill="#F5F5F5"/>
<text x="690" y="636" font-family="Microsoft YaHei,sans-serif" font-size="13" fill="#555555">分级是内部管理工具，不对外公布具体排名</text>
<text x="690" y="656" font-family="Microsoft YaHei,sans-serif" font-size="13" fill="#555555">只告知供应商"提升方向"，不公布名次</text>
<line x1="40" y1="690" x2="1240" y2="690" stroke="#E2E2E2" stroke-width="0.5"/>
<text x="40" y="708" font-family="Microsoft YaHei,sans-serif" font-size="11" fill="#888888">来源：内部梳理 · 2026-05-04</text>
<text x="1240" y="708" text-anchor="end" font-family="Microsoft YaHei,sans-serif" font-size="11" fill="#888888">5 / 13</text>
</svg>
