<svg width="1280" height="720" viewBox="0 0 1280 720" xmlns="http://www.w3.org/2000/svg">
<rect width="1280" height="720" fill="#FFFFFF"/>
<rect x="0" y="0" width="1280" height="3" fill="#1677FF"/>
<text x="40" y="22" font-family="Microsoft YaHei,sans-serif" font-size="11" fill="#888888">风险与应对</text>
<text x="1240" y="22" text-anchor="end" font-family="Microsoft YaHei,sans-serif" font-size="11" font-weight="bold" fill="#1677FF">供应商管理BP</text>
<line x1="40" y1="30" x2="1240" y2="30" stroke="#E2E2E2" stroke-width="0.5"/>
<rect x="40" y="36" width="3" height="52" fill="#1677FF"/>
<text x="52" y="70" font-family="Songti SC,SimSun,serif" font-size="22" font-weight="bold" fill="#1A1A1A">风险矩阵：提前识别，不把问题留给意外</text>
<line x1="40" y1="94" x2="1240" y2="94" stroke="#E2E2E2" stroke-width="0.5"/>
<rect x="40" y="120" width="1200" height="36" fill="#1A1A1A"/>
<text x="56" y="143" font-family="Microsoft YaHei,sans-serif" font-size="11" font-weight="bold" fill="#FFFFFF">风险</text>
<text x="400" y="143" font-family="Microsoft YaHei,sans-serif" font-size="11" font-weight="bold" fill="#FFFFFF">影响</text>
<text x="640" y="143" font-family="Microsoft YaHei,sans-serif" font-size="11" font-weight="bold" fill="#FFFFFF">概率</text>
<text x="840" y="143" font-family="Microsoft YaHei,sans-serif" font-size="11" font-weight="bold" fill="#FFFFFF">应对策略</text>
<text x="1100" y="143" font-family="Microsoft YaHei,sans-serif" font-size="11" font-weight="bold" fill="#FFFFFF">触发信号</text>
<rect x="40" y="156" width="1200" height="50" fill="#FFFFFF"/>
<line x1="40" y1="206" x2="1240" y2="206" stroke="#E2E2E2" stroke-width="0.5"/>
<text x="56" y="184" font-family="Microsoft YaHei,sans-serif" font-size="13" font-weight="bold" fill="#9C2B2B">核心供应商突然退出</text>
<text x="400" y="184" font-family="Microsoft YaHei,sans-serif" font-size="13" fill="#333333">业务中断</text>
<rect x="640" y="170" width="50" height="22" rx="4" fill="#F5E6E6"/>
<text x="648" y="185" font-family="Microsoft YaHei,sans-serif" font-size="11" fill="#9C2B2B">低</text>
<text x="840" y="184" font-family="Microsoft YaHei,sans-serif" font-size="13" fill="#333333">备份供应商预案 + 产能冗余</text>
<text x="1100" y="184" font-family="Microsoft YaHei,sans-serif" font-size="13" fill="#333333">预警红色</text>
<rect x="40" y="206" width="1200" height="50" fill="#FAFAFA"/>
<line x1="40" y1="256" x2="1240" y2="256" stroke="#E2E2E2" stroke-width="0.5"/>
<text x="56" y="234" font-family="Microsoft YaHei,sans-serif" font-size="13" font-weight="bold" fill="#8A5A00">数据缺失导致无法评估</text>
<text x="400" y="234" font-family="Microsoft YaHei,sans-serif" font-size="13" fill="#333333">决策盲猜</text>
<rect x="640" y="220" width="50" height="22" rx="4" fill="#F7EFE0"/>
<text x="648" y="235" font-family="Microsoft YaHei,sans-serif" font-size="11" fill="#8A5A00">高</text>
<text x="840" y="234" font-family="Microsoft YaHei,sans-serif" font-size="13" fill="#333333">先手动收集，逐步自动化</text>
<text x="1100" y="234" font-family="Microsoft YaHei,sans-serif" font-size="13" fill="#333333">4月末数据缺失</text>
<rect x="40" y="256" width="1200" height="50" fill="#FFFFFF"/>
<line x1="40" y1="306" x2="1240" y2="306" stroke="#E2E2E2" stroke-width="0.5"/>
<text x="56" y="284" font-family="Microsoft YaHei,sans-serif" font-size="13" font-weight="bold" fill="#8A5A00">制度变更审批周期长</text>
<text x="400" y="284" font-family="Microsoft YaHei,sans-serif" font-size="13" fill="#333333">进度延迟</text>
<rect x="640" y="270" width="50" height="22" rx="4" fill="#F7EFE0"/>
<text x="648" y="285" font-family="Microsoft YaHei,sans-serif" font-size="11" fill="#8A5A00">高</text>
<text x="840" y="284" font-family="Microsoft YaHei,sans-serif" font-size="13" fill="#333333">提前沟通，先框架后细节</text>
<text x="1100" y="284" font-family="Microsoft YaHei,sans-serif" font-size="13" fill="#333333">超 2 周未批复</text>
<rect x="40" y="306" width="1200" height="50" fill="#FAFAFA"/>
<line x1="40" y1="356" x2="1240" y2="356" stroke="#E2E2E2" stroke-width="0.5"/>
<text x="56" y="334" font-family="Microsoft YaHei,sans-serif" font-size="13" font-weight="bold" fill="#F7EFE0">内部配合度不足</text>
<text x="400" y="334" font-family="Microsoft YaHei,sans-serif" font-size="13" fill="#333333">项目搁置</text>
<rect x="640" y="320" width="50" height="22" rx="4" fill="#F7EFE0"/>
<text x="648" y="335" font-family="Microsoft YaHei,sans-serif" font-size="11" fill="#8A5A00">中</text>
<text x="840" y="334" font-family="Microsoft YaHei,sans-serif" font-size="13" fill="#333333">明确责任人 + 向上对齐</text>
<text x="1100" y="334" font-family="Microsoft YaHei,sans-serif" font-size="13" fill="#333333">连续 2 次未响应</text>
<rect x="40" y="356" width="1200" height="50" fill="#FFFFFF"/>
<line x1="40" y1="406" x2="1240" y2="406" stroke="#E2E2E2" stroke-width="0.5"/>
<text x="56" y="384" font-family="Microsoft YaHei,sans-serif" font-size="13" font-weight="bold" fill="#8A5A00">供应商抵触分级</text>
<text x="400" y="384" font-family="Microsoft YaHei,sans-serif" font-size="13" fill="#333333">关系紧张</text>
<rect x="640" y="370" width="50" height="22" rx="4" fill="#F7EFE0"/>
<text x="648" y="385" font-family="Microsoft YaHei,sans-serif" font-size="11" fill="#8A5A00">中</text>
<text x="840" y="384" font-family="Microsoft YaHei,sans-serif" font-size="13" fill="#333333">分级不对外公布，只沟通提升方向</text>
<text x="1100" y="384" font-family="Microsoft YaHei,sans-serif" font-size="13" fill="#333333">供应商主动询问排名</text>
<rect x="40" y="406" width="1200" height="50" fill="#FAFAFA"/>
<line x1="40" y1="456" x2="1240" y2="456" stroke="#E2E2E2" stroke-width="0.5"/>
<text x="56" y="434" font-family="Microsoft YaHei,sans-serif" font-size="13" font-weight="bold" fill="#F7EFE0">业务目标突变</text>
<text x="400" y="434" font-family="Microsoft YaHei,sans-serif" font-size="13" fill="#333333">计划作废</text>
<rect x="640" y="420" width="50" height="22" rx="4" fill="#F7EFE0"/>
<text x="648" y="435" font-family="Microsoft YaHei,sans-serif" font-size="11" fill="#8A5A00">中</text>
<text x="840" y="434" font-family="Microsoft YaHei,sans-serif" font-size="13" fill="#333333">模块化设计，可快速调整</text>
<text x="1100" y="434" font-family="Microsoft YaHei,sans-serif" font-size="13" fill="#333333">业务线战略调整</text>
<rect x="40" y="476" width="1200" height="160" rx="4" fill="#F5F5F5"/>
<text x="64" y="508" font-family="Microsoft YaHei,sans-serif" font-size="13" font-weight="bold" fill="#1A1A1A">风险管理原则</text>
<rect x="64" y="524" width="4" height="90" fill="#1677FF"/>
<text x="84" y="544" font-family="Microsoft YaHei,sans-serif" font-size="13" fill="#333333">1. 风险前置：不等问题发生，提前识别信号</text>
<text x="84" y="564" font-family="Microsoft YaHei,sans-serif" font-size="13" fill="#333333">2. 分级响应：不同风险等级对应不同响应速度，红色 24h、黄色 72h、绿色周报跟踪</text>
<text x="84" y="584" font-family="Microsoft YaHei,sans-serif" font-size="13" fill="#333333">3. 预案先行：每个高风险项都有 B 计划，不临时抱佛脚</text>
<text x="84" y="604" font-family="Microsoft YaHei,sans-serif" font-size="13" fill="#333333">4. 月度回顾：每月复盘风险矩阵，更新概率和影响评估</text>
<line x1="40" y1="690" x2="1240" y2="690" stroke="#E2E2E2" stroke-width="0.5"/>
<text x="40" y="708" font-family="Microsoft YaHei,sans-serif" font-size="11" fill="#888888">来源：内部梳理 · 2026-05-04</text>
<text x="1240" y="708" text-anchor="end" font-family="Microsoft YaHei,sans-serif" font-size="11" fill="#888888">11 / 13</text>
</svg>
