<?xml version="1.0" encoding="UTF-8"?>
<svg xmlns="http://www.w3.org/2000/svg" viewBox="0 0 1280 720">
    <defs>
        <linearGradient id="headerGrad" x1="0%" y1="0%" x2="100%" y2="0%">
            <stop offset="0%" stop-color="#C41E3A"/>
            <stop offset="100%" stop-color="#E2725B"/>
        </linearGradient>
        <linearGradient id="decoGrad" x1="0%" y1="0%" x2="100%" y2="100%">
            <stop offset="0%" stop-color="#C41E3A" stop-opacity="0.10"/>
            <stop offset="100%" stop-color="#E2725B" stop-opacity="0.03"/>
        </linearGradient>
        <linearGradient id="titleGrad" x1="0%" y1="0%" x2="100%" y2="0%">
            <stop offset="0%" stop-color="#C41E3A"/>
            <stop offset="100%" stop-color="#E2725B"/>
        </linearGradient>
    </defs>

    <rect width="1280" height="720" fill="#F8F5F2"/>

    <rect x="0" y="0" width="12" height="720" fill="url(#headerGrad)"/>
    <rect x="12" y="0" width="3" height="720" fill="#E2725B"/>

    <rect x="60" y="55" width="180" height="5" fill="#C41E3A"/>
    <rect x="60" y="65" width="100" height="3" fill="#C41E3A" fill-opacity="0.5"/>

    <rect x="780" y="0" width="500" height="720" fill="url(#decoGrad)"/>

    <rect x="850" y="120" width="360" height="360" fill="none" stroke="#C41E3A" stroke-width="1" stroke-opacity="0.12"/>
    <rect x="900" y="170" width="260" height="260" fill="none" stroke="#C41E3A" stroke-width="1" stroke-opacity="0.08"/>
    <rect x="950" y="220" width="160" height="160" fill="#C41E3A" fill-opacity="0.03"/>

    <path d="M 1050,140 L 1220,140 L 1135,320 Z" fill="#C41E3A" fill-opacity="0.05"/>
    <path d="M 880,400 L 1000,400 L 940,520 Z" fill="#E2725B" fill-opacity="0.04"/>

    <text x="60" y="240" font-family="Microsoft YaHei, Arial, sans-serif" font-size="52" font-weight="bold" fill="#2D2D2D" letter-spacing="-1">
        刘乾坤人物深度分析
    </text>

    <rect x="60" y="270" width="300" height="4" fill="url(#headerGrad)"/>

    <text x="60" y="330" font-family="Microsoft YaHei, Arial, sans-serif" font-size="24" fill="#6B7280" letter-spacing="0.5">
        权力框架 · 行为模式 · 应对策略 · 可学习内容
    </text>

    <line x1="60" y1="380" x2="500" y2="380" stroke="#E5E5E5" stroke-width="2"/>
    <line x1="60" y1="386" x2="200" y2="386" stroke="#C41E3A" stroke-width="2"/>

    <rect x="60" y="430" width="400" height="100" fill="#FFFFFF" rx="0"/>
    <rect x="60" y="430" width="4" height="100" fill="#C41E3A"/>

    <text x="84" y="465" font-family="Microsoft YaHei, Arial, sans-serif" font-size="14" fill="#6B7280">建档人</text>
    <text x="84" y="490" font-family="Microsoft YaHei, Arial, sans-serif" font-size="18" font-weight="bold" fill="#2D2D2D">年老师</text>

    <line x1="260" y1="445" x2="260" y2="515" stroke="#E5E5E5" stroke-width="1"/>

    <text x="284" y="465" font-family="Microsoft YaHei, Arial, sans-serif" font-size="14" fill="#6B7280">版本</text>
    <text x="284" y="490" font-family="Microsoft YaHei, Arial, sans-serif" font-size="18" font-weight="bold" fill="#2D2D2D">v10.2 · 2026-03-19</text>

    <line x1="60" y1="680" x2="1220" y2="680" stroke="#E5E5E5" stroke-width="1"/>

    <rect x="1080" y="655" width="140" height="28" fill="#C41E3A" fill-opacity="0.08" rx="4"/>
    <text x="1150" y="675" text-anchor="middle" font-family="Microsoft YaHei, Arial, sans-serif" font-size="12" font-weight="bold" fill="#C41E3A" letter-spacing="1">
        CONFIDENTIAL
    </text>

    <text x="60" y="700" font-family="Microsoft YaHei, Arial, sans-serif" font-size="14" fill="#9CA3AF">01</text>

</svg>
