<svg xmlns="http://www.w3.org/2000/svg" viewBox="0 0 680 560" font-family="system-ui, sans-serif">
  <defs>
    <marker id="arrow" viewBox="0 0 10 10" refX="5" refY="5" markerWidth="6" markerHeight="6" orient="auto">
      <path d="M0,2 L10,5 L0,8Z" fill="#c98a6a"/>
    </marker>
  </defs>

  <rect width="680" height="560" fill="#faf9f7"/>
  <text x="40" y="28" font-family="Georgia, serif" font-size="18" font-weight="bold" fill="#1a1a1a">指标映射表</text>
  <text x="40" y="46" font-size="11" fill="#6b6b66">业务指标 → 技术字段 — 业务到技术对照</text>

  <!-- Table Container -->
  <rect x="30" y="58" width="620" height="490" rx="10" stroke="#1a1a1a" stroke-width="1.5" fill="none"/>

  <!-- Header Row -->
  <rect x="32" y="60" width="616" height="36" rx="6" fill="#f5f4f1"/>
  <text x="92" y="83" font-size="10.5" font-weight="bold" fill="#1a1a1a" text-anchor="middle">业务指标</text>
  <text x="212" y="83" font-size="10.5" font-weight="bold" fill="#1a1a1a" text-anchor="middle">数据字段</text>
  <text x="392" y="83" font-size="10.5" font-weight="bold" fill="#1a1a1a" text-anchor="middle">来源系统</text>
  <text x="472" y="83" font-size="10.5" font-weight="bold" fill="#1a1a1a" text-anchor="middle">计算规则</text>
  <text x="590" y="83" font-size="10.5" font-weight="bold" fill="#1a1a1a" text-anchor="middle">更新频率</text>

  <!-- Row 1 -->
  <rect x="32" y="100" width="616" height="52" fill="#faf9f7"/>
  <text x="92" y="122" font-size="10.5" fill="#1a1a1a" text-anchor="middle" font-weight="600">业绩达成率</text>
  <text x="212" y="122" font-size="10.5" fill="#1a1a1a" text-anchor="middle" font-family="monospace">monthly_achievement</text>
  <text x="392" y="122" font-size="10.5" fill="#1a1a1a" text-anchor="middle">CRM系统</text>
  <text x="472" y="122" font-size="10.5" fill="#1a1a1a" text-anchor="middle">实际/目标×100%</text>
  <rect x="552" y="112" width="76" height="20" rx="10" fill="#f0e0d4"/>
  <text x="590" y="126" font-size="9.5" fill="#c98a6a" text-anchor="middle" font-weight="600">每月</text>

  <!-- Row 2 -->
  <rect x="32" y="154" width="616" height="52" fill="#f0efeb"/>
  <text x="92" y="176" font-size="10.5" fill="#1a1a1a" text-anchor="middle" font-weight="600">峰值比</text>
  <text x="212" y="176" font-size="10.5" fill="#1a1a1a" text-anchor="middle" font-family="monospace">peak_ratio</text>
  <text x="392" y="176" font-size="10.5" fill="#1a1a1a" text-anchor="middle">产能表</text>
  <text x="472" y="176" font-size="10.5" fill="#1a1a1a" text-anchor="middle">当前/历史峰值</text>
  <rect x="552" y="166" width="76" height="20" rx="10" fill="#f0e0d4"/>
  <text x="590" y="180" font-size="9.5" fill="#c98a6a" text-anchor="middle" font-weight="600">每月</text>

  <!-- Row 3 -->
  <rect x="32" y="208" width="616" height="52" fill="#faf9f7"/>
  <text x="92" y="230" font-size="10.5" fill="#1a1a1a" text-anchor="middle" font-weight="600">相对人效</text>
  <text x="212" y="230" font-size="10.5" fill="#1a1a1a" text-anchor="middle" font-family="monospace">relative_efficiency</text>
  <text x="392" y="230" font-size="10.5" fill="#1a1a1a" text-anchor="middle">产能表+人力</text>
  <text x="472" y="230" font-size="10.5" fill="#1a1a1a" text-anchor="middle">个体人效/头部人效</text>
  <rect x="552" y="220" width="76" height="20" rx="10" fill="#f0e0d4"/>
  <text x="590" y="234" font-size="9.5" fill="#c98a6a" text-anchor="middle" font-weight="600">每月</text>

  <!-- Row 4 -->
  <rect x="32" y="262" width="616" height="52" fill="#f0efeb"/>
  <text x="92" y="284" font-size="10.5" fill="#1a1a1a" text-anchor="middle" font-weight="600">FCI</text>
  <text x="212" y="284" font-size="10.5" fill="#1a1a1a" text-anchor="middle" font-family="monospace">fci_score</text>
  <text x="392" y="284" font-size="10.5" fill="#1a1a1a" text-anchor="middle">财务表</text>
  <text x="472" y="284" font-size="10.5" fill="#1a1a1a" text-anchor="middle">加权综合</text>
  <rect x="552" y="274" width="76" height="20" rx="10" fill="#f0e0d4"/>
  <text x="590" y="288" font-size="9.5" fill="#c98a6a" text-anchor="middle" font-weight="600">每月</text>

  <!-- Row 5 -->
  <rect x="32" y="316" width="616" height="52" fill="#faf9f7"/>
  <text x="92" y="338" font-size="10.5" fill="#1a1a1a" text-anchor="middle" font-weight="600">排名</text>
  <text x="212" y="338" font-size="10.5" fill="#1a1a1a" text-anchor="middle" font-family="monospace">supplier_rank</text>
  <text x="392" y="338" font-size="10.5" fill="#1a1a1a" text-anchor="middle">计算引擎</text>
  <text x="472" y="338" font-size="10.5" fill="#1a1a1a" text-anchor="middle">多指标加权</text>
  <rect x="552" y="328" width="76" height="20" rx="10" fill="#f0e0d4"/>
  <text x="590" y="342" font-size="9.5" fill="#c98a6a" text-anchor="middle" font-weight="600">每月</text>

  <!-- Row 6 -->
  <rect x="32" y="370" width="616" height="52" fill="#f0efeb"/>
  <text x="92" y="392" font-size="10.5" fill="#1a1a1a" text-anchor="middle" font-weight="600">流失率</text>
  <text x="212" y="392" font-size="10.5" fill="#1a1a1a" text-anchor="middle" font-family="monospace">turnover_rate</text>
  <text x="392" y="392" font-size="10.5" fill="#1a1a1a" text-anchor="middle">人力表</text>
  <text x="472" y="392" font-size="10.5" fill="#1a1a1a" text-anchor="middle">离职/总人数</text>
  <rect x="552" y="382" width="76" height="20" rx="10" fill="#f0e0d4"/>
  <text x="590" y="396" font-size="9.5" fill="#c98a6a" text-anchor="middle" font-weight="600">每月</text>

  <!-- Row 7 -->
  <rect x="32" y="424" width="616" height="52" fill="#faf9f7"/>
  <text x="92" y="446" font-size="10.5" fill="#1a1a1a" text-anchor="middle" font-weight="600">合规率</text>
  <text x="212" y="446" font-size="10.5" fill="#1a1a1a" text-anchor="middle" font-family="monospace">compliance_rate</text>
  <text x="392" y="446" font-size="10.5" fill="#1a1a1a" text-anchor="middle">质检系统</text>
  <text x="472" y="446" font-size="10.5" fill="#1a1a1a" text-anchor="middle">合规单/总单</text>
  <rect x="552" y="436" width="76" height="20" rx="10" fill="#e4e8dc"/>
  <text x="590" y="450" font-size="9.5" fill="#6b7f52" text-anchor="middle" font-weight="600">每周</text>

  <!-- Row 8 -->
  <rect x="32" y="478" width="616" height="52" fill="#f0efeb"/>
  <text x="92" y="500" font-size="10.5" fill="#1a1a1a" text-anchor="middle" font-weight="600">增长率</text>
  <text x="212" y="500" font-size="10.5" fill="#1a1a1a" text-anchor="middle" font-family="monospace">growth_rate</text>
  <text x="392" y="500" font-size="10.5" fill="#1a1a1a" text-anchor="middle">CRM系统</text>
  <text x="472" y="500" font-size="10.5" fill="#1a1a1a" text-anchor="middle">(本月-上月)/上月</text>
  <rect x="552" y="490" width="76" height="20" rx="10" fill="#f0e0d4"/>
  <text x="590" y="504" font-size="9.5" fill="#c98a6a" text-anchor="middle" font-weight="600">每月</text>

  <!-- Column dividers -->
  <line x1="152" y1="60" x2="152" y2="530" stroke="#d4d1c7" stroke-width="0.5"/>
  <line x1="272" y1="60" x2="272" y2="530" stroke="#d4d1c7" stroke-width="0.5"/>
  <line x1="432" y1="60" x2="432" y2="530" stroke="#d4d1c7" stroke-width="0.5"/>
  <line x1="550" y1="60" x2="550" y2="530" stroke="#d4d1c7" stroke-width="0.5"/>
</svg>
