<svg xmlns="http://www.w3.org/2000/svg" viewBox="0 0 960 540" width="960" height="540">
  <rect fill="#f5f0e8" width="960" height="540"/>

  <!-- Action Title -->
  <rect fill="#a0845c" x="48" y="36" width="3" height="24"/>
  <text fill="#2c2c2c" x="64" y="54" font-size="18" font-weight="bold" font-family="Songti SC, Source Han Serif SC, SimSun, serif">
    第二个月：开始建体系
  </text>
  <text fill="#8a7e6e" x="64" y="78" font-size="11" font-family="Source Han Sans SC, PingFang SC, sans-serif">
    建构期 · 第 31-60 天
  </text>
  <line stroke="#b8b0a4" stroke-width="1" x1="48" y1="96" x2="912" y2="96"/>

  <!-- Left column: Memory System -->
  <rect fill="#ede7db" x="48" y="116" width="424" height="380" rx="2"/>
  <circle fill="#a0845c" cx="72" cy="148" r="10"/>
  <text fill="#f5f0e8" x="72" y="153" text-anchor="middle" font-size="12" font-weight="bold" font-family="sans-serif">M</text>
  <text fill="#2c2c2c" x="96" y="144" font-size="16" font-weight="bold" font-family="Songti SC, Source Han Serif SC, SimSun, serif">
    记忆系统搭建
  </text>
  <text fill="#8a7e6e" x="96" y="164" font-size="11" font-family="Source Han Sans SC, PingFang SC, sans-serif">
    MEMORY.md + WAL 协议
  </text>
  <line stroke="#b8b0a4" stroke-width="1" x1="64" y1="180" x2="456" y2="180"/>

  <circle fill="#a0845c" cx="76" cy="204" r="3"/>
  <text fill="#2c2c2c" x="92" y="208" font-size="13" font-family="Source Han Sans SC, PingFang SC, sans-serif">
    核心记忆：用户画像、组织结构、工作规范
  </text>
  <circle fill="#a0845c" cx="76" cy="240" r="3"/>
  <text fill="#2c2c2c" x="92" y="244" font-size="13" font-family="Source Han Sans SC, PingFang SC, sans-serif">
    WAL 协议：关键信息先写后答
  </text>
  <circle fill="#a0845c" cx="76" cy="276" r="3"/>
  <text fill="#2c2c2c" x="92" y="280" font-size="13" font-family="Source Han Sans SC, PingFang SC, sans-serif">
    记忆索引：L1 快速加载 + L2 按需检索
  </text>
  <circle fill="#a0845c" cx="76" cy="312" r="3"/>
  <text fill="#2c2c2c" x="92" y="316" font-size="13" font-family="Source Han Sans SC, PingFang SC, sans-serif">
    目录约定：workspace → docs → archive 流转
  </text>
  <circle fill="#a0845c" cx="76" cy="348" r="3"/>
  <text fill="#2c2c2c" x="92" y="352" font-size="13" font-family="Source Han Sans SC, PingFang SC, sans-serif">
    夜间 Cron 自动维护，不依赖人工
  </text>
  <circle fill="#a0845c" cx="76" cy="384" r="3"/>
  <text fill="#2c2c2c" x="92" y="388" font-size="13" font-family="Source Han Sans SC, PingFang SC, sans-serif">
    跨会话连续性：压缩不丢失关键上下文
  </text>
  <circle fill="#a0845c" cx="76" cy="420" r="3"/>
  <text fill="#2c2c2c" x="92" y="424" font-size="13" font-family="Source Han Sans SC, PingFang SC, sans-serif">
    ~90 条核心记忆已入库
  </text>

  <!-- Right column: Skill Ecosystem -->
  <rect fill="#ede7db" x="488" y="116" width="424" height="380" rx="2"/>
  <circle fill="#7a8b6f" cx="512" cy="148" r="10"/>
  <text fill="#f5f0e8" x="512" y="153" text-anchor="middle" font-size="12" font-weight="bold" font-family="sans-serif">S</text>
  <text fill="#2c2c2c" x="536" y="144" font-size="16" font-weight="bold" font-family="Songti SC, Source Han Serif SC, SimSun, serif">
    技能生态建设
  </text>
  <text fill="#8a7e6e" x="536" y="164" font-size="11" font-family="Source Han Sans SC, PingFang SC, sans-serif">
    60+ 个自定义技能
  </text>
  <line stroke="#b8b0a4" stroke-width="1" x1="504" y1="180" x2="896" y2="180"/>

  <circle fill="#7a8b6f" cx="516" cy="204" r="3"/>
  <text fill="#2c2c2c" x="532" y="208" font-size="13" font-family="Source Han Sans SC, PingFang SC, sans-serif">
    供应商管理：巡检、评估、KPI、分层体系
  </text>
  <circle fill="#7a8b6f" cx="516" cy="240" r="3"/>
  <text fill="#2c2c2c" x="532" y="244" font-size="13" font-family="Source Han Sans SC, PingFang SC, sans-serif">
    可视化：ECharts、Widget、SVG 流程图
  </text>
  <circle fill="#7a8b6f" cx="516" cy="276" r="3"/>
  <text fill="#2c2c2c" x="532" y="280" font-size="13" font-family="Source Han Sans SC, PingFang SC, sans-serif">
    内容生产：PPT、DOCX、XLSX、PDF
  </text>
  <circle fill="#7a8b6f" cx="516" cy="312" r="3"/>
  <text fill="#2c2c2c" x="532" y="316" font-size="13" font-family="Source Han Sans SC, PingFang SC, sans-serif">
    知识工作流：Brainstorm → Plan → Review
  </text>
  <circle fill="#7a8b6f" cx="516" cy="348" r="3"/>
  <text fill="#2c2c2c" x="532" y="352" font-size="13" font-family="Source Han Sans SC, PingFang SC, sans-serif">
    每日书信：十年记忆切片自动推送
  </text>
  <circle fill="#7a8b6f" cx="516" cy="384" r="3"/>
  <text fill="#2c2c2c" x="532" y="388" font-size="13" font-family="Source Han Sans SC, PingFang SC, sans-serif">
    浏览器自动化、数据抓取、研究代理
  </text>
  <circle fill="#7a8b6f" cx="516" cy="420" r="3"/>
  <text fill="#2c2c2c" x="532" y="424" font-size="13" font-family="Source Han Sans SC, PingFang SC, sans-serif">
    技能清理：从 24 个冗余精简到高效集
  </text>
</svg>
