<svg xmlns="http://www.w3.org/2000/svg" viewBox="0 0 960 540" width="960" height="540">
  <rect fill="#f5f0e8" width="960" height="540"/>

  <!-- Action Title -->
  <rect fill="#a0845c" x="48" y="36" width="3" height="24"/>
  <text fill="#2c2c2c" x="64" y="54" font-size="18" font-weight="bold" font-family="Songti SC, Source Han Serif SC, SimSun, serif">
    第三个月：产出开始爆发
  </text>
  <text fill="#8a7e6e" x="64" y="78" font-size="11" font-family="Source Han Sans SC, PingFang SC, sans-serif">
    爆发期 · 第 61-100 天
  </text>
  <line stroke="#b8b0a4" stroke-width="1" x1="48" y1="96" x2="912" y2="96"/>

  <!-- 4 big number cards -->
  <rect fill="#ede7db" x="48" y="120" width="200" height="120" rx="2"/>
  <text fill="#a0845c" x="148" y="170" text-anchor="middle" font-size="48" font-weight="bold" font-family="Songti SC, Source Han Serif SC, SimSun, serif">60+</text>
  <text fill="#8a7e6e" x="148" y="200" text-anchor="middle" font-size="13" font-family="Source Han Sans SC, PingFang SC, sans-serif">自定义技能</text>

  <rect fill="#ede7db" x="264" y="120" width="200" height="120" rx="2"/>
  <text fill="#7a8b6f" x="364" y="170" text-anchor="middle" font-size="48" font-weight="bold" font-family="Songti SC, Source Han Serif SC, SimSun, serif">170+</text>
  <text fill="#8a7e6e" x="364" y="200" text-anchor="middle" font-size="13" font-family="Source Han Sans SC, PingFang SC, sans-serif">去重文件数</text>

  <rect fill="#ede7db" x="480" y="120" width="200" height="120" rx="2"/>
  <text fill="#a0845c" x="580" y="170" text-anchor="middle" font-size="48" font-weight="bold" font-family="Songti SC, Source Han Serif SC, SimSun, serif">30</text>
  <text fill="#8a7e6e" x="580" y="200" text-anchor="middle" font-size="13" font-family="Source Han Sans SC, PingFang SC, sans-serif">核心单元体系</text>

  <rect fill="#ede7db" x="696" y="120" width="216" height="120" rx="2"/>
  <text fill="#7a8b6f" x="804" y="170" text-anchor="middle" font-size="48" font-weight="bold" font-family="Songti SC, Source Han Serif SC, SimSun, serif">100</text>
  <text fill="#8a7e6e" x="804" y="200" text-anchor="middle" font-size="13" font-family="Source Han Sans SC, PingFang SC, sans-serif">天 AI 共生实验</text>

  <line stroke="#b8b0a4" stroke-width="1" x1="48" y1="264" x2="912" y2="264"/>

  <text fill="#2c2c2c" x="48" y="296" font-size="16" font-weight="bold" font-family="Songti SC, Source Han Serif SC, SimSun, serif">
    可视化方法论
  </text>

  <!-- Output items -->
  <rect fill="#ede7db" x="48" y="316" width="864" height="40" rx="2"/>
  <rect fill="#a0845c" x="60" y="328" width="3" height="16"/>
  <text fill="#2c2c2c" x="76" y="341" font-size="13" font-family="Source Han Sans SC, PingFang SC, sans-serif">
    供应商可视化 30 核心单元交付
  </text>

  <rect fill="#ede7db" x="48" y="368" width="864" height="40" rx="2"/>
  <rect fill="#a0845c" x="60" y="380" width="3" height="16"/>
  <text fill="#2c2c2c" x="76" y="393" font-size="13" font-family="Source Han Sans SC, PingFang SC, sans-serif">
    电影版叙事体系建立 — 6 套视觉风格方案
  </text>

  <rect fill="#ede7db" x="48" y="420" width="864" height="40" rx="2"/>
  <rect fill="#a0845c" x="60" y="432" width="3" height="16"/>
  <text fill="#2c2c2c" x="76" y="445" font-size="13" font-family="Source Han Sans SC, PingFang SC, sans-serif">
    知识库大清理 — workspace 65→11，docs 去重 170+
  </text>

  <rect fill="#ede7db" x="48" y="472" width="864" height="40" rx="2"/>
  <rect fill="#a0845c" x="60" y="484" width="3" height="16"/>
  <text fill="#2c2c2c" x="76" y="497" font-size="13" font-family="Source Han Sans SC, PingFang SC, sans-serif">
    每日书信上线 — 十年记忆切片自动推送
  </text>
</svg>
