<svg xmlns="http://www.w3.org/2000/svg" viewBox="0 0 1280 720">
    <defs>
        <linearGradient id="headerGrad" x1="0%" y1="0%" x2="100%" y2="0%">
            <stop offset="0%" style="stop-color:#005587" />
            <stop offset="100%" style="stop-color:#0076A8" />
        </linearGradient>
        <linearGradient id="decoGrad" x1="0%" y1="0%" x2="100%" y2="100%">
            <stop offset="0%" style="stop-color:#005587;stop-opacity:0.12" />
            <stop offset="100%" style="stop-color:#0076A8;stop-opacity:0.04" />
        </linearGradient>
    </defs>

    <rect width="1280" height="720" fill="#FFFFFF" />
    <rect x="0" y="0" width="12" height="720" fill="url(#headerGrad)" />
    <rect x="12" y="0" width="3" height="720" fill="#F5A623" />
    <rect x="60" y="55" width="180" height="5" fill="#005587" />
    <rect x="60" y="65" width="100" height="3" fill="#0076A8" fill-opacity="0.5" />
    <rect x="780" y="0" width="500" height="720" fill="url(#decoGrad)" />
    <rect x="850" y="120" width="360" height="360" fill="none" stroke="#005587" stroke-width="1" stroke-opacity="0.15" />
    <rect x="900" y="170" width="260" height="260" fill="none" stroke="#005587" stroke-width="1" stroke-opacity="0.1" />
    <rect x="950" y="220" width="160" height="160" fill="#005587" fill-opacity="0.03" />
    <path d="M 1050,140 L 1220,140 L 1135,320 Z" fill="#005587" fill-opacity="0.06" />
    <path d="M 880,400 L 1000,400 L 940,520 Z" fill="#0076A8" fill-opacity="0.05" />

    <text x="60" y="260" font-family="Arial, sans-serif" font-size="56" font-weight="bold" fill="#2C3E50" letter-spacing="-1">
        BPO 供应商联盟
    </text>
    <text x="60" y="330" font-family="Arial, sans-serif" font-size="56" font-weight="bold" fill="#2C3E50" letter-spacing="-1">
        认证总结会
    </text>

    <text x="60" y="400" font-family="Arial, sans-serif" font-size="26" fill="#5D6D7E" letter-spacing="0.5">
        标准化运营方法论与落地实践
    </text>

    <line x1="60" y1="450" x2="500" y2="450" stroke="#ECF0F1" stroke-width="2" />
    <line x1="60" y1="456" x2="200" y2="456" stroke="#005587" stroke-width="2" />

    <path fill="#F8F9FA" d="M64,520 H456 A4,4 0 0 1 460,524 V616 A4,4 0 0 1 456,620 H64 A4,4 0 0 1 60,616 V524 A4,4 0 0 1 64,520 Z" />
    <path fill="#005587" d="M62,520 H62 A2,2 0 0 1 64,522 V618 A2,2 0 0 1 62,620 H62 A2,2 0 0 1 60,618 V522 A2,2 0 0 1 62,520 Z" />

    <text x="84" y="555" font-family="Arial, sans-serif" font-size="14" fill="#7F8C8D">PROJECT</text>
    <text x="84" y="580" font-family="Arial, sans-serif" font-size="18" font-weight="bold" fill="#2C3E50">BPO Alliance</text>

    <line x1="260" y1="535" x2="260" y2="605" stroke="#ECF0F1" stroke-width="1" />

    <text x="284" y="555" font-family="Arial, sans-serif" font-size="14" fill="#7F8C8D">DATE</text>
    <text x="284" y="580" font-family="Arial, sans-serif" font-size="18" font-weight="bold" fill="#2C3E50">2026.04</text>

    <line x1="60" y1="680" x2="1220" y2="680" stroke="#ECF0F1" stroke-width="1" />

    <path fill="#005587" fill-opacity="0.08" d="M1084,655 H1216 A4,4 0 0 1 1220,659 V679 A4,4 0 0 1 1216,683 H1084 A4,4 0 0 1 1080,679 V659 A4,4 0 0 1 1084,655 Z" />
    <text x="1150" y="675" text-anchor="middle" font-family="Arial, sans-serif" font-size="12" font-weight="bold" fill="#005587" letter-spacing="1">
        CONFIDENTIAL
    </text>

    <text x="60" y="700" font-family="Arial, sans-serif" font-size="14" fill="#7F8C8D">01</text>
</svg>