<svg xmlns="http://www.w3.org/2000/svg" viewBox="0 0 1280 720">
    <defs>
        <linearGradient id="headerGrad" x1="0%" y1="0%" x2="100%" y2="0%">
            <stop offset="0%" style="stop-color:#005587" />
            <stop offset="100%" style="stop-color:#0076A8" />
        </linearGradient>
    </defs>

    <rect width="1280" height="720" fill="#FFFFFF" />
    <rect x="0" y="0" width="1280" height="6" fill="url(#headerGrad)" />

    <text x="60" y="75" font-family="Arial, sans-serif" font-size="14" font-weight="bold" fill="#005587" letter-spacing="3">CONTENTS</text>
    <text x="60" y="115" font-family="Arial, sans-serif" font-size="40" font-weight="bold" fill="#2C3E50">Agenda</text>
    <line x1="60" y1="135" x2="160" y2="135" stroke="#005587" stroke-width="4" />
    <line x1="165" y1="135" x2="220" y2="135" stroke="#F5A623" stroke-width="4" />

    
    <path fill="#FFFFFF" stroke="#E5E7EB" stroke-width="1.5" d="M66,170 H614 A6,6 0 0 1 620,176 V274 A6,6 0 0 1 614,280 H66 A6,6 0 0 1 60,274 V176 A6,6 0 0 1 66,170 Z" />
    <path fill="#005587" d="M63,170 H63 A3,3 0 0 1 66,173 V277 A3,3 0 0 1 63,280 H63 A3,3 0 0 1 60,277 V173 A3,3 0 0 1 63,170 Z" />
    <path fill="#005587" fill-opacity="0.08" d="M84,190 H136 A4,4 0 0 1 140,194 V246 A4,4 0 0 1 136,250 H84 A4,4 0 0 1 80,246 V194 A4,4 0 0 1 84,190 Z" />
    <text x="110" y="232" text-anchor="middle" font-family="Arial, sans-serif" font-size="28" font-weight="bold" fill="#005587">01</text>
    <text x="165" y="218" font-family="Arial, sans-serif" font-size="20" font-weight="bold" fill="#2C3E50">核心方法论</text>
    <text x="165" y="248" font-family="Arial, sans-serif" font-size="14" fill="#5D6D7E">电销管理六大核心模块体系</text>

    
    <path fill="#FFFFFF" stroke="#E5E7EB" stroke-width="1.5" d="M666,170 H1214 A6,6 0 0 1 1220,176 V274 A6,6 0 0 1 1214,280 H666 A6,6 0 0 1 660,274 V176 A6,6 0 0 1 666,170 Z" />
    <path fill="#0076A8" d="M663,170 H663 A3,3 0 0 1 666,173 V277 A3,3 0 0 1 663,280 H663 A3,3 0 0 1 660,277 V173 A3,3 0 0 1 663,170 Z" />
    <path fill="#0076A8" fill-opacity="0.08" d="M684,190 H736 A4,4 0 0 1 740,194 V246 A4,4 0 0 1 736,250 H684 A4,4 0 0 1 680,246 V194 A4,4 0 0 1 684,190 Z" />
    <text x="710" y="232" text-anchor="middle" font-family="Arial, sans-serif" font-size="28" font-weight="bold" fill="#0076A8">02</text>
    <text x="765" y="218" font-family="Arial, sans-serif" font-size="20" font-weight="bold" fill="#2C3E50">认证结果</text>
    <text x="765" y="248" font-family="Arial, sans-serif" font-size="14" fill="#5D6D7E">供应商认证评分与核心收获</text>

    
    <path fill="#FFFFFF" stroke="#E5E7EB" stroke-width="1.5" d="M66,300 H614 A6,6 0 0 1 620,306 V404 A6,6 0 0 1 614,410 H66 A6,6 0 0 1 60,404 V306 A6,6 0 0 1 66,300 Z" />
    <path fill="#004D5C" d="M63,300 H63 A3,3 0 0 1 66,303 V407 A3,3 0 0 1 63,410 H63 A3,3 0 0 1 60,407 V303 A3,3 0 0 1 63,300 Z" />
    <path fill="#004D5C" fill-opacity="0.08" d="M84,320 H136 A4,4 0 0 1 140,324 V376 A4,4 0 0 1 136,380 H84 A4,4 0 0 1 80,376 V324 A4,4 0 0 1 84,320 Z" />
    <text x="110" y="362" text-anchor="middle" font-family="Arial, sans-serif" font-size="28" font-weight="bold" fill="#004D5C">03</text>
    <text x="165" y="348" font-family="Arial, sans-serif" font-size="20" font-weight="bold" fill="#2C3E50">落地方案</text>
    <text x="165" y="378" font-family="Arial, sans-serif" font-size="14" fill="#5D6D7E">三阶段推进计划与关键指标</text>

    
    <path fill="#FFFFFF" stroke="#E5E7EB" stroke-width="1.5" d="M666,300 H1214 A6,6 0 0 1 1220,306 V404 A6,6 0 0 1 1214,410 H666 A6,6 0 0 1 660,404 V306 A6,6 0 0 1 666,300 Z" />
    <path fill="#F5A623" d="M663,300 H663 A3,3 0 0 1 666,303 V407 A3,3 0 0 1 663,410 H663 A3,3 0 0 1 660,407 V303 A3,3 0 0 1 663,300 Z" />
    <path fill="#F5A623" fill-opacity="0.08" d="M684,320 H736 A4,4 0 0 1 740,324 V376 A4,4 0 0 1 736,380 H684 A4,4 0 0 1 680,376 V324 A4,4 0 0 1 684,320 Z" />
    <text x="710" y="362" text-anchor="middle" font-family="Arial, sans-serif" font-size="28" font-weight="bold" fill="#F5A623">04</text>
    <text x="765" y="348" font-family="Arial, sans-serif" font-size="20" font-weight="bold" fill="#2C3E50">总结展望</text>
    <text x="765" y="378" font-family="Arial, sans-serif" font-size="14" fill="#5D6D7E">联盟持续开放共享推进</text>

    
    <path fill="#F8F9FA" d="M66,460 H1214 A6,6 0 0 1 1220,466 V514 A6,6 0 0 1 1214,520 H66 A6,6 0 0 1 60,514 V466 A6,6 0 0 1 66,460 Z" />
    <path fill="#F5A623" d="M62,460 H63 A2,2 0 0 1 65,462 V518 A2,2 0 0 1 63,520 H62 A2,2 0 0 1 60,518 V462 A2,2 0 0 1 62,460 Z" />
    <text x="100" y="498" font-family="Arial, sans-serif" font-size="14" font-weight="bold" fill="#E89207">KEY FOCUS</text>
    <text x="230" y="498" font-family="Arial, sans-serif" font-size="14" fill="#5D6D7E">本次总结会聚焦：标准化运营方法论提炼 + 各供应商差异化落地方案 + 三个月推进计划</text>

    
    <line x1="60" y1="665" x2="1220" y2="665" stroke="#ECF0F1" stroke-width="1" />
    <text x="60" y="695" font-family="Arial, sans-serif" font-size="14" fill="#7F8C8D">02</text>
    <text x="1160" y="695" text-anchor="end" font-family="Arial, sans-serif" font-size="12" font-weight="bold" fill="#005587" letter-spacing="1">CONFIDENTIAL</text>
</svg>