<svg xmlns="http://www.w3.org/2000/svg" viewBox="0 0 1280 720">
    <defs>
        <linearGradient id="headerGrad" x1="0%" y1="0%" x2="100%" y2="0%">
            <stop offset="0%" style="stop-color:#005587" />
            <stop offset="100%" style="stop-color:#0076A8" />
        </linearGradient>
    </defs>

    <rect width="1280" height="720" fill="#FFFFFF" />
    <rect x="0" y="0" width="1280" height="5" fill="url(#headerGrad)" />
    <rect x="0" y="5" width="1280" height="75" fill="#FAFBFC" />
    <line x1="0" y1="80" x2="1280" y2="80" stroke="#E5E7EB" stroke-width="1" />
    <path fill="#005587" d="M64,22 H106 A4,4 0 0 1 110,26 V58 A4,4 0 0 1 106,62 H64 A4,4 0 0 1 60,58 V26 A4,4 0 0 1 64,22 Z" />
    <text x="85" y="50" text-anchor="middle" font-family="Arial, sans-serif" font-size="18" font-weight="bold" fill="#FFFFFF">02</text>
    <text x="130" y="52" font-family="Arial, sans-serif" font-size="28" font-weight="bold" fill="#2C3E50">认证评分规则与结果</text>
    <text x="1160" y="52" text-anchor="end" font-family="Arial, sans-serif" font-size="14" fill="#7F8C8D">认证结果</text>

    <path fill="#FFF8E1" stroke="#F5A623" stroke-width="1" d="M64,100 H1216 A4,4 0 0 1 1220,104 V146 A4,4 0 0 1 1216,150 H64 A4,4 0 0 1 60,146 V104 A4,4 0 0 1 64,100 Z" />
    <path fill="#F5A623" d="M62,100 H63 A2,2 0 0 1 65,102 V148 A2,2 0 0 1 63,150 H62 A2,2 0 0 1 60,148 V102 A2,2 0 0 1 62,100 Z" />
    <text x="85" y="132" font-family="Arial, sans-serif" font-size="14" font-weight="bold" fill="#E89207">KEY INSIGHT</text>
    <text x="220" y="132" font-family="Arial, sans-serif" font-size="15" fill="#5D6D7E">5家供应商全部通过认证，岐力91分领跑，结构可落地性占比最高（50分）</text>

    
    <g transform="translate(60, 170)">
        <path fill="#FFFFFF" stroke="#E5E7EB" stroke-width="1.5" d="M6,0 H494 A6,6 0 0 1 500,6 V444 A6,6 0 0 1 494,450 H6 A6,6 0 0 1 0,444 V6 A6,6 0 0 1 6,0 Z" />
        <path fill="#005587" d="M2,0 H2 A2,2 0 0 1 4,2 V448 A2,2 0 0 1 2,450 H2 A2,2 0 0 1 0,448 V2 A2,2 0 0 1 2,0 Z" />
        <text x="25" y="35" font-family="Arial, sans-serif" font-size="20" font-weight="bold" fill="#005587">评分规则</text>

        
        <path fill="#F8F9FA" stroke="#E5E7EB" stroke-width="1" d="M26,55 H469 A6,6 0 0 1 475,61 V119 A6,6 0 0 1 469,125 H26 A6,6 0 0 1 20,119 V61 A6,6 0 0 1 26,55 Z" />
        <text x="40" y="85" font-family="Arial, sans-serif" font-size="16" font-weight="bold" fill="#2C3E50">清晰表达有自己观点</text>
        <text x="40" y="110" font-family="Arial, sans-serif" font-size="14" fill="#5D6D7E">表达逻辑、观点深度、独立思考能力</text>
        <path fill="#005587" d="M394,70 H456 A4,4 0 0 1 460,74 V106 A4,4 0 0 1 456,110 H394 A4,4 0 0 1 390,106 V74 A4,4 0 0 1 394,70 Z" />
        <text x="425" y="97" text-anchor="middle" font-family="Arial, sans-serif" font-size="18" font-weight="bold" fill="#FFFFFF">25分</text>

        
        <path fill="#F8F9FA" stroke="#E5E7EB" stroke-width="1" d="M26,145 H469 A6,6 0 0 1 475,151 V209 A6,6 0 0 1 469,215 H26 A6,6 0 0 1 20,209 V151 A6,6 0 0 1 26,145 Z" />
        <text x="40" y="175" font-family="Arial, sans-serif" font-size="16" font-weight="bold" fill="#2C3E50">内容完整贴合主题</text>
        <text x="40" y="200" font-family="Arial, sans-serif" font-size="14" fill="#5D6D7E">内容覆盖度、与培训主题的匹配度</text>
        <path fill="#005587" d="M394,160 H456 A4,4 0 0 1 460,164 V196 A4,4 0 0 1 456,200 H394 A4,4 0 0 1 390,196 V164 A4,4 0 0 1 394,160 Z" />
        <text x="425" y="187" text-anchor="middle" font-family="Arial, sans-serif" font-size="18" font-weight="bold" fill="#FFFFFF">25分</text>

        
        <path fill="#F8F9FA" stroke="#E5E7EB" stroke-width="1" d="M26,235 H469 A6,6 0 0 1 475,241 V299 A6,6 0 0 1 469,305 H26 A6,6 0 0 1 20,299 V241 A6,6 0 0 1 26,235 Z" />
        <text x="40" y="265" font-family="Arial, sans-serif" font-size="16" font-weight="bold" fill="#2C3E50">结构清晰可落地</text>
        <text x="40" y="290" font-family="Arial, sans-serif" font-size="14" fill="#5D6D7E">方案结构、可执行性、时间节点明确</text>
        <path fill="#F5A623" d="M394,250 H456 A4,4 0 0 1 460,254 V286 A4,4 0 0 1 456,290 H394 A4,4 0 0 1 390,286 V254 A4,4 0 0 1 394,250 Z" />
        <text x="425" y="277" text-anchor="middle" font-family="Arial, sans-serif" font-size="18" font-weight="bold" fill="#FFFFFF">50分</text>

        
        <path fill="#FFF8E1" stroke="#F5A623" stroke-width="1" d="M26,330 H469 A6,6 0 0 1 475,336 V424 A6,6 0 0 1 469,430 H26 A6,6 0 0 1 20,424 V336 A6,6 0 0 1 26,330 Z" />
        <text x="40" y="360" font-family="Arial, sans-serif" font-size="16" font-weight="bold" fill="#E89207">加分项</text>
        <text x="40" y="385" font-family="Arial, sans-serif" font-size="14" fill="#5D6D7E">抓住底层逻辑、有延伸思考</text>
        <text x="40" y="410" font-family="Arial, sans-serif" font-size="14" fill="#5D6D7E">落地可行性高、方案清晰</text>

        
        <rect x="20" y="415" width="455" height="25" fill="none" stroke="none" />
        <text x="40" y="440" font-family="Arial, sans-serif" font-size="13" fill="#95A5A6">汇报8分钟 + 提问2分钟，单家最长10分钟 | 四位评委打分，满分100，80分通过</text>
    </g>

    
    <g transform="translate(600, 170)">
        <path fill="#FFFFFF" stroke="#E5E7EB" stroke-width="1.5" d="M6,0 H614 A6,6 0 0 1 620,6 V444 A6,6 0 0 1 614,450 H6 A6,6 0 0 1 0,444 V6 A6,6 0 0 1 6,0 Z" />
        <path fill="#27AE60" d="M2,0 H2 A2,2 0 0 1 4,2 V448 A2,2 0 0 1 2,450 H2 A2,2 0 0 1 0,448 V2 A2,2 0 0 1 2,0 Z" />
        <text x="25" y="35" font-family="Arial, sans-serif" font-size="20" font-weight="bold" fill="#27AE60">认证结果 — 全部通过</text>

        
        <path fill="#F8F9FA" stroke="#E5E7EB" stroke-width="1" d="M26,55 H594 A6,6 0 0 1 600,61 V149 A6,6 0 0 1 594,155 H26 A6,6 0 0 1 20,149 V61 A6,6 0 0 1 26,55 Z" />
        <circle cx="55" cy="105" r="28" fill="#F5A623" />
        <text x="55" y="113" text-anchor="middle" font-family="Arial, sans-serif" font-size="20" font-weight="bold" fill="#FFFFFF">1</text>
        <text x="100" y="95" font-family="Arial, sans-serif" font-size="22" font-weight="bold" fill="#2C3E50">岐力</text>
        <text x="100" y="120" font-family="Arial, sans-serif" font-size="14" fill="#5D6D7E">准入端话术模式表 + 三阶段落地计划 + 专项保障小组</text>
        <path fill="#F5A623" d="M486,75 H574 A6,6 0 0 1 580,81 V129 A6,6 0 0 1 574,135 H486 A6,6 0 0 1 480,129 V81 A6,6 0 0 1 486,75 Z" />
        <text x="530" y="100" text-anchor="middle" font-family="Arial, sans-serif" font-size="28" font-weight="bold" fill="#FFFFFF">91</text>
        <text x="530" y="120" text-anchor="middle" font-family="Arial, sans-serif" font-size="12" fill="#FFFFFF">分</text>

        
        <path fill="#F8F9FA" stroke="#E5E7EB" stroke-width="1" d="M26,170 H594 A6,6 0 0 1 600,176 V264 A6,6 0 0 1 594,270 H26 A6,6 0 0 1 20,264 V176 A6,6 0 0 1 26,170 Z" />
        <circle cx="55" cy="220" r="28" fill="#005587" />
        <text x="55" y="228" text-anchor="middle" font-family="Arial, sans-serif" font-size="20" font-weight="bold" fill="#FFFFFF">2</text>
        <text x="100" y="210" font-family="Arial, sans-serif" font-size="22" font-weight="bold" fill="#2C3E50">汇讯</text>
        <text x="100" y="235" font-family="Arial, sans-serif" font-size="14" fill="#5D6D7E">BI看板已落地 + 共享话术库提议 + 管理工具需求明确</text>
        <path fill="#005587" d="M486,190 H574 A6,6 0 0 1 580,196 V244 A6,6 0 0 1 574,250 H486 A6,6 0 0 1 480,244 V196 A6,6 0 0 1 486,190 Z" />
        <text x="530" y="215" text-anchor="middle" font-family="Arial, sans-serif" font-size="28" font-weight="bold" fill="#FFFFFF">88</text>
        <text x="530" y="235" text-anchor="middle" font-family="Arial, sans-serif" font-size="12" fill="#FFFFFF">分</text>

        
        <path fill="#F8F9FA" stroke="#E5E7EB" stroke-width="1" d="M26,285 H594 A6,6 0 0 1 600,291 V379 A6,6 0 0 1 594,385 H26 A6,6 0 0 1 20,379 V291 A6,6 0 0 1 26,285 Z" />
        <circle cx="55" cy="335" r="28" fill="#0076A8" />
        <text x="55" y="343" text-anchor="middle" font-family="Arial, sans-serif" font-size="20" font-weight="bold" fill="#FFFFFF">3</text>
        <text x="100" y="325" font-family="Arial, sans-serif" font-size="22" font-weight="bold" fill="#2C3E50">赛维斯</text>
        <text x="100" y="350" font-family="Arial, sans-serif" font-size="14" fill="#5D6D7E">结构完整、方案可落地、有独立思考</text>
        <path fill="#0076A8" d="M486,305 H574 A6,6 0 0 1 580,311 V359 A6,6 0 0 1 574,365 H486 A6,6 0 0 1 480,359 V311 A6,6 0 0 1 486,305 Z" />
        <text x="530" y="330" text-anchor="middle" font-family="Arial, sans-serif" font-size="28" font-weight="bold" fill="#FFFFFF">86</text>
        <text x="530" y="350" text-anchor="middle" font-family="Arial, sans-serif" font-size="12" fill="#FFFFFF">分</text>

        
        <text x="25" y="415" font-family="Arial, sans-serif" font-size="14" fill="#7F8C8D">华讯、广达、瀚锐、华道 均已通过认证（80分以上）</text>
    </g>

    <rect x="0" y="640" width="1280" height="80" fill="#FAFBFC" />
    <line x1="0" y1="640" x2="1280" y2="640" stroke="#E5E7EB" stroke-width="1" />
    <text x="60" y="675" font-family="Arial, sans-serif" font-size="12" fill="#95A5A6">Source: 313上午供应商联盟认证总结会 | 四位评委打分，满分100分，80分通过</text>
    <text x="60" y="700" font-family="Arial, sans-serif" font-size="11" fill="#BDC3C7">可落地性占50分权重，方案执行力是认证核心</text>
    <path fill="#005587" d="M1144,655 H1216 A4,4 0 0 1 1220,659 V681 A4,4 0 0 1 1216,685 H1144 A4,4 0 0 1 1140,681 V659 A4,4 0 0 1 1144,655 Z" />
    <text x="1180" y="676" text-anchor="middle" font-family="Arial, sans-serif" font-size="14" font-weight="bold" fill="#FFFFFF">08</text>
</svg>