<svg xmlns="http://www.w3.org/2000/svg" width="100%" viewBox="0 0 680 720">
<defs>
<marker id="a" viewBox="0 0 10 10" refX="8" refY="5" markerWidth="6" markerHeight="6" orient="auto-start-reverse">
<path d="M2 1L8 5L2 9" fill="none" stroke="#857d74" stroke-width="1.5" stroke-linecap="round" stroke-linejoin="round"/>
</marker>
</defs>
<style>
.f{font-family:system-ui,-apple-system,'PingFang SC','Microsoft YaHei',sans-serif}
.t{font-size:15px;font-weight:600}
.b{font-size:12px;font-weight:600}
.n{font-size:11px}
.s{font-size:10px}
</style>

<!-- Background -->
<rect width="680" height="720" fill="#faf8f5"/>

<!-- Title -->
<text x="20" y="36" class="f t" fill="#454240">L4-12 异常信号总表 — 33个信号</text>
<text x="20" y="56" class="f s" fill="#857d74">按维度分组，从上到下优先级递减</text>

<!-- 组织治理 (6) -->
<g transform="translate(16,72)">
<rect width="648" height="24" rx="6" fill="#e6f5f0" stroke="#2e8b6e" stroke-width="1"/>
<text x="12" y="17" class="f b" fill="#0f5040">组织治理（6个信号）</text>
</g>
<g transform="translate(16,100)">
<rect width="100" height="24" rx="4" fill="#e6f5f0" stroke="#2e8b6e" stroke-width="1"/>
<text x="8" y="16" class="f s" fill="#0f5040">流失率&gt;8%/月</text>

<rect x="108" width="100" height="24" rx="4" fill="#e6f5f0" stroke="#2e8b6e" stroke-width="1"/>
<text x="116" y="16" class="f s" fill="#0f5040">流失率连续升</text>

<rect x="216" width="110" height="24" rx="4" fill="#e6f5f0" stroke="#2e8b6e" stroke-width="1"/>
<text x="224" y="16" class="f s" fill="#0f5040">出勤率&lt;85%</text>

<rect x="334" width="100" height="24" rx="4" fill="#e6f5f0" stroke="#2e8b6e" stroke-width="1"/>
<text x="342" y="16" class="f s" fill="#0f5040">出勤率持续降</text>

<rect x="442" width="110" height="24" rx="4" fill="#e6f5f0" stroke="#2e8b6e" stroke-width="1"/>
<text x="450" y="16" class="f s" fill="#0f5040">主管变更未报备</text>

<rect x="560" width="80" height="24" rx="4" fill="#e6f5f0" stroke="#2e8b6e" stroke-width="1"/>
<text x="568" y="16" class="f s" fill="#0f5040">核心骨干流失</text>

<rect y="32" width="100" height="24" rx="4" fill="#e6f5f0" stroke="#2e8b6e" stroke-width="1"/>
<text x="8" y="48" class="f s" fill="#0f5040">团队规模骤减</text>
</g>

<!-- 运营效率 (10) -->
<g transform="translate(16,180)">
<rect width="648" height="24" rx="6" fill="#faf0e6" stroke="#c26d3a" stroke-width="1"/>
<text x="12" y="17" class="f b" fill="#6b3410">运营效率（10个信号）</text>
</g>
<g transform="translate(16,208)">
<rect width="110" height="24" rx="4" fill="#faf0e6" stroke="#c26d3a" stroke-width="1"/>
<text x="8" y="16" class="f s" fill="#6b3410">GMV降幅&gt;20%</text>

<rect x="118" width="120" height="24" rx="4" fill="#faf0e6" stroke="#c26d3a" stroke-width="1"/>
<text x="126" y="16" class="f s" fill="#6b3410">人均拨打量降15%</text>

<rect x="246" width="100" height="24" rx="4" fill="#faf0e6" stroke="#c26d3a" stroke-width="1"/>
<text x="254" y="16" class="f s" fill="#6b3410">转化率降5pp</text>

<rect x="354" width="110" height="24" rx="4" fill="#faf0e6" stroke="#c26d3a" stroke-width="1"/>
<text x="362" y="16" class="f s" fill="#6b3410">接通率降5pp</text>

<rect x="472" width="100" height="24" rx="4" fill="#faf0e6" stroke="#c26d3a" stroke-width="1"/>
<text x="480" y="16" class="f s" fill="#6b3410">件均降幅&gt;10%</text>

<rect x="580" width="80" height="24" rx="4" fill="#faf0e6" stroke="#c26d3a" stroke-width="1"/>
<text x="588" y="16" class="f s" fill="#6b3410">峰值比&lt;65%</text>

<rect y="32" width="120" height="24" rx="4" fill="#faf0e6" stroke="#c26d3a" stroke-width="1"/>
<text x="8" y="48" class="f s" fill="#6b3410">头部差距扩大&gt;40%</text>

<rect x="128" width="110" height="24" rx="4" fill="#faf0e6" stroke="#c26d3a" stroke-width="1"/>
<text x="136" y="48" class="f s" fill="#6b3410">产能达成率&lt;75%</text>

<rect x="246" width="100" height="24" rx="4" fill="#faf0e6" stroke="#c26d3a" stroke-width="1"/>
<text x="254" y="48" class="f s" fill="#6b3410">连续2周不达标</text>

<rect x="354" width="120" height="24" rx="4" fill="#faf0e6" stroke="#c26d3a" stroke-width="1"/>
<text x="362" y="48" class="f s" fill="#6b3410">人效连续2月下降</text>
</g>

<!-- 合规红线 (4) -->
<g transform="translate(16,292)">
<rect width="648" height="24" rx="6" fill="#faeae5" stroke="#c25030" stroke-width="1"/>
<text x="12" y="17" class="f b" fill="#6b2010">合规红线（4个信号）</text>
</g>
<g transform="translate(16,320)">
<rect width="120" height="24" rx="4" fill="#faeae5" stroke="#c25030" stroke-width="1"/>
<text x="8" y="16" class="f s" fill="#6b2010">外网管控率&lt;60%</text>

<rect x="128" width="110" height="24" rx="4" fill="#faeae5" stroke="#c25030" stroke-width="1"/>
<text x="136" y="16" class="f s" fill="#6b2010">质检不合格</text>

<rect x="246" width="120" height="24" rx="4" fill="#faeae5" stroke="#c25030" stroke-width="1"/>
<text x="254" y="16" class="f s" fill="#6b2010">信息安全违规</text>

<rect x="374" width="110" height="24" rx="4" fill="#faeae5" stroke="#c25030" stroke-width="1"/>
<text x="382" y="16" class="f s" fill="#6b2010">虚假数据填报</text>
</g>

<!-- 风险控制 (4) -->
<g transform="translate(16,380)">
<rect width="648" height="24" rx="6" fill="#faf0dc" stroke="#b88018" stroke-width="1"/>
<text x="12" y="17" class="f b" fill="#6a4005">风险控制（4个信号）</text>
</g>
<g transform="translate(16,408)">
<rect width="110" height="24" rx="4" fill="#faf0dc" stroke="#b88018" stroke-width="1"/>
<text x="8" y="16" class="f s" fill="#6a4005">产能集中度偏高</text>

<rect x="118" width="120" height="24" rx="4" fill="#faf0dc" stroke="#b88018" stroke-width="1"/>
<text x="126" y="16" class="f s" fill="#6a4005">名单消化率异常</text>

<rect x="246" width="110" height="24" rx="4" fill="#faf0dc" stroke="#b88018" stroke-width="1"/>
<text x="254" y="16" class="f s" fill="#6a4005">复贷转化率异常</text>

<rect x="364" width="120" height="24" rx="4" fill="#faf0dc" stroke="#b88018" stroke-width="1"/>
<text x="372" y="16" class="f s" fill="#6a4005">投诉率超阈值</text>
</g>

<!-- 综合 (9) -->
<g transform="translate(16,468)">
<rect width="648" height="24" rx="6" fill="#f2f0eb" stroke="#857d74" stroke-width="1"/>
<text x="12" y="17" class="f b" fill="#454240">综合（9个信号）</text>
</g>
<g transform="translate(16,496)">
<rect width="110" height="24" rx="4" fill="#f2f0eb" stroke="#857d74" stroke-width="1"/>
<text x="8" y="16" class="f s" fill="#454240">排名骤降&gt;5名</text>

<rect x="118" width="120" height="24" rx="4" fill="#f2f0eb" stroke="#857d74" stroke-width="1"/>
<text x="126" y="16" class="f s" fill="#454240">隐性退步（排名升</text>

<rect x="246" width="120" height="24" rx="4" fill="#f2f0eb" stroke="#857d74" stroke-width="1"/>
<text x="254" y="16" class="f s" fill="#454240">预警响应超时48h</text>

<rect x="374" width="110" height="24" rx="4" fill="#f2f0eb" stroke="#857d74" stroke-width="1"/>
<text x="382" y="16" class="f s" fill="#454240">整改未按期完成</text>

<rect x="492" width="110" height="24" rx="4" fill="#f2f0eb" stroke="#857d74" stroke-width="1"/>
<text x="500" y="16" class="f s" fill="#454240">约谈承诺未兑现</text>

<rect y="32" width="120" height="24" rx="4" fill="#f2f0eb" stroke="#857d74" stroke-width="1"/>
<text x="8" y="48" class="f s" fill="#454240">连续2月后30%</text>

<rect x="128" width="110" height="24" rx="4" fill="#f2f0eb" stroke="#857d74" stroke-width="1"/>
<text x="136" y="48" class="f s" fill="#454240">新人占比&gt;30%</text>

<rect x="246" width="120" height="24" rx="4" fill="#f2f0eb" stroke="#857d74" stroke-width="1"/>
<text x="254" y="48" class="f s" fill="#454240">新人成长不达标</text>

<rect x="374" width="110" height="24" rx="4" fill="#f2f0eb" stroke="#857d74" stroke-width="1"/>
<text x="382" y="48" class="f s" fill="#454240">数据质量分异常</text>
</g>

<!-- Summary -->
<text x="20" y="570" class="f b" fill="#454240">信号说明</text>
<text x="20" y="590" class="f s" fill="#454240">组织治理：人力稳定性和团队管理相关信号，优先级最高</text>
<text x="20" y="608" class="f s" fill="#454240">运营效率：产能、转化、拨打等业务指标信号，日常监控核心</text>
<text x="20" y="626" class="f s" fill="#454240">合规红线：触碰即触发，零容忍，直接走合规处理流程</text>
<text x="20" y="644" class="f s" fill="#454240">风险控制：结构性风险信号，需要关注长期趋势</text>
<text x="20" y="662" class="f s" fill="#454240">综合：跨维度信号或组合判断信号</text>
</svg>