<?xml version="1.0" encoding="utf-8" standalone="no"?>
<!DOCTYPE svg PUBLIC "-//W3C//DTD SVG 1.1//EN"
  "http://www.w3.org/Graphics/SVG/1.1/DTD/svg11.dtd">
<svg xmlns:xlink="http://www.w3.org/1999/xlink" width="565.244587pt" height="278.442031pt" viewBox="0 0 565.244587 278.442031" xmlns="http://www.w3.org/2000/svg" version="1.1">
 <metadata>
  <rdf:RDF xmlns:dc="http://purl.org/dc/elements/1.1/" xmlns:cc="http://creativecommons.org/ns#" xmlns:rdf="http://www.w3.org/1999/02/22-rdf-syntax-ns#">
   <cc:Work>
    <dc:type rdf:resource="http://purl.org/dc/dcmitype/StillImage"/>
    <dc:date>2026-05-05T13:01:18.836494</dc:date>
    <dc:format>image/svg+xml</dc:format>
    <dc:creator>
     <cc:Agent>
      <dc:title>Matplotlib v3.10.9, https://matplotlib.org/</dc:title>
     </cc:Agent>
    </dc:creator>
   </cc:Work>
  </rdf:RDF>
 </metadata>
 <defs>
  <style type="text/css">*{stroke-linejoin: round; stroke-linecap: butt}</style>
 </defs>
 <g id="figure_1">
  <g id="patch_1">
   <path d="M 0 278.442031 
L 565.244587 278.442031 
L 565.244587 0 
L 0 0 
z
" style="fill: #ffffff"/>
  </g>
  <g id="axes_1">
   <g id="patch_2">
    <path d="M 30.642656 243.105 
L 558.044587 243.105 
L 558.044587 37.935 
L 30.642656 37.935 
z
" style="fill: #ffffff"/>
   </g>
   <g id="patch_3">
    <path d="M 30.642656 233.779091 
L 284.995877 233.779091 
L 284.995877 213.795 
L 30.642656 213.795 
z
" clip-path="url(#pebaa6a432f)" style="fill: #ada599"/>
   </g>
   <g id="patch_4">
    <path d="M 30.642656 200.472273 
L 299.508523 200.472273 
L 299.508523 180.488182 
L 30.642656 180.488182 
z
" clip-path="url(#pebaa6a432f)" style="fill: #ada599"/>
   </g>
   <g id="patch_5">
    <path d="M 30.642656 167.165455 
L 394.877342 167.165455 
L 394.877342 147.181364 
L 30.642656 147.181364 
z
" clip-path="url(#pebaa6a432f)" style="fill: #2e8b6e"/>
   </g>
   <g id="patch_6">
    <path d="M 30.642656 133.858636 
L 398.696459 133.858636 
L 398.696459 113.874545 
L 30.642656 113.874545 
z
" clip-path="url(#pebaa6a432f)" style="fill: #2e8b6e"/>
   </g>
   <g id="patch_7">
    <path d="M 30.642656 100.551818 
L 425.212046 100.551818 
L 425.212046 80.567727 
L 30.642656 80.567727 
z
" clip-path="url(#pebaa6a432f)" style="fill: #2e8b6e"/>
   </g>
   <g id="patch_8">
    <path d="M 30.642656 67.245 
L 465.476455 67.245 
L 465.476455 47.260909 
L 30.642656 47.260909 
z
" clip-path="url(#pebaa6a432f)" style="fill: #2e8b6e"/>
   </g>
   <g id="matplotlib.axis_1">
    <g id="xtick_1">
     <g id="line2d_1">
      <path d="M 30.642656 243.105 
L 30.642656 37.935 
" clip-path="url(#pebaa6a432f)" style="fill: none; stroke-dasharray: 2.96,1.28; stroke-dashoffset: 0; stroke: #f2f0eb; stroke-width: 0.8"/>
     </g>
     <g id="line2d_2"/>
     <g id="text_1">
      <!-- 0 -->
      <g style="fill: #857d74" transform="translate(27.595312 255.360312) scale(0.11 -0.11)">
       <defs>
        <path id="STHeiti-30" d="M 1747 269 
Q 1005 269 605 880 
Q 205 1491 205 2681 
Q 205 3872 605 4483 
Q 1005 5094 1741 5094 
Q 2477 5094 2909 4470 
Q 3341 3846 3341 2681 
Q 3341 1517 2905 893 
Q 2470 269 1747 269 
z
M 1760 4659 
Q 1229 4659 934 4147 
Q 640 3635 640 2669 
Q 640 685 1760 685 
Q 2304 685 2608 1206 
Q 2912 1728 2912 2681 
Q 2912 3635 2598 4147 
Q 2285 4659 1760 4659 
z
" transform="scale(0.015625)"/>
       </defs>
       <use xlink:href="#STHeiti-30"/>
      </g>
     </g>
    </g>
    <g id="xtick_2">
     <g id="line2d_3">
      <path d="M 103.38775 243.105 
L 103.38775 37.935 
" clip-path="url(#pebaa6a432f)" style="fill: none; stroke-dasharray: 2.96,1.28; stroke-dashoffset: 0; stroke: #f2f0eb; stroke-width: 0.8"/>
     </g>
     <g id="line2d_4"/>
     <g id="text_2">
      <!-- 2000 -->
      <g style="fill: #857d74" transform="translate(91.198375 255.360312) scale(0.11 -0.11)">
       <defs>
        <path id="STHeiti-32" d="M 742 3539 
L 301 3539 
Q 333 4243 768 4668 
Q 1203 5094 1820 5094 
Q 2438 5094 2844 4694 
Q 3251 4294 3251 3718 
Q 3251 3290 3024 2925 
Q 2797 2560 2336 2061 
L 1190 826 
L 3315 826 
L 3315 384 
L 192 384 
L 1946 2278 
Q 2406 2778 2604 3066 
Q 2803 3354 2803 3725 
Q 2803 4096 2512 4377 
Q 2221 4659 1789 4659 
Q 1357 4659 1072 4368 
Q 787 4077 742 3539 
z
" transform="scale(0.015625)"/>
       </defs>
       <use xlink:href="#STHeiti-32"/>
       <use xlink:href="#STHeiti-30" transform="translate(55.399994 0)"/>
       <use xlink:href="#STHeiti-30" transform="translate(110.799988 0)"/>
       <use xlink:href="#STHeiti-30" transform="translate(166.199982 0)"/>
      </g>
     </g>
    </g>
    <g id="xtick_3">
     <g id="line2d_5">
      <path d="M 176.132844 243.105 
L 176.132844 37.935 
" clip-path="url(#pebaa6a432f)" style="fill: none; stroke-dasharray: 2.96,1.28; stroke-dashoffset: 0; stroke: #f2f0eb; stroke-width: 0.8"/>
     </g>
     <g id="line2d_6"/>
     <g id="text_3">
      <!-- 4000 -->
      <g style="fill: #857d74" transform="translate(163.943469 255.360312) scale(0.11 -0.11)">
       <defs>
        <path id="STHeiti-34" d="M 2726 5094 
L 2816 5094 
L 2816 1894 
L 3373 1894 
L 3373 1453 
L 2816 1453 
L 2816 384 
L 2362 384 
L 2362 1453 
L 160 1453 
L 2726 5094 
z
M 2362 1894 
L 2362 3808 
L 1005 1894 
L 2362 1894 
z
" transform="scale(0.015625)"/>
       </defs>
       <use xlink:href="#STHeiti-34"/>
       <use xlink:href="#STHeiti-30" transform="translate(55.399994 0)"/>
       <use xlink:href="#STHeiti-30" transform="translate(110.799988 0)"/>
       <use xlink:href="#STHeiti-30" transform="translate(166.199982 0)"/>
      </g>
     </g>
    </g>
    <g id="xtick_4">
     <g id="line2d_7">
      <path d="M 248.877938 243.105 
L 248.877938 37.935 
" clip-path="url(#pebaa6a432f)" style="fill: none; stroke-dasharray: 2.96,1.28; stroke-dashoffset: 0; stroke: #f2f0eb; stroke-width: 0.8"/>
     </g>
     <g id="line2d_8"/>
     <g id="text_4">
      <!-- 6000 -->
      <g style="fill: #857d74" transform="translate(236.688563 255.360312) scale(0.11 -0.11)">
       <defs>
        <path id="STHeiti-36" d="M 2349 5094 
L 2726 4851 
L 1485 2970 
Q 1747 3059 1984 3059 
Q 2496 3059 2880 2652 
Q 3264 2246 3264 1660 
Q 3264 1075 2845 672 
Q 2426 269 1827 269 
Q 1229 269 829 678 
Q 429 1088 429 1677 
Q 429 1958 537 2256 
Q 646 2554 954 3014 
L 2349 5094 
z
M 2810 1683 
Q 2810 2086 2528 2368 
Q 2246 2650 1843 2650 
Q 1440 2650 1158 2368 
Q 877 2086 877 1683 
Q 877 1280 1161 998 
Q 1446 717 1843 717 
Q 2240 717 2525 998 
Q 2810 1280 2810 1683 
z
" transform="scale(0.015625)"/>
       </defs>
       <use xlink:href="#STHeiti-36"/>
       <use xlink:href="#STHeiti-30" transform="translate(55.399994 0)"/>
       <use xlink:href="#STHeiti-30" transform="translate(110.799988 0)"/>
       <use xlink:href="#STHeiti-30" transform="translate(166.199982 0)"/>
      </g>
     </g>
    </g>
    <g id="xtick_5">
     <g id="line2d_9">
      <path d="M 321.623032 243.105 
L 321.623032 37.935 
" clip-path="url(#pebaa6a432f)" style="fill: none; stroke-dasharray: 2.96,1.28; stroke-dashoffset: 0; stroke: #f2f0eb; stroke-width: 0.8"/>
     </g>
     <g id="line2d_10"/>
     <g id="text_5">
      <!-- 8000 -->
      <g style="fill: #857d74" transform="translate(309.433657 255.360312) scale(0.11 -0.11)">
       <defs>
        <path id="STHeiti-38" d="M 2458 2906 
Q 3328 2477 3328 1702 
Q 3328 1088 2896 678 
Q 2464 269 1763 269 
Q 1062 269 640 678 
Q 218 1088 218 1664 
Q 218 2470 1107 2906 
Q 435 3264 435 3898 
Q 435 4371 828 4732 
Q 1222 5094 1779 5094 
Q 2336 5094 2726 4742 
Q 3117 4390 3117 3885 
Q 3117 3270 2458 2906 
z
M 2656 3904 
Q 2656 4211 2416 4432 
Q 2176 4653 1789 4653 
Q 1402 4653 1152 4432 
Q 902 4211 902 3897 
Q 902 3584 1174 3337 
Q 1446 3091 1792 3091 
Q 2138 3091 2397 3334 
Q 2656 3578 2656 3904 
z
M 2867 1696 
Q 2867 2086 2550 2380 
Q 2234 2675 1782 2675 
Q 1331 2675 1004 2371 
Q 678 2067 678 1654 
Q 678 1242 979 973 
Q 1280 704 1766 704 
Q 2253 704 2560 992 
Q 2867 1280 2867 1696 
z
" transform="scale(0.015625)"/>
       </defs>
       <use xlink:href="#STHeiti-38"/>
       <use xlink:href="#STHeiti-30" transform="translate(55.399994 0)"/>
       <use xlink:href="#STHeiti-30" transform="translate(110.799988 0)"/>
       <use xlink:href="#STHeiti-30" transform="translate(166.199982 0)"/>
      </g>
     </g>
    </g>
    <g id="xtick_6">
     <g id="line2d_11">
      <path d="M 394.368126 243.105 
L 394.368126 37.935 
" clip-path="url(#pebaa6a432f)" style="fill: none; stroke-dasharray: 2.96,1.28; stroke-dashoffset: 0; stroke: #f2f0eb; stroke-width: 0.8"/>
     </g>
     <g id="line2d_12"/>
     <g id="text_6">
      <!-- 10000 -->
      <g style="fill: #857d74" transform="translate(379.131407 255.360312) scale(0.11 -0.11)">
       <defs>
        <path id="STHeiti-31" d="M 1184 4979 
L 2086 4979 
L 2086 384 
L 1632 384 
L 1632 4531 
L 909 4531 
L 1184 4979 
z
" transform="scale(0.015625)"/>
       </defs>
       <use xlink:href="#STHeiti-31"/>
       <use xlink:href="#STHeiti-30" transform="translate(55.399994 0)"/>
       <use xlink:href="#STHeiti-30" transform="translate(110.799988 0)"/>
       <use xlink:href="#STHeiti-30" transform="translate(166.199982 0)"/>
       <use xlink:href="#STHeiti-30" transform="translate(221.599976 0)"/>
      </g>
     </g>
    </g>
    <g id="xtick_7">
     <g id="line2d_13">
      <path d="M 467.11322 243.105 
L 467.11322 37.935 
" clip-path="url(#pebaa6a432f)" style="fill: none; stroke-dasharray: 2.96,1.28; stroke-dashoffset: 0; stroke: #f2f0eb; stroke-width: 0.8"/>
     </g>
     <g id="line2d_14"/>
     <g id="text_7">
      <!-- 12000 -->
      <g style="fill: #857d74" transform="translate(451.876501 255.360312) scale(0.11 -0.11)">
       <use xlink:href="#STHeiti-31"/>
       <use xlink:href="#STHeiti-32" transform="translate(55.399994 0)"/>
       <use xlink:href="#STHeiti-30" transform="translate(110.799988 0)"/>
       <use xlink:href="#STHeiti-30" transform="translate(166.199982 0)"/>
       <use xlink:href="#STHeiti-30" transform="translate(221.599976 0)"/>
      </g>
     </g>
    </g>
    <g id="xtick_8">
     <g id="line2d_15">
      <path d="M 539.858314 243.105 
L 539.858314 37.935 
" clip-path="url(#pebaa6a432f)" style="fill: none; stroke-dasharray: 2.96,1.28; stroke-dashoffset: 0; stroke: #f2f0eb; stroke-width: 0.8"/>
     </g>
     <g id="line2d_16"/>
     <g id="text_8">
      <!-- 14000 -->
      <g style="fill: #857d74" transform="translate(524.621595 255.360312) scale(0.11 -0.11)">
       <use xlink:href="#STHeiti-31"/>
       <use xlink:href="#STHeiti-34" transform="translate(55.399994 0)"/>
       <use xlink:href="#STHeiti-30" transform="translate(110.799988 0)"/>
       <use xlink:href="#STHeiti-30" transform="translate(166.199982 0)"/>
       <use xlink:href="#STHeiti-30" transform="translate(221.599976 0)"/>
      </g>
     </g>
    </g>
    <g id="text_9">
     <!-- 成交金额（万元） -->
     <g style="fill: #857d74" transform="translate(250.343622 269.767344) scale(0.11 -0.11)">
      <defs>
       <path id="STHeiti-6210" d="M 3392 3610 
L 1491 3610 
L 1491 2720 
Q 2778 2720 3066 2778 
L 2976 1056 
Q 2957 813 2877 688 
Q 2797 563 2585 480 
Q 2374 397 1907 294 
Q 1907 550 1670 947 
Q 1984 890 2163 890 
Q 2342 890 2412 957 
Q 2483 1024 2490 1203 
L 2547 2310 
L 1485 2310 
Q 1472 1382 1357 832 
Q 1242 282 845 -422 
Q 582 -224 282 -160 
Q 685 320 835 937 
Q 986 1555 986 2771 
Q 986 3334 954 4141 
Q 1453 4077 3347 4077 
L 3251 5248 
Q 3514 5203 3750 5203 
L 3930 5210 
Q 4006 5210 4006 5178 
Q 4006 5146 3942 5072 
Q 3878 4998 3878 4461 
Q 3878 4288 3885 4077 
Q 5274 4083 5798 4141 
L 5798 3546 
Q 5126 3610 3904 3610 
Q 3968 2432 4301 1549 
Q 4666 2202 4832 3187 
Q 5152 3014 5434 2938 
Q 5510 2912 5510 2883 
Q 5510 2854 5452 2832 
Q 5395 2810 5328 2685 
Q 5261 2560 5222 2451 
Q 4973 1632 4563 1030 
Q 4858 557 5050 326 
Q 5242 96 5347 96 
Q 5453 96 5510 256 
Q 5568 416 5600 755 
Q 5882 410 6144 358 
Q 5971 -160 5840 -397 
Q 5709 -634 5529 -634 
Q 5350 -634 4972 -304 
Q 4595 26 4230 589 
Q 3725 0 2899 -557 
Q 2752 -237 2470 -109 
Q 3424 326 3987 1056 
Q 3744 1542 3638 2019 
Q 3533 2496 3392 3610 
z
M 5331 4474 
L 4794 4211 
Q 4634 4646 4416 4922 
L 4922 5165 
Q 5178 4819 5331 4474 
z
" transform="scale(0.015625)"/>
       <path id="STHeiti-4ea4" d="M 3731 4544 
L 3066 4384 
Q 3002 4634 2784 5101 
L 3462 5299 
Q 3565 4915 3731 4544 
z
M 5946 3770 
Q 4954 3808 3133 3808 
Q 1312 3808 634 3763 
L 634 4358 
Q 1293 4314 3270 4314 
Q 5248 4314 5946 4352 
L 5946 3770 
z
M 2170 3629 
Q 2490 3405 2733 3309 
Q 2842 3270 2842 3222 
Q 2842 3174 2688 3155 
Q 2656 3149 2550 3069 
Q 2445 2989 2342 2880 
Q 1779 2317 1069 1824 
Q 883 2074 595 2208 
Q 1741 2848 2170 3629 
z
M 5901 2400 
L 5446 1914 
Q 4813 2624 3942 3238 
L 4333 3603 
Q 5056 3104 5901 2400 
z
M 2803 813 
Q 2330 1286 1939 2240 
L 2445 2426 
Q 2797 1594 3219 1152 
Q 3802 1728 4058 2490 
Q 4448 2246 4653 2195 
Q 4762 2163 4762 2134 
Q 4762 2106 4656 2045 
Q 4550 1984 4448 1818 
Q 4173 1370 3629 813 
Q 4122 461 4666 304 
Q 5210 147 5971 109 
Q 5702 -250 5581 -614 
Q 3962 -160 3226 435 
Q 2771 38 2236 -202 
Q 1702 -442 890 -634 
Q 717 -301 474 -45 
Q 1677 45 2803 813 
z
" transform="scale(0.015625)"/>
       <path id="STHeiti-91d1" d="M 3386 4947 
Q 4038 4243 4636 3878 
Q 5235 3514 6138 3302 
Q 6042 3213 5958 3024 
Q 5875 2835 5869 2688 
Q 4192 3251 3123 4698 
Q 2586 3968 1632 3187 
Q 2182 3142 3200 3142 
Q 4218 3142 4736 3194 
L 4736 2662 
Q 4314 2694 3405 2707 
L 3405 1920 
Q 4768 1920 5261 1958 
L 5261 1440 
Q 4768 1478 3405 1478 
L 3405 154 
L 4006 147 
Q 4288 787 4371 1299 
Q 4736 1146 4922 1094 
Q 4979 1075 4979 1024 
Q 4979 973 4934 954 
Q 4826 902 4390 147 
Q 5094 154 5632 211 
L 5632 -390 
Q 4525 -320 3024 -320 
Q 1523 -320 646 -384 
L 646 218 
Q 1472 154 2886 154 
L 2886 1478 
Q 1638 1478 1005 1434 
L 1005 1965 
Q 1664 1920 2886 1920 
L 2886 2707 
Q 1990 2707 1574 2662 
L 1574 3142 
Q 1037 2720 678 2528 
Q 570 2797 275 2925 
Q 742 3130 1184 3469 
Q 1626 3808 1984 4173 
Q 2342 4538 2505 4787 
Q 2669 5037 2778 5306 
Q 3219 5126 3360 5107 
Q 3501 5088 3501 5040 
Q 3501 4992 3386 4947 
z
M 2234 525 
L 1709 275 
Q 1491 774 1286 1037 
L 1805 1261 
Q 2080 832 2234 525 
z
" transform="scale(0.015625)"/>
       <path id="STHeiti-989d" d="M 2182 4538 
Q 2733 4538 3168 4570 
L 3168 3763 
L 2707 3763 
L 2707 4134 
L 902 4134 
L 902 3546 
L 461 3546 
L 461 4563 
Q 858 4538 1619 4538 
Q 1549 4826 1459 5011 
L 1990 5126 
Q 2106 4826 2182 4538 
z
M 4288 4384 
Q 3680 4378 3366 4333 
L 3366 4851 
Q 3763 4800 4643 4800 
Q 5523 4800 5920 4851 
L 5920 4333 
Q 5555 4384 4781 4384 
Q 4653 3898 4614 3642 
Q 5440 3642 5766 3667 
Q 5754 3571 5754 2899 
L 5754 1830 
Q 5754 1254 5779 1030 
L 5267 1030 
L 5267 3219 
L 3866 3219 
L 3866 915 
L 3379 915 
Q 3405 1152 3405 1715 
L 3405 2899 
Q 3405 3590 3398 3667 
Q 3642 3654 4166 3642 
Q 4243 4019 4288 4384 
z
M 2336 19 
L 1370 19 
L 1370 -570 
L 883 -570 
Q 947 -154 947 224 
L 947 1210 
Q 806 1107 659 1024 
Q 518 1203 307 1376 
Q 1037 1670 1619 2234 
Q 1376 2349 1120 2464 
L 1382 2778 
Q 1664 2650 1894 2541 
Q 2118 2803 2291 3053 
L 1357 3053 
Q 1107 2707 730 2336 
Q 550 2496 301 2579 
Q 1037 3162 1402 3968 
Q 1677 3834 1808 3824 
Q 1939 3814 1939 3772 
Q 1939 3731 1859 3686 
Q 1779 3642 1638 3443 
L 2266 3443 
Q 2771 3443 3040 3462 
Q 2694 2810 2291 2355 
Q 2714 2150 3245 1869 
L 2957 1459 
Q 2586 1741 1990 2048 
Q 1651 1728 1286 1453 
L 2042 1453 
Q 2560 1453 2771 1478 
Q 2752 1325 2752 998 
L 2752 442 
Q 2752 0 2803 -358 
L 2336 -358 
L 2336 19 
z
M 1370 390 
L 2336 390 
L 2336 1082 
L 1370 1082 
L 1370 390 
z
M 4307 2957 
Q 4570 2925 4755 2925 
L 4870 2931 
Q 4909 2931 4909 2912 
Q 4909 2893 4877 2867 
Q 4806 2816 4806 2643 
Q 4806 2285 4739 1440 
Q 4672 595 4243 89 
Q 3814 -416 3251 -627 
Q 3123 -442 2867 -269 
Q 3181 -154 3469 41 
Q 3757 237 3958 499 
Q 4160 762 4243 1062 
Q 4326 1363 4326 2246 
Q 4326 2630 4307 2957 
z
M 6138 -134 
L 5734 -531 
Q 5158 77 4653 454 
L 4992 794 
Q 5587 378 6138 -134 
z
" transform="scale(0.015625)"/>
       <path id="STHeiti-ff08" d="M 5651 -749 
L 5274 -749 
Q 4646 173 4409 835 
Q 4173 1498 4173 2266 
Q 4173 3034 4432 3750 
Q 4691 4467 5254 5267 
L 5645 5267 
Q 5082 4237 4928 3606 
Q 4774 2976 4774 2093 
Q 4774 1472 4953 861 
Q 5133 250 5651 -749 
z
" transform="scale(0.015625)"/>
       <path id="STHeiti-4e07" d="M 2304 4102 
Q 1312 4096 678 4026 
L 678 4659 
Q 960 4614 3107 4614 
Q 5254 4614 5946 4666 
L 5946 4026 
Q 5274 4102 4128 4102 
L 2918 4102 
Q 2918 3501 2880 3104 
L 4301 3104 
Q 4890 3104 5254 3168 
Q 5222 3053 5216 2925 
L 5082 922 
Q 5050 422 4944 195 
Q 4838 -32 4566 -134 
Q 4294 -237 3686 -288 
Q 3648 19 3347 410 
Q 3648 390 3885 390 
Q 4122 390 4262 473 
Q 4403 557 4457 765 
Q 4512 973 4544 1453 
L 4627 2611 
L 2835 2611 
Q 2714 1453 2304 829 
Q 1894 205 947 -384 
Q 774 -51 435 147 
Q 1229 429 1645 937 
Q 2061 1446 2185 2262 
Q 2310 3078 2310 3802 
Q 2310 3968 2304 4102 
z
" transform="scale(0.015625)"/>
       <path id="STHeiti-5143" d="M 5139 4269 
Q 4435 4320 3200 4320 
Q 1965 4320 1242 4269 
L 1242 4877 
Q 1920 4819 3251 4819 
Q 4582 4819 5139 4877 
L 5139 4269 
z
M 2765 2739 
Q 2790 1485 2425 787 
Q 2061 90 1011 -570 
Q 813 -230 506 -45 
Q 1459 326 1833 912 
Q 2208 1498 2182 2739 
Q 1018 2739 666 2694 
L 666 3277 
Q 1299 3232 3200 3232 
Q 5101 3232 5715 3277 
L 5715 2694 
Q 5094 2739 4102 2739 
L 4102 570 
Q 4102 326 4249 300 
Q 4397 275 4723 275 
Q 5050 275 5197 342 
Q 5344 410 5424 586 
Q 5504 762 5587 1171 
Q 5837 864 6150 813 
Q 6010 307 5869 92 
Q 5728 -122 5481 -192 
Q 5235 -262 4713 -262 
Q 4192 -262 3945 -204 
Q 3699 -147 3616 -16 
Q 3533 115 3533 390 
L 3533 2739 
L 2765 2739 
z
" transform="scale(0.015625)"/>
       <path id="STHeiti-ff09" d="M 1120 5267 
Q 1747 4346 1984 3683 
Q 2221 3021 2221 2253 
Q 2221 1485 1961 768 
Q 1702 51 1139 -749 
L 749 -749 
Q 1312 282 1465 912 
Q 1619 1542 1619 2426 
Q 1619 3046 1440 3657 
Q 1261 4269 742 5267 
L 1120 5267 
z
" transform="scale(0.015625)"/>
      </defs>
      <use xlink:href="#STHeiti-6210"/>
      <use xlink:href="#STHeiti-4ea4" transform="translate(99.999985 0)"/>
      <use xlink:href="#STHeiti-91d1" transform="translate(199.999969 0)"/>
      <use xlink:href="#STHeiti-989d" transform="translate(299.999954 0)"/>
      <use xlink:href="#STHeiti-ff08" transform="translate(399.999939 0)"/>
      <use xlink:href="#STHeiti-4e07" transform="translate(499.999924 0)"/>
      <use xlink:href="#STHeiti-5143" transform="translate(599.999908 0)"/>
      <use xlink:href="#STHeiti-ff09" transform="translate(699.999893 0)"/>
     </g>
    </g>
   </g>
   <g id="matplotlib.axis_2">
    <g id="ytick_1">
     <g id="line2d_17"/>
     <g id="text_10">
      <!-- F组 -->
      <g style="fill: #857d74" transform="translate(10.807656 228.164702) scale(0.11 -0.11)">
       <defs>
        <path id="STHeiti-46" d="M 557 4979 
L 2861 4979 
L 2861 4525 
L 1018 4525 
L 1018 3091 
L 2861 3091 
L 2861 2637 
L 1018 2637 
L 1018 384 
L 557 384 
L 557 4979 
z
" transform="scale(0.015625)"/>
        <path id="STHeiti-7ec4" d="M 1594 2829 
L 1011 2758 
Q 698 2726 531 2669 
Q 499 2957 390 3181 
Q 832 3443 1427 5101 
Q 1773 4902 1933 4860 
Q 2093 4819 2093 4787 
Q 2093 4755 2029 4729 
Q 1965 4704 1885 4608 
Q 1805 4512 1530 4083 
L 922 3123 
L 1805 3194 
Q 2067 3731 2221 4109 
Q 2490 3949 2746 3853 
Q 2803 3827 2803 3801 
Q 2803 3776 2752 3744 
Q 2701 3712 2608 3590 
Q 2515 3469 2138 2899 
L 1286 1626 
Q 1875 1670 2458 1760 
Q 2394 1549 2406 1280 
L 1190 1190 
Q 826 1165 608 1075 
Q 570 1344 467 1542 
Q 973 1811 1594 2829 
z
M 5594 141 
Q 6022 154 6131 173 
L 6131 -352 
Q 6093 -326 4371 -326 
Q 2650 -326 2400 -365 
L 2400 173 
Q 2554 147 2944 147 
L 2944 4218 
Q 2944 4666 2925 4864 
Q 3514 4832 4269 4832 
Q 5024 4832 5613 4864 
Q 5594 4672 5594 4218 
L 5594 141 
z
M 3450 3270 
L 5075 3270 
L 5075 4384 
L 3450 4384 
L 3450 3270 
z
M 3450 1773 
L 5075 1773 
L 5075 2816 
L 3450 2816 
L 3450 1773 
z
M 5075 1312 
L 3450 1312 
L 3450 141 
L 5075 141 
L 5075 1312 
z
M 2483 755 
Q 2445 634 2445 506 
Q 2445 378 2464 269 
Q 954 -38 493 -352 
Q 467 -45 352 294 
Q 1114 397 2483 755 
z
" transform="scale(0.015625)"/>
       </defs>
       <use xlink:href="#STHeiti-46"/>
       <use xlink:href="#STHeiti-7ec4" transform="translate(48.499985 0)"/>
      </g>
     </g>
    </g>
    <g id="ytick_2">
     <g id="line2d_18"/>
     <g id="text_11">
      <!-- C组 -->
      <g style="fill: #857d74" transform="translate(7.2 194.857884) scale(0.11 -0.11)">
       <defs>
        <path id="STHeiti-43" d="M 4838 4128 
L 4480 3853 
Q 3840 4646 2835 4646 
Q 2016 4646 1424 4070 
Q 832 3494 832 2659 
Q 832 1824 1411 1264 
Q 1990 704 2861 704 
Q 3834 704 4480 1459 
L 4838 1184 
Q 4499 736 3980 502 
Q 3462 269 2835 269 
Q 1741 269 1043 960 
Q 346 1651 346 2707 
Q 346 3360 669 3913 
Q 992 4467 1565 4780 
Q 2138 5094 2797 5094 
Q 3456 5094 3981 4844 
Q 4506 4595 4838 4128 
z
" transform="scale(0.015625)"/>
       </defs>
       <use xlink:href="#STHeiti-43"/>
       <use xlink:href="#STHeiti-7ec4" transform="translate(81.299988 0)"/>
      </g>
     </g>
    </g>
    <g id="ytick_3">
     <g id="line2d_19"/>
     <g id="text_12">
      <!-- A组 -->
      <g style="fill: #857d74" transform="translate(8.002656 161.551065) scale(0.11 -0.11)">
       <defs>
        <path id="STHeiti-41" d="M 2438 5165 
L 4582 384 
L 4090 384 
L 3366 1952 
L 1382 1952 
L 666 384 
L 154 384 
L 2323 5165 
L 2438 5165 
z
M 2381 4147 
L 1594 2419 
L 3162 2419 
L 2381 4147 
z
" transform="scale(0.015625)"/>
       </defs>
       <use xlink:href="#STHeiti-41"/>
       <use xlink:href="#STHeiti-7ec4" transform="translate(73.999985 0)"/>
      </g>
     </g>
    </g>
    <g id="ytick_4">
     <g id="line2d_20"/>
     <g id="text_13">
      <!-- E组 -->
      <g style="fill: #857d74" transform="translate(10.247344 128.244247) scale(0.11 -0.11)">
       <defs>
        <path id="STHeiti-45" d="M 563 4979 
L 3200 4979 
L 3200 4525 
L 1024 4525 
L 1024 3091 
L 3181 3091 
L 3181 2643 
L 1024 2643 
L 1024 838 
L 3181 838 
L 3181 384 
L 563 384 
L 563 4979 
z
" transform="scale(0.015625)"/>
       </defs>
       <use xlink:href="#STHeiti-45"/>
       <use xlink:href="#STHeiti-7ec4" transform="translate(53.599991 0)"/>
      </g>
     </g>
    </g>
    <g id="ytick_5">
     <g id="line2d_21"/>
     <g id="text_14">
      <!-- D组 -->
      <g style="fill: #857d74" transform="translate(7.957969 94.937429) scale(0.11 -0.11)">
       <defs>
        <path id="STHeiti-44" d="M 557 384 
L 557 4979 
L 1510 4979 
Q 2490 4979 2947 4835 
Q 3405 4691 3737 4380 
Q 4070 4070 4249 3622 
Q 4429 3174 4429 2576 
Q 4429 1978 4150 1450 
Q 3872 922 3395 653 
Q 2918 384 2022 384 
L 557 384 
z
M 998 819 
L 1530 819 
Q 2362 819 2736 902 
Q 3110 986 3392 1232 
Q 3674 1478 3821 1830 
Q 3968 2182 3968 2636 
Q 3968 3091 3798 3475 
Q 3629 3859 3315 4108 
Q 3002 4358 2576 4444 
Q 2150 4531 1325 4531 
L 998 4531 
L 998 819 
z
" transform="scale(0.015625)"/>
       </defs>
       <use xlink:href="#STHeiti-44"/>
       <use xlink:href="#STHeiti-7ec4" transform="translate(74.399994 0)"/>
      </g>
     </g>
    </g>
    <g id="ytick_6">
     <g id="line2d_22"/>
     <g id="text_15">
      <!-- B组 -->
      <g style="fill: #857d74" transform="translate(9.827969 61.630611) scale(0.11 -0.11)">
       <defs>
        <path id="STHeiti-42" d="M 570 4979 
L 1478 4979 
Q 2202 4979 2576 4688 
Q 2950 4397 2950 3853 
Q 2950 3552 2800 3299 
Q 2650 3046 2362 2893 
Q 2835 2739 3081 2432 
Q 3328 2125 3328 1702 
Q 3328 1133 2912 758 
Q 2496 384 1837 384 
L 570 384 
L 570 4979 
z
M 1024 4531 
L 1024 3059 
L 1286 3059 
Q 1888 3059 2182 3251 
Q 2477 3443 2477 3853 
Q 2477 4531 1555 4531 
L 1024 4531 
z
M 1024 2598 
L 1024 832 
L 1594 832 
Q 2086 832 2320 931 
Q 2554 1030 2701 1238 
Q 2848 1446 2848 1664 
Q 2848 1882 2765 2048 
Q 2682 2214 2518 2342 
Q 2355 2470 2128 2534 
Q 1901 2598 1280 2598 
L 1024 2598 
z
" transform="scale(0.015625)"/>
       </defs>
       <use xlink:href="#STHeiti-42"/>
       <use xlink:href="#STHeiti-7ec4" transform="translate(57.399994 0)"/>
      </g>
     </g>
    </g>
   </g>
   <g id="patch_9">
    <path d="M 30.642656 243.105 
L 30.642656 37.935 
" style="fill: none; stroke: #ada599; stroke-width: 0.8; stroke-linejoin: miter; stroke-linecap: square"/>
   </g>
   <g id="patch_10">
    <path d="M 30.642656 243.105 
L 558.044587 243.105 
" style="fill: none; stroke: #ada599; stroke-width: 0.8; stroke-linejoin: miter; stroke-linecap: square"/>
   </g>
   <g id="line2d_23">
    <path d="M 378.14597 243.105 
L 378.14597 37.935 
" clip-path="url(#pebaa6a432f)" style="fill: none; stroke-dasharray: 4.44,1.92; stroke-dashoffset: 0; stroke: #c25030; stroke-width: 1.2"/>
   </g>
   <g id="text_16">
    <!-- 均值 9,554 -->
    <g style="fill: #c25030" transform="translate(381.055774 41.058324) scale(0.09 -0.09)">
     <defs>
      <path id="STHeiti-5747" d="M 3565 3648 
Q 3290 3053 2822 2349 
Q 2624 2496 2278 2598 
Q 2643 2950 3001 3692 
Q 3360 4435 3456 5190 
Q 3814 5082 4205 5024 
Q 4282 5011 4282 4976 
Q 4282 4941 4192 4889 
Q 4102 4838 4019 4681 
Q 3936 4525 3770 4102 
L 4928 4102 
Q 5408 4102 5869 4154 
L 5741 416 
Q 5728 -38 5635 -236 
Q 5542 -435 5267 -531 
Q 4992 -627 4339 -685 
Q 4288 -320 4038 19 
Q 4333 -6 4525 -6 
Q 4877 -6 5033 96 
Q 5190 198 5203 627 
L 5306 3648 
L 3565 3648 
z
M 1690 1062 
Q 2150 1203 2509 1363 
Q 2464 1171 2464 1040 
Q 2464 909 2477 787 
Q 1459 538 493 19 
Q 448 416 262 755 
Q 646 794 1152 915 
L 1152 3059 
Q 685 3059 422 3021 
L 422 3578 
Q 659 3546 1152 3533 
Q 1152 4691 1114 4998 
Q 1261 4973 1747 4973 
Q 1830 4973 1830 4937 
Q 1830 4902 1760 4864 
Q 1690 4826 1690 4710 
L 1690 3533 
Q 2170 3539 2432 3578 
L 2432 3021 
Q 2182 3059 1690 3066 
L 1690 1062 
z
M 4416 2131 
L 3866 1875 
Q 3648 2445 3354 2778 
L 3891 3053 
Q 4160 2534 4416 2131 
z
M 4883 1280 
Q 3757 838 2976 454 
Q 2886 749 2714 1094 
Q 3770 1318 4864 1862 
Q 4851 1747 4851 1612 
Q 4851 1478 4883 1280 
z
" transform="scale(0.015625)"/>
      <path id="STHeiti-503c" d="M 2438 109 
L 2438 2912 
Q 2438 3322 2406 3610 
Q 2861 3571 3507 3565 
Q 3552 3834 3571 4186 
Q 2490 4173 2086 4147 
L 2086 4646 
Q 2586 4602 3597 4595 
Q 3610 5024 3590 5229 
Q 3840 5184 4294 5184 
Q 4346 5184 4346 5155 
Q 4346 5126 4301 5088 
Q 4192 4998 4128 4595 
Q 5440 4595 6022 4646 
L 6022 4147 
Q 5338 4192 4077 4186 
L 4013 3565 
Q 5043 3565 5434 3610 
Q 5408 3405 5408 2912 
L 5408 102 
Q 5805 109 6118 147 
L 6118 -365 
Q 5754 -320 3965 -320 
Q 2176 -320 1830 -358 
L 1830 147 
Q 2106 122 2438 109 
z
M 4915 2688 
L 4915 3155 
L 2925 3155 
L 2925 2688 
L 4915 2688 
z
M 2925 2323 
L 2925 1824 
L 4915 1824 
L 4915 2323 
L 2925 2323 
z
M 2925 1466 
L 2925 973 
L 4915 973 
L 4915 1466 
L 2925 1466 
z
M 4915 102 
L 4915 608 
L 2925 608 
L 2925 102 
L 4915 102 
z
M 1549 4026 
L 1549 -627 
L 966 -627 
Q 1037 70 1037 749 
L 1037 3066 
Q 845 2726 595 2349 
Q 448 2579 186 2752 
Q 685 3354 944 3933 
Q 1203 4512 1408 5216 
Q 1786 5024 1926 4995 
Q 2067 4966 2067 4918 
Q 2067 4870 1984 4825 
Q 1901 4781 1766 4493 
L 1549 4026 
z
" transform="scale(0.015625)"/>
      <path id="STHeiti-20" transform="scale(0.015625)"/>
      <path id="STHeiti-39" d="M 1229 269 
L 851 512 
L 2093 2394 
Q 1850 2310 1613 2310 
Q 1062 2310 688 2707 
Q 314 3104 314 3696 
Q 314 4288 730 4691 
Q 1146 5094 1750 5094 
Q 2355 5094 2748 4681 
Q 3142 4269 3142 3693 
Q 3142 3373 3011 3049 
Q 2880 2726 2624 2349 
L 1229 269 
z
M 762 3680 
Q 762 3277 1043 2995 
Q 1325 2714 1728 2714 
Q 2131 2714 2412 2998 
Q 2694 3283 2694 3680 
Q 2694 4077 2412 4361 
Q 2131 4646 1728 4646 
Q 1325 4646 1043 4364 
Q 762 4083 762 3680 
z
" transform="scale(0.015625)"/>
      <path id="STHeiti-2c" d="M 922 1229 
L 1344 1030 
L 710 -154 
L 397 -19 
L 922 1229 
z
" transform="scale(0.015625)"/>
      <path id="STHeiti-35" d="M 3149 4979 
L 3149 4544 
L 1510 4544 
L 1280 3290 
Q 1587 3379 1856 3379 
Q 2458 3379 2861 2953 
Q 3264 2528 3264 1862 
Q 3264 1197 2825 733 
Q 2387 269 1664 269 
Q 1114 269 726 598 
Q 339 928 262 1498 
L 730 1498 
Q 813 1114 1075 909 
Q 1338 704 1683 704 
Q 2138 704 2467 1043 
Q 2797 1382 2797 1888 
Q 2797 2349 2509 2646 
Q 2221 2944 1757 2944 
Q 1293 2944 730 2701 
L 1158 4979 
L 3149 4979 
z
" transform="scale(0.015625)"/>
     </defs>
     <use xlink:href="#STHeiti-5747"/>
     <use xlink:href="#STHeiti-503c" transform="translate(99.999985 0)"/>
     <use xlink:href="#STHeiti-20" transform="translate(199.999969 0)"/>
     <use xlink:href="#STHeiti-39" transform="translate(224.999954 0)"/>
     <use xlink:href="#STHeiti-2c" transform="translate(280.399948 0)"/>
     <use xlink:href="#STHeiti-35" transform="translate(308.099945 0)"/>
     <use xlink:href="#STHeiti-35" transform="translate(363.499939 0)"/>
     <use xlink:href="#STHeiti-34" transform="translate(418.899933 0)"/>
    </g>
   </g>
   <g id="text_17">
    <!-- 6,993 -->
    <g style="fill: #5a5349" transform="translate(289.360583 227.09642) scale(0.1 -0.1)">
     <defs>
      <path id="STHeiti-33" d="M 845 3917 
L 378 3917 
Q 506 4486 867 4790 
Q 1229 5094 1750 5094 
Q 2272 5094 2659 4748 
Q 3046 4403 3046 3910 
Q 3046 3315 2458 2970 
Q 2861 2803 3081 2473 
Q 3302 2144 3302 1754 
Q 3302 1146 2857 707 
Q 2413 269 1734 269 
Q 1133 269 742 611 
Q 352 954 224 1613 
L 672 1613 
Q 794 1158 1046 937 
Q 1299 717 1760 717 
Q 2221 717 2534 1011 
Q 2848 1306 2848 1741 
Q 2848 2176 2502 2441 
Q 2157 2707 1498 2720 
L 1498 3142 
Q 1971 3142 2268 3360 
Q 2566 3578 2566 3901 
Q 2566 4224 2326 4438 
Q 2086 4653 1747 4653 
Q 1408 4653 1200 4470 
Q 992 4288 845 3917 
z
" transform="scale(0.015625)"/>
     </defs>
     <use xlink:href="#STHeiti-36"/>
     <use xlink:href="#STHeiti-2c" transform="translate(55.399994 0)"/>
     <use xlink:href="#STHeiti-39" transform="translate(83.099991 0)"/>
     <use xlink:href="#STHeiti-39" transform="translate(138.499985 0)"/>
     <use xlink:href="#STHeiti-33" transform="translate(193.899979 0)"/>
    </g>
   </g>
   <g id="text_18">
    <!-- 7,392 -->
    <g style="fill: #5a5349" transform="translate(303.873229 193.789602) scale(0.1 -0.1)">
     <defs>
      <path id="STHeiti-37" d="M 461 4979 
L 3373 4979 
L 915 269 
L 538 461 
L 2662 4544 
L 461 4544 
L 461 4979 
z
" transform="scale(0.015625)"/>
     </defs>
     <use xlink:href="#STHeiti-37"/>
     <use xlink:href="#STHeiti-2c" transform="translate(55.399994 0)"/>
     <use xlink:href="#STHeiti-33" transform="translate(83.099991 0)"/>
     <use xlink:href="#STHeiti-39" transform="translate(138.499985 0)"/>
     <use xlink:href="#STHeiti-32" transform="translate(193.899979 0)"/>
    </g>
   </g>
   <g id="text_19">
    <!-- 10,014 -->
    <g style="fill: #5a5349" transform="translate(399.242047 160.482784) scale(0.1 -0.1)">
     <use xlink:href="#STHeiti-31"/>
     <use xlink:href="#STHeiti-30" transform="translate(55.399994 0)"/>
     <use xlink:href="#STHeiti-2c" transform="translate(110.799988 0)"/>
     <use xlink:href="#STHeiti-30" transform="translate(138.499985 0)"/>
     <use xlink:href="#STHeiti-31" transform="translate(193.899979 0)"/>
     <use xlink:href="#STHeiti-34" transform="translate(249.299973 0)"/>
    </g>
   </g>
   <g id="text_20">
    <!-- 10,119 -->
    <g style="fill: #5a5349" transform="translate(403.061165 127.175966) scale(0.1 -0.1)">
     <use xlink:href="#STHeiti-31"/>
     <use xlink:href="#STHeiti-30" transform="translate(55.399994 0)"/>
     <use xlink:href="#STHeiti-2c" transform="translate(110.799988 0)"/>
     <use xlink:href="#STHeiti-31" transform="translate(138.499985 0)"/>
     <use xlink:href="#STHeiti-31" transform="translate(193.899979 0)"/>
     <use xlink:href="#STHeiti-39" transform="translate(249.299973 0)"/>
    </g>
   </g>
   <g id="text_21">
    <!-- 10,848 -->
    <g style="fill: #5a5349" transform="translate(429.576751 93.869148) scale(0.1 -0.1)">
     <use xlink:href="#STHeiti-31"/>
     <use xlink:href="#STHeiti-30" transform="translate(55.399994 0)"/>
     <use xlink:href="#STHeiti-2c" transform="translate(110.799988 0)"/>
     <use xlink:href="#STHeiti-38" transform="translate(138.499985 0)"/>
     <use xlink:href="#STHeiti-34" transform="translate(193.899979 0)"/>
     <use xlink:href="#STHeiti-38" transform="translate(249.299973 0)"/>
    </g>
   </g>
   <g id="text_22">
    <!-- 11,955 -->
    <g style="fill: #5a5349" transform="translate(469.841161 60.56233) scale(0.1 -0.1)">
     <use xlink:href="#STHeiti-31"/>
     <use xlink:href="#STHeiti-31" transform="translate(55.399994 0)"/>
     <use xlink:href="#STHeiti-2c" transform="translate(110.799988 0)"/>
     <use xlink:href="#STHeiti-39" transform="translate(138.499985 0)"/>
     <use xlink:href="#STHeiti-35" transform="translate(193.899979 0)"/>
     <use xlink:href="#STHeiti-35" transform="translate(249.299973 0)"/>
    </g>
   </g>
   <g id="patch_11">
    <path d="M 490.600871 227.624882 
Q 479.027753 225.857051 468.338806 224.224279 
" style="fill: none; stroke: #2e8b6e; stroke-width: 0.8; stroke-linecap: round"/>
    <path d="M 471.625724 226.547245 
L 468.338806 224.224279 
L 472.16933 222.988525 
" style="fill: none; stroke: #2e8b6e; stroke-width: 0.8; stroke-linecap: round"/>
   </g>
   <g id="text_23">
    <!-- 领先均值 25% -->
    <g style="fill: #2e8b6e" transform="translate(494.574493 235.444432) scale(0.09 -0.09)">
     <defs>
      <path id="STHeiti-9886" d="M 1965 4653 
Q 2413 4294 3027 3725 
L 2630 3270 
Q 2291 3782 1715 4275 
Q 1152 3373 602 2720 
Q 410 3002 173 3130 
Q 685 3539 985 3990 
Q 1286 4442 1574 5190 
Q 1946 4986 2202 4947 
Q 2259 4941 2259 4905 
Q 2259 4870 2192 4851 
Q 2125 4832 1965 4653 
z
M 4134 4390 
Q 3373 4390 2848 4346 
L 2848 4870 
Q 3347 4819 4460 4819 
Q 5574 4819 6080 4870 
L 6080 4346 
Q 5357 4390 4691 4390 
Q 4602 4006 4557 3635 
Q 5094 3635 5779 3654 
Q 5760 3450 5760 2893 
L 5760 1658 
Q 5760 1229 5798 858 
L 5248 858 
L 5242 3206 
L 3603 3206 
L 3597 736 
L 3078 736 
Q 3123 1171 3123 1536 
L 3123 2893 
Q 3123 3488 3098 3654 
Q 3379 3635 3994 3635 
Q 4122 3974 4134 4390 
z
M 2144 2784 
L 1638 2566 
Q 1542 3014 1331 3334 
L 1824 3539 
Q 1978 3066 2144 2784 
z
M 4122 2752 
Q 4371 2714 4608 2714 
L 4781 2720 
Q 4806 2720 4806 2701 
Q 4806 2682 4780 2659 
Q 4755 2637 4716 2477 
Q 4678 2317 4672 2227 
Q 4602 1210 4499 800 
Q 4397 390 4029 48 
Q 3661 -294 2880 -621 
Q 2752 -339 2483 -96 
Q 3046 13 3427 233 
Q 3808 454 3987 844 
Q 4166 1235 4166 2067 
Q 4166 2419 4122 2752 
z
M 1651 723 
L 2170 1824 
L 1638 1824 
Q 1082 1830 512 1760 
L 512 2336 
Q 813 2285 1693 2285 
Q 2573 2285 2874 2336 
L 1952 288 
Q 2195 -90 2234 -179 
L 1754 -480 
Q 1350 422 877 966 
L 1267 1248 
Q 1427 1050 1651 723 
z
M 6144 -70 
L 5690 -499 
Q 5254 32 4659 422 
L 4998 781 
Q 5581 416 6144 -70 
z
" transform="scale(0.015625)"/>
      <path id="STHeiti-5148" d="M 3078 3661 
L 1722 3661 
Q 1542 3251 1414 3027 
Q 1197 3162 806 3219 
Q 1363 3923 1645 5056 
Q 2074 4902 2253 4858 
Q 2310 4838 2310 4816 
Q 2310 4794 2285 4768 
Q 2182 4666 1939 4128 
L 3078 4128 
Q 3078 4998 3021 5293 
Q 3437 5222 3712 5216 
Q 3834 5210 3834 5174 
Q 3834 5139 3773 5091 
Q 3712 5043 3677 4944 
Q 3642 4845 3642 4762 
L 3642 4128 
Q 4915 4141 5414 4179 
L 5414 3603 
Q 4826 3654 3642 3661 
L 3642 2733 
Q 5453 2733 5997 2790 
L 5997 2189 
Q 5549 2246 4064 2246 
L 4064 403 
Q 4064 256 4096 201 
Q 4128 147 4240 134 
Q 4352 122 4653 122 
Q 4954 122 5085 176 
Q 5216 230 5283 403 
Q 5350 576 5395 966 
Q 5645 704 5990 627 
Q 5856 134 5741 -64 
Q 5626 -262 5402 -329 
Q 5178 -397 4656 -397 
Q 4134 -397 3900 -358 
Q 3667 -320 3587 -211 
Q 3507 -102 3507 154 
L 3507 2246 
L 2765 2246 
Q 2758 1018 2348 422 
Q 1939 -173 883 -621 
Q 826 -250 410 -83 
Q 1427 186 1824 694 
Q 2221 1203 2202 2246 
Q 1037 2246 454 2189 
L 454 2790 
Q 998 2733 3078 2733 
L 3078 3661 
z
" transform="scale(0.015625)"/>
      <path id="STHeiti-25" d="M 4314 5184 
L 966 64 
L 550 64 
L 3603 4730 
Q 3232 4640 2845 4614 
Q 2458 4589 2278 4595 
L 2112 4602 
Q 2304 4333 2304 4032 
Q 2304 3571 1993 3248 
Q 1683 2925 1225 2925 
Q 768 2925 454 3238 
Q 141 3552 141 4006 
Q 141 4461 464 4774 
Q 787 5088 1210 5088 
Q 1382 5088 1702 5021 
Q 2022 4954 2490 4954 
Q 3232 4954 3949 5184 
L 4314 5184 
z
M 1914 4013 
Q 1914 4301 1712 4499 
Q 1510 4698 1225 4698 
Q 941 4698 739 4496 
Q 538 4294 538 4012 
Q 538 3731 739 3529 
Q 941 3328 1225 3328 
Q 1510 3328 1712 3526 
Q 1914 3725 1914 4013 
z
M 2656 1331 
Q 2656 1773 2973 2093 
Q 3290 2413 3734 2413 
Q 4179 2413 4496 2096 
Q 4813 1779 4813 1331 
Q 4813 883 4496 566 
Q 4179 250 3734 250 
Q 3290 250 2973 566 
Q 2656 883 2656 1331 
z
M 4422 1331 
Q 4422 1613 4220 1814 
Q 4019 2016 3734 2016 
Q 3450 2016 3251 1814 
Q 3053 1613 3053 1331 
Q 3053 1050 3251 848 
Q 3450 646 3734 646 
Q 4019 646 4220 844 
Q 4422 1043 4422 1331 
z
" transform="scale(0.015625)"/>
     </defs>
     <use xlink:href="#STHeiti-9886"/>
     <use xlink:href="#STHeiti-5148" transform="translate(99.999985 0)"/>
     <use xlink:href="#STHeiti-5747" transform="translate(199.999969 0)"/>
     <use xlink:href="#STHeiti-503c" transform="translate(299.999954 0)"/>
     <use xlink:href="#STHeiti-20" transform="translate(399.999939 0)"/>
     <use xlink:href="#STHeiti-32" transform="translate(424.999924 0)"/>
     <use xlink:href="#STHeiti-35" transform="translate(480.399918 0)"/>
     <use xlink:href="#STHeiti-25" transform="translate(535.799911 0)"/>
    </g>
   </g>
   <g id="patch_12">
    <path d="M 337.730678 44.282642 
Q 312.333709 50.529118 287.805282 56.561971 
" style="fill: none; stroke: #c25030; stroke-width: 0.8; stroke-linecap: round"/>
    <path d="M 291.731002 57.450071 
L 287.805282 56.561971 
L 290.871194 53.954255 
" style="fill: none; stroke: #c25030; stroke-width: 0.8; stroke-linecap: round"/>
   </g>
   <g id="text_24">
    <!-- 仅为 B 组的 58.5% -->
    <g style="fill: #c25030" transform="translate(328.642934 40.599545) scale(0.09 -0.09)">
     <defs>
      <path id="STHeiti-4ec5" d="M 1754 3866 
L 1754 -589 
L 1171 -589 
Q 1242 122 1242 813 
L 1242 2893 
Q 1062 2579 762 2144 
Q 595 2451 371 2624 
Q 915 3226 1248 4006 
Q 1581 4787 1677 5216 
Q 1914 5107 2285 5030 
Q 2406 5011 2406 4956 
Q 2406 4902 2291 4832 
Q 2189 4768 1754 3866 
z
M 2752 3994 
Q 2560 3981 2362 3955 
L 2362 4531 
Q 3021 4480 4067 4480 
Q 5114 4480 5626 4531 
Q 5261 2285 4371 1107 
Q 5043 448 6086 230 
Q 5818 -38 5677 -422 
Q 4627 -26 4000 666 
Q 3302 -51 2342 -570 
Q 2170 -262 1920 -122 
Q 2963 275 3654 1082 
Q 3053 1958 2752 3994 
z
M 3328 4006 
Q 3456 2502 4000 1536 
Q 4691 2566 4928 4006 
L 3328 4006 
z
" transform="scale(0.015625)"/>
      <path id="STHeiti-4e3a" d="M 3597 3059 
Q 3283 1824 2761 1075 
Q 2240 326 1094 -499 
Q 845 -230 486 -64 
Q 2496 858 3066 3059 
Q 1696 3053 858 3008 
L 858 3597 
Q 1510 3546 3168 3546 
Q 3309 4416 3309 5030 
Q 3309 5146 3302 5229 
Q 3667 5101 4077 5056 
Q 4115 5050 4115 5027 
Q 4115 5005 4102 4992 
Q 4006 4934 3964 4819 
Q 3923 4704 3878 4406 
Q 3834 4109 3712 3546 
Q 5018 3558 5702 3603 
Q 5638 2611 5542 1667 
Q 5446 723 5379 406 
Q 5312 90 5181 -105 
Q 5050 -301 4768 -413 
Q 4486 -525 3981 -544 
Q 3955 -122 3693 186 
Q 3936 160 4189 160 
Q 4442 160 4595 256 
Q 4749 352 4819 585 
Q 4890 819 4954 1484 
Q 5018 2150 5069 3059 
L 3597 3059 
z
M 2643 4038 
L 2010 3770 
Q 1824 4339 1491 4730 
L 2086 5018 
Q 2426 4390 2643 4038 
z
M 4474 1312 
L 3981 922 
Q 3738 1344 3315 1741 
L 3789 2086 
Q 4077 1690 4474 1312 
z
" transform="scale(0.015625)"/>
      <path id="STHeiti-7684" d="M 1210 262 
L 1210 -358 
L 621 -358 
Q 672 70 672 582 
L 672 3443 
Q 672 3795 627 4026 
Q 813 4006 1293 3981 
Q 1421 4646 1421 5126 
Q 1773 5043 2112 5030 
Q 2195 5024 2195 4979 
Q 2195 4934 2121 4867 
Q 2048 4800 1984 4624 
Q 1920 4448 1798 3974 
Q 2534 3974 2950 4026 
Q 2906 3776 2906 3443 
L 2906 627 
Q 2906 173 2957 -307 
L 2362 -307 
L 2362 262 
L 1210 262 
z
M 2362 2406 
L 2362 3533 
L 1210 3533 
L 1210 2406 
L 2362 2406 
z
M 2362 698 
L 2362 1971 
L 1210 1971 
L 1210 698 
L 2362 698 
z
M 4102 4045 
L 5165 4045 
Q 5542 4045 5888 4096 
Q 5856 3923 5837 3462 
L 5702 243 
Q 5683 -160 5376 -349 
Q 5069 -538 4467 -576 
Q 4410 -134 4115 134 
Q 4397 102 4640 102 
Q 4883 102 5020 185 
Q 5158 269 5171 531 
L 5293 3552 
L 3936 3552 
Q 3763 3053 3456 2509 
Q 3213 2758 2982 2829 
Q 3565 3597 3827 5120 
Q 4141 5011 4506 5011 
Q 4589 5011 4589 4966 
Q 4589 4922 4499 4851 
Q 4352 4736 4102 4045 
z
M 4653 1478 
L 4090 1184 
Q 3885 1894 3552 2381 
L 4070 2605 
Q 4326 1997 4653 1478 
z
" transform="scale(0.015625)"/>
      <path id="STHeiti-2e" d="M 582 685 
Q 582 845 697 957 
Q 813 1069 969 1069 
Q 1126 1069 1238 957 
Q 1350 845 1350 681 
Q 1350 518 1238 406 
Q 1126 294 969 294 
Q 813 294 697 409 
Q 582 525 582 685 
z
" transform="scale(0.015625)"/>
     </defs>
     <use xlink:href="#STHeiti-4ec5"/>
     <use xlink:href="#STHeiti-4e3a" transform="translate(99.999985 0)"/>
     <use xlink:href="#STHeiti-20" transform="translate(199.999969 0)"/>
     <use xlink:href="#STHeiti-42" transform="translate(224.999954 0)"/>
     <use xlink:href="#STHeiti-20" transform="translate(282.399948 0)"/>
     <use xlink:href="#STHeiti-7ec4" transform="translate(307.399933 0)"/>
     <use xlink:href="#STHeiti-7684" transform="translate(407.399918 0)"/>
     <use xlink:href="#STHeiti-20" transform="translate(507.399902 0)"/>
     <use xlink:href="#STHeiti-35" transform="translate(532.399887 0)"/>
     <use xlink:href="#STHeiti-38" transform="translate(587.799881 0)"/>
     <use xlink:href="#STHeiti-2e" transform="translate(643.199875 0)"/>
     <use xlink:href="#STHeiti-35" transform="translate(670.899872 0)"/>
     <use xlink:href="#STHeiti-25" transform="translate(726.299866 0)"/>
    </g>
   </g>
   <g id="text_25">
    <!-- 2025年 Q1 电销中心运营数据 -->
    <g style="fill: #857d74" transform="translate(30.642656 33.8316) scale(0.11 -0.11)">
     <defs>
      <path id="STHeiti-5e74" d="M 2125 4346 
L 3738 4346 
Q 5107 4346 5696 4397 
L 5696 3827 
Q 5088 3878 3770 3878 
L 3770 2886 
Q 4819 2893 5395 2938 
L 5395 2406 
Q 4602 2451 3770 2458 
L 3770 1338 
Q 5658 1338 6080 1395 
L 6080 819 
Q 5709 870 3770 877 
Q 3770 -26 3821 -704 
L 3174 -704 
Q 3226 -19 3226 877 
Q 973 877 371 819 
L 371 1395 
Q 730 1357 1466 1344 
L 1466 2349 
Q 1466 2682 1421 2938 
Q 2093 2886 3226 2886 
L 3226 3878 
L 1862 3878 
Q 1510 3277 1120 2803 
Q 922 2938 563 3040 
Q 973 3430 1341 4028 
Q 1709 4627 1907 5216 
Q 2234 5088 2426 5043 
Q 2618 4998 2618 4966 
Q 2618 4934 2522 4886 
Q 2426 4838 2125 4346 
z
M 3226 2458 
L 1984 2458 
L 1984 1338 
L 3226 1338 
L 3226 2458 
z
" transform="scale(0.015625)"/>
      <path id="STHeiti-51" d="M 4416 883 
L 5094 19 
L 4531 19 
L 4064 614 
Q 3494 269 2822 269 
Q 1779 269 1072 963 
Q 365 1658 365 2662 
Q 365 3693 1049 4393 
Q 1734 5094 2784 5094 
Q 3443 5094 4003 4774 
Q 4563 4454 4883 3897 
Q 5203 3341 5203 2682 
Q 5203 1626 4416 883 
z
M 4134 1242 
Q 4730 1830 4730 2668 
Q 4730 3507 4154 4076 
Q 3578 4646 2778 4646 
Q 1978 4646 1411 4070 
Q 845 3494 845 2659 
Q 845 1824 1421 1270 
Q 1997 717 2790 717 
Q 3322 717 3776 979 
L 2752 2278 
L 3309 2278 
L 4134 1242 
z
" transform="scale(0.015625)"/>
      <path id="STHeiti-7535" d="M 3232 4269 
Q 4602 4275 5222 4346 
Q 5178 4083 5178 3622 
L 5178 1843 
Q 5178 1325 5242 851 
L 4640 851 
L 4640 1235 
L 3232 1235 
L 3232 448 
Q 3232 307 3302 243 
Q 3373 179 3613 147 
Q 3853 115 4218 115 
Q 5229 115 5417 224 
Q 5606 333 5638 922 
Q 5811 531 6176 531 
Q 6042 64 5914 -86 
Q 5786 -237 5450 -285 
Q 5114 -333 4378 -333 
Q 3642 -333 3277 -285 
Q 2912 -237 2809 -134 
Q 2707 -32 2707 205 
L 2707 1235 
L 1370 1235 
L 1370 582 
L 781 582 
Q 851 1024 851 1638 
L 851 3622 
Q 851 4045 806 4346 
Q 1440 4275 2707 4269 
Q 2707 4947 2637 5267 
Q 2912 5229 3334 5229 
Q 3437 5229 3437 5174 
Q 3437 5120 3373 5094 
Q 3309 5069 3270 4998 
Q 3232 4928 3232 4870 
L 3232 4269 
z
M 2707 3808 
L 1370 3808 
L 1370 2963 
L 2707 2963 
L 2707 3808 
z
M 4640 2963 
L 4640 3808 
L 3232 3808 
L 3232 2963 
L 4640 2963 
z
M 1370 2534 
L 1370 1670 
L 2707 1670 
L 2707 2534 
L 1370 2534 
z
M 4640 1670 
L 4640 2534 
L 3232 2534 
L 3232 1670 
L 4640 1670 
z
" transform="scale(0.015625)"/>
      <path id="STHeiti-9500" d="M 4000 3264 
L 4000 4474 
Q 4000 4845 3955 5242 
Q 4141 5203 4608 5203 
Q 4710 5203 4710 5161 
Q 4710 5120 4640 5050 
Q 4518 4941 4518 4723 
L 4518 3264 
Q 5254 3270 5741 3315 
Q 5702 3072 5702 2496 
L 5702 -147 
Q 5702 -314 5641 -400 
Q 5581 -486 5385 -537 
Q 5190 -589 4794 -614 
Q 4730 -346 4576 -70 
Q 4851 -70 4976 -54 
Q 5101 -38 5136 3 
Q 5171 45 5171 128 
L 5171 710 
L 3437 710 
L 3437 -538 
L 2867 -538 
Q 2912 -58 2912 410 
L 2912 2496 
Q 2912 3110 2880 3315 
Q 3251 3283 4000 3264 
z
M 3437 2214 
L 5171 2214 
L 5171 2854 
L 3437 2854 
L 3437 2214 
z
M 5171 1805 
L 3437 1805 
L 3437 1133 
L 5171 1133 
L 5171 1805 
z
M 1184 3866 
Q 896 3456 602 3130 
Q 442 3354 250 3475 
Q 890 4102 1382 5210 
Q 1606 5062 1804 5011 
Q 2003 4960 2003 4909 
Q 2003 4858 1881 4794 
Q 1760 4730 1459 4282 
Q 2234 4282 2464 4314 
L 2464 3834 
Q 2259 3866 1184 3866 
z
M 5414 4960 
Q 5722 4768 5958 4666 
Q 6022 4640 6022 4605 
Q 6022 4570 5939 4544 
Q 5856 4518 5728 4368 
Q 5600 4218 5216 3674 
Q 4979 3821 4781 3872 
Q 5235 4461 5414 4960 
z
M 3610 3917 
L 3098 3674 
Q 2950 4179 2624 4627 
L 3104 4851 
Q 3341 4512 3610 3917 
z
M 1171 1600 
Q 627 1581 397 1542 
L 397 2067 
Q 608 2022 1171 2003 
L 1171 2810 
Q 896 2790 774 2765 
L 774 3270 
Q 1094 3219 1564 3219 
Q 2035 3219 2438 3270 
L 2438 2765 
Q 2138 2810 1664 2822 
L 1664 2003 
Q 2278 2016 2573 2067 
L 2573 1542 
Q 2195 1594 1664 1606 
L 1664 480 
Q 2074 774 2298 1018 
Q 2362 730 2496 595 
L 1760 -26 
Q 1472 -275 1331 -486 
Q 1178 -205 1005 -38 
Q 1171 115 1171 493 
L 1171 1600 
z
" transform="scale(0.015625)"/>
      <path id="STHeiti-4e2d" d="M 5011 1517 
L 3482 1517 
L 3482 582 
Q 3482 45 3546 -570 
L 2861 -570 
Q 2925 90 2925 582 
L 2925 1517 
L 1440 1517 
L 1440 1062 
L 851 1062 
Q 896 1555 896 2016 
L 896 3398 
Q 896 3763 851 4058 
Q 1254 4000 2925 3987 
L 2925 4288 
Q 2925 5075 2861 5242 
Q 3213 5203 3539 5203 
Q 3629 5203 3629 5174 
Q 3629 5146 3555 5085 
Q 3482 5024 3482 4736 
L 3482 3987 
Q 5114 3994 5619 4058 
Q 5587 3603 5587 3270 
L 5587 2042 
Q 5587 1779 5619 1126 
L 5011 1126 
L 5011 1517 
z
M 3482 1997 
L 5011 1997 
L 5011 3507 
L 3482 3507 
L 3482 1997 
z
M 1440 1997 
L 2925 1997 
L 2925 3507 
L 1440 3507 
L 1440 1997 
z
" transform="scale(0.015625)"/>
      <path id="STHeiti-5fc3" d="M 4122 3853 
L 3558 3411 
Q 3053 4166 2419 4717 
L 2925 5114 
Q 3469 4467 4122 3853 
z
M 5139 717 
Q 4973 192 4854 3 
Q 4736 -186 4502 -234 
Q 4269 -282 4003 -298 
Q 3738 -314 3424 -314 
Q 2701 -314 2505 -259 
Q 2310 -205 2230 -35 
Q 2150 134 2150 512 
L 2150 2419 
Q 2150 3002 2093 3277 
Q 2317 3245 2470 3245 
L 2765 3245 
Q 2861 3245 2861 3213 
Q 2861 3181 2797 3130 
Q 2720 3059 2720 2931 
L 2720 602 
Q 2720 448 2768 361 
Q 2816 275 2960 262 
Q 3104 250 3386 250 
Q 4013 250 4166 294 
Q 4320 339 4390 515 
Q 4461 691 4525 1171 
Q 4723 819 5139 717 
z
M 6074 1645 
L 5408 1318 
Q 5101 2112 4416 2899 
L 4909 3232 
Q 5446 2477 6074 1645 
z
M 832 3091 
Q 1018 3034 1123 3021 
Q 1229 3008 1379 3008 
Q 1530 3008 1530 2976 
Q 1530 2944 1469 2886 
Q 1408 2829 1305 2310 
Q 1203 1792 979 806 
Q 749 922 294 947 
Q 838 1920 832 3091 
z
" transform="scale(0.015625)"/>
      <path id="STHeiti-8fd0" d="M 1741 4013 
L 1152 3821 
Q 998 4525 781 4934 
L 1306 5094 
Q 1555 4550 1741 4013 
z
M 5542 4365 
Q 5088 4390 4086 4390 
Q 3085 4390 2605 4346 
L 2605 4896 
Q 3098 4851 4077 4851 
Q 5056 4851 5542 4896 
L 5542 4365 
z
M 3437 3014 
Q 2573 3008 2086 2970 
L 2086 3514 
Q 2726 3469 4044 3469 
Q 5363 3469 6003 3514 
L 6003 2989 
Q 5510 3021 4988 3021 
Q 4467 3021 4070 3014 
Q 3686 2182 3187 1318 
L 4870 1453 
Q 4621 1926 4326 2336 
L 4749 2566 
Q 5274 1869 5779 1024 
L 5229 730 
Q 5139 941 5069 1075 
Q 2874 902 2560 730 
Q 2522 1024 2400 1248 
Q 2592 1318 2729 1462 
Q 2867 1606 3059 2012 
Q 3251 2419 3437 3014 
z
M 1197 646 
L 1197 2618 
L 864 2618 
Q 608 2618 448 2592 
L 448 3142 
Q 730 3104 1101 3104 
Q 1472 3104 1754 3142 
Q 1715 2886 1715 2374 
L 1715 659 
Q 1837 621 1978 538 
Q 2573 179 3981 179 
Q 4832 179 6054 301 
Q 5901 0 5914 -307 
Q 4922 -333 4253 -333 
Q 3584 -333 3158 -288 
Q 2733 -243 2454 -150 
Q 2176 -58 1811 134 
Q 1606 243 1462 243 
Q 1318 243 1171 76 
Q 1024 -90 832 -448 
Q 627 -205 326 -32 
Q 902 512 1197 646 
z
" transform="scale(0.015625)"/>
      <path id="STHeiti-8425" d="M 4282 3693 
Q 5274 3706 5856 3731 
L 5856 2662 
L 5344 2662 
L 5344 3277 
L 1082 3277 
L 1082 2624 
L 570 2624 
L 570 3731 
Q 1082 3699 2106 3693 
L 2106 4218 
Q 1056 4205 467 4160 
L 467 4666 
Q 1133 4614 2106 4614 
Q 2099 4973 2054 5178 
Q 2387 5133 2650 5133 
Q 2733 5133 2733 5101 
Q 2733 5069 2681 5037 
Q 2630 5005 2617 4979 
Q 2605 4954 2605 4890 
L 2605 4614 
L 3782 4614 
Q 3776 4947 3738 5171 
Q 4019 5133 4326 5133 
Q 4410 5133 4410 5101 
Q 4410 5069 4358 5037 
Q 4307 5005 4294 4979 
Q 4282 4954 4282 4890 
L 4282 4614 
Q 5299 4614 5965 4666 
L 5965 4160 
Q 5344 4218 4282 4218 
L 4282 3693 
z
M 2605 3693 
L 3782 3693 
L 3782 4218 
L 2605 4218 
L 2605 3693 
z
M 4794 1568 
Q 4230 1587 3270 1587 
Q 2310 1587 1587 1562 
Q 1619 1773 1619 2176 
Q 1619 2579 1587 2874 
Q 2086 2848 3190 2848 
Q 4294 2848 4794 2874 
Q 4774 2611 4774 2217 
Q 4774 1824 4794 1568 
z
M 4269 1971 
L 4269 2464 
L 2118 2464 
L 2118 1971 
L 4269 1971 
z
M 4698 -109 
L 1722 -109 
L 1722 -576 
L 1152 -576 
Q 1197 -333 1197 -64 
L 1197 890 
Q 1197 1037 1158 1197 
Q 1350 1184 3235 1184 
Q 5120 1184 5280 1197 
Q 5248 1082 5248 890 
L 5248 0 
Q 5248 -269 5293 -512 
L 4698 -512 
L 4698 -109 
z
M 1722 288 
L 4698 288 
L 4698 794 
L 1722 794 
L 1722 288 
z
" transform="scale(0.015625)"/>
      <path id="STHeiti-6570" d="M 4640 480 
Q 4173 -51 3194 -467 
Q 3059 -237 2803 -26 
Q 3238 70 3673 323 
Q 4109 576 4365 890 
Q 3994 1549 3962 2835 
Q 3744 2458 3520 2176 
Q 3366 2419 3206 2522 
Q 3584 3040 3837 3747 
Q 4090 4454 4147 5171 
Q 4486 5062 4800 5037 
Q 4877 5030 4877 4988 
Q 4877 4947 4781 4896 
Q 4704 4858 4480 4128 
L 5216 4128 
Q 5747 4128 6003 4179 
L 6003 3661 
Q 5850 3680 5562 3699 
Q 5440 1773 4934 896 
Q 5254 518 6112 250 
Q 5856 6 5754 -365 
Q 4902 141 4640 480 
z
M 4627 1363 
Q 5018 2253 5088 3706 
L 4352 3706 
Q 4237 3328 3981 2874 
L 4384 2886 
Q 4384 1907 4627 1363 
z
M 1549 3526 
Q 1222 3520 589 3488 
L 589 3942 
Q 1158 3898 1850 3898 
L 1850 4499 
Q 1850 4800 1786 5165 
Q 2042 5139 2362 5139 
Q 2458 5139 2458 5094 
Q 2458 5050 2406 5030 
Q 2355 5011 2336 4976 
Q 2317 4941 2317 4845 
L 2317 3898 
Q 2758 3904 3507 3942 
L 3507 3488 
Q 2810 3526 2317 3533 
Q 2317 2970 2362 2515 
L 1805 2515 
Q 1850 3034 1850 3456 
Q 1632 3014 1401 2745 
Q 1171 2477 755 2189 
Q 608 2406 282 2573 
Q 1030 2816 1549 3526 
z
M 2861 4922 
Q 3155 4826 3386 4794 
Q 3462 4781 3462 4755 
Q 3462 4730 3388 4701 
Q 3315 4672 3228 4521 
Q 3142 4371 3014 4122 
Q 2835 4166 2560 4186 
Q 2746 4461 2861 4922 
z
M 1510 4230 
L 973 4154 
Q 966 4461 883 4806 
L 1389 4870 
Q 1459 4595 1510 4230 
z
M 3360 2790 
L 3046 2477 
Q 2765 2816 2464 3078 
L 2790 3328 
Q 3034 3117 3360 2790 
z
M 2899 755 
Q 3168 666 3450 525 
Q 3251 314 3168 128 
Q 2886 288 2637 390 
Q 2394 128 1984 -51 
Q 1574 -230 781 -410 
Q 627 -115 346 109 
Q 1619 134 2157 557 
Q 1709 691 1030 781 
Q 1248 1165 1408 1555 
Q 800 1549 531 1504 
L 531 1965 
Q 858 1939 1536 1926 
Q 1600 2118 1696 2458 
Q 1946 2355 2214 2336 
Q 2342 2323 2342 2294 
Q 2342 2266 2243 2198 
Q 2144 2131 2035 1926 
L 2899 1926 
Q 3162 1926 3341 1971 
Q 3123 1158 2899 755 
z
M 1862 1555 
L 1626 1043 
Q 2118 966 2470 883 
Q 2662 1165 2726 1555 
L 1862 1555 
z
" transform="scale(0.015625)"/>
      <path id="STHeiti-636e" d="M 1229 2176 
L 1229 3245 
Q 730 3245 448 3187 
L 448 3731 
Q 691 3680 1229 3680 
Q 1229 4454 1216 4681 
Q 1203 4909 1152 5114 
Q 1376 5069 1734 5069 
Q 1888 5069 1888 5021 
Q 1888 4973 1811 4915 
Q 1734 4858 1712 4810 
Q 1690 4762 1690 4678 
L 1690 3686 
Q 2016 3693 2208 3731 
L 2208 3187 
Q 1971 3232 1690 3238 
L 1690 2355 
Q 1971 2477 2240 2624 
Q 2234 2323 2310 2106 
Q 1990 2010 1690 1894 
L 1690 186 
Q 1690 -102 1635 -224 
Q 1581 -346 1395 -419 
Q 1210 -493 736 -576 
Q 723 -243 467 90 
Q 704 51 858 51 
Q 1229 51 1229 269 
L 1229 1696 
Q 794 1485 480 1242 
Q 454 1587 365 1920 
Q 838 2042 1229 2176 
z
M 4627 2214 
L 4627 1523 
Q 5510 1523 5722 1568 
Q 5683 1408 5683 1030 
L 5683 160 
Q 5683 -179 5728 -480 
L 5190 -480 
L 5190 -218 
L 3738 -218 
L 3738 -550 
L 3200 -550 
Q 3245 -307 3245 96 
L 3245 1030 
Q 3245 1357 3206 1568 
Q 3469 1530 4166 1523 
L 4166 2214 
Q 3494 2208 3098 2150 
L 3098 2669 
Q 3533 2618 4166 2611 
L 4166 3302 
L 3027 3302 
Q 3027 1690 2851 986 
Q 2675 282 2253 -474 
Q 2048 -307 1741 -282 
Q 2195 384 2368 1091 
Q 2541 1798 2541 2848 
Q 2541 3898 2496 4838 
Q 2778 4768 4067 4768 
Q 5357 4768 5741 4838 
Q 5696 4461 5696 4051 
Q 5696 3642 5741 3238 
Q 5434 3302 4627 3302 
L 4627 2611 
Q 5542 2611 6042 2669 
L 6042 2150 
Q 5574 2214 4627 2214 
z
M 3027 4378 
L 3027 3712 
L 5235 3712 
L 5235 4378 
L 3027 4378 
z
M 5190 205 
L 5190 1146 
L 3738 1146 
L 3738 205 
L 5190 205 
z
" transform="scale(0.015625)"/>
     </defs>
     <use xlink:href="#STHeiti-32"/>
     <use xlink:href="#STHeiti-30" transform="translate(55.399994 0)"/>
     <use xlink:href="#STHeiti-32" transform="translate(110.799988 0)"/>
     <use xlink:href="#STHeiti-35" transform="translate(166.199982 0)"/>
     <use xlink:href="#STHeiti-5e74" transform="translate(221.599976 0)"/>
     <use xlink:href="#STHeiti-20" transform="translate(321.59996 0)"/>
     <use xlink:href="#STHeiti-51" transform="translate(346.599945 0)"/>
     <use xlink:href="#STHeiti-31" transform="translate(433.699936 0)"/>
     <use xlink:href="#STHeiti-20" transform="translate(489.09993 0)"/>
     <use xlink:href="#STHeiti-7535" transform="translate(514.099915 0)"/>
     <use xlink:href="#STHeiti-9500" transform="translate(614.099899 0)"/>
     <use xlink:href="#STHeiti-4e2d" transform="translate(714.099884 0)"/>
     <use xlink:href="#STHeiti-5fc3" transform="translate(814.099869 0)"/>
     <use xlink:href="#STHeiti-8fd0" transform="translate(914.099854 0)"/>
     <use xlink:href="#STHeiti-8425" transform="translate(1014.099838 0)"/>
     <use xlink:href="#STHeiti-6570" transform="translate(1114.099823 0)"/>
     <use xlink:href="#STHeiti-636e" transform="translate(1214.099808 0)"/>
    </g>
   </g>
   <g id="text_26">
    <!-- B 组成交额领先 F 组 62%，6 团队差距显著 -->
    <g style="fill: #6b3410" transform="translate(30.642656 19.935) scale(0.16 -0.16)">
     <defs>
      <path id="STHeiti-ff0c" d="M 1952 435 
Q 1952 0 1776 -253 
Q 1600 -506 1286 -557 
L 1286 -262 
Q 1626 -224 1626 384 
L 1286 384 
L 1286 1062 
L 1952 1062 
L 1952 435 
z
" transform="scale(0.015625)"/>
      <path id="STHeiti-56e2" d="M 5146 -141 
L 1363 -141 
L 1363 -512 
L 755 -512 
Q 819 256 819 806 
L 819 3930 
Q 819 4550 755 4909 
Q 973 4851 3200 4851 
Q 5427 4851 5728 4909 
Q 5670 4442 5670 3930 
L 5670 736 
Q 5670 109 5728 -454 
L 5146 -454 
L 5146 -141 
z
M 1363 294 
L 5146 294 
L 5146 4416 
L 1363 4416 
L 1363 294 
z
M 3456 3430 
Q 3456 3878 3398 4230 
Q 3648 4205 3981 4205 
Q 4083 4205 4083 4173 
Q 4083 4141 4038 4102 
Q 3994 4064 3968 3977 
Q 3942 3891 3942 3789 
L 3942 3430 
Q 4512 3437 4749 3475 
L 4749 2995 
Q 4397 3046 3942 3046 
L 3942 1152 
Q 3942 973 3872 870 
Q 3802 768 3590 704 
Q 3379 640 2950 589 
Q 2925 870 2726 1126 
Q 2970 1088 3136 1088 
Q 3302 1088 3382 1152 
Q 3462 1216 3462 1376 
L 3462 2918 
Q 3264 2394 2985 1994 
Q 2707 1594 1907 922 
Q 1798 1050 1472 1306 
Q 2618 1926 3136 3053 
Q 2246 3046 1747 2995 
L 1747 3488 
Q 2131 3430 3456 3430 
z
" transform="scale(0.015625)"/>
      <path id="STHeiti-961f" d="M 4256 2106 
Q 4090 1210 3693 589 
Q 3296 -32 2554 -563 
Q 2394 -307 2080 -134 
Q 2906 333 3290 960 
Q 3674 1587 3789 2528 
Q 3904 3469 3904 4080 
Q 3904 4691 3878 5088 
Q 4301 5030 4640 5018 
Q 4717 5011 4717 4982 
Q 4717 4954 4662 4909 
Q 4608 4864 4563 4749 
Q 4518 4634 4467 4058 
L 4416 3501 
Q 4416 3341 4477 2873 
Q 4538 2406 4646 2035 
Q 4755 1664 4924 1347 
Q 5094 1030 5264 825 
Q 5434 621 5664 448 
Q 5894 275 6195 122 
Q 5901 -166 5773 -480 
Q 4531 294 4256 2106 
z
M 3002 4832 
L 2227 2874 
Q 2573 2464 2729 2157 
Q 2886 1850 2886 1517 
Q 2886 1011 2636 736 
Q 2387 461 1824 352 
Q 1734 736 1523 966 
Q 2042 992 2192 1094 
Q 2342 1197 2342 1510 
Q 2342 2150 1683 2771 
L 2253 4346 
L 1222 4346 
L 1222 -646 
L 653 -646 
Q 710 179 710 864 
L 710 3891 
Q 710 4384 666 4832 
Q 1133 4781 1843 4781 
Q 2554 4781 3002 4832 
z
" transform="scale(0.015625)"/>
      <path id="STHeiti-5dee" d="M 2848 3898 
Q 1523 3898 755 3840 
L 755 4352 
Q 1434 4288 3571 4288 
Q 3866 4698 4013 5190 
Q 4378 5062 4640 5011 
Q 4717 4998 4717 4966 
Q 4717 4934 4627 4902 
Q 4480 4851 4038 4294 
Q 4947 4301 5562 4352 
L 5562 3840 
Q 4896 3898 3360 3898 
Q 3322 3686 3238 3392 
Q 4666 3392 5344 3450 
L 5344 2938 
Q 4614 2995 3104 2995 
Q 2989 2682 2848 2432 
Q 5152 2432 5869 2490 
L 5869 1971 
Q 5197 2022 2611 2022 
Q 2259 1466 1849 1030 
Q 1440 595 736 83 
Q 608 339 333 493 
Q 1523 1165 2086 2016 
Q 1126 2010 550 1971 
L 550 2490 
Q 1350 2445 2336 2438 
Q 2483 2701 2598 2995 
Q 1651 2989 1056 2938 
L 1056 3450 
Q 1715 3398 2739 3392 
Q 2810 3648 2848 3898 
z
M 2765 4544 
L 2227 4333 
Q 2099 4614 1850 4896 
L 2394 5165 
Q 2528 4883 2765 4544 
z
M 3814 1075 
L 3814 115 
Q 5043 115 5747 173 
L 5747 -365 
Q 4979 -307 3587 -307 
Q 2195 -307 1427 -365 
L 1427 173 
Q 2144 122 3315 115 
L 3315 1069 
Q 2752 1069 2291 1018 
L 2291 1478 
L 3776 1478 
Q 4723 1478 5267 1536 
L 5267 1018 
Q 4730 1075 3814 1075 
z
" transform="scale(0.015625)"/>
      <path id="STHeiti-8ddd" d="M 3776 3251 
L 4518 3251 
Q 5395 3251 5658 3302 
Q 5613 2765 5613 2217 
Q 5613 1670 5658 1184 
Q 5446 1235 4518 1235 
L 3776 1235 
L 3776 141 
L 4851 141 
Q 5606 141 6086 198 
L 6086 -371 
Q 5805 -314 4662 -314 
Q 3520 -314 3200 -371 
Q 3245 -13 3245 691 
L 3245 3686 
Q 3245 4352 3200 4749 
Q 3443 4691 4572 4691 
Q 5702 4691 6016 4749 
L 6016 4186 
Q 5677 4237 4627 4237 
L 3776 4237 
L 3776 3251 
z
M 3776 1670 
L 5094 1670 
L 5094 2816 
L 3776 2816 
L 3776 1670 
z
M 1690 294 
L 1690 2784 
Q 1190 2784 774 2746 
Q 819 3034 819 3734 
Q 819 4435 774 4730 
Q 1210 4672 1824 4672 
Q 2438 4672 2784 4730 
Q 2752 4493 2752 3744 
Q 2752 2995 2784 2739 
Q 2528 2771 2150 2778 
L 2150 2029 
Q 2816 2029 2957 2054 
L 2957 1587 
Q 2886 1613 2150 1613 
L 2150 371 
Q 2701 467 3008 570 
Q 2957 390 2957 252 
Q 2957 115 2963 51 
Q 1299 -173 435 -442 
Q 416 -134 301 147 
L 781 179 
L 781 1478 
Q 781 1984 730 2234 
Q 960 2202 1325 2202 
Q 1402 2202 1402 2170 
Q 1402 2138 1318 2083 
Q 1235 2029 1235 1946 
L 1235 230 
Q 1549 269 1690 294 
z
M 1267 4237 
L 1267 3219 
L 2298 3219 
L 2298 4237 
L 1267 4237 
z
" transform="scale(0.015625)"/>
      <path id="STHeiti-663e" d="M 2374 179 
L 2374 2470 
Q 1728 2464 1229 2413 
Q 1274 2893 1274 3680 
Q 1274 4467 1229 4922 
Q 1837 4864 3350 4864 
Q 4864 4864 5453 4922 
Q 5402 4563 5402 3676 
Q 5402 2790 5453 2400 
Q 4934 2451 4154 2464 
L 4154 179 
Q 5478 192 6003 237 
L 6003 -352 
Q 5696 -294 3277 -294 
Q 858 -294 371 -352 
L 371 237 
Q 1069 179 2374 179 
z
M 4870 3885 
L 4870 4416 
L 1786 4416 
L 1786 3885 
L 4870 3885 
z
M 1786 3437 
L 1786 2893 
L 4870 2893 
L 4870 3437 
L 1786 3437 
z
M 2886 2470 
L 2886 179 
L 3642 179 
L 3642 2470 
L 2886 2470 
z
M 2003 864 
L 1466 627 
Q 1261 1299 819 1894 
L 1318 2125 
Q 1696 1491 2003 864 
z
M 5139 2080 
Q 5498 1901 5773 1824 
Q 5830 1811 5830 1776 
Q 5830 1741 5786 1715 
Q 5677 1651 5398 1308 
Q 5120 966 4864 563 
L 4416 774 
Q 4979 1510 5139 2080 
z
" transform="scale(0.015625)"/>
      <path id="STHeiti-8457" d="M 2509 4595 
L 3840 4595 
Q 3827 4992 3776 5235 
Q 4006 5197 4371 5197 
Q 4435 5197 4435 5165 
Q 4435 5133 4380 5101 
Q 4326 5069 4326 4973 
L 4326 4595 
Q 5293 4608 5869 4653 
L 5869 4128 
Q 5120 4192 4326 4198 
L 4326 3744 
L 3840 3744 
L 3840 4198 
L 2509 4198 
L 2509 3661 
L 2022 3661 
L 2022 4198 
Q 1165 4186 550 4128 
L 550 4653 
Q 1011 4608 2022 4595 
Q 2016 4870 1958 5197 
Q 2266 5158 2547 5158 
Q 2611 5158 2611 5126 
Q 2611 5094 2560 5062 
Q 2509 5030 2509 4934 
L 2509 4595 
z
M 3296 3430 
Q 3878 3450 4230 3494 
L 4230 3008 
Q 3834 3059 3296 3066 
L 3296 2502 
L 3635 2502 
Q 4678 3226 5024 3718 
Q 5293 3514 5504 3411 
Q 5536 3398 5536 3373 
Q 5536 3334 5462 3312 
Q 5389 3290 5078 3082 
Q 4768 2874 4269 2502 
Q 5171 2522 6016 2573 
L 6016 2054 
Q 4909 2118 3757 2125 
Q 3514 1958 2950 1664 
L 4096 1664 
Q 4717 1664 5184 1715 
Q 5133 1466 5133 1107 
L 5133 70 
Q 5133 -314 5190 -538 
L 4602 -538 
L 4602 -288 
L 2138 -288 
L 2138 -621 
L 1600 -621 
Q 1658 -301 1658 -6 
L 1658 1050 
Q 1203 845 717 672 
Q 595 928 390 1101 
Q 960 1222 1645 1472 
Q 1632 1664 1619 1715 
Q 1798 1690 2144 1670 
Q 2637 1875 3059 2125 
Q 1715 2118 518 2054 
L 518 2573 
Q 1376 2502 2848 2502 
L 2848 3066 
Q 1933 3066 1338 3008 
L 1338 3494 
Q 1894 3430 2842 3430 
Q 2829 3738 2790 3866 
Q 2861 3840 3373 3840 
Q 3430 3840 3430 3814 
Q 3430 3789 3379 3763 
Q 3296 3725 3296 3430 
z
M 2157 1274 
L 2138 1267 
L 2138 864 
L 4602 864 
L 4602 1274 
L 2157 1274 
z
M 2138 499 
L 2138 83 
L 4602 83 
L 4602 499 
L 2138 499 
z
" transform="scale(0.015625)"/>
     </defs>
     <use xlink:href="#STHeiti-42"/>
     <use xlink:href="#STHeiti-20" transform="translate(57.399994 0)"/>
     <use xlink:href="#STHeiti-7ec4" transform="translate(82.399979 0)"/>
     <use xlink:href="#STHeiti-6210" transform="translate(182.399963 0)"/>
     <use xlink:href="#STHeiti-4ea4" transform="translate(282.399948 0)"/>
     <use xlink:href="#STHeiti-989d" transform="translate(382.399933 0)"/>
     <use xlink:href="#STHeiti-9886" transform="translate(482.399918 0)"/>
     <use xlink:href="#STHeiti-5148" transform="translate(582.399902 0)"/>
     <use xlink:href="#STHeiti-20" transform="translate(682.399887 0)"/>
     <use xlink:href="#STHeiti-46" transform="translate(707.399872 0)"/>
     <use xlink:href="#STHeiti-20" transform="translate(755.899857 0)"/>
     <use xlink:href="#STHeiti-7ec4" transform="translate(780.899841 0)"/>
     <use xlink:href="#STHeiti-20" transform="translate(880.899826 0)"/>
     <use xlink:href="#STHeiti-36" transform="translate(905.899811 0)"/>
     <use xlink:href="#STHeiti-32" transform="translate(961.299805 0)"/>
     <use xlink:href="#STHeiti-25" transform="translate(1016.699799 0)"/>
     <use xlink:href="#STHeiti-ff0c" transform="translate(1094.199783 0)"/>
     <use xlink:href="#STHeiti-36" transform="translate(1194.199768 0)"/>
     <use xlink:href="#STHeiti-20" transform="translate(1249.599762 0)"/>
     <use xlink:href="#STHeiti-56e2" transform="translate(1274.599747 0)"/>
     <use xlink:href="#STHeiti-961f" transform="translate(1374.599731 0)"/>
     <use xlink:href="#STHeiti-5dee" transform="translate(1474.599716 0)"/>
     <use xlink:href="#STHeiti-8ddd" transform="translate(1574.599701 0)"/>
     <use xlink:href="#STHeiti-663e" transform="translate(1674.599686 0)"/>
     <use xlink:href="#STHeiti-8457" transform="translate(1774.59967 0)"/>
    </g>
   </g>
  </g>
 </g>
 <defs>
  <clipPath id="pebaa6a432f">
   <rect x="30.642656" y="37.935" width="527.401931" height="205.17"/>
  </clipPath>
 </defs>
</svg>
