<?xml version="1.0" encoding="utf-8" standalone="no"?>
<!DOCTYPE svg PUBLIC "-//W3C//DTD SVG 1.1//EN"
  "http://www.w3.org/Graphics/SVG/1.1/DTD/svg11.dtd">
<svg xmlns:xlink="http://www.w3.org/1999/xlink" width="566.466719pt" height="350.4625pt" viewBox="0 0 566.466719 350.4625" xmlns="http://www.w3.org/2000/svg" version="1.1">
 <metadata>
  <rdf:RDF xmlns:dc="http://purl.org/dc/elements/1.1/" xmlns:cc="http://creativecommons.org/ns#" xmlns:rdf="http://www.w3.org/1999/02/22-rdf-syntax-ns#">
   <cc:Work>
    <dc:type rdf:resource="http://purl.org/dc/dcmitype/StillImage"/>
    <dc:date>2026-05-05T13:01:18.961842</dc:date>
    <dc:format>image/svg+xml</dc:format>
    <dc:creator>
     <cc:Agent>
      <dc:title>Matplotlib v3.10.9, https://matplotlib.org/</dc:title>
     </cc:Agent>
    </dc:creator>
   </cc:Work>
  </rdf:RDF>
 </metadata>
 <defs>
  <style type="text/css">*{stroke-linejoin: round; stroke-linecap: butt}</style>
 </defs>
 <g id="figure_1">
  <g id="patch_1">
   <path d="M 0 350.4625 
L 566.466719 350.4625 
L 566.466719 0 
L 0 0 
z
" style="fill: #ffffff"/>
  </g>
  <g id="axes_1">
   <g id="patch_2">
    <path d="M 43.886719 311.6925 
L 559.266719 311.6925 
L 559.266719 38.255 
L 43.886719 38.255 
z
" style="fill: #ffffff"/>
   </g>
   <g id="patch_3">
    <path d="M 43.886719 174.97375 
L 301.576719 174.97375 
L 301.576719 38.255 
L 43.886719 38.255 
z
" clip-path="url(#p0a5fa3ffba)" style="fill: #e8f0f5; opacity: 0.5"/>
   </g>
   <g id="patch_4">
    <path d="M 301.576719 174.97375 
L 559.266719 174.97375 
L 559.266719 38.255 
L 301.576719 38.255 
z
" clip-path="url(#p0a5fa3ffba)" style="fill: #e8f5f0; opacity: 0.5"/>
   </g>
   <g id="patch_5">
    <path d="M 43.886719 311.6925 
L 301.576719 311.6925 
L 301.576719 174.97375 
L 43.886719 174.97375 
z
" clip-path="url(#p0a5fa3ffba)" style="fill: #f5f3f0; opacity: 0.5"/>
   </g>
   <g id="patch_6">
    <path d="M 301.576719 311.6925 
L 559.266719 311.6925 
L 559.266719 174.97375 
L 301.576719 174.97375 
z
" clip-path="url(#p0a5fa3ffba)" style="fill: #f5e8e4; opacity: 0.5"/>
   </g>
   <g id="matplotlib.axis_1">
    <g id="xtick_1">
     <g id="line2d_1">
      <path d="M 121.193719 311.6925 
L 121.193719 38.255 
" clip-path="url(#p0a5fa3ffba)" style="fill: none; stroke-dasharray: 2.96,1.28; stroke-dashoffset: 0; stroke: #f2f0eb; stroke-width: 0.8"/>
     </g>
     <g id="line2d_2">
      <defs>
       <path id="mfeee49c0cd" d="M 0 0 
L 0 3.5 
" style="stroke: #857d74; stroke-width: 0.8"/>
      </defs>
      <g>
       <use xlink:href="#mfeee49c0cd" x="121.193719" y="311.6925" style="fill: #857d74; stroke: #857d74; stroke-width: 0.8"/>
      </g>
     </g>
     <g id="text_1">
      <!-- 280 -->
      <g style="fill: #857d74" transform="translate(112.051688 327.447812) scale(0.11 -0.11)">
       <defs>
        <path id="STHeiti-32" d="M 742 3539 
L 301 3539 
Q 333 4243 768 4668 
Q 1203 5094 1820 5094 
Q 2438 5094 2844 4694 
Q 3251 4294 3251 3718 
Q 3251 3290 3024 2925 
Q 2797 2560 2336 2061 
L 1190 826 
L 3315 826 
L 3315 384 
L 192 384 
L 1946 2278 
Q 2406 2778 2604 3066 
Q 2803 3354 2803 3725 
Q 2803 4096 2512 4377 
Q 2221 4659 1789 4659 
Q 1357 4659 1072 4368 
Q 787 4077 742 3539 
z
" transform="scale(0.015625)"/>
        <path id="STHeiti-38" d="M 2458 2906 
Q 3328 2477 3328 1702 
Q 3328 1088 2896 678 
Q 2464 269 1763 269 
Q 1062 269 640 678 
Q 218 1088 218 1664 
Q 218 2470 1107 2906 
Q 435 3264 435 3898 
Q 435 4371 828 4732 
Q 1222 5094 1779 5094 
Q 2336 5094 2726 4742 
Q 3117 4390 3117 3885 
Q 3117 3270 2458 2906 
z
M 2656 3904 
Q 2656 4211 2416 4432 
Q 2176 4653 1789 4653 
Q 1402 4653 1152 4432 
Q 902 4211 902 3897 
Q 902 3584 1174 3337 
Q 1446 3091 1792 3091 
Q 2138 3091 2397 3334 
Q 2656 3578 2656 3904 
z
M 2867 1696 
Q 2867 2086 2550 2380 
Q 2234 2675 1782 2675 
Q 1331 2675 1004 2371 
Q 678 2067 678 1654 
Q 678 1242 979 973 
Q 1280 704 1766 704 
Q 2253 704 2560 992 
Q 2867 1280 2867 1696 
z
" transform="scale(0.015625)"/>
        <path id="STHeiti-30" d="M 1747 269 
Q 1005 269 605 880 
Q 205 1491 205 2681 
Q 205 3872 605 4483 
Q 1005 5094 1741 5094 
Q 2477 5094 2909 4470 
Q 3341 3846 3341 2681 
Q 3341 1517 2905 893 
Q 2470 269 1747 269 
z
M 1760 4659 
Q 1229 4659 934 4147 
Q 640 3635 640 2669 
Q 640 685 1760 685 
Q 2304 685 2608 1206 
Q 2912 1728 2912 2681 
Q 2912 3635 2598 4147 
Q 2285 4659 1760 4659 
z
" transform="scale(0.015625)"/>
       </defs>
       <use xlink:href="#STHeiti-32"/>
       <use xlink:href="#STHeiti-38" transform="translate(55.399994 0)"/>
       <use xlink:href="#STHeiti-30" transform="translate(110.799988 0)"/>
      </g>
     </g>
    </g>
    <g id="xtick_2">
     <g id="line2d_3">
      <path d="M 224.269719 311.6925 
L 224.269719 38.255 
" clip-path="url(#p0a5fa3ffba)" style="fill: none; stroke-dasharray: 2.96,1.28; stroke-dashoffset: 0; stroke: #f2f0eb; stroke-width: 0.8"/>
     </g>
     <g id="line2d_4">
      <g>
       <use xlink:href="#mfeee49c0cd" x="224.269719" y="311.6925" style="fill: #857d74; stroke: #857d74; stroke-width: 0.8"/>
      </g>
     </g>
     <g id="text_2">
      <!-- 300 -->
      <g style="fill: #857d74" transform="translate(215.127688 327.447812) scale(0.11 -0.11)">
       <defs>
        <path id="STHeiti-33" d="M 845 3917 
L 378 3917 
Q 506 4486 867 4790 
Q 1229 5094 1750 5094 
Q 2272 5094 2659 4748 
Q 3046 4403 3046 3910 
Q 3046 3315 2458 2970 
Q 2861 2803 3081 2473 
Q 3302 2144 3302 1754 
Q 3302 1146 2857 707 
Q 2413 269 1734 269 
Q 1133 269 742 611 
Q 352 954 224 1613 
L 672 1613 
Q 794 1158 1046 937 
Q 1299 717 1760 717 
Q 2221 717 2534 1011 
Q 2848 1306 2848 1741 
Q 2848 2176 2502 2441 
Q 2157 2707 1498 2720 
L 1498 3142 
Q 1971 3142 2268 3360 
Q 2566 3578 2566 3901 
Q 2566 4224 2326 4438 
Q 2086 4653 1747 4653 
Q 1408 4653 1200 4470 
Q 992 4288 845 3917 
z
" transform="scale(0.015625)"/>
       </defs>
       <use xlink:href="#STHeiti-33"/>
       <use xlink:href="#STHeiti-30" transform="translate(55.399994 0)"/>
       <use xlink:href="#STHeiti-30" transform="translate(110.799988 0)"/>
      </g>
     </g>
    </g>
    <g id="xtick_3">
     <g id="line2d_5">
      <path d="M 327.345719 311.6925 
L 327.345719 38.255 
" clip-path="url(#p0a5fa3ffba)" style="fill: none; stroke-dasharray: 2.96,1.28; stroke-dashoffset: 0; stroke: #f2f0eb; stroke-width: 0.8"/>
     </g>
     <g id="line2d_6">
      <g>
       <use xlink:href="#mfeee49c0cd" x="327.345719" y="311.6925" style="fill: #857d74; stroke: #857d74; stroke-width: 0.8"/>
      </g>
     </g>
     <g id="text_3">
      <!-- 320 -->
      <g style="fill: #857d74" transform="translate(318.203687 327.447812) scale(0.11 -0.11)">
       <use xlink:href="#STHeiti-33"/>
       <use xlink:href="#STHeiti-32" transform="translate(55.399994 0)"/>
       <use xlink:href="#STHeiti-30" transform="translate(110.799988 0)"/>
      </g>
     </g>
    </g>
    <g id="xtick_4">
     <g id="line2d_7">
      <path d="M 430.421719 311.6925 
L 430.421719 38.255 
" clip-path="url(#p0a5fa3ffba)" style="fill: none; stroke-dasharray: 2.96,1.28; stroke-dashoffset: 0; stroke: #f2f0eb; stroke-width: 0.8"/>
     </g>
     <g id="line2d_8">
      <g>
       <use xlink:href="#mfeee49c0cd" x="430.421719" y="311.6925" style="fill: #857d74; stroke: #857d74; stroke-width: 0.8"/>
      </g>
     </g>
     <g id="text_4">
      <!-- 340 -->
      <g style="fill: #857d74" transform="translate(421.279687 327.447812) scale(0.11 -0.11)">
       <defs>
        <path id="STHeiti-34" d="M 2726 5094 
L 2816 5094 
L 2816 1894 
L 3373 1894 
L 3373 1453 
L 2816 1453 
L 2816 384 
L 2362 384 
L 2362 1453 
L 160 1453 
L 2726 5094 
z
M 2362 1894 
L 2362 3808 
L 1005 1894 
L 2362 1894 
z
" transform="scale(0.015625)"/>
       </defs>
       <use xlink:href="#STHeiti-33"/>
       <use xlink:href="#STHeiti-34" transform="translate(55.399994 0)"/>
       <use xlink:href="#STHeiti-30" transform="translate(110.799988 0)"/>
      </g>
     </g>
    </g>
    <g id="xtick_5">
     <g id="line2d_9">
      <path d="M 533.497719 311.6925 
L 533.497719 38.255 
" clip-path="url(#p0a5fa3ffba)" style="fill: none; stroke-dasharray: 2.96,1.28; stroke-dashoffset: 0; stroke: #f2f0eb; stroke-width: 0.8"/>
     </g>
     <g id="line2d_10">
      <g>
       <use xlink:href="#mfeee49c0cd" x="533.497719" y="311.6925" style="fill: #857d74; stroke: #857d74; stroke-width: 0.8"/>
      </g>
     </g>
     <g id="text_5">
      <!-- 360 -->
      <g style="fill: #857d74" transform="translate(524.355687 327.447812) scale(0.11 -0.11)">
       <defs>
        <path id="STHeiti-36" d="M 2349 5094 
L 2726 4851 
L 1485 2970 
Q 1747 3059 1984 3059 
Q 2496 3059 2880 2652 
Q 3264 2246 3264 1660 
Q 3264 1075 2845 672 
Q 2426 269 1827 269 
Q 1229 269 829 678 
Q 429 1088 429 1677 
Q 429 1958 537 2256 
Q 646 2554 954 3014 
L 2349 5094 
z
M 2810 1683 
Q 2810 2086 2528 2368 
Q 2246 2650 1843 2650 
Q 1440 2650 1158 2368 
Q 877 2086 877 1683 
Q 877 1280 1161 998 
Q 1446 717 1843 717 
Q 2240 717 2525 998 
Q 2810 1280 2810 1683 
z
" transform="scale(0.015625)"/>
       </defs>
       <use xlink:href="#STHeiti-33"/>
       <use xlink:href="#STHeiti-36" transform="translate(55.399994 0)"/>
       <use xlink:href="#STHeiti-30" transform="translate(110.799988 0)"/>
      </g>
     </g>
    </g>
    <g id="text_6">
     <!-- 平均通话时长（秒） -->
     <g style="fill: #857d74" transform="translate(252.076719 341.787812) scale(0.11 -0.11)">
      <defs>
       <path id="STHeiti-5e73" d="M 3514 1946 
Q 5075 1946 5971 2003 
L 5971 1389 
Q 5075 1446 3514 1446 
L 3514 326 
Q 3514 -102 3578 -698 
L 2906 -698 
Q 2963 -122 2963 326 
L 2963 1446 
Q 1382 1446 480 1389 
L 480 2003 
Q 1402 1946 2963 1946 
L 2963 4333 
Q 1715 4326 979 4275 
L 979 4870 
Q 1786 4813 3226 4813 
Q 4666 4813 5466 4870 
L 5466 4275 
Q 4730 4326 3514 4333 
L 3514 1946 
z
M 4691 3840 
Q 5088 3667 5299 3603 
Q 5370 3584 5370 3542 
Q 5370 3501 5293 3488 
Q 5267 3482 5203 3405 
Q 5139 3328 5088 3232 
Q 4755 2611 4525 2266 
Q 4288 2387 3987 2432 
Q 4474 2970 4691 3840 
z
M 2355 2528 
L 1798 2304 
Q 1613 3027 1286 3546 
L 1805 3757 
Q 2118 3181 2355 2528 
z
" transform="scale(0.015625)"/>
       <path id="STHeiti-5747" d="M 3565 3648 
Q 3290 3053 2822 2349 
Q 2624 2496 2278 2598 
Q 2643 2950 3001 3692 
Q 3360 4435 3456 5190 
Q 3814 5082 4205 5024 
Q 4282 5011 4282 4976 
Q 4282 4941 4192 4889 
Q 4102 4838 4019 4681 
Q 3936 4525 3770 4102 
L 4928 4102 
Q 5408 4102 5869 4154 
L 5741 416 
Q 5728 -38 5635 -236 
Q 5542 -435 5267 -531 
Q 4992 -627 4339 -685 
Q 4288 -320 4038 19 
Q 4333 -6 4525 -6 
Q 4877 -6 5033 96 
Q 5190 198 5203 627 
L 5306 3648 
L 3565 3648 
z
M 1690 1062 
Q 2150 1203 2509 1363 
Q 2464 1171 2464 1040 
Q 2464 909 2477 787 
Q 1459 538 493 19 
Q 448 416 262 755 
Q 646 794 1152 915 
L 1152 3059 
Q 685 3059 422 3021 
L 422 3578 
Q 659 3546 1152 3533 
Q 1152 4691 1114 4998 
Q 1261 4973 1747 4973 
Q 1830 4973 1830 4937 
Q 1830 4902 1760 4864 
Q 1690 4826 1690 4710 
L 1690 3533 
Q 2170 3539 2432 3578 
L 2432 3021 
Q 2182 3059 1690 3066 
L 1690 1062 
z
M 4416 2131 
L 3866 1875 
Q 3648 2445 3354 2778 
L 3891 3053 
Q 4160 2534 4416 2131 
z
M 4883 1280 
Q 3757 838 2976 454 
Q 2886 749 2714 1094 
Q 3770 1318 4864 1862 
Q 4851 1747 4851 1612 
Q 4851 1478 4883 1280 
z
" transform="scale(0.015625)"/>
       <path id="STHeiti-901a" d="M 1862 4070 
L 1376 3731 
Q 1101 4314 730 4672 
L 1229 4973 
L 1862 4070 
z
M 3885 3834 
L 4614 4480 
Q 2784 4480 2253 4429 
L 2253 4960 
Q 2842 4902 3978 4902 
Q 5114 4902 5542 4960 
L 5542 4538 
Q 5395 4480 5196 4358 
Q 4998 4237 4928 4179 
L 4154 3533 
Q 5370 3533 5760 3584 
Q 5645 3347 5645 2848 
L 5645 774 
Q 5645 646 5590 569 
Q 5536 493 5357 422 
Q 5178 352 4794 275 
Q 4794 544 4576 819 
Q 4858 819 4970 851 
Q 5082 883 5120 979 
Q 5158 1075 5165 1312 
L 4115 1312 
Q 4115 781 4160 314 
L 3610 314 
Q 3654 653 3654 1312 
L 2707 1312 
L 2707 371 
L 2182 371 
Q 2240 781 2240 1280 
L 2240 2848 
Q 2240 3354 2195 3584 
Q 2566 3539 3558 3533 
Q 3347 3859 3085 4166 
L 3494 4358 
L 3885 3834 
z
M 2707 2618 
L 3654 2618 
L 3654 3142 
L 2707 3142 
L 2707 2618 
z
M 4115 2618 
L 5165 2618 
L 5165 3142 
L 4115 3142 
L 4115 2618 
z
M 3654 2234 
L 2707 2234 
L 2707 1690 
L 3654 1690 
L 3654 2234 
z
M 5165 2234 
L 4115 2234 
L 4115 1690 
L 5165 1690 
L 5165 2234 
z
M 1088 493 
L 1088 2387 
Q 563 2387 378 2355 
L 378 2976 
Q 653 2938 1014 2938 
Q 1376 2938 1632 2976 
Q 1587 2733 1587 2202 
L 1587 493 
Q 1798 422 2106 262 
Q 2554 26 3872 26 
Q 4845 26 6074 166 
Q 5933 -134 5933 -442 
Q 4730 -499 3952 -499 
Q 3174 -499 2736 -406 
Q 2298 -314 1862 -70 
Q 1594 77 1411 77 
Q 1229 77 1069 -64 
Q 909 -205 742 -506 
Q 557 -224 282 -13 
Q 749 358 1088 493 
z
" transform="scale(0.015625)"/>
       <path id="STHeiti-8bdd" d="M 3718 4314 
Q 2976 4192 2566 4134 
Q 2502 4390 2310 4640 
Q 2707 4621 3680 4800 
Q 4653 4979 5229 5197 
Q 5338 4934 5626 4710 
Q 5709 4646 5709 4611 
Q 5709 4576 5619 4589 
Q 5530 4602 5418 4602 
Q 5306 4602 5152 4576 
L 4256 4403 
L 4256 3418 
Q 5427 3418 6029 3469 
L 6029 2925 
Q 5536 2976 4256 2976 
L 4256 2086 
Q 5197 2093 5523 2138 
Q 5478 1875 5478 1517 
L 5478 230 
Q 5478 -115 5523 -467 
L 4954 -467 
L 4954 -13 
L 3187 -13 
L 3187 -576 
L 2624 -576 
Q 2662 -262 2662 128 
L 2662 1517 
Q 2662 1901 2611 2138 
Q 2957 2093 3718 2086 
L 3718 2976 
Q 2675 2976 2144 2925 
L 2144 3469 
Q 2714 3424 3718 3418 
L 3718 4314 
z
M 4954 448 
L 4954 1632 
L 3187 1632 
L 3187 448 
L 4954 448 
z
M 2003 4115 
L 1453 3776 
Q 1235 4269 858 4768 
L 1370 5056 
Q 1606 4627 2003 4115 
z
M 2566 896 
L 1850 141 
Q 1498 -218 1325 -480 
Q 1184 -224 902 13 
Q 1088 218 1088 685 
L 1088 2656 
Q 576 2656 346 2618 
L 346 3187 
Q 653 3136 979 3136 
Q 1306 3136 1664 3187 
Q 1606 2880 1606 2400 
L 1613 659 
Q 2067 1088 2310 1370 
Q 2406 1037 2566 896 
z
" transform="scale(0.015625)"/>
       <path id="STHeiti-65f6" d="M 4851 3795 
Q 4851 4909 4781 5261 
Q 4979 5229 5421 5229 
Q 5530 5229 5530 5184 
Q 5530 5158 5491 5133 
Q 5376 5069 5376 4883 
L 5376 3802 
Q 5728 3808 6144 3846 
L 6144 3258 
Q 5862 3290 5376 3302 
L 5376 83 
Q 5376 -186 5299 -310 
Q 5222 -435 4988 -502 
Q 4755 -570 4230 -614 
Q 4192 -224 3962 70 
Q 4230 51 4428 51 
Q 4627 51 4739 89 
Q 4851 128 4851 275 
L 4851 3309 
L 4077 3309 
Q 3379 3309 2867 3258 
L 2867 3846 
Q 3373 3795 4077 3795 
L 4851 3795 
z
M 1165 634 
L 1165 -224 
L 627 -224 
Q 672 173 672 627 
L 672 3949 
Q 672 4422 634 4659 
Q 864 4608 1683 4608 
Q 2502 4608 2726 4659 
Q 2688 4435 2688 3949 
L 2688 896 
Q 2688 486 2733 51 
L 2195 51 
L 2195 634 
L 1165 634 
z
M 2195 2829 
L 2195 4154 
L 1165 4154 
L 1165 2829 
L 2195 2829 
z
M 2195 1062 
L 2195 2381 
L 1165 2381 
L 1165 1062 
L 2195 1062 
z
M 4243 1574 
L 3674 1370 
Q 3526 1933 3238 2579 
L 3757 2758 
Q 3891 2163 4243 1574 
z
" transform="scale(0.015625)"/>
       <path id="STHeiti-957f" d="M 4672 5158 
Q 4954 4947 5306 4813 
Q 5357 4794 5357 4762 
Q 5357 4730 5267 4685 
Q 5011 4550 4774 4291 
Q 4538 4032 4141 3664 
Q 3744 3296 3424 3046 
Q 3232 3251 2944 3392 
Q 3494 3718 3974 4217 
Q 4454 4717 4672 5158 
z
M 2253 2285 
L 2253 288 
Q 2714 563 3194 979 
Q 3187 678 3360 480 
Q 2042 -429 1862 -653 
Q 1696 -365 1446 -102 
Q 1587 32 1644 262 
Q 1702 493 1702 979 
L 1702 2285 
Q 678 2278 365 2240 
L 365 2803 
Q 678 2765 1702 2758 
L 1702 3872 
Q 1702 4858 1677 5120 
Q 1958 5069 2221 5069 
L 2342 5082 
Q 2419 5082 2419 5037 
Q 2419 4992 2387 4947 
Q 2253 4755 2253 4429 
L 2253 2758 
L 4179 2758 
Q 5613 2758 5990 2803 
L 5990 2240 
Q 5632 2285 4173 2285 
L 3674 2285 
Q 3910 1549 4569 1049 
Q 5229 550 6042 422 
Q 5728 224 5600 -224 
Q 4589 205 4029 797 
Q 3469 1389 3194 2285 
L 2253 2285 
z
" transform="scale(0.015625)"/>
       <path id="STHeiti-ff08" d="M 5651 -749 
L 5274 -749 
Q 4646 173 4409 835 
Q 4173 1498 4173 2266 
Q 4173 3034 4432 3750 
Q 4691 4467 5254 5267 
L 5645 5267 
Q 5082 4237 4928 3606 
Q 4774 2976 4774 2093 
Q 4774 1472 4953 861 
Q 5133 250 5651 -749 
z
" transform="scale(0.015625)"/>
       <path id="STHeiti-79d2" d="M 3910 5216 
Q 4134 5178 4397 5178 
L 4570 5184 
Q 4653 5184 4653 5149 
Q 4653 5114 4585 5075 
Q 4518 5037 4505 5005 
Q 4493 4973 4493 4890 
L 4493 2304 
Q 4493 1850 4538 1434 
L 3930 1434 
Q 3981 1786 3981 2304 
L 3981 4384 
Q 3981 4992 3910 5216 
z
M 1427 4256 
Q 864 4166 672 4141 
Q 621 4410 493 4602 
Q 1651 4653 2458 5082 
Q 2586 4723 2720 4608 
Q 2790 4544 2790 4515 
Q 2790 4486 2704 4486 
Q 2618 4486 1907 4352 
L 1907 3437 
Q 2496 3443 2752 3494 
L 2752 2938 
Q 2426 2989 1907 2989 
L 1907 602 
Q 1907 122 1958 -499 
L 1376 -499 
Q 1427 122 1427 602 
L 1427 2048 
Q 1056 1107 576 531 
Q 435 813 243 1037 
Q 1062 2022 1395 2995 
Q 749 2989 390 2938 
L 390 3494 
Q 742 3437 1427 3437 
L 1427 4256 
z
M 6163 2854 
L 5651 2528 
Q 5293 3104 4774 3706 
L 5222 3987 
Q 5658 3501 6163 2854 
z
M 3130 3904 
Q 3302 3834 3603 3834 
Q 3706 3834 3706 3802 
Q 3706 3770 3661 3728 
Q 3616 3686 3529 3283 
Q 3443 2880 3206 2227 
Q 2970 2323 2714 2342 
Q 3059 3181 3130 3904 
z
M 3066 1581 
L 2675 1286 
Q 2400 1869 1971 2381 
L 2317 2688 
Q 2758 2131 3066 1581 
z
M 5114 2400 
Q 5466 2214 5728 2163 
Q 5792 2150 5792 2118 
Q 5792 2086 5728 2060 
Q 5664 2035 5571 1884 
Q 5478 1734 5229 1242 
Q 4832 474 4230 45 
Q 3629 -384 2669 -653 
Q 2515 -358 2227 -211 
Q 4685 307 5114 2400 
z
" transform="scale(0.015625)"/>
       <path id="STHeiti-ff09" d="M 1120 5267 
Q 1747 4346 1984 3683 
Q 2221 3021 2221 2253 
Q 2221 1485 1961 768 
Q 1702 51 1139 -749 
L 749 -749 
Q 1312 282 1465 912 
Q 1619 1542 1619 2426 
Q 1619 3046 1440 3657 
Q 1261 4269 742 5267 
L 1120 5267 
z
" transform="scale(0.015625)"/>
      </defs>
      <use xlink:href="#STHeiti-5e73"/>
      <use xlink:href="#STHeiti-5747" transform="translate(99.999985 0)"/>
      <use xlink:href="#STHeiti-901a" transform="translate(199.999969 0)"/>
      <use xlink:href="#STHeiti-8bdd" transform="translate(299.999954 0)"/>
      <use xlink:href="#STHeiti-65f6" transform="translate(399.999939 0)"/>
      <use xlink:href="#STHeiti-957f" transform="translate(499.999924 0)"/>
      <use xlink:href="#STHeiti-ff08" transform="translate(599.999908 0)"/>
      <use xlink:href="#STHeiti-79d2" transform="translate(699.999893 0)"/>
      <use xlink:href="#STHeiti-ff09" transform="translate(799.999878 0)"/>
     </g>
    </g>
   </g>
   <g id="matplotlib.axis_2">
    <g id="ytick_1">
     <g id="line2d_11">
      <path d="M 43.886719 311.6925 
L 559.266719 311.6925 
" clip-path="url(#p0a5fa3ffba)" style="fill: none; stroke-dasharray: 2.96,1.28; stroke-dashoffset: 0; stroke: #f2f0eb; stroke-width: 0.8"/>
     </g>
     <g id="line2d_12">
      <defs>
       <path id="m71331ff2ca" d="M 0 0 
L -3.5 0 
" style="stroke: #857d74; stroke-width: 0.8"/>
      </defs>
      <g>
       <use xlink:href="#m71331ff2ca" x="43.886719" y="311.6925" style="fill: #857d74; stroke: #857d74; stroke-width: 0.8"/>
      </g>
     </g>
     <g id="text_7">
      <!-- 1.4 -->
      <g style="fill: #857d74" transform="translate(21.65 316.070156) scale(0.11 -0.11)">
       <defs>
        <path id="STHeiti-31" d="M 1184 4979 
L 2086 4979 
L 2086 384 
L 1632 384 
L 1632 4531 
L 909 4531 
L 1184 4979 
z
" transform="scale(0.015625)"/>
        <path id="STHeiti-2e" d="M 582 685 
Q 582 845 697 957 
Q 813 1069 969 1069 
Q 1126 1069 1238 957 
Q 1350 845 1350 681 
Q 1350 518 1238 406 
Q 1126 294 969 294 
Q 813 294 697 409 
Q 582 525 582 685 
z
" transform="scale(0.015625)"/>
       </defs>
       <use xlink:href="#STHeiti-31"/>
       <use xlink:href="#STHeiti-2e" transform="translate(55.399994 0)"/>
       <use xlink:href="#STHeiti-34" transform="translate(83.099991 0)"/>
      </g>
     </g>
    </g>
    <g id="ytick_2">
     <g id="line2d_13">
      <path d="M 43.886719 277.512812 
L 559.266719 277.512812 
" clip-path="url(#p0a5fa3ffba)" style="fill: none; stroke-dasharray: 2.96,1.28; stroke-dashoffset: 0; stroke: #f2f0eb; stroke-width: 0.8"/>
     </g>
     <g id="line2d_14">
      <g>
       <use xlink:href="#m71331ff2ca" x="43.886719" y="277.512812" style="fill: #857d74; stroke: #857d74; stroke-width: 0.8"/>
      </g>
     </g>
     <g id="text_8">
      <!-- 1.6 -->
      <g style="fill: #857d74" transform="translate(21.65 281.890469) scale(0.11 -0.11)">
       <use xlink:href="#STHeiti-31"/>
       <use xlink:href="#STHeiti-2e" transform="translate(55.399994 0)"/>
       <use xlink:href="#STHeiti-36" transform="translate(83.099991 0)"/>
      </g>
     </g>
    </g>
    <g id="ytick_3">
     <g id="line2d_15">
      <path d="M 43.886719 243.333125 
L 559.266719 243.333125 
" clip-path="url(#p0a5fa3ffba)" style="fill: none; stroke-dasharray: 2.96,1.28; stroke-dashoffset: 0; stroke: #f2f0eb; stroke-width: 0.8"/>
     </g>
     <g id="line2d_16">
      <g>
       <use xlink:href="#m71331ff2ca" x="43.886719" y="243.333125" style="fill: #857d74; stroke: #857d74; stroke-width: 0.8"/>
      </g>
     </g>
     <g id="text_9">
      <!-- 1.8 -->
      <g style="fill: #857d74" transform="translate(21.65 247.710781) scale(0.11 -0.11)">
       <use xlink:href="#STHeiti-31"/>
       <use xlink:href="#STHeiti-2e" transform="translate(55.399994 0)"/>
       <use xlink:href="#STHeiti-38" transform="translate(83.099991 0)"/>
      </g>
     </g>
    </g>
    <g id="ytick_4">
     <g id="line2d_17">
      <path d="M 43.886719 209.153437 
L 559.266719 209.153437 
" clip-path="url(#p0a5fa3ffba)" style="fill: none; stroke-dasharray: 2.96,1.28; stroke-dashoffset: 0; stroke: #f2f0eb; stroke-width: 0.8"/>
     </g>
     <g id="line2d_18">
      <g>
       <use xlink:href="#m71331ff2ca" x="43.886719" y="209.153437" style="fill: #857d74; stroke: #857d74; stroke-width: 0.8"/>
      </g>
     </g>
     <g id="text_10">
      <!-- 2.0 -->
      <g style="fill: #857d74" transform="translate(21.65 213.531094) scale(0.11 -0.11)">
       <use xlink:href="#STHeiti-32"/>
       <use xlink:href="#STHeiti-2e" transform="translate(55.399994 0)"/>
       <use xlink:href="#STHeiti-30" transform="translate(83.099991 0)"/>
      </g>
     </g>
    </g>
    <g id="ytick_5">
     <g id="line2d_19">
      <path d="M 43.886719 174.97375 
L 559.266719 174.97375 
" clip-path="url(#p0a5fa3ffba)" style="fill: none; stroke-dasharray: 2.96,1.28; stroke-dashoffset: 0; stroke: #f2f0eb; stroke-width: 0.8"/>
     </g>
     <g id="line2d_20">
      <g>
       <use xlink:href="#m71331ff2ca" x="43.886719" y="174.97375" style="fill: #857d74; stroke: #857d74; stroke-width: 0.8"/>
      </g>
     </g>
     <g id="text_11">
      <!-- 2.2 -->
      <g style="fill: #857d74" transform="translate(21.65 179.351406) scale(0.11 -0.11)">
       <use xlink:href="#STHeiti-32"/>
       <use xlink:href="#STHeiti-2e" transform="translate(55.399994 0)"/>
       <use xlink:href="#STHeiti-32" transform="translate(83.099991 0)"/>
      </g>
     </g>
    </g>
    <g id="ytick_6">
     <g id="line2d_21">
      <path d="M 43.886719 140.794062 
L 559.266719 140.794062 
" clip-path="url(#p0a5fa3ffba)" style="fill: none; stroke-dasharray: 2.96,1.28; stroke-dashoffset: 0; stroke: #f2f0eb; stroke-width: 0.8"/>
     </g>
     <g id="line2d_22">
      <g>
       <use xlink:href="#m71331ff2ca" x="43.886719" y="140.794062" style="fill: #857d74; stroke: #857d74; stroke-width: 0.8"/>
      </g>
     </g>
     <g id="text_12">
      <!-- 2.4 -->
      <g style="fill: #857d74" transform="translate(21.65 145.171719) scale(0.11 -0.11)">
       <use xlink:href="#STHeiti-32"/>
       <use xlink:href="#STHeiti-2e" transform="translate(55.399994 0)"/>
       <use xlink:href="#STHeiti-34" transform="translate(83.099991 0)"/>
      </g>
     </g>
    </g>
    <g id="ytick_7">
     <g id="line2d_23">
      <path d="M 43.886719 106.614375 
L 559.266719 106.614375 
" clip-path="url(#p0a5fa3ffba)" style="fill: none; stroke-dasharray: 2.96,1.28; stroke-dashoffset: 0; stroke: #f2f0eb; stroke-width: 0.8"/>
     </g>
     <g id="line2d_24">
      <g>
       <use xlink:href="#m71331ff2ca" x="43.886719" y="106.614375" style="fill: #857d74; stroke: #857d74; stroke-width: 0.8"/>
      </g>
     </g>
     <g id="text_13">
      <!-- 2.6 -->
      <g style="fill: #857d74" transform="translate(21.65 110.992031) scale(0.11 -0.11)">
       <use xlink:href="#STHeiti-32"/>
       <use xlink:href="#STHeiti-2e" transform="translate(55.399994 0)"/>
       <use xlink:href="#STHeiti-36" transform="translate(83.099991 0)"/>
      </g>
     </g>
    </g>
    <g id="ytick_8">
     <g id="line2d_25">
      <path d="M 43.886719 72.434687 
L 559.266719 72.434687 
" clip-path="url(#p0a5fa3ffba)" style="fill: none; stroke-dasharray: 2.96,1.28; stroke-dashoffset: 0; stroke: #f2f0eb; stroke-width: 0.8"/>
     </g>
     <g id="line2d_26">
      <g>
       <use xlink:href="#m71331ff2ca" x="43.886719" y="72.434687" style="fill: #857d74; stroke: #857d74; stroke-width: 0.8"/>
      </g>
     </g>
     <g id="text_14">
      <!-- 2.8 -->
      <g style="fill: #857d74" transform="translate(21.65 76.812344) scale(0.11 -0.11)">
       <use xlink:href="#STHeiti-32"/>
       <use xlink:href="#STHeiti-2e" transform="translate(55.399994 0)"/>
       <use xlink:href="#STHeiti-38" transform="translate(83.099991 0)"/>
      </g>
     </g>
    </g>
    <g id="ytick_9">
     <g id="line2d_27">
      <path d="M 43.886719 38.255 
L 559.266719 38.255 
" clip-path="url(#p0a5fa3ffba)" style="fill: none; stroke-dasharray: 2.96,1.28; stroke-dashoffset: 0; stroke: #f2f0eb; stroke-width: 0.8"/>
     </g>
     <g id="line2d_28">
      <g>
       <use xlink:href="#m71331ff2ca" x="43.886719" y="38.255" style="fill: #857d74; stroke: #857d74; stroke-width: 0.8"/>
      </g>
     </g>
     <g id="text_15">
      <!-- 3.0 -->
      <g style="fill: #857d74" transform="translate(21.65 42.632656) scale(0.11 -0.11)">
       <use xlink:href="#STHeiti-33"/>
       <use xlink:href="#STHeiti-2e" transform="translate(55.399994 0)"/>
       <use xlink:href="#STHeiti-30" transform="translate(83.099991 0)"/>
      </g>
     </g>
    </g>
    <g id="text_16">
     <!-- 转化率（%） -->
     <g style="fill: #857d74" transform="translate(16.175313 206.73625) rotate(-90) scale(0.11 -0.11)">
      <defs>
       <path id="STHeiti-8f6c" d="M 1658 2477 
Q 1651 3085 1613 3443 
Q 1894 3398 2208 3398 
Q 2278 3398 2278 3369 
Q 2278 3341 2211 3312 
Q 2144 3283 2144 3142 
L 2144 2477 
Q 2515 2483 2720 2528 
L 2720 2048 
Q 2496 2074 2144 2080 
L 2144 1190 
Q 2682 1280 2944 1357 
Q 2886 1101 2886 832 
Q 2682 813 2144 730 
Q 2144 19 2202 -646 
L 1600 -646 
Q 1658 -13 1658 653 
Q 960 531 563 384 
Q 525 653 448 1030 
Q 1037 1050 1658 1120 
L 1658 2074 
Q 979 2048 627 1958 
Q 570 2214 416 2438 
Q 666 2547 1094 3853 
Q 723 3846 512 3808 
L 512 4346 
Q 723 4301 1235 4294 
Q 1427 4909 1446 5274 
Q 1862 5120 2099 5069 
Q 2163 5056 2163 5024 
Q 2163 4992 2086 4944 
Q 2010 4896 1754 4294 
Q 2496 4294 2797 4346 
L 2797 3808 
Q 2598 3853 1574 3853 
L 1050 2477 
L 1658 2477 
z
M 4704 198 
Q 4934 26 5408 -365 
L 4986 -806 
Q 4160 51 3328 531 
L 3642 922 
Q 3923 742 4326 467 
L 4979 1414 
L 3405 1414 
Q 3546 2067 3622 2554 
Q 2963 2528 2797 2496 
L 2797 3040 
Q 3130 3002 3680 2989 
Q 3750 3571 3782 3782 
Q 3270 3770 3021 3731 
L 3021 4275 
Q 3251 4230 3834 4218 
Q 3910 4851 3917 5210 
Q 4307 5094 4538 5094 
Q 4621 5094 4621 5062 
Q 4621 5030 4541 4956 
Q 4461 4883 4352 4211 
L 5037 4211 
Q 5370 4211 5741 4275 
L 5741 3731 
Q 5408 3789 5037 3789 
L 4282 3789 
L 4166 2982 
L 5248 2982 
Q 5709 2982 6106 3040 
L 6106 2496 
Q 5664 2560 5248 2560 
L 4109 2560 
L 4019 1856 
L 5056 1856 
Q 5498 1856 5798 1894 
L 5798 1453 
Q 5510 1331 5312 1056 
L 4704 198 
z
" transform="scale(0.015625)"/>
       <path id="STHeiti-5316" d="M 1293 2912 
Q 1011 2464 730 2086 
Q 589 2336 314 2528 
Q 781 2912 1177 3696 
Q 1574 4480 1683 5274 
Q 2003 5120 2236 5072 
Q 2470 5024 2470 4963 
Q 2470 4902 2362 4845 
Q 2317 4819 2214 4636 
Q 2112 4454 1824 3859 
L 1824 -531 
L 1222 -531 
Q 1293 -6 1293 499 
L 1293 2912 
z
M 3283 1395 
Q 2995 1178 2534 858 
Q 2374 1139 2054 1312 
Q 2579 1485 3283 2035 
L 3283 4422 
Q 3283 4992 3232 5229 
Q 3584 5152 3917 5152 
Q 4019 5152 4019 5104 
Q 4019 5056 3964 5017 
Q 3910 4979 3868 4889 
Q 3827 4800 3827 4736 
L 3827 2522 
Q 4570 3245 5158 4307 
Q 5472 4045 5766 3891 
Q 5837 3853 5837 3817 
Q 5837 3782 5766 3772 
Q 5696 3763 5536 3625 
Q 5376 3488 5280 3366 
Q 4518 2445 3827 1843 
L 3827 448 
Q 3827 275 3868 201 
Q 3910 128 4048 105 
Q 4186 83 4544 83 
Q 4902 83 5065 134 
Q 5229 186 5315 371 
Q 5402 557 5472 1005 
Q 5709 685 6080 576 
Q 5882 -83 5754 -204 
Q 5626 -326 5437 -377 
Q 5248 -429 4589 -429 
Q 3930 -429 3680 -381 
Q 3430 -333 3356 -208 
Q 3283 -83 3283 198 
L 3283 1395 
z
" transform="scale(0.015625)"/>
       <path id="STHeiti-7387" d="M 3066 4621 
Q 2970 4934 2867 5152 
L 3526 5254 
Q 3546 4902 3616 4621 
Q 5018 4627 5837 4685 
L 5837 4115 
Q 4941 4179 3277 4179 
Q 1613 4179 678 4115 
L 678 4685 
Q 1568 4621 3066 4621 
z
M 3046 2790 
L 2662 2739 
Q 2195 2675 2106 2637 
Q 2106 2854 2010 3059 
Q 2336 3155 2842 4128 
Q 3110 3955 3251 3913 
Q 3392 3872 3392 3846 
Q 3392 3821 3251 3769 
Q 3110 3718 2944 3497 
Q 2778 3277 2573 3085 
L 3373 3142 
Q 3686 3501 3859 3770 
Q 4077 3546 4307 3443 
Q 4397 3405 4397 3360 
Q 4397 3315 4307 3308 
Q 4218 3302 3965 3126 
Q 3712 2950 3411 2636 
Q 3110 2323 2624 1952 
L 3808 2035 
Q 3661 2278 3552 2413 
L 3942 2656 
Q 4211 2176 4595 1600 
L 4141 1389 
Q 4109 1466 4000 1683 
L 3456 1651 
L 3456 1018 
Q 5126 1018 5990 1075 
L 5990 518 
Q 5126 576 3456 576 
Q 3469 -160 3520 -691 
L 2886 -691 
Q 2944 -70 2944 576 
Q 1325 563 506 518 
L 506 1075 
Q 1331 1030 2950 1018 
L 2950 1613 
Q 2419 1574 2093 1491 
Q 2048 1786 1933 1965 
Q 2157 1965 2377 2147 
Q 2598 2330 3046 2790 
z
M 5248 3898 
Q 5453 3629 5709 3475 
Q 5760 3443 5760 3414 
Q 5760 3386 5677 3386 
Q 5594 3386 5389 3296 
Q 5184 3206 4755 2803 
Q 4595 3002 4384 3117 
Q 4934 3482 5248 3898 
z
M 1958 3238 
L 1587 2848 
Q 1261 3219 877 3507 
L 1222 3859 
Q 1517 3558 1958 3238 
z
M 5811 1933 
L 5414 1485 
Q 5030 1920 4461 2291 
L 4826 2675 
Q 5242 2317 5811 1933 
z
M 2003 2170 
Q 1824 2099 1024 1350 
Q 890 1645 704 1888 
Q 1018 2003 1357 2272 
Q 1696 2541 1798 2662 
Q 1830 2413 2003 2170 
z
" transform="scale(0.015625)"/>
       <path id="STHeiti-25" d="M 4314 5184 
L 966 64 
L 550 64 
L 3603 4730 
Q 3232 4640 2845 4614 
Q 2458 4589 2278 4595 
L 2112 4602 
Q 2304 4333 2304 4032 
Q 2304 3571 1993 3248 
Q 1683 2925 1225 2925 
Q 768 2925 454 3238 
Q 141 3552 141 4006 
Q 141 4461 464 4774 
Q 787 5088 1210 5088 
Q 1382 5088 1702 5021 
Q 2022 4954 2490 4954 
Q 3232 4954 3949 5184 
L 4314 5184 
z
M 1914 4013 
Q 1914 4301 1712 4499 
Q 1510 4698 1225 4698 
Q 941 4698 739 4496 
Q 538 4294 538 4012 
Q 538 3731 739 3529 
Q 941 3328 1225 3328 
Q 1510 3328 1712 3526 
Q 1914 3725 1914 4013 
z
M 2656 1331 
Q 2656 1773 2973 2093 
Q 3290 2413 3734 2413 
Q 4179 2413 4496 2096 
Q 4813 1779 4813 1331 
Q 4813 883 4496 566 
Q 4179 250 3734 250 
Q 3290 250 2973 566 
Q 2656 883 2656 1331 
z
M 4422 1331 
Q 4422 1613 4220 1814 
Q 4019 2016 3734 2016 
Q 3450 2016 3251 1814 
Q 3053 1613 3053 1331 
Q 3053 1050 3251 848 
Q 3450 646 3734 646 
Q 4019 646 4220 844 
Q 4422 1043 4422 1331 
z
" transform="scale(0.015625)"/>
      </defs>
      <use xlink:href="#STHeiti-8f6c"/>
      <use xlink:href="#STHeiti-5316" transform="translate(99.999985 0)"/>
      <use xlink:href="#STHeiti-7387" transform="translate(199.999969 0)"/>
      <use xlink:href="#STHeiti-ff08" transform="translate(299.999954 0)"/>
      <use xlink:href="#STHeiti-25" transform="translate(399.999939 0)"/>
      <use xlink:href="#STHeiti-ff09" transform="translate(477.499924 0)"/>
     </g>
    </g>
   </g>
   <g id="patch_7">
    <path d="M 43.886719 311.6925 
L 43.886719 38.255 
" style="fill: none; stroke: #ada599; stroke-width: 0.8; stroke-linejoin: miter; stroke-linecap: square"/>
   </g>
   <g id="patch_8">
    <path d="M 43.886719 311.6925 
L 559.266719 311.6925 
" style="fill: none; stroke: #ada599; stroke-width: 0.8; stroke-linejoin: miter; stroke-linecap: square"/>
   </g>
   <g id="text_17">
    <!-- 潜力 -->
    <g style="fill: #a09890; opacity: 0.7" transform="translate(188.500719 67.199141) scale(0.1 -0.1)">
     <defs>
      <path id="STHeiti-6f5c" d="M 4966 3213 
Q 5190 2822 5398 2643 
Q 5606 2464 6074 2336 
Q 5824 2074 5715 1805 
Q 5312 2022 5110 2275 
Q 4909 2528 4768 2982 
Q 4595 2458 3994 1926 
Q 3814 2086 3578 2189 
Q 4237 2624 4422 3206 
Q 4026 3194 3795 3162 
L 3795 3622 
Q 4051 3590 4512 3578 
Q 4557 3846 4557 4224 
Q 4134 4211 3923 4173 
L 3923 4634 
Q 4096 4595 4557 4589 
Q 4544 4954 4531 5178 
Q 4704 5165 4864 5165 
L 5050 5171 
Q 5088 5171 5088 5145 
Q 5088 5120 5046 5075 
Q 5005 5030 4992 4589 
Q 5459 4589 5728 4634 
L 5728 4173 
Q 5485 4211 4973 4224 
Q 4954 3827 4909 3578 
Q 5523 3578 5856 3622 
L 5856 3162 
Q 5478 3213 4966 3213 
z
M 2976 4205 
Q 2957 3859 2918 3558 
Q 3283 3565 3494 3603 
L 3494 3142 
Q 3283 3187 2854 3194 
Q 2842 3130 2829 3085 
Q 3360 2682 3590 2464 
L 3296 2106 
Q 3091 2400 2720 2746 
Q 2541 2246 2106 1754 
Q 1882 1907 1613 1997 
Q 2253 2490 2432 3194 
Q 1965 3187 1734 3142 
L 1734 3603 
Q 1997 3558 2502 3558 
Q 2547 3878 2554 4211 
Q 2131 4205 1920 4160 
L 1920 4621 
Q 2150 4576 2560 4576 
Q 2560 4966 2554 5152 
Q 2758 5120 2925 5120 
L 3040 5126 
Q 3072 5126 3072 5104 
Q 3072 5082 3037 5046 
Q 3002 5011 2995 4576 
Q 3302 4589 3482 4621 
L 3482 4160 
Q 3302 4192 2976 4205 
z
M 1696 4486 
L 1402 3994 
Q 1037 4326 525 4589 
L 845 4979 
Q 1299 4755 1696 4486 
z
M 1530 2867 
L 1267 2342 
Q 800 2701 294 2957 
L 576 3386 
Q 1082 3149 1530 2867 
z
M 2778 -243 
L 2778 -563 
L 2291 -563 
Q 2336 -173 2336 307 
L 2336 1190 
Q 2336 1555 2291 1888 
Q 2656 1837 3824 1837 
Q 4992 1837 5331 1894 
Q 5299 1696 5299 1197 
L 5299 230 
Q 5299 -211 5350 -570 
L 4832 -570 
L 4832 -243 
L 2778 -243 
z
M 4832 960 
L 4832 1453 
L 2778 1453 
L 2778 960 
L 4832 960 
z
M 2778 621 
L 2778 128 
L 4832 128 
L 4832 621 
L 2778 621 
z
M 1619 1574 
Q 1530 1331 1370 774 
Q 1210 218 1152 -35 
Q 1094 -288 1062 -602 
Q 736 -390 416 -237 
Q 826 538 1133 1830 
Q 1338 1664 1619 1574 
z
" transform="scale(0.015625)"/>
      <path id="STHeiti-529b" d="M 3270 3386 
Q 3066 1760 2554 989 
Q 2042 218 947 -499 
Q 678 -230 378 -109 
Q 1453 358 2032 1248 
Q 2611 2138 2682 3386 
Q 1248 3386 781 3328 
L 781 3923 
Q 1203 3872 2714 3866 
Q 2797 5082 2778 5267 
Q 3104 5139 3507 5114 
Q 3610 5107 3610 5062 
Q 3610 5018 3533 4966 
Q 3482 4928 3443 4742 
Q 3405 4557 3328 3866 
Q 5395 3866 5715 3923 
L 5389 582 
Q 5350 198 5241 6 
Q 5133 -186 4848 -304 
Q 4563 -422 3936 -538 
Q 3853 -122 3661 141 
Q 4154 134 4387 185 
Q 4621 237 4713 381 
Q 4806 525 4838 832 
L 5094 3386 
L 3270 3386 
z
" transform="scale(0.015625)"/>
     </defs>
     <use xlink:href="#STHeiti-6f5c"/>
     <use xlink:href="#STHeiti-529b" transform="translate(99.999985 0)"/>
    </g>
   </g>
   <g id="text_18">
    <!-- 高价值 -->
    <g style="fill: #a09890; opacity: 0.7" transform="translate(415.421719 67.199141) scale(0.1 -0.1)">
     <defs>
      <path id="STHeiti-9ad8" d="M 3558 4621 
Q 5421 4634 5843 4672 
L 5843 4147 
Q 5440 4186 3414 4186 
Q 1389 4186 493 4122 
L 493 4672 
Q 1274 4621 2944 4621 
Q 2842 4979 2720 5165 
L 3507 5254 
Q 3507 5018 3558 4621 
z
M 4909 3846 
Q 4870 3584 4870 3257 
Q 4870 2931 4915 2573 
Q 4314 2611 3232 2611 
Q 2150 2611 1434 2560 
Q 1485 2835 1485 3187 
Q 1485 3539 1446 3834 
Q 2074 3776 3088 3776 
Q 4102 3776 4909 3846 
z
M 1997 3418 
L 1997 3002 
L 4378 3002 
L 4378 3418 
L 1997 3418 
z
M 4442 -621 
Q 4461 -550 4461 -486 
Q 4461 -301 4262 -45 
Q 4506 -64 4691 -64 
Q 4877 -64 4941 -6 
Q 5005 51 5005 205 
L 5005 1811 
L 1350 1811 
L 1350 -576 
L 774 -576 
Q 832 -109 832 320 
L 832 1664 
Q 832 1990 781 2278 
Q 1632 2214 3254 2214 
Q 4877 2214 5606 2285 
Q 5549 2042 5549 1664 
L 5549 147 
Q 5549 -166 5488 -304 
Q 5427 -442 5203 -512 
Q 4979 -582 4442 -621 
z
M 4416 1440 
Q 4384 1120 4384 784 
Q 4384 448 4422 109 
Q 4096 134 3267 134 
Q 2438 134 1920 96 
Q 1952 429 1952 761 
Q 1952 1094 1926 1427 
Q 2227 1376 3126 1376 
Q 4026 1376 4416 1440 
z
M 2438 992 
L 2438 525 
L 3898 525 
L 3898 992 
L 2438 992 
z
" transform="scale(0.015625)"/>
      <path id="STHeiti-4ef7" d="M 4051 4416 
Q 3654 3718 3264 3219 
Q 2874 2720 2227 2163 
Q 2054 2374 1754 2547 
Q 2547 3014 3027 3721 
Q 3507 4429 3661 5210 
Q 4141 5005 4333 4986 
Q 4403 4979 4403 4928 
Q 4403 4877 4288 4781 
Q 4730 3488 6240 3008 
Q 5965 2688 5850 2387 
Q 5126 2778 4707 3258 
Q 4288 3738 4051 4416 
z
M 1139 2688 
Q 947 2394 666 2035 
Q 480 2317 211 2470 
Q 717 2899 1072 3657 
Q 1427 4416 1517 5133 
Q 1824 4992 2144 4934 
Q 2266 4915 2266 4870 
Q 2266 4826 2205 4771 
Q 2144 4717 2099 4633 
Q 2054 4550 1939 4269 
L 1677 3654 
L 1677 -614 
L 1069 -614 
Q 1139 83 1139 762 
L 1139 2688 
z
M 4461 2829 
Q 4774 2771 5101 2771 
Q 5210 2771 5210 2736 
Q 5210 2701 5136 2643 
Q 5062 2586 5062 2157 
L 5062 576 
Q 5062 141 5114 -595 
L 4461 -595 
Q 4518 147 4518 576 
L 4518 1837 
Q 4518 2445 4461 2829 
z
M 3014 2758 
Q 3136 2720 3648 2720 
Q 3693 2720 3693 2701 
Q 3693 2682 3661 2640 
Q 3629 2598 3597 2384 
Q 3565 2170 3552 1901 
Q 3514 947 3254 403 
Q 2995 -141 2374 -672 
Q 2227 -512 1798 -294 
Q 2451 109 2745 633 
Q 3040 1158 3040 2118 
Q 3040 2406 3014 2758 
z
" transform="scale(0.015625)"/>
      <path id="STHeiti-503c" d="M 2438 109 
L 2438 2912 
Q 2438 3322 2406 3610 
Q 2861 3571 3507 3565 
Q 3552 3834 3571 4186 
Q 2490 4173 2086 4147 
L 2086 4646 
Q 2586 4602 3597 4595 
Q 3610 5024 3590 5229 
Q 3840 5184 4294 5184 
Q 4346 5184 4346 5155 
Q 4346 5126 4301 5088 
Q 4192 4998 4128 4595 
Q 5440 4595 6022 4646 
L 6022 4147 
Q 5338 4192 4077 4186 
L 4013 3565 
Q 5043 3565 5434 3610 
Q 5408 3405 5408 2912 
L 5408 102 
Q 5805 109 6118 147 
L 6118 -365 
Q 5754 -320 3965 -320 
Q 2176 -320 1830 -358 
L 1830 147 
Q 2106 122 2438 109 
z
M 4915 2688 
L 4915 3155 
L 2925 3155 
L 2925 2688 
L 4915 2688 
z
M 2925 2323 
L 2925 1824 
L 4915 1824 
L 4915 2323 
L 2925 2323 
z
M 2925 1466 
L 2925 973 
L 4915 973 
L 4915 1466 
L 2925 1466 
z
M 4915 102 
L 4915 608 
L 2925 608 
L 2925 102 
L 4915 102 
z
M 1549 4026 
L 1549 -627 
L 966 -627 
Q 1037 70 1037 749 
L 1037 3066 
Q 845 2726 595 2349 
Q 448 2579 186 2752 
Q 685 3354 944 3933 
Q 1203 4512 1408 5216 
Q 1786 5024 1926 4995 
Q 2067 4966 2067 4918 
Q 2067 4870 1984 4825 
Q 1901 4781 1766 4493 
L 1549 4026 
z
" transform="scale(0.015625)"/>
     </defs>
     <use xlink:href="#STHeiti-9ad8"/>
     <use xlink:href="#STHeiti-4ef7" transform="translate(99.999985 0)"/>
     <use xlink:href="#STHeiti-503c" transform="translate(199.999969 0)"/>
    </g>
   </g>
   <g id="text_19">
    <!-- 低效 -->
    <g style="fill: #a09890; opacity: 0.7" transform="translate(188.500719 289.397578) scale(0.1 -0.1)">
     <defs>
      <path id="STHeiti-4f4e" d="M 1126 2778 
Q 922 2368 608 1920 
Q 480 2144 192 2342 
Q 1056 3251 1498 5139 
Q 1837 5018 2118 4954 
Q 2234 4928 2234 4889 
Q 2234 4851 2118 4764 
Q 2003 4678 1626 3853 
L 1626 -640 
L 1056 -640 
Q 1126 192 1126 768 
L 1126 2778 
z
M 4518 2861 
Q 5549 2861 5875 2906 
L 5875 2374 
Q 5600 2419 4544 2419 
Q 4608 1536 4934 857 
Q 5261 179 5427 179 
Q 5594 179 5670 762 
Q 5837 557 6138 390 
Q 5830 -448 5488 -448 
Q 5146 -448 4678 342 
Q 4211 1133 4070 2419 
L 2938 2419 
L 2938 454 
Q 3341 838 3661 1216 
Q 3718 909 3872 698 
L 3078 -58 
Q 2822 -294 2605 -570 
Q 2438 -294 2227 -83 
Q 2349 13 2400 160 
Q 2451 307 2451 621 
L 2451 3514 
Q 2451 4250 2400 4525 
Q 3014 4512 3808 4633 
Q 4602 4755 5274 4960 
Q 5414 4634 5562 4461 
Q 5594 4422 5594 4393 
Q 5594 4365 5536 4365 
L 5427 4371 
Q 5210 4371 4544 4282 
Q 4512 3840 4512 3481 
Q 4512 3123 4518 2861 
z
M 2938 2861 
L 4032 2861 
Q 4006 3270 4006 3603 
Q 4006 3936 4019 4205 
Q 3149 4077 2938 4096 
L 2938 2861 
z
M 4403 -378 
L 3859 -461 
Q 3834 -154 3725 288 
L 4237 410 
Q 4346 -19 4403 -378 
z
" transform="scale(0.015625)"/>
      <path id="STHeiti-6548" d="M 2470 4544 
L 1818 4384 
Q 1747 4723 1568 5152 
L 2170 5306 
Q 2330 4851 2470 4544 
z
M 4064 3597 
Q 3878 3194 3686 2874 
Q 3469 3002 3200 3066 
Q 3917 4090 4096 5274 
Q 4467 5146 4730 5114 
Q 4806 5101 4806 5069 
Q 4806 5037 4739 4992 
Q 4672 4947 4589 4790 
Q 4506 4634 4275 4090 
Q 5741 4096 5997 4160 
L 5997 3558 
Q 5805 3584 5408 3597 
Q 5357 2566 5216 1936 
Q 5075 1306 4781 851 
Q 5395 288 6125 96 
Q 5830 -192 5683 -557 
Q 5120 -250 4480 435 
Q 3840 -269 2893 -685 
Q 2714 -422 2477 -243 
Q 3475 83 4179 845 
Q 3763 1568 3578 2592 
L 4070 2746 
Q 4096 2432 4214 1981 
Q 4333 1530 4474 1242 
Q 4832 1914 4877 3597 
L 4064 3597 
z
M 3290 3693 
Q 2701 3744 1917 3744 
Q 1133 3744 448 3686 
L 448 4282 
Q 954 4218 1782 4218 
Q 2611 4218 3290 4282 
L 3290 3693 
z
M 1261 3533 
Q 1606 3283 1734 3251 
Q 1792 3238 1792 3209 
Q 1792 3181 1715 3130 
Q 1562 3034 691 1926 
Q 499 2138 262 2298 
Q 973 2842 1261 3533 
z
M 3379 2682 
L 2995 2278 
Q 2528 2893 2035 3226 
L 2445 3533 
Q 2848 3104 3379 2682 
z
M 1978 1587 
Q 2195 2003 2285 2451 
Q 2675 2176 2745 2157 
Q 2816 2138 2816 2109 
Q 2816 2080 2768 2057 
Q 2720 2035 2569 1737 
Q 2419 1440 2323 1267 
Q 2797 813 3072 486 
L 2650 122 
Q 2426 461 2054 864 
Q 1453 13 762 -486 
Q 614 -230 282 -77 
Q 1062 288 1722 1197 
Q 1254 1651 890 1869 
L 1248 2214 
Q 1613 1933 1978 1587 
z
" transform="scale(0.015625)"/>
     </defs>
     <use xlink:href="#STHeiti-4f4e"/>
     <use xlink:href="#STHeiti-6548" transform="translate(99.999985 0)"/>
    </g>
   </g>
   <g id="text_20">
    <!-- 过度投入 -->
    <g style="fill: #a09890; opacity: 0.7" transform="translate(410.421719 289.367109) scale(0.1 -0.1)">
     <defs>
      <path id="STHeiti-8fc7" d="M 5133 4224 
Q 5690 4224 6022 4269 
L 6022 3712 
Q 5677 3750 5133 3750 
L 5133 1075 
Q 5133 826 5062 707 
Q 4992 589 4745 515 
Q 4499 442 3942 384 
Q 3878 698 3712 1030 
Q 3898 1018 4106 1018 
Q 4314 1018 4448 1062 
Q 4582 1107 4582 1254 
L 4582 3750 
L 3213 3750 
Q 2579 3750 2163 3718 
L 2163 4269 
Q 2515 4224 3213 4224 
L 4582 4224 
Q 4582 5088 4557 5267 
Q 4787 5229 5024 5229 
L 5190 5235 
Q 5286 5235 5286 5171 
Q 5286 5133 5248 5107 
Q 5133 5037 5133 4864 
L 5133 4224 
z
M 1222 5088 
Q 1632 4544 1907 4070 
L 1363 3731 
Q 1024 4346 717 4781 
L 1222 5088 
z
M 3731 2042 
L 3181 1798 
Q 2957 2394 2637 2970 
L 3149 3181 
Q 3520 2573 3731 2042 
z
M 1741 666 
Q 1882 621 2259 422 
Q 2803 141 4192 141 
Q 5056 141 6189 256 
Q 6029 -115 6003 -403 
Q 4544 -422 3811 -380 
Q 3078 -339 2700 -243 
Q 2323 -147 1914 58 
Q 1645 192 1510 192 
Q 1395 192 1248 67 
Q 1101 -58 832 -480 
Q 646 -256 339 -58 
Q 909 563 1178 672 
L 1178 2624 
Q 582 2624 384 2586 
L 384 3104 
Q 742 3066 1132 3066 
Q 1523 3066 1798 3104 
Q 1741 2790 1741 2368 
L 1741 666 
z
" transform="scale(0.015625)"/>
      <path id="STHeiti-5ea6" d="M 3661 4557 
Q 5344 4563 5779 4614 
L 5779 4090 
Q 5133 4147 4275 4147 
L 1510 4147 
Q 1542 3526 1542 2995 
Q 1542 1786 1379 931 
Q 1216 77 858 -557 
Q 608 -294 326 -160 
Q 685 352 851 1081 
Q 1018 1811 1018 2726 
Q 1018 3642 934 4614 
Q 1446 4563 3059 4557 
Q 3008 4806 2854 5101 
L 3437 5210 
Q 3533 4909 3661 4557 
z
M 2522 3430 
Q 2515 3840 2464 3987 
Q 2707 3923 2938 3923 
L 3053 3930 
Q 3091 3930 3091 3907 
Q 3091 3885 3059 3846 
Q 2989 3770 2982 3430 
L 4269 3430 
Q 4269 3898 4230 4045 
Q 4454 3974 4685 3974 
L 4845 3987 
Q 4877 3987 4877 3968 
Q 4877 3949 4838 3910 
Q 4774 3840 4768 3430 
Q 5472 3437 5888 3482 
L 5888 3014 
Q 5421 3066 4768 3072 
L 4768 2746 
Q 4768 2336 4813 2086 
Q 4538 2138 3658 2138 
Q 2778 2138 2477 2086 
Q 2522 2387 2522 2707 
L 2522 3066 
Q 2074 3059 1773 3014 
L 1773 3482 
Q 2080 3437 2522 3430 
z
M 2982 3072 
L 2982 2522 
L 4269 2522 
L 4269 3072 
L 2982 3072 
z
M 2336 1382 
Q 1997 1363 1843 1344 
L 1843 1824 
Q 2541 1766 3574 1766 
Q 4608 1766 5267 1824 
Q 4787 851 4090 365 
Q 4832 83 5760 83 
Q 5907 83 6067 90 
Q 5824 -192 5779 -557 
Q 4499 -422 3629 64 
Q 2976 -307 1869 -582 
Q 1773 -326 1459 -26 
Q 2278 13 3168 358 
Q 2707 723 2336 1382 
z
M 2880 1389 
Q 3162 877 3622 582 
Q 4147 928 4435 1389 
L 2880 1389 
z
" transform="scale(0.015625)"/>
      <path id="STHeiti-6295" d="M 1248 2182 
L 1248 3354 
Q 698 3341 384 3296 
L 384 3885 
Q 646 3846 1248 3834 
Q 1248 4858 1178 5248 
Q 1402 5197 1779 5197 
Q 1939 5197 1939 5139 
Q 1939 5101 1836 5017 
Q 1734 4934 1734 4806 
L 1734 3834 
Q 2266 3846 2515 3885 
L 2515 3296 
Q 2195 3347 1734 3347 
L 1734 2336 
Q 2106 2458 2432 2592 
Q 2419 2509 2419 2355 
Q 2419 2202 2483 2029 
Q 2093 1933 1734 1811 
L 1734 102 
Q 1734 -96 1657 -208 
Q 1581 -320 1363 -397 
Q 1146 -474 710 -531 
Q 672 -224 454 109 
Q 672 83 826 83 
Q 1248 83 1248 301 
L 1248 1632 
Q 678 1434 384 1267 
Q 371 1651 269 1971 
Q 883 2086 1248 2182 
z
M 6093 3552 
Q 5971 3251 5958 2938 
Q 5325 2944 5043 2982 
Q 4762 3021 4675 3104 
Q 4589 3187 4595 3379 
L 4634 4493 
L 3706 4493 
Q 3706 3840 3574 3504 
Q 3443 3168 3008 2720 
Q 2822 2925 2470 3021 
Q 2880 3283 3053 3561 
Q 3226 3840 3226 4358 
Q 3226 4608 3187 4998 
Q 3469 4960 4169 4960 
Q 4870 4960 5203 4998 
Q 5152 4832 5126 4659 
Q 5101 4486 5085 4150 
Q 5069 3814 5069 3699 
Q 5069 3584 5165 3539 
Q 5261 3494 5472 3494 
Q 5683 3494 6093 3552 
z
M 2989 2061 
Q 2893 2061 2739 2048 
L 2739 2624 
Q 3283 2573 4089 2573 
Q 4896 2573 5542 2624 
Q 5158 1318 4506 589 
Q 5120 198 6170 128 
Q 5882 -230 5805 -582 
Q 4742 -288 4109 224 
Q 3443 -288 2477 -646 
Q 2342 -378 2022 -141 
Q 3232 205 3731 557 
Q 3277 1158 2989 2061 
z
M 3488 2086 
Q 3693 1331 4128 877 
Q 4595 1344 4832 2086 
L 3488 2086 
z
" transform="scale(0.015625)"/>
      <path id="STHeiti-5165" d="M 2893 3898 
Q 2470 4429 1984 4698 
L 2426 5133 
Q 3078 4608 3385 4150 
Q 3693 3693 3936 2938 
Q 4326 1722 4784 1210 
Q 5242 698 6074 326 
Q 5741 58 5549 -314 
Q 4768 218 4355 794 
Q 3942 1370 3571 2605 
Q 3456 2982 3264 3341 
Q 2938 2029 2317 1126 
Q 1696 224 986 -307 
Q 742 -26 422 102 
Q 1466 736 2086 1808 
Q 2707 2880 2893 3898 
z
" transform="scale(0.015625)"/>
     </defs>
     <use xlink:href="#STHeiti-8fc7"/>
     <use xlink:href="#STHeiti-5ea6" transform="translate(99.999985 0)"/>
     <use xlink:href="#STHeiti-6295" transform="translate(199.999969 0)"/>
     <use xlink:href="#STHeiti-5165" transform="translate(299.999954 0)"/>
    </g>
   </g>
   <g id="line2d_29">
    <path d="M 296.422919 311.6925 
L 296.422919 38.255 
" clip-path="url(#p0a5fa3ffba)" style="fill: none; stroke-dasharray: 3.7,1.6; stroke-dashoffset: 0; stroke: #c25030; stroke-opacity: 0.7"/>
   </g>
   <g id="line2d_30">
    <path d="M 43.886719 174.97375 
L 559.266719 174.97375 
" clip-path="url(#p0a5fa3ffba)" style="fill: none; stroke-dasharray: 3.7,1.6; stroke-dashoffset: 0; stroke: #c25030; stroke-opacity: 0.7"/>
   </g>
   <g id="patch_9">
    <path d="M 109.469593 288.207232 
Q 153.030125 274.61314 195.736841 261.285502 
" style="fill: none; stroke: #ada599; stroke-width: 0.8; stroke-linecap: round"/>
    <path d="M 191.764069 260.639684 
L 195.736841 261.285502 
L 192.836524 264.076229 
" style="fill: none; stroke: #ada599; stroke-width: 0.8; stroke-linecap: round"/>
   </g>
   <g id="text_21">
    <!-- 无效忙碌 -->
    <g style="fill: #ada599" transform="translate(69.655719 298.020625) scale(0.09 -0.09)">
     <defs>
      <path id="STHeiti-65e0" d="M 3181 3021 
Q 5050 3021 5856 3066 
L 5856 2496 
Q 5229 2534 4006 2534 
L 4006 512 
Q 4006 365 4096 313 
Q 4186 262 4547 262 
Q 4909 262 5075 304 
Q 5242 346 5306 499 
Q 5370 653 5446 1120 
Q 5818 749 6042 749 
Q 5901 237 5776 41 
Q 5651 -154 5382 -218 
Q 5114 -282 4474 -282 
Q 3834 -282 3648 -179 
Q 3462 -77 3462 352 
L 3462 2541 
L 3091 2541 
Q 2861 1421 2390 765 
Q 1920 109 890 -480 
Q 685 -205 397 13 
Q 1318 371 1833 976 
Q 2349 1581 2541 2541 
Q 1222 2528 602 2496 
L 602 3066 
Q 1235 3034 2618 3021 
Q 2682 3680 2688 4339 
Q 1651 4326 1165 4294 
L 1165 4870 
Q 1792 4826 3129 4826 
Q 4467 4826 5306 4870 
L 5306 4294 
Q 4698 4339 3277 4339 
Q 3277 3706 3181 3021 
z
" transform="scale(0.015625)"/>
      <path id="STHeiti-5fd9" d="M 4928 4410 
L 4346 4160 
Q 4230 4589 3987 4960 
L 4570 5216 
Q 4678 4883 4928 4410 
z
M 1402 5050 
Q 1651 5005 2061 5005 
Q 2202 5005 2202 4960 
Q 2202 4915 2122 4860 
Q 2042 4806 2013 4710 
Q 1984 4614 1984 4512 
L 1984 442 
Q 1984 -13 2016 -621 
L 1402 -621 
Q 1453 -128 1453 448 
L 1453 4192 
Q 1453 4640 1402 5050 
z
M 3334 3494 
Q 3098 3494 2829 3469 
L 2829 4051 
Q 3283 4006 4473 4006 
Q 5664 4006 6042 4051 
L 6042 3469 
Q 5638 3507 4570 3507 
L 3866 3507 
L 3866 224 
L 4832 224 
Q 5645 224 5933 256 
L 5933 -320 
Q 5459 -294 4502 -294 
Q 3546 -294 3283 -320 
Q 3334 51 3334 646 
L 3334 3494 
z
M 3027 2611 
L 2496 2400 
Q 2349 3053 2093 3603 
L 2541 3802 
Q 2752 3238 3027 2611 
z
M 1152 3597 
Q 1114 2726 902 1837 
L 358 1907 
Q 614 2752 614 3418 
Q 614 3526 608 3629 
L 1152 3597 
z
" transform="scale(0.015625)"/>
      <path id="STHeiti-788c" d="M 4922 3949 
L 4966 4454 
Q 3200 4454 2861 4397 
L 2861 4928 
Q 3322 4870 4234 4870 
Q 5146 4870 5485 4922 
L 5299 3021 
Q 5811 3034 5990 3066 
L 5990 2560 
Q 5722 2618 4435 2618 
L 4435 2234 
Q 4589 1837 4717 1587 
Q 5331 2131 5485 2368 
Q 5606 2182 5856 2010 
Q 5901 1978 5901 1952 
Q 5901 1926 5818 1914 
Q 5638 1888 4890 1299 
Q 5254 749 6112 461 
Q 5850 179 5747 -128 
Q 4794 480 4435 1402 
L 4435 96 
Q 4435 -275 4380 -368 
Q 4326 -461 4201 -512 
Q 4077 -563 3571 -646 
Q 3533 -288 3309 -77 
Q 3558 -102 3696 -102 
Q 3834 -102 3901 -64 
Q 3968 -26 3968 141 
L 3968 1075 
Q 3251 378 2573 -96 
Q 2451 122 2240 320 
Q 3322 934 3968 1574 
L 3968 2618 
Q 2867 2611 2566 2560 
L 2566 3078 
Q 2918 3021 3469 3021 
L 4838 3021 
L 4890 3565 
Q 3571 3565 3046 3514 
L 3046 4000 
Q 3462 3949 4922 3949 
z
M 819 2246 
Q 646 1978 474 1747 
Q 378 2074 256 2272 
Q 986 3027 1178 4275 
Q 723 4275 416 4224 
L 416 4749 
Q 864 4691 1501 4691 
Q 2138 4691 2509 4749 
L 2509 4224 
Q 2182 4275 1632 4282 
Q 1517 3610 1312 3117 
Q 2074 3117 2323 3142 
Q 2272 2918 2272 2560 
L 2272 1344 
Q 2272 941 2304 582 
L 1837 582 
L 1837 851 
L 1242 851 
L 1242 -58 
L 762 -58 
Q 819 384 819 877 
L 819 2246 
z
M 1837 1242 
L 1837 2726 
L 1242 2726 
L 1242 1242 
L 1837 1242 
z
M 3475 1587 
L 3034 1331 
Q 2867 1760 2675 2010 
L 3072 2221 
Q 3258 1984 3475 1587 
z
" transform="scale(0.015625)"/>
     </defs>
     <use xlink:href="#STHeiti-65e0"/>
     <use xlink:href="#STHeiti-6548" transform="translate(99.999985 0)"/>
     <use xlink:href="#STHeiti-5fd9" transform="translate(199.999969 0)"/>
     <use xlink:href="#STHeiti-788c" transform="translate(299.999954 0)"/>
    </g>
   </g>
   <g id="patch_10">
    <path d="M 503.900436 58.077608 
Q 488.691528 64.848675 474.299728 71.255962 
" style="fill: none; stroke: #2e8b6e; stroke-width: 0.8; stroke-linecap: round"/>
    <path d="M 478.320613 71.436174 
L 474.299728 71.255962 
L 476.856429 68.147381 
" style="fill: none; stroke: #2e8b6e; stroke-width: 0.8; stroke-linecap: round"/>
   </g>
   <g id="text_22">
    <!-- 标杆 -->
    <g style="fill: #2e8b6e" transform="translate(507.728719 55.344844) scale(0.09 -0.09)">
     <defs>
      <path id="STHeiti-6807" d="M 1254 2586 
Q 947 1370 602 794 
Q 435 1126 218 1370 
Q 800 2016 1235 3360 
Q 685 3354 326 3309 
L 326 3859 
Q 621 3814 1254 3808 
Q 1254 4717 1184 5229 
Q 1389 5203 1536 5203 
L 1792 5216 
Q 1882 5216 1882 5168 
Q 1882 5120 1805 5053 
Q 1728 4986 1728 4883 
L 1728 3808 
Q 2317 3821 2586 3859 
L 2586 3309 
Q 2214 3354 1728 3354 
L 1728 659 
Q 1728 160 1792 -544 
L 1190 -544 
Q 1254 160 1254 659 
L 1254 2586 
z
M 5587 4256 
Q 5158 4301 4243 4301 
Q 3328 4301 2893 4256 
L 2893 4838 
Q 3347 4794 4252 4794 
Q 5158 4794 5587 4838 
L 5587 4256 
z
M 4448 2790 
L 4448 -6 
Q 4448 -186 4390 -285 
Q 4333 -384 4144 -464 
Q 3955 -544 3539 -627 
Q 3488 -282 3219 -6 
Q 3462 -51 3616 -51 
Q 3770 -51 3843 13 
Q 3917 77 3917 230 
L 3917 2790 
Q 3059 2778 2611 2746 
L 2611 3315 
Q 3181 3270 4297 3270 
Q 5414 3270 5946 3315 
L 5946 2746 
Q 5453 2790 4448 2790 
z
M 2675 1690 
L 2208 1453 
Q 2042 1965 1766 2349 
L 2208 2579 
Q 2451 2093 2675 1690 
z
M 6176 640 
L 5670 282 
Q 5274 1203 4755 1850 
L 5171 2138 
Q 5715 1376 6176 640 
z
M 3027 2080 
Q 3405 1875 3629 1843 
Q 3706 1830 3706 1779 
Q 3706 1728 3613 1705 
Q 3520 1683 3363 1401 
Q 3206 1120 2682 -58 
Q 2502 90 2099 160 
Q 2861 1082 3027 2080 
z
" transform="scale(0.015625)"/>
      <path id="STHeiti-6746" d="M 1370 2515 
Q 1018 1491 582 736 
Q 429 1024 173 1286 
Q 826 2054 1325 3450 
Q 659 3437 358 3398 
L 358 3968 
Q 755 3917 1370 3917 
Q 1370 4845 1299 5261 
Q 1498 5235 1664 5235 
L 1926 5248 
Q 2010 5248 2010 5203 
Q 2010 5158 1936 5091 
Q 1862 5024 1862 4915 
L 1862 3917 
Q 2406 3930 2662 3968 
L 2662 3398 
Q 2387 3430 1862 3443 
L 1862 563 
Q 1862 90 1914 -640 
L 1312 -640 
Q 1370 58 1370 563 
L 1370 2515 
z
M 4595 2534 
Q 5638 2534 6118 2586 
L 6118 1997 
Q 5638 2048 4595 2048 
L 4595 410 
Q 4595 -141 4640 -666 
L 4000 -666 
Q 4045 -128 4045 410 
L 4045 2048 
Q 3149 2035 2726 1997 
L 2726 2586 
Q 3149 2547 4045 2534 
L 4045 4269 
Q 3206 4262 2835 4218 
L 2835 4787 
Q 3283 4736 4313 4736 
Q 5344 4736 5786 4787 
L 5786 4218 
Q 5414 4262 4595 4269 
L 4595 2534 
z
M 2867 1670 
L 2419 1421 
Q 2240 1850 1907 2368 
L 2304 2605 
Q 2714 1939 2867 1670 
z
" transform="scale(0.015625)"/>
     </defs>
     <use xlink:href="#STHeiti-6807"/>
     <use xlink:href="#STHeiti-6746" transform="translate(99.999985 0)"/>
    </g>
   </g>
   <g id="text_23">
    <!-- 通话时长是转化率核心杠杆 -->
    <g style="fill: #6b3410" transform="translate(43.886719 20.255) scale(0.16 -0.16)">
     <defs>
      <path id="STHeiti-662f" d="M 5069 2829 
Q 4960 2867 3309 2867 
Q 1658 2867 1421 2822 
Q 1453 3085 1453 3475 
L 1453 4371 
Q 1453 4794 1421 4998 
Q 1638 4954 3235 4954 
Q 4832 4954 5069 4998 
Q 5030 4768 5030 4358 
L 5030 3462 
Q 5030 3136 5069 2829 
z
M 4518 4096 
L 4518 4570 
L 1984 4570 
L 1984 4096 
L 4518 4096 
z
M 4518 3238 
L 4518 3712 
L 1984 3712 
L 1984 3238 
L 4518 3238 
z
M 2982 1971 
Q 1414 1971 454 1920 
L 454 2438 
Q 1312 2387 3225 2387 
Q 5139 2387 5990 2438 
L 5990 1920 
Q 5030 1971 3507 1971 
L 3507 1376 
Q 4947 1376 5325 1434 
L 5325 928 
Q 5030 966 3507 966 
L 3507 109 
Q 3917 77 4365 77 
Q 5254 77 5984 192 
Q 5830 -64 5830 -288 
Q 5830 -384 5856 -493 
Q 4851 -512 4112 -467 
Q 3373 -422 3065 -332 
Q 2758 -243 2502 -128 
Q 2246 -13 2057 160 
Q 1869 333 1696 621 
Q 1370 -58 941 -614 
Q 698 -352 416 -230 
Q 1242 339 1594 1709 
Q 1696 1638 1869 1593 
Q 2042 1549 2138 1549 
Q 2234 1549 2234 1523 
Q 2234 1498 2189 1459 
Q 2054 1338 1875 979 
Q 2336 339 2982 173 
L 2982 1971 
z
" transform="scale(0.015625)"/>
      <path id="STHeiti-6838" d="M 4608 4646 
L 4019 4499 
Q 3936 4832 3802 5133 
L 4339 5274 
Q 4429 5024 4608 4646 
z
M 1242 2208 
Q 909 1318 538 787 
Q 384 1178 218 1395 
Q 864 2150 1242 3392 
Q 723 3379 397 3341 
L 397 3904 
Q 653 3866 1242 3853 
Q 1242 4947 1190 5222 
Q 1472 5171 1773 5171 
Q 1901 5171 1901 5139 
Q 1901 5107 1811 5050 
Q 1741 4998 1741 4877 
L 1741 3853 
Q 2272 3866 2496 3904 
L 2496 3341 
Q 2176 3386 1741 3386 
L 1741 2502 
L 2093 2656 
Q 2374 2189 2611 1824 
L 2150 1562 
Q 2003 1958 1741 2406 
L 1741 563 
Q 1741 6 1792 -640 
L 1184 -640 
Q 1242 -26 1242 563 
L 1242 2208 
z
M 6086 3840 
Q 5453 3891 4361 3891 
Q 3270 3891 2637 3840 
L 2637 4371 
Q 3277 4320 4365 4320 
Q 5453 4320 6086 4371 
L 6086 3840 
z
M 4429 2650 
Q 4736 3110 4877 3411 
Q 5126 3277 5427 3200 
Q 5517 3181 5517 3142 
Q 5517 3104 5443 3088 
Q 5370 3072 5322 3030 
Q 5274 2989 5210 2899 
Q 4563 1997 4102 1539 
Q 3642 1082 2746 493 
Q 2522 736 2246 883 
Q 3366 1382 4154 2278 
Q 3142 2227 2835 2112 
Q 2803 2323 2701 2592 
Q 2950 2675 3168 2960 
Q 3386 3245 3731 3840 
Q 3942 3706 4269 3597 
Q 4352 3571 4352 3542 
Q 4352 3514 4291 3498 
Q 4230 3482 4054 3309 
Q 3878 3136 3386 2618 
Q 3853 2618 4429 2650 
z
M 5018 934 
Q 5606 506 6093 -45 
L 5613 -435 
Q 5152 166 4691 589 
Q 3942 -154 2746 -627 
Q 2573 -333 2342 -166 
Q 3053 77 3517 333 
Q 3981 589 4515 1104 
Q 5050 1619 5306 2304 
Q 5606 2144 5766 2099 
Q 5926 2054 5926 2019 
Q 5926 1984 5846 1955 
Q 5766 1926 5658 1766 
Q 5338 1286 5018 934 
z
" transform="scale(0.015625)"/>
      <path id="STHeiti-5fc3" d="M 4122 3853 
L 3558 3411 
Q 3053 4166 2419 4717 
L 2925 5114 
Q 3469 4467 4122 3853 
z
M 5139 717 
Q 4973 192 4854 3 
Q 4736 -186 4502 -234 
Q 4269 -282 4003 -298 
Q 3738 -314 3424 -314 
Q 2701 -314 2505 -259 
Q 2310 -205 2230 -35 
Q 2150 134 2150 512 
L 2150 2419 
Q 2150 3002 2093 3277 
Q 2317 3245 2470 3245 
L 2765 3245 
Q 2861 3245 2861 3213 
Q 2861 3181 2797 3130 
Q 2720 3059 2720 2931 
L 2720 602 
Q 2720 448 2768 361 
Q 2816 275 2960 262 
Q 3104 250 3386 250 
Q 4013 250 4166 294 
Q 4320 339 4390 515 
Q 4461 691 4525 1171 
Q 4723 819 5139 717 
z
M 6074 1645 
L 5408 1318 
Q 5101 2112 4416 2899 
L 4909 3232 
Q 5446 2477 6074 1645 
z
M 832 3091 
Q 1018 3034 1123 3021 
Q 1229 3008 1379 3008 
Q 1530 3008 1530 2976 
Q 1530 2944 1469 2886 
Q 1408 2829 1305 2310 
Q 1203 1792 979 806 
Q 749 922 294 947 
Q 838 1920 832 3091 
z
" transform="scale(0.015625)"/>
      <path id="STHeiti-6760" d="M 1395 2349 
Q 1114 1414 653 634 
Q 518 915 218 1184 
Q 954 1971 1363 3411 
Q 742 3411 339 3360 
L 339 3923 
Q 749 3872 1395 3872 
Q 1395 4915 1344 5229 
Q 1549 5203 1715 5203 
L 1978 5216 
Q 2061 5216 2061 5171 
Q 2061 5126 1987 5059 
Q 1914 4992 1914 4883 
L 1914 3872 
Q 2496 3885 2771 3923 
L 2771 3360 
Q 2470 3405 1914 3405 
L 1914 595 
Q 1914 -147 1978 -608 
L 1331 -608 
Q 1395 -147 1395 595 
L 1395 2349 
z
M 4595 4218 
L 4595 365 
Q 5587 371 6112 429 
L 6118 -186 
Q 5523 -122 4336 -122 
Q 3149 -122 2534 -186 
L 2528 429 
Q 3059 371 4026 365 
L 4026 4218 
Q 3302 4211 2867 4160 
L 2867 4749 
Q 3379 4691 4348 4691 
Q 5318 4691 5824 4749 
L 5824 4160 
Q 5382 4211 4595 4218 
z
M 3021 1798 
L 2483 1517 
Q 2310 1984 1984 2458 
L 2464 2701 
Q 2726 2246 3021 1798 
z
" transform="scale(0.015625)"/>
     </defs>
     <use xlink:href="#STHeiti-901a"/>
     <use xlink:href="#STHeiti-8bdd" transform="translate(99.999985 0)"/>
     <use xlink:href="#STHeiti-65f6" transform="translate(199.999969 0)"/>
     <use xlink:href="#STHeiti-957f" transform="translate(299.999954 0)"/>
     <use xlink:href="#STHeiti-662f" transform="translate(399.999939 0)"/>
     <use xlink:href="#STHeiti-8f6c" transform="translate(499.999924 0)"/>
     <use xlink:href="#STHeiti-5316" transform="translate(599.999908 0)"/>
     <use xlink:href="#STHeiti-7387" transform="translate(699.999893 0)"/>
     <use xlink:href="#STHeiti-6838" transform="translate(799.999878 0)"/>
     <use xlink:href="#STHeiti-5fc3" transform="translate(899.999863 0)"/>
     <use xlink:href="#STHeiti-6760" transform="translate(999.999847 0)"/>
     <use xlink:href="#STHeiti-6746" transform="translate(1099.999832 0)"/>
    </g>
   </g>
   <g id="PathCollection_1">
    <defs>
     <path id="md414230754" d="M 0 4.472136 
C 1.186024 4.472136 2.323632 4.000923 3.162278 3.162278 
C 4.000923 2.323632 4.472136 1.186024 4.472136 0 
C 4.472136 -1.186024 4.000923 -2.323632 3.162278 -3.162278 
C 2.323632 -4.000923 1.186024 -4.472136 0 -4.472136 
C -1.186024 -4.472136 -2.323632 -4.000923 -3.162278 -3.162278 
C -4.000923 -2.323632 -4.472136 -1.186024 -4.472136 0 
C -4.472136 1.186024 -4.000923 2.323632 -3.162278 3.162278 
C -2.323632 4.000923 -1.186024 4.472136 0 4.472136 
z
" style="stroke: #ffffff; stroke-width: 0.5"/>
    </defs>
    <g clip-path="url(#p0a5fa3ffba)">
     <use xlink:href="#md414230754" x="286.115319" y="209.153437" style="fill: #c26d3a; stroke: #ffffff; stroke-width: 0.5"/>
     <use xlink:href="#md414230754" x="404.652719" y="157.883906" style="fill: #c26d3a; stroke: #ffffff; stroke-width: 0.5"/>
     <use xlink:href="#md414230754" x="353.114719" y="157.883906" style="fill: #c26d3a; stroke: #ffffff; stroke-width: 0.5"/>
    </g>
   </g>
   <g id="PathCollection_2">
    <defs>
     <path id="mc58d5596e7" d="M 0 5.477226 
C 1.452577 5.477226 2.845856 4.900111 3.872983 3.872983 
C 4.900111 2.845856 5.477226 1.452577 5.477226 0 
C 5.477226 -1.452577 4.900111 -2.845856 3.872983 -3.872983 
C 2.845856 -4.900111 1.452577 -5.477226 0 -5.477226 
C -1.452577 -5.477226 -2.845856 -4.900111 -3.872983 -3.872983 
C -4.900111 -2.845856 -5.477226 -1.452577 -5.477226 0 
C -5.477226 1.452577 -4.900111 2.845856 -3.872983 3.872983 
C -2.845856 4.900111 -1.452577 5.477226 0 5.477226 
z
" style="stroke: #ffffff; stroke-width: 0.5"/>
    </defs>
    <g clip-path="url(#p0a5fa3ffba)">
     <use xlink:href="#mc58d5596e7" x="363.422319" y="157.883906" style="fill: #2e8b6e; stroke: #ffffff; stroke-width: 0.5"/>
     <use xlink:href="#mc58d5596e7" x="471.652119" y="72.434688" style="fill: #2e8b6e; stroke: #ffffff; stroke-width: 0.5"/>
     <use xlink:href="#mc58d5596e7" x="492.267319" y="106.614375" style="fill: #2e8b6e; stroke: #ffffff; stroke-width: 0.5"/>
    </g>
   </g>
   <g id="PathCollection_3">
    <defs>
     <path id="ma541566b3d" d="M 0 3.872983 
C 1.027127 3.872983 2.012324 3.464901 2.738613 2.738613 
C 3.464901 2.012324 3.872983 1.027127 3.872983 0 
C 3.872983 -1.027127 3.464901 -2.012324 2.738613 -2.738613 
C 2.012324 -3.464901 1.027127 -3.872983 0 -3.872983 
C -1.027127 -3.872983 -2.012324 -3.464901 -2.738613 -2.738613 
C -3.464901 -2.012324 -3.872983 -1.027127 -3.872983 0 
C -3.872983 1.027127 -3.464901 2.012324 -2.738613 2.738613 
C -2.012324 3.464901 -1.027127 3.872983 0 3.872983 
z
" style="stroke: #ffffff; stroke-width: 0.5"/>
    </defs>
    <g clip-path="url(#p0a5fa3ffba)">
     <use xlink:href="#ma541566b3d" x="146.962719" y="260.422969" style="fill: #ada599; stroke: #ffffff; stroke-width: 0.5"/>
     <use xlink:href="#ma541566b3d" x="177.885519" y="226.243281" style="fill: #ada599; stroke: #ffffff; stroke-width: 0.5"/>
     <use xlink:href="#ma541566b3d" x="198.500719" y="260.422969" style="fill: #ada599; stroke: #ffffff; stroke-width: 0.5"/>
    </g>
   </g>
   <g id="PathCollection_4">
    <g clip-path="url(#p0a5fa3ffba)">
     <use xlink:href="#mc58d5596e7" x="317.038119" y="174.97375" style="fill: #2e8b6e; stroke: #ffffff; stroke-width: 0.5"/>
     <use xlink:href="#mc58d5596e7" x="420.114119" y="106.614375" style="fill: #2e8b6e; stroke: #ffffff; stroke-width: 0.5"/>
     <use xlink:href="#mc58d5596e7" x="440.729319" y="123.704219" style="fill: #2e8b6e; stroke: #ffffff; stroke-width: 0.5"/>
    </g>
   </g>
   <g id="PathCollection_5">
    <g clip-path="url(#p0a5fa3ffba)">
     <use xlink:href="#md414230754" x="250.038719" y="209.153437" style="fill: #c26d3a; stroke: #ffffff; stroke-width: 0.5"/>
     <use xlink:href="#md414230754" x="353.114719" y="123.704219" style="fill: #c26d3a; stroke: #ffffff; stroke-width: 0.5"/>
     <use xlink:href="#md414230754" x="317.038119" y="157.883906" style="fill: #c26d3a; stroke: #ffffff; stroke-width: 0.5"/>
    </g>
   </g>
   <g id="PathCollection_6">
    <g clip-path="url(#p0a5fa3ffba)">
     <use xlink:href="#ma541566b3d" x="110.886119" y="260.422969" style="fill: #ada599; stroke: #ffffff; stroke-width: 0.5"/>
     <use xlink:href="#ma541566b3d" x="131.501319" y="226.243281" style="fill: #ada599; stroke: #ffffff; stroke-width: 0.5"/>
     <use xlink:href="#ma541566b3d" x="95.424719" y="260.422969" style="fill: #ada599; stroke: #ffffff; stroke-width: 0.5"/>
    </g>
   </g>
   <g id="legend_1">
    <g id="PathCollection_7">
     <g>
      <use xlink:href="#md414230754" x="489.920312" y="274.17375" style="fill: #c26d3a; stroke: #ffffff; stroke-width: 0.5"/>
     </g>
    </g>
    <g id="text_24">
     <!-- A/E 稳步组 -->
     <g style="fill: #857d74" transform="translate(506.120312 276.53625) scale(0.09 -0.09)">
      <defs>
       <path id="STHeiti-41" d="M 2438 5165 
L 4582 384 
L 4090 384 
L 3366 1952 
L 1382 1952 
L 666 384 
L 154 384 
L 2323 5165 
L 2438 5165 
z
M 2381 4147 
L 1594 2419 
L 3162 2419 
L 2381 4147 
z
" transform="scale(0.015625)"/>
       <path id="STHeiti-2f" d="M 2611 5094 
L 704 -243 
L 224 -243 
L 2131 5094 
L 2611 5094 
z
" transform="scale(0.015625)"/>
       <path id="STHeiti-45" d="M 563 4979 
L 3200 4979 
L 3200 4525 
L 1024 4525 
L 1024 3091 
L 3181 3091 
L 3181 2643 
L 1024 2643 
L 1024 838 
L 3181 838 
L 3181 384 
L 563 384 
L 563 4979 
z
" transform="scale(0.015625)"/>
       <path id="STHeiti-20" transform="scale(0.015625)"/>
       <path id="STHeiti-7a33" d="M 3360 4262 
Q 3098 3955 2765 3661 
Q 2650 3738 2330 3898 
Q 2765 4179 3017 4467 
Q 3270 4755 3462 5235 
Q 3654 5152 3962 5069 
Q 4006 5056 4006 5030 
Q 4006 5005 3929 4950 
Q 3853 4896 3635 4621 
L 4730 4621 
Q 5222 4621 5517 4646 
L 4755 3616 
Q 5280 3622 5875 3654 
Q 5850 3366 5850 2784 
L 5850 1498 
Q 3539 1498 2701 1459 
L 2701 1933 
Q 3110 1901 5363 1901 
L 5363 2374 
L 4301 2374 
Q 3251 2374 2874 2362 
L 2874 2746 
Q 3264 2733 4339 2733 
L 5363 2733 
L 5363 3226 
Q 2899 3226 2726 3194 
L 2726 3654 
Q 3162 3616 4237 3616 
L 4698 4262 
L 3360 4262 
z
M 1293 4250 
L 742 4090 
Q 634 4358 493 4550 
Q 1658 4634 2323 5107 
Q 2413 4915 2637 4672 
Q 2688 4614 2688 4582 
Q 2688 4550 2624 4550 
L 2528 4557 
Q 2374 4557 1734 4371 
L 1734 3341 
Q 2202 3347 2458 3392 
L 2458 2906 
Q 2221 2938 1734 2957 
L 1734 2419 
L 2093 2541 
Q 2330 2195 2541 1786 
L 2182 1581 
Q 2003 1958 1734 2355 
L 1734 531 
Q 1734 102 1779 -570 
L 1248 -570 
Q 1293 102 1293 531 
L 1293 2035 
Q 1050 1408 576 730 
Q 429 973 269 1146 
Q 1030 1990 1280 2957 
Q 794 2950 397 2906 
L 397 3392 
Q 774 3341 1293 3341 
L 1293 4250 
z
M 4698 659 
L 4256 506 
Q 4115 966 3859 1267 
L 4307 1363 
Q 4493 1082 4698 659 
z
M 6195 45 
L 5690 -173 
Q 5414 538 5126 1024 
L 5555 1190 
Q 5882 582 6195 45 
z
M 3008 1024 
Q 2797 410 2630 -211 
L 2138 -38 
Q 2458 512 2509 1178 
L 3008 1024 
z
M 5286 326 
Q 5146 -294 4992 -364 
Q 4838 -435 4204 -435 
Q 3571 -435 3446 -393 
Q 3322 -352 3280 -288 
Q 3238 -224 3238 96 
L 3238 595 
Q 3238 1011 3200 1152 
Q 3507 1082 3635 1075 
Q 3763 1069 3763 1043 
Q 3763 1018 3708 957 
Q 3654 896 3654 774 
L 3654 179 
Q 3654 45 3696 13 
Q 3738 -19 4198 -19 
Q 4403 -19 4547 3 
Q 4691 26 4745 186 
Q 4800 346 4826 550 
Q 5030 371 5286 326 
z
" transform="scale(0.015625)"/>
       <path id="STHeiti-6b65" d="M 3526 4461 
Q 5056 4461 5478 4499 
L 5478 3974 
Q 5056 4013 3526 4013 
L 3526 3098 
Q 5062 3098 6035 3155 
L 6035 2605 
Q 4915 2669 3257 2669 
Q 1600 2669 467 2605 
L 467 3162 
Q 947 3104 1555 3098 
L 1555 4006 
Q 1555 4365 1510 4717 
Q 1696 4678 2170 4678 
Q 2221 4678 2221 4652 
Q 2221 4627 2147 4579 
Q 2074 4531 2074 4403 
L 2074 3098 
L 3008 3098 
L 3008 4570 
Q 3008 4979 2963 5274 
Q 3277 5235 3584 5235 
Q 3667 5235 3667 5203 
Q 3667 5171 3622 5146 
Q 3526 5101 3526 4966 
L 3526 4461 
z
M 2976 262 
L 2976 1683 
Q 2976 2163 2931 2406 
Q 3213 2381 3571 2381 
Q 3674 2381 3674 2345 
Q 3674 2310 3610 2265 
Q 3546 2221 3520 2169 
Q 3494 2118 3494 2029 
L 3494 531 
Q 4365 1114 4960 2285 
Q 5088 2170 5245 2070 
Q 5402 1971 5494 1939 
Q 5587 1907 5587 1875 
Q 5587 1843 5500 1814 
Q 5414 1786 4717 915 
Q 4192 275 3225 -128 
Q 2259 -531 902 -659 
Q 870 -358 666 -83 
Q 1286 -83 1907 9 
Q 2528 102 2976 262 
z
M 1741 2170 
Q 2022 1978 2298 1933 
Q 2381 1914 2381 1888 
Q 2381 1862 2323 1837 
Q 2176 1773 1274 621 
Q 1056 838 755 960 
Q 1037 1133 1312 1472 
Q 1587 1811 1741 2170 
z
" transform="scale(0.015625)"/>
       <path id="STHeiti-7ec4" d="M 1594 2829 
L 1011 2758 
Q 698 2726 531 2669 
Q 499 2957 390 3181 
Q 832 3443 1427 5101 
Q 1773 4902 1933 4860 
Q 2093 4819 2093 4787 
Q 2093 4755 2029 4729 
Q 1965 4704 1885 4608 
Q 1805 4512 1530 4083 
L 922 3123 
L 1805 3194 
Q 2067 3731 2221 4109 
Q 2490 3949 2746 3853 
Q 2803 3827 2803 3801 
Q 2803 3776 2752 3744 
Q 2701 3712 2608 3590 
Q 2515 3469 2138 2899 
L 1286 1626 
Q 1875 1670 2458 1760 
Q 2394 1549 2406 1280 
L 1190 1190 
Q 826 1165 608 1075 
Q 570 1344 467 1542 
Q 973 1811 1594 2829 
z
M 5594 141 
Q 6022 154 6131 173 
L 6131 -352 
Q 6093 -326 4371 -326 
Q 2650 -326 2400 -365 
L 2400 173 
Q 2554 147 2944 147 
L 2944 4218 
Q 2944 4666 2925 4864 
Q 3514 4832 4269 4832 
Q 5024 4832 5613 4864 
Q 5594 4672 5594 4218 
L 5594 141 
z
M 3450 3270 
L 5075 3270 
L 5075 4384 
L 3450 4384 
L 3450 3270 
z
M 3450 1773 
L 5075 1773 
L 5075 2816 
L 3450 2816 
L 3450 1773 
z
M 5075 1312 
L 3450 1312 
L 3450 141 
L 5075 141 
L 5075 1312 
z
M 2483 755 
Q 2445 634 2445 506 
Q 2445 378 2464 269 
Q 954 -38 493 -352 
Q 467 -45 352 294 
Q 1114 397 2483 755 
z
" transform="scale(0.015625)"/>
      </defs>
      <use xlink:href="#STHeiti-41"/>
      <use xlink:href="#STHeiti-2f" transform="translate(73.999985 0)"/>
      <use xlink:href="#STHeiti-45" transform="translate(117.699982 0)"/>
      <use xlink:href="#STHeiti-20" transform="translate(171.299973 0)"/>
      <use xlink:href="#STHeiti-7a33" transform="translate(196.299957 0)"/>
      <use xlink:href="#STHeiti-6b65" transform="translate(296.299942 0)"/>
      <use xlink:href="#STHeiti-7ec4" transform="translate(396.299927 0)"/>
     </g>
    </g>
    <g id="PathCollection_8">
     <g>
      <use xlink:href="#mc58d5596e7" x="489.920312" y="287.098594" style="fill: #2e8b6e; stroke: #ffffff; stroke-width: 0.5"/>
     </g>
    </g>
    <g id="text_25">
     <!-- B/D 高效组 -->
     <g style="fill: #857d74" transform="translate(506.120312 289.461094) scale(0.09 -0.09)">
      <defs>
       <path id="STHeiti-42" d="M 570 4979 
L 1478 4979 
Q 2202 4979 2576 4688 
Q 2950 4397 2950 3853 
Q 2950 3552 2800 3299 
Q 2650 3046 2362 2893 
Q 2835 2739 3081 2432 
Q 3328 2125 3328 1702 
Q 3328 1133 2912 758 
Q 2496 384 1837 384 
L 570 384 
L 570 4979 
z
M 1024 4531 
L 1024 3059 
L 1286 3059 
Q 1888 3059 2182 3251 
Q 2477 3443 2477 3853 
Q 2477 4531 1555 4531 
L 1024 4531 
z
M 1024 2598 
L 1024 832 
L 1594 832 
Q 2086 832 2320 931 
Q 2554 1030 2701 1238 
Q 2848 1446 2848 1664 
Q 2848 1882 2765 2048 
Q 2682 2214 2518 2342 
Q 2355 2470 2128 2534 
Q 1901 2598 1280 2598 
L 1024 2598 
z
" transform="scale(0.015625)"/>
       <path id="STHeiti-44" d="M 557 384 
L 557 4979 
L 1510 4979 
Q 2490 4979 2947 4835 
Q 3405 4691 3737 4380 
Q 4070 4070 4249 3622 
Q 4429 3174 4429 2576 
Q 4429 1978 4150 1450 
Q 3872 922 3395 653 
Q 2918 384 2022 384 
L 557 384 
z
M 998 819 
L 1530 819 
Q 2362 819 2736 902 
Q 3110 986 3392 1232 
Q 3674 1478 3821 1830 
Q 3968 2182 3968 2636 
Q 3968 3091 3798 3475 
Q 3629 3859 3315 4108 
Q 3002 4358 2576 4444 
Q 2150 4531 1325 4531 
L 998 4531 
L 998 819 
z
" transform="scale(0.015625)"/>
      </defs>
      <use xlink:href="#STHeiti-42"/>
      <use xlink:href="#STHeiti-2f" transform="translate(57.399994 0)"/>
      <use xlink:href="#STHeiti-44" transform="translate(101.099991 0)"/>
      <use xlink:href="#STHeiti-20" transform="translate(175.499985 0)"/>
      <use xlink:href="#STHeiti-9ad8" transform="translate(200.499969 0)"/>
      <use xlink:href="#STHeiti-6548" transform="translate(300.499954 0)"/>
      <use xlink:href="#STHeiti-7ec4" transform="translate(400.499939 0)"/>
     </g>
    </g>
    <g id="PathCollection_9">
     <g>
      <use xlink:href="#ma541566b3d" x="489.920312" y="300.023437" style="fill: #ada599; stroke: #ffffff; stroke-width: 0.5"/>
     </g>
    </g>
    <g id="text_26">
     <!-- C/F 低效组 -->
     <g style="fill: #857d74" transform="translate(506.120312 302.385937) scale(0.09 -0.09)">
      <defs>
       <path id="STHeiti-43" d="M 4838 4128 
L 4480 3853 
Q 3840 4646 2835 4646 
Q 2016 4646 1424 4070 
Q 832 3494 832 2659 
Q 832 1824 1411 1264 
Q 1990 704 2861 704 
Q 3834 704 4480 1459 
L 4838 1184 
Q 4499 736 3980 502 
Q 3462 269 2835 269 
Q 1741 269 1043 960 
Q 346 1651 346 2707 
Q 346 3360 669 3913 
Q 992 4467 1565 4780 
Q 2138 5094 2797 5094 
Q 3456 5094 3981 4844 
Q 4506 4595 4838 4128 
z
" transform="scale(0.015625)"/>
       <path id="STHeiti-46" d="M 557 4979 
L 2861 4979 
L 2861 4525 
L 1018 4525 
L 1018 3091 
L 2861 3091 
L 2861 2637 
L 1018 2637 
L 1018 384 
L 557 384 
L 557 4979 
z
" transform="scale(0.015625)"/>
      </defs>
      <use xlink:href="#STHeiti-43"/>
      <use xlink:href="#STHeiti-2f" transform="translate(81.299988 0)"/>
      <use xlink:href="#STHeiti-46" transform="translate(124.999985 0)"/>
      <use xlink:href="#STHeiti-20" transform="translate(173.499969 0)"/>
      <use xlink:href="#STHeiti-4f4e" transform="translate(198.499954 0)"/>
      <use xlink:href="#STHeiti-6548" transform="translate(298.499939 0)"/>
      <use xlink:href="#STHeiti-7ec4" transform="translate(398.499924 0)"/>
     </g>
    </g>
   </g>
  </g>
 </g>
 <defs>
  <clipPath id="p0a5fa3ffba">
   <rect x="43.886719" y="38.255" width="515.38" height="273.4375"/>
  </clipPath>
 </defs>
</svg>
