<?xml version="1.0" encoding="utf-8" standalone="no"?>
<!DOCTYPE svg PUBLIC "-//W3C//DTD SVG 1.1//EN"
  "http://www.w3.org/Graphics/SVG/1.1/DTD/svg11.dtd">
<svg xmlns:xlink="http://www.w3.org/1999/xlink" width="542.784774pt" height="354.83pt" viewBox="0 0 542.784774 354.83" xmlns="http://www.w3.org/2000/svg" version="1.1">
 <metadata>
  <rdf:RDF xmlns:dc="http://purl.org/dc/elements/1.1/" xmlns:cc="http://creativecommons.org/ns#" xmlns:rdf="http://www.w3.org/1999/02/22-rdf-syntax-ns#">
   <cc:Work>
    <dc:type rdf:resource="http://purl.org/dc/dcmitype/StillImage"/>
    <dc:date>2026-05-04T23:15:01.297795</dc:date>
    <dc:format>image/svg+xml</dc:format>
    <dc:creator>
     <cc:Agent>
      <dc:title>Matplotlib v3.10.9, https://matplotlib.org/</dc:title>
     </cc:Agent>
    </dc:creator>
   </cc:Work>
  </rdf:RDF>
 </metadata>
 <defs>
  <style type="text/css">*{stroke-linejoin: round; stroke-linecap: butt}</style>
 </defs>
 <g id="figure_1">
  <g id="patch_1">
   <path d="M 0 354.83 
L 542.784774 354.83 
L 542.784774 0 
L 0 0 
z
" style="fill: #ffffff"/>
  </g>
  <g id="axes_1">
   <g id="patch_2">
    <path d="M 32.484063 311.63 
L 533.604062 311.63 
L 533.604062 38.03 
L 32.484063 38.03 
z
" style="fill: #ffffff"/>
   </g>
   <g id="matplotlib.axis_1">
    <g id="xtick_1">
     <g id="line2d_1">
      <defs>
       <path id="m60ed18d208" d="M 0 0 
L 0 3.5 
" style="stroke: #857d74; stroke-width: 0.8"/>
      </defs>
      <g>
       <use xlink:href="#m60ed18d208" x="84.972916" y="311.63" style="fill: #857d74; stroke: #857d74; stroke-width: 0.8"/>
      </g>
     </g>
     <g id="text_1">
      <!-- 毅航 -->
      <g style="fill: #857d74" transform="translate(73.972916 327.450625) scale(0.11 -0.11)">
       <defs>
        <path id="STHeiti-6bc5" d="M 2387 4698 
L 1805 4557 
Q 1734 4858 1638 5107 
L 2240 5267 
Q 2336 4973 2387 4698 
z
M 6003 3539 
Q 5907 3328 5907 3197 
Q 5907 3066 5920 2976 
Q 5613 2957 5344 2957 
Q 5075 2957 4947 3033 
Q 4819 3110 4832 3392 
L 4883 4480 
L 4262 4480 
Q 4262 3827 4182 3507 
Q 4102 3187 3808 2790 
Q 3642 2995 3347 3123 
Q 3597 3315 3696 3545 
Q 3795 3776 3795 4134 
Q 3795 4493 3750 4966 
Q 4083 4934 4611 4934 
Q 5139 4934 5434 4966 
Q 5376 4781 5350 4336 
Q 5325 3891 5325 3696 
Q 5325 3501 5363 3449 
Q 5402 3398 5517 3398 
Q 5632 3398 6003 3539 
z
M 3264 3994 
Q 2835 4058 1990 4058 
Q 1146 4058 717 3994 
L 717 4531 
Q 1152 4467 1993 4467 
Q 2835 4467 3264 4531 
L 3264 3994 
z
M 2080 3187 
Q 2285 3526 2400 3981 
Q 2675 3821 2938 3770 
Q 3002 3757 3002 3731 
Q 3002 3706 2931 3680 
Q 2861 3654 2787 3571 
Q 2714 3488 2528 3200 
Q 2899 3206 3206 3251 
L 3206 2694 
Q 2848 2752 2195 2758 
Q 1984 2547 1875 2451 
Q 2253 2048 2394 1613 
Q 2694 1920 2886 2362 
Q 3155 2131 3373 2054 
Q 3430 2029 3430 2003 
Q 3430 1978 3344 1955 
Q 3258 1933 3149 1840 
Q 3040 1747 2739 1414 
Q 3155 1133 3494 838 
L 3136 467 
Q 2867 832 2490 1133 
Q 2509 960 2509 787 
Q 2509 -83 2285 -294 
Q 2061 -506 1472 -557 
Q 1446 -288 1274 -13 
Q 1517 -45 1680 -45 
Q 1843 -45 1923 57 
Q 2003 160 2048 467 
Q 2093 774 2093 979 
Q 1651 339 813 -211 
Q 678 45 390 128 
Q 826 269 1290 653 
Q 1754 1037 2016 1440 
Q 1971 1587 1914 1702 
Q 1395 1082 781 672 
Q 666 864 371 1037 
Q 1229 1402 1741 1997 
Q 1651 2125 1594 2195 
Q 1306 1952 883 1658 
Q 774 1920 525 2080 
Q 1165 2317 1670 2758 
Q 934 2752 538 2694 
L 538 3251 
Q 1126 3168 2080 3187 
z
M 1709 3398 
L 1197 3226 
Q 1126 3533 1024 3776 
L 1542 3917 
L 1709 3398 
z
M 3834 2118 
L 3558 2099 
L 3558 2643 
Q 4109 2605 4653 2605 
Q 5197 2605 5754 2643 
Q 5382 1306 4915 634 
Q 5376 224 6182 166 
Q 5882 -179 5805 -480 
Q 5094 -230 4614 256 
Q 4192 -218 3283 -595 
Q 3181 -384 2918 -102 
Q 3840 154 4301 608 
Q 3981 1146 3834 2118 
z
M 4288 2131 
Q 4371 1414 4608 979 
Q 4902 1434 5107 2138 
Q 4448 2138 4288 2131 
z
" transform="scale(0.015625)"/>
        <path id="STHeiti-822a" d="M 4710 4525 
L 4090 4333 
Q 3917 4800 3750 5082 
L 4333 5299 
Q 4538 4934 4710 4525 
z
M 723 2579 
L 723 3757 
Q 723 4237 678 4582 
Q 877 4557 1261 4544 
Q 1306 4768 1306 4937 
Q 1306 5107 1293 5248 
Q 1709 5165 1914 5165 
Q 1990 5165 1990 5139 
Q 1990 5114 1946 5075 
Q 1837 4973 1696 4538 
Q 2278 4538 2662 4582 
Q 2618 4333 2618 3757 
L 2618 269 
Q 2618 38 2464 -83 
Q 2310 -205 1824 -326 
Q 1805 -45 1645 230 
Q 1741 224 1872 224 
Q 2003 224 2083 278 
Q 2163 333 2163 454 
L 2163 2157 
L 1178 2157 
Q 1171 1030 1072 425 
Q 973 -179 774 -678 
Q 666 -442 333 -250 
Q 531 109 624 598 
Q 717 1088 723 2150 
Q 525 2150 314 2118 
L 314 2618 
Q 506 2592 723 2579 
z
M 2163 2573 
L 2163 4109 
L 1178 4109 
L 1178 2573 
L 2163 2573 
z
M 1843 2918 
L 1434 2893 
Q 1453 3130 1453 3322 
Q 1453 3514 1427 3718 
L 1792 3718 
Q 1798 3386 1843 2918 
z
M 6010 3686 
Q 5613 3731 4368 3731 
Q 3123 3731 2816 3693 
L 2816 4243 
Q 3309 4192 4419 4192 
Q 5530 4192 6010 4243 
L 6010 3686 
z
M 6214 538 
Q 6080 51 5997 -121 
Q 5914 -294 5773 -342 
Q 5632 -390 5293 -390 
Q 4954 -390 4835 -348 
Q 4717 -307 4678 -160 
Q 4640 -13 4640 365 
L 4640 2630 
L 3795 2630 
Q 3808 1626 3750 1120 
Q 3693 614 3488 137 
Q 3283 -339 2912 -691 
Q 2694 -480 2381 -416 
Q 2707 -198 2921 147 
Q 3136 493 3222 912 
Q 3309 1331 3309 2240 
Q 3309 2592 3296 3104 
Q 3744 3066 4256 3066 
Q 4768 3066 5197 3104 
Q 5146 2771 5146 2362 
L 5146 461 
Q 5146 211 5181 153 
Q 5216 96 5353 96 
Q 5491 96 5571 259 
Q 5651 422 5715 922 
Q 5901 621 6214 538 
z
M 1875 826 
L 1434 826 
Q 1491 1344 1472 1792 
L 1843 1792 
Q 1843 1261 1875 826 
z
" transform="scale(0.015625)"/>
       </defs>
       <use xlink:href="#STHeiti-6bc5"/>
       <use xlink:href="#STHeiti-822a" transform="translate(99.999985 0)"/>
      </g>
     </g>
    </g>
    <g id="xtick_2">
     <g id="line2d_2">
      <g>
       <use xlink:href="#m60ed18d208" x="184.008489" y="311.63" style="fill: #857d74; stroke: #857d74; stroke-width: 0.8"/>
      </g>
     </g>
     <g id="text_2">
      <!-- 毛毛虫 -->
      <g style="fill: #857d74" transform="translate(167.508489 327.385312) scale(0.11 -0.11)">
       <defs>
        <path id="STHeiti-6bdb" d="M 3194 4179 
L 3194 3290 
Q 4365 3430 5082 3565 
L 5139 3021 
Q 4262 2989 3194 2848 
L 3194 1997 
Q 4890 2208 5843 2387 
L 5894 1830 
Q 4813 1760 3194 1530 
L 3194 512 
Q 3194 339 3235 272 
Q 3277 205 3421 179 
Q 3565 154 4070 154 
Q 4576 154 4803 198 
Q 5030 243 5123 409 
Q 5216 576 5312 1069 
Q 5626 787 5914 723 
Q 5786 262 5699 70 
Q 5613 -122 5453 -218 
Q 5293 -314 5011 -336 
Q 4730 -358 4026 -358 
Q 3322 -358 3066 -329 
Q 2810 -301 2739 -198 
Q 2669 -96 2669 205 
L 2669 1453 
Q 1344 1274 544 1126 
L 493 1683 
Q 1338 1747 2669 1920 
L 2669 2778 
Q 1690 2650 986 2515 
L 928 3053 
Q 1446 3078 2669 3226 
L 2669 4109 
Q 1670 3974 1018 3930 
Q 928 4230 762 4467 
Q 1792 4467 2963 4633 
Q 4134 4800 4960 5101 
Q 5018 4966 5120 4796 
Q 5222 4627 5270 4569 
Q 5318 4512 5318 4483 
Q 5318 4454 5296 4451 
Q 5274 4448 5165 4448 
Q 4864 4448 4409 4368 
Q 3955 4288 3194 4179 
z
" transform="scale(0.015625)"/>
        <path id="STHeiti-866b" d="M 1645 1747 
L 1645 1184 
L 1043 1184 
Q 1094 1510 1094 1894 
L 1094 3648 
Q 1094 4045 1062 4224 
Q 1504 4186 2912 4186 
Q 2906 5178 2880 5261 
Q 3110 5210 3418 5210 
L 3590 5216 
Q 3654 5216 3654 5184 
Q 3654 5152 3593 5091 
Q 3533 5030 3507 4931 
Q 3482 4832 3482 4582 
L 3482 4186 
Q 4742 4186 5402 4224 
Q 5370 4026 5370 3648 
L 5370 2310 
Q 5370 1734 5408 1478 
L 4813 1478 
L 4813 1747 
L 3482 1747 
L 3482 307 
L 4877 410 
Q 4710 698 4506 1011 
L 4947 1248 
Q 5555 365 5926 -294 
L 5389 -582 
Q 5312 -397 5139 -58 
Q 2426 -275 1786 -339 
Q 1146 -403 755 -486 
Q 742 -134 646 230 
Q 986 224 1597 224 
Q 2208 224 2912 269 
L 2912 1747 
L 1645 1747 
z
M 2912 3712 
L 1645 3712 
L 1645 2208 
L 2912 2208 
L 2912 3712 
z
M 4813 2208 
L 4813 3712 
L 3482 3712 
L 3482 2208 
L 4813 2208 
z
" transform="scale(0.015625)"/>
       </defs>
       <use xlink:href="#STHeiti-6bdb"/>
       <use xlink:href="#STHeiti-6bdb" transform="translate(99.999985 0)"/>
       <use xlink:href="#STHeiti-866b" transform="translate(199.999969 0)"/>
      </g>
     </g>
    </g>
    <g id="xtick_3">
     <g id="line2d_3">
      <g>
       <use xlink:href="#m60ed18d208" x="283.044062" y="311.63" style="fill: #857d74; stroke: #857d74; stroke-width: 0.8"/>
      </g>
     </g>
     <g id="text_3">
      <!-- 伽玛 -->
      <g style="fill: #857d74" transform="translate(272.044062 327.385312) scale(0.11 -0.11)">
       <defs>
        <path id="STHeiti-4f3d" d="M 1030 3142 
Q 806 2701 557 2298 
Q 429 2586 250 2771 
Q 608 3174 905 3913 
Q 1203 4653 1299 5203 
Q 1504 5101 1875 5030 
Q 1984 5011 1984 4972 
Q 1984 4934 1910 4876 
Q 1837 4819 1773 4694 
Q 1709 4570 1498 4122 
L 1498 -634 
L 960 -634 
Q 1030 64 1030 742 
L 1030 3142 
z
M 2912 3667 
Q 2880 2016 2713 1213 
Q 2547 410 2035 -346 
Q 1888 -160 1581 -51 
Q 2022 576 2214 1289 
Q 2406 2003 2413 3661 
Q 2150 3654 1958 3610 
L 1958 4192 
Q 2131 4166 2413 4154 
Q 2413 4960 2374 5197 
Q 2592 5171 2790 5171 
L 3008 5178 
Q 3053 5178 3053 5152 
Q 3053 5126 2998 5040 
Q 2944 4954 2925 4141 
Q 3584 4134 3923 4192 
L 3776 333 
Q 3763 83 3696 -51 
Q 3629 -186 3446 -269 
Q 3264 -352 2893 -422 
Q 2867 -102 2656 250 
Q 2861 230 3024 230 
Q 3187 230 3244 307 
Q 3302 384 3315 627 
L 3456 3667 
L 2912 3667 
z
M 5312 269 
L 4710 269 
L 4710 -320 
L 4211 -320 
Q 4250 154 4250 544 
L 4250 3827 
Q 4250 4166 4224 4339 
Q 4627 4301 5027 4301 
Q 5427 4301 5811 4339 
Q 5786 4205 5786 3827 
L 5786 608 
Q 5786 166 5818 -262 
L 5312 -262 
L 5312 269 
z
M 4710 685 
L 5312 685 
L 5312 3859 
L 4710 3859 
L 4710 685 
z
" transform="scale(0.015625)"/>
        <path id="STHeiti-739b" d="M 5107 2278 
Q 5581 2291 5939 2323 
Q 5907 2029 5856 1434 
Q 5754 166 5741 90 
Q 5702 -160 5587 -285 
Q 5472 -410 5222 -480 
Q 4973 -550 4410 -646 
Q 4410 -352 4211 0 
Q 4448 -6 4675 -6 
Q 4902 -6 5033 48 
Q 5165 102 5219 262 
Q 5274 422 5312 838 
Q 5350 1254 5376 1837 
L 4250 1837 
Q 3373 1837 3059 1792 
Q 3213 2906 3206 3910 
Q 3398 3885 3555 3881 
Q 3712 3878 3792 3878 
Q 3872 3878 3872 3846 
Q 3872 3814 3821 3763 
Q 3770 3712 3738 3462 
L 3610 2272 
L 4602 2272 
L 4851 4326 
L 3974 4326 
Q 3341 4326 2906 4288 
L 2906 4832 
Q 3418 4787 4141 4787 
Q 4864 4787 5459 4832 
L 5107 2278 
z
M 1798 986 
Q 2195 1088 2522 1222 
Q 2502 1114 2502 976 
Q 2502 838 2534 672 
Q 2176 621 1523 409 
Q 870 198 493 19 
Q 486 403 346 710 
Q 781 755 1293 870 
L 1293 2496 
Q 819 2483 550 2438 
L 550 2995 
Q 877 2950 1293 2950 
L 1293 4262 
Q 794 4256 506 4205 
L 506 4768 
Q 845 4723 1577 4723 
Q 2310 4723 2643 4768 
L 2643 4205 
Q 2336 4256 1798 4262 
L 1798 2950 
Q 2272 2957 2515 2995 
L 2515 2438 
Q 2227 2490 1798 2490 
L 1798 986 
z
M 4941 653 
Q 4653 704 3901 704 
Q 3149 704 2835 653 
L 2835 1197 
Q 3251 1152 3875 1152 
Q 4499 1152 4941 1197 
L 4941 653 
z
" transform="scale(0.015625)"/>
       </defs>
       <use xlink:href="#STHeiti-4f3d"/>
       <use xlink:href="#STHeiti-739b" transform="translate(99.999985 0)"/>
      </g>
     </g>
    </g>
    <g id="xtick_4">
     <g id="line2d_4">
      <g>
       <use xlink:href="#m60ed18d208" x="382.079636" y="311.63" style="fill: #857d74; stroke: #857d74; stroke-width: 0.8"/>
      </g>
     </g>
     <g id="text_4">
      <!-- 岐力 -->
      <g style="fill: #857d74" transform="translate(371.079636 327.417969) scale(0.11 -0.11)">
       <defs>
        <path id="STHeiti-5c90" d="M 4672 614 
Q 5299 134 6195 32 
Q 5952 -250 5843 -659 
Q 5056 -390 4326 269 
Q 3482 -461 2707 -704 
Q 2560 -429 2240 -275 
Q 3334 38 3987 608 
Q 3546 1171 3258 1914 
L 3699 2042 
Q 3891 1414 4320 934 
Q 4762 1478 4934 2374 
L 3930 2374 
Q 3488 2374 3027 2330 
L 3027 2874 
Q 3488 2835 4070 2829 
L 4070 3885 
Q 3315 3878 2899 3834 
L 2899 4384 
Q 3437 4339 4070 4333 
Q 4058 4896 4006 5203 
Q 4314 5152 4621 5152 
Q 4742 5152 4742 5117 
Q 4742 5082 4656 5027 
Q 4570 4973 4570 4819 
L 4570 4333 
Q 5427 4339 5978 4384 
L 5978 3834 
Q 5434 3885 4570 3885 
L 4570 2829 
Q 5210 2848 5606 2893 
Q 5395 1952 5203 1478 
Q 5011 1005 4672 614 
z
M 2234 448 
L 1261 333 
Q 531 250 442 230 
Q 486 518 486 902 
L 486 3238 
Q 486 3808 442 3981 
Q 640 3942 787 3942 
L 1050 3942 
Q 1114 3942 1114 3907 
Q 1114 3872 1040 3814 
Q 966 3757 966 3622 
L 966 768 
L 1389 806 
L 1389 4320 
Q 1389 4870 1338 5120 
Q 1504 5082 1619 5069 
Q 1734 5056 1818 5056 
L 1965 5062 
Q 2067 5062 2067 5030 
Q 2067 4998 1993 4956 
Q 1920 4915 1888 4867 
Q 1856 4819 1856 4723 
L 1856 845 
L 2234 883 
L 2234 3219 
Q 2234 3744 2170 3910 
Q 2496 3853 2778 3853 
Q 2861 3853 2861 3814 
Q 2861 3776 2781 3725 
Q 2701 3674 2701 3526 
L 2701 877 
Q 2701 416 2739 122 
L 2234 122 
L 2234 448 
z
" transform="scale(0.015625)"/>
        <path id="STHeiti-529b" d="M 3270 3386 
Q 3066 1760 2554 989 
Q 2042 218 947 -499 
Q 678 -230 378 -109 
Q 1453 358 2032 1248 
Q 2611 2138 2682 3386 
Q 1248 3386 781 3328 
L 781 3923 
Q 1203 3872 2714 3866 
Q 2797 5082 2778 5267 
Q 3104 5139 3507 5114 
Q 3610 5107 3610 5062 
Q 3610 5018 3533 4966 
Q 3482 4928 3443 4742 
Q 3405 4557 3328 3866 
Q 5395 3866 5715 3923 
L 5389 582 
Q 5350 198 5241 6 
Q 5133 -186 4848 -304 
Q 4563 -422 3936 -538 
Q 3853 -122 3661 141 
Q 4154 134 4387 185 
Q 4621 237 4713 381 
Q 4806 525 4838 832 
L 5094 3386 
L 3270 3386 
z
" transform="scale(0.015625)"/>
       </defs>
       <use xlink:href="#STHeiti-5c90"/>
       <use xlink:href="#STHeiti-529b" transform="translate(99.999985 0)"/>
      </g>
     </g>
    </g>
    <g id="xtick_5">
     <g id="line2d_5">
      <g>
       <use xlink:href="#m60ed18d208" x="481.115209" y="311.63" style="fill: #857d74; stroke: #857d74; stroke-width: 0.8"/>
      </g>
     </g>
     <g id="text_5">
      <!-- 赛维斯 -->
      <g style="fill: #857d74" transform="translate(464.615209 327.385312) scale(0.11 -0.11)">
       <defs>
        <path id="STHeiti-8d5b" d="M 3008 4659 
Q 2912 4896 2797 5075 
L 3334 5261 
L 3610 4659 
Q 5184 4659 5747 4698 
L 5747 3840 
L 5274 3840 
L 5274 4333 
L 1088 4333 
L 1088 3738 
L 614 3738 
L 614 4698 
Q 1203 4659 3008 4659 
z
M 4486 2150 
Q 5126 1594 6150 1504 
Q 5978 1274 5907 941 
Q 5146 1190 4589 1594 
Q 4576 1466 4576 1344 
L 4576 742 
Q 4576 506 4602 378 
L 4141 378 
L 4141 1286 
L 2118 1286 
L 2118 294 
L 1670 294 
Q 1696 531 1696 730 
L 1696 1440 
Q 1254 1171 659 909 
Q 518 1171 288 1350 
Q 710 1408 1184 1638 
Q 1658 1869 1965 2150 
Q 1101 2150 538 2106 
L 538 2522 
Q 1261 2477 2182 2477 
L 2182 2867 
Q 1613 2861 1235 2822 
L 1235 3226 
Q 1638 3187 2182 3181 
L 2182 3526 
Q 1715 3520 1357 3482 
L 1357 3891 
Q 1722 3853 2182 3846 
Q 2182 4166 2170 4256 
Q 2400 4230 2675 4230 
Q 2758 4230 2758 4198 
Q 2758 4166 2688 4118 
Q 2618 4070 2618 3846 
L 3718 3846 
Q 3718 4166 3706 4250 
Q 3859 4230 4000 4237 
L 4230 4237 
Q 4301 4237 4301 4205 
Q 4301 4173 4246 4141 
Q 4192 4109 4173 4051 
Q 4154 3994 4154 3846 
Q 4646 3853 5024 3891 
L 5024 3482 
Q 4653 3520 4154 3526 
L 4154 3181 
Q 4730 3187 5120 3226 
L 5120 2822 
Q 4730 2861 4154 2867 
L 4154 2477 
Q 5171 2490 5811 2522 
L 5811 2106 
Q 5107 2150 4486 2150 
z
M 3718 3526 
L 2618 3526 
L 2618 3181 
L 3718 3181 
L 3718 3526 
z
M 3718 2867 
L 2618 2867 
L 2618 2477 
L 3718 2477 
L 3718 2867 
z
M 4493 1664 
Q 4230 1869 3994 2150 
L 2573 2150 
Q 2330 1888 2003 1651 
Q 2342 1632 3280 1632 
Q 4218 1632 4493 1664 
z
M 2925 1139 
Q 3200 1062 3418 1062 
Q 3507 1062 3507 1036 
Q 3507 1011 3465 963 
Q 3424 915 3328 688 
Q 3232 461 3149 355 
Q 3066 250 2922 131 
Q 2778 13 2550 -121 
Q 2323 -256 1952 -387 
Q 1581 -518 1075 -621 
Q 992 -320 774 -147 
Q 1651 -115 2236 163 
Q 2822 442 2925 1139 
z
M 5370 -102 
L 5088 -589 
Q 4794 -397 4285 -195 
Q 3776 6 3366 102 
L 3610 480 
Q 4422 288 5370 -102 
z
" transform="scale(0.015625)"/>
        <path id="STHeiti-7ef4" d="M 3366 -70 
L 3366 -627 
L 2829 -627 
Q 2899 -147 2899 749 
L 2899 2906 
Q 2707 2573 2618 2432 
Q 2496 2605 2272 2784 
Q 2560 3142 2867 3814 
Q 3174 4486 3277 5229 
Q 3616 5094 3859 5069 
Q 3974 5056 3974 5005 
Q 3974 4954 3872 4902 
Q 3808 4870 3456 4090 
L 4506 4090 
Q 5683 4090 5907 4122 
L 5907 3610 
Q 5690 3642 4698 3642 
L 4698 2906 
Q 5504 2912 5696 2944 
L 5696 2458 
Q 5555 2483 4698 2483 
L 4698 1670 
Q 5555 1677 5683 1702 
L 5683 1216 
Q 5542 1242 4698 1248 
L 4698 384 
Q 5798 384 6016 416 
L 6016 -102 
Q 5786 -70 4614 -70 
L 3366 -70 
z
M 3366 3642 
L 3366 2906 
L 4218 2906 
L 4218 3642 
L 3366 3642 
z
M 3366 2490 
L 3366 1670 
L 4218 1670 
L 4218 2490 
L 3366 2490 
z
M 3366 1248 
L 3366 384 
L 4218 384 
L 4218 1248 
L 3366 1248 
z
M 1773 3238 
Q 1971 3667 2093 3981 
Q 2330 3814 2586 3776 
Q 2662 3770 2662 3738 
Q 2662 3706 2595 3670 
Q 2528 3635 2422 3462 
Q 2317 3290 2157 3002 
L 1434 1638 
Q 1997 1696 2458 1773 
Q 2349 1485 2362 1248 
L 1357 1146 
Q 992 1101 806 1043 
Q 768 1325 627 1568 
Q 1043 1722 1574 2829 
Q 992 2810 634 2688 
Q 563 2995 448 3174 
Q 960 3462 1427 5184 
Q 1690 5024 2003 4966 
Q 2099 4947 2099 4915 
Q 2099 4883 2041 4851 
Q 1984 4819 1920 4716 
Q 1856 4614 1626 4179 
L 1114 3200 
L 1773 3238 
z
M 5075 4461 
L 4538 4224 
Q 4384 4659 4173 4960 
L 4691 5171 
Q 4832 4838 5075 4461 
z
M 2662 730 
Q 2579 435 2598 192 
Q 1094 -115 672 -294 
Q 602 45 448 378 
Q 1344 403 2662 730 
z
" transform="scale(0.015625)"/>
        <path id="STHeiti-65af" d="M 986 4307 
Q 986 4787 922 5152 
Q 1139 5107 1504 5107 
Q 1574 5107 1574 5081 
Q 1574 5056 1516 5008 
Q 1459 4960 1459 4813 
L 1459 4301 
L 2464 4301 
Q 2464 4928 2413 5171 
Q 2720 5114 2995 5101 
Q 3085 5094 3085 5065 
Q 3085 5037 3046 5011 
Q 2931 4934 2931 4806 
L 2931 4307 
Q 3187 4320 3386 4352 
L 3386 3834 
Q 3187 3866 2931 3878 
L 2931 1414 
Q 3238 1427 3469 1459 
L 3469 934 
Q 3149 986 2694 986 
L 1293 986 
Q 826 986 499 934 
L 499 1459 
Q 704 1427 986 1414 
L 986 3878 
Q 730 3878 416 3834 
L 416 4352 
Q 717 4307 986 4307 
z
M 1459 3334 
L 2464 3334 
L 2464 3885 
L 1459 3885 
L 1459 3334 
z
M 2464 2950 
L 1459 2950 
L 1459 2355 
L 2464 2355 
L 2464 2950 
z
M 1459 1971 
L 1459 1408 
L 2464 1408 
L 2464 1971 
L 1459 1971 
z
M 4192 2739 
Q 4186 1331 4016 684 
Q 3846 38 3360 -659 
Q 3149 -467 2810 -384 
Q 3328 115 3523 768 
Q 3718 1421 3718 2685 
Q 3718 3949 3680 4717 
Q 4051 4698 4576 4806 
Q 5101 4915 5581 5114 
Q 5638 4979 5756 4812 
Q 5875 4646 5936 4585 
Q 5997 4525 5997 4493 
Q 5997 4461 5961 4461 
Q 5926 4461 5872 4470 
Q 5818 4480 5734 4480 
Q 5542 4480 5040 4403 
Q 4538 4326 4192 4326 
L 4192 3181 
L 5088 3181 
Q 5754 3181 6080 3264 
L 6080 2662 
Q 5798 2726 5421 2733 
L 5421 531 
Q 5421 -58 5472 -512 
L 4896 -512 
Q 4947 19 4947 531 
L 4947 2739 
L 4192 2739 
z
M 3110 416 
L 2726 0 
Q 2432 422 2086 666 
L 2458 941 
Q 2797 704 3110 416 
z
M 1242 896 
Q 1491 736 1619 704 
Q 1747 672 1747 646 
Q 1747 621 1705 605 
Q 1664 589 1344 198 
Q 1024 -192 755 -550 
Q 576 -358 301 -275 
Q 870 179 1242 896 
z
" transform="scale(0.015625)"/>
       </defs>
       <use xlink:href="#STHeiti-8d5b"/>
       <use xlink:href="#STHeiti-7ef4" transform="translate(99.999985 0)"/>
       <use xlink:href="#STHeiti-65af" transform="translate(199.999969 0)"/>
      </g>
     </g>
    </g>
   </g>
   <g id="matplotlib.axis_2">
    <g id="ytick_1">
     <g id="line2d_6">
      <path d="M 32.484063 311.63 
L 533.604062 311.63 
" clip-path="url(#p715290ad49)" style="fill: none; stroke-dasharray: 2.96,1.28; stroke-dashoffset: 0; stroke: #f2f0eb; stroke-width: 0.8"/>
     </g>
     <g id="line2d_7">
      <defs>
       <path id="mbd157e7b28" d="M 0 0 
L -3.5 0 
" style="stroke: #857d74; stroke-width: 0.8"/>
      </defs>
      <g>
       <use xlink:href="#mbd157e7b28" x="32.484063" y="311.63" style="fill: #857d74; stroke: #857d74; stroke-width: 0.8"/>
      </g>
     </g>
     <g id="text_6">
      <!-- 0 -->
      <g style="fill: #857d74" transform="translate(19.389375 316.007656) scale(0.11 -0.11)">
       <defs>
        <path id="STHeiti-30" d="M 1747 269 
Q 1005 269 605 880 
Q 205 1491 205 2681 
Q 205 3872 605 4483 
Q 1005 5094 1741 5094 
Q 2477 5094 2909 4470 
Q 3341 3846 3341 2681 
Q 3341 1517 2905 893 
Q 2470 269 1747 269 
z
M 1760 4659 
Q 1229 4659 934 4147 
Q 640 3635 640 2669 
Q 640 685 1760 685 
Q 2304 685 2608 1206 
Q 2912 1728 2912 2681 
Q 2912 3635 2598 4147 
Q 2285 4659 1760 4659 
z
" transform="scale(0.015625)"/>
       </defs>
       <use xlink:href="#STHeiti-30"/>
      </g>
     </g>
    </g>
    <g id="ytick_2">
     <g id="line2d_8">
      <path d="M 32.484063 259.515714 
L 533.604062 259.515714 
" clip-path="url(#p715290ad49)" style="fill: none; stroke-dasharray: 2.96,1.28; stroke-dashoffset: 0; stroke: #f2f0eb; stroke-width: 0.8"/>
     </g>
     <g id="line2d_9">
      <g>
       <use xlink:href="#mbd157e7b28" x="32.484063" y="259.515714" style="fill: #857d74; stroke: #857d74; stroke-width: 0.8"/>
      </g>
     </g>
     <g id="text_7">
      <!-- 20 -->
      <g style="fill: #857d74" transform="translate(13.294688 263.893371) scale(0.11 -0.11)">
       <defs>
        <path id="STHeiti-32" d="M 742 3539 
L 301 3539 
Q 333 4243 768 4668 
Q 1203 5094 1820 5094 
Q 2438 5094 2844 4694 
Q 3251 4294 3251 3718 
Q 3251 3290 3024 2925 
Q 2797 2560 2336 2061 
L 1190 826 
L 3315 826 
L 3315 384 
L 192 384 
L 1946 2278 
Q 2406 2778 2604 3066 
Q 2803 3354 2803 3725 
Q 2803 4096 2512 4377 
Q 2221 4659 1789 4659 
Q 1357 4659 1072 4368 
Q 787 4077 742 3539 
z
" transform="scale(0.015625)"/>
       </defs>
       <use xlink:href="#STHeiti-32"/>
       <use xlink:href="#STHeiti-30" transform="translate(55.399994 0)"/>
      </g>
     </g>
    </g>
    <g id="ytick_3">
     <g id="line2d_10">
      <path d="M 32.484063 207.401429 
L 533.604062 207.401429 
" clip-path="url(#p715290ad49)" style="fill: none; stroke-dasharray: 2.96,1.28; stroke-dashoffset: 0; stroke: #f2f0eb; stroke-width: 0.8"/>
     </g>
     <g id="line2d_11">
      <g>
       <use xlink:href="#mbd157e7b28" x="32.484063" y="207.401429" style="fill: #857d74; stroke: #857d74; stroke-width: 0.8"/>
      </g>
     </g>
     <g id="text_8">
      <!-- 40 -->
      <g style="fill: #857d74" transform="translate(13.294688 211.779085) scale(0.11 -0.11)">
       <defs>
        <path id="STHeiti-34" d="M 2726 5094 
L 2816 5094 
L 2816 1894 
L 3373 1894 
L 3373 1453 
L 2816 1453 
L 2816 384 
L 2362 384 
L 2362 1453 
L 160 1453 
L 2726 5094 
z
M 2362 1894 
L 2362 3808 
L 1005 1894 
L 2362 1894 
z
" transform="scale(0.015625)"/>
       </defs>
       <use xlink:href="#STHeiti-34"/>
       <use xlink:href="#STHeiti-30" transform="translate(55.399994 0)"/>
      </g>
     </g>
    </g>
    <g id="ytick_4">
     <g id="line2d_12">
      <path d="M 32.484063 155.287143 
L 533.604062 155.287143 
" clip-path="url(#p715290ad49)" style="fill: none; stroke-dasharray: 2.96,1.28; stroke-dashoffset: 0; stroke: #f2f0eb; stroke-width: 0.8"/>
     </g>
     <g id="line2d_13">
      <g>
       <use xlink:href="#mbd157e7b28" x="32.484063" y="155.287143" style="fill: #857d74; stroke: #857d74; stroke-width: 0.8"/>
      </g>
     </g>
     <g id="text_9">
      <!-- 60 -->
      <g style="fill: #857d74" transform="translate(13.294688 159.664799) scale(0.11 -0.11)">
       <defs>
        <path id="STHeiti-36" d="M 2349 5094 
L 2726 4851 
L 1485 2970 
Q 1747 3059 1984 3059 
Q 2496 3059 2880 2652 
Q 3264 2246 3264 1660 
Q 3264 1075 2845 672 
Q 2426 269 1827 269 
Q 1229 269 829 678 
Q 429 1088 429 1677 
Q 429 1958 537 2256 
Q 646 2554 954 3014 
L 2349 5094 
z
M 2810 1683 
Q 2810 2086 2528 2368 
Q 2246 2650 1843 2650 
Q 1440 2650 1158 2368 
Q 877 2086 877 1683 
Q 877 1280 1161 998 
Q 1446 717 1843 717 
Q 2240 717 2525 998 
Q 2810 1280 2810 1683 
z
" transform="scale(0.015625)"/>
       </defs>
       <use xlink:href="#STHeiti-36"/>
       <use xlink:href="#STHeiti-30" transform="translate(55.399994 0)"/>
      </g>
     </g>
    </g>
    <g id="ytick_5">
     <g id="line2d_14">
      <path d="M 32.484063 103.172857 
L 533.604062 103.172857 
" clip-path="url(#p715290ad49)" style="fill: none; stroke-dasharray: 2.96,1.28; stroke-dashoffset: 0; stroke: #f2f0eb; stroke-width: 0.8"/>
     </g>
     <g id="line2d_15">
      <g>
       <use xlink:href="#mbd157e7b28" x="32.484063" y="103.172857" style="fill: #857d74; stroke: #857d74; stroke-width: 0.8"/>
      </g>
     </g>
     <g id="text_10">
      <!-- 80 -->
      <g style="fill: #857d74" transform="translate(13.294688 107.550513) scale(0.11 -0.11)">
       <defs>
        <path id="STHeiti-38" d="M 2458 2906 
Q 3328 2477 3328 1702 
Q 3328 1088 2896 678 
Q 2464 269 1763 269 
Q 1062 269 640 678 
Q 218 1088 218 1664 
Q 218 2470 1107 2906 
Q 435 3264 435 3898 
Q 435 4371 828 4732 
Q 1222 5094 1779 5094 
Q 2336 5094 2726 4742 
Q 3117 4390 3117 3885 
Q 3117 3270 2458 2906 
z
M 2656 3904 
Q 2656 4211 2416 4432 
Q 2176 4653 1789 4653 
Q 1402 4653 1152 4432 
Q 902 4211 902 3897 
Q 902 3584 1174 3337 
Q 1446 3091 1792 3091 
Q 2138 3091 2397 3334 
Q 2656 3578 2656 3904 
z
M 2867 1696 
Q 2867 2086 2550 2380 
Q 2234 2675 1782 2675 
Q 1331 2675 1004 2371 
Q 678 2067 678 1654 
Q 678 1242 979 973 
Q 1280 704 1766 704 
Q 2253 704 2560 992 
Q 2867 1280 2867 1696 
z
" transform="scale(0.015625)"/>
       </defs>
       <use xlink:href="#STHeiti-38"/>
       <use xlink:href="#STHeiti-30" transform="translate(55.399994 0)"/>
      </g>
     </g>
    </g>
    <g id="ytick_6">
     <g id="line2d_16">
      <path d="M 32.484063 51.058571 
L 533.604062 51.058571 
" clip-path="url(#p715290ad49)" style="fill: none; stroke-dasharray: 2.96,1.28; stroke-dashoffset: 0; stroke: #f2f0eb; stroke-width: 0.8"/>
     </g>
     <g id="line2d_17">
      <g>
       <use xlink:href="#mbd157e7b28" x="32.484063" y="51.058571" style="fill: #857d74; stroke: #857d74; stroke-width: 0.8"/>
      </g>
     </g>
     <g id="text_11">
      <!-- 100 -->
      <g style="fill: #857d74" transform="translate(7.2 55.436228) scale(0.11 -0.11)">
       <defs>
        <path id="STHeiti-31" d="M 1184 4979 
L 2086 4979 
L 2086 384 
L 1632 384 
L 1632 4531 
L 909 4531 
L 1184 4979 
z
" transform="scale(0.015625)"/>
       </defs>
       <use xlink:href="#STHeiti-31"/>
       <use xlink:href="#STHeiti-30" transform="translate(55.399994 0)"/>
       <use xlink:href="#STHeiti-30" transform="translate(110.799988 0)"/>
      </g>
     </g>
    </g>
   </g>
   <g id="line2d_18">
    <path d="M 32.484063 129.23 
L 533.604062 129.23 
" clip-path="url(#p715290ad49)" style="fill: none; stroke-dasharray: 3.7,1.6; stroke-dashoffset: 0; stroke: #ada599"/>
   </g>
   <g id="patch_3">
    <path d="M 32.484063 311.63 
L 32.484063 38.03 
" style="fill: none; stroke: #f2f0eb; stroke-width: 0.8; stroke-linejoin: miter; stroke-linecap: square"/>
   </g>
   <g id="patch_4">
    <path d="M 32.484063 311.63 
L 533.604062 311.63 
" style="fill: none; stroke: #f2f0eb; stroke-width: 0.8; stroke-linejoin: miter; stroke-linecap: square"/>
   </g>
   <g id="patch_5">
    <path d="M 55.262244 311.63 
L 114.683588 311.63 
L 114.683588 71.904286 
L 55.262244 71.904286 
z
" clip-path="url(#p715290ad49)" style="fill: #c26d3a"/>
   </g>
   <g id="patch_6">
    <path d="M 154.297817 311.63 
L 213.719161 311.63 
L 213.719161 90.144286 
L 154.297817 90.144286 
z
" clip-path="url(#p715290ad49)" style="fill: #ada599"/>
   </g>
   <g id="patch_7">
    <path d="M 253.333391 311.63 
L 312.754734 311.63 
L 312.754734 124.018571 
L 253.333391 124.018571 
z
" clip-path="url(#p715290ad49)" style="fill: #ada599"/>
   </g>
   <g id="patch_8">
    <path d="M 352.368964 311.63 
L 411.790308 311.63 
L 411.790308 134.441429 
L 352.368964 134.441429 
z
" clip-path="url(#p715290ad49)" style="fill: #ada599"/>
   </g>
   <g id="patch_9">
    <path d="M 451.404537 311.63 
L 510.825881 311.63 
L 510.825881 160.498571 
L 451.404537 160.498571 
z
" clip-path="url(#p715290ad49)" style="fill: #ada599"/>
   </g>
   <g id="text_12">
    <!-- 清退基准线 -->
    <g style="fill: #ada599" transform="translate(490.584774 125.938866) scale(0.09 -0.09)">
     <defs>
      <path id="STHeiti-6e05" d="M 4134 4666 
Q 5184 4678 5779 4742 
L 5779 4224 
Q 5254 4282 4134 4294 
L 4134 3827 
Q 5190 3853 5568 3898 
L 5568 3405 
Q 5056 3462 4134 3475 
L 4134 3034 
Q 5459 3053 5958 3110 
L 5958 2598 
Q 5395 2662 3904 2662 
Q 2413 2662 1856 2598 
L 1856 3110 
Q 2291 3066 3642 3034 
L 3642 3475 
Q 2797 3462 2330 3405 
L 2330 3898 
Q 2816 3840 3642 3827 
L 3642 4294 
Q 2458 4269 2125 4224 
L 2125 4742 
Q 2541 4691 3642 4666 
Q 3642 5069 3622 5222 
Q 3782 5197 3974 5197 
L 4186 5203 
Q 4237 5203 4237 5174 
Q 4237 5146 4185 5094 
Q 4134 5043 4134 4870 
L 4134 4666 
z
M 1939 4256 
L 1568 3802 
Q 1120 4346 646 4621 
L 979 5024 
Q 1574 4576 1939 4256 
z
M 1600 2867 
L 1293 2381 
Q 774 2829 320 3053 
L 614 3507 
Q 986 3232 1600 2867 
z
M 4870 422 
L 2938 422 
L 2938 -512 
L 2394 -512 
Q 2432 19 2432 416 
L 2432 1779 
Q 2432 2176 2413 2342 
Q 2829 2310 3904 2310 
Q 4979 2310 5376 2342 
Q 5363 2112 5363 1779 
L 5363 115 
Q 5363 -173 5315 -291 
Q 5267 -410 5081 -480 
Q 4896 -550 4435 -614 
Q 4403 -358 4230 -26 
Q 4422 -38 4588 -38 
Q 4755 -38 4812 16 
Q 4870 70 4870 230 
L 4870 422 
z
M 2938 1530 
L 4870 1530 
L 4870 1939 
L 2938 1939 
L 2938 1530 
z
M 2938 787 
L 4870 787 
L 4870 1171 
L 2938 1171 
L 2938 787 
z
M 1658 1600 
Q 1421 1069 941 -499 
Q 634 -230 314 -77 
Q 806 602 1146 1958 
Q 1363 1715 1658 1600 
z
" transform="scale(0.015625)"/>
      <path id="STHeiti-9000" d="M 5414 2682 
Q 5178 2701 4557 2701 
L 2912 2701 
L 2912 1050 
Q 3354 1254 3770 1504 
Q 3795 1222 3898 1050 
L 2899 563 
Q 2694 454 2579 339 
Q 2419 595 2221 806 
Q 2394 973 2394 1459 
L 2394 4531 
Q 2394 4832 2368 5056 
Q 2867 5011 3891 5011 
Q 4915 5011 5408 5056 
Q 5389 4902 5389 4531 
L 5389 3290 
Q 5389 2963 5414 2682 
z
M 4870 4045 
L 4870 4589 
L 2912 4589 
L 2912 4045 
L 4870 4045 
z
M 4870 3123 
L 4870 3629 
L 2912 3629 
L 2912 3123 
L 4870 3123 
z
M 1760 3846 
L 1158 3693 
Q 1043 4269 762 4832 
L 1338 5005 
Q 1536 4365 1760 3846 
z
M 1581 525 
Q 1709 499 2163 320 
Q 2336 250 2835 208 
Q 3334 166 4179 166 
Q 5024 166 6016 262 
Q 5837 -83 5792 -371 
Q 4384 -378 3725 -349 
Q 3066 -320 2691 -240 
Q 2317 -160 1843 38 
Q 1638 122 1481 122 
Q 1325 122 1184 -35 
Q 1043 -192 896 -518 
Q 672 -326 358 -154 
Q 813 307 1056 454 
L 1056 2522 
Q 531 2522 422 2496 
L 422 3072 
Q 704 3040 1027 3040 
Q 1350 3040 1645 3072 
Q 1581 2771 1581 2323 
L 1581 525 
z
M 4422 1920 
Q 4909 2317 5158 2656 
Q 5357 2502 5754 2336 
Q 5805 2317 5805 2294 
Q 5805 2272 5741 2259 
Q 5594 2234 5360 2074 
Q 5126 1914 4813 1664 
Q 5146 1453 5792 992 
L 5350 550 
Q 4672 1235 3219 2074 
L 3603 2413 
Q 3981 2202 4422 1920 
z
" transform="scale(0.015625)"/>
      <path id="STHeiti-57fa" d="M 2598 1920 
Q 2099 1126 723 378 
Q 608 698 307 806 
Q 1171 1056 2112 1914 
Q 1075 1907 499 1850 
L 499 2349 
Q 1107 2304 1766 2291 
L 1766 4179 
Q 1139 4166 723 4128 
L 723 4640 
Q 1222 4602 1760 4582 
Q 1754 4922 1696 5133 
Q 1926 5082 2272 5082 
Q 2349 5082 2349 5046 
Q 2349 5011 2310 4979 
Q 2240 4909 2240 4717 
L 2240 4582 
L 4166 4582 
Q 4166 4986 4122 5203 
Q 4429 5146 4710 5146 
Q 4800 5146 4800 5107 
Q 4800 5069 4762 5037 
Q 4634 4941 4634 4774 
L 4634 4582 
Q 5222 4595 5760 4640 
L 5760 4128 
Q 5312 4166 4634 4179 
L 4634 2291 
Q 5120 2298 5926 2349 
L 5926 1850 
Q 5466 1901 4512 1914 
Q 4966 1261 5946 1075 
Q 5670 826 5619 480 
Q 4301 1184 4045 1920 
L 2598 1920 
z
M 2240 3789 
L 4173 3789 
L 4173 4179 
L 2240 4179 
L 2240 3789 
z
M 4173 3462 
L 2240 3462 
L 2240 3034 
L 4173 3034 
L 4173 3462 
z
M 2240 2707 
L 2240 2291 
L 4173 2291 
L 4173 2707 
L 2240 2707 
z
M 3475 998 
Q 4154 1005 4512 1043 
L 4512 589 
Q 4058 634 3475 634 
L 3475 90 
Q 4742 90 5536 141 
L 5536 -365 
Q 4685 -314 3254 -314 
Q 1824 -314 979 -365 
L 979 141 
Q 1773 90 3021 90 
L 3021 640 
Q 2419 634 1971 589 
L 1971 1043 
Q 2349 1005 3021 998 
Q 3021 1382 2970 1651 
Q 3238 1613 3533 1613 
Q 3616 1613 3616 1584 
Q 3616 1555 3568 1520 
Q 3520 1485 3497 1417 
Q 3475 1350 3475 1286 
L 3475 998 
z
" transform="scale(0.015625)"/>
      <path id="STHeiti-51c6" d="M 2893 -58 
L 2893 -602 
L 2342 -602 
Q 2419 -198 2419 774 
L 2419 2918 
Q 2246 2637 1939 2208 
Q 1792 2464 1555 2611 
Q 2054 3168 2348 3798 
Q 2643 4429 2790 5254 
Q 3168 5082 3411 5062 
Q 3520 5050 3520 5011 
Q 3520 4973 3424 4896 
Q 3328 4819 3002 4115 
L 4371 4115 
Q 5626 4115 5843 4147 
L 5843 3616 
Q 5613 3648 4525 3648 
L 4525 2886 
Q 5446 2886 5658 2918 
L 5658 2387 
Q 5510 2413 4525 2419 
L 4525 1690 
Q 5523 1696 5651 1722 
L 5651 1190 
Q 5504 1216 4525 1222 
L 4525 410 
Q 5760 410 5984 442 
L 5984 -90 
Q 5747 -58 4512 -58 
L 2893 -58 
z
M 2893 3648 
L 2893 2886 
L 4032 2886 
L 4032 3648 
L 2893 3648 
z
M 2893 2419 
L 2893 1690 
L 4032 1690 
L 4032 2419 
L 2893 2419 
z
M 2893 1222 
L 2893 410 
L 4032 410 
L 4032 1222 
L 2893 1222 
z
M 4851 4410 
L 4250 4256 
Q 4160 4762 3987 5024 
L 4538 5190 
Q 4646 4813 4851 4410 
z
M 1760 3718 
L 1280 3315 
Q 986 3814 486 4307 
L 979 4672 
Q 1331 4179 1760 3718 
z
M 1773 1946 
Q 1619 1709 1388 1184 
Q 1158 659 973 90 
Q 659 352 352 525 
Q 915 1203 1318 2387 
Q 1491 2086 1773 1946 
z
" transform="scale(0.015625)"/>
      <path id="STHeiti-7ebf" d="M 1549 2829 
L 979 2726 
Q 755 2688 467 2605 
Q 467 2694 419 2851 
Q 371 3008 307 3104 
Q 538 3206 893 3833 
Q 1248 4461 1491 5235 
Q 1786 5056 2074 4998 
Q 2163 4979 2163 4924 
Q 2163 4870 2093 4838 
Q 1939 4774 1734 4473 
Q 1530 4173 947 3130 
L 1798 3258 
Q 2067 3731 2150 4058 
Q 2470 3866 2733 3795 
Q 2810 3776 2810 3721 
Q 2810 3667 2720 3644 
Q 2630 3622 2509 3462 
Q 2906 3462 3405 3565 
L 3366 5203 
Q 3482 5178 3622 5162 
Q 3763 5146 3853 5146 
L 3994 5152 
Q 4083 5152 4083 5088 
Q 4083 5050 4051 5021 
Q 4019 4992 3971 4883 
Q 3923 4774 3917 4589 
L 3891 3661 
Q 4890 3872 5670 4083 
L 5773 3590 
Q 5254 3526 3904 3245 
Q 3936 2771 3974 2528 
Q 5645 2893 5856 2957 
L 5958 2464 
Q 5933 2483 4045 2112 
Q 4147 1568 4346 1152 
Q 4838 1619 5107 2067 
Q 5363 1856 5606 1734 
Q 5664 1702 5664 1664 
Q 5664 1626 5600 1619 
Q 5536 1613 5344 1453 
Q 5152 1293 4998 1113 
Q 4845 934 4602 717 
Q 4787 474 5033 275 
Q 5280 77 5363 77 
Q 5446 77 5488 272 
Q 5530 467 5555 742 
Q 5779 429 6125 371 
Q 5978 -122 5850 -362 
Q 5722 -602 5546 -602 
Q 5370 -602 4947 -320 
Q 4525 -38 4230 403 
Q 3443 -205 2778 -531 
Q 2650 -269 2387 -70 
Q 2797 38 3110 227 
Q 3424 416 3962 832 
Q 3706 1325 3558 2003 
Q 2925 1862 2637 1773 
L 2534 2278 
Q 2963 2342 3482 2438 
Q 3430 2861 3418 3136 
Q 2912 3014 2586 2912 
L 2464 3405 
Q 2253 3130 1254 1626 
Q 1946 1677 2509 1830 
Q 2483 1728 2483 1625 
Q 2483 1523 2502 1382 
L 1325 1184 
Q 685 1069 646 1037 
Q 646 1325 480 1626 
Q 755 1728 1001 2022 
Q 1248 2317 1549 2829 
z
M 5331 4352 
L 4826 4064 
Q 4621 4442 4384 4717 
L 4883 4966 
Q 5210 4506 5331 4352 
z
M 2547 864 
Q 2528 794 2528 662 
Q 2528 531 2566 384 
Q 1082 70 576 -224 
Q 538 96 384 410 
Q 979 410 2547 864 
z
" transform="scale(0.015625)"/>
     </defs>
     <use xlink:href="#STHeiti-6e05"/>
     <use xlink:href="#STHeiti-9000" transform="translate(99.999985 0)"/>
     <use xlink:href="#STHeiti-57fa" transform="translate(199.999969 0)"/>
     <use xlink:href="#STHeiti-51c6" transform="translate(299.999954 0)"/>
     <use xlink:href="#STHeiti-7ebf" transform="translate(399.999939 0)"/>
    </g>
   </g>
   <g id="text_13">
    <!-- 92 -->
    <g style="fill: #c26d3a" transform="translate(78.878229 66.521027) scale(0.11 -0.11)">
     <defs>
      <path id="STHeiti-39" d="M 1229 269 
L 851 512 
L 2093 2394 
Q 1850 2310 1613 2310 
Q 1062 2310 688 2707 
Q 314 3104 314 3696 
Q 314 4288 730 4691 
Q 1146 5094 1750 5094 
Q 2355 5094 2748 4681 
Q 3142 4269 3142 3693 
Q 3142 3373 3011 3049 
Q 2880 2726 2624 2349 
L 1229 269 
z
M 762 3680 
Q 762 3277 1043 2995 
Q 1325 2714 1728 2714 
Q 2131 2714 2412 2998 
Q 2694 3283 2694 3680 
Q 2694 4077 2412 4361 
Q 2131 4646 1728 4646 
Q 1325 4646 1043 4364 
Q 762 4083 762 3680 
z
" transform="scale(0.015625)"/>
     </defs>
     <use xlink:href="#STHeiti-39"/>
     <use xlink:href="#STHeiti-32" transform="translate(55.399994 0)"/>
    </g>
   </g>
   <g id="text_14">
    <!-- 低于清退阈值 -->
    <g style="fill: #c25030" transform="translate(454.115209 155.383437) scale(0.09 -0.09)">
     <defs>
      <path id="STHeiti-4f4e" d="M 1126 2778 
Q 922 2368 608 1920 
Q 480 2144 192 2342 
Q 1056 3251 1498 5139 
Q 1837 5018 2118 4954 
Q 2234 4928 2234 4889 
Q 2234 4851 2118 4764 
Q 2003 4678 1626 3853 
L 1626 -640 
L 1056 -640 
Q 1126 192 1126 768 
L 1126 2778 
z
M 4518 2861 
Q 5549 2861 5875 2906 
L 5875 2374 
Q 5600 2419 4544 2419 
Q 4608 1536 4934 857 
Q 5261 179 5427 179 
Q 5594 179 5670 762 
Q 5837 557 6138 390 
Q 5830 -448 5488 -448 
Q 5146 -448 4678 342 
Q 4211 1133 4070 2419 
L 2938 2419 
L 2938 454 
Q 3341 838 3661 1216 
Q 3718 909 3872 698 
L 3078 -58 
Q 2822 -294 2605 -570 
Q 2438 -294 2227 -83 
Q 2349 13 2400 160 
Q 2451 307 2451 621 
L 2451 3514 
Q 2451 4250 2400 4525 
Q 3014 4512 3808 4633 
Q 4602 4755 5274 4960 
Q 5414 4634 5562 4461 
Q 5594 4422 5594 4393 
Q 5594 4365 5536 4365 
L 5427 4371 
Q 5210 4371 4544 4282 
Q 4512 3840 4512 3481 
Q 4512 3123 4518 2861 
z
M 2938 2861 
L 4032 2861 
Q 4006 3270 4006 3603 
Q 4006 3936 4019 4205 
Q 3149 4077 2938 4096 
L 2938 2861 
z
M 4403 -378 
L 3859 -461 
Q 3834 -154 3725 288 
L 4237 410 
Q 4346 -19 4403 -378 
z
" transform="scale(0.015625)"/>
      <path id="STHeiti-4e8e" d="M 2989 2163 
Q 1325 2163 467 2099 
L 467 2739 
Q 1338 2675 2989 2675 
L 2989 4256 
Q 1760 4256 1062 4198 
L 1062 4832 
Q 1779 4768 3206 4768 
Q 4634 4768 5350 4832 
L 5350 4198 
Q 4698 4256 3590 4256 
L 3590 2675 
Q 5133 2682 5952 2739 
L 5952 2099 
Q 5133 2157 3590 2163 
L 3590 160 
Q 3590 -186 3529 -317 
Q 3469 -448 3238 -512 
Q 3008 -576 2381 -646 
Q 2304 -256 2074 0 
Q 2374 -26 2547 -26 
Q 2835 -26 2912 48 
Q 2989 122 2989 320 
L 2989 2163 
z
" transform="scale(0.015625)"/>
      <path id="STHeiti-9608" d="M 2138 4179 
L 1670 3878 
Q 1504 4269 1133 4691 
L 1555 4941 
Q 1862 4563 2138 4179 
z
M 5690 4870 
Q 5664 4672 5664 4096 
L 5664 192 
Q 5664 -115 5606 -252 
Q 5549 -390 5353 -467 
Q 5158 -544 4685 -621 
Q 4672 -346 4416 -19 
Q 4570 -26 4666 -26 
Q 4947 -26 5052 38 
Q 5158 102 5158 429 
L 5158 4378 
L 4211 4378 
Q 3104 4378 2528 4326 
L 2528 4858 
Q 3174 4813 4105 4813 
Q 5037 4813 5690 4870 
z
M 3290 3034 
Q 2259 3034 1626 2963 
L 1626 3469 
Q 2189 3405 3264 3405 
Q 3238 3949 3206 4173 
Q 3366 4134 3500 4131 
Q 3635 4128 3715 4128 
Q 3795 4128 3795 4089 
Q 3795 4051 3706 3987 
Q 3674 3968 3667 3875 
Q 3661 3782 3661 3405 
Q 4307 3411 4755 3469 
L 4755 2963 
Q 4211 3021 3674 3027 
Q 3725 2214 3981 1600 
Q 4147 2061 4275 2701 
Q 4448 2611 4544 2579 
Q 4640 2547 4742 2547 
Q 4845 2547 4845 2505 
Q 4845 2464 4765 2432 
Q 4685 2400 4627 2301 
Q 4570 2202 4550 2118 
Q 4486 1786 4173 1152 
Q 4352 800 4461 800 
Q 4570 800 4659 1248 
Q 4832 973 5024 909 
Q 4749 262 4499 262 
Q 4250 262 3942 762 
Q 3635 339 3264 -6 
Q 3123 166 2893 262 
Q 3379 627 3738 1139 
Q 3514 1600 3402 2022 
Q 3290 2445 3290 3034 
z
M 4621 3693 
L 4224 3494 
Q 4134 3731 4026 3891 
L 4416 4083 
Q 4525 3923 4621 3693 
z
M 653 3840 
Q 858 3782 1222 3782 
Q 1331 3782 1331 3731 
Q 1331 3680 1267 3593 
Q 1203 3507 1203 3411 
L 1203 -506 
L 627 -506 
Q 698 77 698 563 
L 698 3053 
Q 698 3488 653 3840 
z
M 3021 1344 
Q 2931 1370 2390 1370 
Q 1850 1370 1715 1350 
Q 1747 1600 1747 2035 
Q 1747 2470 1715 2688 
Q 2016 2650 2429 2650 
Q 2842 2650 3021 2688 
Q 2995 2413 2995 2025 
Q 2995 1638 3021 1344 
z
M 2624 1715 
L 2624 2278 
L 2118 2278 
L 2118 1715 
L 2624 1715 
z
M 3149 1107 
Q 3098 928 3098 841 
Q 3098 755 3104 710 
Q 2438 627 1613 346 
Q 1587 634 1466 845 
Q 2438 934 3149 1107 
z
" transform="scale(0.015625)"/>
      <path id="STHeiti-503c" d="M 2438 109 
L 2438 2912 
Q 2438 3322 2406 3610 
Q 2861 3571 3507 3565 
Q 3552 3834 3571 4186 
Q 2490 4173 2086 4147 
L 2086 4646 
Q 2586 4602 3597 4595 
Q 3610 5024 3590 5229 
Q 3840 5184 4294 5184 
Q 4346 5184 4346 5155 
Q 4346 5126 4301 5088 
Q 4192 4998 4128 4595 
Q 5440 4595 6022 4646 
L 6022 4147 
Q 5338 4192 4077 4186 
L 4013 3565 
Q 5043 3565 5434 3610 
Q 5408 3405 5408 2912 
L 5408 102 
Q 5805 109 6118 147 
L 6118 -365 
Q 5754 -320 3965 -320 
Q 2176 -320 1830 -358 
L 1830 147 
Q 2106 122 2438 109 
z
M 4915 2688 
L 4915 3155 
L 2925 3155 
L 2925 2688 
L 4915 2688 
z
M 2925 2323 
L 2925 1824 
L 4915 1824 
L 4915 2323 
L 2925 2323 
z
M 2925 1466 
L 2925 973 
L 4915 973 
L 4915 1466 
L 2925 1466 
z
M 4915 102 
L 4915 608 
L 2925 608 
L 2925 102 
L 4915 102 
z
M 1549 4026 
L 1549 -627 
L 966 -627 
Q 1037 70 1037 749 
L 1037 3066 
Q 845 2726 595 2349 
Q 448 2579 186 2752 
Q 685 3354 944 3933 
Q 1203 4512 1408 5216 
Q 1786 5024 1926 4995 
Q 2067 4966 2067 4918 
Q 2067 4870 1984 4825 
Q 1901 4781 1766 4493 
L 1549 4026 
z
" transform="scale(0.015625)"/>
     </defs>
     <use xlink:href="#STHeiti-4f4e"/>
     <use xlink:href="#STHeiti-4e8e" transform="translate(99.999985 0)"/>
     <use xlink:href="#STHeiti-6e05" transform="translate(199.999969 0)"/>
     <use xlink:href="#STHeiti-9000" transform="translate(299.999954 0)"/>
     <use xlink:href="#STHeiti-9608" transform="translate(399.999939 0)"/>
     <use xlink:href="#STHeiti-503c" transform="translate(499.999924 0)"/>
    </g>
   </g>
   <g id="text_15">
    <!-- 毅航领跑，赛维斯跌破清退线 -->
    <g style="fill: #6b3410" transform="translate(32.484063 20.03) scale(0.16 -0.16)">
     <defs>
      <path id="STHeiti-9886" d="M 1965 4653 
Q 2413 4294 3027 3725 
L 2630 3270 
Q 2291 3782 1715 4275 
Q 1152 3373 602 2720 
Q 410 3002 173 3130 
Q 685 3539 985 3990 
Q 1286 4442 1574 5190 
Q 1946 4986 2202 4947 
Q 2259 4941 2259 4905 
Q 2259 4870 2192 4851 
Q 2125 4832 1965 4653 
z
M 4134 4390 
Q 3373 4390 2848 4346 
L 2848 4870 
Q 3347 4819 4460 4819 
Q 5574 4819 6080 4870 
L 6080 4346 
Q 5357 4390 4691 4390 
Q 4602 4006 4557 3635 
Q 5094 3635 5779 3654 
Q 5760 3450 5760 2893 
L 5760 1658 
Q 5760 1229 5798 858 
L 5248 858 
L 5242 3206 
L 3603 3206 
L 3597 736 
L 3078 736 
Q 3123 1171 3123 1536 
L 3123 2893 
Q 3123 3488 3098 3654 
Q 3379 3635 3994 3635 
Q 4122 3974 4134 4390 
z
M 2144 2784 
L 1638 2566 
Q 1542 3014 1331 3334 
L 1824 3539 
Q 1978 3066 2144 2784 
z
M 4122 2752 
Q 4371 2714 4608 2714 
L 4781 2720 
Q 4806 2720 4806 2701 
Q 4806 2682 4780 2659 
Q 4755 2637 4716 2477 
Q 4678 2317 4672 2227 
Q 4602 1210 4499 800 
Q 4397 390 4029 48 
Q 3661 -294 2880 -621 
Q 2752 -339 2483 -96 
Q 3046 13 3427 233 
Q 3808 454 3987 844 
Q 4166 1235 4166 2067 
Q 4166 2419 4122 2752 
z
M 1651 723 
L 2170 1824 
L 1638 1824 
Q 1082 1830 512 1760 
L 512 2336 
Q 813 2285 1693 2285 
Q 2573 2285 2874 2336 
L 1952 288 
Q 2195 -90 2234 -179 
L 1754 -480 
Q 1350 422 877 966 
L 1267 1248 
Q 1427 1050 1651 723 
z
M 6144 -70 
L 5690 -499 
Q 5254 32 4659 422 
L 4998 781 
Q 5581 416 6144 -70 
z
" transform="scale(0.015625)"/>
      <path id="STHeiti-8dd1" d="M 3808 4320 
L 5210 4320 
Q 5594 4320 5830 4352 
Q 5792 4122 5773 3629 
L 5709 1722 
Q 5696 1408 5648 1273 
Q 5600 1139 5433 1052 
Q 5267 966 4851 858 
Q 4845 1094 4698 1440 
Q 4954 1427 5050 1440 
Q 5146 1453 5171 1494 
Q 5197 1536 5203 1651 
L 5274 3891 
L 3590 3891 
Q 3424 3578 3194 3206 
L 4320 3206 
Q 4557 3206 4691 3226 
Q 4653 2829 4653 2272 
Q 4653 1715 4685 1395 
Q 4550 1414 4352 1414 
L 3590 1414 
L 3590 448 
Q 3590 230 3632 150 
Q 3674 70 3834 48 
Q 3994 26 4554 26 
Q 5114 26 5203 77 
Q 5293 128 5366 176 
Q 5440 224 5555 762 
Q 5779 525 6035 480 
Q 5882 -90 5766 -202 
Q 5651 -314 5465 -362 
Q 5280 -410 4422 -410 
Q 3712 -410 3481 -374 
Q 3251 -339 3190 -208 
Q 3130 -77 3130 320 
L 3130 3104 
Q 2912 2790 2758 2611 
Q 2656 2778 2547 2842 
L 2547 2835 
Q 2374 2848 1997 2848 
L 1997 2112 
Q 2547 2112 2733 2157 
L 2733 1683 
Q 2592 1715 1997 1715 
L 1997 525 
Q 2342 614 2797 774 
Q 2765 634 2765 506 
Q 2765 378 2790 269 
Q 1779 32 1315 -99 
Q 851 -230 493 -403 
Q 474 13 365 237 
Q 467 237 666 256 
L 666 1306 
Q 666 1958 640 2150 
Q 800 2118 934 2118 
L 1197 2138 
Q 1254 2138 1254 2109 
Q 1254 2080 1193 2019 
Q 1133 1958 1117 1872 
Q 1101 1786 1101 1626 
L 1101 320 
Q 1216 339 1549 410 
L 1549 2848 
Q 954 2848 774 2835 
Q 794 3155 794 3785 
Q 794 4416 774 4730 
Q 1069 4704 1664 4704 
Q 2259 4704 2547 4730 
Q 2534 4307 2534 3737 
Q 2534 3168 2541 2976 
Q 2822 3334 3152 4032 
Q 3482 4730 3565 5229 
Q 4000 5037 4218 5018 
Q 4288 5011 4288 4972 
Q 4288 4934 4211 4892 
Q 4134 4851 4051 4742 
Q 3968 4634 3808 4320 
z
M 1222 4288 
L 1222 3245 
L 2093 3245 
L 2093 4288 
L 1222 4288 
z
M 3590 2816 
L 3590 1811 
L 4218 1811 
L 4218 2816 
L 3590 2816 
z
" transform="scale(0.015625)"/>
      <path id="STHeiti-ff0c" d="M 1952 435 
Q 1952 0 1776 -253 
Q 1600 -506 1286 -557 
L 1286 -262 
Q 1626 -224 1626 384 
L 1286 384 
L 1286 1062 
L 1952 1062 
L 1952 435 
z
" transform="scale(0.015625)"/>
      <path id="STHeiti-8dcc" d="M 4525 1824 
Q 4224 198 2899 -589 
Q 2752 -371 2413 -141 
Q 3808 410 4077 1901 
Q 3264 1875 2957 1837 
L 2957 2406 
Q 3302 2355 4128 2342 
Q 4179 2957 4186 3533 
L 3514 3533 
Q 3424 3078 3290 2746 
Q 3123 2822 2998 2822 
Q 2874 2822 2816 2816 
Q 3123 3462 3187 4666 
Q 3546 4589 3725 4589 
Q 3802 4589 3802 4531 
Q 3802 4499 3763 4480 
Q 3680 4429 3590 3962 
L 4192 3962 
Q 4198 4730 4147 5190 
Q 4339 5146 4819 5146 
Q 4890 5146 4890 5117 
Q 4890 5088 4829 5049 
Q 4768 5011 4739 4822 
Q 4710 4634 4691 3962 
Q 5370 3974 5773 4013 
L 5773 3482 
Q 5248 3520 4685 3533 
Q 4646 2752 4602 2342 
Q 5440 2342 5946 2406 
L 5946 1837 
Q 5581 1888 4723 1901 
Q 4883 1043 5264 656 
Q 5645 269 6118 109 
Q 5856 -83 5696 -486 
Q 5229 -205 4877 416 
Q 4525 1037 4525 1824 
z
M 1600 563 
L 1600 2931 
Q 1088 2931 659 2893 
Q 717 3341 717 3862 
Q 717 4384 659 4813 
Q 1165 4755 1693 4755 
Q 2221 4755 2630 4813 
Q 2586 4384 2586 3853 
Q 2586 3322 2630 2886 
L 2080 2925 
L 2080 2061 
Q 2566 2061 2726 2099 
L 2726 1613 
Q 2547 1645 2080 1651 
L 2080 672 
L 2867 864 
Q 2816 749 2816 601 
Q 2816 454 2842 358 
Q 1389 77 582 -256 
Q 525 58 390 390 
Q 595 416 685 422 
L 685 1581 
Q 685 2074 627 2336 
Q 858 2304 1210 2304 
Q 1286 2304 1286 2272 
Q 1286 2240 1242 2208 
Q 1126 2131 1126 2048 
L 1126 480 
Q 1446 531 1600 563 
z
M 2118 3354 
L 2118 4326 
L 1190 4326 
L 1190 3354 
L 2118 3354 
z
" transform="scale(0.015625)"/>
      <path id="STHeiti-7834" d="M 3546 2342 
L 3462 2342 
Q 3418 1126 3258 579 
Q 3098 32 2630 -602 
Q 2400 -410 2138 -307 
Q 2726 115 2867 940 
Q 3008 1766 3008 3443 
Q 3008 4019 2989 4371 
Q 3232 4333 4186 4333 
Q 4166 4960 4115 5248 
Q 4422 5210 4762 5210 
Q 4838 5210 4838 5178 
Q 4838 5146 4784 5110 
Q 4730 5075 4694 4988 
Q 4659 4902 4659 4819 
L 4659 4333 
Q 5632 4333 6029 4371 
L 5760 3290 
L 5235 3290 
L 5440 3885 
L 4659 3885 
L 4659 2778 
Q 5395 2790 5638 2816 
Q 5440 1798 5280 1334 
Q 5120 870 4870 525 
Q 5101 320 5334 227 
Q 5568 134 6067 45 
Q 5850 -192 5728 -563 
Q 4992 -250 4563 154 
Q 3981 -416 3558 -634 
Q 3437 -416 3130 -218 
Q 3795 51 4262 486 
Q 3846 1101 3546 2342 
z
M 3475 2771 
L 4186 2771 
L 4186 3885 
L 3482 3885 
Q 3482 3085 3475 2771 
z
M 4013 2342 
Q 4154 1498 4550 851 
Q 4915 1440 5030 2342 
L 4013 2342 
z
M 954 1965 
Q 781 1702 634 1536 
Q 493 1856 301 2035 
Q 717 2368 941 2806 
Q 1165 3245 1325 4051 
Q 819 4045 518 3987 
L 518 4544 
Q 909 4486 1616 4486 
Q 2323 4486 2714 4544 
L 2714 3987 
Q 2406 4038 1837 4051 
Q 1734 3507 1491 2938 
Q 2470 2938 2566 2970 
Q 2528 2746 2528 2355 
L 2528 986 
Q 2528 538 2566 198 
L 2099 198 
L 2099 557 
L 1382 557 
L 1382 -294 
L 896 -294 
Q 954 160 954 678 
L 954 1965 
z
M 2099 979 
L 2099 2522 
L 1382 2522 
L 1382 979 
L 2099 979 
z
" transform="scale(0.015625)"/>
     </defs>
     <use xlink:href="#STHeiti-6bc5"/>
     <use xlink:href="#STHeiti-822a" transform="translate(99.999985 0)"/>
     <use xlink:href="#STHeiti-9886" transform="translate(199.999969 0)"/>
     <use xlink:href="#STHeiti-8dd1" transform="translate(299.999954 0)"/>
     <use xlink:href="#STHeiti-ff0c" transform="translate(399.999939 0)"/>
     <use xlink:href="#STHeiti-8d5b" transform="translate(499.999924 0)"/>
     <use xlink:href="#STHeiti-7ef4" transform="translate(599.999908 0)"/>
     <use xlink:href="#STHeiti-65af" transform="translate(699.999893 0)"/>
     <use xlink:href="#STHeiti-8dcc" transform="translate(799.999878 0)"/>
     <use xlink:href="#STHeiti-7834" transform="translate(899.999863 0)"/>
     <use xlink:href="#STHeiti-6e05" transform="translate(999.999847 0)"/>
     <use xlink:href="#STHeiti-9000" transform="translate(1099.999832 0)"/>
     <use xlink:href="#STHeiti-7ebf" transform="translate(1199.999817 0)"/>
    </g>
   </g>
  </g>
  <g id="text_16">
   <!-- 2026年Q1 · 金条头部供应商 -->
   <g style="fill: #857d74" transform="translate(58.404063 346.289375) scale(0.1 -0.1)">
    <defs>
     <path id="STHeiti-5e74" d="M 2125 4346 
L 3738 4346 
Q 5107 4346 5696 4397 
L 5696 3827 
Q 5088 3878 3770 3878 
L 3770 2886 
Q 4819 2893 5395 2938 
L 5395 2406 
Q 4602 2451 3770 2458 
L 3770 1338 
Q 5658 1338 6080 1395 
L 6080 819 
Q 5709 870 3770 877 
Q 3770 -26 3821 -704 
L 3174 -704 
Q 3226 -19 3226 877 
Q 973 877 371 819 
L 371 1395 
Q 730 1357 1466 1344 
L 1466 2349 
Q 1466 2682 1421 2938 
Q 2093 2886 3226 2886 
L 3226 3878 
L 1862 3878 
Q 1510 3277 1120 2803 
Q 922 2938 563 3040 
Q 973 3430 1341 4028 
Q 1709 4627 1907 5216 
Q 2234 5088 2426 5043 
Q 2618 4998 2618 4966 
Q 2618 4934 2522 4886 
Q 2426 4838 2125 4346 
z
M 3226 2458 
L 1984 2458 
L 1984 1338 
L 3226 1338 
L 3226 2458 
z
" transform="scale(0.015625)"/>
     <path id="STHeiti-51" d="M 4416 883 
L 5094 19 
L 4531 19 
L 4064 614 
Q 3494 269 2822 269 
Q 1779 269 1072 963 
Q 365 1658 365 2662 
Q 365 3693 1049 4393 
Q 1734 5094 2784 5094 
Q 3443 5094 4003 4774 
Q 4563 4454 4883 3897 
Q 5203 3341 5203 2682 
Q 5203 1626 4416 883 
z
M 4134 1242 
Q 4730 1830 4730 2668 
Q 4730 3507 4154 4076 
Q 3578 4646 2778 4646 
Q 1978 4646 1411 4070 
Q 845 3494 845 2659 
Q 845 1824 1421 1270 
Q 1997 717 2790 717 
Q 3322 717 3776 979 
L 2752 2278 
L 3309 2278 
L 4134 1242 
z
" transform="scale(0.015625)"/>
     <path id="STHeiti-20" transform="scale(0.015625)"/>
     <path id="STHeiti-b7" d="M 3590 1888 
L 2784 1888 
L 2784 2707 
L 3590 2707 
L 3590 1888 
z
" transform="scale(0.015625)"/>
     <path id="STHeiti-91d1" d="M 3386 4947 
Q 4038 4243 4636 3878 
Q 5235 3514 6138 3302 
Q 6042 3213 5958 3024 
Q 5875 2835 5869 2688 
Q 4192 3251 3123 4698 
Q 2586 3968 1632 3187 
Q 2182 3142 3200 3142 
Q 4218 3142 4736 3194 
L 4736 2662 
Q 4314 2694 3405 2707 
L 3405 1920 
Q 4768 1920 5261 1958 
L 5261 1440 
Q 4768 1478 3405 1478 
L 3405 154 
L 4006 147 
Q 4288 787 4371 1299 
Q 4736 1146 4922 1094 
Q 4979 1075 4979 1024 
Q 4979 973 4934 954 
Q 4826 902 4390 147 
Q 5094 154 5632 211 
L 5632 -390 
Q 4525 -320 3024 -320 
Q 1523 -320 646 -384 
L 646 218 
Q 1472 154 2886 154 
L 2886 1478 
Q 1638 1478 1005 1434 
L 1005 1965 
Q 1664 1920 2886 1920 
L 2886 2707 
Q 1990 2707 1574 2662 
L 1574 3142 
Q 1037 2720 678 2528 
Q 570 2797 275 2925 
Q 742 3130 1184 3469 
Q 1626 3808 1984 4173 
Q 2342 4538 2505 4787 
Q 2669 5037 2778 5306 
Q 3219 5126 3360 5107 
Q 3501 5088 3501 5040 
Q 3501 4992 3386 4947 
z
M 2234 525 
L 1709 275 
Q 1491 774 1286 1037 
L 1805 1261 
Q 2080 832 2234 525 
z
" transform="scale(0.015625)"/>
     <path id="STHeiti-6761" d="M 3251 2899 
Q 2278 2432 710 2125 
Q 685 2381 416 2656 
Q 1523 2675 2810 3181 
Q 2406 3482 1965 4038 
Q 1632 3674 1094 3302 
Q 915 3501 627 3616 
Q 1203 3930 1635 4387 
Q 2067 4845 2234 5325 
Q 2650 5216 2819 5187 
Q 2989 5158 2989 5116 
Q 2989 5075 2899 5056 
Q 2758 5024 2458 4646 
L 3386 4646 
Q 5178 4646 5325 4659 
Q 4634 3680 3776 3174 
Q 4538 2854 5600 2854 
Q 5856 2854 6131 2874 
Q 5888 2618 5779 2208 
Q 4051 2458 3251 2899 
z
M 3309 3411 
Q 3898 3693 4301 4224 
L 2342 4224 
Q 2803 3718 3309 3411 
z
M 3526 1434 
L 3526 64 
Q 3526 -166 3465 -265 
Q 3405 -365 3187 -425 
Q 2970 -486 2432 -563 
Q 2400 -205 2157 96 
Q 2637 32 2781 32 
Q 2925 32 2960 73 
Q 2995 115 2995 224 
L 2995 1434 
Q 1542 1434 749 1370 
L 749 1939 
Q 1549 1875 2995 1875 
Q 2989 2298 2957 2534 
Q 3354 2470 3526 2470 
Q 3699 2470 3699 2435 
Q 3699 2400 3612 2365 
Q 3526 2330 3526 2138 
L 3526 1875 
Q 4870 1882 5626 1939 
L 5626 1370 
Q 4870 1427 3526 1434 
z
M 1894 1254 
Q 2010 1152 2160 1069 
Q 2310 986 2403 963 
Q 2496 941 2496 890 
Q 2496 845 2387 845 
Q 2278 845 2061 672 
Q 1120 -83 781 -301 
Q 602 -19 326 122 
Q 762 269 1187 582 
Q 1613 896 1894 1254 
z
M 6042 154 
L 5587 -301 
Q 5350 -96 4825 249 
Q 4301 595 3936 774 
L 4339 1139 
L 6042 154 
z
" transform="scale(0.015625)"/>
     <path id="STHeiti-5934" d="M 3827 1632 
Q 3603 819 3043 339 
Q 2483 -141 1274 -589 
Q 1056 -275 723 -26 
Q 1837 237 2429 617 
Q 3021 998 3258 1632 
Q 1414 1632 525 1568 
L 525 2202 
Q 1421 2138 3392 2138 
Q 3469 2662 3526 3523 
Q 3584 4384 3584 4752 
Q 3584 5120 3578 5242 
Q 3994 5120 4307 5114 
Q 4378 5114 4378 5056 
Q 4378 4998 4339 4982 
Q 4301 4966 4253 4803 
Q 4205 4640 4189 4371 
Q 4173 4102 4089 3360 
Q 4006 2618 3936 2138 
Q 5248 2144 6022 2202 
L 6022 1568 
Q 5248 1626 3827 1632 
z
M 3142 4045 
L 2797 3571 
Q 2317 3974 1600 4371 
L 1952 4800 
Q 2566 4448 3142 4045 
z
M 2509 2906 
L 2144 2413 
Q 1542 2957 973 3226 
L 1357 3661 
Q 2074 3245 2509 2906 
z
M 5882 -19 
L 5363 -512 
Q 4774 218 3949 845 
L 4346 1210 
Q 5242 602 5882 -19 
z
" transform="scale(0.015625)"/>
     <path id="STHeiti-90e8" d="M 2560 4646 
L 1894 4403 
Q 1856 4614 1619 5037 
L 2266 5254 
Q 2426 4838 2560 4646 
z
M 5254 2650 
Q 6086 1747 6086 1018 
Q 6086 563 5779 300 
Q 5472 38 4883 6 
Q 4826 378 4659 627 
Q 4813 608 4941 608 
Q 5549 608 5549 1069 
Q 5549 1811 4736 2528 
L 5299 4333 
L 4390 4333 
L 4390 794 
Q 4390 -96 4448 -666 
L 3821 -666 
Q 3904 -45 3904 794 
L 3904 4147 
Q 3904 4742 3872 4819 
Q 4390 4787 4928 4787 
Q 5466 4787 5984 4819 
L 5254 2650 
z
M 3507 3904 
Q 2861 3949 1939 3949 
Q 1018 3949 518 3904 
L 518 4429 
Q 1158 4384 2083 4384 
Q 3008 4384 3507 4429 
L 3507 3904 
z
M 2598 2797 
Q 3328 2797 3629 2842 
L 3629 2298 
Q 3072 2362 1981 2362 
Q 890 2362 346 2298 
L 346 2842 
Q 755 2797 1274 2797 
L 2189 2797 
Q 2406 3213 2598 3834 
Q 2899 3667 3136 3622 
Q 3181 3616 3181 3584 
Q 3181 3552 3104 3497 
Q 3027 3443 2598 2797 
z
M 1830 3098 
L 1306 2854 
Q 1242 3258 1018 3616 
L 1555 3827 
Q 1651 3450 1830 3098 
z
M 1350 102 
L 1350 -474 
L 800 -474 
Q 851 -102 851 320 
L 851 1158 
Q 851 1626 813 1850 
Q 1056 1805 2038 1805 
Q 3021 1805 3238 1850 
Q 3194 1536 3194 1158 
L 3194 410 
Q 3194 -45 3245 -390 
L 2694 -390 
L 2694 102 
L 1350 102 
z
M 2694 538 
L 2694 1382 
L 1350 1382 
L 1350 538 
L 2694 538 
z
" transform="scale(0.015625)"/>
     <path id="STHeiti-4f9b" d="M 1165 2867 
Q 954 2451 602 1958 
Q 480 2163 192 2355 
Q 685 2931 1027 3603 
Q 1370 4275 1536 5248 
Q 1875 5082 2176 5024 
Q 2278 5005 2278 4966 
Q 2278 4928 2201 4851 
Q 2125 4774 1977 4521 
Q 1830 4269 1670 3949 
L 1670 -608 
L 1094 -608 
Q 1165 90 1165 768 
L 1165 2867 
z
M 3091 1869 
L 3091 3302 
Q 2707 3296 2253 3251 
L 2253 3814 
Q 2675 3776 3091 3757 
L 3091 4211 
Q 3091 5069 3066 5210 
Q 3264 5171 3648 5171 
Q 3738 5171 3738 5139 
Q 3738 5107 3661 5062 
Q 3584 5018 3584 4698 
L 3584 3757 
L 4499 3757 
L 4499 4218 
Q 4499 5050 4474 5216 
Q 4691 5178 5050 5178 
Q 5139 5178 5139 5146 
Q 5139 5114 5062 5069 
Q 4986 5024 4986 4704 
L 4986 3757 
Q 5414 3763 5926 3814 
L 5926 3251 
Q 5427 3302 4986 3309 
L 4986 1869 
Q 5651 1869 6138 1926 
L 6138 1344 
Q 5466 1408 4118 1408 
Q 2771 1408 2099 1344 
L 2099 1926 
Q 2522 1875 3091 1869 
z
M 3584 3309 
L 3584 1869 
L 4499 1869 
L 4499 3309 
L 3584 3309 
z
M 3258 1146 
Q 3597 973 3827 902 
Q 3936 870 3936 828 
Q 3936 787 3837 742 
Q 3738 698 3622 589 
Q 3507 480 3187 128 
L 2477 -653 
Q 2362 -442 1926 -320 
Q 2272 -102 2672 346 
Q 3072 794 3258 1146 
z
M 6093 -134 
L 5581 -570 
Q 5018 250 4435 781 
L 4870 1107 
Q 5581 474 6093 -134 
z
" transform="scale(0.015625)"/>
     <path id="STHeiti-5e94" d="M 3853 4614 
L 3264 4499 
Q 3136 4909 2970 5190 
L 3642 5370 
Q 3750 5024 3853 4614 
z
M 5850 3936 
Q 5446 3987 4333 3987 
L 1536 3987 
Q 1530 2509 1488 1798 
Q 1446 1088 1299 573 
Q 1152 58 813 -582 
Q 550 -307 294 -198 
Q 704 333 864 921 
Q 1024 1510 1024 2400 
Q 1024 3290 947 4512 
Q 1517 4461 3513 4461 
Q 5510 4461 5850 4512 
L 5850 3936 
z
M 4128 1574 
L 3552 1453 
Q 3526 2298 3136 3277 
L 3686 3418 
Q 3962 2477 4128 1574 
z
M 4435 250 
Q 5395 256 5965 314 
L 5965 -275 
Q 5229 -211 3734 -211 
Q 2240 -211 1523 -275 
L 1517 314 
Q 2246 250 3891 250 
Q 4198 691 4547 1641 
Q 4896 2592 5024 3341 
Q 5344 3181 5677 3091 
Q 5773 3066 5773 3034 
Q 5773 3002 5696 2950 
Q 5568 2861 5402 2432 
Q 4986 1376 4435 250 
z
M 3091 1062 
L 2534 845 
Q 2355 1651 1850 2662 
L 2368 2842 
Q 2758 1984 3091 1062 
z
" transform="scale(0.015625)"/>
     <path id="STHeiti-5546" d="M 2944 4627 
Q 2874 4928 2752 5158 
L 3418 5293 
Q 3526 4858 3603 4627 
Q 5120 4634 5939 4691 
L 5939 4160 
Q 5024 4224 3225 4224 
Q 1427 4224 512 4160 
L 512 4691 
Q 1523 4627 2944 4627 
z
M 2272 3354 
L 3565 3354 
Q 3776 3808 3859 4090 
Q 4166 3974 4454 3917 
Q 4499 3904 4499 3888 
Q 4499 3872 4467 3853 
Q 4294 3725 4032 3354 
Q 5210 3360 5530 3405 
Q 5504 3194 5504 2400 
L 5504 38 
Q 5504 -230 5437 -352 
Q 5370 -474 5162 -531 
Q 4954 -589 4474 -627 
Q 4461 -314 4275 26 
Q 4563 -6 4697 -6 
Q 4832 -6 4893 32 
Q 4954 70 4954 224 
L 4954 2906 
L 1562 2906 
L 1562 -608 
L 941 -608 
Q 1030 83 1030 736 
L 1030 2400 
Q 1030 3200 1005 3405 
Q 1312 3360 2195 3354 
Q 2118 3597 1933 3885 
L 2490 4122 
Q 2586 3904 2790 3603 
L 2272 3354 
z
M 2234 1754 
L 1901 1408 
L 1606 1766 
Q 2195 2214 2496 2746 
Q 2733 2547 2938 2477 
Q 2982 2458 2982 2438 
Q 2982 2419 2950 2400 
Q 2765 2291 2259 1779 
Q 2554 1754 3216 1754 
Q 3878 1754 4179 1779 
Q 4160 1491 4160 1017 
Q 4160 544 4179 256 
Q 3840 275 3129 275 
Q 2419 275 2234 262 
Q 2259 518 2259 1011 
Q 2259 1504 2234 1754 
z
M 2707 1357 
L 2707 678 
L 3706 678 
L 3706 1357 
L 2707 1357 
z
M 4832 1894 
L 4506 1517 
Q 4013 2029 3456 2298 
L 3776 2662 
Q 4397 2278 4832 1894 
z
" transform="scale(0.015625)"/>
    </defs>
    <use xlink:href="#STHeiti-32"/>
    <use xlink:href="#STHeiti-30" transform="translate(55.399994 0)"/>
    <use xlink:href="#STHeiti-32" transform="translate(110.799988 0)"/>
    <use xlink:href="#STHeiti-36" transform="translate(166.199982 0)"/>
    <use xlink:href="#STHeiti-5e74" transform="translate(221.599976 0)"/>
    <use xlink:href="#STHeiti-51" transform="translate(321.59996 0)"/>
    <use xlink:href="#STHeiti-31" transform="translate(408.699951 0)"/>
    <use xlink:href="#STHeiti-20" transform="translate(464.099945 0)"/>
    <use xlink:href="#STHeiti-b7" transform="translate(489.09993 0)"/>
    <use xlink:href="#STHeiti-20" transform="translate(589.099915 0)"/>
    <use xlink:href="#STHeiti-91d1" transform="translate(614.099899 0)"/>
    <use xlink:href="#STHeiti-6761" transform="translate(714.099884 0)"/>
    <use xlink:href="#STHeiti-5934" transform="translate(814.099869 0)"/>
    <use xlink:href="#STHeiti-90e8" transform="translate(914.099854 0)"/>
    <use xlink:href="#STHeiti-4f9b" transform="translate(1014.099838 0)"/>
    <use xlink:href="#STHeiti-5e94" transform="translate(1114.099823 0)"/>
    <use xlink:href="#STHeiti-5546" transform="translate(1214.099808 0)"/>
   </g>
  </g>
 </g>
 <defs>
  <clipPath id="p715290ad49">
   <rect x="32.484063" y="38.03" width="501.12" height="273.6"/>
  </clipPath>
 </defs>
</svg>
