<?xml version="1.0" encoding="UTF-8"?>
<svg xmlns="http://www.w3.org/2000/svg" viewBox="0 0 1280 720">
    <rect width="1280" height="720" fill="#FAFAFA" />
    <rect x="0" y="0" width="1280" height="60" fill="#7B1E3B" />
    <text x="40" y="38" fill="#FFFFFF" font-family="Microsoft YaHei, Arial, sans-serif" font-size="18" font-weight="bold">关系网络</text>
    <text x="40" y="52" fill="#F9D0D9" font-family="Microsoft YaHei, Arial, sans-serif" font-size="12">以他为中心的权力关系映射</text>
    <text x="1200" y="38" text-anchor="end" fill="#F9D0D9" font-family="Arial, sans-serif" font-size="13">06 / 12</text>
    
    
    <path fill="#F9FAFB" stroke="#9CA3AF" stroke-width="1" d="M546,90 H734 A6,6 0 0 1 740,96 V134 A6,6 0 0 1 734,140 H546 A6,6 0 0 1 540,134 V96 A6,6 0 0 1 546,90 Z" />
    <text x="640" y="122" text-anchor="middle" fill="#6B7280" font-family="Microsoft YaHei, Arial, sans-serif" font-size="14" font-weight="bold">刘伟佳 · 策略组</text>
    
    <line x1="640" y1="140" x2="640" y2="160" stroke="#9CA3AF" stroke-width="1" stroke-dasharray="4,3" />
    
    <path fill="#7B1E3B" d="M546,160 H734 A6,6 0 0 1 740,166 V204 A6,6 0 0 1 734,210 H546 A6,6 0 0 1 540,204 V166 A6,6 0 0 1 546,160 Z" />
    <text x="640" y="192" text-anchor="middle" fill="#FFFFFF" font-family="Microsoft YaHei, Arial, sans-serif" font-size="14" font-weight="bold">王易人 · 服务组负责人</text>
    <line x1="640" y1="210" x2="640" y2="250" stroke="#7B1E3B" stroke-width="1.5" />
    
    <path fill="#7B1E3B" stroke="#7B1E3B" stroke-width="3" d="M546,250 H734 A6,6 0 0 1 740,256 V304 A6,6 0 0 1 734,310 H546 A6,6 0 0 1 540,304 V256 A6,6 0 0 1 546,250 Z" />
    <text x="640" y="280" text-anchor="middle" fill="#FFFFFF" font-family="Microsoft YaHei, Arial, sans-serif" font-size="18" font-weight="bold">刘乾坤</text>
    <text x="640" y="300" text-anchor="middle" fill="#F9D0D9" font-family="Microsoft YaHei, Arial, sans-serif" font-size="11">权力核心</text>
    
    <line x1="540" y1="280" x2="200" y2="380" stroke="#22C55E" stroke-width="1" />
    <line x1="740" y1="280" x2="1080" y2="380" stroke="#B91C1C" stroke-width="1" />
    <line x1="590" y1="310" x2="350" y2="420" stroke="#C5960C" stroke-width="1" />
    <line x1="690" y1="310" x2="930" y2="420" stroke="#9CA3AF" stroke-width="1" />
    
    <text x="80" y="370" fill="#22C55E" font-family="Microsoft YaHei, Arial, sans-serif" font-size="14" font-weight="bold">同盟</text>
    <path fill="#FFFFFF" stroke="#22C55E" stroke-width="1" d="M86,385 H294 A6,6 0 0 1 300,391 V424 A6,6 0 0 1 294,430 H86 A6,6 0 0 1 80,424 V391 A6,6 0 0 1 86,385 Z" />
    <text x="95" y="413" fill="#374151" font-family="Microsoft YaHei, Arial, sans-serif" font-size="13">郭鑫（前同事）— "用你的嘴，出我的力"</text>
    <path fill="#FFFFFF" stroke="#22C55E" stroke-width="1" d="M86,440 H294 A6,6 0 0 1 300,446 V479 A6,6 0 0 1 294,485 H86 A6,6 0 0 1 80,479 V446 A6,6 0 0 1 86,440 Z" />
    <text x="95" y="468" fill="#374151" font-family="Microsoft YaHei, Arial, sans-serif" font-size="13">马贵贤（前同事）— "你的工作，我的成果"</text>
    
    <text x="980" y="370" fill="#B91C1C" font-family="Microsoft YaHei, Arial, sans-serif" font-size="14" font-weight="bold">对手</text>
    <path fill="#FFFFFF" stroke="#B91C1C" stroke-width="1" d="M986,385 H1194 A6,6 0 0 1 1200,391 V424 A6,6 0 0 1 1194,430 H986 A6,6 0 0 1 980,424 V391 A6,6 0 0 1 986,385 Z" />
    <text x="995" y="413" fill="#374151" font-family="Microsoft YaHei, Arial, sans-serif" font-size="13">李吉斌（前任）— 公开质疑+双重标准</text>
    <text x="995" y="435" fill="#6B7280" font-family="Microsoft YaHei, Arial, sans-serif" font-size="12">刚接手就甩锅，反击后退让</text>
    
    <text x="250" y="420" fill="#C5960C" font-family="Microsoft YaHei, Arial, sans-serif" font-size="14" font-weight="bold">配合</text>
    <path fill="#FFFFFF" stroke="#C5960C" stroke-width="1" d="M256,435 H444 A6,6 0 0 1 450,441 V474 A6,6 0 0 1 444,480 H256 A6,6 0 0 1 250,474 V441 A6,6 0 0 1 256,435 Z" />
    <text x="265" y="463" fill="#374151" font-family="Microsoft YaHei, Arial, sans-serif" font-size="13">年老师 — "兄弟"称呼+拉拢</text>
    <text x="265" y="483" fill="#6B7280" font-family="Microsoft YaHei, Arial, sans-serif" font-size="12">接受但不欠人情，合作不依赖</text>
    
    <text x="830" y="420" fill="#9CA3AF" font-family="Microsoft YaHei, Arial, sans-serif" font-size="14" font-weight="bold">下属</text>
    <path fill="#FFFFFF" stroke="#9CA3AF" stroke-width="1" d="M836,435 H1024 A6,6 0 0 1 1030,441 V474 A6,6 0 0 1 1024,480 H836 A6,6 0 0 1 830,474 V441 A6,6 0 0 1 836,435 Z" />
    <text x="845" y="463" fill="#374151" font-family="Microsoft YaHei, Arial, sans-serif" font-size="13">张世跃（实习生）— 任务下放+功劳上报</text>
    <path fill="#FFFFFF" stroke="#9CA3AF" stroke-width="1" d="M836,490 H1024 A6,6 0 0 1 1030,496 V529 A6,6 0 0 1 1024,535 H836 A6,6 0 0 1 830,529 V496 A6,6 0 0 1 836,490 Z" />
    <text x="845" y="518" fill="#374151" font-family="Microsoft YaHei, Arial, sans-serif" font-size="13">供应商 — 利益驱动+责任下放</text>
    
    <path fill="#7B1E3B" fill-opacity="0.05" stroke="#7B1E3B" stroke-width="0.5" d="M88,580 H1192 A8,8 0 0 1 1200,588 V632 A8,8 0 0 1 1192,640 H88 A8,8 0 0 1 80,632 V588 A8,8 0 0 1 88,580 Z" />
    <text x="100" y="610" fill="#7B1E3B" font-family="Microsoft YaHei, Arial, sans-serif" font-size="14" font-weight="bold">策略洞察：</text>
    <text x="200" y="610" fill="#374151" font-family="Microsoft YaHei, Arial, sans-serif" font-size="14">同盟用嘴出力 · 上级是最终观众 · 对手公开攻击 · 年老师拉拢+人情债</text>
    
    <line x1="40" y1="660" x2="1240" y2="660" stroke="#E5E7EB" stroke-width="0.5" />
    <text x="40" y="690" fill="#9CA3AF" font-family="Arial, sans-serif" font-size="10">Source: 刘乾坤档案 v10.2</text>
    <text x="640" y="690" text-anchor="middle" fill="#7B1E3B" font-family="Arial, sans-serif" font-size="10" letter-spacing="2">CONFIDENTIAL</text>
    <text x="1220" y="690" text-anchor="end" fill="#9CA3AF" font-family="Arial, sans-serif" font-size="11">06</text>
</svg>