<?xml version="1.0" encoding="UTF-8"?>
<svg xmlns="http://www.w3.org/2000/svg" viewBox="0 0 1280 720">
    <rect width="1280" height="720" fill="#FAFAFA" />
    <rect x="0" y="0" width="1280" height="60" fill="#7B1E3B" />
    <text x="40" y="38" fill="#FFFFFF" font-family="Microsoft YaHei, Arial, sans-serif" font-size="18" font-weight="bold">应对策略</text>
    <text x="40" y="52" fill="#F9D0D9" font-family="Microsoft YaHei, Arial, sans-serif" font-size="12">话术对照 — 他说什么 vs 你怎么回</text>
    <text x="1200" y="38" text-anchor="end" fill="#F9D0D9" font-family="Arial, sans-serif" font-size="13">09 / 12</text>
    
    <rect x="40" y="90" width="380" height="540" fill="#FFFFFF" stroke="#E5E7EB" stroke-width="1" />
    <rect x="40" y="90" width="380" height="45" fill="#7B1E3B" />
    <text x="60" y="120" fill="#FFFFFF" font-family="Microsoft YaHei, Arial, sans-serif" font-size="18" font-weight="bold">四大核心原则</text>
    
    <path fill="#FEF2F2" d="M66,155 H394 A6,6 0 0 1 400,161 V229 A6,6 0 0 1 394,235 H66 A6,6 0 0 1 60,229 V161 A6,6 0 0 1 66,155 Z" />
    <path fill="#B91C1C" d="M62,155 H62 A2,2 0 0 1 64,157 V233 A2,2 0 0 1 62,235 H62 A2,2 0 0 1 60,233 V157 A2,2 0 0 1 62,155 Z" />
    <text x="75" y="185" fill="#B91C1C" font-family="Microsoft YaHei, Arial, sans-serif" font-size="14" font-weight="bold">1 不主动背锅</text>
    <text x="75" y="210" fill="#374151" font-family="Microsoft YaHei, Arial, sans-serif" font-size="13">问题直接传递，不接"帮我看下"</text>
    
    <path fill="#FEF3C7" d="M66,245 H394 A6,6 0 0 1 400,251 V319 A6,6 0 0 1 394,325 H66 A6,6 0 0 1 60,319 V251 A6,6 0 0 1 66,245 Z" />
    <path fill="#D97706" d="M62,245 H62 A2,2 0 0 1 64,247 V323 A2,2 0 0 1 62,325 H62 A2,2 0 0 1 60,323 V247 A2,2 0 0 1 62,245 Z" />
    <text x="75" y="275" fill="#D97706" font-family="Microsoft YaHei, Arial, sans-serif" font-size="14" font-weight="bold">2 边界清晰</text>
    <text x="75" y="300" fill="#374151" font-family="Microsoft YaHei, Arial, sans-serif" font-size="13">周末不接@，工作日按流程</text>
    
    <path fill="#EFF6FF" d="M66,335 H394 A6,6 0 0 1 400,341 V409 A6,6 0 0 1 394,415 H66 A6,6 0 0 1 60,409 V341 A6,6 0 0 1 66,335 Z" />
    <path fill="#2563EB" d="M62,335 H62 A2,2 0 0 1 64,337 V413 A2,2 0 0 1 62,415 H62 A2,2 0 0 1 60,413 V337 A2,2 0 0 1 62,335 Z" />
    <text x="75" y="365" fill="#2563EB" font-family="Microsoft YaHei, Arial, sans-serif" font-size="14" font-weight="bold">3 信息独立</text>
    <text x="75" y="390" fill="#374151" font-family="Microsoft YaHei, Arial, sans-serif" font-size="13">建立独立渠道，不依赖他拿数据</text>
    
    <path fill="#F0FDF4" d="M66,425 H394 A6,6 0 0 1 400,431 V499 A6,6 0 0 1 394,505 H66 A6,6 0 0 1 60,499 V431 A6,6 0 0 1 66,425 Z" />
    <path fill="#22C55E" d="M62,425 H62 A2,2 0 0 1 64,427 V503 A2,2 0 0 1 62,505 H62 A2,2 0 0 1 60,503 V427 A2,2 0 0 1 62,425 Z" />
    <text x="75" y="455" fill="#22C55E" font-family="Microsoft YaHei, Arial, sans-serif" font-size="14" font-weight="bold">4 学习技巧</text>
    <text x="75" y="480" fill="#374151" font-family="Microsoft YaHei, Arial, sans-serif" font-size="13">立规矩、三要素法、数据说话</text>
    
    <text x="460" y="115" fill="#7B1E3B" font-family="Microsoft YaHei, Arial, sans-serif" font-size="16" font-weight="bold">话术对照</text>
    <line x1="460" y1="125" x2="1240" y2="125" stroke="#E5E7EB" stroke-width="0.5" />
    
    <rect x="460" y="135" width="390" height="30" fill="#F3F4F6" />
    <text x="470" y="155" fill="#6B7280" font-family="Microsoft YaHei, Arial, sans-serif" font-size="12" font-weight="bold">他说（刘乾坤）</text>
    <rect x="850" y="135" width="390" height="30" fill="#F3F4F6" />
    <text x="860" y="155" fill="#6B7280" font-family="Microsoft YaHei, Arial, sans-serif" font-size="12" font-weight="bold">你回（年老师）</text>
    
    <path fill="#FFFFFF" stroke="#E5E7EB" stroke-width="0.5" d="M464,170 H1236 A4,4 0 0 1 1240,174 V246 A4,4 0 0 1 1236,250 H464 A4,4 0 0 1 460,246 V174 A4,4 0 0 1 464,170 Z" />
    <path fill="#B91C1C" d="M462,170 H462 A2,2 0 0 1 464,172 V248 A2,2 0 0 1 462,250 H462 A2,2 0 0 1 460,248 V172 A2,2 0 0 1 462,170 Z" />
    <text x="475" y="198" fill="#374151" font-family="Microsoft YaHei, Arial, sans-serif" font-size="14">"帮我看下，我该如何解答"</text>
    <text x="475" y="225" fill="#9CA3AF" font-family="Microsoft YaHei, Arial, sans-serif" font-size="11">→ 不接任务，反问回去</text>
    <text x="865" y="198" fill="#374151" font-family="Microsoft YaHei, Arial, sans-serif" font-size="14">"你的想法是什么？我先听你的"</text>
    <text x="865" y="225" fill="#9CA3AF" font-family="Microsoft YaHei, Arial, sans-serif" font-size="11">→ 把球踢回去</text>
    
    <path fill="#FFFFFF" stroke="#E5E7EB" stroke-width="0.5" d="M464,260 H1236 A4,4 0 0 1 1240,264 V336 A4,4 0 0 1 1236,340 H464 A4,4 0 0 1 460,336 V264 A4,4 0 0 1 464,260 Z" />
    <path fill="#D97706" d="M462,260 H462 A2,2 0 0 1 464,262 V338 A2,2 0 0 1 462,340 H462 A2,2 0 0 1 460,338 V262 A2,2 0 0 1 462,260 Z" />
    <text x="475" y="288" fill="#374151" font-family="Microsoft YaHei, Arial, sans-serif" font-size="14">周末@处理供应商问题</text>
    <text x="475" y="315" fill="#9CA3AF" font-family="Microsoft YaHei, Arial, sans-serif" font-size="11">→ 边界模糊，随时被打扰</text>
    <text x="865" y="288" fill="#374151" font-family="Microsoft YaHei, Arial, sans-serif" font-size="14">"收到，周一处理"</text>
    <text x="865" y="315" fill="#9CA3AF" font-family="Microsoft YaHei, Arial, sans-serif" font-size="11">→ 边界清晰，不解释</text>
    
    <path fill="#FFFFFF" stroke="#E5E7EB" stroke-width="0.5" d="M464,350 H1236 A4,4 0 0 1 1240,354 V426 A4,4 0 0 1 1236,430 H464 A4,4 0 0 1 460,426 V354 A4,4 0 0 1 464,350 Z" />
    <path fill="#2563EB" d="M462,350 H462 A2,2 0 0 1 464,352 V428 A2,2 0 0 1 462,430 H462 A2,2 0 0 1 460,428 V352 A2,2 0 0 1 462,350 Z" />
    <text x="475" y="378" fill="#374151" font-family="Microsoft YaHei, Arial, sans-serif" font-size="14">"别找供应商，他们不如我们清楚"</text>
    <text x="475" y="405" fill="#9CA3AF" font-family="Microsoft YaHei, Arial, sans-serif" font-size="11">→ 试图切断你的独立渠道</text>
    <text x="865" y="378" fill="#374151" font-family="Microsoft YaHei, Arial, sans-serif" font-size="14">"理解，但我需要一线真实反馈"</text>
    <text x="865" y="405" fill="#9CA3AF" font-family="Microsoft YaHei, Arial, sans-serif" font-size="11">→ 建立独立渠道</text>
    
    <path fill="#FFFFFF" stroke="#E5E7EB" stroke-width="0.5" d="M464,440 H1236 A4,4 0 0 1 1240,444 V516 A4,4 0 0 1 1236,520 H464 A4,4 0 0 1 460,516 V444 A4,4 0 0 1 464,440 Z" />
    <path fill="#22C55E" d="M462,440 H462 A2,2 0 0 1 464,442 V518 A2,2 0 0 1 462,520 H462 A2,2 0 0 1 460,518 V442 A2,2 0 0 1 462,440 Z" />
    <text x="475" y="468" fill="#374151" font-family="Microsoft YaHei, Arial, sans-serif" font-size="14">"辛苦兄弟多费心"</text>
    <text x="475" y="495" fill="#9CA3AF" font-family="Microsoft YaHei, Arial, sans-serif" font-size="11">→ 情感绑架，模糊边界</text>
    <text x="865" y="468" fill="#374151" font-family="Microsoft YaHei, Arial, sans-serif" font-size="14">"8个供应商，担心盯不细"</text>
    <text x="865" y="495" fill="#9CA3AF" font-family="Microsoft YaHei, Arial, sans-serif" font-size="11">→ 示弱加边界，他会退让</text>
    
    <path fill="#FFFFFF" stroke="#E5E7EB" stroke-width="0.5" d="M464,530 H1236 A4,4 0 0 1 1240,534 V606 A4,4 0 0 1 1236,610 H464 A4,4 0 0 1 460,606 V534 A4,4 0 0 1 464,530 Z" />
    <path fill="#7B1E3B" d="M462,530 H462 A2,2 0 0 1 464,532 V608 A2,2 0 0 1 462,610 H462 A2,2 0 0 1 460,608 V532 A2,2 0 0 1 462,530 Z" />
    <text x="475" y="558" fill="#374151" font-family="Microsoft YaHei, Arial, sans-serif" font-size="14">危机渲染 + 责任锁定</text>
    <text x="475" y="585" fill="#9CA3AF" font-family="Microsoft YaHei, Arial, sans-serif" font-size="11">→ 制造恐慌，锁定你的责任</text>
    <text x="865" y="558" fill="#374151" font-family="Microsoft YaHei, Arial, sans-serif" font-size="14">事实压危机、锁定卡点、踢球给方案</text>
    <text x="865" y="585" fill="#9CA3AF" font-family="Microsoft YaHei, Arial, sans-serif" font-size="11">→ 用专业语言说话</text>
    
    <line x1="40" y1="650" x2="1240" y2="650" stroke="#E5E7EB" stroke-width="0.5" />
    <text x="40" y="685" fill="#7B1E3B" font-family="Microsoft YaHei, Arial, sans-serif" font-size="13" font-weight="bold">策略核心：</text>
    <text x="120" y="685" fill="#374151" font-family="Microsoft YaHei, Arial, sans-serif" font-size="13">不接球、不模糊、不依赖、学技巧</text>
</svg>