<svg width="680" height="400" xmlns="http://www.w3.org/2000/svg">

<defs>
<style>
.cell { rx:3; }
</style>
</defs>

<title>问题类型 × 六盒维度映射矩阵</title>

<!-- Title -->
<text x="340" y="20" text-anchor="middle" font-size="13" font-weight="600" fill="#0f5040">问题类型 × 六盒维度映射矩阵</text>
<text x="340" y="34" text-anchor="middle" font-size="9" fill="#857d74">色深 = 关联强度 · 颜色深浅帮你判断：每个场景该重点查哪几个盒子</text>

<!-- Column headers (6 boxes) -->
<g font-size="9" font-weight="600" fill="#454240" text-anchor="middle">
<text x="220" y="56">目标</text>
<text x="300" y="56">结构</text>
<text x="380" y="56">关系</text>
<text x="460" y="56">激励</text>
<text x="540" y="56">领导</text>
<text x="620" y="56">工具</text>
</g>

<!-- Row headers (8 scenarios) + cells -->
<!-- Row 1: 业绩垫底 -->
<text x="8" y="78" font-size="9" fill="#454240">业绩垫底</text>
<rect x="190" y="65" width="60" height="18" rx="3" fill="#c25030" opacity="0.85"/>
<rect x="270" y="65" width="60" height="18" rx="3" fill="#c25030" opacity="0.5"/>
<rect x="350" y="65" width="60" height="18" rx="3" fill="#c25030" opacity="0.35"/>
<rect x="430" y="65" width="60" height="18" rx="3" fill="#c25030" opacity="0.85"/>
<rect x="510" y="65" width="60" height="18" rx="3" fill="#c25030" opacity="0.65"/>
<rect x="590" y="65" width="60" height="18" rx="3" fill="#c25030" opacity="0.4"/>

<!-- Row 2: 对接人又换 -->
<text x="8" y="102" font-size="9" fill="#454240">对接人又换</text>
<rect x="190" y="89" width="60" height="18" rx="3" fill="#3a7ab8" opacity="0.4"/>
<rect x="270" y="89" width="60" height="18" rx="3" fill="#3a7ab8" opacity="0.9"/>
<rect x="350" y="89" width="60" height="18" rx="3" fill="#3a7ab8" opacity="0.65"/>
<rect x="430" y="89" width="60" height="18" rx="3" fill="#3a7ab8" opacity="0.4"/>
<rect x="510" y="89" width="60" height="18" rx="3" fill="#3a7ab8" opacity="0.85"/>
<rect x="590" y="89" width="60" height="18" rx="3" fill="#3a7ab8" opacity="0.35"/>

<!-- Row 3: 跳级施压 -->
<text x="8" y="126" font-size="9" fill="#454240">跳级施压</text>
<rect x="190" y="113" width="60" height="18" rx="3" fill="#6f8660" opacity="0.35"/>
<rect x="270" y="113" width="60" height="18" rx="3" fill="#6f8660" opacity="0.4"/>
<rect x="350" y="113" width="60" height="18" rx="3" fill="#6f8660" opacity="0.9"/>
<rect x="430" y="113" width="60" height="18" rx="3" fill="#6f8660" opacity="0.4"/>
<rect x="510" y="113" width="60" height="18" rx="3" fill="#6f8660" opacity="0.65"/>
<rect x="590" y="113" width="60" height="18" rx="3" fill="#6f8660" opacity="0.3"/>

<!-- Row 4: 出勤不足 -->
<text x="8" y="150" font-size="9" fill="#454240">出勤不足</text>
<rect x="190" y="137" width="60" height="18" rx="3" fill="#b88018" opacity="0.4"/>
<rect x="270" y="137" width="60" height="18" rx="3" fill="#b88018" opacity="0.65"/>
<rect x="350" y="137" width="60" height="18" rx="3" fill="#b88018" opacity="0.35"/>
<rect x="430" y="137" width="60" height="18" rx="3" fill="#b88018" opacity="0.9"/>
<rect x="510" y="137" width="60" height="18" rx="3" fill="#b88018" opacity="0.5"/>
<rect x="590" y="137" width="60" height="18" rx="3" fill="#b88018" opacity="0.4"/>

<!-- Row 5: 质量崩了 -->
<text x="8" y="174" font-size="9" fill="#454240">质量崩了</text>
<rect x="190" y="161" width="60" height="18" rx="3" fill="#c26d3a" opacity="0.4"/>
<rect x="270" y="161" width="60" height="18" rx="3" fill="#c26d3a" opacity="0.35"/>
<rect x="350" y="161" width="60" height="18" rx="3" fill="#c26d3a" opacity="0.5"/>
<rect x="430" y="161" width="60" height="18" rx="3" fill="#c26d3a" opacity="0.4"/>
<rect x="510" y="161" width="60" height="18" rx="3" fill="#c26d3a" opacity="0.65"/>
<rect x="590" y="161" width="60" height="18" rx="3" fill="#c26d3a" opacity="0.9"/>

<!-- Row 6: 威胁退出 -->
<text x="8" y="198" font-size="9" fill="#454240">威胁退出</text>
<rect x="190" y="185" width="60" height="18" rx="3" fill="#c25030" opacity="0.5"/>
<rect x="270" y="185" width="60" height="18" rx="3" fill="#c25030" opacity="0.4"/>
<rect x="350" y="185" width="60" height="18" rx="3" fill="#c25030" opacity="0.4"/>
<rect x="430" y="185" width="60" height="18" rx="3" fill="#c25030" opacity="0.9"/>
<rect x="510" y="185" width="60" height="18" rx="3" fill="#c25030" opacity="0.65"/>
<rect x="590" y="185" width="60" height="18" rx="3" fill="#c25030" opacity="0.35"/>

<!-- Row 7: 消息不灵 -->
<text x="8" y="222" font-size="9" fill="#454240">消息不灵</text>
<rect x="190" y="209" width="60" height="18" rx="3" fill="#3a7ab8" opacity="0.3"/>
<rect x="270" y="209" width="60" height="18" rx="3" fill="#3a7ab8" opacity="0.4"/>
<rect x="350" y="209" width="60" height="18" rx="3" fill="#3a7ab8" opacity="0.9"/>
<rect x="430" y="209" width="60" height="18" rx="3" fill="#3a7ab8" opacity="0.35"/>
<rect x="510" y="209" width="60" height="18" rx="3" fill="#3a7ab8" opacity="0.5"/>
<rect x="590" y="209" width="60" height="18" rx="3" fill="#3a7ab8" opacity="0.65"/>

<!-- Row 8: 说了没改 -->
<text x="8" y="246" font-size="9" fill="#454240">说了没改</text>
<rect x="190" y="233" width="60" height="18" rx="3" fill="#6f8660" opacity="0.4"/>
<rect x="270" y="233" width="60" height="18" rx="3" fill="#6f8660" opacity="0.35"/>
<rect x="350" y="233" width="60" height="18" rx="3" fill="#6f8660" opacity="0.5"/>
<rect x="430" y="233" width="60" height="18" rx="3" fill="#6f8660" opacity="0.65"/>
<rect x="510" y="233" width="60" height="18" rx="3" fill="#6f8660" opacity="0.9"/>
<rect x="590" y="233" width="60" height="18" rx="3" fill="#6f8660" opacity="0.4"/>

<!-- Legend -->
<rect x="190" y="270" width="12" height="12" rx="2" fill="#c25030" opacity="0.85"/>
<text x="206" y="280" font-size="8" fill="#454240">强关联</text>

<rect x="270" y="270" width="12" height="12" rx="2" fill="#c25030" opacity="0.65"/>
<text x="286" y="280" font-size="8" fill="#454240">中关联</text>

<rect x="350" y="270" width="12" height="12" rx="2" fill="#c25030" opacity="0.35"/>
<text x="366" y="280" font-size="8" fill="#454240">弱关联</text>

<!-- Key insights -->
<rect x="10" y="296" width="660" height="90" rx="8" fill="#faf0e6" stroke="#c26d3a" stroke-width="1"/>
<text x="24" y="314" font-size="10" font-weight="600" fill="#6b3410">快速定位指南（看到什么症状，优先查哪个盒子）</text>

<text x="24" y="332" font-size="9" fill="#8b4513">业绩垫底 → 重点查目标+激励：目标对不对？激励有没有让对的人做对的事？</text>
<text x="24" y="348" font-size="9" fill="#8b4513">对接人又换 → 重点查结构+领导：组织架构稳定吗？负责人重视吗？</text>
<text x="24" y="364" font-size="9" fill="#8b4513">跳级施压 → 重点查关系：协作机制有没有漏洞？问题升级路径是否清晰？</text>
<text x="24" y="380" font-size="9" fill="#8b4513">出勤不足 → 重点查激励：供应商愿不愿意投入？这个客户在他心里的位置？</text>

</svg>
