<svg width="680" height="300" xmlns="http://www.w3.org/2000/svg">
<defs>
<marker id="arr5" viewBox="0 0 10 10" refX="8" refY="5" markerWidth="6" markerHeight="6" orient="auto-start-reverse">
<path d="M2 1L8 5L2 9" fill="none" stroke="#857d74" stroke-width="1.5" stroke-linecap="round" stroke-linejoin="round"/>
</marker>
</defs>

<rect x="210" y="10" width="260" height="40" rx="10" fill="#faeae5" stroke="#c25030" stroke-width="1.5"/>
<text x="340" y="28" text-anchor="middle" font-size="12" font-weight="600" fill="#6b2010">"质量突然崩了"</text>
<text x="340" y="42" text-anchor="middle" font-size="10" fill="#8b3018">合规踩线 · 投诉暴增 · 录音出问题</text>

<line x1="340" y1="50" x2="190" y2="80" stroke="#857d74" stroke-width="1.5" marker-end="url(#arr5)"/>
<line x1="340" y1="50" x2="490" y2="80" stroke="#857d74" stroke-width="1.5" marker-end="url(#arr5)"/>
<text x="240" y="68" font-size="10" fill="#857d74">名单/系统问题？</text>
<text x="430" y="68" font-size="10" fill="#857d74">人的问题？</text>

<rect x="10" y="85" width="320" height="46" rx="10" fill="#f0d68a" stroke="#b88018" stroke-width="1.5"/>
<text x="20" y="102" font-size="11" font-weight="600" fill="#6a4005">名单/系统问题（非人的原因）</text>
<text x="20" y="118" font-size="10" fill="#8a5a0a">这批名单本身就差？系统有bug？政策有调整？</text>

<line x1="170" y1="131" x2="170" y2="150" stroke="#857d74" stroke-width="1.5" marker-end="url(#arr5)"/>
<text x="185" y="144" font-size="10" fill="#857d74">追问</text>

<rect x="10" y="155" width="100" height="55" rx="8" fill="#f2f0eb" stroke="#ada599" stroke-width="1"/>
<text x="20" y="174" font-size="10" font-weight="600" fill="#454240">横向对比</text>
<text x="20" y="190" font-size="9" fill="#5f5a54">其他供应商这</text>
<text x="20" y="204" font-size="9" fill="#5f5a54">批名单也差吗</text>

<rect x="120" y="155" width="100" height="55" rx="8" fill="#f2f0eb" stroke="#ada599" stroke-width="1"/>
<text x="130" y="174" font-size="10" font-weight="600" fill="#454240">时间关联</text>
<text x="130" y="190" font-size="9" fill="#5f5a54">什么时候开始</text>
<text x="130" y="204" font-size="9" fill="#5f5a54">差的，有触发事件吗</text>

<rect x="230" y="155" width="100" height="55" rx="8" fill="#f2f0eb" stroke="#ada599" stroke-width="1"/>
<text x="240" y="174" font-size="10" font-weight="600" fill="#454240">范围判断</text>
<text x="240" y="190" font-size="9" fill="#5f5a54">是个别人/站点</text>
<text x="240" y="204" font-size="9" fill="#5f5a54">还是大面积</text>

<rect x="350" y="85" width="320" height="46" rx="10" fill="#f0d9bf" stroke="#c26d3a" stroke-width="1.5"/>
<text x="360" y="102" font-size="11" font-weight="600" fill="#6b3410">人的问题（管理松懈/培训缺失）</text>
<text x="360" y="118" font-size="10" fill="#8b4513">新人没培训就上岗？主管放松管理？老员工带坏风气？</text>

<line x1="510" y1="131" x2="510" y2="150" stroke="#857d74" stroke-width="1.5" marker-end="url(#arr5)"/>
<text x="525" y="144" font-size="10" fill="#857d74">追问</text>

<rect x="350" y="155" width="100" height="55" rx="8" fill="#f2f0eb" stroke="#ada599" stroke-width="1"/>
<text x="360" y="174" font-size="10" font-weight="600" fill="#454240">培训验证</text>
<text x="360" y="190" font-size="9" fill="#5f5a54">新人培训了多久</text>
<text x="360" y="204" font-size="9" fill="#5f5a54">有没有考核上岗</text>

<rect x="460" y="155" width="100" height="55" rx="8" fill="#f2f0eb" stroke="#ada599" stroke-width="1"/>
<text x="470" y="174" font-size="10" font-weight="600" fill="#454240">管理态度</text>
<text x="470" y="190" font-size="9" fill="#5f5a54">发现问题后他</text>
<text x="470" y="204" font-size="9" fill="#5f5a54">们第一反应是什么</text>

<rect x="570" y="155" width="100" height="55" rx="8" fill="#f2f0eb" stroke="#ada599" stroke-width="1"/>
<text x="580" y="174" font-size="10" font-weight="600" fill="#454240">红线意识</text>
<text x="580" y="190" font-size="9" fill="#5f5a54">有没有碰四条</text>
<text x="580" y="204" font-size="9" fill="#5f5a54">红线（品牌/代客等）</text>

<rect x="10" y="225" width="660" height="65" rx="10" fill="#e6f5f0" stroke="#2e8b6e" stroke-width="1.5"/>
<text x="24" y="244" font-size="10" font-weight="600" fill="#0f5040">年老师应对策略（先定性再处置，区分名单问题和人的问题）</text>
<text x="24" y="262" font-size="10" fill="#1a6b50">名单问题→24小时整改+7天复查，帮他协调名单质量</text>
<text x="24" y="280" font-size="10" fill="#1a6b50">人的问题→踩红线直接熔断，培训不到位要求重新培训上岗，主管问责</text>
</svg>