<svg width="680" height="300" xmlns="http://www.w3.org/2000/svg">
<defs>
<marker id="arr3" viewBox="0 0 10 10" refX="8" refY="5" markerWidth="6" markerHeight="6" orient="auto-start-reverse">
<path d="M2 1L8 5L2 9" fill="none" stroke="#857d74" stroke-width="1.5" stroke-linecap="round" stroke-linejoin="round"/>
</marker>
</defs>

<rect x="210" y="10" width="260" height="40" rx="10" fill="#faeae5" stroke="#c25030" stroke-width="1.5"/>
<text x="340" y="28" text-anchor="middle" font-size="12" font-weight="600" fill="#6b2010">"他去找军哥了"</text>
<text x="340" y="42" text-anchor="middle" font-size="10" fill="#8b3018">跳级施压 · 绕过你找上级 · 问题定义权被抢</text>

<line x1="340" y1="50" x2="190" y2="80" stroke="#857d74" stroke-width="1.5" marker-end="url(#arr3)"/>
<line x1="340" y1="50" x2="490" y2="80" stroke="#857d74" stroke-width="1.5" marker-end="url(#arr3)"/>
<text x="240" y="68" font-size="10" fill="#857d74">正常求助？</text>
<text x="425" y="68" font-size="10" fill="#857d74">施压策略？</text>

<rect x="10" y="85" width="320" height="46" rx="10" fill="#f0d68a" stroke="#b88018" stroke-width="1.5"/>
<text x="20" y="102" font-size="11" font-weight="600" fill="#6a4005">正常诉求（确实有解决不了的问题）</text>
<text x="20" y="118" font-size="10" fill="#8a5a0a">你这边确实没响应？问题超出对接人权限？</text>

<line x1="170" y1="131" x2="170" y2="150" stroke="#857d74" stroke-width="1.5" marker-end="url(#arr3)"/>
<text x="185" y="144" font-size="10" fill="#857d74">追问</text>

<rect x="10" y="155" width="100" height="55" rx="8" fill="#f2f0eb" stroke="#ada599" stroke-width="1"/>
<text x="20" y="174" font-size="10" font-weight="600" fill="#454240">响应时效</text>
<text x="20" y="190" font-size="9" fill="#5f5a54">你这边回复及</text>
<text x="20" y="204" font-size="9" fill="#5f5a54">时吗，有积压吗</text>

<rect x="120" y="155" width="100" height="55" rx="8" fill="#f2f0eb" stroke="#ada599" stroke-width="1"/>
<text x="130" y="174" font-size="10" font-weight="600" fill="#454240">问题类型</text>
<text x="130" y="190" font-size="9" fill="#5f5a54">是什么问题</text>
<text x="130" y="204" font-size="9" fill="#5f5a54">你真的处理不了吗</text>

<rect x="230" y="155" width="100" height="55" rx="8" fill="#f2f0eb" stroke="#ada599" stroke-width="1"/>
<text x="240" y="174" font-size="10" font-weight="600" fill="#454240">自我反思</text>
<text x="240" y="190" font-size="9" fill="#5f5a54">是不是我这边</text>
<text x="240" y="204" font-size="9" fill="#5f5a54">确实有做得不够的</text>

<rect x="350" y="85" width="320" height="46" rx="10" fill="#f0d9bf" stroke="#c26d3a" stroke-width="1.5"/>
<text x="360" y="102" font-size="11" font-weight="600" fill="#6b3410">施压策略（绕过你制造压力）</text>
<text x="360" y="118" font-size="10" fill="#8b4513">想越级施压？试探你的底线？借上级压你？</text>

<line x1="510" y1="131" x2="510" y2="150" stroke="#857d74" stroke-width="1.5" marker-end="url(#arr3)"/>
<text x="525" y="144" font-size="10" fill="#857d74">追问</text>

<rect x="350" y="155" width="100" height="55" rx="8" fill="#f2f0eb" stroke="#ada599" stroke-width="1"/>
<text x="360" y="174" font-size="10" font-weight="600" fill="#454240">沟通记录</text>
<text x="360" y="190" font-size="9" fill="#5f5a54">之前找你沟</text>
<text x="360" y="204" font-size="9" fill="#5f5a54">通过吗，怎么回的</text>

<rect x="460" y="155" width="100" height="55" rx="8" fill="#f2f0eb" stroke="#ada599" stroke-width="1"/>
<text x="470" y="174" font-size="10" font-weight="600" fill="#454240">内容真伪</text>
<text x="470" y="190" font-size="9" fill="#5f5a54">跟军哥说的是</text>
<text x="470" y="204" font-size="9" fill="#5f5a54">事实还是加工过</text>

<rect x="570" y="155" width="100" height="55" rx="8" fill="#f2f0eb" stroke="#ada599" stroke-width="1"/>
<text x="580" y="174" font-size="10" font-weight="600" fill="#454240">是否惯犯</text>
<text x="580" y="190" font-size="9" fill="#5f5a54">以前有过类似</text>
<text x="580" y="204" font-size="9" fill="#5f5a54">行为吗</text>

<rect x="10" y="225" width="660" height="65" rx="10" fill="#e6f5f0" stroke="#2e8b6e" stroke-width="1.5"/>
<text x="24" y="244" font-size="10" font-weight="600" fill="#0f5040">年老师应对策略（夺回问题定义权，不被动接招）</text>
<text x="24" y="262" font-size="10" fill="#1a6b50">先自查：我这边有没有响应不及时的地方？→ 有则改进，无则不管</text>
<text x="24" y="280" font-size="10" fill="#1a6b50">对供应商："以后有事直接找我，跳级沟通不会改变规则。你的问题我来定位，你给我解决方案。"</text>
</svg>