<svg width="680" height="300" xmlns="http://www.w3.org/2000/svg">
<defs>
<marker id="arr8" viewBox="0 0 10 10" refX="8" refY="5" markerWidth="6" markerHeight="6" orient="auto-start-reverse">
<path d="M2 1L8 5L2 9" fill="none" stroke="#857d74" stroke-width="1.5" stroke-linecap="round" stroke-linejoin="round"/>
</marker>
</defs>

<rect x="210" y="10" width="260" height="40" rx="10" fill="#f0d68a" stroke="#b88018" stroke-width="1.5"/>
<text x="340" y="28" text-anchor="middle" font-size="12" font-weight="600" fill="#6a4005">"说了改，没见改"</text>
<text x="340" y="42" text-anchor="middle" font-size="10" fill="#8a5a0a">改进无效 · 承诺不兑现 · 反复承诺反复犯</text>

<line x1="340" y1="50" x2="190" y2="80" stroke="#857d74" stroke-width="1.5" marker-end="url(#arr8)"/>
<line x1="340" y1="50" x2="490" y2="80" stroke="#857d74" stroke-width="1.5" marker-end="url(#arr8)"/>
<text x="240" y="68" font-size="10" fill="#857d74">改了但没效果？</text>
<text x="435" y="68" font-size="10" fill="#857d74">根本没改？</text>

<rect x="10" y="85" width="320" height="46" rx="10" fill="#f0d9bf" stroke="#c26d3a" stroke-width="1.5"/>
<text x="20" y="102" font-size="11" font-weight="600" fill="#6b3410">改了但没效果（方法不对/方向错了）</text>
<text x="20" y="118" font-size="10" fill="#8b4513">整改方案不靠谱？药不对症？短期动作解决长期问题？</text>

<line x1="170" y1="131" x2="170" y2="150" stroke="#857d74" stroke-width="1.5" marker-end="url(#arr8)"/>
<text x="185" y="144" font-size="10" fill="#857d74">追问</text>

<rect x="10" y="155" width="100" height="55" rx="8" fill="#f2f0eb" stroke="#ada599" stroke-width="1"/>
<text x="20" y="174" font-size="10" font-weight="600" fill="#454240">方案质量</text>
<text x="20" y="190" font-size="9" fill="#5f5a54">整改方案具体吗</text>
<text x="20" y="204" font-size="9" fill="#5f5a54">有时间节点吗</text>

<rect x="120" y="155" width="100" height="55" rx="8" fill="#f2f0eb" stroke="#ada599" stroke-width="1"/>
<text x="130" y="174" font-size="10" font-weight="600" fill="#454240">执行跟踪</text>
<text x="130" y="190" font-size="9" fill="#5f5a54">有没有周报跟踪</text>
<text x="130" y="204" font-size="9" fill="#5f5a54">执行进度</text>

<rect x="230" y="155" width="100" height="55" rx="8" fill="#f2f0eb" stroke="#ada599" stroke-width="1"/>
<text x="240" y="174" font-size="10" font-weight="600" fill="#454240">根因判断</text>
<text x="240" y="190" font-size="9" fill="#5f5a54">上次诊断对了吗</text>
<text x="240" y="204" font-size="9" fill="#5f5a54">治标还是治本</text>

<rect x="350" y="85" width="320" height="46" rx="10" fill="#faeae5" stroke="#c25030" stroke-width="1.5"/>
<text x="360" y="102" font-size="11" font-weight="600" fill="#6b2010">根本没改（敷衍/拖延/阳奉阴违）</text>
<text x="360" y="118" font-size="10" fill="#8b3018">口头答应不做？表面积极实际不动？整改报告造假？</text>

<line x1="510" y1="131" x2="510" y2="150" stroke="#857d74" stroke-width="1.5" marker-end="url(#arr8)"/>
<text x="525" y="144" font-size="10" fill="#857d74">追问</text>

<rect x="350" y="155" width="100" height="55" rx="8" fill="#f2f0eb" stroke="#ada599" stroke-width="1"/>
<text x="360" y="174" font-size="10" font-weight="600" fill="#454240">书面证据</text>
<text x="360" y="190" font-size="9" fill="#5f5a54">上次整改方案</text>
<text x="360" y="204" font-size="9" fill="#5f5a54">书面了吗，有签字吗</text>

<rect x="460" y="155" width="100" height="55" rx="8" fill="#f2f0eb" stroke="#ada599" stroke-width="1"/>
<text x="470" y="174" font-size="10" font-weight="600" fill="#454240">次数记录</text>
<text x="470" y="190" font-size="9" fill="#5f5a54">这是第几次承诺</text>
<text x="470" y="204" font-size="9" fill="#5f5a54">没做到了</text>

<rect x="570" y="155" width="100" height="55" rx="8" fill="#f2f0eb" stroke="#ada599" stroke-width="1"/>
<text x="580" y="174" font-size="10" font-weight="600" fill="#454240">升级路径</text>
<text x="580" y="190" font-size="9" fill="#5f5a54">第一次书面记录</text>
<text x="580" y="204" font-size="9" fill="#5f5a54">第二次正式整改</text>

<rect x="10" y="225" width="660" height="65" rx="10" fill="#e6f5f0" stroke="#2e8b6e" stroke-width="1.5"/>
<text x="24" y="244" font-size="10" font-weight="600" fill="#0f5040">年老师应对策略（三次升级，每次都书面留痕）</text>
<text x="24" y="262" font-size="10" fill="#1a6b50">第一次→书面记录，给方向但不给方案："你提整改计划，我审"</text>
<text x="24" y="280" font-size="10" fill="#1a6b50">第二次→正式整改，限期30天，周度跟踪。第三次→清退评估，不再给机会</text>
</svg>