<svg width="680" height="300" xmlns="http://www.w3.org/2000/svg">
<defs>
<marker id="arr7" viewBox="0 0 10 10" refX="8" refY="5" markerWidth="6" markerHeight="6" orient="auto-start-reverse">
<path d="M2 1L8 5L2 9" fill="none" stroke="#857d74" stroke-width="1.5" stroke-linecap="round" stroke-linejoin="round"/>
</marker>
</defs>

<rect x="210" y="10" width="260" height="40" rx="10" fill="#f0d68a" stroke="#b88018" stroke-width="1.5"/>
<text x="340" y="28" text-anchor="middle" font-size="12" font-weight="600" fill="#6a4005">"消息总是不灵"</text>
<text x="340" y="42" text-anchor="middle" font-size="10" fill="#8a5a0a">信息滞后 · 不同步 · 事后才知道</text>

<line x1="340" y1="50" x2="190" y2="80" stroke="#857d74" stroke-width="1.5" marker-end="url(#arr7)"/>
<line x1="340" y1="50" x2="490" y2="80" stroke="#857d74" stroke-width="1.5" marker-end="url(#arr7)"/>
<text x="240" y="68" font-size="10" fill="#857d74">机制问题？</text>
<text x="430" y="68" font-size="10" fill="#857d74">态度问题？</text>

<rect x="10" y="85" width="320" height="46" rx="10" fill="#faf0dc" stroke="#b88018" stroke-width="1.5"/>
<text x="20" y="102" font-size="11" font-weight="600" fill="#6a4005">机制缺失（没有固定同步渠道）</text>
<text x="20" y="118" font-size="10" fill="#8a5a0a">没有日报/周报？没有固定例会？信息传递靠口口相传？</text>

<line x1="170" y1="131" x2="170" y2="150" stroke="#857d74" stroke-width="1.5" marker-end="url(#arr7)"/>
<text x="185" y="144" font-size="10" fill="#857d74">追问</text>

<rect x="10" y="155" width="100" height="55" rx="8" fill="#f2f0eb" stroke="#ada599" stroke-width="1"/>
<text x="20" y="174" font-size="10" font-weight="600" fill="#454240">现有机制</text>
<text x="20" y="190" font-size="9" fill="#5f5a54">有没有日报周报</text>
<text x="20" y="204" font-size="9" fill="#5f5a54">月例会开不开</text>

<rect x="120" y="155" width="100" height="55" rx="8" fill="#f2f0eb" stroke="#ada599" stroke-width="1"/>
<text x="130" y="174" font-size="10" font-weight="600" fill="#454240">信息链路</text>
<text x="130" y="190" font-size="9" fill="#5f5a54">信息从你到一线</text>
<text x="130" y="204" font-size="9" fill="#5f5a54">经过几个人</text>

<rect x="230" y="155" width="100" height="55" rx="8" fill="#f2f0eb" stroke="#ada599" stroke-width="1"/>
<text x="240" y="174" font-size="10" font-weight="600" fill="#454240">横向对比</text>
<text x="240" y="190" font-size="9" fill="#5f5a54">其他供应商信</text>
<text x="240" y="204" font-size="9" fill="#5f5a54">息同步及时吗</text>

<rect x="350" y="85" width="320" height="46" rx="10" fill="#f0d9bf" stroke="#c26d3a" stroke-width="1.5"/>
<text x="360" y="102" font-size="11" font-weight="600" fill="#6b3410">态度问题（不重视/选择性接收）</text>
<text x="360" y="118" font-size="10" fill="#8b4513">消息看到了不执行？选择性接收对自己有利的？故意装不知道？</text>

<line x1="510" y1="131" x2="510" y2="150" stroke="#857d74" stroke-width="1.5" marker-end="url(#arr7)"/>
<text x="525" y="144" font-size="10" fill="#857d74">追问</text>

<rect x="350" y="155" width="100" height="55" rx="8" fill="#f2f0eb" stroke="#ada599" stroke-width="1"/>
<text x="360" y="174" font-size="10" font-weight="600" fill="#454240">接收记录</text>
<text x="360" y="190" font-size="9" fill="#5f5a54">通知发了有没有</text>
<text x="360" y="204" font-size="9" fill="#5f5a54">回复确认</text>

<rect x="460" y="155" width="100" height="55" rx="8" fill="#f2f0eb" stroke="#ada599" stroke-width="1"/>
<text x="470" y="174" font-size="10" font-weight="600" fill="#454240">执行偏差</text>
<text x="470" y="190" font-size="9" fill="#5f5a54">是不知道还是</text>
<text x="470" y="204" font-size="9" fill="#5f5a54">知道了不做</text>

<rect x="570" y="155" width="100" height="55" rx="8" fill="#f2f0eb" stroke="#ada599" stroke-width="1"/>
<text x="580" y="174" font-size="10" font-weight="600" fill="#454240">历史频次</text>
<text x="580" y="190" font-size="9" fill="#5f5a54">这事说过几次了</text>
<text x="580" y="204" font-size="9" fill="#5f5a54">是第一次还是老毛病</text>

<rect x="10" y="225" width="660" height="65" rx="10" fill="#e6f5f0" stroke="#2e8b6e" stroke-width="1.5"/>
<text x="24" y="244" font-size="10" font-weight="600" fill="#0f5040">年老师应对策略（机制补漏+书面化，不靠口头传达）</text>
<text x="24" y="262" font-size="10" fill="#1a6b50">机制问题→建立固定同步机制：日报+周报+月例会，关键通知必须书面确认</text>
<text x="24" y="280" font-size="10" fill="#1a6b50">态度问题→"以后重要事项我发邮件/群消息，你回复确认。不回复=默认知晓，出问题按制度处理。"</text>
</svg>