<svg width="680" height="300" xmlns="http://www.w3.org/2000/svg">
<defs>
<marker id="arr6" viewBox="0 0 10 10" refX="8" refY="5" markerWidth="6" markerHeight="6" orient="auto-start-reverse">
<path d="M2 1L8 5L2 9" fill="none" stroke="#857d74" stroke-width="1.5" stroke-linecap="round" stroke-linejoin="round"/>
</marker>
</defs>

<rect x="210" y="10" width="260" height="40" rx="10" fill="#faeae5" stroke="#c25030" stroke-width="1.5"/>
<text x="340" y="28" text-anchor="middle" font-size="12" font-weight="600" fill="#6b2010">"干不了，要退出"</text>
<text x="340" y="42" text-anchor="middle" font-size="10" fill="#8b3018">威胁退出 · 消极怠工 · 份额要挟</text>

<line x1="340" y1="50" x2="190" y2="80" stroke="#857d74" stroke-width="1.5" marker-end="url(#arr6)"/>
<line x1="340" y1="50" x2="490" y2="80" stroke="#857d74" stroke-width="1.5" marker-end="url(#arr6)"/>
<text x="240" y="68" font-size="10" fill="#857d74">真干不了？</text>
<text x="430" y="68" font-size="10" fill="#857d74">要挟你？</text>

<rect x="10" y="85" width="320" height="46" rx="10" fill="#f0d68a" stroke="#b88018" stroke-width="1.5"/>
<text x="20" y="102" font-size="11" font-weight="600" fill="#6a4005">真干不了（经营确有困难）</text>
<text x="20" y="118" font-size="10" fill="#8a5a0a">持续亏损？成本撑不住？有其他客户更赚钱要收缩？</text>

<line x1="170" y1="131" x2="170" y2="150" stroke="#857d74" stroke-width="1.5" marker-end="url(#arr6)"/>
<text x="185" y="144" font-size="10" fill="#857d74">追问</text>

<rect x="10" y="155" width="100" height="55" rx="8" fill="#f2f0eb" stroke="#ada599" stroke-width="1"/>
<text x="20" y="174" font-size="10" font-weight="600" fill="#454240">财务验证</text>
<text x="20" y="190" font-size="9" fill="#5f5a54">亏损是真的吗</text>
<text x="20" y="204" font-size="9" fill="#5f5a54">成本三层生命线的哪条</text>

<rect x="120" y="155" width="100" height="55" rx="8" fill="#f2f0eb" stroke="#ada599" stroke-width="1"/>
<text x="130" y="174" font-size="10" font-weight="600" fill="#454240">客户结构</text>
<text x="130" y="190" font-size="9" fill="#5f5a54">你占他多少比重</text>
<text x="130" y="204" font-size="9" fill="#5f5a54">有无更大客户</text>

<rect x="230" y="155" width="100" height="55" rx="8" fill="#f2f0eb" stroke="#ada599" stroke-width="1"/>
<text x="240" y="174" font-size="10" font-weight="600" fill="#454240">退出成本</text>
<text x="240" y="190" font-size="9" fill="#5f5a54">退出对他有什么</text>
<text x="240" y="204" font-size="9" fill="#5f5a54">损失（品牌/违约金）</text>

<rect x="350" y="85" width="320" height="46" rx="10" fill="#f0d9bf" stroke="#c26d3a" stroke-width="1.5"/>
<text x="360" y="102" font-size="11" font-weight="600" fill="#6b3410">要挟策略（用退出要筹码）</text>
<text x="360" y="118" font-size="10" fill="#8b4513">想提价？想少干活？试探你的底线和依赖度？</text>

<line x1="510" y1="131" x2="510" y2="150" stroke="#857d74" stroke-width="1.5" marker-end="url(#arr6)"/>
<text x="525" y="144" font-size="10" fill="#857d74">追问</text>

<rect x="350" y="155" width="100" height="55" rx="8" fill="#f2f0eb" stroke="#ada599" stroke-width="1"/>
<text x="360" y="174" font-size="10" font-weight="600" fill="#454240">绑架能力</text>
<text x="360" y="190" font-size="9" fill="#5f5a54">占比≥30%？</text>
<text x="360" y="204" font-size="9" fill="#5f5a54">业绩前三？人力≥100？</text>

<rect x="460" y="155" width="100" height="55" rx="8" fill="#f2f0eb" stroke="#ada599" stroke-width="1"/>
<text x="470" y="174" font-size="10" font-weight="600" fill="#454240">替代方案</text>
<text x="470" y="190" font-size="9" fill="#5f5a54">第二梯队能不能接</text>
<text x="470" y="204" font-size="9" fill="#5f5a54">承接周期多长</text>

<rect x="570" y="155" width="100" height="55" rx="8" fill="#f2f0eb" stroke="#ada599" stroke-width="1"/>
<text x="580" y="174" font-size="10" font-weight="600" fill="#454240">交叉验证</text>
<text x="580" y="190" font-size="9" fill="#5f5a54">同行/同业/上下游</text>
<text x="580" y="204" font-size="9" fill="#5f5a54">验证真假</text>

<rect x="10" y="225" width="660" height="65" rx="10" fill="#e6f5f0" stroke="#2e8b6e" stroke-width="1.5"/>
<text x="24" y="244" font-size="10" font-weight="600" fill="#0f5040">年老师应对策略（筹码盘点，底线清晰，不妥协）</text>
<text x="24" y="262" font-size="10" fill="#1a6b50">有绑架能力→不妥协一次，同时启动替代方案，渐进式减份额</text>
<text x="24" y="280" font-size="10" fill="#1a6b50">无绑架能力→"理解你的困难，规则不能破。有什么其他我能帮的，我们聊聊。"</text>
</svg>