<svg xmlns="http://www.w3.org/2000/svg" width="1280" height="720" viewBox="0 0 1280 720">
    <rect width="1280" height="720" fill="#FFFFFF" />
    <rect x="0" y="620" width="1280" height="100" fill="#F8F6F3" />
    <rect x="0" y="0" width="1280" height="110" fill="#C41230" />
    <rect x="0" y="106" width="1280" height="1" fill="#C9A962" />
    <rect x="0" y="109" width="1280" height="3" fill="#C9A962" />

    <circle cx="90" cy="55" r="42" fill="none" stroke="#C9A962" stroke-width="0.5" stroke-opacity="0.2" />
    <circle cx="90" cy="55" r="32" fill="none" stroke="#C9A962" stroke-width="1.5" stroke-opacity="0.4" />
    <circle cx="90" cy="55" r="22" fill="none" stroke="#C9A962" stroke-width="0.8" stroke-opacity="0.3" />
    <circle cx="90" cy="55" r="10" fill="#C9A962" fill-opacity="0.25" />
    <circle cx="90" cy="55" r="4" fill="#C9A962" fill-opacity="0.5" />
    <circle cx="145" cy="30" r="2" fill="#C9A962" fill-opacity="0.3" />
    <circle cx="155" cy="40" r="1.5" fill="#C9A962" fill-opacity="0.25" />
    <circle cx="140" cy="50" r="1.5" fill="#C9A962" fill-opacity="0.2" />

    <path fill="none" stroke="#FFFFFF" stroke-width="0.5" stroke-opacity="0.2" d="M1064,30 H1236 A4,4 0 0 1 1240,34 V76 A4,4 0 0 1 1236,80 H1064 A4,4 0 0 1 1060,76 V34 A4,4 0 0 1 1064,30 Z" />
    <text x="1150" y="62" text-anchor="middle" fill="#FFFFFF" font-family="Microsoft YaHei, Arial, sans-serif" font-size="16" font-weight="bold">BPO ALLIANCE</text>

    <path d="M1280 0 L1280 90 L1190 0 Z" fill="#9A0E26" fill-opacity="0.3" />
    <path d="M1280 0 L1280 50 L1230 0 Z" fill="#C9A962" fill-opacity="0.15" />

    <path fill="none" stroke="#F5F0EB" stroke-width="1" d="M282,260 H998 A2,2 0 0 1 1000,262 V438 A2,2 0 0 1 998,440 H282 A2,2 0 0 1 280,438 V262 A2,2 0 0 1 282,260 Z" />

    <text x="640" y="320" text-anchor="middle" fill="#C41230" font-family="Microsoft YaHei, Arial, sans-serif" font-size="52" font-weight="bold" letter-spacing="6">BPO 供应商联盟</text>
    <text x="640" y="380" text-anchor="middle" fill="#666666" font-family="Microsoft YaHei, Arial, sans-serif" font-size="22" letter-spacing="2">认证总结会</text>

    <line x1="380" y1="430" x2="580" y2="430" stroke="#C9A962" stroke-width="1" />
    <line x1="700" y1="430" x2="900" y2="430" stroke="#C9A962" stroke-width="1" />
    <rect x="630" y="420" width="20" height="20" fill="#C41230" transform="rotate(45 640 430)" />
    <rect x="635" y="425" width="10" height="10" fill="#C9A962" transform="rotate(45 640 430)" />
    <circle cx="380" cy="430" r="4" fill="#C41230" />
    <circle cx="380" cy="430" r="2" fill="#C9A962" />
    <circle cx="900" cy="430" r="4" fill="#C41230" />
    <circle cx="900" cy="430" r="2" fill="#C9A962" />

    <text x="640" y="495" text-anchor="middle" fill="#333333" font-family="Microsoft YaHei, Arial, sans-serif" font-size="18">标准化运营方法论与落地实践</text>
    <text x="640" y="530" text-anchor="middle" fill="#666666" font-family="Microsoft YaHei, Arial, sans-serif" font-size="16">数据科技业务部</text>
    <text x="640" y="575" text-anchor="middle" fill="#C41230" font-family="Microsoft YaHei, Arial, sans-serif" font-size="18" font-weight="bold">BPO Alliance</text>

    <rect x="0" y="620" width="1280" height="2" fill="#C41230" />
    <rect x="0" y="623" width="1280" height="1" fill="#C9A962" fill-opacity="0.5" />
    <text x="640" y="665" text-anchor="middle" fill="#999999" font-family="Microsoft YaHei, Arial, sans-serif" font-size="14">2026.04</text>

    <path d="M0 720 L0 680 L40 720 Z" fill="#C41230" fill-opacity="0.1" />
    <circle cx="25" cy="695" r="3" fill="#C9A962" fill-opacity="0.3" />
    <path d="M1280 720 L1280 680 L1240 720 Z" fill="#C41230" fill-opacity="0.1" />
    <path d="M1280 720 L1280 700 L1260 720 Z" fill="#C9A962" fill-opacity="0.2" />

    <rect x="35" y="200" width="1" height="300" fill="#F5F0EB" />
    <circle cx="35" cy="200" r="2" fill="#C9A962" fill-opacity="0.3" />
    <circle cx="35" cy="350" r="1.5" fill="#C41230" fill-opacity="0.2" />
    <circle cx="35" cy="500" r="2" fill="#C9A962" fill-opacity="0.3" />

    <rect x="1244" y="200" width="1" height="300" fill="#F5F0EB" />
    <circle cx="1244" cy="200" r="2" fill="#C9A962" fill-opacity="0.3" />
    <circle cx="1244" cy="350" r="1.5" fill="#C41230" fill-opacity="0.2" />
    <circle cx="1244" cy="500" r="2" fill="#C9A962" fill-opacity="0.3" />
</svg>