<svg xmlns="http://www.w3.org/2000/svg" width="1280" height="720" viewBox="0 0 1280 720">
    <rect width="1280" height="720" fill="#FFFFFF"/>
    <path d="M500 0 L1280 0 L1280 720 L400 720 Z" fill="#FAFAFA"/>

    <rect x="0" y="0" width="1280" height="75" fill="#C41230"/>
    <rect x="0" y="71" width="1280" height="1" fill="#C9A962"/>
    <rect x="0" y="74" width="1280" height="3" fill="#C9A962"/>

    <text x="60" y="48" fill="#FFFFFF" font-family="Microsoft YaHei, Arial, sans-serif" font-size="28" font-weight="bold">目 录</text>
    <text x="150" y="48" fill="#FFFFFF" fill-opacity="0.6" font-family="Arial, sans-serif" font-size="14" letter-spacing="2">CONTENTS</text>
    <text x="1220" y="45" text-anchor="end" fill="#FFFFFF" font-family="Microsoft YaHei, Arial, sans-serif" font-size="15" font-weight="bold">BPO ALLIANCE</text>

    <rect x="100" y="160" width="2" height="400" fill="#C9A962" fill-opacity="0.3"/>
    <circle cx="101" cy="160" r="4" fill="#C9A962"/>
    <circle cx="101" cy="560" r="4" fill="#C9A962"/>
    <text x="120" y="170" fill="#C41230" font-family="Arial, sans-serif" font-size="60" font-weight="bold" fill-opacity="0.1">Index</text>

    <!-- Item 01 -->
    <g transform="translate(200, 150)">
        <text x="0" y="0" fill="#C41230" font-family="Arial, sans-serif" font-size="32" font-weight="bold">01</text>
        <text x="60" y="0" fill="#333333" font-family="Microsoft YaHei, Arial, sans-serif" font-size="22" font-weight="bold">核心方法论</text>
        <text x="60" y="25" fill="#888888" font-family="Microsoft YaHei, Arial, sans-serif" font-size="14">电销管理六大核心模块体系</text>
        <rect x="60" y="40" width="300" height="1" fill="#E0E0E0"/>
        <rect x="60" y="40" width="30" height="1" fill="#C9A962"/>
    </g>

    <!-- Item 02 -->
    <g transform="translate(200, 240)">
        <text x="0" y="0" fill="#C41230" font-family="Arial, sans-serif" font-size="32" font-weight="bold">02</text>
        <text x="60" y="0" fill="#333333" font-family="Microsoft YaHei, Arial, sans-serif" font-size="22" font-weight="bold">认证结果</text>
        <text x="60" y="25" fill="#888888" font-family="Microsoft YaHei, Arial, sans-serif" font-size="14">供应商认证评分与核心收获</text>
        <rect x="60" y="40" width="300" height="1" fill="#E0E0E0"/>
        <rect x="60" y="40" width="30" height="1" fill="#C9A962"/>
    </g>

    <!-- Item 03 -->
    <g transform="translate(200, 330)">
        <text x="0" y="0" fill="#C41230" font-family="Arial, sans-serif" font-size="32" font-weight="bold">03</text>
        <text x="60" y="0" fill="#333333" font-family="Microsoft YaHei, Arial, sans-serif" font-size="22" font-weight="bold">落地方案</text>
        <text x="60" y="25" fill="#888888" font-family="Microsoft YaHei, Arial, sans-serif" font-size="14">三阶段推进计划与关键指标</text>
        <rect x="60" y="40" width="300" height="1" fill="#E0E0E0"/>
        <rect x="60" y="40" width="30" height="1" fill="#C9A962"/>
    </g>

    <!-- Item 04 -->
    <g transform="translate(700, 150)">
        <text x="0" y="0" fill="#C41230" font-family="Arial, sans-serif" font-size="32" font-weight="bold">04</text>
        <text x="60" y="0" fill="#333333" font-family="Microsoft YaHei, Arial, sans-serif" font-size="22" font-weight="bold">总结展望</text>
        <text x="60" y="25" fill="#888888" font-family="Microsoft YaHei, Arial, sans-serif" font-size="14">联盟持续开放共享推进</text>
        <rect x="60" y="40" width="300" height="1" fill="#E0E0E0"/>
        <rect x="60" y="40" width="30" height="1" fill="#C9A962"/>
    </g>

    <circle cx="1150" cy="550" r="120" fill="none" stroke="#C9A962" stroke-width="0.5" stroke-opacity="0.1"/>
    <circle cx="1150" cy="550" r="80" fill="none" stroke="#C9A962" stroke-width="1" stroke-opacity="0.15"/>

    <line x1="40" y1="665" x2="1240" y2="665" stroke="#F0EDE8" stroke-width="1"/>
    <text x="40" y="695" fill="#999999" font-family="Microsoft YaHei, Arial, sans-serif" font-size="12">BPO Alliance</text>
    <text x="1220" y="695" text-anchor="end" fill="#999999" font-family="Microsoft YaHei, Arial, sans-serif" font-size="14">02</text>
</svg>
