<svg xmlns="http://www.w3.org/2000/svg" width="1280" height="720" viewBox="0 0 1280 720">
    <rect width="1280" height="720" fill="#9A0E26" />
    <path d="M850 0 L1280 0 L1280 720 L650 720 Z" fill="#A81028" fill-opacity="0.6" />
    <path d="M950 0 L1280 0 L1280 720 L750 720 Z" fill="#B31530" fill-opacity="0.4" />
    <path d="M1050 0 L1280 0 L1280 720 L850 720 Z" fill="#C41230" fill-opacity="0.3" />
    <rect x="1220" y="0" width="60" height="720" fill="#7A0B1E" fill-opacity="0.4" />
    <rect x="1260" y="0" width="20" height="720" fill="#5A081A" fill-opacity="0.3" />

    <rect x="0" y="240" width="8" height="240" fill="#C9A962" />
    <rect x="0" y="245" width="4" height="230" fill="#D4B876" />
    <circle cx="4" cy="235" r="4" fill="#C9A962" />
    <circle cx="4" cy="485" r="4" fill="#C9A962" />

    <rect x="0" y="60" width="300" height="1" fill="#C9A962" fill-opacity="0.3" />
    <rect x="0" y="65" width="200" height="1" fill="#C9A962" fill-opacity="0.2" />

    <path fill="#C9A962" fill-opacity="0.35" d="M982,220 H1138 A2,2 0 0 1 1140,222 V222 A2,2 0 0 1 1138,224 H982 A2,2 0 0 1 980,222 V222 A2,2 0 0 1 982,220 Z" />
    <path fill="#C9A962" fill-opacity="0.28" d="M1002,240 H1138 A2,2 0 0 1 1140,242 V242 A2,2 0 0 1 1138,244 H1002 A2,2 0 0 1 1000,242 V242 A2,2 0 0 1 1002,240 Z" />
    <path fill="#C9A962" fill-opacity="0.22" d="M1022,260 H1138 A2,2 0 0 1 1140,262 V262 A2,2 0 0 1 1138,264 H1022 A2,2 0 0 1 1020,262 V262 A2,2 0 0 1 1022,260 Z" />
    <path fill="#C9A962" fill-opacity="0.16" d="M1042,280 H1138 A2,2 0 0 1 1140,282 V282 A2,2 0 0 1 1138,284 H1042 A2,2 0 0 1 1040,282 V282 A2,2 0 0 1 1042,280 Z" />
    <path fill="#C9A962" fill-opacity="0.1" d="M1062,300 H1138 A2,2 0 0 1 1140,302 V302 A2,2 0 0 1 1138,304 H1062 A2,2 0 0 1 1060,302 V302 A2,2 0 0 1 1062,300 Z" />

    <line x1="950" y1="150" x2="1100" y2="200" stroke="#C9A962" stroke-width="1" stroke-opacity="0.12" />
    <line x1="970" y1="150" x2="1120" y2="200" stroke="#C9A962" stroke-width="0.5" stroke-opacity="0.08" />
    <line x1="990" y1="150" x2="1140" y2="200" stroke="#C9A962" stroke-width="0.5" stroke-opacity="0.06" />

    <circle cx="1140" cy="540" r="100" fill="none" stroke="#C9A962" stroke-width="0.5" stroke-opacity="0.06" />
    <circle cx="1140" cy="540" r="80" fill="none" stroke="#C9A962" stroke-width="1" stroke-opacity="0.1" />
    <circle cx="1140" cy="540" r="60" fill="none" stroke="#C9A962" stroke-width="1.5" stroke-opacity="0.15" />
    <circle cx="1140" cy="540" r="40" fill="none" stroke="#C9A962" stroke-width="1" stroke-opacity="0.12" />
    <circle cx="1140" cy="540" r="20" fill="#C9A962" fill-opacity="0.08" />
    <circle cx="1140" cy="540" r="8" fill="#C9A962" fill-opacity="0.15" />

    <text x="80" y="520" fill="#FFFFFF" fill-opacity="0.06" font-family="Arial, sans-serif" font-size="320" font-weight="bold">01</text>

    <line x1="340" y1="280" x2="500" y2="280" stroke="#C9A962" stroke-width="3" />
    <line x1="340" y1="287" x2="450" y2="287" stroke="#C9A962" stroke-width="1" stroke-opacity="0.5" />
    <circle cx="510" cy="280" r="5" fill="#C9A962" />
    <circle cx="510" cy="280" r="2" fill="#D4B876" />

    <text x="340" y="370" fill="#FFFFFF" font-family="Microsoft YaHei, Arial, sans-serif" font-size="52" font-weight="bold" letter-spacing="4">核心方法论</text>
    <text x="340" y="430" fill="#F5F0EB" fill-opacity="0.9" font-family="Microsoft YaHei, Arial, sans-serif" font-size="20" letter-spacing="1">电销管理六大模块 + 三会标准流程 + 名单管控策略</text>
    <rect x="340" y="455" width="200" height="1" fill="#C9A962" fill-opacity="0.3" />

    <line x1="40" y1="665" x2="1240" y2="665" stroke="#FFFFFF" stroke-width="0.5" stroke-opacity="0.1" />
    <circle cx="40" cy="665" r="2" fill="#C9A962" fill-opacity="0.3" />
    <circle cx="1240" cy="665" r="2" fill="#C9A962" fill-opacity="0.3" />
    <text x="1240" y="695" text-anchor="end" fill="#FFFFFF" fill-opacity="0.5" font-family="Microsoft YaHei, Arial, sans-serif" font-size="14">BPO ALLIANCE</text>
</svg>