<svg xmlns="http://www.w3.org/2000/svg" width="1280" height="720" viewBox="0 0 1280 720">
    <rect width="1280" height="720" fill="#FFFFFF" />
    <rect x="0" y="620" width="1280" height="100" fill="#F8F6F3" />
    <rect x="0" y="0" width="1280" height="110" fill="#C41230" />
    <rect x="0" y="106" width="1280" height="1" fill="#C9A962" />
    <rect x="0" y="109" width="1280" height="3" fill="#C9A962" />

    <circle cx="90" cy="55" r="42" fill="none" stroke="#C9A962" stroke-width="0.5" stroke-opacity="0.2" />
    <circle cx="90" cy="55" r="32" fill="none" stroke="#C9A962" stroke-width="1.5" stroke-opacity="0.4" />
    <circle cx="90" cy="55" r="22" fill="none" stroke="#C9A962" stroke-width="0.8" stroke-opacity="0.3" />
    <circle cx="90" cy="55" r="10" fill="#C9A962" fill-opacity="0.25" />
    <circle cx="90" cy="55" r="4" fill="#C9A962" fill-opacity="0.5" />
    <circle cx="145" cy="30" r="2" fill="#C9A962" fill-opacity="0.3" />
    <circle cx="155" cy="45" r="1.5" fill="#C9A962" fill-opacity="0.25" />

    <text x="1200" y="60" text-anchor="end" fill="#FFFFFF" font-family="Microsoft YaHei, Arial, sans-serif" font-size="16" font-weight="bold">BPO ALLIANCE</text>
    <path d="M1280 0 L1280 90 L1190 0 Z" fill="#9A0E26" fill-opacity="0.3" />
    <path d="M1280 0 L1280 50 L1230 0 Z" fill="#C9A962" fill-opacity="0.15" />

    <text x="640" y="280" text-anchor="middle" fill="#C41230" font-family="Microsoft YaHei, Arial, sans-serif" font-size="56" font-weight="bold" letter-spacing="8">感谢聆听</text>
    <text x="640" y="340" text-anchor="middle" fill="#666666" font-family="Microsoft YaHei, Arial, sans-serif" font-size="20" letter-spacing="3">联盟持续开放共享，共建标准化运营体系</text>

    <line x1="400" y1="385" x2="580" y2="385" stroke="#C9A962" stroke-width="1" />
    <line x1="700" y1="385" x2="880" y2="385" stroke="#C9A962" stroke-width="1" />
    <rect x="630" y="375" width="20" height="20" fill="#C41230" transform="rotate(45 640 385)" />
    <rect x="635" y="380" width="10" height="10" fill="#C9A962" transform="rotate(45 640 385)" />
    <circle cx="400" cy="385" r="4" fill="#C41230" />
    <circle cx="400" cy="385" r="2" fill="#C9A962" />
    <circle cx="880" cy="385" r="4" fill="#C41230" />
    <circle cx="880" cy="385" r="2" fill="#C9A962" />

    <path fill="#F8F6F3" d="M328,420 H952 A8,8 0 0 1 960,428 V572 A8,8 0 0 1 952,580 H328 A8,8 0 0 1 320,572 V428 A8,8 0 0 1 328,420 Z" />
    <path fill="#C41230" d="M322,420 H323 A2,2 0 0 1 325,422 V578 A2,2 0 0 1 323,580 H322 A2,2 0 0 1 320,578 V422 A2,2 0 0 1 322,420 Z" />
    <circle cx="322.5" cy="420" r="2.5" fill="#C9A962" />
    <circle cx="322.5" cy="580" r="2.5" fill="#C9A962" />
    <path fill="#C9A962" fill-opacity="0.3" d="M921,575 H959 A1,1 0 0 1 960,576 V576 A1,1 0 0 1 959,577 H921 A1,1 0 0 1 920,576 V576 A1,1 0 0 1 921,575 Z" />
    <path fill="#C9A962" fill-opacity="0.3" d="M956,545 H956 A1,1 0 0 1 957,546 V576 A1,1 0 0 1 956,577 H956 A1,1 0 0 1 955,576 V546 A1,1 0 0 1 956,545 Z" />

    <text x="640" y="470" text-anchor="middle" fill="#C41230" font-family="Microsoft YaHei, Arial, sans-serif" font-size="22" font-weight="bold">BPO 供应商联盟</text>
    <text x="640" y="510" text-anchor="middle" fill="#333333" font-family="Microsoft YaHei, Arial, sans-serif" font-size="16">标准化运营 | 共建共享 | 持续迭代</text>
    <line x1="420" y1="535" x2="860" y2="535" stroke="#E0D5C5" stroke-width="1" />
    <text x="520" y="565" text-anchor="middle" fill="#666666" font-family="Microsoft YaHei, Arial, sans-serif" font-size="14">数据科技业务部</text>
    <text x="760" y="565" text-anchor="middle" fill="#666666" font-family="Microsoft YaHei, Arial, sans-serif" font-size="14">2026.04</text>

    <circle cx="160" cy="400" r="80" fill="none" stroke="#C9A962" stroke-width="0.5" stroke-opacity="0.1" />
    <circle cx="160" cy="400" r="60" fill="none" stroke="#C9A962" stroke-width="1" stroke-opacity="0.18" />
    <circle cx="160" cy="400" r="40" fill="none" stroke="#C9A962" stroke-width="0.8" stroke-opacity="0.15" />
    <circle cx="160" cy="400" r="20" fill="none" stroke="#C9A962" stroke-width="0.5" stroke-opacity="0.12" />
    <circle cx="160" cy="400" r="8" fill="#C9A962" fill-opacity="0.1" />

    <circle cx="1120" cy="400" r="80" fill="none" stroke="#C9A962" stroke-width="0.5" stroke-opacity="0.1" />
    <circle cx="1120" cy="400" r="60" fill="none" stroke="#C9A962" stroke-width="1" stroke-opacity="0.18" />
    <circle cx="1120" cy="400" r="40" fill="none" stroke="#C9A962" stroke-width="0.8" stroke-opacity="0.15" />
    <circle cx="1120" cy="400" r="20" fill="none" stroke="#C9A962" stroke-width="0.5" stroke-opacity="0.12" />
    <circle cx="1120" cy="400" r="8" fill="#C9A962" fill-opacity="0.1" />

    <rect x="0" y="620" width="1280" height="2" fill="#C41230" />
    <rect x="0" y="623" width="1280" height="1" fill="#C9A962" fill-opacity="0.5" />
    <text x="640" y="660" text-anchor="middle" fill="#999999" font-family="Microsoft YaHei, Arial, sans-serif" font-size="13">数据驱动决策 | 标准化运营 | 联盟共建共享</text>
    <text x="1220" y="695" text-anchor="end" fill="#999999" font-family="Microsoft YaHei, Arial, sans-serif" font-size="13">14</text>

    <path d="M0 720 L0 680 L40 720 Z" fill="#C41230" fill-opacity="0.1" />
    <circle cx="25" cy="695" r="3" fill="#C9A962" fill-opacity="0.3" />
    <path d="M1280 720 L1280 680 L1240 720 Z" fill="#C41230" fill-opacity="0.1" />
    <path d="M1280 720 L1280 700 L1260 720 Z" fill="#C9A962" fill-opacity="0.2" />
</svg>