<?xml version="1.0" encoding="UTF-8"?>
<svg width="600" height="400" viewBox="0 0 600 400" xmlns="http://www.w3.org/2000/svg">
  <!-- Background -->
  <rect width="600" height="400" fill="#fafafa"/>

  <!-- Title -->
  <text x="300" y="30" text-anchor="middle" font-size="18" font-weight="bold" fill="#333">
    成本对比分析
  </text>

  <!-- Chart Area -->
  <g transform="translate(80, 60)">
    <!-- Y Axis -->
    <line x1="0" y1="0" x2="0" y2="280" stroke="#ccc" stroke-width="1"/>
    <!-- X Axis -->
    <line x1="0" y1="280" x2="480" y2="280" stroke="#ccc" stroke-width="1"/>

    <!-- Y Axis Labels -->
    <text x="-10" y="280" text-anchor="end" font-size="11" fill="#666">0</text>
    <text x="-10" y="224" text-anchor="end" font-size="11" fill="#666">0.1</text>
    <text x="-10" y="168" text-anchor="end" font-size="11" fill="#666">0.2</text>
    <text x="-10" y="112" text-anchor="end" font-size="11" fill="#666">0.3</text>
    <text x="-10" y="56" text-anchor="end" font-size="11" fill="#666">0.4</text>
    <text x="-10" y="10" text-anchor="end" font-size="11" fill="#666">元/分钟</text>

    <!-- Grid lines -->
    <line x1="0" y1="224" x2="480" y2="224" stroke="#eee" stroke-width="1"/>
    <line x1="0" y1="168" x2="480" y2="168" stroke="#eee" stroke-width="1"/>
    <line x1="0" y1="112" x2="480" y2="112" stroke="#eee" stroke-width="1"/>
    <line x1="0" y1="56" x2="480" y2="56" stroke="#eee" stroke-width="1"/>

    <!-- Bar 1: 名义单价 -->
    <rect x="60" y="252" width="80" height="28" fill="#70a8d8" rx="4"/>
    <text x="100" y="245" text-anchor="middle" font-size="12" font-weight="bold" fill="#333">0.10</text>
    <text x="100" y="305" text-anchor="middle" font-size="12" fill="#666">名义单价</text>

    <!-- Bar 2: 实际单价 -->
    <rect x="220" y="173" width="80" height="107" fill="#c25030" rx="4"/>
    <text x="260" y="165" text-anchor="middle" font-size="12" font-weight="bold" fill="#333">0.26</text>
    <text x="260" y="305" text-anchor="middle" font-size="12" fill="#666">实际单价</text>

    <!-- Bar 3: 对比线 -->
    <line x1="140" y1="266" x2="220" y2="266" stroke="#666" stroke-width="1" stroke-dasharray="4,2"/>
    <text x="180" y="260" text-anchor="middle" font-size="10" fill="#c25030">+160%</text>

    <!-- Key metrics boxes -->
    <g transform="translate(340, 80)">
      <rect x="0" y="0" width="120" height="60" fill="#fff" stroke="#ddd" rx="6"/>
      <text x="60" y="22" text-anchor="middle" font-size="11" fill="#666">成本倍率</text>
      <text x="60" y="45" text-anchor="middle" font-size="20" font-weight="bold" fill="#c25030">2.6x</text>
    </g>

    <g transform="translate(340, 160)">
      <rect x="0" y="0" width="120" height="60" fill="#fff" stroke="#ddd" rx="6"/>
      <text x="60" y="22" text-anchor="middle" font-size="11" fill="#666">套餐利用率</text>
      <text x="60" y="45" text-anchor="middle" font-size="20" font-weight="bold" fill="#c25030">41%</text>
    </g>

    <g transform="translate(340, 240)">
      <rect x="0" y="0" width="120" height="60" fill="#fff" stroke="#ddd" rx="6"/>
      <text x="60" y="22" text-anchor="middle" font-size="11" fill="#666">月度成本</text>
      <text x="60" y="45" text-anchor="middle" font-size="20" font-weight="bold" fill="#333">¥433</text>
    </g>
  </g>

  <!-- Footer note -->
  <text x="300" y="380" text-anchor="middle" font-size="10" fill="#999">
    数据来源：200元套餐 + 100元开卡费 + 双卡配置
  </text>
</svg>