<svg xmlns="http://www.w3.org/2000/svg" width="1200" height="920" viewBox="0 0 1200 920" role="img" aria-labelledby="diagram-title diagram-subtitle">
  <title id="diagram-title">新供应商引入效能</title>
  <desc id="diagram-subtitle">流程优化 · 能力建模 · 备选池建设</desc>
  <defs>
    <pattern id="paper-dots" width="28" height="28" patternUnits="userSpaceOnUse">
      <circle cx="2" cy="2" r="1" fill="var(--grid)" opacity="0.45" />
      <circle cx="16" cy="12" r="0.8" fill="var(--grid)" opacity="0.28" />
      <circle cx="10" cy="22" r="0.9" fill="var(--grid)" opacity="0.22" />
    </pattern>
    <marker id="pipe-arrow" viewBox="0 0 12 12" refX="10" refY="6" markerWidth="8" markerHeight="8" orient="auto">
      <path d="M 2 2 L 10 6 L 2 10" fill="none" stroke="context-stroke" stroke-width="1.6" stroke-linecap="round" stroke-linejoin="round" />
    </marker>
  </defs>
  <style>
    :root {
      --bg-paper: #FCFBF7;
      --ink: #2D2926;
      --muted: #7A6F66;
      --grid: #E8E1D7;
      --sand: #FFF0CF;
      --mint: #DFF7E8;
      --sky: #DCEBFF;
      --coral: #FFE0D7;
      --amber: #FFE8B5;
      --graphite: #EAE6E1;
      --flow-mint: #24B36B;
      --flow-sky: #2F7CF6;
      --flow-coral: #F36B3C;
      --flow-amber: #D79210;
      --font-hand: Virgil, "Segoe Print", "Bradley Hand", "Comic Sans MS", cursive;
      --font-sans: "Avenir Next", "Segoe UI", sans-serif;
    }

    .canvas-bg {
      fill: var(--bg-paper);
    }

    .canvas-grain {
      fill: url(#paper-dots);
    }

    .title {
      fill: var(--ink);
      font-family: var(--font-hand);
      font-size: 30px;
      font-weight: 600;
      letter-spacing: 0.2px;
    }

    .subtitle {
      fill: var(--muted);
      font-family: var(--font-sans);
      font-size: 14px;
      font-weight: 600;
      letter-spacing: 0.08em;
      text-transform: uppercase;
    }

    .group-frame {
      fill: none;
      stroke: var(--grid);
      stroke-width: 2;
      stroke-dasharray: 10 12;
    }

    .group-title {
      fill: var(--muted);
      font-family: var(--font-sans);
      font-size: 13px;
      font-weight: 700;
      letter-spacing: 0.06em;
      text-transform: uppercase;
    }

    .node-fill {
      stroke: none;
    }

    .node-stroke {
      fill: none;
      stroke: var(--ink);
      stroke-width: 2.2;
      stroke-linecap: round;
      stroke-linejoin: round;
    }

    .node-stroke.ghost {
      opacity: 0.38;
    }

    .node-label {
      fill: var(--ink);
      font-family: var(--font-hand);
      font-size: 18px;
      font-weight: 600;
      text-anchor: middle;
    }

    .node-caption {
      fill: var(--muted);
      font-family: var(--font-sans);
      font-size: 12.5px;
      font-weight: 700;
      letter-spacing: 0.06em;
      text-anchor: middle;
      text-transform: uppercase;
    }

    .pipe-flow {
      fill: none;
      stroke-linecap: round;
      stroke-linejoin: round;
      marker-end: url(#pipe-arrow);
      animation: flow linear infinite;
    }

    .edge-label-bg {
      fill: rgba(252, 251, 247, 0.96);
      stroke: rgba(45, 41, 38, 0.12);
      stroke-width: 1;
    }

    .edge-label {
      fill: var(--ink);
      font-family: var(--font-hand);
      font-size: 13.5px;
      font-weight: 600;
      text-anchor: middle;
    }

    @keyframes flow {
      from {
        stroke-dashoffset: 0;
      }
      to {
        stroke-dashoffset: -44;
      }
    }
  </style>
  <rect class="canvas-bg" x="0" y="0" width="1200" height="920" />
  <rect class="canvas-grain" x="0" y="0" width="1200" height="920" />
  <g class="header">
<text class="title" x="72" y="82">新供应商引入效能</text>
<text class="subtitle" x="72" y="112">流程优化 · 能力建模 · 备选池建设</text>
</g>
  <g class="group" id="group-flow">
<path class="group-frame" d="M 108 160 H 1092 A 28 28 0 0 1 1120 188 V 652 A 28 28 0 0 1 1092 680 H 108 A 28 28 0 0 1 80 652 V 188 A 28 28 0 0 1 108 160 Z" />
</g>
<g class="group" id="group-metrics">
<path class="group-frame" d="M 108 700 H 1092 A 28 28 0 0 1 1120 728 V 852 A 28 28 0 0 1 1092 880 H 108 A 28 28 0 0 1 80 852 V 728 A 28 28 0 0 1 108 700 Z" />
</g>
  <g class="edges">
    <g class="edge edge-0">
<path class="pipe-flow" style="stroke: var(--flow_sky); stroke-width: 2.69; stroke-dasharray: 6 7; animation-duration: 2.2s;" d="M 600 318 C 600 437.36, 860 382.64, 860 502" />
<rect class="edge-label-bg" x="609.07" y="416.55" width="92" height="36" rx="16" />
<text class="edge-label" style="font-size: 13.5px;" x="655.07" y="437.35">
<tspan x="655.07" dy="0">识别痛点</tspan>
</text>
</g>
<g class="edge edge-1">
<path class="pipe-flow" style="stroke: var(--flow_sky); stroke-width: 2.69; stroke-dasharray: 6 7; animation-duration: 2.2s;" d="M 860 598 C 860 778, 322 778, 322 598" />
<rect class="edge-label-bg" x="545" y="671" width="92" height="36" rx="16" />
<text class="edge-label" style="font-size: 13.5px;" x="591" y="691.8">
<tspan x="591" dy="0">建立标准</tspan>
</text>
</g>
<g class="edge edge-2">
<path class="pipe-flow" style="stroke: var(--flow_sky); stroke-width: 2.69; stroke-dasharray: 6 7; animation-duration: 2.2s;" d="M 522 550 C 576 550, 606 550, 660 550" />
<rect class="edge-label-bg" x="484.9" y="420" width="92" height="36" rx="16" />
<text class="edge-label" style="font-size: 13.5px;" x="530.9" y="440.8">
<tspan x="530.9" dy="0">持续扩充</tspan>
</text>
</g>
  </g>
  <g class="nodes">
    <g class="node" id="node-step1">
<path class="node-fill" style="fill: var(--sand);" d="M 420.39 222.35 H 780.39 A 20 20 0 0 1 800.39 242.35 V 298.35 A 20 20 0 0 1 780.39 318.35 H 420.39 A 20 20 0 0 1 400.39 298.35 V 242.35 A 20 20 0 0 1 420.39 222.35 Z" />
<path class="node-stroke" d="M 420.39 222.35 H 780.39 A 20 20 0 0 1 800.39 242.35 V 298.35 A 20 20 0 0 1 780.39 318.35 H 420.39 A 20 20 0 0 1 400.39 298.35 V 242.35 A 20 20 0 0 1 420.39 222.35 Z" />
<path class="node-stroke ghost" d="M 420.41 222.37 H 780.41 A 20 20 0 0 1 800.41 242.37 V 298.37 A 20 20 0 0 1 780.41 318.37 H 420.41 A 20 20 0 0 1 400.41 298.37 V 242.37 A 20 20 0 0 1 420.41 222.37 Z" />
<text class="node-label" style="font-size: 20px;" x="600" y="261.36">
<tspan x="600" dy="0">准入流程体检</tspan>
</text>
<text class="node-caption" style="font-size: 12.5px;" x="600" y="302.46">1周 · 输出体检报告</text>
</g>
<g class="node" id="node-step2">
<path class="node-fill" style="fill: var(--mint);" d="M 680.4 502.36 H 1040.4 A 20 20 0 0 1 1060.4 522.36 V 578.36 A 20 20 0 0 1 1040.4 598.36 H 680.4 A 20 20 0 0 1 660.4 578.36 V 522.36 A 20 20 0 0 1 680.4 502.36 Z" />
<path class="node-stroke" d="M 680.4 502.36 H 1040.4 A 20 20 0 0 1 1060.4 522.36 V 578.36 A 20 20 0 0 1 1040.4 598.36 H 680.4 A 20 20 0 0 1 660.4 578.36 V 522.36 A 20 20 0 0 1 680.4 502.36 Z" />
<path class="node-stroke ghost" d="M 680.42 502.37 H 1040.42 A 20 20 0 0 1 1060.42 522.37 V 578.37 A 20 20 0 0 1 1040.42 598.37 H 680.42 A 20 20 0 0 1 660.42 578.37 V 522.37 A 20 20 0 0 1 680.42 502.37 Z" />
<text class="node-label" style="font-size: 20px;" x="860" y="541.36">
<tspan x="860" dy="0">准入能力模型</tspan>
</text>
<text class="node-caption" style="font-size: 12.5px;" x="860" y="582.46">1周 · 五维画像</text>
</g>
<g class="node" id="node-step3">
<path class="node-fill" style="fill: var(--sky);" d="M 142.41 502.37 H 502.41 A 20 20 0 0 1 522.41 522.37 V 578.37 A 20 20 0 0 1 502.41 598.37 H 142.41 A 20 20 0 0 1 122.41 578.37 V 522.37 A 20 20 0 0 1 142.41 502.37 Z" />
<path class="node-stroke" d="M 142.41 502.37 H 502.41 A 20 20 0 0 1 522.41 522.37 V 578.37 A 20 20 0 0 1 502.41 598.37 H 142.41 A 20 20 0 0 1 122.41 578.37 V 522.37 A 20 20 0 0 1 142.41 502.37 Z" />
<path class="node-stroke ghost" d="M 142.42 502.38 H 502.42 A 20 20 0 0 1 522.42 522.38 V 578.38 A 20 20 0 0 1 502.42 598.38 H 142.42 A 20 20 0 0 1 122.42 578.38 V 522.38 A 20 20 0 0 1 142.42 502.38 Z" />
<text class="node-label" style="font-size: 20px;" x="322" y="541.36">
<tspan x="322" dy="0">流程优化</tspan>
</text>
<text class="node-caption" style="font-size: 12.5px;" x="322" y="582.46">1周 · 标准化清单+并行处理</text>
</g>
<g class="node" id="node-step4">
<path class="node-fill" style="fill: var(--amber);" d="M 680.42 502.37 H 1040.42 A 20 20 0 0 1 1060.42 522.37 V 578.37 A 20 20 0 0 1 1040.42 598.37 H 680.42 A 20 20 0 0 1 660.42 578.37 V 522.37 A 20 20 0 0 1 680.42 502.37 Z" />
<path class="node-stroke" d="M 680.42 502.37 H 1040.42 A 20 20 0 0 1 1060.42 522.37 V 578.37 A 20 20 0 0 1 1040.42 598.37 H 680.42 A 20 20 0 0 1 660.42 578.37 V 522.37 A 20 20 0 0 1 680.42 502.37 Z" />
<path class="node-stroke ghost" d="M 680.43 502.39 H 1040.43 A 20 20 0 0 1 1060.43 522.39 V 578.39 A 20 20 0 0 1 1040.43 598.39 H 680.43 A 20 20 0 0 1 660.43 578.39 V 522.39 A 20 20 0 0 1 680.43 502.39 Z" />
<text class="node-label" style="font-size: 20px;" x="860" y="541.36">
<tspan x="860" dy="0">备选供应商池</tspan>
</text>
<text class="node-caption" style="font-size: 12.5px;" x="860" y="582.46">持续 · 潜在供应商档案</text>
</g>
<g class="node" id="node-metric1">
<path class="node-fill" style="fill: var(--mint);" d="M 141.99 762.01 H 321.99 A 20 20 0 0 1 341.99 782.01 V 838.01 A 20 20 0 0 1 321.99 858.01 H 141.99 A 20 20 0 0 1 121.99 838.01 V 782.01 A 20 20 0 0 1 141.99 762.01 Z" />
<path class="node-stroke" d="M 141.99 762.01 H 321.99 A 20 20 0 0 1 341.99 782.01 V 838.01 A 20 20 0 0 1 321.99 858.01 H 141.99 A 20 20 0 0 1 121.99 838.01 V 782.01 A 20 20 0 0 1 141.99 762.01 Z" />
<path class="node-stroke ghost" d="M 142.01 762.02 H 322.01 A 20 20 0 0 1 342.01 782.02 V 838.02 A 20 20 0 0 1 322.01 858.02 H 142.01 A 20 20 0 0 1 122.01 838.02 V 782.02 A 20 20 0 0 1 142.01 762.02 Z" />
<text class="node-label" style="font-size: 20px;" x="232" y="801.36">
<tspan x="232" dy="0">准入周期</tspan>
</text>
<text class="node-caption" style="font-size: 12.5px;" x="232" y="842.46">5-7天</text>
</g>
<g class="node" id="node-metric2">
<path class="node-fill" style="fill: var(--sky);" d="M 387.85 762.02 H 567.85 A 20 20 0 0 1 587.85 782.02 V 838.02 A 20 20 0 0 1 567.85 858.02 H 387.85 A 20 20 0 0 1 367.85 838.02 V 782.02 A 20 20 0 0 1 387.85 762.02 Z" />
<path class="node-stroke" d="M 387.85 762.02 H 567.85 A 20 20 0 0 1 587.85 782.02 V 838.02 A 20 20 0 0 1 567.85 858.02 H 387.85 A 20 20 0 0 1 367.85 838.02 V 782.02 A 20 20 0 0 1 387.85 762.02 Z" />
<path class="node-stroke ghost" d="M 387.87 762.03 H 567.87 A 20 20 0 0 1 587.87 782.03 V 838.03 A 20 20 0 0 1 567.87 858.03 H 387.87 A 20 20 0 0 1 367.87 838.03 V 782.03 A 20 20 0 0 1 387.87 762.03 Z" />
<text class="node-label" style="font-size: 20px;" x="477.84" y="801.36">
<tspan x="477.84" dy="0">首月达标率</tspan>
</text>
<text class="node-caption" style="font-size: 12.5px;" x="477.84" y="842.46">≥70%</text>
</g>
<g class="node" id="node-metric3">
<path class="node-fill" style="fill: var(--amber);" d="M 622.67 762.03 H 802.67 A 20 20 0 0 1 822.67 782.03 V 838.03 A 20 20 0 0 1 802.67 858.03 H 622.67 A 20 20 0 0 1 602.67 838.03 V 782.03 A 20 20 0 0 1 622.67 762.03 Z" />
<path class="node-stroke" d="M 622.67 762.03 H 802.67 A 20 20 0 0 1 822.67 782.03 V 838.03 A 20 20 0 0 1 802.67 858.03 H 622.67 A 20 20 0 0 1 602.67 838.03 V 782.03 A 20 20 0 0 1 622.67 762.03 Z" />
<path class="node-stroke ghost" d="M 622.69 762.04 H 802.69 A 20 20 0 0 1 822.69 782.04 V 838.04 A 20 20 0 0 1 802.69 858.04 H 622.69 A 20 20 0 0 1 602.69 838.04 V 782.04 A 20 20 0 0 1 622.69 762.04 Z" />
<text class="node-label" style="font-size: 20px;" x="712.66" y="801.36">
<tspan x="712.66" dy="0">评估一致性</tspan>
</text>
<text class="node-caption" style="font-size: 12.5px;" x="712.66" y="842.46">差异≤15%</text>
</g>
<g class="node" id="node-metric4">
<path class="node-fill" style="fill: var(--coral);" d="M 878.03 762.04 H 1058.03 A 20 20 0 0 1 1078.03 782.04 V 838.04 A 20 20 0 0 1 1058.03 858.04 H 878.03 A 20 20 0 0 1 858.03 838.04 V 782.04 A 20 20 0 0 1 878.03 762.04 Z" />
<path class="node-stroke" d="M 878.03 762.04 H 1058.03 A 20 20 0 0 1 1078.03 782.04 V 838.04 A 20 20 0 0 1 1058.03 858.04 H 878.03 A 20 20 0 0 1 858.03 838.04 V 782.04 A 20 20 0 0 1 878.03 762.04 Z" />
<path class="node-stroke ghost" d="M 878.04 762.05 H 1058.04 A 20 20 0 0 1 1078.04 782.05 V 838.05 A 20 20 0 0 1 1058.04 858.05 H 878.04 A 20 20 0 0 1 858.04 838.05 V 782.05 A 20 20 0 0 1 878.04 762.05 Z" />
<text class="node-label" style="font-size: 20px;" x="968" y="801.36">
<tspan x="968" dy="0">备选池厚度</tspan>
</text>
<text class="node-caption" style="font-size: 12.5px;" x="968" y="842.46">每产线≥2家</text>
</g>
  </g>
</svg>
