<svg xmlns="http://www.w3.org/2000/svg" width="1150" height="420" viewBox="0 0 1150 420" role="img" aria-label="fe-cinematic-ui 技能工作流">
  <title>fe-cinematic-ui 技能工作流</title>
  <desc>四阶段导演驱动的网站设计流程</desc>
  <defs>
    <pattern id="dots" width="24" height="24" patternUnits="userSpaceOnUse">
      <circle cx="2" cy="2" r="0.8" fill="#E8E1D7" opacity="0.4"/>
    </pattern>
    <marker id="arrow-mint" viewBox="0 0 12 12" refX="10" refY="6" markerWidth="7" markerHeight="7" orient="auto">
      <path d="M 2 2 L 10 6 L 2 10" fill="none" stroke="#24B36B" stroke-width="1.5" stroke-linecap="round" stroke-linejoin="round"/>
    </marker>
    <marker id="arrow-sky" viewBox="0 0 12 12" refX="10" refY="6" markerWidth="7" markerHeight="7" orient="auto">
      <path d="M 2 2 L 10 6 L 2 10" fill="none" stroke="#2F7CF6" stroke-width="1.5" stroke-linecap="round" stroke-linejoin="round"/>
    </marker>
    <marker id="arrow-amber" viewBox="0 0 12 12" refX="10" refY="6" markerWidth="7" markerHeight="7" orient="auto">
      <path d="M 2 2 L 10 6 L 2 10" fill="none" stroke="#D79210" stroke-width="1.5" stroke-linecap="round" stroke-linejoin="round"/>
    </marker>
    <marker id="arrow-sand" viewBox="0 0 12 12" refX="10" refY="6" markerWidth="7" markerHeight="7" orient="auto">
      <path d="M 2 2 L 10 6 L 2 10" fill="none" stroke="#8B7355" stroke-width="1.5" stroke-linecap="round" stroke-linejoin="round"/>
    </marker>
    <marker id="arrow-coral" viewBox="0 0 12 12" refX="10" refY="6" markerWidth="7" markerHeight="7" orient="auto">
      <path d="M 2 2 L 10 6 L 2 10" fill="none" stroke="#F36B3C" stroke-width="1.5" stroke-linecap="round" stroke-linejoin="round"/>
    </marker>
  </defs>
  <rect width="1150" height="420" fill="#FCFBF7"/>
  <rect width="1150" height="420" fill="url(#dots)"/>
  <text x="40" y="46" font-family="Georgia, serif" font-size="24" fill="#2D2926" font-weight="bold">fe-cinematic-ui 技能工作流</text>
  <text x="40" y="68" font-family="Georgia, serif" font-size="13" fill="#7A6F66">四阶段导演驱动的网站设计流程</text>
  <rect x="330" y="40" width="180" height="210" rx="12" ry="12" fill="none" stroke="#2D2926" stroke-width="1" stroke-dasharray="6,4" opacity="0.2"/>
  <text x="344" y="32" font-family="Georgia, serif" font-size="11" fill="#7A6F66" font-style="italic">Phase 1 — Decisions</text>
  <rect x="500" y="30" width="230" height="340" rx="12" ry="12" fill="none" stroke="#2D2926" stroke-width="1" stroke-dasharray="6,4" opacity="0.2"/>
  <text x="514" y="22" font-family="Georgia, serif" font-size="11" fill="#7A6F66" font-style="italic">Phase 2 — Storyboard</text>
  <rect x="850" y="80" width="170" height="100" rx="12" ry="12" fill="none" stroke="#2D2926" stroke-width="1" stroke-dasharray="6,4" opacity="0.2"/>
  <text x="864" y="72" font-family="Georgia, serif" font-size="11" fill="#7A6F66" font-style="italic">Phase 3 — Spec</text>
  <rect x="1000" y="50" width="130" height="210" rx="12" ry="12" fill="none" stroke="#2D2926" stroke-width="1" stroke-dasharray="6,4" opacity="0.2"/>
  <text x="1014" y="42" font-family="Georgia, serif" font-size="11" fill="#7A6F66" font-style="italic">Phase 4 — Build</text>
  <path d="M 140 207.0 C 140 173.0, 200 156.0, 200 122.0" fill="none" stroke="#2F7CF6" stroke-width="2.2" stroke-dasharray="7,5" marker-end="url(#arrow-sky)"/>
  <path d="M 140 207.0 C 140 241.0, 200 258.0, 200 292.0" fill="none" stroke="#24B36B" stroke-width="2.2" stroke-dasharray="7,5" marker-end="url(#arrow-mint)"/>
  <path d="M 300 122.0 C 300 156.0, 360 173.0, 360 207.0" fill="none" stroke="#F36B3C" stroke-width="2.2" stroke-dasharray="7,5" marker-end="url(#arrow-coral)"/>
  <path d="M 300 292.0 C 300 258.0, 360 241.0, 360 207.0" fill="none" stroke="#24B36B" stroke-width="2.2" stroke-dasharray="7,5" marker-end="url(#arrow-mint)"/>
  <path d="M 480 207.0 C 480 157.0, 530 132.0, 530 82.0" fill="none" stroke="#2F7CF6" stroke-width="2.2" stroke-dasharray="7,5" marker-end="url(#arrow-sky)"/>
  <path d="M 480 207.0 C 500.0 207.0, 510.0 182.0, 530 182.0" fill="none" stroke="#2F7CF6" stroke-width="2.2" stroke-dasharray="7,5" marker-end="url(#arrow-sky)"/>
  <path d="M 630 82.0 C 630 122.0, 700 142.0, 700 182.0" fill="none" stroke="#F36B3C" stroke-width="2.2" stroke-dasharray="7,5" marker-end="url(#arrow-coral)"/>
  <path d="M 630 182.0 C 658.0 182.0, 672.0 182.0, 700 182.0" fill="none" stroke="#F36B3C" stroke-width="2.2" stroke-dasharray="7,5" marker-end="url(#arrow-coral)"/>
  <path d="M 580.0 204 C 580.0 226.4, 580.0 237.6, 580.0 260" fill="none" stroke="#D79210" stroke-width="2.2" stroke-dasharray="7,5" marker-end="url(#arrow-amber)"/>
  <path d="M 630 282.0 C 630 242.0, 700 222.0, 700 182.0" fill="none" stroke="#F36B3C" stroke-width="2.2" stroke-dasharray="7,5" marker-end="url(#arrow-coral)"/>
  <path d="M 760.0 204 C 760.0 242.4, 750.0 261.6, 750.0 300" fill="none" stroke="#2F7CF6" stroke-width="2.2" stroke-dasharray="7,5" marker-end="url(#arrow-sky)"/>
  <path d="M 820 182.0 C 840.0 182.0, 850.0 142.0, 870 142.0" fill="none" stroke="#F36B3C" stroke-width="2.2" stroke-dasharray="7,5" marker-end="url(#arrow-coral)"/>
  <path d="M 800 322.0 C 800 272.0, 870 192.0, 870 142.0" fill="none" stroke="#F36B3C" stroke-width="2.2" stroke-dasharray="7,5" marker-end="url(#arrow-coral)"/>
  <path d="M 1000 142.0 C 1000 126.0, 1020 118.0, 1020 102.0" fill="none" stroke="#24B36B" stroke-width="2.2" stroke-dasharray="7,5" marker-end="url(#arrow-mint)"/>
  <path d="M 1065.0 124 C 1065.0 154.4, 1065.0 169.6, 1065.0 200" fill="none" stroke="#8B7355" stroke-width="2.2" stroke-dasharray="7,5" marker-end="url(#arrow-sand)"/>
  <rect x="40" y="185" width="100" height="44" rx="16" ry="16" fill="#FFE8B5" stroke="#2D2926" stroke-width="1.8"/>
  <rect x="42" y="187" width="96" height="40" rx="14" ry="14" fill="none" stroke="#2D2926" stroke-width="0.6" opacity="0.25"/>
  <text x="90.0" y="202.0" text-anchor="middle" dominant-baseline="middle" font-family="Georgia, serif" font-size="13.5" fill="#2D2926" font-weight="500">启动问卷</text>
  <text x="90.0" y="220.0" text-anchor="middle" font-family="Georgia, serif" font-size="10.5" fill="#7A6F66">截图/逐步/随机</text>
  <rect x="200" y="100" width="100" height="44" rx="8" ry="8" fill="#DCEBFF" stroke="#2D2926" stroke-width="1.8"/>
  <rect x="202" y="102" width="96" height="40" rx="6" ry="6" fill="none" stroke="#2D2926" stroke-width="0.6" opacity="0.25"/>
  <text x="250.0" y="117.0" text-anchor="middle" dominant-baseline="middle" font-family="Georgia, serif" font-size="13.5" fill="#2D2926" font-weight="500">导演 + 电影</text>
  <text x="250.0" y="135.0" text-anchor="middle" font-family="Georgia, serif" font-size="10.5" fill="#7A6F66">外部研究</text>
  <rect x="200" y="270" width="100" height="44" rx="8" ry="8" fill="#DFF7E8" stroke="#2D2926" stroke-width="1.8"/>
  <rect x="202" y="272" width="96" height="40" rx="6" ry="6" fill="none" stroke="#2D2926" stroke-width="0.6" opacity="0.25"/>
  <text x="250.0" y="287.0" text-anchor="middle" dominant-baseline="middle" font-family="Georgia, serif" font-size="13.5" fill="#2D2926" font-weight="500">唯一性审计</text>
  <text x="250.0" y="305.0" text-anchor="middle" font-family="Georgia, serif" font-size="10.5" fill="#7A6F66">Shell-ban</text>
  <rect x="360" y="185" width="120" height="44" rx="16" ry="16" fill="#FFE0D7" stroke="#2D2926" stroke-width="1.8"/>
  <rect x="362" y="187" width="116" height="40" rx="14" ry="14" fill="none" stroke="#2D2926" stroke-width="0.6" opacity="0.25"/>
  <text x="420.0" y="202.0" text-anchor="middle" dominant-baseline="middle" font-family="Georgia, serif" font-size="13.5" fill="#2D2926" font-weight="500">decisions.md</text>
  <text x="420.0" y="220.0" text-anchor="middle" font-family="Georgia, serif" font-size="10.5" fill="#7A6F66">Phase 1</text>
  <rect x="530" y="60" width="100" height="44" rx="8" ry="8" fill="#DCEBFF" stroke="#2D2926" stroke-width="1.8"/>
  <rect x="532" y="62" width="96" height="40" rx="6" ry="6" fill="none" stroke="#2D2926" stroke-width="0.6" opacity="0.25"/>
  <text x="580.0" y="77.0" text-anchor="middle" dominant-baseline="middle" font-family="Georgia, serif" font-size="13.5" fill="#2D2926" font-weight="500">电影语法</text>
  <text x="580.0" y="95.0" text-anchor="middle" font-family="Georgia, serif" font-size="10.5" fill="#7A6F66">页面壳/导航</text>
  <rect x="530" y="160" width="100" height="44" rx="8" ry="8" fill="#DCEBFF" stroke="#2D2926" stroke-width="1.8"/>
  <rect x="532" y="162" width="96" height="40" rx="6" ry="6" fill="none" stroke="#2D2926" stroke-width="0.6" opacity="0.25"/>
  <text x="580.0" y="177.0" text-anchor="middle" dominant-baseline="middle" font-family="Georgia, serif" font-size="13.5" fill="#2D2926" font-weight="500">场景 Thesis</text>
  <text x="580.0" y="195.0" text-anchor="middle" font-family="Georgia, serif" font-size="10.5" fill="#7A6F66">每页核心主张</text>
  <rect x="530" y="260" width="100" height="44" rx="8" ry="8" fill="#FFE8B5" stroke="#2D2926" stroke-width="1.8"/>
  <rect x="532" y="262" width="96" height="40" rx="6" ry="6" fill="none" stroke="#2D2926" stroke-width="0.6" opacity="0.25"/>
  <text x="580.0" y="277.0" text-anchor="middle" dominant-baseline="middle" font-family="Georgia, serif" font-size="13.5" fill="#2D2926" font-weight="500">签名构图</text>
  <text x="580.0" y="295.0" text-anchor="middle" font-family="Georgia, serif" font-size="10.5" fill="#7A6F66">不可替代</text>
  <rect x="700" y="160" width="120" height="44" rx="16" ry="16" fill="#FFE0D7" stroke="#2D2926" stroke-width="1.8"/>
  <rect x="702" y="162" width="116" height="40" rx="14" ry="14" fill="none" stroke="#2D2926" stroke-width="0.6" opacity="0.25"/>
  <text x="760.0" y="177.0" text-anchor="middle" dominant-baseline="middle" font-family="Georgia, serif" font-size="13.5" fill="#2D2926" font-weight="500">storyboard.md</text>
  <text x="760.0" y="195.0" text-anchor="middle" font-family="Georgia, serif" font-size="10.5" fill="#7A6F66">Phase 2</text>
  <rect x="700" y="300" width="100" height="44" rx="8" ry="8" fill="#DCEBFF" stroke="#2D2926" stroke-width="1.8"/>
  <rect x="702" y="302" width="96" height="40" rx="6" ry="6" fill="none" stroke="#2D2926" stroke-width="0.6" opacity="0.25"/>
  <text x="750.0" y="317.0" text-anchor="middle" dominant-baseline="middle" font-family="Georgia, serif" font-size="13.5" fill="#2D2926" font-weight="500">提取 CSS/JS</text>
  <text x="750.0" y="335.0" text-anchor="middle" font-family="Georgia, serif" font-size="10.5" fill="#7A6F66">layout/entrance</text>
  <rect x="870" y="120" width="130" height="44" rx="16" ry="16" fill="#FFE0D7" stroke="#2D2926" stroke-width="1.8"/>
  <rect x="872" y="122" width="126" height="40" rx="14" ry="14" fill="none" stroke="#2D2926" stroke-width="0.6" opacity="0.25"/>
  <text x="935.0" y="137.0" text-anchor="middle" dominant-baseline="middle" font-family="Georgia, serif" font-size="13.5" fill="#2D2926" font-weight="500">compiled-spec.md</text>
  <text x="935.0" y="155.0" text-anchor="middle" font-family="Georgia, serif" font-size="10.5" fill="#7A6F66">Phase 3</text>
  <rect x="1020" y="80" width="90" height="44" rx="8" ry="8" fill="#DFF7E8" stroke="#2D2926" stroke-width="1.8"/>
  <rect x="1022" y="82" width="86" height="40" rx="6" ry="6" fill="none" stroke="#2D2926" stroke-width="0.6" opacity="0.25"/>
  <text x="1065.0" y="97.0" text-anchor="middle" dominant-baseline="middle" font-family="Georgia, serif" font-size="13.5" fill="#2D2926" font-weight="500">从 spec 构建</text>
  <text x="1065.0" y="115.0" text-anchor="middle" font-family="Georgia, serif" font-size="10.5" fill="#7A6F66">HTML/响应式</text>
  <rect x="1020" y="200" width="90" height="44" rx="8" ry="8" fill="#FFF0CF" stroke="#2D2926" stroke-width="1.8"/>
  <rect x="1022" y="202" width="86" height="40" rx="6" ry="6" fill="none" stroke="#2D2926" stroke-width="0.6" opacity="0.25"/>
  <text x="1065.0" y="217.0" text-anchor="middle" dominant-baseline="middle" font-family="Georgia, serif" font-size="13.5" fill="#2D2926" font-weight="500">验证&amp;调整</text>
  <text x="1065.0" y="235.0" text-anchor="middle" font-family="Georgia, serif" font-size="10.5" fill="#7A6F66">对照验收</text>
</svg>